<svg width="74" height="74" viewBox="0 0 74 74" fill="none" xmlns="http://www.w3.org/2000/svg">
<path d="M1.42523 56.1013C1.75389 53.5109 3.39723 51.4062 4.87623 49.6254C6.1909 48.0064 7.1769 45.9017 8.32723 44.1208C9.47756 42.34 11.1209 40.721 11.6139 38.6163C11.7782 37.9687 12.7642 37.3211 13.4216 36.6735C14.2432 35.864 14.5719 34.8927 15.5579 34.407C17.3656 33.2737 16.0509 31.9785 15.3936 30.8452C13.9146 28.5786 11.4496 27.1216 9.6419 25.0169C8.32723 23.5598 7.1769 21.7789 6.02656 19.998C5.6979 19.5124 5.36923 19.0267 5.04056 18.7029C4.05456 17.8934 3.39723 17.4077 4.38323 15.9506C5.36923 14.4935 6.02656 14.6554 7.6699 14.9792C9.47756 15.303 11.2852 16.2744 12.7642 16.1125C15.3936 15.6268 17.6942 16.922 19.9949 17.4077C21.4739 17.7315 22.9529 18.7029 24.4319 19.1886C25.4179 19.5124 25.9109 19.3505 26.5682 18.541C27.5542 17.2458 28.5402 15.9506 29.5262 14.8173C30.1836 14.0078 31.0052 13.0364 31.9912 12.2269C33.4702 11.0937 34.7849 9.79848 35.1136 7.8557C35.1136 7.5319 35.4422 7.04621 35.6066 7.04621C37.9072 6.88431 38.4002 4.45584 40.3722 3.64635C41.5226 3.16066 42.6729 1.86548 43.3302 0.73219C43.8232 -0.0772994 44.4806 -0.0772994 44.9736 0.0845985C45.7952 0.246496 46.4526 0.570292 46.4526 1.54168C46.4526 2.67497 46.6169 3.64635 46.4526 4.77964C46.1239 7.20811 46.2882 9.63658 45.9596 12.2269C45.4666 14.8173 45.7952 17.5696 45.6309 20.3218C45.4666 22.7503 46.2882 23.7217 48.2603 24.5312C51.2183 25.8264 54.0119 27.2834 56.6413 28.9024C58.2846 29.8738 60.0923 30.3595 61.5713 31.6547C62.3929 32.3023 63.5433 32.788 64.5293 33.2737C67.8159 34.5689 70.1166 37.1592 73.0746 38.6163C74.3893 39.2639 74.2249 39.9115 73.0746 40.721C70.9383 42.34 68.3089 41.5305 66.0083 41.5305C63.7076 41.5305 61.5713 42.0162 59.2706 42.34C56.8056 42.6638 54.3406 43.1494 51.8756 43.4732C50.2323 43.6351 48.7533 44.4446 46.9456 44.2827C45.9596 44.2827 45.6309 45.7398 45.6309 46.0636C45.6309 50.4349 44.8092 54.6442 44.3162 58.8535C43.9876 62.4153 43.6589 65.9771 43.4946 69.5388C43.4946 70.1864 43.6589 71.1578 43.6589 71.8054C43.6589 72.6149 43.8232 73.7482 42.8372 73.91C42.0156 74.072 41.1939 74.072 40.3722 73.4244C38.7289 72.2911 37.9072 70.3483 37.7429 69.0531C37.4142 66.4627 35.6066 64.8438 34.7849 62.5772C34.2919 61.4439 34.2919 60.1487 33.6346 59.0154C32.9772 57.7203 32.8129 56.2632 31.4982 55.4537C31.1696 55.2918 30.8409 54.968 30.8409 54.3204C31.3339 51.5681 28.8689 49.7873 28.5402 47.3588C28.5402 47.035 28.2116 46.8731 28.0472 47.035C26.0752 48.8159 22.9529 48.654 20.8166 50.4349C19.3376 51.5681 17.0369 51.73 15.3936 53.0252C12.4356 54.968 8.98456 55.9394 6.02656 57.5584C4.71189 58.206 3.56156 58.6917 2.24689 59.1773C1.42523 59.5011 0.603559 59.8249 0.110559 59.3392C-0.218108 59.0154 0.274892 58.0441 0.439225 57.3965C0.603559 56.9108 1.42523 56.7489 1.42523 56.1013ZM47.9316 27.2834C46.6169 26.474 44.9736 25.3407 43.3302 24.2074C42.6729 23.7217 42.1799 23.3979 42.3442 22.2646C42.6729 20.8075 42.8372 19.3505 43.0016 17.8934C43.0016 17.0839 42.0156 16.922 42.6729 15.9506C43.6589 14.3316 42.3442 12.2269 43.6589 10.608C43.8232 10.4461 43.4946 10.1223 43.4946 9.96037C43.0016 8.98899 42.8372 8.0176 43.4946 7.04621C43.6589 6.88431 44.1519 5.75103 43.3302 5.42723C42.5086 5.10343 42.1799 5.75103 41.8512 6.23672C40.3722 7.8557 38.5646 9.15088 37.2499 10.9318C35.9352 12.5507 34.1276 13.3602 32.9772 14.9792C32.6486 15.6268 32.6486 16.5982 31.8269 16.7601C30.1836 17.2458 29.3619 18.541 28.3759 19.6742C26.2396 22.1027 24.4319 22.4265 21.4739 21.2932C19.6662 20.6456 17.8586 19.8361 16.0509 20.1599C14.2432 20.4837 13.0929 17.0839 11.1209 19.5124C11.1209 19.5124 10.9566 19.3505 10.7922 19.3505C10.4636 19.1886 9.97056 18.8648 9.80623 19.1886C9.47756 19.6742 9.97056 19.998 10.1349 20.3218C10.4636 20.6456 10.6279 20.9694 10.9566 21.4551C12.7642 24.855 16.0509 26.9597 18.3516 29.8738C18.6802 30.3595 19.8306 30.1976 19.6662 31.169C19.6662 32.1404 19.8306 33.2737 19.3376 33.7594C17.3656 35.7021 16.5439 38.2925 14.7362 40.2353C11.1209 44.1208 9.47756 49.3016 6.02656 53.1871C5.86223 53.5109 5.6979 53.8347 5.86223 53.9966C6.1909 54.4823 6.35523 53.9966 6.6839 53.8347C9.47756 52.8633 11.7782 51.2443 14.2432 49.9492C16.3796 48.8159 18.3516 47.3588 20.4879 46.5493C22.1312 45.9017 23.7746 44.9303 25.7466 44.6065C27.3899 44.2827 28.7046 42.5019 30.6766 44.2827C31.0052 44.6065 31.3339 44.1208 31.1696 44.9303C31.0052 46.0636 30.8409 47.5207 32.4842 47.8445C33.3059 48.0064 32.8129 48.1683 32.8129 48.4921C32.8129 50.4349 32.9772 52.3776 35.1136 53.349C35.4422 53.5109 35.4422 53.9966 35.2779 54.1585C34.9492 54.8061 35.2779 55.2918 35.4422 55.7775C35.7709 58.3679 37.9072 60.3106 38.7289 62.901C39.0576 63.8724 39.3862 65.1676 40.2079 66.139C40.3722 66.3008 40.3722 66.6246 40.7009 66.4628C40.8652 66.4628 41.0296 66.3008 41.0296 66.139C40.7009 64.6819 41.0296 63.3867 41.3582 61.9296C42.1799 59.0154 41.6869 55.9394 42.1799 52.8633C42.6729 50.4349 42.6729 47.6826 42.5086 45.0922C42.5086 43.9589 42.8372 42.9876 44.1519 42.5019C46.9456 41.3686 49.9036 41.2067 52.8616 40.721C55.3266 40.2353 57.6273 39.9115 60.0923 39.7496C60.7496 39.7496 61.0783 39.2639 62.0643 39.2639C63.8719 39.4258 65.6796 39.7496 67.4873 39.2639C67.8159 39.2639 68.3089 39.2639 68.1446 38.7782C68.1446 38.4544 67.8159 38.2925 67.4873 38.1306C65.1866 36.6735 62.7216 35.7021 60.2566 34.5689C58.9419 33.9213 58.1203 32.6261 56.8056 32.1404C54.3406 30.6833 51.3826 29.0643 47.9316 27.2834Z" fill="#D7D7DF"/>
<path d="M34.4562 29.3881C34.2919 29.8738 33.9632 30.0357 33.3059 29.8738C32.6486 29.55 31.8269 26.7978 32.3199 26.3121C32.6486 25.8264 33.3059 25.9883 33.7989 26.1502C34.4562 26.1502 34.7849 28.7405 34.4562 29.3881Z" fill="#D7D7DF"/>
<path d="M36.2639 37.3211C37.2499 35.864 38.2359 36.0259 38.8932 37.483C38.0716 38.2925 37.0856 38.1306 36.2639 37.3211Z" fill="#D7D7DF"/>
</svg>
