<svg width="63" height="49" viewBox="0 0 63 49" fill="none" xmlns="http://www.w3.org/2000/svg">
<path d="M9.96073 28.4116C8.05637 29.4974 6.29004 30.6178 4.4195 31.5646C3.65607 31.9335 2.99685 32.4762 2.2954 32.8312C1.82776 33.0679 1.6446 33.7005 1.59946 34.3678C1.57117 35.6883 1.20484 36.9535 0.962467 38.1908C0.894834 38.4689 1.0751 38.6911 1.00746 38.9692C0.598903 40.0468 0.914293 41.1585 0.829681 42.2289C0.759149 43.3618 0.626642 44.5087 0.742031 45.5997C0.801106 46.4406 0.66018 47.2608 0.781229 48.0878C0.860042 48.7271 1.10228 48.9354 1.67978 48.6083C2.55308 48.1489 3.57848 47.7866 4.27152 47.1049C4.80679 46.5902 5.41811 46.124 6.04351 45.7204C6.88865 45.1359 7.73378 44.5514 8.51695 43.9808C9.40998 43.3199 10.3791 42.7074 11.258 41.9839C11.8693 41.5177 12.5426 41.0376 13.2441 40.6826C13.7117 40.4459 13.9991 39.987 14.4667 39.7503C15.0442 39.4231 15.5006 39.7147 15.9287 39.8811C16.0808 39.9783 16.309 40.124 16.447 40.1587C17.171 40.1928 17.7315 40.658 18.3737 40.9077C18.8019 41.0741 19.292 41.2266 19.7202 41.3931C20.6385 41.712 21.6469 42.1421 22.5652 42.461C23.2074 42.7107 23.8018 43.0368 24.5398 43.1335C25.2018 43.1816 25.8722 43.5564 26.4045 43.8965C27.151 44.3198 27.9228 44.2775 28.4018 43.5126C28.799 42.9632 29.1202 42.3652 29.5316 41.8784C30.1006 41.2246 30.6077 40.5848 31.1768 39.931C31.6839 39.2912 32.1629 38.5263 32.6841 37.949C33.2053 37.3717 33.6363 36.6833 34.0956 36.1199C34.5069 35.6331 34.7661 35.0491 35.2675 34.6734C36.0366 34.0403 36.3494 33.1156 36.9805 32.4479C37.4537 31.9471 37.7749 31.3492 38.1102 30.8137C38.4934 30.2018 38.9385 29.5759 39.3977 29.0126C39.809 28.5258 40.0683 27.9417 40.4796 27.4549C41.0346 26.7386 41.6037 26.0848 42.0826 25.3199C42.7053 24.3255 43.5082 23.5534 44.0688 22.573C44.4379 21.8985 45.1112 21.4184 45.4803 20.744C45.979 19.7775 46.7199 19.0193 47.2806 18.0389C47.937 16.9055 48.6836 15.8832 49.4161 14.7984C49.5598 14.5689 49.6275 14.2909 49.7712 14.0614C50.5037 12.9766 51.5685 12.2112 52.4813 11.3486C53.7237 10.2148 54.9661 9.08087 56.2225 8.00952C56.8198 7.48082 57.479 6.93817 58.0903 6.47201C58.5298 6.11024 59.0031 5.60944 59.4426 5.24768C60.2736 4.60063 60.8625 3.74529 61.6935 3.09825C62.133 2.73648 62.4204 2.27754 62.7077 1.8186C63.1388 1.13019 62.8402 0.671734 62.0121 0.463922C61.398 0.339332 60.7783 0.478849 60.1923 0.479336C59.1585 0.514947 58.181 0.800711 57.1951 0.759831C56.4092 0.739635 55.6457 1.10862 54.8176 0.90081C54.2035 0.776221 53.426 1.08267 52.7161 1.11106C51.7443 1.13272 50.8287 1.40453 49.9329 1.47478C48.0174 1.64317 46.1384 2.26329 44.2088 2.36914C43.9468 2.36241 43.7271 2.54329 43.4651 2.53656C42.3355 2.72515 41.1777 2.78867 40.1242 3.02585C38.6368 3.36068 37.1776 3.8206 35.6621 4.03036C35.2902 4.11407 35.0367 4.43398 34.5747 4.40657C34.1747 4.3652 33.707 4.60189 33.3352 4.6856C32.0478 5.04112 30.7802 5.19508 29.4928 5.5506C28.8111 5.70407 28.0956 5.99657 27.2955 5.91383C26.8477 5.94895 26.2138 6.02593 25.8363 6.37375C25.6166 6.55463 25.3743 6.34633 25.0645 6.41609C24.2588 6.59746 23.4193 6.91786 22.5855 6.97416C21.2418 7.07952 20.1488 7.71984 18.8952 7.93633C18.5234 8.02004 18.1797 8.22883 17.7318 8.26395C16.0923 8.50161 14.4753 9.12846 12.864 9.4912C12.1203 9.65862 11.3287 9.90253 10.585 10.07C10.3991 10.1118 10.1653 10.2302 10.0273 10.1955C9.32306 9.9598 9.11174 10.4673 8.88634 10.9123C8.30594 12.0943 7.78751 13.2623 7.11697 14.3332C6.49433 15.3276 5.99564 16.294 5.51103 17.3231C5.18984 17.921 4.61233 18.2482 4.50522 18.9293C4.38403 19.548 3.74455 19.8891 3.48534 20.4731C3.25994 20.9181 2.91059 21.391 2.82322 21.8706C2.72177 22.2877 2.34993 22.3714 2.15835 22.6774C1.98084 23.0459 1.86531 23.4004 1.68781 23.7689C1.3807 24.4294 0.907407 24.9302 0.738324 25.6254C0.603057 26.1815 0.645292 26.3691 1.21148 26.5702C2.2678 26.9237 3.39175 26.9993 4.41991 27.2277C5.86216 27.5601 7.31006 27.6284 8.71848 28.0999C9.13257 28.2038 9.53257 28.2451 9.96073 28.4116ZM61.5838 1.74308C60.3414 2.87697 59.161 3.99691 58.0285 5.04035C57.2256 5.81247 56.1664 6.31376 55.4817 7.32208C55.4338 7.39857 55.3099 7.42648 55.186 7.45438C54.5267 7.99703 53.8534 8.47714 53.2083 9.08233C52.9407 9.3397 52.673 9.59708 52.4195 9.91699C52.0701 10.3899 51.4222 10.4043 51.0588 10.8147C50.5996 11.378 50.0784 11.9553 49.5291 12.4075C47.6275 14.084 45.6498 15.712 43.6722 17.3399C43.3425 17.6113 42.8608 17.7854 42.6552 18.0288C42.1002 18.7452 41.3227 19.0516 40.7395 19.6428C39.7169 20.5958 38.3618 21.2294 37.3533 22.245C37.1955 22.4119 37.0378 22.5788 36.8518 22.6207C36.356 22.7323 35.9785 23.0801 35.663 23.414C34.8601 24.1861 33.8206 24.4858 33.0938 25.3065C32.4627 25.9743 31.519 26.121 30.8119 26.7401C30.1668 27.3453 29.3893 27.6518 28.73 28.1944C28.1807 28.6466 27.5412 28.9877 26.9778 29.3774C26.0848 30.0384 25.1917 30.6994 24.2846 31.2978C24.0029 31.4927 23.631 31.5764 23.4254 31.8198C22.3548 32.8493 21.0759 33.5315 19.9152 34.4498C18.9123 35.2013 17.8334 35.9041 16.7544 36.607C16.0191 37.101 15.2979 37.6576 14.5627 38.1517C13.4978 38.9171 12.4611 39.8076 11.3962 40.5729C10.4412 41.2479 9.50026 41.9854 8.55933 42.7229C7.6184 43.4603 6.51128 44.0381 5.57035 44.7756C4.50547 45.541 3.36454 46.2578 2.29966 47.0232C2.18979 47.1136 2.03203 47.2806 1.87992 47.1834C1.72782 47.0862 1.74756 46.8846 1.76729 46.6831C1.77861 46.1549 1.97585 45.5848 1.8773 45.147C1.73652 44.5216 1.91968 43.889 1.85494 43.3122C1.79021 42.7354 1.97337 42.1028 1.98469 41.5746C2.04391 40.9699 2.17917 40.4138 2.16233 39.7605C2.11734 38.9822 2.38221 38.134 2.39919 37.3417C2.37393 36.3618 2.62473 35.4511 2.67552 34.5198C2.70092 34.0541 2.87842 33.6856 3.28408 33.4629C3.84751 33.0732 4.51515 32.8572 4.97436 32.2939C5.242 32.0365 5.75187 31.9874 6.0195 31.73C6.82241 30.9579 7.77176 30.5471 8.69295 30.0112C9.55217 29.4892 10.4395 29.0923 11.3128 28.6329C12.1861 28.1734 13.0172 27.5264 13.9806 27.1781C14.93 26.7672 15.685 26.0716 16.6203 25.5982C18.0232 24.8882 19.2937 23.8794 20.6065 23.0582C21.4657 22.5362 22.3869 22.0003 23.3222 21.5269C23.6799 21.3806 23.7814 20.9636 24.1532 20.8799C24.9589 20.6985 25.528 20.0447 26.3956 19.8494C26.8294 19.7517 27.2407 19.2649 27.6464 19.0421C28.2239 18.715 28.8155 18.4504 29.393 18.1233C30.5001 17.5455 31.5931 16.9052 32.7003 16.3274C33.4496 15.8959 34.1849 15.4018 34.9483 15.0328C35.5399 14.7683 36.0554 14.4551 36.6329 14.1279C37.2104 13.8008 37.7598 13.3486 38.3993 13.0075C39.3204 12.4716 40.1937 12.0122 41.129 11.5388C41.8784 11.1073 42.7038 10.7243 43.3911 10.3068C44.0785 9.88918 44.8842 9.70781 45.4814 9.17911C45.9688 8.74085 46.6505 8.58739 47.228 8.26025C47.7576 8.00961 48.1971 7.64784 48.8028 7.44579C49.4704 7.22978 50.0817 6.76362 50.7212 6.42254C51.8762 5.76828 53.1214 5.22514 54.2904 4.63341C55.5694 3.95125 57.0427 3.55387 58.3357 2.93424C59.3611 2.57199 60.4485 2.19578 61.5838 1.74308ZM2.00596 25.4714C2.27926 24.9499 2.4286 24.4563 2.73005 24.0599C3.46256 22.9751 4.04297 21.7931 4.69942 20.6597C5.1643 19.8323 5.69115 18.9909 6.15603 18.1635C6.57301 17.4125 6.85196 16.6269 7.22104 15.9525C7.95921 14.6036 8.63541 13.2686 9.37357 11.9197C9.79055 11.1687 10.2863 11.0571 10.9681 10.9036C11.6498 10.7502 12.3174 10.5342 13.0132 10.4432C13.7569 10.2758 14.4865 10.0459 15.2161 9.8159C15.8838 9.59989 16.5936 9.5715 17.2613 9.3555C17.9289 9.13949 18.6585 8.90953 19.3402 8.75606C21.4473 8.28171 23.5404 7.74481 25.6616 7.333C26.7912 7.14441 27.9546 6.81679 29.0702 6.56566C30.1237 6.32848 31.1153 6.10525 32.1689 5.86808C33.6562 5.53324 35.138 5.4625 36.5831 4.94005C37.1268 4.75195 37.7409 4.87653 38.3325 4.61194C38.6902 4.46569 39.0761 4.44452 39.4621 4.42335C40.0959 4.34637 40.6875 4.08178 41.2452 3.95622C42.0509 3.77485 42.8847 3.71855 43.6284 3.55113C44.8059 3.28605 46.0116 3.14605 47.1412 2.95746C47.8849 2.79004 48.5948 2.76165 49.2906 2.67072C49.8483 2.54515 50.4061 2.41959 50.992 2.4191C51.7639 2.37676 52.5216 2.27188 53.2794 2.16699C53.9132 2.09002 54.609 1.99909 55.2287 1.85957C56.3584 1.67098 57.4542 1.62142 58.5697 1.37029C59.0655 1.25868 59.5134 1.22355 60.0233 1.17448C58.9922 1.80084 57.947 2.36466 56.8738 2.80341C55.7666 3.38118 54.6652 3.69485 53.5919 4.13359C53.1721 4.29379 52.7524 4.45399 52.3467 4.67673C50.9917 5.31031 49.6508 6.00643 48.1916 6.46634C46.2647 7.16295 44.366 7.98463 42.5152 8.72983C41.0842 9.31482 39.6249 9.77474 38.284 10.4709C37.2248 10.9721 36.1374 11.3483 35.1402 11.8357C33.4274 12.6155 31.6865 13.2703 29.9596 13.9875C28.2468 14.7674 26.5679 15.4082 24.841 16.1255C23.7198 16.6407 22.5845 17.0934 21.4493 17.5461C20.6718 17.8525 19.9985 18.3327 19.2548 18.5001C18.1392 18.7512 17.1082 19.3776 16.0969 19.8024C14.5559 20.4778 13.015 21.1532 11.4881 21.8912C9.6176 22.838 7.53863 23.4374 5.57796 24.273C4.98638 24.5376 4.26243 24.5035 3.699 24.8931C3.13557 25.2828 2.65386 25.457 2.00596 25.4714ZM47.895 15.2723C47.5484 16.3359 46.8835 17.1427 46.3566 17.9841C45.7819 18.9019 45.0832 19.8477 44.4324 20.717C43.7337 21.6628 43.173 22.6432 42.3842 23.4779C41.7532 24.1456 41.2263 24.987 40.6854 25.7659C40.1585 26.6073 39.4035 27.3029 38.8767 28.1443C38.5893 28.6032 38.2259 29.0136 37.8765 29.4865C37.2595 30.2167 36.6285 30.8845 36.2256 31.6979C35.9523 32.2194 35.5269 32.6437 35.1635 33.0541C34.4986 33.8608 34.1379 34.8619 33.2308 35.4604C33.2308 35.4604 33.2449 35.5229 33.197 35.5994C32.7659 36.2878 32.1969 36.9416 31.7517 37.5675C31.3066 38.1934 30.7093 38.7221 30.3403 39.3965C29.9373 40.21 29.2162 40.7666 28.7513 41.5941C28.478 42.1155 27.8526 42.5192 27.5793 43.0406C27.306 43.5621 27.0638 43.3538 26.7736 43.222C25.9032 42.8266 25.0047 42.3061 24.1484 41.9732C23.092 41.6196 22.1653 40.974 21.0752 40.7595C19.633 40.4271 18.3401 39.6011 16.8697 39.1436C16.5936 39.0744 16.1936 39.033 15.9711 38.6231C16.357 38.602 16.5768 38.4211 16.8726 38.2888C17.3881 37.9756 17.8755 37.5373 18.467 37.2727C18.9966 37.0221 19.5882 36.7575 20.0756 36.3193C20.5968 35.742 21.2842 35.3244 21.8814 34.7957C22.3688 34.3574 23.0223 34.0789 23.5858 33.6892C23.8675 33.4944 24.045 33.1259 24.3408 32.9936C25.4479 32.4158 26.4029 31.7409 27.4058 30.9894C28.2988 30.3284 29.1778 29.6049 30.0849 29.0064C30.8202 28.5124 31.5273 27.8932 32.2485 27.3366C33.1415 26.6756 33.9585 25.9661 34.8515 25.3051C35.7446 24.6441 36.7418 24.1567 37.6208 23.4332C38.342 22.8766 39.1392 22.3686 39.8463 21.7494C40.2858 21.3877 40.7394 21.0884 41.1169 20.7406C41.3845 20.4833 41.5761 20.1773 41.9198 19.9685C42.4212 19.5928 42.9227 19.2171 43.4241 18.8414C43.8157 18.5561 44.1932 18.2083 44.5848 17.923C45.1482 17.5333 45.6215 17.0325 46.1849 16.6429C46.7484 16.2532 47.2836 15.7384 47.895 15.2723ZM3.66228 25.887C3.64821 25.8245 3.63413 25.7619 3.62005 25.6994C4.28769 25.4834 4.89901 25.0172 5.53283 24.9403C6.16665 24.8633 6.6681 24.4876 7.21179 24.2995C8.23719 23.9372 9.17246 23.4638 10.1838 23.039C11.1951 22.6142 12.3726 22.3492 13.3699 21.8618C14.2572 21.4649 15.1925 20.9916 16.0799 20.5947C17.325 20.0515 18.6462 19.557 19.8914 19.0138C20.7168 18.6309 21.5422 18.248 22.3816 17.9276C23.5169 17.4749 24.7001 16.9457 25.8354 16.493C27.0326 16.0263 28.2777 15.4832 29.4468 14.8915C30.506 14.3902 31.5793 13.9514 32.5907 13.5267C33.0104 13.3665 33.264 13.0465 33.6837 12.8863C34.6612 12.6006 35.6246 12.2523 36.6219 11.7649C37.667 11.2011 38.8445 10.936 39.9798 10.4833C40.5714 10.2187 41.1911 10.0792 41.7546 9.68956C41.9264 9.58517 42.1602 9.46683 42.2785 9.70303C42.3968 9.93923 42.0869 10.009 41.963 10.0369C41.2756 10.4545 40.5741 10.8095 39.8107 11.1785C38.7656 11.7423 37.6725 12.3826 36.6274 12.9464C35.6442 13.4963 34.6751 14.1087 33.6018 14.5475C33.2441 14.6937 33.0328 15.2012 32.5286 14.9862C32.0355 15.6886 31.196 16.009 30.4946 16.364C29.7312 16.733 29.01 17.2896 28.1705 17.61C27.0972 18.0487 26.1422 18.7237 25.159 19.2736C24.004 19.9278 22.849 20.5821 21.7081 21.2989C20.9108 21.8069 20.0516 22.3289 19.2403 22.7743C19.0065 22.8927 18.6205 22.9139 18.4628 23.0808C17.7557 23.6999 16.9303 24.0829 16.1809 24.5144C15.0879 25.1547 13.9948 25.795 12.9159 26.4979C12.3525 26.8875 11.851 27.2633 11.2453 27.4653C10.2059 27.765 9.1552 27.1474 8.18901 26.9049C7.36085 26.6971 6.49046 26.3017 5.60032 26.1078C4.95242 26.1222 4.33834 25.9977 3.66228 25.887Z" fill="#A9A8B4"/>
<path d="M8.31737 39.6234C8.71461 39.074 9.36817 38.7954 9.85554 38.3572C10.5627 37.738 11.3458 37.1675 12.1431 36.6595C12.8783 36.1654 13.5094 35.4977 14.2447 35.0036C14.994 34.5721 15.6251 33.9043 16.3885 33.5354C16.8561 33.2987 17.2055 32.8258 17.659 32.5266C18.5661 31.9281 19.4451 31.2046 20.2762 30.5575C21.1072 29.9105 21.9242 29.2009 22.8313 28.6024C23.2849 28.3032 23.6201 27.7678 24.254 27.6908C24.3779 27.6629 24.5554 27.2944 24.7132 27.1275C25.0907 26.7796 25.5442 26.4804 25.9499 26.2577C26.5274 25.9305 26.8486 25.3326 27.5022 25.054C28.1557 24.7755 28.7811 24.3719 29.2685 23.9336C29.9615 23.2519 31.001 22.9522 31.6039 22.1594C31.8575 21.8395 32.1673 21.7697 32.449 21.5749C33.0604 21.1087 33.7139 20.8302 34.3252 20.364C34.8887 19.9744 35.438 19.5222 36.0634 19.1185C36.9846 18.5826 37.8157 17.9356 38.7369 17.3997C39.4862 16.9681 40.2215 16.4741 40.9089 16.0565C42.5174 15.103 44.126 14.1495 45.7205 13.1335C46.5656 12.549 47.5769 12.1242 48.408 11.4771C49.0813 10.997 49.7546 10.5169 50.3659 10.0507C50.4758 9.96031 50.5856 9.86987 50.4195 9.71015C50.3293 9.59903 50.2195 9.68947 50.1716 9.76596C49.7462 10.1903 49.2166 10.4409 48.7489 10.6776C47.5939 11.3319 46.5431 12.1598 45.2219 12.6543C44.5064 12.9468 43.9091 13.4755 43.2218 13.8931C42.5964 14.2967 41.8808 14.5892 41.2695 15.0554C40.4864 15.6259 39.6131 16.0854 38.7538 16.6073C37.8467 17.2058 36.9678 17.9293 35.9705 18.4167C35.5029 18.6533 35.0634 19.0151 34.5479 19.3283C34.0324 19.6415 33.5027 19.8921 33.0773 20.3164C32.4801 20.8451 31.7927 21.2627 31.1673 21.6663C30.1982 22.2787 29.2573 23.0162 28.3023 23.6912C27.2374 24.4565 26.2486 25.2705 25.1077 25.9873C24.3104 26.4953 23.6653 27.1005 22.9441 27.6571C22.113 28.3042 21.1637 28.715 20.5129 29.5843C20.2593 29.9042 19.7776 30.0784 19.372 30.3011C18.6367 30.7952 17.9296 31.4143 17.1943 31.9084C15.9097 32.8547 14.5631 33.8149 13.3066 34.8862C12.5995 35.5054 11.6981 35.8397 11.067 36.5074C10.1063 37.4465 8.92317 37.9757 7.94842 38.8522C7.46105 39.2905 6.93144 39.5411 6.50604 39.9654C6.34828 40.1323 6.36235 40.1949 6.45249 40.306C6.54262 40.4171 6.61867 40.4657 6.72854 40.3753C7.32012 40.1107 7.77368 39.8115 8.31737 39.6234Z" fill="#A9A8B4"/>
<path d="M9.2561 32.5127C8.9603 32.645 9.05043 32.7561 9.15465 32.9298C9.34899 33.2146 9.56307 33.2978 9.8307 33.0404C9.98847 32.8735 10.1603 32.7691 9.98005 32.5468C9.75189 32.4011 9.50965 32.1928 9.2561 32.5127Z" fill="#A9A8B4"/>
<path d="M32.1731 20.06C32.1168 19.8099 32.3084 19.5039 31.9704 19.4486C31.8323 19.414 31.5365 19.5463 31.5647 19.6713C31.621 19.9215 31.9309 19.8517 32.1731 20.06Z" fill="#A9A8B4"/>
<path d="M48.927 4.52668C48.7186 4.17935 48.3608 4.3256 48.1749 4.36745C46.5016 4.74415 44.8199 4.7942 43.2085 5.15694C42.093 5.40807 40.9634 5.59666 39.8338 5.78525C38.8422 6.00848 37.8365 6.16916 36.8449 6.39239C36.2872 6.51795 35.6477 6.85904 35.1237 6.84557C34.0758 6.81864 33.1265 7.22948 32.1208 7.39017C31.0532 7.56481 29.9517 7.87848 28.8982 8.11566C28.0925 8.29703 27.253 8.61743 26.4192 8.67372C26.0812 8.6184 25.7093 8.70211 25.3657 8.9109C25.022 9.11969 24.5741 9.15481 24.1881 9.17598C23.2445 9.32272 22.3571 9.71961 21.4134 9.86634C20.3317 9.97844 19.3344 10.4658 18.2189 10.7169C17.1653 10.9541 16.078 11.3303 14.9624 11.5814C14.2807 11.7349 13.5652 12.0274 12.8553 12.0558C12.7173 12.0211 12.5314 12.063 12.4496 12.2785C12.3679 12.494 12.2721 12.647 12.6581 12.6258C13.6299 12.6042 14.5877 12.52 15.4891 12.1856C15.9089 12.0254 16.3427 11.9278 16.7145 11.8441C18.0441 11.6762 19.2414 11.2095 20.4668 10.8679C21.3204 10.6101 22.2162 10.5398 23.1317 10.268C24.0331 9.93366 25.005 9.912 25.9205 9.64019C26.8501 9.43092 27.7797 9.22164 28.6953 8.94983C29.4869 8.70592 30.3066 8.58709 31.1742 8.39176C32.0278 8.1339 32.9715 7.98717 33.8391 7.79184C34.8307 7.56862 35.8364 7.40793 36.828 7.1847C37.9435 6.93358 39.0731 6.74498 40.1605 6.36878C40.7042 6.18068 41.3521 6.16624 41.9718 6.02672C43.1493 5.76164 44.355 5.62164 45.6085 5.40514C46.5522 5.25841 47.5157 4.9101 48.4734 4.8259C48.5833 4.73546 48.7411 4.56853 48.927 4.52668Z" fill="#A9A8B4"/>
<path d="M11.1228 13.0372C11.1566 12.8981 11.4045 12.8423 11.1763 12.6966C11.0242 12.5994 10.8778 12.2381 10.5482 12.5094C10.4383 12.5999 10.2045 12.7182 10.4467 12.9265C10.6749 13.0723 10.9369 13.079 11.1228 13.0372Z" fill="#A9A8B4"/>
<path d="M25.6275 39.8661C25.5514 39.8175 25.6472 39.6645 25.4331 39.5813C24.1148 39.221 22.8106 38.9232 21.4642 38.4379C21.112 38.32 20.698 38.2161 20.3459 38.0982C20.1459 38.0775 19.9599 38.1194 19.912 38.1959C19.8163 38.3489 20.0303 38.4321 20.2444 38.5153C20.9627 38.8136 21.7289 39.0353 22.4669 39.132C23.343 39.2633 24.1176 39.8118 25.0275 39.804C25.2415 39.8873 25.4415 39.908 25.6275 39.8661Z" fill="#A9A8B4"/>
<path d="M30.7578 32.8631C30.7409 32.2099 30.3607 31.9669 29.9663 31.6615C29.8002 31.5017 29.5241 31.4325 29.3044 31.6134C29.1945 31.7038 29.0987 31.8568 28.9888 31.9472C29.155 32.1069 29.3212 32.2666 29.5353 32.3499C30.0113 32.4398 30.4113 32.4812 30.7578 32.8631Z" fill="#A9A8B4"/>
<path d="M26.701 36.5361C26.8756 37.0225 27.3574 36.8483 27.5292 36.7439C27.825 36.6117 27.4306 36.3062 27.4983 36.0281C27.1603 35.9728 26.8758 35.5769 26.5941 35.7717C26.2645 36.043 26.4588 36.3278 26.701 36.5361Z" fill="#A9A8B4"/>
</svg>
