<svg width="58" height="62" viewBox="0 0 58 62" fill="none" xmlns="http://www.w3.org/2000/svg">
<path d="M25.2067 61.0522C24.9092 60.5329 24.5211 59.9118 24.0528 59.3442C23.6908 58.9372 23.5109 58.3859 23.1704 57.9415C22.9362 57.6577 22.7122 57.529 22.3004 57.6408C21.8886 57.7526 21.4022 57.8215 20.9757 57.5267C20.8263 57.4409 20.6023 57.3122 20.3829 57.435C20.3026 57.4883 20.0944 57.4185 20.0786 57.3597C19.6475 56.8135 18.9212 56.6948 18.4472 56.2234C18.2662 56.0199 18.0264 55.8324 17.9415 55.6343C17.7934 55.2008 17.3669 54.9061 17.299 54.4192C17.2515 54.2426 17.092 54.0017 16.9856 53.841C16.6926 53.5732 16.7152 53.188 16.7107 52.9366C16.696 52.5301 16.3872 52.2033 16.5863 51.7703C16.6508 51.658 16.2718 51.5399 16.0636 51.47C15.4177 51.298 14.9595 50.8855 14.378 50.6012C14.0205 50.4456 13.9527 49.9587 13.5092 49.9528C13.3542 49.9633 13.5205 49.7602 13.3927 49.637C13.0465 49.2889 12.8236 48.8125 12.5578 48.4109C12.1483 47.8273 12.327 47.084 11.9175 46.5003C11.8643 46.42 11.9446 46.3666 11.9876 46.2918C12.2184 45.9765 11.9741 45.5375 12.2422 45.2437C12.1302 45.1793 12.1788 45.0082 11.9922 44.901C11.379 44.499 10.7444 44.1344 10.2115 43.679C9.47619 43.0575 8.80533 42.3237 8.49311 41.3979C8.41392 41.1035 8.41506 40.7558 8.3947 40.4455C8.40036 40.3493 8.44335 40.2744 8.39018 40.1941C8.08699 39.7711 8.45694 39.3865 8.5169 39.0228C8.52256 38.9265 8.60288 38.8731 8.49089 38.8088C7.71256 38.2621 7.19669 37.5179 6.70232 36.7362C6.24529 35.976 5.86858 35.1624 5.71134 34.226C5.65365 33.8943 5.59596 33.5626 5.63443 33.2363C5.68873 32.9689 5.62538 32.7335 5.44438 32.5299C5.0077 32.08 4.57103 31.6301 4.33799 30.9986C4.26898 30.8594 4.18413 30.6613 4.0563 30.5381C3.62528 29.9919 3.72371 29.302 3.46918 28.7079C3.35266 28.3921 3.51445 27.9376 3.57441 27.574C3.66719 26.9803 3.59818 26.8411 3.05402 26.5783C2.58453 26.3583 2.29719 25.9942 2.03134 25.5926C1.90916 25.3732 1.66367 25.2819 1.52 25.0998C1.42949 24.9981 1.30166 24.8749 1.30732 24.7786C1.21343 24.0777 0.846895 23.4192 0.69418 22.7343C0.424944 21.7336 0.406859 20.7279 0.447601 19.7063C0.460054 19.166 0.686325 18.5992 0.853766 18.0485C0.972558 17.6688 1.20335 17.3535 1.28481 16.9524C1.31762 16.7225 1.73507 16.5144 1.8697 16.1936C2.1763 15.5735 2.73856 15.1998 3.27933 14.8635C3.74543 14.4843 4.29186 14.0517 4.96498 14.0901C5.19464 14.1225 5.41977 13.9034 5.70825 13.9199C6.32255 13.9742 6.91535 14.0659 7.5025 14.2539C7.84415 14.3506 8.03195 14.1102 8.23559 13.9286C8.70169 13.5494 9.20513 13.1916 9.68707 12.8713C10.6724 12.1933 11.6952 11.5366 12.7869 11.0192C13.322 10.7792 13.8627 10.4429 14.3979 10.2029C14.8956 9.94143 15.4681 9.72286 15.9127 9.38109C16.7374 8.8098 17.6787 8.55428 18.4977 8.07928C19.3598 7.52943 20.2694 7.15618 21.1846 6.68665C22.4585 6.02502 23.7323 5.36339 24.9847 4.73918C25.7608 4.339 26.6432 4.09945 27.3718 3.52269C27.9985 3.03672 28.7904 2.69542 29.5394 2.42894C30.5451 2.06117 31.4977 1.61308 32.5034 1.24531C33.37 0.946896 34.1834 0.56817 35.1608 0.681802C35.3531 0.692756 35.5613 0.762573 35.705 0.944641C35.9923 1.30878 36.2423 1.65147 36.4924 1.99416C36.7797 2.3583 36.8261 2.88259 37.3171 3.06512C37.3544 3.08657 37.3431 3.27913 37.3962 3.35944C37.5501 3.69666 37.7039 4.03387 37.9008 4.29625C38.2255 4.68183 38.4483 5.15822 38.6554 5.57575C38.9314 6.13245 39.2447 6.71059 39.5423 7.22987C39.893 7.82947 40.1848 8.44503 40.5355 9.04462C40.8014 9.44618 41.0084 9.8637 41.1939 10.3186C41.4009 10.7362 41.4847 11.2819 41.9112 11.5767C42.0605 11.6625 41.8998 11.7693 41.9315 11.887C42.2437 12.8128 42.7969 13.5785 43.2913 14.3602C43.435 14.5423 43.4395 14.7937 43.5243 14.9917C43.7155 15.3504 43.9067 15.709 44.1194 16.0303C44.5391 16.7691 44.8196 17.5772 45.2608 18.2785C45.6647 18.9584 45.9883 19.6917 46.296 20.3662C46.5505 20.9603 46.7247 21.6078 47.0969 22.1699C47.5969 22.8553 47.7383 23.7328 48.1795 24.4342C48.5517 24.9963 48.6829 25.7187 49.0178 26.2594C49.39 26.8216 49.5427 27.5065 49.8934 28.1061C50.0687 28.4059 50.1049 28.775 50.2803 29.0748C50.769 29.9528 51.1774 30.8841 51.6073 31.778C51.9365 32.415 52.2815 33.1109 52.5519 33.7639C52.8279 34.3206 53.0236 34.9307 53.2781 35.5248C53.6017 36.2581 53.9252 36.9914 54.2488 37.7247C54.6786 38.6186 55.1459 39.5339 55.6346 40.4119C56.0384 41.0918 56.3031 41.841 56.5305 42.5689C56.6787 43.0023 56.5283 43.2643 56.1696 43.4564C56.009 43.5631 56.0248 43.622 56.0135 43.8146C56.0226 44.3174 56.0531 44.7829 56.0836 45.2483C56.199 45.9118 56.1379 46.6231 56.4886 47.2227C56.5949 47.3834 56.7171 47.6028 56.9366 47.4801C57.0543 47.4482 57.1776 47.3199 57.2839 47.4806C57.3529 47.6197 57.2669 47.7694 57.1436 47.8976C56.5542 48.405 55.7736 48.5538 55.1367 48.8846C54.4997 49.2154 53.7938 49.4071 53.2689 49.8022C53.0867 49.9464 52.8356 49.9514 52.6749 50.0582C52.434 50.2184 52.1557 50.3571 51.8989 50.4584C51.1658 50.7837 50.47 51.1305 49.7742 51.4773C49.1373 51.8081 48.4416 52.1549 47.7673 52.4642C46.9166 52.8215 46.0443 53.2162 45.2467 53.6538C45.0273 53.7766 44.7014 53.7387 44.4605 53.8988C43.6787 54.3953 42.7963 54.6349 41.9829 55.0136C41.3086 55.3229 40.5755 55.6483 39.9013 55.9577C38.9272 56.4432 37.9057 56.7521 36.9316 57.2376C36.177 57.6003 35.4224 57.9631 34.6147 58.2455C33.7266 58.5814 32.8543 58.9761 32.0194 59.3922C31.5217 59.6537 30.9651 59.9311 30.4571 60.0374C29.8688 60.1971 29.3495 60.496 28.7613 60.6557C28.3868 60.7889 28.0123 60.9221 27.691 61.1357C27.1876 61.4934 26.536 61.4177 26.0325 61.7754C25.9466 61.9251 25.3707 61.5445 25.2067 61.0522ZM42.4683 50.3656C42.4683 50.3656 42.4468 50.403 42.4095 50.3816C42.3246 50.1836 42.1696 50.1941 42.009 50.3008C41.8913 50.3328 41.8269 50.445 41.6877 50.5144C40.9116 50.9145 40.0507 51.1167 39.3119 51.5383C39.1728 51.6077 39.0868 51.7573 38.9318 51.7678C38.0867 52.0288 37.2892 52.4664 36.4757 52.8451C36.3366 52.9145 36.2189 52.9464 36.0798 53.0158C35.1702 53.389 34.2765 53.8212 33.4042 54.2158C33.0083 54.3865 32.6123 54.5572 32.2164 54.7278C31.7831 54.877 31.3656 55.0851 30.8735 55.2503C29.6913 55.666 28.5939 56.2797 27.5712 56.9363C27.1911 57.1658 27.1469 57.5883 27.1085 57.9146C27.0757 58.1446 27.4128 57.9899 27.5836 58.0383C27.5621 58.0757 27.578 58.1346 27.5565 58.172C26.9523 58.2728 26.8279 58.7487 26.7408 59.2461C26.7351 59.3424 26.708 59.4761 26.7453 59.4975C26.82 59.5404 26.9376 59.5085 27.0179 59.4551C27.2646 59.1987 27.5745 59.1777 27.8845 59.1567C28.0983 59.1302 28.328 59.1626 28.4513 59.0344C28.9332 58.7141 29.4842 58.5329 29.982 58.2715C30.8972 57.8019 31.8283 57.3913 32.7062 56.9003C33.5253 56.4253 34.4133 56.0895 35.2482 55.6733C35.9225 55.364 36.5968 55.0546 37.1964 54.7023C37.9351 54.2807 38.7214 54.0357 39.4601 53.614C39.8991 53.3686 40.4342 53.1286 40.9636 52.9848C41.2578 52.905 41.5892 52.8466 41.8302 52.6864C42.5316 52.2433 43.2806 51.9769 44.0351 51.6141C44.7682 51.2888 45.4798 51.0008 46.2129 50.6755C47.0048 50.3342 47.8024 49.8966 48.6475 49.6356C49.1396 49.4704 49.5786 49.2249 50.0549 49.0009C51.7993 48.2115 53.5913 47.5987 55.3358 46.8093C55.475 46.74 55.8381 46.7993 55.7431 46.4461C55.6956 46.2695 55.6854 46.1144 55.6752 45.9592C55.6345 45.3386 55.4478 45.2314 54.8969 45.4126C54.4636 45.5618 54.0303 45.711 53.5755 45.8976C52.8051 46.2015 52.072 46.5268 51.2857 46.7718C50.5368 47.0383 49.8411 47.3851 49.1295 47.673C48.4982 47.9076 47.9359 48.2813 47.2945 48.3607C47.2255 48.2215 47.2311 48.1252 47.4449 48.0987C47.9156 47.971 48.2957 47.7415 48.7505 47.5548C49.2856 47.3148 49.8365 47.1337 50.3128 46.9096C51.1047 46.5683 51.8752 46.2644 52.6829 45.982C53.3945 45.6941 54.1434 45.4276 54.855 45.1397C55.2295 45.0064 55.8065 45.0393 55.5202 44.3275C55.5044 44.2686 55.5961 44.0226 55.5214 43.9798C55.4309 43.878 55.2646 44.081 55.2058 44.097C54.9388 44.0432 54.8098 44.2677 54.6118 44.353C53.7396 44.7477 52.8832 45.2013 52.0109 45.596C51.4543 45.8734 50.8977 46.1508 50.2879 46.3479C49.7958 46.5131 49.341 46.6997 48.9021 46.9452C48.5435 47.1373 48.1848 47.3294 47.7889 47.5001C46.9381 47.8574 46.1779 48.3164 45.3271 48.6737C44.7332 48.9297 44.1709 49.3034 43.5612 49.5005C43.1867 49.6337 42.9186 49.9276 42.5068 50.0394C42.3676 50.1087 42.3778 50.2639 42.4683 50.3656ZM12.0184 28.6925C12.0592 29.313 12.6621 29.5599 12.687 30.1216C12.7232 30.4908 13.0909 30.8015 13.1859 31.1547C13.3601 31.8022 13.8715 32.295 14.0242 32.98C14.0344 33.1351 14.2844 33.4778 14.7335 33.3874C15.5729 33.2227 16.444 33.1757 17.2869 33.6102C18.1297 34.0446 18.753 34.6017 19.1885 35.3994C19.2576 35.5385 19.2836 35.7525 19.546 35.555C19.6479 35.4642 19.8402 35.4751 19.9307 35.5769C20.0585 35.7001 20.2022 35.8821 20.0947 36.0692C19.9657 36.2937 19.8741 36.5397 19.5958 36.6784C19.2157 36.9079 18.9012 36.6775 18.6828 36.4525C18.5018 36.249 18.6093 36.0619 18.7915 35.9177C18.8718 35.8643 18.8559 35.8055 18.8186 35.784C18.5946 35.6553 18.5154 35.361 18.3503 35.2164C17.6839 34.734 16.9531 34.364 16.1307 34.2398C15.7675 34.1805 15.4044 34.1212 15.0356 34.1582C14.8217 34.1846 14.6769 34.3503 14.8048 34.4735C15.1079 34.8965 15.3681 35.3943 15.6498 35.8547C15.9847 36.3954 16.1431 36.9841 16.4564 37.5622C16.7698 38.1404 17.0831 38.7185 17.3535 39.3715C17.4542 39.6284 17.737 39.7411 17.9135 39.6932C18.4486 39.4532 18.9554 39.6946 19.4521 39.7808C20.0449 39.8726 20.7282 40.066 21.1864 40.4786C21.4262 40.6661 21.6988 40.6237 21.9013 40.7898C22.2475 41.1379 22.6367 41.4113 22.9025 41.8128C23.0462 41.9949 23.1525 42.1555 23.3822 42.1879C23.6492 42.2418 23.691 42.5146 23.6209 42.7232C23.5236 43.0654 23.2453 43.2041 22.967 43.3428C22.6887 43.4815 22.4274 43.3314 22.3425 43.1334C22.2577 42.9353 21.9862 42.6301 22.3663 42.4005C22.4466 42.3471 22.4364 42.192 22.3244 42.1277C22.1219 41.9616 21.9782 41.7795 21.7757 41.6134C21.4239 41.3615 21.0506 41.147 20.6773 40.9326C20.3413 40.7395 19.9351 40.7551 19.5776 40.5995C19.1828 40.4224 18.7767 40.4379 18.3332 40.432C18.1997 40.4051 18.0821 40.437 18.0017 40.4904C17.9372 40.6026 17.9474 40.7578 18.1183 40.8061C18.5662 41.0635 18.5165 41.5823 18.8038 41.9465C19.038 42.2303 19.1862 42.6638 19.3989 42.985C19.8457 43.5901 20.0143 44.3339 20.4826 44.9015C20.7168 45.1854 20.9826 45.5869 21.072 46.0364C21.0878 46.0952 21.21 46.3147 21.3809 46.3631C22.3153 46.5516 23.2396 46.5849 24.1684 46.8696C24.9263 47.106 25.4965 47.5829 26.1685 47.9689C26.6165 48.2263 26.914 48.7456 27.1154 49.2594C27.2161 49.5163 27.2579 49.7891 27.6267 49.7522C27.7229 49.7577 27.7546 49.8754 27.7704 49.9342C27.8869 50.25 27.741 50.7634 27.4253 50.8806C27.1312 50.9605 26.8099 51.174 26.5384 50.8688C26.2454 50.6009 26.3212 50.2961 26.5678 50.0396C26.7126 49.874 26.6866 49.66 26.5746 49.5957C26.2601 49.3652 26.0474 49.044 25.7918 48.7976C25.3551 48.3476 24.7838 48.2185 24.3041 47.8434C24.0111 47.5755 23.6367 47.7088 23.3165 47.5746C22.8255 47.3921 22.4307 47.215 21.8639 47.3373C21.5698 47.4172 21.6818 47.4815 21.6919 47.6367C21.787 47.9898 22.0585 48.2951 22.175 48.6109C22.4499 49.5153 22.9872 50.2221 23.4228 51.0198C23.9647 51.978 24.5869 52.8829 25.1502 53.8037C25.5383 54.4247 26.0711 54.8801 26.5021 55.4264C26.5926 55.5281 26.6831 55.6299 26.6933 55.785C26.7408 55.9616 26.777 56.3308 27.1142 56.1761C27.371 56.0748 27.6809 56.0538 27.8631 55.9096C28.3665 55.5519 28.9763 55.3547 29.5487 55.1362C30.5601 54.6721 31.55 54.2455 32.5614 53.7814C33.1554 53.5255 33.7493 53.2695 34.3274 52.9546C35.0661 52.533 35.8309 52.3254 36.5855 51.9626C37.3774 51.6213 38.1162 51.1997 38.8707 50.837C39.743 50.4423 40.5564 50.0635 41.4286 49.6688C42.0814 49.3969 42.7342 49.1249 43.3338 48.7727C43.9707 48.4419 44.602 48.2073 45.2174 47.9139C45.8917 47.6045 46.5659 47.2952 47.2402 46.9858C47.7753 46.7458 48.2889 46.5432 48.824 46.3032C49.5198 45.9564 50.2472 45.7273 50.8683 45.3377C51.9498 44.6651 53.1321 44.2494 54.1921 43.6142C54.6741 43.2939 55.2567 43.2305 55.7013 42.8887C55.9049 42.7071 55.9106 42.6108 55.8099 42.3539C55.6775 41.9793 55.3257 41.7274 55.268 41.3957C55.1323 40.4219 54.5576 39.6936 54.2024 38.8426C53.9637 38.3074 53.7838 37.7561 53.4863 37.2369C53.0982 36.6158 52.9082 35.9095 52.5417 35.251C52.2125 34.614 51.9636 33.9236 51.6344 33.2866C51.4432 32.9279 51.407 32.5588 51.1355 32.2535C50.9545 32.05 50.7791 31.7502 50.7373 31.4773C50.6377 30.8727 50.2226 30.3854 50.0054 29.8127C49.8198 29.3577 49.554 28.9562 49.3685 28.5012C49.0132 27.6502 48.5992 26.8152 48.1851 25.9801C47.8559 25.3431 47.6071 24.6527 47.2779 24.0157C47.0708 23.5982 46.9442 23.1273 46.6783 22.7257C46.1251 21.96 45.8875 21.0771 45.5108 20.2635C45.0595 19.407 44.6296 18.5131 44.2212 17.5817C44.099 17.3622 43.8965 17.1962 43.849 17.0196C43.3512 15.6388 42.3885 14.2895 41.7414 12.8229C41.2165 11.5758 40.4936 10.414 39.8511 9.19885C39.7662 9.00081 39.6599 8.84019 39.5751 8.64215C39.092 7.66793 38.3306 6.83242 38.0082 5.75142C37.9924 5.69255 37.9019 5.5908 37.8646 5.56935C37.6146 5.22666 37.2254 4.95333 37.2752 4.4345C37.2808 4.33822 37.265 4.27936 37.2492 4.2205C36.9358 3.64235 36.5794 3.13904 36.2446 2.59831C36.0161 2.2182 35.809 1.80068 35.5432 1.39912C35.421 1.17964 35.2185 1.01354 34.999 1.13628C34.4854 1.33888 33.9775 1.44519 33.4265 1.62634C32.5226 1.90331 31.6504 2.298 30.7996 2.65528C29.9274 3.04998 29.0766 3.40726 28.2632 3.78599C27.8673 3.95664 27.5245 4.20761 27.1285 4.37826C26.5131 4.67166 25.8818 4.90619 25.2822 5.25846C25.1431 5.32781 25.0356 5.5149 24.8806 5.52539C24.4156 5.55687 24.014 5.82381 23.6339 6.05333C23.1146 6.3522 22.5953 6.65108 22.0229 6.86964C21.8837 6.939 21.7604 7.06722 21.6054 7.07772C21.429 7.12563 21.3961 7.3556 21.2412 7.3661C20.6427 7.37065 20.2671 7.8516 19.7162 8.03275C19.0849 8.26728 18.4423 8.69438 17.8269 8.98778C17.1684 9.35601 16.4195 9.62249 15.7984 10.0122C14.6151 10.7756 13.3842 11.3624 12.185 12.0669C11.125 12.702 10.0434 13.3746 8.96188 14.0472C8.42111 14.3835 8.43695 14.4424 8.95395 14.8389C8.99128 14.8604 9.02862 14.8818 9.06595 14.9033C9.46529 15.3317 9.82165 15.835 10.1995 16.3009C10.5615 16.708 10.6667 17.2163 10.9699 17.6393C11.1509 17.8428 10.9574 18.1796 11.1973 18.3671C11.5491 18.619 11.548 18.9667 11.4348 19.2501C11.3432 19.496 11.0219 19.7096 10.7119 19.7306C10.4981 19.757 10.2899 19.6872 10.1836 19.5266C10.0773 19.366 10.0886 19.1734 10.2334 19.0078C10.3137 18.9544 10.2979 18.8955 10.3035 18.7992C10.0286 17.8948 9.83407 16.937 9.10439 16.2192C8.93923 16.0746 8.75256 15.9674 8.66772 15.7693C8.47653 15.4107 8.11338 15.3513 7.85771 15.1049C7.76721 15.0032 7.64956 15.0351 7.45158 15.1204C7.2536 15.2058 7.08729 15.4088 6.85198 15.4727C6.35986 15.6379 6.3542 15.7342 6.59856 16.1731C6.85875 16.671 7.14044 17.1314 7.3418 17.6452C8.03187 19.0369 8.44365 20.5674 9.0319 22.05C9.14842 22.3657 9.33508 22.473 9.5704 22.4091C10.9336 22.1969 11.8986 22.8508 12.729 23.8255C12.8568 23.9487 12.9417 24.1467 13.0537 24.2111C13.5073 24.3722 13.5277 24.6824 13.3715 25.0406C13.2799 25.2866 12.7448 25.5266 12.4835 25.3765C12.1848 25.2049 12.0038 25.0014 12.2187 24.6272C12.2617 24.5524 12.2459 24.4935 12.2142 24.3758C11.9224 23.7602 11.3024 23.8022 10.8171 23.5234C10.4811 23.3304 10.0534 23.3833 9.73329 23.2491C9.30114 23.0506 9.43915 23.329 9.42784 23.5216C9.41086 23.8104 9.69369 23.9231 9.73554 24.196C9.79323 24.5277 9.92559 24.9023 10.0794 25.2396C10.4245 25.9354 10.7695 26.6313 11.0342 27.3806C11.1349 27.6375 11.3374 27.8036 11.5297 27.8145C11.989 27.8793 12.4857 27.9656 12.9235 28.0678C13.7776 28.3096 14.6374 28.4552 15.2494 29.2049C15.3931 29.387 15.5786 29.8419 16.1138 29.6019C16.4509 29.4472 16.6839 30.0788 16.4531 30.3941C16.2438 30.672 15.9712 30.7144 15.6612 30.7354C15.1962 30.7669 15.0469 30.6811 15.091 30.2585C15.0809 30.1034 15.0865 30.0071 14.9372 29.9213C14.6012 29.7283 14.3455 29.4819 14.031 29.2515C13.4767 28.8335 12.7662 28.7737 12.0184 28.6925ZM56.2737 47.5969C56.2103 47.3615 55.9275 47.2487 55.9015 47.0347C55.8856 46.9759 55.811 46.933 55.6345 46.9809C55.217 47.189 54.8584 47.3811 54.4251 47.5303C53.5155 47.9035 52.5845 48.3142 51.6749 48.6874C50.2732 49.2259 48.919 49.9409 47.48 50.4579C46.5919 50.7937 45.7355 51.2473 44.8847 51.6045C44.0713 51.9833 43.2579 52.362 42.3913 52.6604C42.156 52.7243 41.8834 52.7667 41.7227 52.8735C41.4388 53.1085 41.1231 53.2258 40.786 53.3804C40.0744 53.6684 39.416 54.0366 38.7044 54.3245C37.736 54.7137 36.8151 55.2795 35.8252 55.7062C35.4881 55.8609 35.2256 56.0584 34.8726 56.1543C34.6 56.1967 34.3375 56.3943 34.0592 56.533C33.5614 56.7944 33.0105 56.9756 32.5659 57.3174C32.3034 57.5149 31.972 57.5733 31.6348 57.728C30.9606 58.0374 30.2863 58.3468 29.6494 58.6776C29.0713 58.9924 28.4773 59.2484 27.8676 59.4455C27.5519 59.5628 27.268 59.7978 26.8618 59.8133C26.6107 59.8183 26.3686 60.3262 26.5224 60.6634C26.6231 60.9203 26.8641 60.7601 27.0405 60.7122C27.6073 60.59 28.1051 60.3285 28.6402 60.0885C29.5125 59.6938 30.379 59.3954 31.214 58.9792C31.6314 58.7712 32.033 58.5042 32.4822 58.4139C33.1508 58.2008 33.7447 57.9448 34.3601 57.6514C35.0344 57.342 35.6713 57.0112 36.3241 56.7393C37.1748 56.382 38.0199 56.121 38.839 55.646C38.9996 55.5392 39.123 55.411 39.3368 55.3845C40.0212 55.2303 40.6423 54.8406 41.2951 54.5687C42.2261 54.158 43.1572 53.7473 44.0883 53.3367C44.6607 53.1181 45.2863 52.9799 45.8056 52.681C45.8859 52.6276 45.8441 52.3547 46.0681 52.4834C46.2547 52.5906 46.3996 52.425 46.576 52.3771C47.1858 52.18 47.5987 51.7205 48.187 51.5608C48.7753 51.4011 49.2844 50.947 49.8727 50.7873C50.5413 50.5743 51.1409 50.222 51.7778 49.8912C52.2756 49.6297 52.8107 49.3897 53.3243 49.1871C54.2339 48.8139 55.0745 48.3014 56.0214 47.9496C56.2352 47.9232 56.3585 47.795 56.2737 47.5969ZM4.19552 25.542C4.12086 25.4991 4.12086 25.4991 4.08353 25.4777C4.31884 25.4138 4.16499 25.0766 4.34147 25.0287C4.80192 24.7458 5.05986 24.2968 5.48297 23.9924C5.58479 23.9016 5.66511 23.8482 5.51578 23.7624C5.27595 23.5749 5.38908 23.2915 5.4004 23.099C5.48413 22.0025 5.31672 20.911 5.45928 19.7985C5.53622 19.146 5.57582 18.472 5.65276 17.8195C5.71273 17.4558 5.77269 17.0921 5.75799 16.6856C5.70143 16.0061 5.71955 15.3696 6.48997 15.0657C6.5488 15.0497 6.57029 15.0123 6.59179 14.9749C6.67211 14.9215 6.7151 14.8466 6.66193 14.7663C6.63026 14.6486 6.53409 14.6431 6.43793 14.6377C6.24561 14.6267 6.1223 14.7549 5.95147 14.7065C5.01136 14.6144 4.19229 15.0894 3.50105 15.6876C3.29741 15.8692 3.05079 16.1256 2.83131 16.2484C2.42969 16.5153 2.25207 16.9109 2.03712 17.2851C1.73619 17.8089 1.54725 18.3971 1.41148 19.0656C1.24743 20.2155 1.25986 21.3175 1.4861 22.393C1.58112 22.7462 1.75081 23.1423 1.84584 23.4955C1.94086 23.8486 2.25536 24.0791 2.32889 24.4697C2.40808 24.764 2.65809 25.1067 2.95109 25.3745C3.07893 25.4977 3.30858 25.5301 3.39343 25.7282C3.44094 25.9048 3.6276 26.012 3.74526 25.9801C3.98057 25.9162 4.07221 25.6702 4.19552 25.542ZM25.0778 59.6344C25.1784 59.8913 25.3538 60.1911 25.4703 60.5069C25.502 60.6246 25.6298 60.7478 25.7158 60.5981C25.8289 60.3148 25.9421 60.0314 25.959 59.7426C25.9602 59.3949 26.0575 59.0526 26.1491 58.8067C26.3109 58.3522 26.5473 57.9406 26.5756 57.4592C26.5869 57.2666 26.5394 57.0901 26.4116 56.9668C25.8629 56.4526 25.6944 55.7088 25.1887 55.1197C24.7362 54.6109 24.4285 53.9365 24.0189 53.3529C23.6999 52.871 23.4397 52.3732 23.1207 51.8913C22.8017 51.4094 22.5257 50.8527 22.1693 50.3494C21.9725 50.087 21.9736 49.7393 21.7768 49.477C21.3989 49.0111 21.2994 48.4065 21.098 47.8926C20.9973 47.6357 20.9928 47.3843 20.5437 47.4747C20.1534 47.549 19.7631 47.6234 19.3513 47.7352C19.0786 47.7776 18.8693 48.0555 18.6125 48.1568C18.591 48.1942 18.548 48.2691 18.548 48.2691C18.729 48.4726 18.5197 48.7505 18.7969 48.9595C18.9462 49.0453 19.0843 49.3236 19.2064 49.5431C19.3445 49.8214 19.2788 50.2814 19.7596 50.3088C19.797 50.3302 19.8128 50.3891 19.8286 50.448C20.082 51.3898 20.5707 52.2677 21.0651 53.0494C21.5968 53.8525 21.9894 54.725 22.4996 55.5655C22.9408 56.2668 23.4035 56.9308 23.7428 57.7229C24.1094 58.3814 24.6151 58.9705 25.0778 59.6344ZM20.4984 46.6027C20.2654 45.9711 19.7699 45.5372 19.6703 44.9326C19.6545 44.8737 19.6387 44.8148 19.6013 44.7934C19.2393 44.3864 19.0165 43.91 18.7721 43.471C18.2676 42.5342 17.8003 41.6188 17.3331 40.7035C17.28 40.6232 17.2268 40.5428 17.1091 40.5748C16.6385 40.7025 16.1362 40.7126 15.7346 40.9795C15.6543 41.0329 15.6328 41.0703 15.5366 41.0648C15.2108 41.027 15.0388 41.3263 14.8352 41.5079C14.6746 41.6147 14.8929 41.8396 14.9246 41.9574C14.9766 42.3854 15.3658 42.6587 15.4393 43.0493C15.497 43.3811 15.6938 43.6434 15.8533 43.8844C15.9065 43.9647 16.0185 44.029 16.0287 44.1842C16.1712 44.7139 16.4099 45.2492 16.7934 45.6188C17.2674 46.0902 17.4846 46.6629 17.7233 47.1981C17.893 47.5942 18.091 47.5089 18.289 47.4235C18.9316 46.9964 19.6115 46.5908 20.4984 46.6027ZM12.9571 47.1971C12.9515 47.2934 13.085 47.3203 13.1167 47.4381C13.1415 47.9998 13.4662 48.3854 13.7536 48.7495C14.2536 49.4349 15.0376 49.8853 15.6609 50.4424C15.7888 50.5656 15.9709 50.4214 16.0399 50.5606C16.1033 50.7961 16.2639 50.6893 16.3442 50.6359C16.4619 50.604 16.6169 50.5935 16.6282 50.4009C16.609 49.7429 16.8726 49.1976 17.1735 48.6738C17.281 48.4867 17.4156 48.1659 17.3783 48.1445C17.0751 47.7215 16.9755 47.1169 16.6135 46.7098C16.3952 46.4849 16.2142 46.2814 16.1192 45.9282C16.0558 45.6927 15.9823 45.3021 15.6565 45.2642C15.3307 45.2264 14.903 45.2793 14.5715 45.3377C14.0636 45.444 13.6201 45.4381 13.1235 45.3518C13.0273 45.3464 12.9425 45.1483 12.835 45.3354C12.7705 45.4476 12.6687 45.5385 12.7535 45.7365C12.8384 45.9345 12.8961 46.2663 12.8904 46.3625C12.7558 46.6833 12.9153 46.9243 12.9571 47.1971ZM12.3181 35.0853C11.7615 35.3628 11.6756 35.5124 11.8351 35.7534C11.9946 35.9943 12.1111 36.3101 12.2118 36.567C12.472 37.0648 12.791 37.5467 12.9335 38.0765C13.0286 38.4296 13.2412 38.7509 13.3951 39.0881C13.6553 39.5859 13.9743 40.0678 14.1542 40.619C14.17 40.6779 14.2175 40.8545 14.3193 40.7637C14.523 40.5821 14.8115 40.5985 15.0151 40.4169C15.2991 40.1819 15.6147 40.0646 15.9835 40.0277C16.8603 39.8844 16.8229 39.8629 16.4247 39.0868C16.1804 38.6478 15.8398 38.2033 15.729 37.7913C15.6079 37.2241 15.1226 36.9453 15.0016 36.3781C14.9337 35.8912 14.497 35.4413 14.2957 34.9275C14.2165 34.6332 14.057 34.3922 13.6022 34.5789C13.2277 34.7121 12.6824 34.797 12.3181 35.0853ZM10.9595 33.9067C11.1031 34.0888 11.2785 34.3885 11.4538 34.6883C11.5228 34.8275 11.5817 34.8116 11.6247 34.7367C12.1123 34.3201 12.7062 34.0641 13.2843 33.7493C13.5841 33.5732 13.6056 33.5357 13.4676 33.2574C13.1599 32.583 12.8737 31.8711 12.5071 31.2127C12.1248 30.4953 11.8012 29.762 11.4188 29.0447C11.2967 28.8252 11.2435 28.7449 11.0297 28.7714C10.4686 28.7974 9.9606 28.9037 9.48432 29.1278C9.28634 29.2131 8.99786 29.1966 8.86888 29.4212C8.71842 29.6831 9.06007 29.7798 9.12342 30.0153C9.13926 30.0741 9.17659 30.0956 9.15509 30.133C9.40397 30.8234 9.7705 31.4818 10.0997 32.1189C10.2219 32.3383 10.4402 32.5633 10.4504 32.7185C10.5024 33.1465 10.7739 33.4517 10.9595 33.9067ZM9.91855 41.7689C10.0136 42.122 10.2953 42.5825 10.7376 42.9361C11.1958 43.3486 11.6969 43.6863 12.1981 44.024C12.2354 44.0454 12.4221 44.1526 12.3746 43.9761C12.3327 43.7032 12.5149 43.559 12.5477 43.329C12.7151 42.7782 12.9787 42.233 13.3917 41.7735C13.6813 41.4422 13.6021 41.1479 13.4267 40.8481C13.2039 40.3717 12.9222 39.9113 12.6993 39.4349C12.6518 39.2583 12.567 39.0602 12.3475 39.183C11.9515 39.3536 11.5986 39.4495 11.1551 39.4435C10.5408 39.3892 9.93102 39.5863 9.35519 39.2058C9.2432 39.1414 9.12554 39.1734 9.13572 39.3285C9.32011 40.1312 9.48867 40.8749 9.91855 41.7689ZM18.755 55.2556C18.9733 55.4806 19.1701 55.7429 19.41 55.9305C19.9485 56.2896 20.5944 56.4616 21.1759 56.7459C21.5708 56.923 21.8977 56.6132 22.2394 56.7099C22.3355 56.7154 22.3253 56.5602 22.2722 56.4799C22.1658 56.3193 22.081 56.1213 21.9317 56.0355C21.7823 55.9497 21.6918 55.8479 21.719 55.7142C21.7518 55.4843 21.6239 55.361 21.4803 55.179C21.1929 54.8148 20.8468 54.4667 20.7416 53.9583C20.6782 53.7229 20.5345 53.5408 20.4123 53.3213C20.168 52.8824 19.8648 52.4594 19.7438 51.8922C19.6963 51.7156 19.5322 51.2232 19.1736 51.4153C18.7346 51.6608 18.3127 51.6175 17.8635 51.7078C17.4947 51.7448 17.2696 51.9638 17.3431 52.3544C17.4008 52.6861 17.48 52.9804 17.7142 53.2643C17.7674 53.3446 17.8635 53.3501 17.8205 53.4249C17.6644 53.7831 18.0377 53.9976 18.0581 54.3078C18.169 54.7199 18.6226 54.881 18.755 55.2556ZM8.02496 27.6922C8.1313 27.8528 8.17881 28.0294 8.28515 28.19C8.45484 28.5861 8.72748 28.5437 9.04312 28.4264C9.59407 28.2453 10.0975 27.8875 10.7016 27.7867C10.9154 27.7602 10.7876 27.637 10.7718 27.5781C10.6394 27.2035 10.4856 26.8663 10.3317 26.5291C9.99798 25.6407 9.46628 24.8375 9.27171 23.8797C9.13483 23.2537 8.71851 23.1141 8.14041 23.4289C7.72296 23.637 7.28967 23.7862 6.90955 24.0157C6.82922 24.0691 6.40159 24.122 6.61993 24.347C7.04077 24.738 6.72852 25.4544 7.35299 25.6639C7.2342 26.0435 7.5272 26.3114 7.64372 26.6272C7.67992 26.9963 7.8711 27.355 8.02496 27.6922ZM8.68662 37.7766C8.90609 37.6539 8.98189 37.349 9.06787 37.1994C9.40162 36.4456 10.0442 36.0185 10.5431 35.4093C10.7094 35.2062 10.7524 35.1314 10.6144 34.8531C10.4232 34.4944 10.0714 34.2425 10.0194 33.8145C9.88247 33.1884 9.90397 33.151 9.34171 33.5247C9.34171 33.5247 9.34171 33.5247 9.28288 33.5407C8.48644 33.6306 7.6685 33.7579 6.8732 33.5001C6.73971 33.4731 6.5802 33.2322 6.47272 33.4193C6.34941 33.5475 6.35393 33.7989 6.37994 34.013C6.44782 34.4998 6.79399 34.848 6.94218 35.2815C7.14355 35.7953 7.34491 36.3091 7.72276 36.775C7.93544 37.0962 8.20695 37.4015 8.45696 37.7442C8.51013 37.8245 8.54747 37.846 8.68662 37.7766ZM6.24445 16.6167C6.2682 17.5261 6.21162 18.4889 6.19803 19.3769C6.20141 19.976 6.08714 20.6071 6.0317 21.2222C5.95476 21.8747 5.93665 22.5112 6.16969 23.1428C6.23303 23.3782 6.36653 23.4052 6.52718 23.2984C6.75231 23.0794 7.08378 23.021 7.37792 22.9411C7.69356 22.8238 7.96168 22.53 8.38366 22.5733C8.51715 22.6003 8.79545 22.4615 8.67893 22.1458C8.54658 21.7711 8.43572 21.3591 8.30336 20.9845C7.97982 20.2512 7.65628 19.5179 7.39156 18.7686C6.99335 17.9924 6.64832 17.2966 6.24445 16.6167ZM5.3901 31.1551C5.49644 31.3157 5.60278 31.4763 5.69328 31.5781C5.79962 31.7387 5.91728 31.7068 5.96592 31.5356C6.0587 30.942 6.35398 30.5144 6.74542 30.0924C6.99204 29.8359 7.23867 29.5795 7.55997 29.3659C7.72061 29.2591 7.84393 29.1309 7.68442 28.89C7.38123 28.467 7.25453 27.9961 7.12783 27.5252C6.93213 26.9151 6.81334 27.2947 6.57802 27.3586C6.07007 27.4649 5.5836 27.5338 5.07678 27.2924C4.92745 27.2066 4.77812 27.1209 4.64463 27.0939C4.4738 27.0456 4.32447 26.9598 4.32333 27.3075C4.25658 28.1151 4.61745 28.8699 4.8075 29.5762C4.92854 30.1434 5.18873 30.6413 5.3901 31.1551ZM9.18447 32.5884C9.20596 32.551 9.47295 32.6048 9.35078 32.3853C9.24444 32.2247 9.15959 32.0267 9.07474 31.8286C8.87904 31.2185 8.3247 30.8006 8.24665 30.1585C8.21498 30.0408 8.15615 30.0568 8.017 30.1261C7.65272 30.4145 7.5656 30.9119 7.14815 31.12C7.08932 31.1359 7.16398 31.1788 7.14249 31.2162C7.22733 31.4143 7.04519 31.5585 6.90604 31.6278C6.60624 31.804 6.70126 32.1571 6.5508 32.4191C6.5078 32.4939 6.62998 32.7134 6.71031 32.66C7.02594 32.5427 7.18545 32.7837 7.39361 32.8535C8.03958 33.0255 8.56338 32.9781 9.18447 32.5884ZM11.0601 35.8058C11.102 36.0787 11.128 36.2927 10.8022 36.2548C10.706 36.2494 10.508 36.3347 10.4594 36.5058C10.4107 36.6769 10.3406 36.8855 10.2173 37.0137C9.91183 37.2861 9.81453 37.6283 9.62107 37.9651C9.51359 38.1522 9.55545 38.425 9.7851 38.4574C10.1856 38.5382 10.5702 38.5601 10.9865 38.6997C11.3282 38.7965 11.7027 38.6632 12.0025 38.4871C12.1631 38.3803 12.1688 38.2841 12.1586 38.1289C12.128 37.6635 11.7819 37.3153 11.671 36.9033C11.5172 36.5661 11.3475 36.17 11.0601 35.8058ZM14.4732 42.7431C14.3827 42.6414 14.3137 42.5022 14.2073 42.3416C14.1383 42.2024 13.9833 42.2129 13.9188 42.3251C13.7469 42.6245 13.4629 42.8595 13.4991 43.2286C13.5353 43.5978 13.2728 43.7954 13.1597 44.0787C13.0466 44.3621 13.0997 44.4424 13.3079 44.5122C13.8577 44.6788 14.3872 44.5351 14.9324 44.4502C15.2051 44.4078 15.1949 44.2526 15.0886 44.092C14.9404 43.6585 14.696 43.2195 14.4732 42.7431ZM6.00901 24.8918C5.94566 24.6563 5.83367 24.592 5.65152 24.7362C5.54971 24.827 5.44789 24.9178 5.36191 25.0675C5.14695 25.4416 4.932 25.8158 4.71705 26.19C4.60957 26.3771 4.72157 26.4414 4.87656 26.4309C5.34152 26.3994 5.82233 26.4268 6.28729 26.3953C6.38345 26.4008 6.50111 26.3689 6.46944 26.2511C6.40609 26.0157 6.28391 25.7962 6.27939 25.5448C6.25337 25.3308 5.97507 25.4695 6.03955 25.3572C6.18436 25.1916 6.07802 25.031 6.00901 24.8918ZM17.9903 48.8942C17.5287 49.5248 17.4359 50.1185 17.3805 50.7336C17.3477 50.9636 17.428 50.9102 17.5988 50.9585C18.0366 51.0608 18.2946 50.6118 18.6792 50.6337C18.7754 50.6391 18.9044 50.4146 18.7765 50.2914C18.505 49.9862 18.4903 49.5796 18.16 49.2903C18.1441 49.2314 17.893 49.2364 17.9903 48.8942Z" fill="#6D6C80"/>
<path d="M42.4683 50.3656C42.7353 50.4195 42.9016 50.2164 43.1584 50.1151C43.87 49.8272 44.5816 49.5393 45.2242 49.1122C45.8238 48.7599 46.4709 48.5842 47.0648 48.3283C47.204 48.2589 47.1983 48.3552 47.2515 48.4355C46.7266 48.8307 46.1326 49.0866 45.5387 49.3426C44.9232 49.636 44.3078 49.9294 43.7297 50.2443C43.4887 50.4044 43.1946 50.4843 42.879 50.6015C42.0067 50.9962 41.1288 51.4872 40.2192 51.8605C39.3312 52.1963 38.5868 52.7142 37.7575 53.0341C37.1262 53.2686 36.5266 53.6209 35.9112 53.9143C35.4723 54.1597 35.0333 54.4052 34.5412 54.5704C33.9687 54.789 33.4811 55.2056 32.9087 55.4241C32.2186 55.6747 31.6507 56.1446 30.9606 56.3951C30.447 56.5977 29.965 56.9181 29.4673 57.1795C29.4514 57.1207 29.4141 57.0992 29.3982 57.0404C29.5759 56.6447 29.982 56.6292 30.2818 56.4531C30.9029 56.0634 31.593 55.8129 32.2141 55.4232C32.9743 54.9642 33.7877 54.5855 34.5638 54.1853C35.1634 53.833 35.8377 53.5237 36.4531 53.2303C37.1274 52.9209 37.8073 52.5152 38.5189 52.2273C39.1128 51.9713 39.7656 51.6994 40.3437 51.3845C41.0236 50.9789 41.7669 50.8087 42.3721 50.3601C42.4095 50.3816 42.431 50.3442 42.4683 50.3656Z" fill="#6D6C80"/>
<path d="M20.3415 27.6015C20.2091 27.2269 19.9534 26.9805 19.7781 26.6807C19.5337 26.2417 19.3482 25.7868 19.1627 25.3318C18.9613 24.818 18.7011 24.3202 18.4998 23.8064C18.235 23.0571 17.9115 22.3238 17.588 21.5905C17.0574 20.4397 16.5857 19.2729 15.9159 18.1915C15.7406 17.8917 15.6241 17.5759 15.4114 17.2547C15.2361 16.9549 15.5947 16.7628 15.7927 16.6775C16.5574 16.4698 17.1842 15.9839 17.9331 15.7174C18.484 15.5363 19.0723 15.3766 19.4954 15.0722C19.8971 14.8053 20.3677 14.6775 20.7851 14.4694C21.1653 14.2399 21.6359 14.1122 22.0533 13.9041C23.0862 13.4026 24.0659 12.8208 25.152 12.3997C25.8421 12.1492 26.5005 11.7809 27.1748 11.4716C28.0685 11.0395 28.9623 10.6073 29.856 10.1752C30.5144 9.807 31.2045 9.55649 31.9161 9.26857C32.3121 9.09792 32.6549 8.84695 33.0508 8.6763C33.5271 8.45225 34.0249 8.1908 34.5385 7.9882C34.7365 7.90287 34.9243 7.6624 35.1109 7.76964C35.4469 7.96266 35.7456 8.13423 35.9526 8.55176C36.3667 9.38681 36.7004 10.2752 37.1144 11.1103C37.4753 11.865 37.8147 12.6572 38.1541 13.4493C38.4403 14.1612 38.7638 14.8945 39.1303 15.5529C39.5817 16.4094 40.1293 17.2714 40.3023 18.2666C40.4177 18.9301 40.2887 19.1546 39.7106 19.4694C38.8757 19.8856 37.9718 20.1625 37.1313 20.675C36.6493 20.9953 36.0554 21.2513 35.5633 21.4164C34.8947 21.6295 34.2419 21.9015 33.6265 22.1949C33.0913 22.4349 32.5936 22.6964 32.0585 22.9364C31.4645 23.1924 30.8491 23.4858 30.2178 23.7203C29.7042 23.9229 29.1691 24.1629 28.7245 24.5047C28.462 24.7022 28.1464 24.8195 27.8522 24.8994C27.0445 25.1818 26.3962 25.7052 25.6416 26.0679C24.8067 26.4841 23.9877 26.9591 23.2274 27.4181C22.7885 27.6636 22.328 27.9465 21.8891 28.192C21.2148 28.5014 20.8358 28.3832 20.5281 27.7088C20.3358 27.6978 20.3415 27.6015 20.3415 27.6015ZM35.551 8.81869C35.1845 8.16024 34.9016 8.04752 34.4355 8.42671C33.9694 8.8059 33.4502 9.10477 32.9366 9.30737C32.1446 9.64868 31.3312 10.0274 30.5178 10.4061C29.6456 10.8008 28.7948 11.1581 27.9384 11.6117C27.5798 11.8038 27.1623 12.0118 26.7664 12.1825C26.3919 12.3157 25.996 12.4864 25.6373 12.6785C25.1554 12.9988 24.6203 13.2388 24.0852 13.4788C23.3521 13.8042 22.6778 14.1135 21.9447 14.4389C20.9922 14.887 20.0396 15.335 19.0497 15.7617C18.4184 15.9962 17.7498 16.2093 17.1876 16.583C16.8663 16.7966 16.4443 16.7532 16.123 16.9668C15.9035 17.0895 15.8764 17.2232 15.9827 17.3838C16.4228 18.4329 17.0393 19.434 17.5382 20.4671C17.9839 21.4199 18.3708 22.3886 18.795 23.3788C19.2408 24.3316 19.665 25.3218 20.1107 26.2746C20.2962 26.7295 20.6209 27.1151 20.8064 27.57C20.9546 28.0035 21.1571 28.1696 21.5372 27.9401C21.7567 27.8174 21.9762 27.6946 22.2172 27.5345C22.8224 27.0859 23.4808 26.7177 24.1393 26.3495C24.8565 25.9653 25.5953 25.5436 26.3125 25.1594C27.1689 24.7059 28.0468 24.2149 28.9191 23.8202C29.4542 23.5802 30.0266 23.3616 30.5029 23.1376C31.7123 22.5882 32.9058 21.98 34.131 21.4894C34.7838 21.2175 35.4207 20.8867 36.0735 20.6147C37.224 20.0813 38.3531 19.5853 39.5036 19.0519C39.7016 18.9666 39.8996 18.8812 39.7989 18.6243C39.6032 18.0143 39.4075 17.4042 39.1315 16.8475C38.8713 16.3496 38.5522 15.8678 38.3724 15.3166C38.007 14.3104 37.4436 13.3896 37.0567 12.4208C36.8078 11.7304 36.4786 11.0934 36.1709 10.419C35.9537 9.8463 35.6777 9.2896 35.551 8.81869Z" fill="#6D6C80"/>
<path d="M50.7586 41.2934C50.0414 41.6776 49.3886 41.9496 48.7573 42.1841C47.9711 42.4291 47.2323 42.8507 46.4461 43.0958C45.8951 43.2769 45.3385 43.5544 44.9098 43.955C44.6631 44.2114 44.2253 44.1092 43.9481 43.9002C43.3033 43.3805 43.3542 42.5139 42.8485 41.9248C42.758 41.8231 42.6675 41.7213 42.6359 41.6036C42.5884 41.427 42.3542 41.1432 42.8406 41.0743C43.2094 41.0373 43.5149 40.7649 43.7989 40.5299C43.9595 40.4231 44.1043 40.2575 44.3498 40.3488C44.3985 40.1777 44.5908 40.1886 44.7299 40.1193C45.2492 39.8204 45.8002 39.6392 46.3353 39.3992C47.0095 39.0899 47.7743 38.8822 48.3637 38.3748C48.5673 38.1932 48.9203 38.0974 49.2145 38.0176C49.4124 37.9322 49.5889 37.8843 49.7711 37.7401C50.0924 37.5266 50.2202 37.6498 50.374 37.987C50.4589 38.185 50.6026 38.3671 50.6874 38.5651C50.9849 39.0844 51.3198 39.6252 51.4408 40.1923C51.5506 40.9521 51.4329 40.984 50.7586 41.2934ZM43.8136 40.9365C43.0216 41.2778 43.0375 41.3367 43.404 41.9951C43.5262 42.2146 43.6427 42.5304 43.7219 42.8247C43.9278 43.5899 44.3226 43.767 45.0025 43.3613C45.5591 43.0839 46.0784 42.785 46.6509 42.5665C47.1645 42.3639 47.7527 42.2042 48.1759 41.8998C48.7166 41.5635 49.3581 41.4841 49.8615 41.1264C50.0437 40.9822 50.3808 40.8275 50.6749 40.7477C50.8514 40.6998 51.0924 40.5396 51.0075 40.3416C50.8695 40.0632 50.8492 39.7529 50.6897 39.512C50.4396 39.1693 50.2485 38.8106 50.1591 38.3612C50.1116 38.1846 49.9837 38.0614 49.8073 38.1093C49.4758 38.1677 49.107 38.2046 48.9033 38.3862C48.3139 38.8937 47.5921 39.0264 46.9552 39.3572C46.7572 39.4426 46.5751 39.5868 46.3398 39.6506C46.083 39.7519 45.7888 39.8318 45.532 39.9331C44.8736 40.3013 44.4018 40.7768 43.8136 40.9365Z" fill="#6D6C80"/>
<path d="M29.3922 4.93224C29.0438 5.27949 28.5302 5.48209 28.1286 5.74902C27.486 6.17612 26.7959 6.42662 26.1001 6.77341C24.6498 7.48295 23.2051 8.09621 21.7706 8.86462C21.0533 9.24882 20.3734 9.65447 19.6935 10.0601C18.7138 10.6419 17.6594 11.1808 16.6797 11.7626C15.502 12.4297 14.3401 13.1557 13.1998 13.8442C12.9 14.0203 12.59 14.0413 12.3275 14.2389C12.1884 14.3083 11.9802 14.2384 11.8739 14.0778C11.8049 13.9386 12.0187 13.9122 12.099 13.8588C12.8966 13.4212 13.753 12.9676 14.5879 12.5515C14.8662 12.4128 15.0698 12.2312 15.3481 12.0925C16.8844 11.2333 18.4581 10.3955 19.9571 9.51484C20.8565 8.98644 21.74 8.39918 22.6926 7.9511C23.5649 7.55641 24.3523 6.96367 25.315 6.67073C25.668 6.57491 25.9949 6.26508 26.3909 6.09443C27.0866 5.74764 27.8197 5.4223 28.5155 5.07552C28.8741 4.88342 29.2112 4.72873 29.5699 4.53663C29.709 4.46727 29.907 4.38194 29.976 4.52112C30.045 4.66029 29.847 4.74562 29.7452 4.83642C29.6276 4.86836 29.5631 4.98062 29.3922 4.93224Z" fill="#6D6C80"/>
<path d="M26.2627 30.605C26.9098 30.4293 27.3974 30.0127 27.9913 29.7568C28.5264 29.5167 29.0299 29.159 29.5276 28.8976C30.2234 28.5508 30.9033 28.1451 31.5244 27.7554C32.0652 27.4191 32.7281 27.3023 33.2531 26.9072C34.0619 26.277 35.0088 25.9252 35.9026 25.4931C36.3789 25.2691 36.8925 25.0665 37.3903 24.805C37.5882 24.7197 37.8552 24.7735 38.0589 24.5919C38.1392 24.5385 38.31 24.5869 38.3632 24.6672C38.4164 24.7475 38.2772 24.8169 38.1969 24.8703C37.5011 25.2171 36.7839 25.6013 36.0881 25.9481C35.1944 26.3802 34.3006 26.8123 33.4227 27.3033C32.6467 27.7034 31.9238 28.1839 31.185 28.6055C30.8049 28.8351 30.4089 29.0057 30.013 29.1764C29.0977 29.6459 28.1667 30.0566 27.2514 30.5261C26.9143 30.6808 26.6043 30.7018 26.2627 30.605Z" fill="#6D6C80"/>
<path d="M48.0211 28.7723C47.7699 28.7773 47.7382 28.6596 47.6319 28.4989C47.1918 27.4499 46.693 26.4168 46.1941 25.3837C45.5787 24.0349 44.9044 22.702 44.2517 21.3317C44.013 20.7964 43.7958 20.2238 43.5356 19.7259C43.1849 19.1263 43.0695 18.4629 42.617 17.9541C42.5265 17.8523 42.591 17.7401 42.5593 17.6223C42.5061 17.542 42.3036 17.3759 42.4428 17.3066C42.6034 17.1998 42.8003 17.4622 42.8161 17.521C43.2188 18.5486 43.7607 19.5069 44.2438 20.4811C44.7268 21.4553 45.0866 22.5578 45.6284 23.516C46.1171 24.394 46.4294 25.3198 46.8808 26.1763C47.2948 27.0114 47.6285 27.8998 48.0211 28.7723Z" fill="#6D6C80"/>
<path d="M29.5491 32.1446C32.064 31.0514 34.5314 29.7815 37.1153 28.8274C34.7486 30.3541 32.271 31.4689 29.5491 32.1446Z" fill="#6D6C80"/>
<path d="M37.8107 49.8299C34.8082 51.3398 31.7424 52.6142 28.6607 53.8298C31.6417 52.3573 34.6759 50.9651 37.8107 49.8299Z" fill="#6D6C80"/>
<path d="M42.5566 47.8783C42.1165 48.4715 41.5655 48.6526 40.9829 48.7161C40.8279 48.7265 40.7046 48.8548 40.6028 48.9456C40.5225 48.999 40.4263 48.9935 40.3731 48.9132C40.32 48.8329 40.4003 48.7795 40.4218 48.7421C40.4433 48.7046 40.4806 48.7261 40.5021 48.6887C41.1707 48.4756 41.7228 47.9467 42.5566 47.8783Z" fill="#6D6C80"/>
<path d="M31.7363 3.79059C32.0418 3.51818 32.4479 3.50267 32.7319 3.26767C32.8337 3.17687 32.9887 3.16637 33.0577 3.30555C33.1425 3.50359 32.9502 3.49263 32.8699 3.54602C32.6131 3.64732 32.3563 3.74862 32.0995 3.84991C32.0191 3.9033 31.8427 3.95121 31.7363 3.79059Z" fill="#6D6C80"/>
<path d="M28.2423 37.963C28.4335 38.3217 28.2672 38.5247 28.0636 38.7063C27.9403 38.8346 27.8554 38.6365 27.8396 38.5777C27.7016 38.2993 27.852 38.0374 28.093 37.8772C28.136 37.8024 28.2695 37.8293 28.2423 37.963Z" fill="#6D6C80"/>
<path d="M40.2601 45.912C40.1164 45.73 39.9886 45.6068 39.8822 45.4461C39.829 45.3658 39.7012 45.2426 39.7872 45.093C39.8517 44.9807 39.9852 45.0076 40.1187 45.0346C40.2307 45.0989 40.4015 45.1473 40.3902 45.3398C40.3789 45.5324 40.389 45.6875 40.2601 45.912Z" fill="#6D6C80"/>
<path d="M39.4763 33.9659C39.6527 33.918 39.8564 33.7364 39.9039 33.913C39.9729 34.0521 39.8224 34.314 39.6618 34.4208C39.5226 34.4902 39.3461 34.5381 39.2613 34.3401C39.1979 34.1046 39.3586 33.9978 39.4763 33.9659Z" fill="#6D6C80"/>
<path d="M49.0879 30.9776C49.3594 31.2829 49.5562 31.5453 49.4962 31.909C49.3582 31.6306 48.9634 31.4536 49.0879 30.9776Z" fill="#6D6C80"/>
<path d="M44.1781 25.8678C44.3274 25.9536 44.531 25.772 44.5729 26.0449C44.6204 26.2215 44.4598 26.3283 44.3579 26.4191C44.2776 26.4724 44.1713 26.3118 44.1554 26.253C44.0864 26.1138 44.1509 26.0015 44.1781 25.8678Z" fill="#6D6C80"/>
<path d="M26.7795 42.4973C26.8971 42.4654 27.0091 42.5297 27.0035 42.626C27.0137 42.7812 27.0182 43.0326 26.8575 43.1394C26.7184 43.2087 26.7297 43.0161 26.6765 42.9358C26.5544 42.7164 26.715 42.6096 26.7795 42.4973Z" fill="#6D6C80"/>
<path d="M48.6769 48.8065C48.6509 48.5925 48.8647 48.566 48.9824 48.5341C49.7471 48.3265 50.3954 47.8031 51.2292 47.7347C51.5459 47.2697 52.1331 47.4577 52.5189 47.1319C52.701 46.9877 52.9307 47.0201 53.1445 46.9936C53.1173 47.1273 52.9997 47.1593 52.9193 47.2127C52.1863 47.538 51.4158 47.8419 50.6454 48.1458C50.1318 48.3484 49.6182 48.551 49.0831 48.791C48.9066 48.8389 48.7674 48.9083 48.6769 48.8065Z" fill="#6D6C80"/>
<path d="M29.4356 57.0618C29.4514 57.1207 29.4887 57.1421 29.5046 57.201C29.0656 57.4465 28.5362 57.5902 28.1289 57.9534C28.0271 58.0442 27.8563 57.9958 27.7013 58.0063C28.242 57.67 28.724 57.3497 29.2647 57.0134C29.3236 56.9975 29.3982 57.0404 29.4356 57.0618Z" fill="#6D6C80"/>
<path d="M39.6705 52.9885C39.0766 53.2444 38.4453 53.479 37.8299 53.7724C37.8141 53.7135 37.8141 53.7135 37.7982 53.6546C38.3922 53.3987 39.0076 53.1053 39.6389 52.8707C39.6174 52.9081 39.6547 52.9296 39.6705 52.9885Z" fill="#6D6C80"/>
<path d="M48.6769 48.8065C48.6554 48.8439 48.6928 48.8654 48.6769 48.8065C48.2165 49.0894 47.6814 49.3294 47.1519 49.4731C47.5535 49.2062 48.0457 49.041 48.4473 48.7741C48.5276 48.7207 48.6181 48.8225 48.6769 48.8065Z" fill="#6D6C80"/>
<path d="M45.6269 50.1398C45.9539 49.83 46.3498 49.6593 46.7989 49.569C46.4878 49.9377 45.9697 49.8888 45.6269 50.1398Z" fill="#6D6C80"/>
<path d="M21.1788 18.2787C21.9175 17.8571 22.5759 17.4889 23.2717 17.1421C23.6892 16.934 24.1281 16.6885 24.5829 16.5019C25.0377 16.3153 25.4608 16.0109 25.9371 15.7869C26.7075 15.483 27.3931 14.981 28.1635 14.6771C29.4475 14.1707 30.6999 13.5464 31.9998 13.0988C32.4919 12.9336 32.9093 12.7256 33.3641 12.5389C33.5406 12.491 33.6153 12.5339 33.7216 12.6946C33.8811 12.9355 33.6356 12.8442 33.5768 12.8602C33.1594 13.0683 32.7577 13.3352 32.2713 13.4041C32.0575 13.4306 31.7633 13.5104 31.5597 13.692C31.2542 13.9644 30.7576 13.8782 30.4148 14.1291C29.8525 14.5029 29.2054 14.6785 28.59 14.9719C28.151 15.2174 27.6906 15.5003 27.1668 15.5478C26.8353 15.6062 26.626 15.8841 26.3104 16.0013C25.3205 16.428 24.3464 16.9135 23.3724 17.399C22.8158 17.6764 22.2218 17.9324 21.6867 18.1724C21.4299 18.2737 21.1573 18.3161 20.9536 18.4977C20.8733 18.5511 20.7183 18.5616 20.7025 18.5027C20.6335 18.3636 20.7511 18.3316 20.8688 18.2997C20.9808 18.364 21.1199 18.2947 21.1788 18.2787Z" fill="#6D6C80"/>
<path d="M22.7105 20.4526C25.8906 18.5471 29.1285 16.9733 32.579 15.7208C32.3425 16.1324 31.9522 16.2067 31.6524 16.3829C30.9567 16.7297 30.2982 17.0979 29.624 17.4073C28.9927 17.6418 28.3931 17.9941 27.7992 18.25C27.3229 18.4741 26.7663 18.7515 26.2843 19.0718C25.8827 19.3388 25.3476 19.5788 24.7967 19.7599C24.3849 19.8717 24.0206 20.1601 23.6031 20.3682C23.3305 20.4106 23.1053 20.6296 22.7105 20.4526Z" fill="#6D6C80"/>
<path d="M21.9672 25.5495C22.0305 25.785 22.19 26.0259 21.8902 26.202C21.6708 26.3248 21.4683 26.1587 21.4208 25.9821C21.3359 25.7841 21.5022 25.581 21.6629 25.4742C21.7805 25.4423 21.8982 25.4104 21.9672 25.5495Z" fill="#6D6C80"/>
<path d="M20.6617 22.8089C20.5712 22.7072 20.3789 22.6962 20.3314 22.5196C20.268 22.2842 20.2635 22.0327 20.5045 21.8726C20.6063 21.7818 20.75 21.9638 20.7443 22.0601C20.7115 22.2901 21.0045 22.558 20.6617 22.8089Z" fill="#6D6C80"/>
<path d="M35.6572 17.1906C35.4966 17.2974 35.4219 17.2545 35.3529 17.1153C35.2307 16.8958 35.3857 16.8853 35.5249 16.8159C35.707 16.6718 35.7545 16.8483 35.845 16.9501C35.9887 17.1322 35.6255 17.0729 35.6572 17.1906Z" fill="#6D6C80"/>
</svg>
