<svg width="330" height="304" viewBox="0 0 330 304" fill="none" xmlns="http://www.w3.org/2000/svg">
<path d="M381.635 289.257C368.492 279.747 358.394 283.508 354.996 285.314C355.018 285.018 355.056 284.725 355.072 284.426C355.487 277.662 354.199 270.902 351.324 264.765C349.891 261.665 347.828 259.018 346.034 256.258L340.467 248.036L340.147 247.56L339.652 247.848C338.731 248.401 337.905 249.098 337.205 249.913C338.471 246.212 340.053 242.625 341.932 239.194C343.292 236.629 344.86 234.179 346.469 231.76L351.52 224.503C354.695 219.479 357.41 214.107 359.199 208.372C360.987 202.636 361.838 196.536 361.172 190.531C360.596 184.521 358.815 178.706 356.353 173.294C353.936 167.846 350.916 162.754 347.991 157.67C345.067 152.587 342.193 147.489 340.331 142.036C339.386 139.331 338.808 136.511 338.613 133.651C338.511 130.791 338.863 127.932 339.657 125.182L339.657 125.155C339.699 124.998 339.678 124.831 339.599 124.69C339.52 124.548 339.388 124.443 339.233 124.397C339.077 124.351 338.91 124.368 338.766 124.443C338.622 124.519 338.514 124.647 338.464 124.802C337.539 127.678 337.081 130.684 337.105 133.706C337.222 136.718 337.745 139.701 338.66 142.574C340.478 148.307 343.425 153.502 346.271 158.635C349.117 163.768 352.088 168.824 354.385 174.15C356.733 179.445 358.372 185.018 358.864 190.724C359.408 196.43 358.666 202.193 356.994 207.681C355.322 213.17 352.713 218.392 349.674 223.329L344.781 230.633C343.18 233.135 341.628 235.67 340.282 238.322C337.836 243.243 335.767 248.375 334.756 253.85C333.636 252.492 332.495 251.185 331.407 249.856C329.206 247.12 326.911 244.24 325.338 241.287L324.807 240.289L324.161 241.085C323.198 242.265 322.274 243.504 321.695 244.927C321.077 246.324 320.696 247.813 320.567 249.335C320.33 251.847 320.607 254.381 321.382 256.782C320.059 255.864 318.735 254.97 317.493 254.027C314.821 251.97 312.083 249.585 310.471 246.865L309.901 245.9L309.251 246.715C307.077 249.444 305.881 252.823 305.856 256.312C305.86 259.145 306.425 261.948 307.519 264.561C306.361 264.075 305.201 263.591 304.062 263.061C302.542 262.363 301.036 261.635 299.579 260.833C298.171 260.051 296.603 259.132 295.592 258.195L294.505 257.19L294.309 258.548C293.83 262.227 294.202 265.967 295.396 269.479C296.338 272.298 297.615 274.993 299.202 277.505C291.126 274.625 286.054 269.471 286.002 269.417C285.881 269.291 285.725 269.205 285.554 269.168C285.384 269.131 285.206 269.146 285.044 269.21C284.881 269.274 284.742 269.385 284.643 269.529C284.544 269.673 284.49 269.843 284.488 270.017C284.42 275.995 285.485 285.657 288.837 294.89C287.157 294.016 285.397 293.304 283.583 292.762C281.397 292.109 279.135 291.744 276.855 291.675C272.213 291.53 267.644 292.862 263.807 295.479L262.649 296.275L263.976 296.819C266.151 297.704 268.312 298.704 270.429 299.775L268.594 298.96C266.708 298.166 264.805 297.421 262.886 296.724C259.042 295.32 255.134 294.102 251.159 293.072C243.204 291.024 235.041 289.892 226.828 289.697C218.585 289.514 210.362 290.6 202.449 292.917C198.499 294.044 194.566 295.322 190.82 297.12C188.914 298.003 187.103 299.078 185.416 300.329C183.785 301.631 182.056 303.185 181.428 305.562C181.273 306.166 181.241 306.796 181.334 307.412C181.428 308.029 181.645 308.621 181.972 309.152C182.606 310.16 183.52 310.962 184.603 311.458C186.642 312.488 189.045 312.485 191.054 312.203C195.234 311.763 199.208 310.372 202.998 308.798C206.787 307.225 210.462 305.492 214.248 304.046C218.022 302.578 221.898 301.388 225.845 300.484C233.744 298.702 241.896 298.039 250.012 298.194C254.075 298.269 258.128 298.599 262.149 299.183C263.196 299.346 264.237 299.519 265.278 299.726L265.406 299.761L265.425 299.761C265.438 299.761 265.449 299.761 265.466 299.761C266.357 299.93 267.249 300.109 268.132 300.321C268.972 300.506 269.798 300.731 270.622 300.968L268.698 300.712C266.885 300.506 265.073 300.333 263.261 300.193C259.621 299.949 255.973 299.764 252.32 299.818C244.997 299.856 237.694 300.572 230.504 301.959C223.295 303.39 216.294 305.717 209.663 308.885C206.302 310.418 203.092 312.26 200.073 314.387C198.536 315.489 197.132 316.766 195.889 318.191C194.693 319.645 193.516 321.452 193.631 323.715C193.714 324.829 194.183 325.879 194.957 326.685C195.696 327.438 196.609 327.998 197.616 328.315C199.537 328.916 201.601 328.894 203.509 328.25C207.021 327.113 210.411 325.629 213.629 323.818C216.825 321.993 219.856 320.015 222.993 318.2C226.13 316.385 229.318 314.667 232.567 313.067C239.066 309.858 245.701 306.883 252.633 304.826C253.929 304.443 255.242 304.136 256.555 303.826C249.488 306.478 243.13 310.643 237.122 314.92C224.26 323.775 211.06 332.418 196.58 337.988C195.598 338.35 194.607 338.7 193.609 339.037C193.413 339.026 193.22 339.086 193.065 339.205C186.895 341.194 180.455 342.346 174.038 341.863C170.235 341.577 166.504 340.668 162.996 339.173C159.547 337.657 156.347 335.453 154.254 332.38C152.118 329.336 151.278 325.568 151.919 321.906C152.534 318.295 154.722 314.917 157.899 313.184C160.998 311.505 165.399 311.382 167.995 313.809C169.262 314.988 169.963 316.798 169.504 318.428C169.044 320.058 167.601 321.332 165.888 321.976C165.733 322.033 165.606 322.148 165.536 322.298C165.466 322.447 165.458 322.618 165.515 322.774C165.571 322.929 165.686 323.056 165.836 323.126C165.986 323.196 166.157 323.204 166.312 323.147C168.242 322.468 170.18 321.004 170.806 318.8C171.431 316.596 170.569 314.23 169.017 312.733C168.08 310.938 166.7 309.413 165.008 308.301C164.543 308.038 164.058 307.811 163.559 307.622C168.324 299.943 174.897 293.439 182.777 289.097C190.66 284.562 199.573 281.94 208.6 280.608C217.652 279.234 226.891 279.168 236.054 279.894C240.637 280.265 245.197 280.876 249.716 281.722C254.212 282.576 258.781 283.548 262.935 285.285L262.976 285.301C263.099 285.347 263.233 285.351 263.359 285.313C263.484 285.276 263.594 285.198 263.672 285.092C267.028 284.495 270.073 282.753 272.288 280.163C274.593 277.511 276.037 274.215 276.741 270.824C277.101 269.067 277.277 267.276 277.265 265.482C277.464 264.299 277.78 263.139 278.209 262.018C278.626 260.818 279.325 259.735 280.247 258.861C283.02 261.23 285.893 263.455 288.845 265.594C289.003 265.706 289.198 265.75 289.389 265.719C289.573 265.685 289.737 265.582 289.845 265.429C289.954 265.277 289.999 265.088 289.97 264.904L289.97 264.871C289.601 262.674 289.509 260.439 289.699 258.219C289.857 256.204 290.274 254.217 290.938 252.307C292.604 252.391 294.252 252.679 295.847 253.166C297.36 253.636 298.807 254.297 300.153 255.133C300.207 255.228 300.27 255.309 300.324 255.405L300.477 255.315C300.599 255.394 300.748 255.451 300.857 255.532C300.983 255.616 301.129 255.664 301.28 255.674C301.43 255.684 301.581 255.654 301.717 255.588C301.852 255.521 301.968 255.42 302.053 255.295C302.138 255.17 302.188 255.025 302.2 254.875L302.2 254.845C302.2 254.657 302.26 254.459 302.279 254.269L302.355 254.228C302.336 254.195 302.317 254.171 302.298 254.138C302.449 252.844 302.704 251.564 303.059 250.31C303.5 248.81 304.097 247.361 304.842 245.987C305.562 244.612 306.454 243.334 307.495 242.183C308.301 241.274 309.202 240.454 310.183 239.738C310.66 241.019 311.3 242.233 312.086 243.352C313.112 244.793 314.416 246.016 315.922 246.946C315.962 246.971 316.005 246.992 316.049 247.009C316.141 247.044 316.239 247.06 316.337 247.057C316.436 247.054 316.532 247.032 316.622 246.991C316.712 246.951 316.792 246.893 316.86 246.822C316.927 246.75 316.98 246.666 317.014 246.574L317.014 246.555C317.992 243.992 319.244 241.541 320.746 239.246C322.068 237.211 323.681 235.38 325.533 233.812C325.84 234.608 326.203 235.382 326.621 236.127C327.193 237.144 327.851 238.111 328.586 239.018C329.972 240.703 331.593 242.181 333.4 243.406C333.415 243.488 333.447 243.567 333.493 243.637C333.54 243.706 333.601 243.766 333.672 243.811C333.812 243.898 333.981 243.926 334.141 243.89C334.302 243.853 334.442 243.754 334.531 243.615C339.894 235.119 344.186 225.685 345.575 215.556C347.032 205.502 345.091 194.713 339.198 186.211C338.91 185.79 338.578 185.396 338.274 184.994C339.543 181.44 340.014 177.65 339.652 173.894C339.331 169.859 338.08 165.953 335.996 162.482C333.897 159.013 330.731 156.084 326.914 154.475C323.995 153.195 320.82 152.785 317.699 152.883C318.623 152.149 319.583 151.405 320.534 150.557C322.016 149.353 322.981 148.008 324.098 146.696L325.732 144.723C326.297 144.074 326.672 143.289 327.151 142.58L329.189 139.319L329.714 138.118C332.766 131.967 334.028 124.804 332.786 117.938C331.684 111.845 328.815 106.21 324.536 101.733C344.414 77.2062 329.053 51.2144 317.824 32.2245C312.442 23.1195 307.791 15.2535 308.544 10.1834C309.297 5.11331 312.113 3.33633 313.723 2.7467C315.932 1.93157 318.401 2.34185 320.015 3.76562C321.456 5.03451 321.975 6.92834 321.478 9.09387C321.44 9.24526 321.433 9.4027 321.456 9.55694C321.48 9.71121 321.534 9.85919 321.616 9.99221C321.698 10.1252 321.805 10.2406 321.932 10.3317C322.059 10.4227 322.202 10.4876 322.355 10.5225C322.507 10.5573 322.664 10.5615 322.818 10.5348C322.972 10.508 323.119 10.4509 323.25 10.3667C323.382 10.2825 323.495 10.1729 323.584 10.0444C323.672 9.91592 323.734 9.77102 323.766 9.61825C324.454 6.62942 323.652 3.84439 321.57 2.01037C319.319 0.0268805 315.922 -0.546454 312.915 0.548547C309.343 1.85275 306.902 5.24102 306.22 9.84377C305.706 13.3054 307.117 17.4517 309.526 22.2555C308.99 21.9155 308.426 21.6219 307.84 21.3779C304.799 20.1606 301.235 20.1932 298.248 21.7881C295.244 23.4347 293.482 27.1082 294.257 30.4421C294.613 32.0507 295.377 33.7244 296.946 34.6781C298.514 35.6318 300.384 35.3954 301.86 34.8765C301.972 34.8373 302.065 34.758 302.121 34.654C302.177 34.55 302.193 34.4288 302.165 34.314C302.132 34.1943 302.054 34.0922 301.946 34.0301C301.839 33.968 301.711 33.9509 301.591 33.9825C300.191 34.3548 298.693 34.3249 297.644 33.5777C296.595 32.8305 295.983 31.5127 295.76 30.1623C295.298 27.4452 296.682 24.565 299.09 23.3043C300.347 22.6764 301.72 22.3147 303.123 22.2417C304.527 22.1688 305.93 22.3862 307.245 22.8804C308.742 23.4322 310.095 24.3156 311.203 25.4644C312.575 27.956 314.122 30.597 315.797 33.4255C327.259 52.7876 341.497 76.8719 322.842 100.079L322.793 100.03C319.859 97.3952 316.453 95.3376 312.755 93.9652C311.176 90.2374 307.712 88.0094 304.706 85.9688C301.594 83.8929 298.492 81.6948 296.943 78.4995C296.178 76.9049 295.757 75.1673 295.709 73.3995C295.624 71.5954 295.839 69.8347 296.611 68.3593C297.935 65.6857 301.178 64.5553 304.247 64.539C303.948 65.499 303.76 66.4899 303.687 67.4925C303.561 69.0444 303.897 70.5987 304.654 71.9594C305.487 73.3137 306.756 74.344 308.253 74.8803C309.628 75.4387 311.095 75.7327 312.578 75.7471C314.087 75.7457 315.577 75.4097 316.94 74.7631C318.303 74.1166 319.506 73.1757 320.461 72.0083C322.337 69.7107 323.396 66.8546 323.47 63.8897C323.569 60.9612 322.819 58.0666 321.312 55.5536C319.852 53.0403 317.721 50.9997 315.356 49.4292C310.556 46.2068 304.388 45.484 298.924 46.8181C293.412 48.1277 288.462 51.3013 284.811 55.5481C281.161 59.795 278.809 65.1395 278.304 70.7639C278.268 71.1688 278.271 71.579 278.26 71.9839C277.967 71.3046 277.657 70.6253 277.314 69.9732C276.152 67.6686 274.699 65.5227 272.99 63.588C269.57 59.7243 264.753 56.8361 259.415 56.3497C256.726 56.0784 254.013 56.4973 251.532 57.567C249.061 58.6755 246.827 60.5286 245.476 62.9686C244.783 64.1673 244.285 65.4688 244.002 66.8241C243.684 68.2957 243.822 69.8296 244.399 71.2204C245.021 72.5832 246.027 73.7352 247.294 74.5353C248.489 75.294 249.81 75.834 251.195 76.1302C251.415 76.1775 251.645 76.1583 251.854 76.0751C252.064 75.9919 252.244 75.8484 252.372 75.6629L252.413 75.6031C253.772 73.4294 255.539 71.465 257.822 70.4406C260.105 69.4162 262.736 69.2641 265.281 69.851C267.825 70.4379 270.309 71.522 272.62 72.8941C273.775 73.5815 274.901 74.3342 275.988 75.1357C276.532 75.5406 277.075 75.9509 277.589 76.3829L278.366 77.035L278.744 77.3665L278.902 77.5078C279.046 78.0512 279.198 78.5946 279.391 79.1381C279.833 80.2975 280.384 81.4121 281.038 82.4665C274.099 80.5645 266.857 79.7277 259.608 80.627C255.612 81.1406 251.624 82.2573 248.023 84.2652C244.409 86.2881 241.339 89.1547 239.074 92.6203C237.946 94.3331 237.001 96.16 236.255 98.0708C235.413 100.037 235 102.16 235.043 104.298C235.09 106.515 235.777 108.671 237.022 110.507C238.306 112.332 240.121 113.719 242.219 114.479C244.344 115.25 246.669 115.27 248.805 114.534C250.958 113.806 252.712 112.205 253.875 110.374C255.038 108.542 255.71 106.092 255.03 103.853C254.485 102.07 253.412 100.494 251.953 99.3315C253.763 96.9442 255.999 94.9121 258.548 93.3376C261.405 91.5632 264.524 90.2484 267.79 89.4413C274.08 87.8545 280.748 87.9795 287.214 89.0446C288.978 90.3365 290.877 91.4343 292.876 92.3187C286.317 92.047 279.706 92.805 273.457 95.1118C269.941 96.3792 266.693 98.2923 263.881 100.753C261.073 103.288 258.894 106.443 257.517 109.966C256.823 111.708 256.316 113.519 256.003 115.368C255.569 117.303 255.62 119.315 256.15 121.226C257.237 125.155 260.739 128.174 264.715 128.834C266.763 129.195 268.872 128.826 270.676 127.793C272.517 126.747 273.773 124.916 274.4 123.03C275.028 121.144 275.107 118.816 274.001 116.963C273.075 115.416 271.691 114.195 270.04 113.469C270.16 111.829 270.724 110.253 271.671 108.909C272.773 107.332 274.155 105.969 275.749 104.891C276.51 104.277 277.415 103.855 278.244 103.326C279.133 102.894 280.016 102.44 280.93 102.049C281.862 101.698 282.778 101.301 283.727 100.984L284.23 100.829C282.492 103.55 281.503 106.681 281.362 109.906C281.218 113.509 282.229 117.281 284.578 120.155C289.093 125.891 297.427 128.377 304.244 125.348C307.571 123.766 310.36 120.927 311.243 117.134C311.626 115.225 311.329 113.242 310.404 111.529C310.009 110.811 309.542 110.134 309.012 109.51C310.198 109.81 311.339 110.267 312.404 110.868C314.338 111.978 316.042 113.445 317.427 115.191C320.241 118.769 322.141 122.978 322.965 127.454C323.837 131.923 323.478 136.599 322.25 141.039C321.651 143.266 320.85 145.434 319.858 147.517C319.368 148.565 318.825 149.584 318.254 150.59C317.952 151.081 317.669 151.59 317.349 152.07L316.873 152.793L316.77 152.945C316.669 152.945 316.571 152.945 316.473 152.945C317.136 150.183 317.088 147.299 316.332 144.56C315.382 141.249 313.338 138.357 310.534 136.355C307.727 134.379 304.356 133.365 300.925 133.464C298.089 133.573 295.316 134.329 292.817 135.673C292.502 134.333 291.93 133.068 291.131 131.948C289.993 130.392 288.445 129.185 286.66 128.459C283.126 127.03 279.258 127.307 275.855 128.475C272.411 129.656 269.409 131.857 267.246 134.784C266.374 135.978 265.672 137.286 265.158 138.672C265.013 137.773 264.785 136.889 264.476 136.031C263.34 132.833 261.086 130.812 258.398 130.619C255.816 130.619 253.465 132.496 252.108 135.654C250.803 138.618 250.347 142.735 250.687 147.544C250.491 147.544 250.298 147.56 250.102 147.566C249.901 142.702 248.944 138.656 247.24 135.882C245.448 132.912 242.891 131.374 240.338 131.76C238.707 132.013 237.18 133.146 236.038 134.95C234.489 137.395 233.765 140.708 233.882 144.4C232.961 142.414 231.781 140.558 230.373 138.882C228.076 136.292 225.208 135.192 222.901 135.999C221.419 136.488 220.261 137.645 219.549 139.344C218.021 142.987 218.734 148.606 221.433 154.54C221.262 154.597 221.082 154.638 220.911 154.695C219.092 150.193 216.817 146.748 214.287 144.715C211.59 142.495 208.638 141.903 206.425 143.12C204.205 144.24 203.112 147.038 203.498 150.601C203.832 153.823 205.46 157.638 208.198 161.678C208.059 161.787 207.91 161.89 207.774 161.999C205.156 157.825 202.272 154.788 199.382 153.209C196.392 151.565 193.402 151.524 191.304 153.117C189.36 154.747 188.811 157.695 189.831 161.023C190.48 163.105 192.1 166.479 194.278 169.642C191.451 167.178 188.461 165.077 186.286 164.441C182.902 163.428 179.86 164.042 178.338 166.028C176.737 168.093 176.813 171.112 178.542 174.101C180.2 177.06 183.418 180.043 187.843 182.76C187.729 182.891 187.621 183.032 187.509 183.157C183.203 180.168 179.161 178.437 175.821 178.201C172.311 177.929 169.471 179.19 168.414 181.486C167.223 183.787 167.962 186.727 170.384 189.344C172.475 191.659 175.867 193.691 180.246 195.321C180.189 195.468 180.14 195.615 180.083 195.761C175.658 194.115 171.724 193.49 168.634 193.957C165.171 194.449 162.681 196.308 162.143 198.777C161.485 201.264 162.847 203.962 165.782 205.994C168.549 207.948 172.725 209.274 177.859 209.85C177.873 210.034 177.859 210.225 177.887 210.412C172.687 209.491 168.242 209.619 165.037 210.822C163.181 211.51 161.74 212.54 160.811 213.741C136.83 209.665 121.586 221.476 114.622 228.913C108.892 235.036 104.689 242.425 102.355 250.478C96.9183 249.5 91.2563 249.212 85.7138 250.258C80.0734 251.231 74.7103 253.766 70.2035 257.323C65.6715 260.918 62.1546 265.631 59.9992 270.998C57.9633 276.161 57.281 281.959 58.6401 287.369C53.5341 289.714 49.1018 293.308 45.7529 297.819C43.3955 301.029 41.7548 304.707 40.9417 308.605C40.8927 308.839 40.8764 309.075 40.8356 309.309C36.7604 308.94 32.6523 309.234 28.6715 310.181C24.2082 311.223 19.9793 313.09 16.2029 315.686C12.4225 318.3 9.13205 321.558 6.48252 325.313C3.84284 329.048 1.69327 333.106 0.0864898 337.388C-0.0221834 337.675 -0.0286836 337.991 0.0681181 338.282C0.16492 338.573 0.359134 338.823 0.618075 338.988C0.877017 339.153 1.18494 339.224 1.49008 339.189C1.79523 339.154 2.07898 339.015 2.29367 338.795L2.33448 338.754C4.92679 336.032 7.82035 333.612 10.9594 331.543C14.0939 329.43 17.4833 327.722 21.0468 326.46C24.6043 325.188 28.3485 324.515 32.1264 324.471C35.7416 324.397 39.346 325.079 42.7928 326.218C44.9021 331.622 48.1803 336.507 51.8363 340.89C51.9576 341.037 52.1136 341.152 52.2903 341.224C52.4327 341.282 52.5852 341.312 52.739 341.311C52.8929 341.31 53.0451 341.279 53.187 341.22C53.3288 341.16 53.4576 341.073 53.5658 340.964C53.6741 340.855 53.7598 340.725 53.8179 340.583L53.8179 340.561C54.2484 339.532 54.7497 338.533 55.3184 337.572C55.8921 336.59 56.5191 335.639 57.1967 334.725C57.6914 334.051 58.2432 333.421 58.7923 332.788L59.6784 331.894C65.0752 326.405 71.1571 321.634 77.7738 317.7C81.082 315.751 84.5439 314.077 88.1249 312.692C91.6935 311.279 95.3815 310.188 99.1446 309.431C106.658 307.839 114.432 307.608 122.073 308.489C129.567 309.388 137.042 311.363 143.832 314.602C143.316 315.351 142.861 316.141 142.473 316.963C142.153 317.632 141.864 318.316 141.609 319.017C138.63 317.281 135.451 315.912 132.141 314.942C128.669 313.886 125.099 313.182 121.486 312.839C114.263 312.045 106.932 312.744 99.8975 314.442C92.8627 316.14 85.9829 318.637 79.7825 322.593C73.5985 326.397 68.3171 332.475 66.6643 339.852C65.8651 343.505 65.8355 347.284 66.5773 350.949C67.2359 354.63 68.6371 358.138 70.6955 361.26C74.7973 367.556 82.4057 371.62 90.0331 370.922C93.8005 370.626 97.6115 369.134 100.322 366.303C103.032 363.472 104.38 359.538 104.301 355.766C104.239 353.908 104.081 351.94 103.284 350.131C102.538 348.329 101.398 346.717 99.9492 345.411C97.4484 343.191 94.4556 341.898 91.2889 341.156C92.7124 339.216 94.5439 337.61 96.6547 336.453C99.2077 335.107 102.1 334.54 104.973 334.823C107.859 335.075 110.632 336.219 113.437 337.369C116.242 338.518 118.969 339.871 121.779 341.121C127.335 343.656 133.438 345.74 139.769 345.566C145.833 345.333 151.604 343.121 156.668 340.042C156.364 341.472 156.322 342.945 156.546 344.39C156.967 346.794 158.145 349.002 159.908 350.691C163.442 354.016 168.302 355.31 172.934 355.34C177.656 355.367 182.276 353.964 186.185 351.316C189.048 349.414 191.274 346.696 192.856 343.689C192.964 344.717 193.221 345.724 193.62 346.677C194.509 348.805 196.023 350.867 198.211 351.954C198.725 352.267 199.325 352.383 199.883 352.601C200.154 352.693 200.448 352.799 200.733 352.872L201.614 352.965C202.201 353.011 202.791 353.106 203.376 353.106L205.107 352.921C207.407 352.62 209.56 351.786 211.579 350.786C212.642 350.365 213.525 349.661 214.501 349.101L215.915 348.213L217.239 347.186C218.114 346.493 219.016 345.827 219.864 345.11L222.311 342.841C225.502 339.756 228.467 336.445 231.183 332.934C233.059 330.538 234.91 328.131 236.777 325.737C235.857 327.14 235.012 328.591 234.247 330.084C232.744 332.966 231.646 336.04 230.985 339.222C230.381 342.412 230.183 345.827 231.411 349.082C232.037 350.661 233.167 352.291 235.008 352.997C236.848 353.704 238.865 353.101 240.284 352.182C243.187 350.229 244.943 347.335 246.443 344.501C246.715 343.958 246.973 343.398 247.226 342.841C247.131 345.982 247.27 349.272 248.939 352.28C249.773 353.791 251.524 355.095 253.426 355.09C255.182 355.163 257.186 354.408 258.257 352.851C259.344 351.348 259.7 349.645 259.95 348.025C260.156 346.416 260.247 344.794 260.222 343.172C260.187 339.966 259.95 336.812 259.882 333.679C259.827 330.559 260 327.44 260.399 324.346C261.057 318.805 263.212 313.455 267.018 309.339L267.145 309.385C271.557 311.045 275.885 313.064 279.769 315.719C278.039 315.351 276.267 315.214 274.501 315.311C273.019 315.382 271.558 315.693 270.176 316.232C268.746 316.797 267.477 317.706 266.482 318.879L265.852 319.637L266.754 320.11C269.663 321.631 272.593 323.098 275.512 324.574C273.911 324.894 272.362 325.433 270.907 326.174C268.931 327.199 267.124 328.745 266.015 330.78C265.97 330.864 265.944 330.956 265.936 331.051C265.92 331.23 265.975 331.408 266.09 331.546C266.204 331.683 266.369 331.771 266.547 331.788L266.637 331.788C269.828 332.081 273.281 333.146 276.534 334.143C279.829 335.181 283.088 336.352 286.32 337.578C289.552 338.803 292.751 340.194 296.206 341.11C299.62 342.086 303.197 342.393 306.737 342.42C307.207 342.42 307.677 342.371 308.15 342.344C307.063 345.8 305.03 356.641 317.215 367.884C317.303 367.965 317.407 368.027 317.519 368.066C317.632 368.106 317.752 368.121 317.871 368.113C318.029 368.101 318.182 368.048 318.314 367.958C318.482 367.846 318.608 367.68 318.669 367.487C318.731 367.295 318.724 367.087 318.651 366.898C318.55 366.648 316.348 360.722 328.344 354.671C339.489 349.036 345.852 341.588 346.271 333.701C346.456 330.168 345.455 326.772 343.338 323.571C345.928 324.615 348.502 325.093 351.038 324.916C351.985 324.85 352.923 324.698 353.841 324.46C361.493 322.49 367.538 314.779 370.854 302.747C374.443 289.806 380.689 290.789 380.942 290.819C381.139 290.86 381.345 290.832 381.524 290.739C381.703 290.647 381.844 290.496 381.926 290.311C382.007 290.127 382.022 289.92 381.969 289.726C381.916 289.532 381.798 289.361 381.635 289.243L381.635 289.257ZM268.284 299.661C267.107 299.359 265.92 299.117 264.726 298.873C259.466 297.243 254.125 295.786 248.651 295.112C245.78 294.599 242.866 294.493 239.968 294.224C237.06 294.175 234.146 294.006 231.237 294.183C225.414 294.361 219.615 295.028 213.903 296.177C208.167 297.28 202.546 298.918 197.115 301.068C196.971 301.128 196.857 301.242 196.797 301.386C196.737 301.53 196.737 301.692 196.796 301.836C196.855 301.98 196.97 302.095 197.114 302.154C197.258 302.214 197.42 302.214 197.564 302.155L197.597 302.155C202.937 299.996 208.467 298.34 214.115 297.21C219.766 296.026 225.506 295.321 231.276 295.104C234.157 294.903 237.044 295.053 239.93 295.077C242.804 295.324 245.699 295.403 248.545 295.892C252.195 296.35 255.808 297.07 259.355 298.047C256.262 297.637 253.157 297.338 250.04 297.215C241.827 296.854 233.602 297.529 225.559 299.223C221.539 300.102 217.589 301.273 213.74 302.726C209.888 304.155 206.162 305.861 202.405 307.385C198.648 308.91 194.824 310.192 190.866 310.573C188.857 310.828 186.998 310.768 185.343 309.937C183.712 309.16 182.643 307.587 183.13 305.97C183.541 304.34 184.943 302.864 186.463 301.682C188.045 300.488 189.745 299.459 191.538 298.612C195.134 296.846 198.986 295.55 202.867 294.403C210.625 292.057 218.697 290.918 226.801 291.026C234.922 291.151 243.003 292.197 250.888 294.145C254.842 295.069 258.751 296.178 262.614 297.473C264.544 298.122 266.457 298.816 268.352 299.555L269.32 299.949C268.98 299.856 268.649 299.745 268.29 299.661L268.284 299.661ZM276.803 74.0679C275.71 73.1959 274.573 72.3798 273.397 71.6225C271.03 70.0507 268.427 68.8666 265.686 68.1147C262.919 67.373 259.782 67.3675 256.987 68.544C254.462 69.5792 252.497 71.5084 250.958 73.6196C249.094 73.0191 247.27 71.8508 246.585 70.2558C245.753 68.4653 246.408 66.1149 247.517 64.0961C249.629 60.0205 254.563 57.9147 259.254 58.2978C264.009 58.6049 268.515 61.0965 271.821 64.6504C273.491 66.4524 274.922 68.4614 276.08 70.6281C276.672 71.7111 277.204 72.8259 277.673 73.9674L278.179 75.2309C277.736 74.8287 277.276 74.4402 276.803 74.0679ZM267.363 87.6833C263.883 88.4564 260.553 89.7918 257.504 91.6367C254.454 93.5387 251.711 95.8237 249.588 98.9729C249.443 99.1858 249.387 99.447 249.432 99.7007C249.477 99.9544 249.619 100.181 249.828 100.331L249.928 100.405C251.268 101.377 252.494 102.88 252.864 104.434C253.293 106.002 252.815 107.657 251.883 109.124C250.95 110.591 249.607 111.76 248.012 112.287C246.397 112.828 244.645 112.799 243.048 112.205C241.434 111.603 240.043 110.521 239.063 109.105C238.103 107.66 237.581 105.968 237.56 104.233C237.548 102.433 237.907 100.65 238.615 98.9946C239.284 97.2392 240.136 95.5589 241.156 93.9815C243.181 90.8254 245.941 88.2066 249.2 86.3492C252.532 84.5352 256.16 83.3281 259.915 82.7844C263.696 82.2002 267.575 82.1839 271.429 82.4638C275.084 82.7319 278.708 83.3274 282.256 84.2435C282.773 84.9309 283.331 85.586 283.928 86.2052C284.327 86.61 284.784 86.9416 285.203 87.3192C279.323 86.4145 273.27 86.3356 267.368 87.6833L267.363 87.6833ZM288.731 88.1724C288.687 88.0883 288.625 88.0148 288.549 87.9571C288.473 87.8994 288.386 87.8588 288.293 87.8382L288.228 87.8382C287.132 86.9871 286.103 86.0524 285.151 85.0423C283.397 83.1493 282.027 80.9349 281.114 78.5213C280.261 76.0949 279.952 73.5105 280.209 70.9514C280.712 65.8134 282.996 60.8302 286.374 56.9203C289.753 53.0104 294.401 50.1275 299.422 49.0026C304.442 47.8778 309.841 48.5951 314.079 51.4018C318.36 54.119 321.461 58.8005 321.249 63.838C321.212 66.316 320.351 68.7113 318.803 70.6471C318.055 71.5823 317.107 72.3388 316.029 72.8615C314.952 73.3842 313.771 73.6599 312.573 73.6685C311.35 73.6617 310.139 73.4248 309.004 72.9702C307.928 72.6135 307.008 71.8966 306.4 70.9405C305.25 69.0603 305.603 66.2562 306.457 64.0228L306.489 63.9413C306.522 63.8541 306.542 63.7625 306.549 63.6696C306.566 63.419 306.484 63.1717 306.319 62.9819C306.155 62.792 305.922 62.6749 305.671 62.6561C303.627 62.4834 301.57 62.7617 299.645 63.4712C297.715 64.1804 295.904 65.615 294.953 67.5469C294.002 69.4788 293.787 71.5791 293.89 73.5245C293.957 75.5454 294.47 77.5265 295.393 79.3255C297.296 82.9963 300.746 85.2407 303.882 87.254C306.601 89.0038 309.425 90.7862 311.037 93.4109C308.693 92.6727 306.269 92.2166 303.817 92.0524C301.493 91.8938 299.158 92.0418 296.872 92.4926C293.953 91.4828 291.208 90.0254 288.736 88.1724L288.731 88.1724ZM283.327 99.7038C282.34 99.9972 281.375 100.375 280.397 100.706C279.432 101.081 278.494 101.522 277.54 101.948C276.64 102.492 275.675 102.894 274.822 103.524C273.003 104.66 271.421 106.136 270.163 107.871C269.527 108.764 269.017 109.741 268.649 110.773C268.227 111.856 268.031 113.014 268.072 114.175C268.078 114.34 268.132 114.499 268.226 114.634C268.319 114.77 268.45 114.875 268.602 114.939L268.717 114.987C270.108 115.566 271.511 116.653 272.182 117.96C272.922 119.259 272.829 120.832 272.337 122.334C271.845 123.837 270.883 125.144 269.562 125.88C268.201 126.63 266.62 126.88 265.093 126.587C261.967 126.043 259.197 123.641 258.39 120.574C257.977 118.999 257.95 117.347 258.311 115.759C258.585 114.058 259.041 112.391 259.67 110.787C260.893 107.574 262.848 104.691 265.379 102.364C267.978 100.06 270.963 98.2316 274.197 96.9622C280.052 94.6744 286.486 93.6501 292.849 93.6338C289.965 94.8064 287.427 96.6933 285.475 99.1169L283.327 99.7038ZM318.903 150.962C319.515 149.957 320.099 148.932 320.63 147.881C321.712 145.778 322.601 143.582 323.285 141.319C324.682 136.803 325.223 131.942 324.441 127.19C323.651 122.429 321.709 117.933 318.784 114.094C315.794 110.311 311.445 107.246 306.141 107.168C305.993 107.166 305.847 107.199 305.714 107.263C305.58 107.327 305.463 107.421 305.372 107.537C305.295 107.636 305.238 107.749 305.205 107.87C305.172 107.991 305.163 108.117 305.178 108.242C305.194 108.366 305.234 108.486 305.296 108.595C305.358 108.704 305.441 108.8 305.541 108.877L305.647 108.958C308.033 110.814 309.871 113.849 309.18 116.705C308.49 119.56 306.117 122.12 303.347 123.372C297.606 125.935 290.18 123.731 286.385 118.753C284.42 116.332 283.574 113.137 283.716 109.993C283.833 106.812 284.872 103.733 286.706 101.13C288.564 98.5259 291.153 96.5308 294.146 95.3971C297.196 94.2775 300.448 93.8146 303.689 94.0386C310.314 94.4056 316.623 96.9896 321.6 101.375C326.595 105.763 329.984 111.691 331.231 118.221C332.508 124.709 331.503 131.589 328.651 137.618L328.178 138.77L327.539 139.857L326.254 142.014C325.8 142.715 325.452 143.49 324.913 144.134L323.34 146.101C322.301 147.4 321.247 148.805 320.132 149.807C319.553 150.394 318.993 151.052 318.411 151.728C318.569 151.465 318.738 151.215 318.903 150.962ZM181.73 287.254C177.655 289.639 173.922 292.563 170.632 295.949C170.501 296.085 170.384 296.221 170.256 296.368C171.208 292.596 171.235 288.542 169.683 284.85C169.275 283.878 168.781 282.945 168.207 282.062C171.306 281.584 174.253 280.396 176.818 278.592C179.591 276.502 181.777 273.73 183.163 270.547C184.485 267.345 185.087 263.892 184.927 260.431C184.897 257.103 183.81 253.242 181.499 250.451C181.146 250.033 180.768 249.636 180.368 249.261C196.273 250.891 206.439 261.651 207.494 278.465C198.504 279.82 189.64 282.625 181.73 287.254ZM177.087 225.256C171.972 225.324 167.704 226.236 164.777 227.973C164.329 228.242 163.899 228.541 163.491 228.867C157.848 228.641 152.131 229.027 146.605 230.47C140.83 231.902 135.445 234.598 130.839 238.363C126.256 242.191 122.697 247.098 120.48 252.641C118.403 257.758 117.427 263.222 117.218 268.672C115.487 268.194 113.712 267.891 111.92 267.767C111.602 264.779 112.059 261.7 112.673 258.744L113.244 256.279L114.032 253.875C114.497 252.245 115.258 250.737 115.935 249.188C118.784 243.059 123.013 237.672 128.292 233.45C133.536 229.225 139.842 226.448 146.409 224.927C148.07 224.612 149.715 224.196 151.389 223.965L156.461 223.56C158.152 223.329 159.851 223.424 161.553 223.473L165.973 223.59C168.916 224.595 172.646 225.003 176.992 224.699L177.153 224.685C177.123 224.867 177.098 225.065 177.087 225.256ZM178.884 238.165C172.632 239.708 167.082 239.428 164.021 237.374C162.868 236.602 162.181 235.619 162.037 234.548C161.824 232.662 163.124 230.684 165.543 229.261C168.231 227.671 172.216 226.832 177.038 226.761C177.048 230.636 177.671 234.485 178.884 238.165ZM121.97 253.258C124.166 248 127.593 243.346 131.962 239.686C136.292 236.013 141.527 233.507 147.007 231.94C151.993 230.549 157.195 229.945 162.417 229.845C161.042 231.315 160.351 233.024 160.541 234.736C160.751 236.26 161.664 237.605 163.184 238.624C165.554 240.213 169.164 240.879 173.396 240.583C175.414 240.427 177.415 240.096 179.376 239.594C179.425 239.727 179.471 239.865 179.52 239.982C173.784 240.42 168.28 242.43 163.613 245.791C162.881 246.145 162.193 246.582 161.564 247.096C160.039 248.338 158.868 249.958 158.167 251.795C157.466 253.632 157.259 255.62 157.568 257.562C157.921 259.68 159.1 261.572 160.846 262.824C162.592 264.075 164.763 264.583 166.883 264.238L166.927 264.238C167.437 264.152 167.893 263.866 168.193 263.444C168.494 263.023 168.614 262.499 168.528 261.988C168.442 261.478 168.156 261.022 167.734 260.722C167.312 260.422 166.788 260.302 166.277 260.388C164.078 260.76 161.835 259.075 161.583 256.907C161.391 255.671 161.526 254.406 161.973 253.237C162.421 252.069 163.166 251.037 164.135 250.245C165.109 249.459 166.267 248.934 167.5 248.721C168.851 248.501 170.23 248.513 171.578 248.756C174.309 249.246 176.777 250.69 178.542 252.831C180.33 255.005 181.26 257.559 181.423 260.619C181.65 263.581 181.248 266.558 180.243 269.354C179.201 272.129 177.46 274.588 175.19 276.495C172.852 278.412 170.074 279.719 167.106 280.299C167.057 280.314 167.01 280.334 166.965 280.358C164.674 277.599 161.754 275.43 158.451 274.033C153.594 271.944 148.084 271.267 142.843 272.476C140.193 273.074 137.702 274.233 135.536 275.872C134.012 277.055 132.698 278.486 131.649 280.106C129.42 275.787 125.834 272.319 121.442 270.235C120.386 269.733 119.296 269.305 118.18 268.955C118.686 263.542 119.833 258.195 121.97 253.258ZM215.705 277.554C213.74 277.698 211.78 277.921 209.823 278.168C208.559 259.252 195.941 247.172 177.147 246.715C175.655 245.835 174.026 245.211 172.328 244.868C171.675 244.753 171.016 244.68 170.354 244.648C179.379 240.735 190.295 241.515 200.008 247.183C209.198 252.549 218.024 263.311 215.705 277.554ZM192.429 215.903C189.803 213.781 188.895 210.105 189.167 206.611C189.439 203.117 190.543 199.574 192.195 196.384C193.826 193.181 196.039 190.309 198.719 187.914C201.38 185.583 204.637 183.904 208.043 183.67L208.113 183.67C208.262 183.655 208.407 183.611 208.538 183.54C208.67 183.468 208.786 183.372 208.88 183.256C208.974 183.14 209.045 183.006 209.087 182.863C209.129 182.719 209.143 182.569 209.127 182.42C208.923 180.451 208.363 178.848 208.88 177.801C208.94 177.667 209.011 177.537 209.092 177.413L209.459 176.908C209.698 176.565 209.951 176.234 210.223 175.91C210.739 175.247 211.31 174.622 211.886 174.008C214.221 171.54 216.9 169.421 219.84 167.718C222.752 166.016 225.964 164.889 229.302 164.398C230.131 164.292 230.966 164.254 231.8 164.205C232.578 164.254 233.594 164.205 234.176 164.322C235.568 164.675 237.125 165.629 238.588 166.496L238.62 166.515C238.691 166.554 238.765 166.585 238.843 166.607C238.967 166.642 239.096 166.652 239.224 166.637C239.352 166.622 239.475 166.582 239.587 166.519C239.699 166.457 239.798 166.372 239.877 166.271C239.957 166.17 240.016 166.054 240.05 165.93C240.344 164.892 240.493 163.947 240.724 163.042C240.955 162.137 241.203 161.3 241.695 160.966C242.896 160.013 244.864 159.518 246.674 159.225C250.446 158.684 254.28 158.75 258.031 159.42C261.782 160.056 265.476 161.252 268.665 163.281C271.251 164.885 273.352 167.161 274.743 169.867C273.926 170.992 273.101 172.115 272.269 173.234C269.891 169.596 266.452 166.566 262.359 164.941C258.034 163.127 253.253 162.693 248.672 163.7C246.4 164.297 244.051 165.123 242.358 167.392C241.723 168.483 241.327 169.696 241.194 170.952C241.033 172.109 240.961 173.277 240.98 174.446C240.98 174.718 241.007 174.989 241.015 175.261C240.675 174.378 240.311 173.498 239.884 172.634C239.243 171.441 238.577 170.232 237.557 169.191C236.582 168.164 235.293 167.194 233.752 166.917C230.762 166.327 228.087 167.218 225.619 168.158C220.78 170.277 216.41 173.336 212.764 177.157C212.304 177.657 211.874 178.183 211.476 178.733C211.031 179.366 210.732 180.09 210.601 180.853C210.367 182.399 210.832 183.82 211.416 185.04C211.806 185.803 212.251 186.537 212.748 187.235C211.683 186.743 210.537 186.449 209.367 186.368C206.061 186.216 202.971 187.697 200.633 189.73C198.23 191.748 196.441 194.313 194.984 197.006C193.546 199.728 192.555 202.664 192.049 205.701C191.823 207.287 191.638 208.673 191.932 210.529C192.407 212.404 193.834 213.675 195.164 214.512C196.717 215.438 198.386 216.154 200.127 216.642C198.897 216.953 197.696 217.371 196.539 217.892C195.245 218.58 193.96 219.408 192.978 220.647C191.994 221.901 191.424 223.43 191.347 225.022C191.347 226.652 191.619 227.883 191.856 229.288C192.124 230.655 192.476 232.004 192.91 233.328C193.788 235.975 195.028 238.567 196.895 240.765C197.827 241.877 198.928 242.836 200.157 243.607C200.827 244.035 201.569 244.337 202.348 244.498L203.525 244.588L204.64 244.479C207.54 243.998 210.022 242.737 212.435 241.45C214.454 240.307 216.41 239.058 218.296 237.708C218.72 238.366 219.174 239.012 219.655 239.651C215.936 243.697 213.094 248.469 211.307 253.666C208.466 250.252 205.04 247.369 201.19 245.153C198.483 243.575 195.599 242.321 192.598 241.42C191.418 239.641 190.473 237.717 189.784 235.697C189.029 233.581 188.541 231.378 188.333 229.141C188.107 226.948 188.315 224.733 188.944 222.62C189.587 220.569 190.803 218.744 192.448 217.36C192.497 217.318 192.542 217.272 192.584 217.224C192.737 217.027 192.806 216.779 192.777 216.532C192.748 216.285 192.623 216.059 192.429 215.903ZM229.59 225.862C229.487 224.809 229.462 223.75 229.517 222.693L238.158 227.834C237.071 228.201 235.984 228.611 234.937 229.049L229.59 225.862ZM233.627 229.633C232.659 230.077 231.712 230.548 230.786 231.046C230.337 229.841 230 228.598 229.778 227.331L233.627 229.633ZM229.601 221.378C229.713 220.423 229.887 219.477 230.123 218.544L243.391 226.424C242.122 226.697 240.885 227.015 239.678 227.378L229.601 221.378ZM230.457 217.371C230.729 216.489 231.055 215.625 231.433 214.784L249.374 225.481C249.023 225.514 248.661 225.53 248.316 225.571C247.229 225.698 246.142 225.864 245.09 226.057L230.457 217.371ZM231.974 213.741C232.393 212.937 232.859 212.159 233.369 211.409L256.724 225.337C254.945 225.24 253.162 225.236 251.382 225.324L231.974 213.741ZM234.045 210.45C234.211 210.233 234.342 209.999 234.516 209.784C234.932 209.274 235.399 208.831 235.85 208.366L260.586 223.12C261.213 224.102 261.898 225.044 262.639 225.943C261.527 225.764 260.426 225.625 259.333 225.516L234.045 210.45ZM236.671 207.488C237.375 206.846 238.119 206.25 238.9 205.703L257.504 216.778C258.006 218.225 258.614 219.632 259.322 220.99L236.671 207.488ZM255.835 206.752C255.828 207.841 255.88 208.929 255.99 210.013L244.214 202.978C245.414 202.555 246.648 202.237 247.903 202.027L255.835 206.752ZM249.855 201.831C251.99 201.677 254.136 201.804 256.237 202.209C256.064 203.274 255.948 204.347 255.889 205.423L249.855 201.831ZM256.145 211.48C256.305 212.604 256.531 213.719 256.822 214.817C256.846 214.903 256.881 214.985 256.909 215.069L240.02 205.016C240.928 204.455 241.876 203.964 242.858 203.546L256.145 211.48ZM257.352 197.623C247.101 195.601 237.272 198.981 230.881 206.839C224.602 214.556 223.05 224.685 226.687 233.567C224.788 234.887 223 236.361 221.34 237.972C212.202 225.454 215.333 211.936 221.517 203.296C228.856 193.023 243.633 185.317 260.353 190.67C259.132 192.881 258.124 195.204 257.343 197.606L257.352 197.623ZM228.756 180.706L228.756 180.722C230.574 183.771 232.368 186.885 233.823 190.104C232.795 190.594 231.806 191.132 230.832 191.702L225.431 182.431C225.421 182.414 225.411 182.396 225.399 182.38C225.267 182.187 225.064 182.054 224.835 182.01C224.605 181.967 224.367 182.016 224.174 182.147C223.981 182.279 223.848 182.482 223.804 182.711C223.761 182.941 223.81 183.178 223.942 183.371L229.968 192.237C227.358 193.878 224.959 195.831 222.825 198.055C221.294 195.512 219.614 193.025 217.532 190.814C217.399 190.678 217.26 190.542 217.116 190.409L217.116 190.395C215.39 188.643 213.778 186.618 212.808 184.434C212.335 183.347 212.06 182.184 212.264 181.173C212.374 180.678 212.593 180.214 212.906 179.815C213.269 179.339 213.66 178.886 214.077 178.456C217.619 174.919 221.819 172.107 226.44 170.18C228.682 169.313 231.17 168.637 233.26 169.093C235.28 169.509 236.761 171.519 237.826 173.65C239.827 177.81 240.724 182.521 242.401 187.205C239.761 187.733 237.187 188.553 234.728 189.651C233.472 186.257 231.912 183.043 230.292 179.831C230.283 179.812 230.273 179.792 230.262 179.774C230.142 179.573 229.947 179.428 229.721 179.371C229.494 179.314 229.254 179.349 229.053 179.468C228.853 179.588 228.708 179.782 228.65 180.009C228.593 180.235 228.628 180.475 228.748 180.676L228.756 180.706ZM216.483 191.846C218.516 193.881 220.239 196.27 221.822 198.742L222.672 198.22C221.568 199.383 220.543 200.619 219.603 201.918C219.076 202.661 218.58 203.412 218.117 204.171C215.538 202.226 212.832 200.456 210.016 198.873L209.956 198.843C209.747 198.753 209.511 198.747 209.298 198.826C209.084 198.906 208.91 199.065 208.811 199.27C208.712 199.475 208.696 199.711 208.767 199.927C208.837 200.144 208.989 200.325 209.19 200.432L209.212 200.432C212.108 201.78 214.908 203.323 217.595 205.051C216.996 206.087 216.452 207.152 215.964 208.244L207.298 203.627L207.211 203.584C207.105 203.537 206.991 203.511 206.876 203.507C206.76 203.504 206.645 203.524 206.537 203.565C206.428 203.606 206.329 203.668 206.245 203.748C206.161 203.827 206.093 203.923 206.046 204.028C205.999 204.134 205.973 204.248 205.97 204.363C205.966 204.479 205.986 204.594 206.027 204.702C206.068 204.811 206.131 204.909 206.21 204.994C206.29 205.078 206.385 205.145 206.491 205.193L215.542 209.244C214.588 211.581 213.916 214.024 213.542 216.52C213.421 216.447 213.287 216.398 213.148 216.373C211.259 216.066 209.352 215.89 207.439 215.846C206.398 215.71 205.357 215.575 204.332 215.393C201.508 214.849 198.624 214.121 196.314 212.719C195.161 212.031 194.245 211.089 193.979 210.051C193.791 208.983 193.873 207.363 194.085 206.029C194.531 203.203 195.426 200.465 196.738 197.922C198.07 195.397 199.728 192.993 201.859 191.167C203.93 189.303 206.621 188.086 209.282 188.143C211.943 188.2 214.439 189.863 216.475 191.841L216.483 191.846ZM207.785 218.202C209.483 218.425 211.188 218.596 212.919 218.688C213.059 218.695 213.199 218.677 213.332 218.634C213.147 221.068 213.26 223.515 213.669 225.921C210.283 226.25 206.999 226.965 203.71 227.774L203.645 227.793C203.531 227.826 203.426 227.881 203.334 227.956C203.242 228.03 203.166 228.122 203.111 228.227C203.056 228.331 203.022 228.445 203.012 228.563C203.001 228.68 203.015 228.799 203.051 228.911C203.088 229.023 203.147 229.127 203.224 229.216C203.301 229.305 203.396 229.378 203.502 229.43C203.608 229.482 203.723 229.512 203.841 229.518C203.959 229.525 204.077 229.507 204.188 229.467L204.207 229.467C207.355 228.432 210.584 227.467 213.841 226.905C214.081 228.069 214.39 229.218 214.768 230.345L205.042 233.073L205.006 233.073L204.949 233.089C204.739 233.175 204.569 233.34 204.477 233.548C204.384 233.756 204.376 233.991 204.453 234.205C204.53 234.42 204.687 234.596 204.891 234.697C205.095 234.798 205.33 234.817 205.547 234.749L215.083 231.315C215.767 233.154 216.618 234.926 217.625 236.61C215.723 237.877 213.755 239.04 211.729 240.096C209.369 241.268 206.877 242.371 204.419 242.689L203.517 242.759L202.677 242.678C202.136 242.547 201.623 242.32 201.163 242.007C200.116 241.322 199.184 240.476 198.401 239.501C196.797 237.545 195.683 235.154 194.93 232.676C194.552 231.426 194.243 230.156 194.003 228.872C193.791 227.617 193.525 226.177 193.557 225.109C193.619 223.995 194.022 222.926 194.712 222.049C195.419 221.156 196.452 220.487 197.531 219.922C200.646 218.498 204.199 218.072 207.76 218.188L207.785 218.202ZM257.02 187.349C258.064 183.817 258.735 180.26 259.363 176.666L259.363 176.603C259.38 176.485 259.374 176.365 259.343 176.25C259.313 176.134 259.26 176.026 259.186 175.932C259.113 175.838 259.021 175.76 258.917 175.702C258.813 175.644 258.698 175.608 258.579 175.596C258.46 175.584 258.34 175.596 258.226 175.632C258.112 175.667 258.007 175.725 257.916 175.802C257.825 175.88 257.751 175.975 257.698 176.082C257.645 176.188 257.614 176.305 257.607 176.424L257.607 176.429C257.243 180.01 256.822 183.63 256.047 187.129C254.924 186.925 253.815 186.771 252.717 186.673L253.935 175.851L253.935 175.813C253.936 175.793 253.936 175.773 253.935 175.753C253.94 175.637 253.922 175.522 253.882 175.413C253.842 175.304 253.781 175.205 253.703 175.119C253.624 175.034 253.53 174.965 253.425 174.917C253.32 174.868 253.206 174.841 253.091 174.836C252.857 174.826 252.629 174.909 252.457 175.068C252.285 175.226 252.183 175.446 252.173 175.679L251.714 186.597C249.39 186.451 247.058 186.531 244.75 186.836C243.894 182.76 243.236 178.543 243.168 174.421C243.168 172.326 243.282 169.998 244.152 168.503C245.095 167.118 247.172 166.104 249.151 165.61C253.335 164.636 257.715 164.943 261.723 166.49C265.707 167.914 269.089 170.753 271.465 174.277C271.307 174.492 271.147 174.704 270.992 174.921C268.121 178.769 265.357 182.714 262.685 186.719C262.285 187.317 261.918 187.942 261.54 188.558C260.058 188.068 258.549 187.665 257.02 187.349ZM275.615 270.601C274.988 273.835 273.653 276.973 271.525 279.486C269.485 281.936 266.655 283.599 263.522 284.19C262.576 283.755 261.619 283.374 260.654 283.018C266.363 280.301 269.817 274.288 270.53 268.237C271.052 265.018 270.634 261.716 269.325 258.728C268.035 255.765 266.126 253.111 263.726 250.946C259.064 246.563 252.581 243.917 246.057 244.542C244.405 244.724 242.802 245.212 241.328 245.979C239.866 246.816 238.6 247.956 237.614 249.321C236.641 250.721 236.039 252.346 235.867 254.043C235.769 254.934 235.873 255.834 236.171 256.679C236.405 257.578 237.169 258.391 238.074 258.866L239.433 259.567L239.161 257.97C238.933 256.611 239.531 255.171 240.822 254.644C241.502 254.366 242.231 254.226 242.966 254.234C243.7 254.241 244.426 254.395 245.101 254.687C247.849 255.872 249.55 259.17 249.227 262.192C249.034 265.284 246.674 267.862 243.766 269.107C240.857 270.351 237.47 271.028 234.372 270.37C232.821 270.055 231.353 269.422 230.061 268.51C228.768 267.598 227.68 266.427 226.864 265.072C225.271 262.26 224.638 259.005 225.062 255.801C225.477 252.564 226.805 249.512 228.889 247.001C231.004 244.484 233.673 242.491 236.688 241.178C242.708 238.499 249.735 238.154 256.055 240.075C262.454 242.024 267.987 246.116 271.723 251.663C273.515 254.449 274.812 257.524 275.556 260.752C276.211 264 276.231 267.345 275.615 270.601ZM296.337 251.582C294.397 250.995 292.383 250.687 290.356 250.666C290.197 250.667 290.041 250.717 289.911 250.81C289.781 250.902 289.682 251.032 289.628 251.182C288.826 253.414 288.342 255.747 288.19 258.114C288.081 259.905 288.139 261.702 288.364 263.483C285.741 261.581 283.159 259.63 280.622 257.63L280.59 257.603C280.49 257.525 280.366 257.482 280.239 257.482C280.112 257.482 279.989 257.525 279.889 257.603C278.494 258.676 277.738 260.189 277.208 261.678C277.151 261.841 277.124 262.007 277.07 262.17C277.002 261.61 276.942 261.051 276.841 260.496C276.098 257.092 274.753 253.846 272.87 250.913C268.973 245.078 263.185 240.76 256.479 238.686C249.83 236.643 242.453 236.958 236.043 239.773C232.802 241.17 229.927 243.296 227.644 245.987C225.357 248.726 223.894 252.058 223.425 255.595C222.938 259.168 223.635 262.802 225.41 265.941C226.342 267.503 227.588 268.855 229.07 269.91C230.552 270.965 232.237 271.701 234.018 272.071C237.604 272.816 241.227 272.12 244.489 270.696C247.734 269.319 250.697 266.151 250.904 262.339C251.241 258.646 249.273 254.731 245.739 253.185C244.854 252.806 243.901 252.61 242.938 252.61C241.975 252.61 241.022 252.806 240.137 253.185C239.185 253.617 238.415 254.37 237.962 255.312C237.842 255.615 237.751 255.929 237.691 256.25C237.43 255.589 237.331 254.875 237.402 254.168C237.548 252.745 238.048 251.382 238.857 250.201C239.704 249.026 240.788 248.041 242.04 247.31C243.342 246.63 244.758 246.196 246.218 246.028C252.163 245.419 258.346 247.84 262.761 251.978C267.235 256.008 270.277 262.032 269.306 268.08C268.939 271.101 268.034 274.082 266.36 276.62C264.751 279.16 262.364 281.323 259.643 282.486L259.591 282.51C259.543 282.529 259.529 282.578 259.491 282.611C256.405 281.587 253.266 280.73 250.088 280.043C245.526 279.065 240.912 278.345 236.269 277.886C230.23 277.263 224.151 277.115 218.089 277.443C219.199 269.874 217.369 262.167 212.974 255.905L213.009 255.905C217.576 240.667 231.202 229.934 248.577 227.891C264.025 226.06 284.836 231.695 298.394 252.345C297.723 252.052 297.036 251.796 296.337 251.576L296.337 251.582ZM325.422 232.222C323.073 233.934 321.179 236.138 319.583 238.493C318.191 240.599 317.003 242.832 316.036 245.164C315.007 244.419 314.106 243.514 313.366 242.482C312.46 241.202 311.77 239.782 311.325 238.279L311.309 238.23C311.286 238.145 311.248 238.065 311.197 237.993C311.075 237.823 310.891 237.708 310.685 237.674C310.479 237.639 310.267 237.688 310.096 237.809C308.693 238.748 307.407 239.852 306.266 241.096C305.125 242.333 304.144 243.709 303.347 245.191C302.538 246.658 301.886 248.206 301.401 249.81C301.194 250.497 301.034 251.19 300.892 251.886C291.099 236.477 277.48 228.869 264.571 226.299C258.67 219.281 256.3 209.401 258.681 200.601C259.825 196.101 261.918 191.876 264.582 187.996C267.249 184.037 270.059 180.182 272.87 176.312C273.998 174.75 275.143 173.196 276.279 171.628L276.773 171.471C276.738 171.351 276.686 171.237 276.648 171.117C278.209 168.944 279.734 166.743 281.117 164.393C282.349 162.273 283.436 159.983 284.031 157.502C284.626 155.021 284.632 152.416 284.24 149.951C283.819 147.557 283.183 144.914 281.386 142.865C279.861 141.063 277.548 140.058 275.246 139.92C276.142 139.617 277.072 139.425 278.016 139.349C279.664 139.226 281.32 139.397 282.909 139.854C284.464 140.284 285.903 141.055 287.122 142.112C288.308 143.173 289.224 144.503 289.791 145.99C289.884 146.224 290.058 146.419 290.281 146.538C290.504 146.657 290.762 146.694 291.009 146.642L291.066 146.628C294.872 145.813 299.422 146.085 302.137 148.666C303.51 149.927 304.312 151.728 304.714 153.646C305.117 155.565 305.149 157.635 304.986 159.684C304.979 159.758 304.979 159.832 304.986 159.907C305.003 160.056 305.049 160.201 305.121 160.333C305.194 160.465 305.292 160.582 305.409 160.676C305.527 160.77 305.662 160.84 305.807 160.882C305.951 160.924 306.103 160.937 306.253 160.92L306.283 160.92C309.032 160.642 311.81 160.852 314.486 161.54C317.178 162.205 319.707 163.406 321.923 165.072C325.637 167.884 328.145 172.044 329.641 176.573C324.964 173.198 319.567 170.954 313.875 170.017C303.673 168.609 292.971 170.968 284.518 176.932C280.26 179.891 276.685 183.725 274.031 188.178C271.41 192.631 269.793 197.788 269.915 203.062C270.375 213.713 277.989 223.212 287.954 226.579C292.914 228.255 298.449 228.435 303.483 226.712C308.471 225.044 313.035 221.278 314.861 216.115C315.816 213.543 316.025 210.753 315.465 208.067C314.889 205.394 313.337 202.774 310.896 201.258C308.479 199.699 305.475 199.419 302.871 199.848C301.553 200.054 300.191 200.351 298.878 201.141C297.576 201.886 296.334 203.676 296.975 205.619C297.034 205.802 297.146 205.962 297.296 206.081L297.359 206.133C298.016 206.657 298.636 208.056 298.742 209.217C298.896 210.401 298.591 211.6 297.889 212.567C296.492 214.439 293.512 215.518 291.061 215.477C288.492 215.395 286.021 213.991 284.213 212.002C282.383 209.965 281.137 207.471 280.609 204.785C279.424 199.397 281.636 193.672 285.877 190.094C290.06 186.393 295.565 184.246 301.175 183.912C306.835 183.544 312.477 184.855 317.395 187.678C322.321 190.498 326.249 194.778 328.635 199.927C331.043 205.098 331.958 210.838 331.277 216.501C330.584 222.128 328.575 227.512 325.411 232.217L325.422 232.222ZM344.028 215.355C342.821 225.017 338.842 234.168 333.764 242.506C332.153 241.325 330.713 239.926 329.486 238.349C328.814 237.474 328.218 236.543 327.705 235.567C327.227 234.674 326.838 233.735 326.544 232.766C329.834 227.963 331.955 222.459 332.737 216.691C333.526 210.749 332.637 204.704 330.171 199.239C327.711 193.718 323.562 189.118 318.322 186.102C313.097 183.073 307.092 181.655 301.064 182.027C295.084 182.361 289.139 184.627 284.58 188.624C282.231 190.626 280.422 193.186 279.32 196.069C278.236 198.986 277.989 202.148 278.608 205.198C279.2 208.255 280.609 211.094 282.686 213.414C284.741 215.694 287.676 217.458 290.982 217.591C292.589 217.626 294.186 217.326 295.671 216.71C297.13 216.132 298.595 215.232 299.634 213.838C300.665 212.429 301.121 210.681 300.911 208.948C300.821 208.112 300.602 207.296 300.264 206.527C299.973 205.838 299.555 205.211 299.033 204.676C298.973 204.133 299.305 203.426 300.063 202.986C300.909 202.475 302.048 202.19 303.197 202.024C305.516 201.66 307.835 201.943 309.678 203.133C311.521 204.323 312.755 206.334 313.228 208.54C313.682 210.795 313.493 213.131 312.684 215.284C311.102 219.667 307.215 222.987 302.741 224.503C298.267 226.019 293.227 225.935 288.685 224.416C284.105 222.868 280.086 220.001 277.132 216.175C274.237 212.347 272.147 207.752 272.074 202.978C271.943 198.191 273.406 193.395 275.849 189.211C278.34 185.003 281.7 181.375 285.706 178.57C293.656 172.897 303.934 170.612 313.587 171.913C323.255 173.389 332.139 179.179 337.687 187.238C343.292 195.319 345.347 205.576 344.017 215.349L344.028 215.355ZM265.387 142.827C265.831 140.25 266.907 137.823 268.518 135.762C270.572 133.202 273.329 131.297 276.45 130.279C279.519 129.282 282.974 129.157 285.828 130.402C287.239 131.012 288.456 131.995 289.349 133.246C290.243 134.496 290.778 135.967 290.897 137.499C290.911 137.664 290.963 137.824 291.05 137.966C291.123 138.089 291.22 138.196 291.335 138.281C291.45 138.366 291.581 138.428 291.72 138.462C291.859 138.497 292.003 138.504 292.145 138.483C292.286 138.461 292.422 138.412 292.545 138.338L292.58 138.316C295.141 136.773 298.03 135.792 300.963 135.746C303.894 135.68 306.769 136.561 309.159 138.259C311.551 139.945 313.3 142.391 314.122 145.199C314.957 147.992 314.818 151.035 313.94 153.866C313.894 154.021 313.88 154.184 313.899 154.345C313.938 154.639 314.092 154.906 314.327 155.087C314.563 155.268 314.861 155.348 315.155 155.309C318.86 154.826 322.674 155.038 326.071 156.445C329.48 157.804 332.359 160.349 334.349 163.496C336.329 166.708 337.579 170.315 338.01 174.063C338.418 177.305 338.177 180.596 337.301 183.744C335.54 181.559 333.549 179.571 331.361 177.815C330.825 175.284 329.968 172.831 328.811 170.517C327.443 167.798 325.509 165.403 323.138 163.493C320.755 161.575 317.991 160.186 315.03 159.418C312.519 158.761 309.924 158.486 307.332 158.602C307.455 156.788 307.341 154.966 306.992 153.182C306.552 150.94 305.505 148.65 303.7 147.003C301.895 145.357 299.574 144.465 297.307 144.172C295.334 143.925 293.334 143.997 291.384 144.387C290.663 142.937 289.65 141.653 288.408 140.615C286.936 139.413 285.214 138.556 283.368 138.107C281.561 137.675 279.688 137.582 277.847 137.836C276.031 138.107 274.183 138.594 272.655 139.909C272.593 139.963 272.585 140.042 272.549 140.113C269.667 140.693 267.095 142.302 265.313 144.639C265.362 144.025 265.387 143.419 265.387 142.827ZM264.541 149.315L264.675 149.343C264.734 149.041 264.753 148.769 264.808 148.473C266.058 144.484 270.214 141.648 274.292 141.618C275.357 141.579 276.417 141.782 277.393 142.211C278.369 142.64 279.235 143.285 279.927 144.096C281.318 145.726 281.846 147.962 282.204 150.25C282.735 153.432 282.237 156.562 281.066 159.518C277.151 154.899 271.342 151.383 264.501 149.386C264.511 149.364 264.547 149.351 264.552 149.315L264.541 149.315ZM253.478 136.257C254.593 133.668 256.43 132.097 258.33 132.13C260.385 132.276 262.103 133.885 263.052 136.548C264.166 139.572 264.218 143.884 263.207 149C260.445 148.292 257.625 147.837 254.78 147.642C253.899 147.579 253.038 147.56 252.179 147.549C251.853 142.933 252.271 139.028 253.489 136.257L253.478 136.257ZM237.299 135.771C238.207 134.336 239.362 133.445 240.561 133.26C242.491 132.967 244.478 134.244 245.946 136.678C247.52 139.232 248.392 143.025 248.593 147.628C243.796 147.959 239.58 149.114 236.446 150.921C234.464 143.933 235.57 138.52 237.31 135.771L237.299 135.771ZM220.927 139.939C221.471 138.653 222.308 137.792 223.374 137.439C225.108 136.822 227.35 137.77 229.231 139.884C231.311 142.232 233.82 146.854 234.839 151.965C234.462 152.232 234.099 152.52 233.752 152.826C230.081 152.663 226.409 153.099 222.879 154.119C220.299 148.5 219.552 143.245 220.938 139.939L220.927 139.939ZM204.985 150.456C204.672 147.582 205.479 145.294 207.116 144.479C208.798 143.56 211.117 144.09 213.327 145.908C215.659 147.783 217.777 151.011 219.495 155.263C215.903 156.648 212.511 158.503 209.407 160.779C206.858 156.967 205.3 153.415 204.996 150.456L204.985 150.456ZM191.258 160.591C190.423 157.874 190.796 155.508 192.231 154.304C193.807 153.111 196.202 153.195 198.646 154.543C201.364 156.024 204.082 158.947 206.605 162.999C202.919 166.186 200.149 169.637 198.643 172.625C195.014 168.957 192.166 163.474 191.268 160.591L191.258 160.591ZM179.841 173.362C178.425 170.916 178.308 168.52 179.523 166.952C180.659 165.468 183.081 165.05 185.851 165.89C188.501 166.667 193.579 170.626 197.477 174.935C194.413 176.514 191.497 178.826 188.852 181.627C184.546 179 181.431 176.158 179.863 173.356L179.841 173.362ZM171.474 188.336C169.495 186.195 168.843 183.896 169.743 182.152C170.545 180.413 172.823 179.481 175.688 179.706C178.748 179.923 182.483 181.524 186.522 184.325C184.215 187.273 182.297 190.504 180.814 193.941C176.658 192.4 173.44 190.482 171.496 188.33L171.474 188.336ZM181.532 196.78L181.695 196.392L181.679 196.392C184.783 187.89 191.021 179.986 198.839 176.223C198.953 176.167 199.054 176.088 199.135 175.99C199.215 175.892 199.274 175.778 199.306 175.655C201.152 168.664 216.2 153.464 234.032 154.625C234.159 154.632 234.285 154.612 234.403 154.565C234.521 154.518 234.627 154.445 234.714 154.353C238.365 150.677 246.011 148.775 254.658 149.389C265.495 150.155 274.993 154.606 280.264 161.3C279.932 161.963 279.579 162.621 279.176 163.262C278.089 165.094 276.866 166.873 275.602 168.639C274.149 165.949 272.047 163.665 269.486 161.993C266.121 159.741 262.255 158.401 258.341 157.646C254.397 156.894 250.358 156.791 246.381 157.342C244.386 157.692 242.361 158.032 240.439 159.475C239.351 160.374 239.11 161.599 238.827 162.534C238.688 163.077 238.574 163.586 238.46 164.094C237.271 163.332 235.982 162.739 234.63 162.333C234.142 162.232 233.644 162.184 233.146 162.189L231.773 162.14C230.86 162.181 229.941 162.219 229.036 162.328C225.426 162.828 221.946 164.018 218.785 165.833C215.641 167.617 212.772 169.846 210.266 172.451C209.649 173.109 209.032 173.769 208.464 174.481C208.171 174.829 207.891 175.188 207.624 175.568L207.216 176.111C207.053 176.351 206.911 176.605 206.792 176.869C206.381 177.879 206.258 178.984 206.436 180.059C206.504 180.57 206.586 181.046 206.659 181.497C203.068 182.067 199.842 183.926 197.254 186.235C194.389 188.841 192.035 191.957 190.312 195.425C188.586 198.851 187.403 202.592 187.169 206.499C187.029 208.483 187.26 210.475 187.849 212.374C188.376 213.99 189.276 215.461 190.475 216.667C188.961 218.186 187.841 220.051 187.213 222.101C186.471 224.468 186.397 226.948 186.669 229.323C186.965 231.681 187.553 233.993 188.42 236.206C189.044 237.834 189.812 239.404 190.717 240.895C187.659 240.143 184.514 239.803 181.366 239.884C179.754 235.809 176.655 225.737 181.023 216.77C181.077 216.659 181.108 216.539 181.112 216.416C181.117 216.293 181.096 216.17 181.051 216.056C178.778 210.415 179.197 203.429 181.543 196.775L181.532 196.78ZM177.781 208.328C173.007 207.785 169.158 206.548 166.636 204.758C164.238 203.095 163.102 201.003 163.597 199.125C164.005 197.253 166.011 195.84 168.843 195.441C171.681 195.001 175.389 195.655 179.577 197.215C178.354 200.789 177.75 204.545 177.791 208.323L177.781 208.328ZM165.565 212.235C168.607 211.097 172.92 210.999 178.042 211.964L178.088 211.724C178.317 213.307 178.71 214.862 179.262 216.363C178.271 218.516 177.608 220.806 177.294 223.155C172.341 223.533 168.182 223.079 165.23 221.761C162.621 220.626 161.153 218.846 161.169 216.871C161.169 215.037 162.895 213.224 165.576 212.23L165.565 212.235ZM116.337 230.524C122.913 223.503 137.233 212.428 159.75 215.966C159.693 216.255 159.664 216.549 159.663 216.843C159.634 219.017 160.985 221.047 163.317 222.446C157.56 222.101 151.729 222.06 146.061 223.492C139.293 224.97 132.712 227.763 127.194 232.1C121.676 236.436 117.408 242.216 114.538 248.547C111.939 254.524 110.124 261.089 110.936 267.708C109.006 267.638 107.073 267.772 105.171 268.107C104.679 268.191 104.195 268.311 103.709 268.425C101.094 256.584 106.098 241.45 116.348 230.519L116.337 230.524ZM61.9727 271.824C64.044 266.854 67.4689 262.502 71.6441 259.13C75.8585 255.729 80.8188 253.374 86.1188 252.258C91.2835 251.152 96.6629 251.112 101.996 251.715C101.589 253.311 101.271 254.928 101.045 256.559C99.2968 256.508 97.5435 256.421 95.7903 256.529C93.5912 256.736 91.3759 256.858 89.2176 257.437C87.0131 257.79 84.9445 258.66 82.846 259.423L79.8559 260.975C78.8529 261.475 77.994 262.219 77.0562 262.83C73.4551 265.54 70.5592 269.075 68.6133 273.139C68.0996 274.134 67.7788 275.218 67.3575 276.25C67.0857 277.337 66.6943 278.386 66.5203 279.494C66.1412 281.261 66.0494 283.078 66.2485 284.874C65.8543 284.953 65.4547 285.005 65.066 285.1C63.2754 285.534 61.5227 286.112 59.8253 286.828C59.0723 281.741 59.9802 276.508 61.9944 271.827L61.9727 271.824ZM100.743 263.803C99.5279 263.817 98.2965 263.822 97.0923 263.931C95.4994 264.203 93.8576 264.306 92.311 264.844C89.117 265.575 86.1813 267.213 83.531 269.121C80.9017 271.104 78.6871 273.583 77.0127 276.419C75.5565 278.884 74.5023 281.564 73.8894 284.361C71.6844 284.204 69.4684 284.313 67.2895 284.687C67.2413 283.036 67.4402 281.388 67.8794 279.796C68.0805 278.758 68.4828 277.764 68.7873 276.756C69.2304 275.791 69.5647 274.78 70.0893 273.859C71.9985 270.078 74.749 266.785 78.1299 264.232C79.0079 263.651 79.8016 262.936 80.7448 262.455L83.5364 260.931C85.5289 260.203 87.4752 259.331 89.5791 258.915C93.2542 257.91 97.0896 257.665 100.93 257.557C100.694 259.63 100.631 261.719 100.743 263.803ZM78.3718 277.261C80.0152 274.653 82.1156 272.363 84.5721 270.501C87.0112 268.618 89.7752 267.199 92.7268 266.314C94.1675 265.727 95.7359 265.599 97.2472 265.227C98.4107 265.031 99.5958 264.936 100.781 264.827C100.9 266.252 101.12 267.667 101.439 269.061C97.3804 270.419 93.6347 272.789 90.8377 276.09C87.7117 279.701 85.9938 284.293 85.4175 288.942C82.9844 286.856 80.0602 285.423 76.9203 284.779C76.2597 284.643 75.5938 284.575 74.9278 284.507C75.7593 281.954 76.9169 279.518 78.3718 277.261ZM32.1155 322.908C28.1514 322.828 24.2015 323.406 20.4271 324.62C16.6547 325.817 13.0496 327.488 9.69815 329.592C7.99402 330.653 6.34635 331.802 4.76184 333.035C5.79679 330.807 7.00278 328.662 8.36893 326.62C10.7757 322.996 13.802 319.824 17.3092 317.249C20.8392 314.676 24.819 312.785 29.0439 311.673C32.825 310.663 36.7438 310.266 40.6508 310.497C40.2126 313.793 40.3404 317.139 41.0286 320.392C41.3492 321.88 41.7651 323.346 42.2736 324.78C39.0113 323.629 35.5876 323.001 32.1291 322.919L32.1155 322.908ZM60.4858 328.158L60.4504 328.12C59.972 328.525 59.5425 328.976 59.0913 329.405C56.8678 325.816 55.5576 321.43 56.1475 317.289L60.9751 327.696C60.812 327.848 60.6489 328.006 60.4858 328.158ZM61.8802 326.851L56.528 315.333C57.0073 313.68 57.7597 312.119 58.7542 310.714L64.7099 324.452C63.7558 325.231 62.8017 326.022 61.8802 326.851ZM65.6504 323.658L59.5697 309.63C60.499 308.479 61.5407 307.424 62.6794 306.481L68.6595 321.346C67.632 322.099 66.6317 322.865 65.6504 323.658ZM69.6245 320.634L63.6444 305.728C63.7558 305.647 63.8591 305.554 63.9706 305.473C64.997 304.701 66.075 304.002 67.1971 303.378L72.7804 318.444C71.7067 319.148 70.6601 319.892 69.6245 320.634ZM76.7408 315.944C75.7324 316.531 74.762 317.178 73.778 317.806L68.23 302.832C69.4893 302.199 70.8007 301.677 72.1498 301.269L77.0426 315.773L76.7408 315.944ZM78.1 315.197L73.286 300.968C74.6048 300.64 75.9519 300.439 77.309 300.367L77.5183 300.367L81.5331 313.409C80.386 313.974 79.2444 314.575 78.1 315.197ZM82.6068 312.898L78.7415 300.351C80.2604 300.37 81.7736 300.539 83.2592 300.856L86.1731 311.358C84.9771 311.836 83.7929 312.35 82.6204 312.898L82.6068 312.898ZM87.4072 310.863L87.2686 310.92L84.5504 301.139C86.1893 301.578 87.7767 302.191 89.2855 302.967L90.9165 309.652C89.7721 310.051 88.5788 310.412 87.4208 310.863L87.4072 310.863ZM92.0717 309.296L90.7126 303.783C90.8322 303.856 90.96 303.918 91.0768 303.995L92.9524 305.187L92.8029 303.03C92.6543 300.944 92.8378 298.847 93.3466 296.819L95.793 308.298C94.5535 308.592 93.3058 308.907 92.0717 309.296ZM98.7586 307.57C98.147 307.69 97.549 307.875 96.9401 308.01L94.0588 294.558C94.6633 293.034 95.5076 291.617 96.5595 290.36C96.8504 290.01 97.163 289.684 97.4811 289.36L100.767 307.247C100.118 307.364 99.4327 307.434 98.7586 307.57ZM101.928 307.062L98.5004 288.409C99.7362 287.352 101.107 286.464 102.578 285.768L105.742 306.551C104.467 306.679 103.203 306.85 101.936 307.062L101.928 307.062ZM106.913 306.467L103.684 285.274C105.085 284.709 106.543 284.298 108.033 284.048L110.771 306.209C109.477 306.242 108.196 306.361 106.913 306.467ZM111.942 306.22L109.186 283.891C110.659 283.722 112.145 283.701 113.622 283.828L115.715 306.263C114.462 306.209 113.203 306.209 111.945 306.22L111.942 306.22ZM116.903 306.307L114.818 283.953C116.341 284.174 117.836 284.56 119.276 285.105L120.635 306.663C119.39 306.535 118.151 306.394 116.903 306.307ZM122.28 306.82C122.125 306.799 121.97 306.796 121.815 306.777L120.483 285.605C120.855 285.774 121.225 285.939 121.586 286.132C122.732 286.738 123.809 287.467 124.797 288.306L125.435 307.394C124.383 307.201 123.34 306.981 122.28 306.834L122.28 306.82ZM126.629 307.581L126.02 289.431C127.785 291.226 129.171 293.356 130.097 295.696L130.122 308.355C128.961 308.089 127.795 307.823 126.618 307.595L126.629 307.581ZM122.527 284.399C118.062 282.047 112.958 281.194 107.971 281.967C103.043 282.706 98.2313 285.073 94.9558 288.993C92.0636 292.368 90.6909 296.797 90.6066 301.15C86.5038 298.95 81.8844 297.894 77.2329 298.093C71.9024 298.318 66.7839 300.454 62.5978 303.582C58.3955 306.614 54.715 311.168 53.9539 316.624C53.5755 319.299 53.7852 322.025 54.5682 324.612C55.2365 326.855 56.2331 328.988 57.5256 330.94C56.8026 331.723 56.0958 332.521 55.4489 333.369C54.7063 334.335 54.0167 335.34 53.383 336.38C53.0731 336.893 52.7795 337.399 52.4996 337.923C48.2455 332.557 44.7281 326.511 43.3581 319.9C41.7571 312.744 43.2983 305.043 47.6774 299.172C51.9858 293.278 58.5504 289.048 65.6776 287.35C69.2304 286.499 72.9516 286.317 76.4745 287.048C79.9973 287.779 83.2375 289.548 85.5181 292.254C85.625 292.379 85.7567 292.481 85.905 292.553C86.0533 292.625 86.215 292.666 86.3797 292.672C86.6906 292.681 86.9923 292.567 87.2189 292.354C87.4455 292.141 87.5787 291.847 87.5894 291.537C87.7769 286.453 89.3671 281.399 92.6643 277.582C95.9262 273.745 100.637 271.262 105.619 270.384C110.636 269.481 115.809 270.166 120.418 272.343C125.014 274.506 128.598 278.358 130.423 283.097L130.461 283.182C130.577 283.441 130.785 283.649 131.046 283.763C131.327 283.888 131.647 283.897 131.935 283.787C132.223 283.677 132.456 283.457 132.582 283.176C134.533 278.799 138.632 275.642 143.346 274.547C148.046 273.395 153.172 273.935 157.679 275.813C162.186 277.69 166.171 281.059 168.049 285.532C169.985 289.961 169.387 295.107 167.506 299.596C165.602 301.99 163.894 304.535 162.398 307.203C161.738 307.011 161.064 306.871 160.381 306.788C161.708 304.886 162.636 302.735 163.108 300.465C163.58 298.195 163.586 295.853 163.127 293.58C162.63 291.152 161.519 288.892 159.9 287.015C158.247 285.149 156.127 283.756 153.757 282.98C151.414 282.21 148.94 281.919 146.483 282.125C144.01 282.368 141.626 283.174 139.513 284.48C135.925 286.73 133.22 289.966 131.277 293.642C129.413 289.713 126.344 286.479 122.516 284.412L122.527 284.399ZM159.065 306.679C158.764 306.679 158.467 306.679 158.168 306.679L160.792 291.192C161.185 292.046 161.49 292.938 161.702 293.854C162.182 296.05 162.187 298.322 161.719 300.52C161.25 302.718 160.318 304.791 158.984 306.6L159.065 306.679ZM152.036 284.236C152.436 284.331 152.835 284.423 153.227 284.548C154.075 284.833 154.894 285.197 155.673 285.635L152.512 307.85C151.338 308.291 150.212 308.851 149.152 309.521L152.036 284.236ZM147.872 310.382C146.647 311.299 145.545 312.369 144.591 313.564L144.479 313.515L146.977 283.863C148.282 283.752 149.596 283.801 150.889 284.01L147.872 310.382ZM156.76 286.32C157.485 286.813 158.148 287.391 158.737 288.04C159.154 288.512 159.534 289.016 159.873 289.548L156.948 306.818C156.752 306.839 156.551 306.837 156.355 306.869C155.476 306.991 154.607 307.181 153.757 307.437L156.76 286.32ZM134.743 309.624C133.609 309.268 132.465 308.967 131.315 308.668L131.293 298.142L132.109 296.262C132.93 294.371 133.975 292.584 135.221 290.942L134.743 309.624ZM135.909 310.026L136.42 289.461C137.602 288.128 138.964 286.968 140.467 286.013L140.516 285.986L139.127 311.127C138.064 310.725 136.977 310.382 135.895 310.026L135.909 310.026ZM143.357 313.015C142.343 312.534 141.324 312.067 140.291 311.64L141.742 285.333C143.018 284.702 144.38 284.262 145.784 284.027L143.357 313.015ZM126.737 337.654C126.188 337.33 125.669 336.956 125.188 336.537L140.592 335.45C140.192 335.93 139.746 336.371 139.26 336.765L126.737 337.654ZM137.958 337.692C135.89 338.924 133.471 339.436 131.081 339.146C130.069 339.034 129.078 338.772 128.143 338.369L137.958 337.692ZM124.43 335.768C124.095 335.404 123.788 335.016 123.508 334.608L141.867 333.32L141.9 333.391C141.722 333.804 141.514 334.204 141.277 334.586L124.43 335.768ZM122.997 333.82C122.787 333.438 122.606 333.041 122.453 332.633L141.092 331.304C141.215 331.706 141.34 332.119 141.495 332.502L122.997 333.82ZM137.358 321.37C137.963 321.683 138.537 322.053 139.073 322.474L124.196 323.517C124.624 323.031 125.098 322.587 125.612 322.194L137.358 321.37ZM127.091 321.267C127.548 321.026 128.024 320.821 128.512 320.653C130.841 319.857 133.368 319.857 135.697 320.653L127.091 321.267ZM139.94 323.237C140.122 323.416 140.299 323.601 140.467 323.794C140.443 324.006 140.432 324.218 140.413 324.43L122.744 325.666C122.911 325.297 123.105 324.94 123.323 324.598C123.372 324.525 123.44 324.462 123.489 324.389L139.94 323.237ZM140.348 325.259C140.326 325.666 140.348 326.074 140.348 326.481L122.054 327.764C122.144 327.339 122.263 326.921 122.413 326.514L140.348 325.259ZM140.369 327.302C140.391 327.699 140.435 328.092 140.486 328.489L121.915 329.791C121.899 329.391 121.912 328.99 121.953 328.592L140.369 327.302ZM140.611 329.302C140.682 329.706 140.764 330.117 140.861 330.508L122.217 331.815C122.118 331.496 122.039 331.171 121.981 330.842C121.981 330.763 121.981 330.685 121.964 330.609L140.611 329.302ZM139.739 344.007C133.759 344.08 128.01 342.004 122.524 339.453C119.757 338.206 117.012 336.844 114.168 335.649C111.325 334.453 108.4 333.222 105.16 332.913C101.911 332.577 98.6346 333.201 95.7359 334.706C92.8554 336.244 90.4367 338.521 88.7283 341.303L87.9753 342.523L89.4812 342.795C92.7431 343.371 96.1246 344.713 98.5574 346.941C99.7664 348.042 100.715 349.398 101.335 350.911C101.991 352.397 102.116 354.082 102.17 355.769C102.211 359.125 101.061 362.431 98.7531 364.768C96.4454 367.105 93.1808 368.422 89.8509 368.667C83.0852 369.262 76.363 365.578 72.62 359.953C70.7123 357.096 69.4072 353.881 68.7845 350.503C68.0778 347.144 68.0778 343.675 68.7845 340.317C70.247 333.619 74.9958 327.965 80.8916 324.286C86.7603 320.482 93.5042 318.017 100.332 316.281C107.181 314.525 114.271 313.909 121.32 314.458C128.232 315.021 135.229 316.803 141.218 320.216C140.985 320.992 140.797 321.78 140.652 322.577C137.589 319.197 132.497 317.757 128.048 319.235C125.577 319.982 123.439 321.558 121.994 323.696C120.529 325.861 119.931 328.497 120.317 331.081C121.037 336.333 125.865 340.243 130.918 340.67C133.458 340.901 136.008 340.34 138.217 339.064C140.043 337.972 141.506 336.365 142.422 334.445C143.166 335.759 144.186 336.897 145.412 337.779C146.638 338.661 148.041 339.268 149.524 339.556C151.554 339.859 153.624 339.729 155.6 339.176C150.704 341.99 145.289 343.882 139.733 344.007L139.739 344.007ZM149.775 338.17C148.45 337.922 147.197 337.381 146.109 336.587C145.021 335.792 144.124 334.764 143.485 333.578C140.802 328.755 141.22 322.495 143.607 317.512C144.81 314.974 146.616 312.769 148.868 311.089C151.119 309.409 153.748 308.306 156.524 307.875C159.28 307.375 162.194 307.657 164.597 309.054C165.639 309.705 166.558 310.532 167.315 311.499C166.059 310.816 164.666 310.425 163.238 310.355C161.121 310.246 159.013 310.695 157.125 311.657C153.319 313.608 150.873 317.507 150.12 321.577C149.304 325.68 150.334 330.06 152.678 333.483C153.711 334.973 154.957 336.304 156.374 337.434C154.211 338.165 151.946 338.523 149.769 338.17L149.775 338.17ZM185.199 349.87C181.591 352.345 177.318 353.671 172.942 353.674C168.628 353.674 164.124 352.462 161.006 349.547C159.473 348.099 158.441 346.202 158.06 344.129C157.798 342.4 157.936 340.634 158.462 338.966C159.654 339.752 160.905 340.445 162.202 341.039C165.911 342.652 169.86 343.645 173.891 343.979C179.955 344.482 185.99 343.604 191.766 341.974C190.257 345.11 188.069 347.908 185.199 349.87ZM376.911 288.341C375.662 288.157 374.394 288.15 373.143 288.32C370.757 288.637 368.522 289.678 366.579 290.993C363.733 292.93 361.414 295.389 359.223 297.878C359.381 297.52 359.517 297.153 359.677 296.791C360.367 295.221 361.12 293.678 361.936 292.172C363.374 289.521 365.059 286.988 367.215 284.912C370.058 285.298 373.32 286.32 376.911 288.341ZM366.171 284.823C365.319 285.554 364.533 286.358 363.82 287.225C362.683 288.583 361.795 290.11 360.919 291.629C360.079 293.165 359.333 294.751 358.688 296.378C358.253 297.501 357.872 298.636 357.53 299.788C357.258 300.093 356.986 300.4 356.714 300.701C355.719 301.844 354.714 302.964 353.697 304.06C354.094 302.506 354.54 300.96 355.056 299.441C355.709 297.472 356.474 295.543 357.348 293.661C358.238 291.798 359.274 290.007 360.446 288.306C361.379 287.039 362.418 285.852 363.551 284.76C364.424 284.725 365.3 284.746 366.171 284.823ZM354.792 287.475C355.01 287.314 357.736 285.377 362.295 284.866C361.326 285.732 360.435 286.68 359.631 287.7C358.351 289.412 357.239 291.243 356.309 293.167C354.529 296.917 353.342 300.921 352.789 305.035C351.047 306.89 349.145 308.588 347.105 310.111C345.354 311.504 343.485 312.742 341.519 313.811C339.616 314.819 337.401 315.819 335.417 315.76L335.311 315.76L335.197 315.681C337.905 314.582 340.435 313.087 342.704 311.246C345.279 309.055 347.492 306.471 349.261 303.59C352.206 298.671 354.081 293.188 354.765 287.496C354.765 287.496 354.784 287.483 354.792 287.475ZM336.249 253.323C336.512 252.717 336.839 252.141 337.224 251.603C337.903 250.667 338.768 249.88 339.766 249.294L344.863 257.051C346.649 259.836 348.668 262.469 349.94 265.417C352.678 271.294 353.621 277.894 353.349 284.347C353.077 290.8 351.316 297.259 348.013 302.823C345.427 307.18 341.795 310.822 337.445 313.42C341.821 309.616 345.496 304.886 347.393 299.291C349.84 292.341 349.535 284.706 347.608 277.728C345.681 270.751 342.37 264.156 338.198 258.26C337.447 257.173 336.637 256.13 335.811 255.106C335.925 254.513 336.104 253.916 336.249 253.323ZM321.807 249.492C321.992 248.113 322.386 246.77 322.975 245.509C323.41 244.547 323.971 243.648 324.644 242.835C326.294 245.767 328.254 248.269 330.252 250.837C332.514 253.663 334.873 256.29 336.83 259.228C340.785 265.069 344.121 271.4 346.04 278.174C347.959 284.948 348.307 292.202 346.056 298.846C344.526 303.386 341.837 307.437 338.502 310.918C341.22 306.926 343.05 302.291 343.395 297.422C344.034 290.287 342.142 283.146 338.97 276.851C335.772 270.513 331.352 264.871 325.963 260.249C324.919 259.346 323.831 258.496 322.701 257.703C321.758 255.072 321.451 252.256 321.807 249.484L321.807 249.492ZM307.128 256.353C307.242 253.535 308.16 250.808 309.776 248.495C310.587 249.673 311.509 250.771 312.529 251.775C313.786 253.028 315.123 254.2 316.53 255.282C319.355 257.47 322.288 259.236 324.835 261.532C329.937 266.094 334.397 271.465 337.513 277.582C340.644 283.643 342.517 290.499 341.973 297.302C341.693 300.996 340.664 304.593 338.95 307.877L339.222 307.138C340.185 303.832 340.535 300.248 339.812 296.843C339.716 295.98 339.523 295.131 339.239 294.311C338.967 293.496 338.777 292.637 338.467 291.833C337.738 290.27 337.159 288.624 336.202 287.184C335.757 286.447 335.341 285.689 334.87 284.969L333.332 282.902C332.364 281.47 331.095 280.299 329.975 279C325.207 274.06 319.472 270.129 313.331 267.156L308.786 265.118C307.601 262.35 307.039 259.354 307.139 256.345L307.128 256.353ZM296.619 269.082C295.73 266.182 295.392 263.141 295.622 260.116C296.649 260.86 297.72 261.54 298.829 262.154C300.322 262.996 301.846 263.757 303.382 264.485C304.918 265.213 306.473 265.898 308.03 266.569L312.578 268.672C318.496 271.707 324.19 275.34 328.822 280.117C329.91 281.361 331.16 282.483 332.101 283.85L333.601 285.825C334.06 286.51 334.463 287.233 334.898 287.934C335.835 289.292 336.39 290.865 337.105 292.349C337.409 293.11 337.602 293.911 337.86 294.691C338.139 295.463 338.328 296.265 338.426 297.08C339.141 300.294 338.831 303.633 338.043 306.785L337.295 309.13L336.181 311.331C335.99 311.695 335.816 312.072 335.61 312.418L334.881 313.42L334.637 313.76C334.52 288.124 319.67 283.633 300.93 278.062C300.838 278.035 300.751 278 300.659 277.973C298.912 275.208 297.553 272.216 296.619 269.082ZM286.266 272.041C290.416 275.55 295.239 278.175 300.438 279.758C319.355 285.382 333.087 289.502 332.897 314.537C331.314 312.294 329.455 310.259 327.363 308.48C324.916 306.345 322.266 304.473 319.627 302.633C316.987 300.794 314.331 298.998 311.839 297.036C309.346 295.074 307.006 292.933 305.269 290.398L305.269 290.371C305.132 290.181 304.926 290.053 304.696 290.015C304.465 289.977 304.229 290.032 304.039 290.169C303.849 290.305 303.721 290.511 303.683 290.741C303.645 290.972 303.7 291.208 303.836 291.398C305.802 294.137 308.316 296.313 310.904 298.272C313.491 300.231 316.196 301.959 318.863 303.753C321.529 305.546 324.174 307.326 326.612 309.361C328.488 310.889 330.188 312.62 331.682 314.523C325.357 313.082 319.233 310.87 313.448 307.937C310.386 306.383 307.51 304.488 304.875 302.288C302.358 300.095 299.919 297.397 298.854 294.496L298.794 294.335C298.698 294.135 298.531 293.978 298.324 293.896C298.118 293.815 297.888 293.814 297.681 293.895C297.474 293.976 297.306 294.132 297.21 294.333C297.113 294.533 297.097 294.762 297.163 294.974C298.598 298.642 301.164 301.161 303.866 303.503C306.632 305.729 309.641 307.635 312.836 309.184C315.992 310.744 319.257 312.071 322.606 313.157C325.564 314.12 328.575 314.917 331.622 315.545C320.562 319.246 311.154 318.504 303.665 313.246C290.443 303.965 286.575 283.315 286.266 272.052L286.266 272.041ZM265.93 295.982C269.214 294.001 272.988 292.98 276.822 293.036C281.165 293.105 285.433 294.175 289.294 296.164C292.099 303.41 296.361 310.266 302.654 314.689C307.979 318.428 314.171 320.055 321.157 319.564C322.92 319.427 324.672 319.173 326.4 318.803C322.893 320.182 319.187 320.994 315.424 321.207C309.044 321.55 302.714 319.694 297.117 316.621C291.457 313.561 286.516 309.434 281.737 304.994C276.988 301.03 271.552 298.28 265.93 295.982ZM279.424 305.834C278.173 305.834 276.918 305.886 275.664 305.964C275.746 305.964 275.827 305.932 275.909 305.924C276.678 305.836 277.451 305.794 278.225 305.796C278.611 305.796 278.997 305.796 279.38 305.831L279.424 305.834ZM269.597 302.804C270.94 302.8 272.279 302.923 273.599 303.171C272.854 303.066 272.105 302.999 271.353 302.97C268.105 302.823 264.857 303.251 261.758 304.234C260.379 304.687 259.031 305.232 257.724 305.864C258.047 305.695 258.357 305.503 258.689 305.345C260.378 304.538 262.142 303.901 263.957 303.443C265.812 303.046 267.701 302.833 269.597 302.804ZM268.214 301.321C267.942 301.321 267.689 301.337 267.425 301.353C267.392 301.31 267.347 301.278 267.295 301.261C267.602 301.283 267.909 301.296 268.214 301.321ZM252.366 303.886C245.299 305.815 238.56 308.741 232.001 311.909C228.712 313.494 225.478 315.17 222.292 316.98C219.106 318.789 216.023 320.732 212.884 322.482C209.736 324.208 206.425 325.616 202.998 326.685C201.428 327.201 199.736 327.21 198.162 326.709C196.634 326.21 195.444 325.033 195.389 323.598C195.283 322.153 196.145 320.61 197.23 319.303C198.375 317.98 199.67 316.794 201.089 315.77C204.009 313.689 207.117 311.885 210.372 310.382C216.879 307.254 223.739 304.918 230.803 303.424C237.886 301.93 245.093 301.097 252.331 300.935C255.952 300.783 259.578 300.856 263.204 300.995C264.327 301.046 265.449 301.136 266.569 301.218C261.627 301.188 256.669 301.353 251.776 302.101C246.674 302.806 241.627 303.864 236.671 305.266C231.711 306.65 226.832 308.309 222.055 310.233C217.267 312.151 212.601 314.362 208.084 316.852C207.954 316.932 207.86 317.059 207.822 317.206C207.785 317.354 207.806 317.51 207.881 317.643C207.957 317.775 208.081 317.873 208.227 317.915C208.373 317.958 208.53 317.942 208.665 317.871L208.687 317.871C213.13 315.368 217.723 313.14 222.439 311.198C227.163 309.246 231.993 307.558 236.905 306.141C241.813 304.712 246.814 303.622 251.872 302.881C255.283 302.358 258.724 302.05 262.174 301.959C258.863 302.369 255.586 303.013 252.366 303.886ZM230.104 332.092C227.372 335.502 224.499 338.811 221.321 341.784L218.921 343.99C218.089 344.686 217.209 345.319 216.358 345.987L215.069 346.976L213.691 347.821C212.759 348.348 211.897 349.03 210.897 349.411C207.154 351.313 202.604 352.343 198.967 350.522C197.164 349.615 195.928 347.903 195.161 346.044C194.492 344.531 194.381 342.841 194.397 341.154C195.399 340.831 196.396 340.488 197.387 340.124C204.857 337.407 211.854 333.63 218.603 329.573C225.352 325.517 231.868 321.091 238.283 316.561C243.301 312.923 248.428 309.472 253.959 306.899C251.601 308.411 249.377 310.122 247.31 312.013C240.738 317.99 235.559 325.242 230.104 332.092ZM261.698 314.874C260.211 317.77 259.35 320.947 258.852 324.112C258.367 327.284 258.147 330.492 258.197 333.701C258.238 336.893 258.452 340.053 258.469 343.175C258.469 346.224 258.433 349.56 256.909 351.856C256.153 352.943 254.867 353.465 253.478 353.451C252.143 353.451 250.999 352.682 250.252 351.47C248.77 348.992 248.52 345.74 248.545 342.686C248.575 341.405 248.672 340.126 248.835 338.855C249.232 337.749 249.605 336.635 249.942 335.513C250.814 332.421 251.649 329.451 252.85 326.546C255.18 320.778 258.499 315.268 263.324 311.35C263.867 310.896 264.43 310.475 265.009 310.073C263.714 311.532 262.602 313.145 261.698 314.874ZM262.467 310.304C257.357 314.379 253.897 320.085 251.461 325.987C250.512 328.345 249.695 330.754 249.015 333.203L249.001 333.203C248.911 333.494 248.838 333.788 248.754 334.078C248.67 334.369 248.55 334.747 248.455 335.073C247.568 338.068 246.415 340.977 245.011 343.767C243.581 346.485 241.822 349.169 239.387 350.748C238.185 351.511 236.791 351.862 235.627 351.392C234.464 350.922 233.564 349.761 233.053 348.438C231.993 345.721 232.094 342.537 232.651 339.551C233.266 336.516 234.295 333.58 235.712 330.826C238.555 325.313 242.428 320.229 246.753 315.73C251.124 311.285 256.291 307.494 262.19 305.527C265.122 304.531 268.206 304.059 271.302 304.133C269.358 304.379 267.45 304.856 265.618 305.551C261.527 307.005 257.623 309.179 254.413 312.143C251.174 315.061 248.375 318.433 246.104 322.153C243.805 325.865 241.978 329.849 240.667 334.013C240.631 334.125 240.619 334.243 240.629 334.36C240.64 334.477 240.674 334.59 240.729 334.694C240.784 334.798 240.86 334.889 240.951 334.963C241.042 335.037 241.147 335.092 241.26 335.125C241.373 335.158 241.491 335.168 241.608 335.154C241.725 335.141 241.838 335.104 241.94 335.046C242.042 334.988 242.132 334.911 242.204 334.818C242.275 334.725 242.328 334.618 242.358 334.505L242.358 334.456C243.573 330.427 245.282 326.564 247.446 322.954C249.588 319.324 252.243 316.022 255.329 313.151C258.379 310.241 262.095 308.106 266.015 306.63C269.296 305.272 272.837 304.894 276.368 304.728C276.502 304.755 276.64 304.782 276.76 304.815C276.445 304.831 276.127 304.815 275.811 304.848C274.194 304.994 272.596 305.303 271.041 305.769C267.919 306.718 265.008 308.257 262.467 310.304ZM268.92 308.562C269.563 308.279 270.231 308.056 270.916 307.896C272.102 307.62 273.303 307.407 274.512 307.258C276.71 306.996 278.92 306.845 281.133 306.804C285.741 311.013 290.745 315.042 296.356 318.015C302.159 321.131 308.813 323.022 315.484 322.599C321.192 322.327 326.58 320.33 331.481 317.626C327.905 321.344 323.401 324.039 318.433 325.432C312.567 327.063 306.272 326.758 300.398 325.174C294.502 323.528 288.989 320.739 284.17 316.966C279.679 313.206 274.357 310.616 268.92 308.562ZM268.496 319.159C270.084 317.67 272.321 316.893 274.612 316.713C277.009 316.554 279.417 316.726 281.767 317.224C282.224 317.58 282.707 317.895 283.148 318.273C288.096 322.267 293.842 325.156 300.001 326.745C306.12 328.323 312.698 328.571 318.838 326.796C323.712 325.438 328.08 322.656 331.554 319.058C329.004 323.354 325.376 326.992 320.912 329.234C315.332 332.152 308.846 333.008 302.578 332.608C296.309 332.209 290.014 330.614 284.452 327.696C279.266 324.685 273.957 321.737 268.499 319.161L268.496 319.159ZM306.742 340.765C303.361 340.7 299.946 340.377 296.685 339.407C293.423 338.591 290.212 337.233 286.918 336.048C283.623 334.864 280.348 333.72 277.002 332.712C273.976 331.853 271.052 330.962 267.801 330.568C268.753 329.176 270.016 328.025 271.489 327.204C273.19 326.263 275.04 325.619 276.958 325.302C279.25 326.479 281.539 327.674 283.8 328.946C289.609 331.959 296.032 333.527 302.512 333.951C308.968 334.296 315.669 333.342 321.459 330.239C326.414 327.685 330.361 323.463 332.951 318.585C331.994 324.386 329.632 329.997 325.31 333.929C320.409 338.64 313.483 340.73 306.742 340.765ZM310.077 342.173C316.057 341.499 321.934 339.233 326.283 334.961C328.892 332.503 330.893 329.473 332.128 326.109C333.326 323.294 333.786 320.281 334.09 317.284L334.107 317.355C334.558 319.289 334.014 321.645 333.4 323.718C332.741 325.856 331.896 327.933 330.875 329.924C329.782 332.224 328.488 334.423 327.009 336.497C323.084 337.852 319.393 339.806 316.066 342.289C314.362 343.585 312.786 345.041 311.36 346.637C310.519 347.626 309.765 348.686 309.107 349.805C308.759 345.824 309.738 343.004 310.077 342.173ZM309.262 351.047C310.108 349.721 311.066 348.471 312.124 347.308C313.559 345.826 315.11 344.46 316.761 343.224C318.434 341.996 320.174 340.864 321.975 339.833C323.361 339.034 324.788 338.293 326.235 337.597C325.359 338.811 324.46 340.017 323.538 341.216C323.296 341.539 323.046 341.865 322.799 342.189C321.739 342.751 320.697 343.346 319.686 343.996C318.216 344.948 316.807 345.992 315.468 347.12C314.152 348.278 312.831 349.449 311.722 350.832C311.013 351.7 310.381 352.628 309.833 353.606C309.586 352.769 309.394 351.917 309.256 351.055L309.262 351.047ZM310.143 354.601C311.752 352.082 313.902 349.93 316.218 347.998C317.528 346.911 318.893 345.862 320.295 344.876C320.613 344.648 320.945 344.439 321.266 344.213C319.254 346.876 317.305 349.62 315.946 352.788C315.046 354.962 314.465 357.35 314.622 359.752C314.709 361.008 314.972 362.246 315.402 363.428C312.711 360.312 311.053 357.32 310.137 354.609L310.143 354.601ZM327.556 353.09C319.586 357.117 317.305 361.301 316.802 364.132C316.26 362.717 315.97 361.218 315.946 359.703C315.948 357.521 316.435 355.367 317.373 353.397C319.241 349.403 322.127 345.871 324.919 342.276C327.242 339.406 329.309 336.338 331.097 333.108C331.206 334.26 331.288 335.421 331.315 336.575C331.378 338.372 331.331 340.17 331.176 341.961C330.895 345.442 330.219 348.88 329.162 352.21C328.616 352.498 328.116 352.813 327.55 353.098L327.556 353.09ZM336.061 347.623C334.172 349.151 332.159 350.52 330.043 351.715C330.609 350.354 331.069 348.952 331.418 347.52C331.868 345.726 332.17 343.899 332.321 342.056C332.635 338.672 332.416 335.261 331.671 331.945C331.891 331.505 332.133 331.076 332.334 330.628C333.015 329.123 333.608 327.581 334.112 326.008C334.576 327.625 334.959 329.264 335.259 330.918C335.627 332.875 335.894 334.849 336.061 336.833C336.352 340.424 336.352 344.032 336.061 347.623ZM344.507 333.606C344.259 338.303 341.593 342.863 336.895 346.949C337.107 345.586 337.246 344.213 337.311 342.836C337.416 340.802 337.386 338.765 337.222 336.736C337.06 334.706 336.758 332.689 336.319 330.701C335.89 328.715 335.269 326.776 334.465 324.911C334.544 324.639 334.653 324.367 334.724 324.096C335.131 322.232 335.498 320.346 335.226 318.354C336.554 319.548 337.979 320.63 339.486 321.588C342.984 325.327 344.735 329.383 344.509 333.606L344.507 333.606ZM353.403 322.753C349.272 323.805 344.909 322.876 340.527 320.137C339.307 318.876 337.988 317.715 336.583 316.664C338.6 316.542 340.388 315.808 342.136 315.034C342.408 314.909 342.631 314.762 342.886 314.621C344.877 315.04 346.903 315.265 348.937 315.292C350.974 315.326 353.011 315.223 355.034 314.982C357.056 314.743 359.059 314.37 361.031 313.866C362.368 313.53 363.686 313.123 364.98 312.649C361.901 318.069 357.959 321.58 353.403 322.753ZM365.478 311.711C362.015 312.702 358.478 313.413 354.901 313.839C352.922 314.069 350.932 314.198 348.94 314.224C347.257 314.254 345.561 314.208 343.89 314.072C345.334 313.267 346.732 312.379 348.076 311.415C348.478 311.13 348.848 310.806 349.239 310.505C352.642 310.58 356.036 310.122 359.297 309.146C361.068 308.632 362.796 307.975 364.461 307.182C365.795 306.558 367.078 305.831 368.299 305.008C367.545 307.316 366.602 309.558 365.478 311.711ZM369.166 302.277C368.995 302.891 368.791 303.446 368.623 304.035C365.568 305.726 362.332 307.066 358.976 308.029C357.25 308.533 355.497 308.934 353.724 309.23C352.585 309.431 351.43 309.581 350.277 309.7C353.093 307.312 355.693 304.682 358.049 301.84C361.023 298.392 363.915 294.868 367.465 292.248C369.211 290.941 371.227 290.037 373.366 289.605C374.855 289.33 376.381 289.32 377.873 289.575C375.185 290.632 371.539 293.691 369.166 302.277Z" fill="#E8E0DA"/>
<path d="M174.054 330.285C174.097 330.903 174.323 331.494 174.702 331.983C175.082 332.472 175.598 332.838 176.185 333.034C176.773 333.23 177.405 333.248 178.003 333.085C178.6 332.922 179.136 332.585 179.542 332.118C179.948 331.65 180.206 331.073 180.284 330.459C180.362 329.844 180.256 329.221 179.979 328.667C179.702 328.113 179.268 327.654 178.73 327.347C178.192 327.04 177.575 326.9 176.957 326.943C176.547 326.972 176.146 327.081 175.778 327.264C175.41 327.448 175.082 327.702 174.812 328.013C174.543 328.323 174.337 328.683 174.207 329.073C174.077 329.463 174.025 329.875 174.054 330.285Z" fill="#E8E0DA"/>
<path d="M139.478 263.586C140.096 263.542 140.687 263.317 141.176 262.938C141.666 262.559 142.032 262.043 142.228 261.456C142.424 260.869 142.442 260.237 142.279 259.64C142.116 259.042 141.78 258.507 141.312 258.101C140.845 257.695 140.268 257.436 139.653 257.358C139.039 257.28 138.415 257.386 137.861 257.662C137.307 257.938 136.847 258.373 136.54 258.91C136.232 259.447 136.091 260.064 136.134 260.681C136.163 261.091 136.272 261.492 136.456 261.86C136.639 262.228 136.894 262.556 137.204 262.826C137.515 263.096 137.875 263.302 138.265 263.432C138.655 263.562 139.067 263.615 139.478 263.586Z" fill="#E8E0DA"/>
<path d="M277.755 344.452C277.059 344.503 276.393 344.759 275.842 345.188C275.291 345.616 274.88 346.198 274.66 346.86C274.439 347.523 274.42 348.235 274.605 348.908C274.789 349.581 275.169 350.184 275.696 350.642C276.223 351.099 276.873 351.391 277.566 351.479C278.258 351.567 278.961 351.448 279.586 351.138C280.211 350.827 280.73 350.338 281.078 349.733C281.425 349.128 281.586 348.433 281.539 347.737C281.507 347.273 281.384 346.819 281.177 346.402C280.969 345.985 280.682 345.613 280.33 345.308C279.978 345.003 279.57 344.77 279.128 344.623C278.686 344.476 278.219 344.418 277.755 344.452Z" fill="#E8E0DA"/>
<path d="M31.8002 340.243C30.888 340.306 30.015 340.639 29.2918 341.198C28.5685 341.757 28.0275 342.518 27.7372 343.385C27.4468 344.252 27.4203 345.185 27.6608 346.067C27.9014 346.948 28.3983 347.739 29.0885 348.338C29.7788 348.938 30.6315 349.319 31.5386 349.434C32.4457 349.549 33.3665 349.392 34.1845 348.983C35.0024 348.575 35.6808 347.933 36.1336 347.139C36.5864 346.345 36.7934 345.434 36.7284 344.523C36.6413 343.303 36.0735 342.167 35.1496 341.364C34.2257 340.562 33.0211 340.159 31.8002 340.243Z" fill="#E8E0DA"/>
</svg>
