<svg width="157" height="162" viewBox="0 0 157 162" fill="none" xmlns="http://www.w3.org/2000/svg">
<path d="M14.3732 107.801C6.75112 114.515 2.00001 122.504 2.00001 129.753C2.00001 146.446 26.594 160 56.9554 160C73.3429 160 88.0282 156.044 98.0894 149.79M82.5646 78.0133C94.5313 83.9096 102.382 93.0986 102.382 100.399C102.32 103.119 101.324 105.734 99.5619 107.801C93.1339 115.892 76.4923 121.661 56.9543 121.661C37.4163 121.661 20.7747 115.892 14.3721 107.801C12.5863 105.745 11.5708 103.127 11.5011 100.399C11.5011 92.9199 19.7584 83.4757 32.2587 77.6049M14.5766 127.685C14.5766 127.685 23.5961 144.276 61.3509 143.255M23.5949 96.8507C23.5949 96.8507 33.9355 108.439 58.3517 106.678M76.4161 48.2002C86.0708 53.9433 92.4987 62.877 92.4987 67.9565C92.4987 71.8363 88.7131 75.3843 82.5646 77.9623C74.6828 80.9326 66.3108 82.3706 57.8944 82.1994C49.125 82.4006 40.4055 80.8205 32.2587 77.5539C26.6691 75.0014 23.2646 71.6576 23.2646 67.9565C23.2646 62.8515 29.8196 53.7391 39.6521 48.047M76.4161 48.2002C77.5932 47.3974 78.5702 46.3325 79.2708 45.0885C79.9715 43.8445 80.377 42.4548 80.4558 41.0277C80.4558 36.5863 76.2636 29.5925 69.9373 25.2277M76.4161 48.2002C71.0632 51.8798 64.6818 53.7486 58.1993 53.5349C51.6016 53.8505 45.0839 51.9759 39.6521 48.2002C38.5207 47.4048 37.5832 46.3624 36.91 45.1512C36.2368 43.9399 35.8453 42.5913 35.7649 41.2063C35.7649 36.765 39.9824 29.7711 46.2834 25.4064M33.9356 65.9145C33.9356 65.9145 41.3544 69.8709 56.9543 70.509M44.4805 38.9096C47.8754 40.6264 51.6303 41.5017 55.4309 41.4621M47.757 16.294C49.323 17.1975 51.0487 17.787 52.8384 18.0297M119.176 160L119.176 145.195C119.176 138.94 121.649 132.941 126.052 128.518C130.455 124.095 136.426 121.61 142.652 121.61L155 121.61C155 121.61 149.182 124.162 148.293 128.808C147.403 133.454 149.004 160 119.176 160ZM119.176 160C93.2863 160 94.3788 133.428 93.4896 128.782C92.6003 124.137 86.7821 121.584 86.7821 121.584L103.729 121.584C109.33 121.604 114.74 123.642 118.973 127.328M130.127 116.224C129.51 113.028 128.212 110.005 126.322 107.361C124.432 104.717 121.994 102.516 119.176 100.909C116.354 102.513 113.911 104.713 112.016 107.357C110.121 110.001 108.819 113.026 108.2 116.224M41.1527 18.0807C41.1527 23.6707 48.7748 28.2907 58.1246 28.2907C67.4744 28.2907 75.0965 23.7728 75.0965 18.0807C75.0965 12.3887 67.4998 1.99999 58.2008 1.99999C48.9019 1.99999 41.1527 12.4652 41.1527 18.0807Z" stroke="#D4CECA" stroke-width="4" stroke-linecap="round" stroke-linejoin="round"/>
</svg>
