<svg width="276" height="272" viewBox="0 0 276 272" fill="none" xmlns="http://www.w3.org/2000/svg">
<path d="M-46.6914 27.9638C-35.5786 35.9869 -27.04 32.8144 -24.167 31.29C-24.1854 31.5398 -24.2175 31.7874 -24.2313 32.0396C-24.5824 37.746 -23.4926 43.4491 -21.0618 48.6268C-19.8506 51.2424 -18.1061 53.4751 -16.5891 55.8041L-11.882 62.7407L-11.6108 63.1418L-11.1925 62.8989C-10.4138 62.4324 -9.71536 61.8442 -9.12391 61.1567C-10.1942 64.2796 -11.5314 67.3052 -13.1208 70.1999C-14.27 72.3639 -15.5962 74.4315 -16.9569 76.4717L-21.2273 82.5945C-23.9119 86.833 -26.208 91.365 -27.7203 96.2041C-29.2327 101.043 -29.9521 106.189 -29.389 111.255C-28.9017 116.326 -27.3962 121.232 -25.3139 125.798C-23.2706 130.394 -20.7171 134.69 -18.244 138.979C-15.7709 143.268 -13.3415 147.568 -11.7671 152.169C-10.9674 154.451 -10.4788 156.831 -10.3145 159.243C-10.2275 161.656 -10.5254 164.068 -11.1971 166.388V166.411C-11.2326 166.543 -11.2149 166.684 -11.1479 166.804C-11.0808 166.923 -10.9697 167.011 -10.8381 167.05C-10.7065 167.089 -10.565 167.075 -10.4435 167.012C-10.3221 166.948 -10.2304 166.839 -10.1881 166.709C-9.40639 164.282 -9.01843 161.746 -9.03886 159.197C-9.13801 156.656 -9.58022 154.139 -10.3536 151.715C-11.8912 146.878 -14.3827 142.495 -16.7891 138.165C-19.1955 133.835 -21.7077 129.569 -23.6498 125.076C-25.6357 120.608 -27.0216 115.907 -27.4376 111.093C-27.8973 106.279 -27.2698 101.417 -25.8563 96.7863C-24.4428 92.1558 -22.2363 87.75 -19.6667 83.5848L-15.5296 77.423C-14.1758 75.3118 -12.8634 73.1731 -11.7257 70.9358C-9.65714 66.7843 -7.90805 62.4541 -7.05304 57.8351C-6.10609 58.9813 -5.14077 60.0839 -4.22141 61.2048C-2.35969 63.5132 -0.419838 65.9431 0.910942 68.4348L1.35913 69.2761L1.90615 68.6045C2.71979 67.6096 3.50125 66.5643 3.99081 65.3631C4.51311 64.185 4.83545 62.9285 4.94464 61.645C5.14544 59.5256 4.91082 57.3876 4.25512 55.3617C5.37445 56.1365 6.49377 56.8907 7.54414 57.6861C9.80348 59.4214 12.118 61.4341 13.4809 63.7287L13.9636 64.5425L14.5129 63.8548C16.3514 61.5524 17.3623 58.7015 17.3836 55.7583C17.3805 53.3685 16.9024 51.0031 15.977 48.7988C16.9561 49.2091 17.9375 49.6171 18.9006 50.0641C20.1854 50.6533 21.4587 51.2676 22.6907 51.9438C23.8812 52.604 25.2074 53.3788 26.0624 54.1697L26.9818 55.0178L27.1473 53.8717C27.5519 50.768 27.2374 47.6131 26.2279 44.6497C25.4318 42.2718 24.3515 39.9982 23.0101 37.8781C29.8387 40.308 34.1275 44.6565 34.1712 44.7024C34.2737 44.8082 34.4055 44.8813 34.5497 44.9124C34.694 44.9434 34.8443 44.931 34.9814 44.8767C35.1186 44.8224 35.2365 44.7287 35.3202 44.6075C35.4039 44.4862 35.4495 44.3429 35.4514 44.1958C35.5089 39.1526 34.6079 31.0011 31.774 23.2118C33.1948 23.9486 34.6824 24.5496 36.2168 25.0067C38.065 25.5576 39.9773 25.8658 41.9053 25.9236C45.8307 26.0459 49.6937 24.9222 52.9377 22.7144L53.9168 22.0427L52.7952 21.5843C50.9565 20.837 49.1292 19.9934 47.3388 19.0902L48.8902 19.7779C50.4853 20.4473 52.0942 21.0761 53.7169 21.6645C56.9668 22.8489 60.2719 23.8758 63.6322 24.7454C70.3587 26.473 77.2612 27.4282 84.2052 27.5924C91.1757 27.7469 98.1285 26.8307 104.82 24.876C108.159 23.9247 111.485 22.8473 114.652 21.3298C116.264 20.5854 117.795 19.6783 119.221 18.6226C120.601 17.5246 122.062 16.2133 122.593 14.2076C122.725 13.6979 122.752 13.1671 122.673 12.6468C122.594 12.1264 122.41 11.6274 122.134 11.1794C121.598 10.3283 120.825 9.65181 119.909 9.2332C118.185 8.36441 116.153 8.3667 114.455 8.60511C110.92 8.97646 107.559 10.1501 104.355 11.4774C101.151 12.8046 98.0439 14.2672 94.8423 15.4867C91.6516 16.7252 88.3746 17.7296 85.0372 18.4919C78.3581 19.9957 71.4651 20.555 64.6021 20.4243C61.1672 20.3608 57.7396 20.0821 54.3397 19.5899C53.4548 19.4524 52.5745 19.3057 51.6943 19.1315L51.5862 19.1017H51.5701C51.5586 19.1017 51.5495 19.1017 51.5357 19.1017C50.7818 18.9595 50.0279 18.8083 49.2809 18.6295C48.5707 18.4736 47.872 18.2833 47.1756 18.0839L48.8029 18.2994C50.3351 18.4736 51.8674 18.6195 53.3997 18.7372C56.4772 18.9435 59.5617 19.0994 62.6508 19.0535C68.8426 19.0221 75.0181 18.4174 81.0978 17.2472C87.1931 16.04 93.113 14.0771 98.7197 11.404C101.561 10.1111 104.276 8.55704 106.828 6.76207C108.128 5.8326 109.315 4.75563 110.366 3.55282C111.377 2.32642 112.372 0.802025 112.276 -1.10748C112.205 -2.04732 111.809 -2.93329 111.154 -3.613C110.529 -4.24846 109.757 -4.72081 108.906 -4.98839C107.281 -5.4956 105.537 -5.47634 103.923 -4.93337C100.953 -3.97433 98.0867 -2.72185 95.3663 -1.19459C92.6634 0.345856 90.1006 2.01467 87.4483 3.54594C84.7959 5.07721 82.0999 6.52596 79.3533 7.87614C73.8578 10.5834 68.2474 13.0935 62.3864 14.8288C61.2901 15.152 60.18 15.411 59.0698 15.6723C65.0457 13.435 70.4217 9.9209 75.5012 6.31278C86.3772 -1.15791 97.5383 -8.4498 109.782 -13.1491C110.612 -13.4547 111.45 -13.7497 112.294 -14.0339C112.459 -14.0247 112.623 -14.0751 112.754 -14.176C117.971 -15.854 123.416 -16.826 128.843 -16.4179C132.058 -16.1764 135.212 -15.4098 138.179 -14.1485C141.095 -12.8694 143.801 -11.0103 145.57 -8.41771C147.377 -5.84936 148.087 -2.67098 147.545 0.419209C147.025 3.46571 145.175 6.31507 142.488 7.77758C139.868 9.19423 136.147 9.29739 133.952 7.25034C132.881 6.25547 132.288 4.72878 132.676 3.35339C133.065 1.97799 134.285 0.902889 135.733 0.359608C135.865 0.312187 135.972 0.214664 136.031 0.0884895C136.09 -0.0376854 136.097 -0.182175 136.049 -0.31319C136.002 -0.444206 135.904 -0.551018 135.777 -0.61013C135.651 -0.669239 135.506 -0.675804 135.375 -0.628384C133.743 -0.0553017 132.104 1.18026 131.575 3.03934C131.047 4.89841 131.775 6.89503 133.088 8.1581C133.88 9.6722 135.047 10.9592 136.478 11.8969C136.871 12.1188 137.281 12.3104 137.703 12.47C133.674 18.9481 128.116 24.4359 121.453 28.0991C114.788 31.9249 107.251 34.137 99.6183 35.2603C91.9646 36.4202 84.1524 36.4752 76.4044 35.8632C72.5295 35.5498 68.6737 35.0348 64.8526 34.3204C61.0511 33.6006 57.1874 32.78 53.6755 31.3152L53.641 31.3014C53.5371 31.2627 53.4233 31.259 53.317 31.2909C53.2108 31.3228 53.1179 31.3885 53.0526 31.4779C50.2146 31.9812 47.6396 33.4509 45.7667 35.6362C43.8176 37.8735 42.5972 40.6541 42.0019 43.5149C41.697 44.9977 41.5483 46.5081 41.5583 48.0217C41.3901 49.0198 41.1229 49.9989 40.7607 50.9444C40.4076 51.9568 39.8165 52.8701 39.0369 53.6081C36.6925 51.6091 34.2631 49.7317 31.7671 47.9277C31.6338 47.8333 31.4686 47.7954 31.3074 47.8222C31.1517 47.8503 31.0131 47.9379 30.9212 48.0663C30.8294 48.1948 30.7914 48.354 30.8155 48.5099V48.5374C31.1282 50.3909 31.2054 52.2763 31.0454 54.149C30.9113 55.8496 30.5591 57.526 29.9973 59.1371C28.5891 59.0663 27.195 58.8231 25.8464 58.4128C24.567 58.0161 23.3436 57.4584 22.2057 56.7531C22.1597 56.6729 22.1069 56.6041 22.0609 56.5239L21.9322 56.5995C21.8288 56.5331 21.7023 56.4849 21.6104 56.4162C21.5038 56.3459 21.3807 56.3046 21.2532 56.2964C21.1257 56.2882 20.9983 56.3134 20.8835 56.3695C20.7688 56.4255 20.6707 56.5105 20.5991 56.616C20.5274 56.7215 20.4846 56.8438 20.475 56.9709V56.9961C20.475 57.1543 20.4244 57.3216 20.4083 57.4821L20.344 57.5165C20.3601 57.544 20.3762 57.5646 20.3922 57.5921C20.2643 58.6841 20.0491 59.7642 19.7487 60.822C19.376 62.0872 18.8706 63.3096 18.2409 64.4691C17.632 65.629 16.8782 66.7073 15.9977 67.6784C15.3163 68.4454 14.5543 69.137 13.7246 69.7414C13.3215 68.6606 12.7808 67.6359 12.1157 66.6927C11.2482 65.4762 10.1456 64.445 8.87262 63.6599C8.83852 63.6387 8.80232 63.621 8.7646 63.6072C8.68689 63.5777 8.60411 63.5639 8.52101 63.5663C8.43792 63.5688 8.35613 63.5877 8.28033 63.6217C8.20454 63.6558 8.13623 63.7045 8.07932 63.7649C8.0224 63.8253 7.97801 63.8964 7.94867 63.974V63.99C7.12175 66.1525 6.06374 68.2198 4.79295 70.1564C3.67533 71.8734 2.31171 73.418 0.745453 74.741C0.485958 74.069 0.178722 73.4163 -0.173908 72.788C-0.658016 71.9297 -1.21391 71.1138 -1.83566 70.3489C-3.00775 68.9269 -4.37858 67.6801 -5.90614 66.6468C-5.91877 66.5771 -5.94571 66.5108 -5.98526 66.4521C-6.02481 66.3933 -6.07613 66.3433 -6.13598 66.3053C-6.25437 66.2316 -6.39716 66.2076 -6.53322 66.2385C-6.66928 66.2694 -6.78756 66.3528 -6.86227 66.4703C-11.397 73.6384 -15.0262 81.5974 -16.2007 90.1432C-17.4326 98.6248 -15.7916 107.728 -10.8086 114.9C-10.565 115.256 -10.2846 115.588 -10.0272 115.927C-11.1008 118.925 -11.4987 122.123 -11.1925 125.291C-10.9213 128.696 -9.86318 131.991 -8.10111 134.919C-6.32674 137.846 -3.6491 140.318 -0.422138 141.675C2.04635 142.754 4.7309 143.1 7.36946 143.018C6.58801 143.637 5.77667 144.265 4.97223 144.98C3.71959 145.996 2.90366 147.13 1.95901 148.238L0.577671 149.902C0.0996017 150.45 -0.217579 151.112 -0.622097 151.71L-2.3459 154.461L-2.78949 155.474C-5.37061 160.664 -6.43707 166.707 -5.3867 172.5C-4.45515 177.64 -2.02943 182.394 1.58897 186.171C-15.2193 206.864 -2.23098 228.792 7.26374 244.813C11.8146 252.495 15.7472 259.131 15.1105 263.409C14.4738 267.686 12.0927 269.185 10.732 269.683C8.86343 270.37 6.77648 270.024 5.41122 268.823C4.19307 267.753 3.75407 266.155 4.17468 264.328C4.20667 264.2 4.21281 264.067 4.19272 263.937C4.17263 263.807 4.12672 263.682 4.05767 263.57C3.98863 263.458 3.89785 263.36 3.79062 263.284C3.6834 263.207 3.56189 263.152 3.43321 263.123C3.30453 263.093 3.17125 263.09 3.04119 263.112C2.91113 263.135 2.78688 263.183 2.67572 263.254C2.56456 263.325 2.46872 263.417 2.39381 263.526C2.31889 263.634 2.2664 263.757 2.23942 263.885C1.65792 266.407 2.33595 268.757 4.09653 270.304C5.99961 271.977 8.87262 272.461 11.4147 271.537C14.4348 270.437 16.4987 267.578 17.0756 263.695C17.51 260.775 16.3172 257.277 14.2808 253.224C14.7338 253.511 15.2105 253.758 15.7058 253.964C18.2777 254.991 21.2909 254.964 23.8169 253.618C26.3566 252.229 27.846 249.13 27.1909 246.317C26.8898 244.96 26.244 243.548 24.9178 242.743C23.5916 241.939 22.0103 242.138 20.7623 242.576C20.6679 242.609 20.5892 242.676 20.5416 242.764C20.4941 242.851 20.4809 242.954 20.5049 243.05C20.5323 243.151 20.5987 243.238 20.6896 243.29C20.7804 243.342 20.8884 243.357 20.9898 243.33C22.1735 243.016 23.4399 243.041 24.3271 243.672C25.2143 244.302 25.7314 245.414 25.9199 246.553C26.3106 248.845 25.1408 251.275 23.1044 252.339C22.0416 252.869 20.8807 253.174 19.6942 253.235C18.5077 253.297 17.3213 253.114 16.2091 252.697C14.943 252.231 13.7989 251.486 12.8627 250.517C11.702 248.415 10.3942 246.186 8.97835 243.8C-0.714031 227.465 -12.7531 207.146 3.02088 187.567L3.06225 187.608C5.54374 189.831 8.42345 191.567 11.5503 192.725C12.8856 195.87 15.8138 197.75 18.3559 199.471C20.9875 201.222 23.61 203.077 24.9201 205.773C25.5668 207.118 25.9224 208.584 25.9636 210.075C26.0348 211.597 25.8533 213.083 25.2005 214.328C24.0812 216.583 21.3392 217.537 18.7443 217.551C18.9967 216.741 19.1556 215.905 19.2178 215.059C19.3243 213.75 19.0396 212.438 18.3995 211.29C17.6955 210.148 16.6222 209.279 15.3564 208.826C14.1945 208.355 12.9539 208.107 11.6997 208.095C10.4239 208.096 9.16422 208.379 8.01159 208.925C6.85896 209.47 5.84208 210.264 5.03428 211.249C3.44781 213.187 2.55274 215.597 2.48995 218.098C2.40662 220.569 3.0403 223.011 4.31488 225.131C5.54913 227.252 7.35108 228.973 9.35069 230.298C13.4097 233.017 18.6248 233.627 23.2446 232.501C27.9057 231.396 32.0911 228.719 35.1779 225.136C38.2647 221.553 40.2528 217.044 40.6803 212.299C40.7102 211.957 40.7079 211.611 40.7171 211.27C40.9653 211.843 41.2273 212.416 41.5169 212.966C42.4997 214.91 43.7287 216.721 45.1737 218.353C48.0651 221.613 52.1378 224.049 56.6519 224.46C58.9251 224.689 61.2193 224.335 63.3173 223.433C65.4065 222.497 67.2958 220.934 68.4381 218.876C69.0242 217.864 69.4448 216.766 69.6839 215.623C69.9535 214.381 69.8364 213.087 69.3483 211.914C68.8224 210.764 67.9717 209.792 66.9005 209.117C65.8898 208.477 64.773 208.021 63.6023 207.772C63.4159 207.732 63.2218 207.748 63.0447 207.818C62.8675 207.888 62.7152 208.009 62.6071 208.166L62.5726 208.216C61.4234 210.05 59.9294 211.707 57.9988 212.572C56.0681 213.436 53.8433 213.564 51.692 213.069C49.5406 212.574 47.4399 211.659 45.4863 210.502C44.5094 209.922 43.5579 209.287 42.6385 208.611C42.1788 208.269 41.7192 207.923 41.2848 207.558L40.6274 207.008L40.3079 206.729L40.1746 206.609C40.0528 206.151 39.9241 205.692 39.7609 205.234C39.3875 204.256 38.9211 203.315 38.3681 202.426C44.2359 204.03 50.3589 204.737 56.4887 203.978C59.8674 203.545 63.2392 202.602 66.2845 200.908C69.3397 199.202 71.9357 196.783 73.8509 193.859C74.8052 192.414 75.6041 190.873 76.2343 189.261C76.9465 187.602 77.296 185.811 77.2594 184.007C77.2195 182.137 76.6384 180.318 75.5862 178.769C74.5001 177.229 72.9661 176.06 71.1916 175.418C69.3952 174.767 67.4295 174.751 65.6226 175.372C63.8023 175.986 62.3198 177.336 61.3361 178.881C60.3524 180.426 59.7846 182.494 60.3593 184.383C60.8207 185.887 61.7277 187.217 62.9611 188.197C61.4309 190.211 59.5405 191.926 57.3851 193.254C54.9689 194.751 52.3319 195.861 49.5705 196.541C44.252 197.88 38.614 197.775 33.1461 196.876C31.6546 195.786 30.0494 194.86 28.3585 194.114C33.9046 194.343 39.4943 193.704 44.7783 191.757C47.7512 190.688 50.4974 189.074 52.8756 186.999C55.25 184.859 57.0922 182.198 58.2562 179.225C58.8432 177.756 59.2723 176.228 59.5364 174.668C59.9036 173.036 59.861 171.338 59.4123 169.726C58.4929 166.411 55.5326 163.864 52.17 163.307C50.4386 163.003 48.6551 163.314 47.1296 164.185C45.5736 165.068 44.5117 166.613 43.9808 168.204C43.4499 169.795 43.3832 171.759 44.3187 173.322C45.1015 174.628 46.2718 175.658 47.6674 176.27C47.5659 177.654 47.0892 178.983 46.2884 180.117C45.357 181.448 44.1884 182.597 42.8408 183.507C42.1972 184.025 41.4319 184.381 40.7309 184.828C39.9793 185.192 39.2323 185.575 38.46 185.905C37.6717 186.201 36.8971 186.535 36.095 186.804L35.6698 186.934C37.1388 184.638 37.9752 181.997 38.0946 179.276C38.2164 176.236 37.3614 173.054 35.3756 170.629C31.5579 165.79 24.511 163.692 18.7466 166.248C15.9333 167.583 13.5752 169.978 12.8282 173.178C12.505 174.789 12.7562 176.462 13.5384 177.907C13.8723 178.513 14.2665 179.083 14.7152 179.61C13.7123 179.357 12.7477 178.971 11.8468 178.464C10.2119 177.528 8.77047 176.29 7.59931 174.817C5.22039 171.799 3.61356 168.248 2.91745 164.472C2.17966 160.701 2.48305 156.756 3.52193 153.01C4.0284 151.131 4.70539 149.302 5.54453 147.545C5.95824 146.66 6.41792 145.801 6.90059 144.953C7.15571 144.538 7.39475 144.109 7.66596 143.703L8.06818 143.094L8.15552 142.965C8.24056 142.965 8.3233 142.965 8.40605 142.965C7.84555 145.295 7.88667 147.729 8.52557 150.039C9.32927 152.833 11.0572 155.273 13.4281 156.962C15.8011 158.629 18.6516 159.485 21.5529 159.401C23.9508 159.309 26.2958 158.671 28.4091 157.538C28.675 158.667 29.1591 159.735 29.8341 160.68C30.7962 161.992 32.1053 163.011 33.615 163.624C36.6029 164.829 39.8735 164.596 42.7511 163.61C45.6628 162.613 48.2016 160.757 50.0302 158.287C50.7674 157.28 51.3614 156.176 51.7954 155.007C51.918 155.766 52.1112 156.512 52.3723 157.235C53.333 159.933 55.2384 161.639 57.5115 161.801C59.695 161.801 61.6831 160.217 62.83 157.554C63.9333 155.053 64.3194 151.58 64.0321 147.522C64.1976 147.522 64.3608 147.509 64.5263 147.504C64.6963 151.607 65.5054 155.021 66.9465 157.361C68.4611 159.867 70.6239 161.164 72.7821 160.839C74.1612 160.625 75.4529 159.669 76.4182 158.147C77.7283 156.084 78.3397 153.29 78.2409 150.175C79.0199 151.85 80.0176 153.416 81.2081 154.83C83.1503 157.015 85.5751 157.943 87.5264 157.262C88.7791 156.85 89.7582 155.873 90.3604 154.441C91.6521 151.367 91.0499 146.626 88.7676 141.62C88.9124 141.571 89.0641 141.537 89.2089 141.489C90.7465 145.287 92.6703 148.194 94.8101 149.909C97.0901 151.782 99.5862 152.281 101.457 151.254C103.335 150.31 104.259 147.949 103.932 144.943C103.65 142.225 102.273 139.006 99.9585 135.598C100.076 135.506 100.202 135.419 100.317 135.327C102.53 138.848 104.969 141.411 107.412 142.743C109.94 144.13 112.469 144.164 114.243 142.821C115.886 141.445 116.351 138.958 115.489 136.15C114.94 134.394 113.57 131.547 111.729 128.879C114.119 130.958 116.647 132.73 118.486 133.266C121.347 134.121 123.919 133.603 125.207 131.928C126.56 130.186 126.496 127.639 125.034 125.117C123.632 122.621 120.911 120.104 117.169 117.812C117.266 117.702 117.357 117.582 117.452 117.477C121.092 119.998 124.51 121.459 127.335 121.658C130.302 121.887 132.704 120.824 133.598 118.887C134.605 116.945 133.98 114.465 131.932 112.257C130.164 110.304 127.296 108.589 123.593 107.214C123.641 107.09 123.683 106.967 123.731 106.843C127.473 108.232 130.799 108.759 133.412 108.365C136.34 107.95 138.445 106.382 138.9 104.298C139.457 102.201 138.305 99.9245 135.823 98.2099C133.483 96.5617 129.953 95.443 125.611 94.957C125.6 94.8012 125.611 94.6407 125.588 94.4825C129.985 95.2596 133.743 95.1519 136.453 94.1364C138.022 93.5564 139.241 92.6876 140.027 91.6744C160.303 95.1129 173.193 85.1482 179.081 78.8741C183.927 73.7083 187.481 67.4744 189.454 60.6799C194.051 61.5051 198.838 61.7481 203.525 60.8656C208.294 60.0449 212.829 57.9062 216.639 54.9055C220.472 51.8725 223.445 47.8962 225.268 43.3682C226.989 39.0128 227.566 34.121 226.417 29.557C230.734 27.5782 234.482 24.546 237.314 20.7407C239.307 18.0324 240.694 14.929 241.382 11.6401C241.423 11.443 241.437 11.2436 241.471 11.0464C244.917 11.358 248.391 11.1095 251.757 10.3106C255.531 9.43184 259.107 7.85665 262.3 5.66634C265.496 3.46141 268.278 0.712181 270.519 -2.45537C272.751 -5.60651 274.568 -9.03013 275.927 -12.6425C276.019 -12.8847 276.024 -13.1512 275.942 -13.397C275.861 -13.6428 275.696 -13.853 275.477 -13.9923C275.258 -14.1316 274.998 -14.1915 274.74 -14.1619C274.482 -14.1324 274.242 -14.0151 274.061 -13.8299L274.026 -13.7955C271.834 -11.4985 269.387 -9.45743 266.733 -7.71167C264.083 -5.92892 261.217 -4.48783 258.204 -3.42273C255.196 -2.34965 252.03 -1.7826 248.836 -1.74475C245.779 -1.68286 242.731 -2.25823 239.817 -3.21871C238.033 -7.77815 235.261 -11.8998 232.17 -15.5973C232.067 -15.7215 231.935 -15.8184 231.786 -15.8792C231.665 -15.9283 231.537 -15.9532 231.406 -15.9526C231.276 -15.952 231.148 -15.9258 231.028 -15.8756C230.908 -15.8253 230.799 -15.752 230.707 -15.6598C230.616 -15.5676 230.543 -15.4584 230.494 -15.3382V-15.3199C230.13 -14.4511 229.706 -13.6086 229.226 -12.7983C228.74 -11.9693 228.21 -11.1673 227.637 -10.396C227.219 -9.82749 226.752 -9.29567 226.288 -8.76156L225.539 -8.00738C220.976 -3.37677 215.833 0.648075 210.238 3.96773C207.441 5.61129 204.514 7.02423 201.486 8.19249C198.469 9.38457 195.35 10.3052 192.168 10.9433C185.816 12.2866 179.242 12.4814 172.781 11.7387C166.445 10.98 160.124 9.31343 154.382 6.58098C154.819 5.94921 155.204 5.283 155.532 4.58895C155.803 4.02504 156.047 3.44737 156.263 2.85595C158.782 4.32089 161.47 5.4755 164.268 6.29444C167.204 7.18472 170.223 7.77912 173.278 8.0687C179.385 8.73806 185.583 8.14893 191.532 6.71623C197.48 5.28352 203.297 3.17688 208.54 -0.160751C213.769 -3.37001 218.235 -8.49794 219.632 -14.7216C220.308 -17.8033 220.333 -20.9916 219.706 -24.0835C219.149 -27.1889 217.964 -30.1487 216.223 -32.7828C212.755 -38.0942 206.322 -41.5235 199.873 -40.9344C196.687 -40.6845 193.465 -39.426 191.173 -37.0374C188.882 -34.6488 187.742 -31.3295 187.808 -28.1478C187.861 -26.5798 187.994 -24.9202 188.668 -23.3935C189.299 -21.8736 190.263 -20.5133 191.488 -19.4117C193.603 -17.5389 196.133 -16.4477 198.811 -15.8219C197.607 -14.1847 196.058 -12.8303 194.274 -11.8539C192.115 -10.7183 189.669 -10.2401 187.241 -10.4785C184.8 -10.6917 182.455 -11.6568 180.083 -12.6264C177.711 -13.5961 175.406 -14.7376 173.029 -15.7921C168.332 -17.9309 163.172 -19.6891 157.819 -19.5424C152.691 -19.3452 147.811 -17.4793 143.529 -14.8821C143.787 -16.0882 143.822 -17.3311 143.633 -18.5498C143.277 -20.5784 142.281 -22.4407 140.79 -23.8657C137.802 -26.6715 133.692 -27.7626 129.776 -27.7879C125.783 -27.811 121.876 -26.6274 118.571 -24.3929C116.151 -22.7883 114.268 -20.496 112.931 -17.9584C112.84 -18.8258 112.622 -19.6753 112.285 -20.4799C111.533 -22.2748 110.253 -24.0147 108.403 -24.9316C107.968 -25.1952 107.461 -25.2938 106.989 -25.4772C106.759 -25.5551 106.511 -25.6445 106.27 -25.7064L105.525 -25.7844C105.029 -25.8233 104.53 -25.9036 104.036 -25.9036L102.572 -25.7477C100.627 -25.4932 98.807 -24.7895 97.0993 -23.9459C96.2006 -23.5906 95.4536 -22.9969 94.6285 -22.5247L93.4333 -21.7751L92.314 -20.9086C91.5739 -20.324 90.8108 -19.7624 90.0937 -19.1573L88.0252 -17.2432C85.3269 -14.6401 82.8198 -11.847 80.5232 -8.88535C78.9373 -6.86351 77.3721 -4.83251 75.7931 -2.81297C76.5712 -3.99673 77.2855 -5.22104 77.9329 -6.48069C79.2034 -8.91163 80.1315 -11.5058 80.691 -14.1898C81.2012 -16.881 81.369 -19.7624 80.3301 -22.5086C79.8015 -23.8405 78.8453 -25.2159 77.2893 -25.8119C75.7333 -26.4079 74.0279 -25.899 72.8281 -25.1242C70.3734 -23.476 68.8886 -21.0347 67.6199 -18.6438C67.3901 -18.1853 67.1717 -17.7131 66.958 -17.2432C67.0384 -19.8931 66.9212 -22.6691 65.51 -25.2067C64.8044 -26.4812 63.3242 -27.5816 61.7153 -27.577C60.2305 -27.6389 58.5366 -27.0016 57.631 -25.6881C56.7117 -24.4204 56.4106 -22.9831 56.1991 -21.6169C56.0248 -20.2594 55.948 -18.8912 55.9693 -17.5228C55.9992 -14.8179 56.1991 -12.1565 56.2566 -9.51344C56.3034 -6.88163 56.1574 -4.24992 55.8199 -1.6393C55.2637 3.03475 53.441 7.54834 50.2233 11.0212L50.1152 10.9822C46.3849 9.58163 42.7259 7.87844 39.4414 5.63884C40.9045 5.94885 42.4023 6.06447 43.8958 5.98269C45.1489 5.92325 46.3839 5.66079 47.5525 5.20559C48.7621 4.72904 49.835 3.96212 50.6761 2.97286L51.2093 2.3333L50.4462 1.93444C47.9869 0.650734 45.5092 -0.587124 43.0407 -1.83186C44.3944 -2.10218 45.7044 -2.55648 46.9342 -3.18203C48.6052 -4.04624 50.1336 -5.35058 51.0714 -7.06753C51.1088 -7.13873 51.1314 -7.21667 51.138 -7.29676C51.1515 -7.44742 51.1047 -7.59726 51.0078 -7.71363C50.9109 -7.83 50.7719 -7.90345 50.6209 -7.91798H50.5451C47.8467 -8.16555 44.9277 -9.06414 42.1765 -9.90543C39.3909 -10.7811 36.6351 -11.7691 33.9023 -12.8029C31.1695 -13.8368 28.4642 -15.0104 25.543 -15.783C22.6562 -16.6059 19.6315 -16.8649 16.6389 -16.8879C16.2413 -16.8879 15.8437 -16.8466 15.4438 -16.8237C16.3631 -19.7395 18.0823 -28.8859 7.77858 -38.3715C7.70436 -38.4397 7.61691 -38.492 7.52164 -38.5251C7.42636 -38.5582 7.32529 -38.5715 7.22467 -38.5641C7.09037 -38.5545 6.96106 -38.5094 6.85003 -38.4334C6.7073 -38.3393 6.6012 -38.1992 6.54935 -38.0366C6.4975 -37.8739 6.50303 -37.6985 6.56503 -37.5394C6.65007 -37.3285 8.51177 -32.329 -1.6311 -27.224C-11.0546 -22.4697 -16.4351 -16.1864 -16.7891 -9.53178C-16.9454 -6.55176 -16.0996 -3.68635 -14.3091 -0.985985C-16.4995 -1.86624 -18.6761 -2.26969 -20.8205 -2.12069C-21.6206 -2.06514 -22.4138 -1.93622 -23.1902 -1.73558C-29.6602 -0.0736427 -34.7718 6.43198 -37.5759 16.5824C-40.6098 27.5008 -45.8915 26.6709 -46.1053 26.6457C-46.2722 26.6115 -46.4458 26.6354 -46.5971 26.7133C-46.7485 26.7913 -46.8685 26.9187 -46.937 27.0743C-47.0056 27.2298 -47.0186 27.4041 -46.9739 27.5681C-46.9292 27.732 -46.8295 27.8758 -46.6914 27.9753V27.9638ZM49.1522 19.1865C50.1474 19.4409 51.1518 19.6449 52.1608 19.8513C56.6082 21.2267 61.1246 22.4553 65.7536 23.0238C68.1807 23.4571 70.6446 23.5465 73.0947 23.7734C75.554 23.8147 78.0179 23.9568 80.4772 23.8078C85.4015 23.658 90.3045 23.0952 95.1342 22.1252C99.9846 21.1947 104.737 19.8133 109.329 17.9991C109.451 17.9489 109.548 17.8525 109.599 17.7311C109.649 17.6096 109.649 17.4731 109.599 17.3515C109.549 17.2299 109.452 17.1332 109.33 17.0827C109.209 17.0322 109.072 17.032 108.95 17.0821H108.922C104.407 18.9037 99.7308 20.3004 94.9549 21.2542C90.1771 22.2534 85.3232 22.8477 80.445 23.0307C78.0087 23.2004 75.5678 23.0743 73.1269 23.0536C70.6975 22.845 68.2497 22.7786 65.8432 22.3659C62.7565 21.9799 59.7016 21.3724 56.7025 20.5481C59.3181 20.8943 61.9428 21.1464 64.5791 21.2496C71.5229 21.554 78.4775 20.9849 85.2786 19.5556C88.6773 18.8142 92.0173 17.8266 95.272 16.6007C98.5289 15.395 101.68 13.9554 104.856 12.6694C108.033 11.3834 111.267 10.3014 114.613 9.9805C116.312 9.76502 117.884 9.81545 119.284 10.5169C120.663 11.1725 121.566 12.4998 121.154 13.8637C120.807 15.2391 119.621 16.4838 118.337 17.481C116.999 18.4885 115.561 19.3565 114.045 20.0713C111.005 21.5613 107.748 22.6548 104.466 23.6221C97.9063 25.6015 91.0806 26.5625 84.2282 26.4715C77.3615 26.3659 70.529 25.483 63.862 23.8399C60.5186 23.0605 57.2135 22.1245 53.9467 21.0318C52.3148 20.4847 50.6975 19.8994 49.0948 19.2759L48.2765 18.9435C48.5638 19.0214 48.8442 19.1154 49.1476 19.1865H49.1522ZM41.949 209.511C42.8735 210.247 43.8347 210.936 44.8289 211.575C46.8308 212.901 49.032 213.9 51.3495 214.534C53.6893 215.16 56.3416 215.164 58.7044 214.172C60.8396 213.298 62.5014 211.671 63.8023 209.89C65.379 210.396 66.9212 211.382 67.5004 212.728C68.2037 214.238 67.6498 216.221 66.712 217.924C64.9262 221.363 60.7546 223.139 56.7875 222.816C52.7676 222.557 48.9568 220.455 46.162 217.457C44.7499 215.936 43.5394 214.241 42.5604 212.414C42.0599 211.5 41.6102 210.559 41.2135 209.596L40.786 208.53C41.1607 208.87 41.5491 209.197 41.949 209.511ZM49.9314 198.025C52.8735 197.372 55.6893 196.246 58.2677 194.689C60.8465 193.085 63.1656 191.157 64.9607 188.5C65.0833 188.32 65.1307 188.1 65.0929 187.886C65.0552 187.672 64.9351 187.481 64.7584 187.354L64.6734 187.292C63.5402 186.471 62.5037 185.204 62.1911 183.892C61.8279 182.57 62.2324 181.174 63.0208 179.936C63.8092 178.698 64.9446 177.712 66.2937 177.268C67.6594 176.811 69.1407 176.835 70.4906 177.336C71.8555 177.844 73.0314 178.757 73.8601 179.952C74.6723 181.171 75.1137 182.598 75.1311 184.062C75.141 185.581 74.8375 187.085 74.2393 188.482C73.6736 189.963 72.9533 191.38 72.0903 192.711C70.3781 195.374 68.0445 197.583 65.2893 199.15C62.4719 200.681 59.404 201.699 56.229 202.158C53.0319 202.651 49.7521 202.664 46.493 202.428C43.4025 202.202 40.3387 201.699 37.3384 200.927C36.9015 200.347 36.4295 199.794 35.9249 199.272C35.587 198.93 35.2009 198.65 34.8469 198.332C39.8184 199.095 44.9369 199.162 49.9268 198.025H49.9314ZM31.8636 197.612C31.9011 197.683 31.9536 197.745 32.0175 197.794C32.0814 197.842 32.1551 197.877 32.2336 197.894H32.2888C33.2159 198.612 34.0858 199.401 34.8906 200.253C36.3735 201.85 37.5326 203.718 38.3037 205.754C39.0254 207.801 39.2867 209.982 39.0691 212.141C38.6439 216.476 36.7132 220.68 33.8563 223.978C30.9994 227.277 27.0691 229.709 22.824 230.658C18.5788 231.607 14.0142 231.002 10.4309 228.634C6.81095 226.342 4.18847 222.392 4.36775 218.142C4.3997 216.051 5.12735 214.031 6.43631 212.397C7.06895 211.608 7.87014 210.97 8.78148 210.529C9.69283 210.088 10.6913 209.856 11.7043 209.848C12.7384 209.854 13.7621 210.054 14.7221 210.438C15.6318 210.738 16.4096 211.343 16.9239 212.15C17.8962 213.736 17.5974 216.102 16.8757 217.986L16.8481 218.055C16.8203 218.129 16.8033 218.206 16.7975 218.284C16.783 218.496 16.8529 218.704 16.992 218.864C17.1311 219.025 17.328 219.123 17.5399 219.139C19.2684 219.285 21.008 219.05 22.6355 218.452C24.2674 217.853 25.7981 216.643 26.6025 215.013C27.407 213.383 27.5886 211.611 27.5012 209.97C27.445 208.265 27.0109 206.594 26.2302 205.076C24.6213 201.979 21.7046 200.085 19.0523 198.387C16.7539 196.911 14.3658 195.407 13.0029 193.192C14.9848 193.815 17.0341 194.2 19.1074 194.339C21.0728 194.472 23.0472 194.348 24.9799 193.967C27.4485 194.819 29.7693 196.049 31.859 197.612H31.8636ZM36.4328 187.883C37.2672 187.636 38.0831 187.317 38.9105 187.037C39.7264 186.721 40.5194 186.35 41.3261 185.99C42.0869 185.531 42.9028 185.192 43.6245 184.66C45.1621 183.702 46.4997 182.457 47.564 180.993C48.1017 180.239 48.5325 179.415 48.8442 178.544C49.2008 177.631 49.3666 176.654 49.3315 175.674C49.3264 175.536 49.2814 175.401 49.202 175.287C49.1225 175.173 49.0119 175.084 48.8833 175.03L48.7868 174.989C47.61 174.501 46.424 173.584 45.8563 172.481C45.2311 171.385 45.3093 170.058 45.7253 168.791C46.1413 167.523 46.9549 166.42 48.072 165.799C49.223 165.166 50.5599 164.955 51.8505 165.203C54.4937 165.662 56.8358 167.688 57.5184 170.276C57.8677 171.605 57.8906 172.998 57.5851 174.338C57.3532 175.773 56.968 177.18 56.4359 178.533C55.4018 181.243 53.7493 183.676 51.6092 185.639C49.4112 187.583 46.8874 189.125 44.1532 190.196C39.2024 192.126 33.7621 192.991 28.3815 193.004C30.8199 192.015 32.9658 190.423 34.6171 188.378L36.4328 187.883ZM6.35127 144.639C5.83413 145.487 5.33997 146.351 4.89178 147.238C3.9768 149.012 3.2252 150.865 2.64624 152.774C1.46486 156.584 1.00747 160.685 1.66941 164.694C2.33733 168.711 3.97928 172.504 6.4524 175.743C8.98065 178.934 12.6581 181.52 17.1423 181.586C17.2674 181.588 17.3912 181.56 17.504 181.506C17.6167 181.452 17.7156 181.373 17.7927 181.275C17.8579 181.191 17.9059 181.096 17.934 180.994C17.9621 180.892 17.9697 180.785 17.9565 180.68C17.9433 180.575 17.9094 180.474 17.8569 180.382C17.8043 180.29 17.7341 180.209 17.6502 180.144L17.5606 180.076C15.5426 178.51 13.9889 175.95 14.5727 173.54C15.1565 171.131 17.163 168.972 19.5051 167.915C24.3593 165.753 30.6385 167.612 33.8471 171.812C35.5089 173.854 36.2237 176.55 36.1042 179.202C36.0052 181.886 35.1269 184.484 33.5759 186.68C32.0047 188.877 29.8155 190.56 27.2852 191.517C24.7062 192.461 21.9563 192.852 19.2155 192.663C13.614 192.353 8.27986 190.173 4.07125 186.474C-0.152344 182.771 -3.01782 177.77 -4.07201 172.261C-5.15226 166.787 -4.30185 160.983 -1.89082 155.896L-1.49089 154.924L-0.950768 154.007L0.136379 152.187C0.520214 151.596 0.814407 150.943 1.26949 150.399L2.60027 148.74C3.47826 147.644 4.37004 146.459 5.31239 145.613C5.80195 145.118 6.27542 144.563 6.76728 143.992C6.63397 144.215 6.49147 144.425 6.35127 144.639ZM122.338 29.6532C125.784 27.6418 128.941 25.1742 131.723 22.3178C131.833 22.2032 131.932 22.0886 132.04 21.9648C131.235 25.1465 131.212 28.5667 132.525 31.682C132.869 32.5016 133.287 33.2887 133.773 34.0339C131.152 34.4376 128.66 35.4394 126.491 36.9612C124.147 38.7249 122.299 41.063 121.127 43.7488C120.009 46.4503 119.5 49.3637 119.635 52.2831C119.66 55.0912 120.58 58.3486 122.533 60.7028C122.832 61.0556 123.152 61.3909 123.49 61.7068C110.042 60.3315 101.446 51.2538 100.554 37.0689C108.155 35.9251 115.65 33.5594 122.338 29.6532ZM126.264 81.9595C130.589 81.9022 134.198 81.132 136.673 79.6672C137.052 79.4401 137.415 79.1882 137.76 78.913C142.532 79.1033 147.365 78.7778 152.038 77.5606C156.921 76.3523 161.474 74.0778 165.369 70.9014C169.244 67.6715 172.254 63.5321 174.128 58.8552C175.884 54.5387 176.709 49.9289 176.886 45.3305C178.35 45.7342 179.851 45.9899 181.366 46.0938C181.635 48.6154 181.249 51.2126 180.729 53.7066L180.246 55.7858L179.58 57.8145C179.187 59.1899 178.543 60.4621 177.971 61.7687C175.562 66.9395 171.986 71.4839 167.522 75.0459C163.089 78.6105 157.757 80.9532 152.204 82.2369C150.799 82.5028 149.409 82.8536 147.993 83.0484L143.704 83.39C142.274 83.5848 140.838 83.5046 139.399 83.4633L135.662 83.3647C133.173 82.5166 130.019 82.1727 126.344 82.4295L126.209 82.4409C126.234 82.2874 126.255 82.12 126.264 81.9595ZM124.745 71.0687C130.031 69.7667 134.724 70.0028 137.312 71.7358C138.287 72.3868 138.868 73.2166 138.99 74.1198C139.169 75.7107 138.071 77.3795 136.025 78.5807C133.752 79.9217 130.383 80.63 126.305 80.6896C126.297 77.4206 125.771 74.1734 124.745 71.0687ZM172.869 58.3348C171.011 62.7707 168.114 66.6974 164.42 69.785C160.758 72.8842 156.332 74.9978 151.698 76.3204C147.483 77.4941 143.084 78.003 138.668 78.0878C139.831 76.8477 140.415 75.4058 140.254 73.9616C140.077 72.6756 139.305 71.5409 138.02 70.6813C136.016 69.3403 132.964 68.7787 129.385 69.0285C127.678 69.1602 125.987 69.4394 124.329 69.8629C124.287 69.7506 124.248 69.6337 124.207 69.5351C129.057 69.1662 133.711 67.4704 137.657 64.6341C138.276 64.3362 138.857 63.9669 139.39 63.5338C140.679 62.4857 141.669 61.1186 142.262 59.569C142.855 58.0194 143.03 56.3418 142.769 54.7038C142.47 52.9167 141.473 51.3204 139.997 50.2647C138.521 49.2091 136.685 48.78 134.892 49.0715H134.855C134.423 49.1442 134.038 49.385 133.784 49.7409C133.53 50.0969 133.429 50.5388 133.501 50.9696C133.574 51.4003 133.816 51.7846 134.173 52.0378C134.53 52.291 134.973 52.3924 135.405 52.3198C137.264 52.0057 139.16 53.427 139.374 55.2562C139.536 56.2994 139.422 57.3668 139.043 58.3526C138.665 59.3384 138.035 60.2086 137.216 60.877C136.392 61.5401 135.413 61.9828 134.37 62.163C133.228 62.3483 132.062 62.3382 130.923 62.1332C128.613 61.7197 126.526 60.501 125.034 58.6947C123.522 56.8609 122.736 54.7061 122.598 52.1249C122.406 49.6256 122.746 47.1141 123.595 44.7551C124.477 42.4142 125.949 40.3394 127.868 38.7309C129.845 37.1133 132.194 36.0106 134.704 35.5216C134.745 35.5086 134.785 35.4917 134.823 35.4712C136.76 37.7988 139.229 39.6289 142.022 40.8077C146.129 42.5705 150.788 43.1413 155.219 42.1212C157.46 41.6164 159.566 40.6394 161.397 39.2558C162.686 38.2579 163.797 37.0506 164.684 35.6844C166.569 39.3281 169.601 42.254 173.314 44.0124C174.208 44.4355 175.129 44.7962 176.073 45.0921C175.645 49.6584 174.675 54.1697 172.869 58.3348ZM93.6103 37.8369C95.2721 37.7154 96.9292 37.5274 98.5841 37.3188C99.6528 53.278 110.322 63.4697 126.213 63.8548C127.475 64.5971 128.852 65.1239 130.288 65.4135C130.84 65.51 131.397 65.572 131.957 65.5992C124.326 68.9002 115.096 68.2423 106.884 63.4605C99.1127 58.9331 91.6498 49.8532 93.6103 37.8369ZM113.292 89.8497C115.512 91.64 116.279 94.7416 116.05 97.6895C115.82 100.637 114.887 103.627 113.489 106.318C112.11 109.02 110.24 111.443 107.973 113.463C105.723 115.43 102.969 116.846 100.09 117.044H100.03C99.904 117.056 99.7819 117.094 99.6707 117.154C99.5595 117.214 99.4612 117.295 99.3816 117.393C99.3019 117.491 99.2424 117.604 99.2066 117.725C99.1707 117.846 99.1591 117.973 99.1724 118.098C99.3448 119.76 99.8183 121.112 99.3816 121.995C99.3305 122.109 99.2705 122.218 99.2023 122.323L98.892 122.749C98.6898 123.038 98.476 123.318 98.2462 123.59C97.8095 124.15 97.3268 124.677 96.8396 125.195C94.8656 127.278 92.6005 129.065 90.1144 130.502C87.652 131.938 84.9359 132.889 82.1137 133.303C81.4127 133.392 80.707 133.425 80.0014 133.466C79.3441 133.425 78.4845 133.466 77.9926 133.367C76.8158 133.069 75.4989 132.265 74.2623 131.533L74.2347 131.517C74.1752 131.484 74.112 131.458 74.0463 131.439C73.9417 131.41 73.8322 131.401 73.7243 131.414C73.6163 131.426 73.5119 131.46 73.417 131.513C73.3222 131.566 73.2388 131.637 73.1717 131.723C73.1045 131.808 73.0549 131.906 73.0258 132.01C72.7775 132.886 72.6511 133.684 72.4558 134.447C72.2604 135.21 72.0512 135.916 71.6352 136.198C70.6193 137.003 68.9553 137.42 67.4246 137.668C64.2353 138.124 60.9934 138.068 57.8218 137.503C54.65 136.966 51.5265 135.958 48.8304 134.245C46.6436 132.892 44.8671 130.972 43.6912 128.689C44.3822 127.74 45.0794 126.793 45.7827 125.848C47.7939 128.918 50.7013 131.474 54.1627 132.845C57.8196 134.376 61.8617 134.742 65.7352 133.892C67.6567 133.388 69.6425 132.691 71.0744 130.777C71.6111 129.856 71.9463 128.833 72.0581 127.774C72.1945 126.797 72.2551 125.812 72.2397 124.826C72.2397 124.597 72.2167 124.368 72.2098 124.138C72.4971 124.883 72.8051 125.626 73.166 126.355C73.7084 127.361 74.2715 128.381 75.1334 129.259C75.9585 130.126 77.048 130.944 78.3512 131.178C80.8794 131.676 83.1411 130.924 85.228 130.13C89.3198 128.343 93.0145 125.763 96.0972 122.538C96.4864 122.117 96.8502 121.673 97.1866 121.209C97.5629 120.675 97.8156 120.064 97.9267 119.421C98.1244 118.116 97.7314 116.918 97.2372 115.888C96.9075 115.244 96.5311 114.625 96.111 114.036C97.0115 114.451 97.9804 114.699 98.9702 114.767C101.765 114.896 104.378 113.646 106.355 111.932C108.387 110.229 109.899 108.065 111.131 105.793C112.347 103.496 113.186 101.019 113.613 98.4574C113.804 97.1187 113.96 95.9496 113.712 94.384C113.31 92.8022 112.103 91.7294 110.979 91.0234C109.666 90.2422 108.255 89.6379 106.782 89.2262C107.823 88.9642 108.838 88.6114 109.816 88.1718C110.91 87.5918 111.998 86.8926 112.827 85.8473C113.66 84.7895 114.142 83.4998 114.206 82.1567C114.206 80.7813 113.977 79.7429 113.777 78.5577C113.55 77.4043 113.252 76.2659 112.885 75.149C112.142 72.9163 111.094 70.7294 109.515 68.875C108.727 67.9369 107.797 67.1278 106.757 66.4772C106.191 66.1161 105.563 65.8612 104.905 65.7253L103.909 65.6496L102.967 65.7413C100.515 66.1471 98.4163 67.2107 96.3753 68.2973C94.6688 69.2614 93.0147 70.3151 91.4199 71.4538C91.0614 70.8991 90.6775 70.3535 90.2707 69.8148C93.4155 66.4009 95.8186 62.3753 97.3291 57.991C99.7318 60.8713 102.628 63.3031 105.884 65.1728C108.173 66.5045 110.611 67.5617 113.149 68.3225C114.146 69.8234 114.946 71.4459 115.528 73.1501C116.167 74.9357 116.579 76.7939 116.755 78.6815C116.946 80.5315 116.771 82.4008 116.238 84.1831C115.695 85.9137 114.667 87.4534 113.275 88.621C113.234 88.6563 113.196 88.6946 113.161 88.7357C113.032 88.9014 112.973 89.1111 112.998 89.3194C113.022 89.5278 113.128 89.7183 113.292 89.8497ZM81.87 81.4484C81.9573 82.3365 81.9781 83.23 81.9321 84.1212L74.6255 79.7841C75.5448 79.4747 76.4642 79.1285 77.3491 78.7595L81.87 81.4484ZM78.4569 78.2666C79.2751 77.8922 80.0757 77.4949 80.8587 77.0746C81.2383 78.091 81.5238 79.1399 81.7115 80.2082L78.4569 78.2666ZM81.8609 85.2307C81.7663 86.0364 81.6189 86.8351 81.4196 87.6216L70.201 80.9738C71.2736 80.7431 72.3202 80.4749 73.3407 80.1692L81.8609 85.2307ZM81.1369 88.6119C80.9075 89.3557 80.6319 90.0845 80.3117 90.7942L65.1422 81.7693C65.4387 81.7418 65.7444 81.728 66.0363 81.6936C66.9557 81.5859 67.875 81.4461 68.7645 81.2833L81.1369 88.6119ZM79.8543 91.6744C79.5001 92.3524 79.1064 93.0091 78.6752 93.6413L58.9273 81.8908C60.4316 81.9725 61.9391 81.9763 63.4437 81.9022L79.8543 91.6744ZM78.103 94.4504C77.9627 94.6338 77.8524 94.831 77.7053 95.0121C77.3537 95.443 76.9583 95.8167 76.5768 96.2086L55.6613 83.7613C55.1316 82.9332 54.5521 82.1379 53.926 81.3796C54.8661 81.5309 55.7969 81.6478 56.7209 81.7395L78.103 94.4504ZM75.8827 96.9491C75.2878 97.4912 74.6582 97.9943 73.998 98.4551L58.2677 89.1116C57.843 87.8913 57.3291 86.7038 56.7301 85.5585L75.8827 96.9491ZM59.6789 97.5703C59.6846 96.6517 59.6409 95.7334 59.5479 94.8195L69.5046 100.754C68.4903 101.111 67.4467 101.38 66.3857 101.557L59.6789 97.5703ZM64.7354 101.722C62.9303 101.852 61.1158 101.745 59.3388 101.403C59.4849 100.505 59.5831 99.5997 59.6329 98.6912L64.7354 101.722ZM59.4169 93.5816C59.2817 92.6329 59.0906 91.693 58.8446 90.7667C58.8239 90.6933 58.794 90.6245 58.771 90.5535L73.0511 99.0351C72.2835 99.5079 71.4814 99.9225 70.6515 100.275L59.4169 93.5816ZM58.3964 105.273C67.0637 106.978 75.3747 104.126 80.7783 97.4969C86.0876 90.9867 87.4 82.4409 84.3247 74.9473C85.9306 73.8335 87.4426 72.5907 88.8457 71.2315C96.573 81.7922 93.9252 93.1965 88.6963 100.486C82.4906 109.153 69.9965 115.654 55.859 111.139C56.8913 109.273 57.7433 107.313 58.4033 105.286L58.3964 105.273ZM82.5757 119.545V119.531C81.038 116.959 79.5211 114.332 78.2914 111.615C79.1602 111.203 79.9968 110.749 80.8197 110.267L85.3866 118.089C85.395 118.104 85.4042 118.118 85.4142 118.132C85.5254 118.295 85.697 118.408 85.8912 118.444C86.0854 118.481 86.2863 118.439 86.4496 118.328C86.613 118.217 86.7255 118.046 86.7623 117.853C86.7992 117.659 86.7574 117.459 86.6461 117.296L81.5506 109.816C83.7574 108.432 85.7859 106.784 87.5908 104.908C88.8848 107.054 90.3052 109.151 92.0658 111.017C92.1784 111.132 92.2956 111.246 92.4174 111.359V111.37C93.8769 112.849 95.2399 114.556 96.0604 116.399C96.4603 117.316 96.6925 118.298 96.5201 119.15C96.4274 119.568 96.2421 119.96 95.9777 120.296C95.6704 120.698 95.3396 121.08 94.9871 121.443C91.9919 124.427 88.441 126.799 84.5339 128.425C82.6377 129.156 80.5347 129.727 78.7672 129.342C77.0595 128.991 75.8068 127.295 74.9059 125.498C73.2142 121.988 72.4558 118.013 71.0377 114.061C73.2705 113.616 75.4467 112.924 77.526 111.998C78.5879 114.861 79.9072 117.573 81.2771 120.283C81.2846 120.299 81.293 120.315 81.3023 120.331C81.4035 120.5 81.568 120.622 81.7596 120.671C81.9512 120.719 82.1542 120.69 82.324 120.589C82.4937 120.488 82.6164 120.324 82.6648 120.133C82.7133 119.942 82.6837 119.739 82.5826 119.57L82.5757 119.545ZM92.953 110.146C91.2337 108.429 89.7766 106.414 88.4389 104.328L87.7195 104.768C88.6532 103.787 89.5201 102.745 90.3144 101.648C90.7603 101.022 91.1794 100.388 91.5716 99.748C93.7521 101.389 96.0403 102.882 98.4209 104.218L98.4714 104.243C98.6484 104.319 98.8479 104.324 99.0284 104.257C99.2089 104.19 99.3564 104.056 99.44 103.883C99.5237 103.71 99.537 103.511 99.4773 103.328C99.4176 103.146 99.2895 102.993 99.1196 102.902H99.1012C96.6525 101.765 94.2843 100.463 92.0129 99.0053C92.519 98.1319 92.9793 97.2328 93.392 96.3118L100.719 100.206L100.793 100.243C100.882 100.283 100.979 100.305 101.076 100.308C101.174 100.31 101.272 100.294 101.363 100.259C101.455 100.224 101.538 100.172 101.609 100.105C101.681 100.038 101.738 99.9574 101.778 99.8683C101.818 99.7792 101.84 99.6832 101.842 99.5856C101.845 99.488 101.829 99.3908 101.794 99.2996C101.759 99.2084 101.706 99.1249 101.639 99.054C101.572 98.983 101.491 98.926 101.402 98.8861L93.7482 95.4682C94.5551 93.4964 95.123 91.4355 95.4398 89.3294C95.5423 89.3908 95.6553 89.4327 95.7731 89.4532C97.3698 89.7122 98.9825 89.8608 100.6 89.8979C101.48 90.0125 102.36 90.1271 103.227 90.2807C105.615 90.7392 108.053 91.3535 110.007 92.5363C110.982 93.1163 111.756 93.9117 111.981 94.7874C112.14 95.6883 112.071 97.0545 111.892 98.1801C111.515 100.565 110.757 102.874 109.649 105.02C108.522 107.15 107.12 109.179 105.318 110.719C103.567 112.292 101.292 113.319 99.0414 113.27C96.7913 113.222 94.6814 111.819 92.9599 110.151L92.953 110.146ZM100.308 87.9104C98.8714 87.7225 97.4303 87.578 95.9662 87.5001C95.8479 87.4942 95.7295 87.5098 95.6168 87.5459C95.7739 85.4927 95.6782 83.428 95.3318 81.3979C98.1956 81.1206 100.972 80.5177 103.753 79.8346L103.808 79.8185C103.904 79.7909 103.994 79.7443 104.071 79.6815C104.149 79.6187 104.213 79.541 104.259 79.4531C104.306 79.3651 104.335 79.2687 104.344 79.1695C104.352 79.0703 104.341 78.9703 104.31 78.8756C104.279 78.7809 104.229 78.6934 104.164 78.6182C104.099 78.543 104.019 78.4817 103.929 78.4379C103.839 78.3941 103.742 78.3688 103.642 78.3634C103.542 78.358 103.443 78.3726 103.349 78.4064H103.333C100.671 79.2798 97.9405 80.0936 95.187 80.5681C94.984 79.586 94.7223 78.6169 94.4032 77.666L102.627 75.3645H102.657L102.705 75.3508C102.883 75.278 103.026 75.1394 103.105 74.9639C103.183 74.7884 103.19 74.5896 103.125 74.4089C103.06 74.2282 102.927 74.0796 102.755 73.9942C102.582 73.9087 102.383 73.8929 102.199 73.9502L94.1366 76.8477C93.5581 75.2963 92.8388 73.8009 91.9876 72.3799C93.5956 71.3116 95.2597 70.3298 96.9729 69.4389C98.9679 68.4509 101.076 67.5202 103.153 67.252L103.916 67.1924L104.627 67.2612C105.084 67.3715 105.518 67.5633 105.907 67.8274C106.792 68.4051 107.58 69.1184 108.242 69.9409C109.598 71.5914 110.54 73.6086 111.177 75.6992C111.497 76.754 111.758 77.8253 111.961 78.9085C112.14 79.9675 112.365 81.1825 112.338 82.0833C112.286 83.0233 111.945 83.9245 111.361 84.6645C110.763 85.4187 109.89 85.9826 108.977 86.4594C106.343 87.6606 103.339 88.0205 100.329 87.9219L100.308 87.9104ZM58.6768 113.94C57.7942 116.92 57.2265 119.92 56.6956 122.953V123.006C56.6809 123.105 56.6866 123.207 56.7123 123.304C56.738 123.402 56.7832 123.493 56.8452 123.572C56.9071 123.651 56.9846 123.717 57.0728 123.766C57.1611 123.815 57.2583 123.845 57.3587 123.856C57.459 123.866 57.5604 123.856 57.6568 123.826C57.7531 123.796 57.8423 123.747 57.9191 123.681C57.9959 123.616 58.0586 123.536 58.1035 123.446C58.1484 123.356 58.1746 123.258 58.1804 123.157V123.153C58.4883 120.131 58.8446 117.078 59.4996 114.125C60.4489 114.297 61.3866 114.428 62.3152 114.511L61.2855 123.641V123.673C61.2843 123.69 61.2843 123.707 61.2855 123.723C61.2814 123.821 61.2967 123.918 61.3303 124.01C61.364 124.102 61.4154 124.186 61.4817 124.258C61.548 124.33 61.6278 124.388 61.7165 124.429C61.8053 124.47 61.9014 124.493 61.9992 124.497C62.1967 124.505 62.3893 124.435 62.5348 124.301C62.6803 124.168 62.7666 123.982 62.7749 123.785L63.1633 114.575C65.1281 114.698 67.1001 114.63 69.0518 114.373C69.7758 117.812 70.332 121.369 70.3895 124.847C70.3895 126.614 70.293 128.579 69.5575 129.839C68.7599 131.008 67.0039 131.863 65.3307 132.281C61.7929 133.102 58.089 132.844 54.7006 131.538C51.3311 130.337 48.4719 127.941 46.4631 124.968C46.5964 124.787 46.732 124.608 46.863 124.425C49.2901 121.179 51.6276 117.85 53.8869 114.472C54.2248 113.967 54.5351 113.44 54.8546 112.92C56.1078 113.333 57.384 113.674 58.6768 113.94ZM42.9534 43.7029C43.4843 40.9751 44.6129 38.3274 46.4125 36.207C48.1369 34.14 50.5296 32.7369 53.179 32.239C53.9789 32.6058 54.7879 32.9267 55.6038 33.227C50.7772 35.5193 47.8559 40.5922 47.2537 45.6972C46.8117 48.4136 47.1653 51.1995 48.2719 53.7204C49.3633 56.2202 50.9775 58.4585 53.0066 60.2856C56.9484 63.9831 62.4301 66.2159 67.9463 65.6886C69.3431 65.5346 70.6991 65.1234 71.9455 64.476C73.1812 63.7695 74.2515 62.8083 75.0851 61.6564C75.9086 60.4749 76.4172 59.1039 76.563 57.6724C76.6453 56.9213 76.5573 56.1614 76.3056 55.4488C76.1079 54.69 75.4621 54.0046 74.6967 53.6035L73.5475 53.012L73.7773 54.3599C73.9704 55.5061 73.4648 56.721 72.373 57.1657C71.798 57.4004 71.1817 57.5181 70.5605 57.5118C69.9392 57.5055 69.3255 57.3753 68.7553 57.1291C66.4316 56.1296 64.9928 53.3467 65.2663 50.7977C65.4295 48.189 67.4246 46.0136 69.8839 44.9637C72.3431 43.9138 75.207 43.343 77.8271 43.8978C79.1381 44.1635 80.3793 44.6981 81.4721 45.4676C82.565 46.2371 83.4855 47.2247 84.1753 48.3678C85.5224 50.7404 86.0574 53.4862 85.6992 56.1892C85.3476 58.92 84.2253 61.4949 82.463 63.6141C80.6748 65.7374 78.4177 67.4188 75.8689 68.5265C70.7779 70.7868 64.8365 71.0779 59.4927 69.4572C54.0819 67.8125 49.4038 64.3602 46.2447 59.6804C44.7294 57.3299 43.633 54.7357 43.004 52.0126C42.4501 49.2719 42.4329 46.4501 42.9534 43.7029ZM25.4327 59.7492C27.0731 60.2437 28.7755 60.5038 30.4892 60.5217C30.6242 60.5207 30.7556 60.4784 30.8658 60.4005C30.976 60.3226 31.0595 60.2129 31.1051 60.0862C31.7831 58.2034 32.1924 56.2349 32.321 54.2384C32.4133 52.7273 32.3641 51.2108 32.1739 49.7088C34.3918 51.3134 36.5753 52.9593 38.7197 54.6465L38.7473 54.6694C38.8321 54.7352 38.9364 54.7709 39.0438 54.7709C39.1512 54.7709 39.2556 54.7352 39.3403 54.6694C40.5194 53.7639 41.1584 52.4871 41.6065 51.2309C41.6548 51.0934 41.6778 50.9535 41.7238 50.816C41.7812 51.2882 41.8318 51.7604 41.9168 52.2281C42.5456 55.1007 43.6827 57.8385 45.2748 60.3131C48.5704 65.2364 53.4641 68.8788 59.1342 70.6286C64.7561 72.3524 70.994 72.0865 76.4136 69.7116C79.1545 68.5334 81.5851 66.7392 83.5157 64.4691C85.4496 62.1581 86.6865 59.3475 87.0828 56.3634C87.4948 53.349 86.9054 50.283 85.405 47.6343C84.6168 46.3166 83.5628 45.1766 82.3098 44.2864C81.0568 43.3962 79.6321 42.7752 78.1259 42.4628C75.0943 41.8347 72.0306 42.4215 69.2725 43.6227C66.5282 44.7849 64.0229 47.4577 63.8482 50.6739C63.5632 53.7892 65.2273 57.0924 68.2152 58.3967C68.9636 58.7166 69.7694 58.8816 70.5837 58.8816C71.398 58.8816 72.2038 58.7166 72.9522 58.3967C73.7572 58.032 74.4081 57.3967 74.791 56.6018C74.8926 56.3461 74.9696 56.0813 75.0208 55.811C75.2413 56.3685 75.3249 56.9706 75.2644 57.5669C75.141 58.7674 74.7183 59.9179 74.0348 60.9137C73.3185 61.9055 72.4016 62.7364 71.3433 63.3527C70.2423 63.9264 69.0448 64.2932 67.8107 64.4347C62.7841 64.9482 57.5552 62.9057 53.8226 59.4145C50.0394 56.015 47.4675 50.9329 48.288 45.8302C48.5983 43.2811 49.3637 40.7664 50.7795 38.6254C52.1401 36.4821 54.1581 34.6574 56.4589 33.6763L56.5025 33.6556C56.5439 33.6396 56.5554 33.5983 56.5876 33.5708C59.1968 34.4345 61.8507 35.1576 64.5378 35.7371C68.3954 36.5624 72.2966 37.1701 76.2229 37.5572C81.3291 38.083 86.4688 38.2079 91.5946 37.9308C90.6563 44.3166 92.2041 50.8184 95.9202 56.1021H95.8903C92.029 68.9575 80.5071 78.0122 65.8157 79.736C52.7538 81.281 35.1572 76.5267 23.6928 59.1051C24.2607 59.352 24.8415 59.5686 25.4327 59.7538V59.7492ZM0.839691 76.082C2.82552 74.6379 4.4275 72.7788 5.77667 70.7913C6.95409 69.0151 7.95847 67.1306 8.77609 65.1637C9.64564 65.7918 10.4078 66.5558 11.0331 67.4262C11.7995 68.5059 12.3826 69.704 12.7592 70.9724L12.773 71.0137C12.7925 71.0851 12.8244 71.1526 12.8673 71.2131C12.9702 71.3566 13.126 71.4536 13.3004 71.4828C13.4749 71.512 13.6538 71.4711 13.7981 71.369C14.9846 70.5765 16.0718 69.6453 17.0366 68.5953C18.0015 67.5517 18.8308 66.391 19.5051 65.1407C20.1891 63.9029 20.7407 62.5967 21.1507 61.2438C21.3254 60.6638 21.461 60.0793 21.5805 59.4925C29.8617 72.4922 41.3767 78.9108 52.2918 81.0793C57.2817 87.0004 59.2859 95.3353 57.2725 102.76C56.3049 106.556 54.5351 110.121 52.2826 113.394C50.0279 116.734 47.6514 119.987 45.2748 123.251C44.321 124.569 43.3533 125.881 42.3926 127.203L41.9743 127.336C42.0042 127.437 42.0478 127.533 42.08 127.634C40.7607 129.468 39.4713 131.325 38.3014 133.308C37.2603 135.096 36.3409 137.028 35.8375 139.121C35.3342 141.214 35.3296 143.412 35.6606 145.491C36.0168 147.511 36.5546 149.741 38.0739 151.47C39.3633 152.99 41.3192 153.838 43.266 153.955C42.508 154.21 41.7215 154.372 40.9239 154.436C39.5304 154.54 38.1296 154.395 36.7868 154.01C35.4717 153.648 34.2545 152.997 33.2243 152.105C32.2208 151.21 31.4469 150.088 30.9672 148.834C30.8883 148.635 30.7417 148.471 30.5532 148.371C30.3648 148.27 30.1467 148.239 29.9375 148.283L29.8893 148.295C26.6715 148.983 22.824 148.753 20.5278 146.576C19.3671 145.512 18.6891 143.992 18.349 142.374C18.0088 140.755 17.9812 139.009 18.1191 137.28C18.1249 137.218 18.1249 137.155 18.1191 137.092C18.1051 136.966 18.0663 136.844 18.0049 136.732C17.9435 136.621 17.8606 136.523 17.7612 136.443C17.6617 136.364 17.5476 136.305 17.4252 136.27C17.3028 136.234 17.1747 136.223 17.0481 136.237H17.0228C14.6978 136.472 12.3495 136.295 10.0862 135.715C7.81039 135.153 5.67157 134.14 3.79774 132.735C0.658115 130.362 -1.46331 126.852 -2.72744 123.031C1.22714 125.879 5.79045 127.772 10.6033 128.563C19.2292 129.75 28.2781 127.76 35.4261 122.729C39.0259 120.232 42.0492 116.997 44.2934 113.241C46.509 109.484 47.8766 105.133 47.7732 100.683C47.3847 91.6973 40.9469 83.6834 32.5209 80.8432C28.3263 79.4288 23.6468 79.2775 19.3901 80.7309C15.1726 82.1384 11.3135 85.3155 9.769 89.6709C8.96197 91.8413 8.78511 94.1947 9.25876 96.4608C9.74602 98.7164 11.0584 100.926 13.1224 102.205C15.1657 103.521 17.7054 103.757 19.9073 103.395C21.022 103.221 22.1735 102.971 23.2836 102.304C24.3846 101.676 25.435 100.165 24.8925 98.5262C24.8431 98.3723 24.7486 98.2366 24.6213 98.1365L24.5685 98.0929C24.0122 97.6505 23.4882 96.47 23.3986 95.4911C23.2685 94.4917 23.5267 93.4804 24.1203 92.6647C25.3016 91.0853 27.8207 90.1752 29.8939 90.2096C32.0658 90.2784 34.1551 91.4635 35.6835 93.1415C37.2313 94.8598 38.2843 96.9635 38.7312 99.2299C39.7333 103.776 37.8624 108.606 34.2769 111.625C30.7397 114.747 26.0854 116.558 21.3415 116.84C16.5561 117.15 11.7853 116.045 7.62689 113.662C3.46154 111.284 0.140415 107.672 -1.87703 103.329C-3.91325 98.9661 -4.68702 94.123 -4.11108 89.3454C-3.5256 84.5984 -1.82632 80.056 0.848881 76.0866L0.839691 76.082ZM-14.8929 90.3128C-13.8724 82.1613 -10.5075 74.4407 -6.21412 67.4056C-4.85152 68.4023 -3.63403 69.5826 -2.59643 70.9128C-2.02863 71.6512 -1.52498 72.4365 -1.09097 73.2602C-0.686573 74.0138 -0.357838 74.8054 -0.109554 75.6236C-2.89115 79.675 -4.68416 84.3192 -5.34533 89.185C-6.01289 94.1986 -5.26136 99.2985 -3.17563 103.909C-1.09578 108.567 2.41199 112.448 6.84313 114.992C11.2612 117.548 16.338 118.744 21.4357 118.43C26.4922 118.149 31.5188 116.237 35.3733 112.865C37.3599 111.176 38.8892 109.016 39.8207 106.584C40.7378 104.123 40.9464 101.455 40.4229 98.8815C39.9226 96.3026 38.7312 93.9071 36.9753 91.9495C35.2377 90.0262 32.7554 88.5385 29.9605 88.4262C28.6015 88.3964 27.2513 88.6494 25.9958 89.1689C24.7615 89.6572 23.5227 90.4159 22.6447 91.5919C21.7731 92.781 21.387 94.2558 21.5644 95.7181C21.6412 96.4228 21.8257 97.1116 22.1115 97.7605C22.3579 98.3411 22.711 98.8706 23.1526 99.3216C23.2032 99.7801 22.9228 100.376 22.2815 100.747C21.5667 101.178 20.6037 101.419 19.6315 101.559C17.6709 101.866 15.7104 101.628 14.1521 100.624C12.5937 99.6196 11.5503 97.9233 11.1503 96.0619C10.7667 94.1599 10.926 92.1886 11.61 90.3724C12.9477 86.6749 16.2344 83.8736 20.0176 82.5945C23.8008 81.3154 28.062 81.3865 31.9027 82.6679C35.7748 83.9742 39.1734 86.3931 41.6709 89.6205C44.1187 92.8504 45.8862 96.7267 45.9482 100.754C46.0586 104.793 44.822 108.839 42.7558 112.37C40.65 115.919 37.8087 118.98 34.4217 121.346C27.6989 126.133 19.0086 128.061 10.847 126.962C2.67152 125.718 -4.83967 120.833 -9.53072 114.034C-14.27 107.216 -16.0076 98.5629 -14.8837 90.3174L-14.8929 90.3128ZM51.6023 151.502C51.2269 153.676 50.3172 155.724 48.9546 157.462C47.2178 159.622 44.887 161.229 42.2478 162.088C39.6529 162.929 36.7316 163.035 34.3183 161.985C33.1255 161.47 32.0961 160.64 31.3408 159.585C30.5855 158.53 30.1329 157.29 30.0318 155.997C30.0206 155.857 29.9765 155.722 29.9031 155.603C29.8409 155.499 29.7588 155.409 29.6616 155.337C29.5644 155.265 29.4538 155.213 29.3364 155.184C29.2189 155.155 29.0969 155.149 28.9772 155.167C28.8575 155.185 28.7425 155.226 28.6389 155.289L28.609 155.307C26.4439 156.609 24.0007 157.437 21.5208 157.476C19.0422 157.531 16.6118 156.788 14.5911 155.355C12.5685 153.933 11.089 151.869 10.3942 149.501C9.68856 147.144 9.80578 144.577 10.5482 142.188C10.5874 142.057 10.5991 141.92 10.5826 141.785C10.55 141.536 10.4198 141.311 10.2207 141.158C10.0215 141.006 9.76979 140.938 9.52077 140.971C6.38805 141.379 3.16338 141.2 0.290371 140.013C-2.59183 138.867 -5.02584 136.719 -6.70828 134.064C-8.38265 131.355 -9.43956 128.311 -9.80423 125.149C-10.1491 122.414 -9.94519 119.638 -9.20435 116.982C-7.71611 118.825 -6.03231 120.502 -4.18233 121.984C-3.72924 124.119 -3.00476 126.188 -2.02642 128.141C-0.869579 130.435 0.765949 132.455 2.77035 134.066C4.7855 135.684 7.12256 136.856 9.6265 137.505C11.7493 138.059 13.9436 138.29 16.1356 138.193C16.0315 139.723 16.1281 141.26 16.4229 142.766C16.7952 144.657 17.6801 146.589 19.2063 147.979C20.7324 149.368 22.6953 150.12 24.6121 150.367C26.2804 150.576 27.9715 150.514 29.6203 150.186C30.23 151.409 31.087 152.492 32.1371 153.368C33.3811 154.382 34.8372 155.105 36.3984 155.484C37.9266 155.849 39.5096 155.926 41.0664 155.713C42.6018 155.484 44.1647 155.073 45.4564 153.964C45.5092 153.918 45.5161 153.851 45.546 153.792C47.9828 153.302 50.1576 151.945 51.6644 149.973C51.623 150.491 51.6023 151.002 51.6023 151.502ZM52.3171 146.028L52.2045 146.005C52.1539 146.259 52.1378 146.489 52.0919 146.738C51.0346 150.104 47.5203 152.497 44.0727 152.522C43.1719 152.554 42.2753 152.383 41.4502 152.021C40.6251 151.659 39.8928 151.116 39.3081 150.431C38.1314 149.056 37.6855 147.169 37.3821 145.239C36.9339 142.555 37.3545 139.914 38.3451 137.42C41.6548 141.317 46.5665 144.283 52.3516 145.968C52.3424 145.987 52.3125 145.998 52.3079 146.028H52.3171ZM61.6716 157.045C60.7293 159.229 59.1756 160.554 57.569 160.527C55.8314 160.403 54.3788 159.046 53.5766 156.799C52.6343 154.248 52.5906 150.61 53.4456 146.294C55.7807 146.891 58.1656 147.275 60.5707 147.44C61.3154 147.493 62.044 147.509 62.7703 147.518C63.0461 151.412 62.6921 154.707 61.6624 157.045H61.6716ZM75.3518 157.455C74.5841 158.665 73.6073 159.417 72.5937 159.573C70.9618 159.821 69.2817 158.743 68.0405 156.689C66.7097 154.535 65.972 151.335 65.8019 147.451C69.8586 147.172 73.4234 146.197 76.0734 144.673C77.749 150.569 76.8135 155.135 75.3426 157.455H75.3518ZM89.1951 153.939C88.7354 155.023 88.0275 155.75 87.1265 156.048C85.6601 156.568 83.7639 155.768 82.1734 153.984C80.4152 152.004 78.2937 148.105 77.4318 143.793C77.7511 143.567 78.058 143.325 78.3512 143.066C81.4548 143.204 84.5602 142.835 87.5448 141.975C89.726 146.715 90.3581 151.149 89.1859 153.939H89.1951ZM102.675 145.065C102.94 147.49 102.257 149.42 100.873 150.108C99.4506 150.883 97.49 150.436 95.6214 148.902C93.6494 147.321 91.8589 144.597 90.4063 141.01C93.443 139.841 96.3111 138.276 98.9357 136.356C101.092 139.573 102.409 142.569 102.666 145.065H102.675ZM114.282 136.515C114.988 138.807 114.673 140.804 113.459 141.819C112.126 142.825 110.101 142.754 108.035 141.617C105.737 140.368 103.438 137.901 101.305 134.484C104.422 131.795 106.764 128.883 108.037 126.362C111.106 129.457 113.515 134.082 114.273 136.515H114.282ZM123.936 125.741C125.133 127.804 125.232 129.826 124.204 131.148C123.244 132.4 121.196 132.753 118.854 132.045C116.613 131.389 112.319 128.049 109.023 124.413C111.614 123.082 114.08 121.131 116.316 118.767C119.957 120.984 122.591 123.382 123.917 125.745L123.936 125.741ZM131.01 113.108C132.683 114.914 133.235 116.853 132.474 118.325C131.796 119.792 129.87 120.578 127.447 120.388C124.859 120.205 121.701 118.855 118.286 116.491C120.237 114.005 121.859 111.278 123.113 108.379C126.627 109.678 129.348 111.297 130.992 113.112L131.01 113.108ZM122.506 105.983L122.368 106.311H122.382C119.757 113.484 114.482 120.152 107.872 123.327C107.775 123.374 107.69 123.441 107.622 123.523C107.553 123.606 107.504 123.702 107.477 123.806C105.916 129.704 93.192 142.527 78.1144 141.549C78.0073 141.542 77.9001 141.559 77.8004 141.599C77.7007 141.639 77.6109 141.7 77.5376 141.778C74.4508 144.879 67.9854 146.484 60.6741 145.966C51.5104 145.319 43.4797 141.565 39.0231 135.916C39.3035 135.357 39.6023 134.802 39.9425 134.261C40.8619 132.716 41.8961 131.215 42.9649 129.725C44.1932 131.994 45.9709 133.922 48.1363 135.332C50.9818 137.232 54.2501 138.362 57.5598 138.999C60.8943 139.634 64.3103 139.72 67.6728 139.256C69.3598 138.961 71.0721 138.674 72.6971 137.457C73.6165 136.698 73.821 135.664 74.0601 134.876C74.1773 134.417 74.2738 133.988 74.3703 133.56C75.3755 134.202 76.4655 134.702 77.6088 135.045C78.0215 135.131 78.4423 135.171 78.8637 135.167L80.0244 135.208C80.7967 135.174 81.5735 135.142 82.3389 135.05C85.3913 134.627 88.3338 133.623 91.0062 132.093C93.6646 130.587 96.0907 128.706 98.2094 126.509C98.7312 125.954 99.2529 125.397 99.7333 124.796C99.9815 124.503 100.218 124.2 100.443 123.879L100.788 123.421C100.926 123.219 101.046 123.005 101.147 122.781C101.494 121.929 101.599 120.998 101.448 120.09C101.39 119.659 101.321 119.258 101.259 118.877C104.296 118.396 107.024 116.828 109.212 114.88C111.634 112.681 113.625 110.052 115.082 107.127C116.542 104.236 117.541 101.08 117.739 97.7835C117.858 96.1102 117.663 94.4296 117.164 92.8275C116.719 91.4636 115.958 90.223 114.944 89.2056C116.224 87.9243 117.171 86.3505 117.702 84.6209C118.33 82.6243 118.392 80.5314 118.162 78.5279C117.912 76.5388 117.414 74.5883 116.682 72.7215C116.154 71.3473 115.504 70.0232 114.74 68.7649C117.325 69.3997 119.984 69.6865 122.646 69.6177C124.009 73.0562 126.629 81.5538 122.936 89.1185C122.89 89.2119 122.864 89.3137 122.86 89.4175C122.857 89.5213 122.874 89.6248 122.913 89.7214C124.834 94.4802 124.48 100.374 122.497 105.988L122.506 105.983ZM125.678 96.2407C129.714 96.6992 132.968 97.7422 135.101 99.2529C137.128 100.656 138.089 102.421 137.671 104.005C137.326 105.584 135.63 106.776 133.235 107.113C130.835 107.485 127.7 106.932 124.158 105.616C125.193 102.601 125.704 99.432 125.668 96.2453L125.678 96.2407ZM136.007 92.9444C133.435 93.9049 129.787 93.9874 125.457 93.1736L125.418 93.3753C125.224 92.0401 124.892 90.7287 124.425 89.4623C125.263 87.6454 125.824 85.7138 126.089 83.7315C130.277 83.4129 133.793 83.7957 136.289 84.9075C138.496 85.8657 139.737 87.3671 139.723 89.0337C139.723 90.581 138.264 92.11 135.998 92.949L136.007 92.9444ZM177.631 77.5147C172.071 83.4381 159.963 92.7816 140.923 89.797C140.972 89.5532 140.996 89.3052 140.997 89.0566C141.022 87.2227 139.88 85.5104 137.908 84.3298C142.776 84.6209 147.706 84.6553 152.498 83.4473C158.221 82.2002 163.785 79.8437 168.451 76.1852C173.117 72.5266 176.725 67.6508 179.152 62.3097C181.35 57.2666 182.885 51.7283 182.198 46.1442C183.83 46.2031 185.464 46.0901 187.073 45.8073C187.489 45.7362 187.898 45.6354 188.309 45.5391C190.52 55.529 186.289 68.2973 177.622 77.5193L177.631 77.5147ZM223.599 42.6714C221.848 46.864 218.952 50.5363 215.421 53.3811C211.858 56.2503 207.664 58.237 203.182 59.1784C198.815 60.1114 194.267 60.1458 189.757 59.6369C190.102 58.2905 190.37 56.9259 190.562 55.5497C192.04 55.5932 193.522 55.6666 195.005 55.5749C196.864 55.4007 198.737 55.2975 200.562 54.8092C202.426 54.5112 204.175 53.7777 205.95 53.1335L208.478 51.8246C209.326 51.4028 210.052 50.7747 210.845 50.259C213.89 47.9733 216.339 44.9903 217.984 41.5619C218.418 40.7229 218.69 39.8083 219.046 38.9372C219.276 38.0202 219.607 37.1354 219.754 36.2001C220.074 34.7093 220.152 33.1768 219.984 31.6613C220.317 31.5948 220.655 31.5513 220.983 31.4711C222.498 31.105 223.979 30.6174 225.415 30.0131C226.051 34.3044 225.284 38.7194 223.581 42.6691L223.599 42.6714ZM190.817 49.4383C191.844 49.4268 192.885 49.4223 193.904 49.3306C195.25 49.1013 196.639 49.0142 197.947 48.5604C200.647 47.9437 203.129 46.5614 205.37 44.9522C207.594 43.279 209.466 41.1871 210.882 38.795C212.113 36.7155 213.005 34.4537 213.523 32.0946C215.387 32.227 217.261 32.1347 219.103 31.8195C219.144 33.212 218.976 34.6027 218.605 35.9457C218.435 36.8214 218.094 37.6603 217.837 38.5108C217.462 39.3246 217.18 40.1773 216.736 40.9544C215.122 44.1442 212.796 46.9225 209.937 49.0761C209.195 49.5667 208.524 50.1696 207.726 50.5753L205.366 51.8613C203.681 52.4756 202.035 53.2115 200.256 53.5622C197.149 54.4104 193.906 54.6167 190.658 54.7084C190.859 52.9592 190.912 51.1963 190.817 49.4383ZM209.733 38.0844C208.343 40.2844 206.567 42.2164 204.49 43.7877C202.428 45.376 200.091 46.5734 197.595 47.3202C196.377 47.8154 195.051 47.9231 193.773 48.2371C192.789 48.4022 191.787 48.4824 190.785 48.5741C190.684 47.372 190.498 46.1786 190.228 45.0027C193.66 43.8565 196.827 41.8576 199.192 39.0724C201.835 36.0259 203.288 32.1519 203.775 28.2297C205.833 29.9895 208.305 31.1981 210.96 31.7416C211.519 31.8562 212.082 31.9135 212.645 31.9708C211.942 34.1251 210.963 36.1799 209.733 38.0844ZM248.845 -0.426662C252.197 -0.358749 255.536 -0.846783 258.728 -1.87082C261.918 -2.8807 264.966 -4.29029 267.8 -6.06578C269.241 -6.96095 270.634 -7.93039 271.974 -8.97016C271.099 -7.09031 270.079 -5.28084 268.924 -3.55798C266.889 -0.500507 264.33 2.17575 261.364 4.34826C258.379 6.51898 255.014 8.11432 251.442 9.05211C248.245 9.90414 244.931 10.2393 241.628 10.0447C241.998 7.26394 241.89 4.44053 241.308 1.69603C241.037 0.440807 240.686 -0.795773 240.256 -2.00607C243.014 -1.03513 245.909 -0.505173 248.833 -0.435829L248.845 -0.426662ZM224.856 -4.85543L224.886 -4.82334C225.291 -5.1649 225.654 -5.54542 226.035 -5.90761C227.915 -2.87945 229.023 0.820366 228.525 4.31387L224.443 -4.46574C224.58 -4.59411 224.718 -4.72706 224.856 -4.85543ZM223.677 -3.75283L228.203 5.96434C227.798 7.35892 227.161 8.67608 226.32 9.8613L221.285 -1.7287C222.091 -2.3866 222.898 -3.05367 223.677 -3.75283ZM220.489 -1.05934L225.631 10.7759C224.845 11.7465 223.964 12.6365 223.001 13.4327L217.945 0.891426C218.814 0.256451 219.66 -0.389984 220.489 -1.05934ZM217.129 1.49202L222.186 14.0677C222.091 14.1365 222.004 14.2144 221.91 14.2832C221.042 14.9338 220.13 15.5243 219.181 16.0506L214.461 3.33963C215.368 2.74592 216.253 2.11782 217.129 1.49202ZM211.112 5.44857C211.964 4.95343 212.785 4.40786 213.617 3.87833L218.308 16.5113C217.243 17.0448 216.134 17.4858 214.994 17.8294L210.857 5.59299L211.112 5.44857ZM209.963 6.07896L214.033 18.0839C212.918 18.3604 211.779 18.5301 210.631 18.5905H210.454L207.06 7.58731C208.03 7.11051 208.995 6.6039 209.963 6.07896ZM206.152 8.01827L209.42 18.6042C208.136 18.588 206.856 18.4452 205.6 18.1779L203.136 9.31802C204.148 8.91457 205.149 8.48132 206.14 8.01827H206.152ZM202.093 9.73522L202.21 9.68708L204.508 17.9395C203.123 17.5687 201.78 17.0515 200.505 16.3967L199.126 10.7576C200.093 10.4206 201.102 10.1157 202.081 9.73522H202.093ZM198.149 11.0579L199.298 15.709C199.197 15.6471 199.089 15.5944 198.99 15.5302L197.404 14.5239L197.531 16.344C197.656 18.104 197.501 19.8728 197.071 21.5843L195.002 11.8992C196.05 11.6516 197.105 11.3857 198.149 11.0579ZM192.495 12.5135C193.012 12.4127 193.517 12.2568 194.032 12.1422L196.469 23.4915C195.957 24.7768 195.244 25.9725 194.354 27.0331C194.108 27.3288 193.844 27.6039 193.575 27.8767L190.796 12.7863C191.345 12.6877 191.925 12.6281 192.495 12.5135ZM189.815 12.9422L192.713 28.679C191.668 29.5711 190.509 30.3204 189.265 30.9072L186.59 13.3731C187.668 13.2654 188.737 13.121 189.808 12.9422H189.815ZM185.599 13.4442L188.33 31.3244C187.145 31.8006 185.912 32.1472 184.653 32.3582L182.338 13.662C183.432 13.6345 184.515 13.5336 185.599 13.4442ZM181.347 13.6528L183.678 32.4911C182.433 32.6336 181.176 32.6513 179.927 32.5439L178.157 13.6161C179.217 13.662 180.281 13.662 181.345 13.6528H181.347ZM177.153 13.5795L178.916 32.4384C177.628 32.2521 176.364 31.9262 175.146 31.4665L173.997 13.2792C175.05 13.3869 176.098 13.5061 177.153 13.5795ZM172.607 13.1462C172.738 13.1645 172.869 13.1668 173 13.1829L174.126 31.0447C173.811 30.9026 173.498 30.7627 173.193 30.6C172.224 30.0891 171.313 29.4741 170.478 28.7661L169.938 12.6625C170.828 12.8253 171.71 13.011 172.607 13.1347V13.1462ZM168.929 12.5044L169.444 27.8171C167.952 26.3028 166.779 24.5053 165.996 22.531L165.976 11.851C166.957 12.0757 167.943 12.3003 168.938 12.4929L168.929 12.5044ZM172.397 32.0625C176.173 34.047 180.488 34.7664 184.705 34.1141C188.872 33.4906 192.941 31.494 195.71 28.1862C198.156 25.3391 199.316 21.6026 199.388 17.9303C202.857 19.7863 206.763 20.677 210.696 20.5092C215.203 20.3189 219.531 18.5171 223.07 15.8787C226.624 13.3204 229.736 9.47848 230.379 4.87549C230.699 2.61805 230.522 0.318203 229.86 -1.86395C229.295 -3.75677 228.452 -5.55584 227.359 -7.20278C227.971 -7.86297 228.568 -8.53691 229.115 -9.25212C229.743 -10.0666 230.326 -10.9145 230.862 -11.792C231.124 -12.2253 231.372 -12.6516 231.609 -13.0941C235.206 -8.56671 238.18 -3.46629 239.339 2.11095C240.692 8.14893 239.389 14.6454 235.686 19.5991C232.043 24.5712 226.493 28.1403 220.466 29.573C217.462 30.2905 214.316 30.4441 211.337 29.8275C208.358 29.2108 205.619 27.7185 203.69 25.4354C203.6 25.3295 203.488 25.2435 203.363 25.1827C203.238 25.122 203.101 25.0878 202.962 25.0824C202.699 25.0749 202.444 25.1715 202.252 25.3511C202.06 25.5306 201.948 25.7785 201.939 26.0405C201.78 30.3295 200.436 34.5932 197.648 37.8139C194.89 41.0507 190.906 43.1459 186.693 43.8863C182.452 44.6477 178.078 44.0699 174.181 42.2335C170.294 40.4088 167.264 37.1587 165.721 33.1605L165.688 33.0894C165.591 32.8702 165.414 32.6953 165.194 32.5989C164.956 32.493 164.686 32.4856 164.442 32.5785C164.199 32.6713 164.002 32.8567 163.896 33.094C162.245 36.787 158.779 39.4507 154.794 40.3745C150.82 41.3464 146.485 40.8902 142.674 39.3062C138.864 37.7222 135.494 34.8798 133.906 31.1066C132.27 27.3701 132.775 23.0284 134.366 19.2415C135.976 17.2211 137.42 15.0746 138.684 12.823C139.242 12.9857 139.813 13.103 140.39 13.1737C139.267 14.778 138.483 16.5927 138.084 18.5079C137.685 20.4232 137.68 22.3993 138.068 24.3167C138.488 26.3651 139.427 28.2719 140.797 29.855C142.194 31.4297 143.987 32.6047 145.991 33.2591C147.972 33.9093 150.064 34.1549 152.142 33.9812C154.232 33.7755 156.248 33.0956 158.035 31.9937C161.069 30.0957 163.355 27.3655 164.999 24.264C166.575 27.5795 169.17 30.3073 172.407 32.051L172.397 32.0625ZM141.502 13.2654C141.757 13.2654 142.008 13.2654 142.261 13.2654L140.043 26.3317C139.71 25.6109 139.452 24.8582 139.273 24.0852C138.867 22.2328 138.862 20.3155 139.259 18.4612C139.655 16.6069 140.443 14.8582 141.571 13.3319L141.502 13.2654ZM147.446 32.2C147.108 32.1198 146.77 32.0418 146.439 31.9364C145.722 31.6965 145.03 31.3895 144.371 31.0195L147.044 12.2774C148.036 11.9056 148.988 11.4332 149.885 10.8676L147.446 32.2ZM150.967 10.141C152.002 9.36736 152.935 8.46532 153.741 7.45665L153.835 7.49791L151.723 32.5141C150.62 32.608 149.509 32.5664 148.416 32.3903L150.967 10.141ZM143.451 30.4418C142.839 30.0253 142.278 29.5383 141.78 28.9908C141.427 28.5923 141.106 28.1669 140.82 27.7185L143.293 13.1485C143.458 13.1302 143.628 13.1324 143.794 13.1049C144.538 13.0023 145.272 12.8421 145.991 12.6258L143.451 30.4418ZM162.068 10.7805C163.027 11.0808 163.994 11.3353 164.967 11.5874L164.985 20.4679L164.296 22.0542C163.601 23.6497 162.717 25.1565 161.664 26.5426L162.068 10.7805ZM161.082 10.4413L160.65 27.7919C159.651 28.916 158.499 29.8951 157.228 30.7008L157.187 30.7238L158.361 9.51287C159.26 9.85213 160.179 10.141 161.094 10.4413H161.082ZM154.785 7.9197C155.642 8.32544 156.504 8.71972 157.377 9.07962L156.15 31.2739C155.071 31.8067 153.92 32.1782 152.732 32.3765L154.785 7.9197ZM168.837 -12.8671C169.302 -12.5935 169.74 -12.2781 170.147 -11.925L157.122 -11.008C157.461 -11.4131 157.838 -11.7846 158.248 -12.1175L168.837 -12.8671ZM159.349 -12.8992C161.098 -13.9389 163.143 -14.3702 165.164 -14.1256C166.021 -14.0313 166.858 -13.8104 167.649 -13.47L159.349 -12.8992ZM170.789 -11.2762C171.071 -10.9687 171.331 -10.6417 171.568 -10.2974L156.044 -9.21085L156.017 -9.27045C156.167 -9.61925 156.343 -9.95639 156.543 -10.2791L170.789 -11.2762ZM172 -9.63264C172.177 -9.31031 172.331 -8.97551 172.459 -8.63089L156.699 -7.50995C156.596 -7.84921 156.49 -8.19765 156.359 -8.52087L172 -9.63264ZM159.857 0.870796C159.346 0.606716 158.86 0.295109 158.407 -0.0598869L170.986 -0.94014C170.625 -0.529865 170.224 -0.155956 169.789 0.17622L159.857 0.870796ZM168.538 0.957905C168.152 1.161 167.75 1.3342 167.336 1.47597C165.367 2.14769 163.231 2.14769 161.262 1.47597L168.538 0.957905ZM157.674 -0.704033C157.52 -0.855324 157.37 -1.0112 157.228 -1.17396C157.249 -1.35276 157.258 -1.53156 157.274 -1.71036L172.214 -2.75337C172.072 -2.44174 171.909 -2.14067 171.724 -1.85249C171.683 -1.7906 171.625 -1.73787 171.584 -1.67598L157.674 -0.704033ZM157.329 -2.40952C157.347 -2.75337 157.329 -3.09722 157.329 -3.44107L172.797 -4.52305C172.722 -4.1648 172.62 -3.81241 172.494 -3.46857L157.329 -2.40952ZM157.311 -4.13335C157.292 -4.46803 157.255 -4.80042 157.212 -5.1351L172.915 -6.23312C172.928 -5.89581 172.917 -5.55798 172.882 -5.22221L157.311 -4.13335ZM157.106 -5.8205C157.046 -6.16206 156.977 -6.5082 156.895 -6.8383L172.659 -7.94091C172.743 -7.67183 172.81 -7.39773 172.859 -7.12025C172.859 -7.05378 172.859 -6.9873 172.873 -6.92311L157.106 -5.8205ZM157.844 -18.2266C162.9 -18.2885 167.762 -16.5371 172.4 -14.3846C174.739 -13.3325 177.061 -12.184 179.465 -11.1754C181.869 -10.1668 184.342 -9.12833 187.082 -8.867C189.829 -8.58403 192.6 -9.11001 195.051 -10.3799C197.486 -11.6775 199.531 -13.5986 200.976 -15.9457L201.612 -16.975L200.339 -17.2042C197.581 -17.6902 194.722 -18.8226 192.665 -20.7023C191.643 -21.6312 190.84 -22.7751 190.316 -24.0514C189.762 -25.3053 189.656 -26.7265 189.61 -28.1501C189.576 -30.9811 190.548 -33.7708 192.499 -35.7422C194.451 -37.7136 197.211 -38.8254 200.027 -39.0317C205.747 -39.5337 211.431 -36.4253 214.596 -31.6802C216.209 -29.2701 217.313 -26.5573 217.839 -23.7075C218.437 -20.8739 218.437 -17.9472 217.839 -15.1136C216.603 -9.46301 212.587 -4.69268 207.602 -1.58887C202.64 1.62039 196.938 3.69952 191.164 5.16432C185.373 6.64609 179.378 7.16577 173.418 6.70247C167.573 6.22796 161.657 4.7242 156.594 1.84504C156.79 1.1904 156.95 0.52536 157.072 -0.146996C159.662 2.70465 163.967 3.91959 167.729 2.67257C169.819 2.04219 171.626 0.712883 172.848 -1.09143C174.087 -2.91776 174.593 -5.14128 174.266 -7.32198C173.657 -11.753 169.575 -15.0517 165.302 -15.4116C163.154 -15.6064 160.998 -15.1331 159.131 -14.0568C157.587 -13.1357 156.35 -11.78 155.575 -10.1599C154.946 -11.2687 154.083 -12.2284 153.047 -12.9728C152.01 -13.7171 150.824 -14.2285 149.57 -14.4717C147.854 -14.727 146.103 -14.6177 144.433 -14.1508C148.572 -16.5257 153.151 -18.1211 157.848 -18.2266H157.844ZM149.358 -13.3027C150.478 -13.0934 151.537 -12.6369 152.457 -11.9666C153.378 -11.2962 154.136 -10.4291 154.677 -9.42862C156.945 -5.35975 156.591 -0.078228 154.573 4.1259C153.556 6.267 152.029 8.12731 150.125 9.54457C148.221 10.9618 145.999 11.893 143.651 12.2568C141.321 12.6786 138.857 12.4402 136.825 11.2619C135.944 10.7128 135.167 10.0146 134.527 9.19882C135.588 9.77476 136.767 10.1046 137.974 10.1639C139.764 10.2559 141.546 9.87721 143.143 9.06586C146.361 7.41997 148.43 4.13049 149.066 0.696579C149.756 -2.76483 148.885 -6.46006 146.903 -9.34839C146.029 -10.605 144.976 -11.7278 143.778 -12.6814C145.607 -13.2981 147.522 -13.6007 149.363 -13.3027H149.358ZM119.405 -23.1734C122.456 -25.2617 126.069 -26.3805 129.769 -26.3827C133.416 -26.3827 137.225 -25.3603 139.861 -22.9006C141.157 -21.6796 142.03 -20.0786 142.353 -18.3297C142.574 -16.871 142.458 -15.3812 142.012 -13.9743C141.005 -14.6369 139.947 -15.2216 138.85 -15.7234C135.714 -17.0838 132.375 -17.9217 128.967 -18.2036C123.839 -18.6277 118.736 -17.8873 113.852 -16.5119C115.128 -19.1573 116.978 -21.5184 119.405 -23.1734ZM-42.6967 28.7363C-41.641 28.8915 -40.5686 28.8976 -39.5111 28.7547C-37.4931 28.4865 -35.6039 27.6085 -33.9605 26.499C-31.5541 24.8646 -29.5935 22.79 -27.741 20.6903C-27.8743 20.9928 -27.9892 21.3023 -28.1248 21.6072C-28.7086 22.9321 -29.3453 24.2342 -30.0348 25.5041C-31.2507 27.7414 -32.6757 29.8779 -34.4983 31.6292C-36.9025 31.3037 -39.6605 30.4418 -42.6967 28.7363ZM-33.6157 31.7049C-32.8956 31.088 -32.2304 30.4099 -31.6276 29.6785C-30.6669 28.5323 -29.9153 27.244 -29.1752 25.9626C-28.4644 24.6668 -27.8342 23.3286 -27.2882 21.9556C-26.9205 21.0089 -26.5987 20.0507 -26.3091 19.0787C-26.0793 18.822 -25.8494 18.563 -25.6196 18.3085C-24.7784 17.3442 -23.9279 16.3998 -23.0683 15.4752C-23.4039 16.7864 -23.7808 18.0908 -24.2175 19.3722C-24.7696 21.0329 -25.4165 22.6609 -26.1551 24.2479C-26.9079 25.8204 -27.784 27.3312 -28.7753 28.7661C-29.564 29.8353 -30.4421 30.8361 -31.4001 31.7576C-32.139 31.7874 -32.8791 31.7698 -33.6157 31.7049ZM-23.9946 29.4676C-24.1785 29.6028 -26.4838 31.2372 -30.3382 31.6682C-29.5195 30.9377 -28.7658 30.1378 -28.0858 29.2773C-27.0039 27.833 -26.0633 26.2886 -25.2771 24.6651C-23.772 21.501 -22.7679 18.1233 -22.3007 14.6523C-20.8273 13.0875 -19.2191 11.6547 -17.4947 10.3702C-16.0142 9.1947 -14.4338 8.15004 -12.7715 7.24805C-11.1626 6.39759 -9.28939 5.55402 -7.61155 5.60445H-7.52192L-7.42538 5.67093C-9.71522 6.59815 -11.8546 7.85889 -13.7736 9.41201C-15.9506 11.2611 -17.8215 13.4412 -19.3173 15.8718C-21.8076 20.0214 -23.3934 24.6477 -23.9716 29.4492C-23.9716 29.4492 -23.9877 29.4607 -23.9946 29.4676ZM-8.31487 58.2798C-8.53782 58.7912 -8.8144 59.2776 -9.13999 59.7309C-9.71391 60.5212 -10.4456 61.1846 -11.289 61.6793L-15.5985 55.1348C-17.1086 52.7851 -18.8163 50.5638 -19.8919 48.0767C-22.2064 43.1184 -23.004 37.5503 -22.7741 32.106C-22.5443 26.6618 -21.0549 21.2129 -18.2624 16.5182C-16.0761 12.8429 -13.0045 9.76997 -9.32616 7.57814C-13.0266 10.7874 -16.134 14.7783 -17.7383 19.4982C-19.8069 25.362 -19.5495 31.8035 -17.9199 37.6901C-16.2903 43.5768 -13.4909 49.1403 -9.96282 54.1147C-9.32846 55.0316 -8.64354 55.9118 -7.94482 56.7761C-8.04136 57.2758 -8.19305 57.7801 -8.31487 58.2798ZM3.89657 61.512C3.73981 62.6757 3.40656 63.8088 2.90826 64.8726C2.54062 65.6837 2.06602 66.4423 1.49704 67.1282C0.101902 64.6548 -1.55525 62.5435 -3.24458 60.3773C-5.15686 57.9933 -7.15187 55.7766 -8.80672 53.2986C-12.1509 48.3701 -14.9711 43.029 -16.5937 37.3142C-18.2164 31.5994 -18.5106 25.4789 -16.6075 19.8742C-15.3135 16.0437 -13.0404 12.6258 -10.2202 9.68938C-12.5187 13.0568 -14.0655 16.9675 -14.3574 21.0754C-14.8975 27.095 -13.2978 33.1192 -10.6156 38.4306C-7.91223 43.7773 -4.17444 48.5375 0.382305 52.4367C1.26459 53.1988 2.18514 53.9157 3.1404 54.5846C3.93772 56.8041 4.19685 59.1803 3.89657 61.5189V61.512ZM16.308 55.7239C16.2119 58.1016 15.435 60.402 14.0693 62.3533C13.3828 61.3595 12.6032 60.4331 11.741 59.5864C10.678 58.5287 9.54795 57.5402 8.35778 56.6271C5.96974 54.7817 3.48975 53.2917 1.33615 51.3547C-2.97796 47.5059 -6.74965 42.974 -9.38363 37.8139C-12.0314 32.6998 -13.615 26.9162 -13.1553 21.1762C-12.9181 18.0604 -12.0485 15.0251 -10.5995 12.2545L-10.8293 12.878C-11.643 15.6678 -11.9395 18.6913 -11.3281 21.5636C-11.2465 22.2915 -11.0839 23.0081 -10.8431 23.7001C-10.6133 24.3878 -10.4524 25.1121 -10.1904 25.7907C-9.57439 27.1088 -9.08483 28.4979 -8.27579 29.7129C-7.89885 30.3341 -7.5472 30.9736 -7.14957 31.5811L-5.84867 33.3256C-5.03045 34.5336 -3.95708 35.5216 -3.01014 36.6173C1.02126 40.7848 5.8709 44.1018 11.063 46.6096L14.9059 48.3288C15.908 50.6647 16.3835 53.1915 16.2988 55.7308L16.308 55.7239ZM25.1936 44.9843C25.9452 47.4314 26.2313 49.997 26.0371 52.549C25.1688 51.9217 24.2631 51.3475 23.325 50.8298C22.0632 50.1191 20.7738 49.4773 19.4752 48.8629C18.1766 48.2486 16.8619 47.6709 15.5449 47.1047L11.6997 45.3305C6.69603 42.7699 1.88087 39.7051 -2.03561 35.6752C-2.95498 34.6253 -4.01225 33.6786 -4.8075 32.5255L-6.07622 30.859C-6.46465 30.2813 -6.80481 29.6716 -7.17256 29.0802C-7.96551 27.934 -8.43438 26.6067 -9.03886 25.3551C-9.29628 24.7133 -9.45947 24.037 -9.67782 23.3792C-9.91317 22.7277 -10.0736 22.0517 -10.1559 21.3642C-10.7604 18.6524 -10.4984 15.8351 -9.83181 13.176L-9.19975 11.1977L-8.2574 9.34094C-8.09652 9.03377 -7.94942 8.71514 -7.77474 8.42401L-7.15877 7.57814L-6.95191 7.2916C-6.85308 28.9197 5.70312 32.7089 21.5483 37.4082C21.6265 37.4311 21.7 37.4609 21.7782 37.4838C23.2549 39.8167 24.404 42.3403 25.1936 44.9843ZM33.9482 42.488C30.4388 39.5281 26.3611 37.3129 21.9644 35.9778C5.96974 31.2327 -5.64182 27.7575 -5.48093 6.636C-4.14244 8.52846 -2.57021 10.2452 -0.801373 11.7456C1.26719 13.5474 3.50814 15.1268 5.73989 16.6787C7.97165 18.2306 10.2172 19.7458 12.3248 21.4009C14.4325 23.0559 16.4114 24.8623 17.8801 27.001V27.0239C17.9953 27.1842 18.1696 27.2921 18.3646 27.3242C18.5597 27.3562 18.7595 27.3096 18.9201 27.1947C19.0807 27.0798 19.189 26.906 19.2211 26.7115C19.2532 26.5169 19.2066 26.3176 19.0913 26.1574C17.4296 23.8468 15.3036 22.0106 13.1155 20.3579C10.9274 18.7051 8.64048 17.2472 6.38575 15.7342C4.13101 14.2213 1.89466 12.7198 -0.167015 11.0029C-1.75291 9.71359 -3.19054 8.25286 -4.45354 6.64746C0.894341 7.86336 6.07232 9.72952 10.9642 12.2041C13.553 13.515 15.9848 15.1138 18.2134 16.9698C20.3417 18.8197 22.4034 21.096 23.3043 23.5442L23.3549 23.6794C23.4356 23.8486 23.5775 23.9809 23.7522 24.0498C23.9268 24.1187 24.1211 24.119 24.296 24.0507C24.4709 23.9824 24.6133 23.8506 24.6945 23.6817C24.7758 23.5128 24.7899 23.3195 24.7339 23.1407C23.5204 20.0461 21.3507 17.9211 19.0661 15.9451C16.7277 14.0665 14.1831 12.4585 11.4813 11.1519C8.81308 9.83617 6.05228 8.71607 3.22084 7.8005C0.719074 6.98811 -1.82615 6.31541 -4.40298 5.78555C4.94924 2.66339 12.904 3.2892 19.2361 7.72485C30.4156 15.5554 33.6862 32.9771 33.9482 42.4788V42.488ZM51.1426 22.2903C48.3664 23.9618 45.1755 24.8227 41.9329 24.7752C38.261 24.7177 34.6521 23.8147 31.3878 22.1367C29.0159 16.0231 25.412 10.2395 20.0911 6.50763C15.5886 3.35339 10.3528 1.98029 4.44589 2.3952C2.95529 2.51002 1.47408 2.72445 0.0122604 3.03704C2.97811 1.873 6.11111 1.18817 9.29323 1.00834C14.6876 0.719505 20.0406 2.28516 24.773 4.87778C29.5583 7.45894 33.7368 10.941 37.7774 14.6866C41.7927 18.0312 46.3895 20.351 51.1426 22.2903ZM39.7333 13.9783C40.7906 13.9783 41.8525 13.9348 42.912 13.8683C42.8431 13.8683 42.7741 13.8958 42.7052 13.9027C42.0551 13.9763 41.4012 14.0123 40.7469 14.0104C40.4206 14.0104 40.0942 14.0104 39.7701 13.9806L39.7333 13.9783ZM48.0421 16.5343C46.9071 16.538 45.7742 16.4344 44.6588 16.2248C45.2884 16.3134 45.922 16.3701 46.5573 16.3944C49.3036 16.5183 52.0502 16.1574 54.6707 15.3285C55.8369 14.9459 56.9764 14.4864 58.0815 13.9531C57.808 14.0952 57.546 14.258 57.2656 14.3909C55.8377 15.0716 54.3456 15.6091 52.8113 15.9956C51.243 16.3301 49.6456 16.5105 48.0421 16.5343ZM49.212 17.7859C49.4418 17.7859 49.6556 17.7721 49.8785 17.7584C49.9066 17.7948 49.9451 17.8219 49.9888 17.8363C49.7291 17.818 49.4694 17.8065 49.212 17.7859ZM62.6117 15.6219C68.5875 13.9944 74.2853 11.5255 79.8314 8.85268C82.6124 7.51625 85.3475 6.10189 88.0413 4.5752C90.735 3.04851 93.3414 1.40949 95.9961 -0.0667648C98.6575 -1.52282 101.458 -2.71076 104.355 -3.613C105.682 -4.04834 107.113 -4.05556 108.444 -3.63363C109.736 -3.21183 110.743 -2.21926 110.789 -1.00891C110.878 0.210606 110.15 1.51265 109.233 2.61526C108.264 3.73131 107.169 4.73136 105.969 5.59528C103.5 7.35109 100.872 8.87293 98.1198 10.141C92.6177 12.78 86.818 14.751 80.8449 16.0116C74.8553 17.2716 68.7614 17.9745 62.6416 18.1114C59.5801 18.2398 56.514 18.1779 53.4479 18.061C52.4987 18.0174 51.5495 17.9418 50.6025 17.873C54.781 17.8982 58.9733 17.7584 63.1104 17.128C67.4245 16.5326 71.6921 15.6403 75.8827 14.4574C80.0767 13.2896 84.2025 11.8906 88.2412 10.267C92.29 8.64858 96.2354 6.7837 100.055 4.68293C100.165 4.6156 100.244 4.50836 100.276 4.38388C100.308 4.25939 100.29 4.1274 100.226 4.0158C100.162 3.90421 100.057 3.82174 99.9337 3.78582C99.81 3.7499 99.6771 3.76334 99.5632 3.82331H99.5448C95.7876 5.93465 91.9045 7.81481 87.9171 9.45327C83.9221 11.1 79.8384 12.5242 75.685 13.7193C71.535 14.925 67.3067 15.8441 63.03 16.4701C60.1456 16.9111 57.2362 17.1706 54.319 17.2472C57.1183 16.9016 59.8895 16.3585 62.6117 15.6219ZM81.4356 -8.17472C83.7455 -11.0516 86.175 -13.8436 88.8618 -16.3514L90.8913 -18.2128C91.5946 -18.7997 92.3393 -19.3338 93.0587 -19.8977L94.1481 -20.7321L95.3134 -21.445C96.1018 -21.8897 96.8304 -22.4651 97.6762 -22.786C100.841 -24.3906 104.689 -25.2594 107.764 -23.7236C109.288 -22.9579 110.334 -21.5138 110.982 -19.9458C111.547 -18.669 111.641 -17.2432 111.628 -15.8196C110.78 -15.5476 109.937 -15.258 109.099 -14.9508C102.783 -12.6585 96.8671 -9.47218 91.1602 -6.04974C85.4533 -2.62729 79.944 1.1069 74.5197 4.92821C70.2769 7.99764 65.9421 10.9089 61.2648 13.0797C63.2584 11.8038 65.1392 10.3605 66.8867 8.76557C72.4443 3.72245 76.8227 -2.39577 81.4356 -8.17472ZM54.7213 6.35175C55.9785 3.90813 56.7071 1.2284 57.1277 -1.44216C57.5382 -4.11857 57.7235 -6.82455 57.6816 -9.53178C57.6471 -12.2253 57.4656 -14.8912 57.4518 -17.5251C57.4518 -20.0971 57.4816 -22.9121 58.771 -24.8491C59.41 -25.766 60.4972 -26.2062 61.6716 -26.1947C62.8002 -26.1947 63.7678 -25.546 64.3998 -24.5236C65.6525 -22.433 65.8639 -19.6891 65.8432 -17.1125C65.8174 -16.0316 65.7353 -14.9527 65.5973 -13.8803C65.2618 -12.9473 64.9469 -12.0075 64.6619 -11.0608C63.9241 -8.4521 63.2185 -5.94658 62.2026 -3.49609C60.2328 1.37052 57.4265 6.01936 53.3468 9.3249C52.8871 9.70771 52.4114 10.063 51.9218 10.4023C53.017 9.17096 53.9571 7.81069 54.7213 6.35175ZM54.0708 10.2074C58.3918 6.76895 61.3177 1.95507 63.3771 -3.02386C64.1795 -5.01344 64.87 -7.04606 65.4456 -9.11229H65.4571C65.533 -9.35756 65.595 -9.60513 65.6663 -9.85041C65.7375 -10.0957 65.8387 -10.4143 65.9191 -10.6894C66.6693 -13.216 67.6439 -15.6709 68.8312 -18.0248C70.0401 -20.3172 71.5272 -22.582 73.5866 -23.9138C74.6025 -24.558 75.7816 -24.8537 76.7653 -24.4571C77.749 -24.0605 78.5098 -23.0817 78.9419 -21.9654C79.8382 -19.673 79.7532 -16.9864 79.282 -14.4672C78.7624 -11.9067 77.8915 -9.42987 76.694 -7.1065C74.2899 -2.45537 71.0147 1.83358 67.3579 5.62967C63.6621 9.37991 59.2928 12.5777 54.3052 14.2374C51.8263 15.0775 49.2184 15.4755 46.601 15.4133C48.2448 15.2055 49.8581 14.8038 51.407 14.2167C54.8661 12.9903 58.1666 11.1565 60.881 8.65554C63.6199 6.19393 65.9866 3.34938 67.9072 0.210606C69.851 -2.92095 71.3952 -6.28228 72.504 -9.7954C72.5341 -9.88982 72.545 -9.9893 72.536 -10.088C72.527 -10.1867 72.4983 -10.2825 72.4515 -10.37C72.4048 -10.4574 72.341 -10.5346 72.2639 -10.5971C72.1867 -10.6596 72.0979 -10.706 72.0025 -10.7337C71.9071 -10.7614 71.8071 -10.7698 71.7084 -10.7583C71.6097 -10.7469 71.5143 -10.7158 71.4278 -10.6671C71.3414 -10.6183 71.2655 -10.5528 71.2048 -10.4743C71.1442 -10.3959 71.0998 -10.3061 71.0744 -10.2103V-10.169C70.047 -6.76997 68.6018 -3.51073 66.7718 -0.46563C64.9611 2.5971 62.7161 5.38279 60.1064 7.80508C57.5276 10.2602 54.3857 12.0619 51.0714 13.3067C48.2972 14.4528 45.3024 14.7715 42.3167 14.9113C42.2041 14.8884 42.0869 14.8654 41.9858 14.8379C42.2524 14.8242 42.5213 14.8379 42.7879 14.8104C44.1552 14.6871 45.5066 14.4267 46.8216 14.0333C49.4613 13.2325 51.9222 11.9337 54.0708 10.2074ZM48.6144 11.6768C48.0708 11.9159 47.506 12.1039 46.9274 12.2384C45.924 12.4714 44.909 12.6513 43.8866 12.7771C42.0278 12.9979 40.1592 13.1256 38.2876 13.16C34.3918 9.60914 30.1605 6.20963 25.4166 3.70182C20.5095 1.07252 14.883 -0.522938 9.24267 -0.165337C4.41601 0.0638962 -0.139431 1.74876 -4.28346 4.02962C-1.26026 0.892902 2.54864 -1.38085 6.7489 -2.55623C11.7089 -3.93163 17.032 -3.67489 21.9988 -2.33846C26.9835 -0.949276 31.6457 1.40371 35.7203 4.58666C39.5173 7.75924 44.0176 9.94382 48.6144 11.6768ZM48.9729 2.73675C47.6307 3.99294 45.7391 4.64855 43.8015 4.79984C41.7748 4.93391 39.7392 4.7889 37.7521 4.36889C37.366 4.06859 36.9569 3.80268 36.5845 3.48405C32.4007 0.114098 27.5416 -2.32305 22.3344 -3.66343C17.1607 -4.99527 11.5985 -5.20387 6.40643 -3.70698C2.28539 -2.56082 -1.40815 -0.21347 -4.34552 2.82157C-2.18961 -0.802601 0.878761 -3.87203 4.65275 -5.7632C9.37138 -8.22515 14.8554 -8.94724 20.1555 -8.61026C25.4556 -8.27329 30.7787 -6.9277 35.4813 -4.46574C39.8666 -1.92584 44.3554 0.561333 48.9706 2.73446L48.9729 2.73675ZM16.6343 -15.4918C19.4936 -15.4368 22.3804 -15.164 25.1385 -14.3457C27.8965 -13.658 30.611 -12.5118 33.3966 -11.5124C36.1823 -10.5129 38.9519 -9.54782 41.7812 -8.69737C44.3393 -7.973 46.8124 -7.22112 49.5613 -6.88873C48.7559 -5.71476 47.6882 -4.7433 46.4424 -4.05083C45.004 -3.25666 43.44 -2.71395 41.818 -2.4462C39.8804 -3.43878 37.9452 -4.4474 36.0329 -5.52021C31.1212 -8.0624 25.6901 -9.38507 20.2107 -9.74268C14.752 -10.0338 9.08638 -9.22919 4.19077 -6.61135C0.000770569 -4.45657 -3.33651 -0.894295 -5.5269 3.22043C-4.71786 -1.67369 -2.72054 -6.40734 0.933926 -9.72434C5.07795 -13.6992 10.9343 -15.462 16.6343 -15.4918ZM13.8142 -16.6793C8.75771 -16.1108 3.78855 -14.199 0.111095 -10.5954C-2.09437 -8.52172 -3.78611 -5.96492 -4.83048 -3.12702C-5.84408 -0.752171 -6.23251 1.79002 -6.48993 4.31845L-6.50372 4.25885C-6.88525 2.62672 -6.42558 0.639271 -5.90614 -1.10978C-5.34931 -2.91393 -4.63483 -4.66587 -3.77092 -6.34545C-2.84668 -8.28587 -1.75301 -10.1414 -0.502579 -11.8906C2.8162 -13.0338 5.93759 -14.6824 8.75081 -16.7778C10.1914 -17.8709 11.5237 -19.0991 12.7294 -20.4455C13.4405 -21.2801 14.078 -22.1744 14.6347 -23.1184C14.9289 -19.7601 14.1015 -17.3807 13.8142 -16.6793ZM14.5037 -24.166C13.7883 -23.0479 12.9786 -21.9927 12.0835 -21.0117C10.8702 -19.7614 9.55901 -18.6093 8.16241 -17.5664C6.74855 -16.5302 5.27672 -15.575 3.75407 -14.7056C2.58189 -14.0316 1.37522 -13.4058 0.152466 -12.819C0.892551 -13.8429 1.65256 -14.8607 2.43249 -15.8724C2.63705 -16.1451 2.8485 -16.4202 3.05765 -16.693C3.95403 -17.1675 4.83432 -17.6695 5.68933 -18.2174C6.93223 -19.0212 8.12359 -19.9017 9.25646 -20.8536C10.3689 -21.8301 11.4859 -22.8181 12.4237 -23.9849C13.0231 -24.7174 13.5576 -25.5005 14.0211 -26.3254C14.2294 -25.619 14.3922 -24.9 14.5083 -24.1729L14.5037 -24.166ZM13.759 -27.1644C12.3984 -25.0394 10.5803 -23.2238 8.6221 -21.594C7.51427 -20.6771 6.36047 -19.7922 5.17449 -18.9601C4.90557 -18.7676 4.62516 -18.5911 4.35395 -18.4008C6.05478 -20.6473 7.70274 -22.9625 8.85194 -25.6354C9.61271 -27.4692 10.1046 -29.4842 9.97126 -31.5106C9.89791 -32.5701 9.67586 -33.6141 9.31162 -34.6121C11.587 -31.9828 12.9891 -29.459 13.7636 -27.1712L13.759 -27.1644ZM-0.964561 -25.8898C5.77437 -29.287 7.70274 -32.8172 8.12794 -35.2058C8.58664 -34.0122 8.83168 -32.7475 8.85194 -31.4693C8.85024 -29.6285 8.43807 -27.8112 7.64528 -26.1489C6.06627 -22.7791 3.62536 -19.7991 1.2649 -16.7664C-0.699299 -14.3451 -2.44739 -11.7571 -3.95938 -9.03205C-4.05132 -10.004 -4.12027 -10.9828 -4.14325 -11.9571C-4.19619 -13.4725 -4.15704 -14.9897 -4.02604 -16.5005C-3.78794 -19.4376 -3.21658 -22.3384 -2.32292 -25.1471C-1.86094 -25.3901 -1.43803 -25.656 -0.959965 -25.8967L-0.964561 -25.8898ZM-8.15628 -21.2777C-6.55886 -22.567 -4.85678 -23.7217 -3.0676 -24.7299C-3.54655 -23.5819 -3.93538 -22.3986 -4.23059 -21.1905C-4.6109 -19.6773 -4.86612 -18.1355 -4.99367 -16.5807C-5.25972 -13.7263 -5.07435 -10.8479 -4.44435 -8.05094C-4.63052 -7.67958 -4.83508 -7.31739 -5.00516 -6.93916C-5.58057 -5.66993 -6.08245 -4.3688 -6.50832 -3.0422C-6.9009 -4.4059 -7.22461 -5.78838 -7.47824 -7.18444C-7.78907 -8.83534 -8.01537 -10.501 -8.15628 -12.1748C-8.40223 -15.2041 -8.40223 -18.2483 -8.15628 -21.2777ZM-15.2974 -9.45155C-15.0883 -13.415 -12.8335 -17.2615 -8.86189 -20.7092C-9.04115 -19.5594 -9.15853 -18.4009 -9.21354 -17.2386C-9.30206 -15.5234 -9.27672 -13.8042 -9.1377 -12.0923C-9.00065 -10.3798 -8.74569 -8.67869 -8.37462 -7.00105C-8.01197 -5.32595 -7.487 -3.68995 -6.80711 -2.1161C-6.87376 -1.88687 -6.9657 -1.65764 -7.02546 -1.42841C-7.37022 0.144131 -7.6805 1.735 -7.45066 3.41528C-8.57348 2.4082 -9.77815 1.49578 -11.0523 0.687408C-14.0103 -2.46683 -15.4905 -5.88927 -15.2997 -9.45155H-15.2974ZM-22.8201 -0.295998C-19.3265 -1.18313 -15.6376 -0.399151 -11.9326 1.91151C-10.901 2.97521 -9.78581 3.95487 -8.59757 4.84111C-10.303 4.94426 -11.8153 5.56319 -13.2932 6.2165C-13.5231 6.32195 -13.7115 6.44573 -13.9276 6.56493C-15.6106 6.21122 -17.324 6.02159 -19.0438 5.99873C-20.7662 5.96999 -22.4886 6.0573 -24.1992 6.26006C-25.9082 6.46239 -27.602 6.77712 -29.2694 7.2022C-30.4 7.48574 -31.5147 7.82854 -32.609 8.22916C-30.0049 3.65598 -26.6722 0.694286 -22.8201 -0.295998ZM-33.0296 9.02002C-30.1016 8.18404 -27.1109 7.58382 -24.0865 7.22512C-22.4131 7.03079 -20.7307 6.92215 -19.0461 6.89962C-17.6234 6.8744 -16.1892 6.91337 -14.7757 7.02798C-15.9972 7.70767 -17.179 8.45618 -18.3152 9.26988C-18.6554 9.51057 -18.968 9.78336 -19.299 10.0378C-22.1763 9.97406 -25.0459 10.3608 -27.8031 11.184C-29.3013 11.6176 -30.7618 12.1719 -32.17 12.8413C-33.2979 13.3676 -34.383 13.9808 -35.4154 14.6752C-34.7779 12.7277 -33.9799 10.8362 -33.0296 9.02002ZM-36.1486 16.979C-36.0038 16.4609 -35.8314 15.9933 -35.6889 15.4958C-33.106 14.0693 -30.3696 12.9389 -27.5318 12.1261C-26.073 11.7014 -24.5902 11.3631 -23.0913 11.1129C-22.1283 10.9433 -21.1515 10.8172 -20.1769 10.7163C-22.5574 12.7311 -24.7562 14.9502 -26.7481 17.348C-29.2625 20.257 -31.7081 23.2301 -34.7098 25.4399C-36.1866 26.5434 -37.891 27.3053 -39.6996 27.6704C-40.9585 27.9023 -42.2485 27.9108 -43.5104 27.6956C-41.2373 26.8039 -38.1551 24.2227 -36.1486 16.979Z" fill="#E8E0DA"/>
<path d="M128.829 -6.65033C128.792 -7.17136 128.601 -7.66982 128.28 -8.08266C127.96 -8.49551 127.523 -8.80419 127.026 -8.96968C126.53 -9.13517 125.995 -9.15002 125.49 -9.01236C124.985 -8.87471 124.532 -8.59072 124.188 -8.19633C123.845 -7.80193 123.627 -7.31484 123.561 -6.79666C123.495 -6.27847 123.585 -5.75247 123.819 -5.28517C124.053 -4.81787 124.42 -4.43027 124.875 -4.17139C125.33 -3.91251 125.852 -3.79396 126.374 -3.83076C126.721 -3.8549 127.06 -3.947 127.371 -4.10181C127.682 -4.25662 127.96 -4.4711 128.188 -4.73298C128.416 -4.99485 128.59 -5.29898 128.7 -5.62798C128.81 -5.95698 128.854 -6.30439 128.829 -6.65033Z" fill="#E8E0DA"/>
<path d="M158.065 49.6217C157.542 49.6583 157.043 49.8486 156.629 50.1684C156.215 50.4883 155.905 50.9233 155.739 51.4186C155.573 51.9139 155.558 52.4472 155.696 52.951C155.834 53.4548 156.118 53.9066 156.513 54.2491C156.909 54.5917 157.397 54.8097 157.916 54.8756C158.436 54.9415 158.963 54.8523 159.432 54.6193C159.9 54.3863 160.289 54.0199 160.549 53.5666C160.809 53.1132 160.928 52.5932 160.892 52.0722C160.867 51.7261 160.775 51.3882 160.62 51.0777C160.465 50.7673 160.25 50.4903 159.987 50.2628C159.725 50.0352 159.42 49.8615 159.09 49.7515C158.76 49.6415 158.412 49.5974 158.065 49.6217Z" fill="#E8E0DA"/>
<path d="M41.1446 -18.6025C41.7332 -18.6455 42.2959 -18.8614 42.7617 -19.223C43.2274 -19.5846 43.5754 -20.0757 43.7616 -20.6343C43.9478 -21.1929 43.964 -21.7939 43.8081 -22.3617C43.6522 -22.9295 43.3312 -23.4385 42.8856 -23.8245C42.44 -24.2105 41.8897 -24.4562 41.3042 -24.5307C40.7188 -24.6051 40.1243 -24.505 39.5958 -24.2428C39.0673 -23.9807 38.6285 -23.5683 38.3348 -23.0578C38.041 -22.5472 37.9054 -21.9613 37.9452 -21.3739C37.9717 -20.982 38.0756 -20.5993 38.251 -20.2476C38.4264 -19.8959 38.6697 -19.5822 38.967 -19.3247C39.2644 -19.0671 39.6098 -18.8707 39.9835 -18.7468C40.3572 -18.6229 40.7518 -18.5738 41.1446 -18.6025Z" fill="#E8E0DA"/>
<path d="M249.111 -15.0517C249.883 -15.1049 250.621 -15.3851 251.232 -15.8569C251.844 -16.3287 252.301 -16.9708 252.547 -17.702C252.792 -18.4332 252.815 -19.2206 252.611 -19.9646C252.408 -20.7085 251.988 -21.3756 251.404 -21.8813C250.821 -22.387 250.1 -22.7086 249.333 -22.8055C248.566 -22.9023 247.787 -22.7701 247.095 -22.4254C246.404 -22.0807 245.83 -21.5392 245.447 -20.8693C245.064 -20.1994 244.889 -19.4313 244.944 -18.6621C245.018 -17.6326 245.498 -16.6743 246.279 -15.9975C247.06 -15.3206 248.079 -14.9805 249.111 -15.0517Z" fill="#E8E0DA"/>
</svg>
