<svg width="48" height="49" viewBox="0 0 48 49" fill="none" xmlns="http://www.w3.org/2000/svg">
<path d="M33.3377 0.65599C32.9531 0.269238 32.3763 0.269238 31.9918 0.0758624C31.2227 -0.117514 30.2614 0.075862 29.3001 0.462614C28.3387 0.849366 27.3774 1.42949 26.2238 2.203C25.2624 2.9765 24.3011 3.75001 23.1475 4.71689C22.3784 5.49039 21.4171 6.2639 20.2635 7.42415L20.0712 7.61753C19.6867 8.00428 19.3022 8.39103 18.9176 8.77778C17.9563 8.39103 16.995 8.00428 16.0336 7.61753C14.6877 7.23078 13.3419 6.84402 11.996 6.45727C10.6501 6.07052 9.30426 5.68377 8.15065 5.49039C6.80478 5.29702 5.65118 5.29702 4.68984 5.29702C3.53624 5.29702 2.76717 5.68377 1.9981 6.07052C1.22903 6.45727 0.652229 7.23078 0.459962 8.19766C0.459962 8.58441 0.459962 9.16454 0.459962 9.55129C0.459962 10.1314 0.652229 10.5182 0.844497 11.0983C1.22903 12.0652 1.80583 13.2254 2.5749 14.5791C3.53624 15.5459 4.30531 16.7062 5.26664 18.0598C6.03571 19.0267 6.99705 20.187 7.95839 21.3472L7.57385 21.734C6.80478 22.5075 6.03571 23.4744 5.45891 24.4412C4.49758 25.6015 3.72851 26.5684 3.1517 27.5353C2.38264 28.6955 1.80583 29.6624 1.22903 30.6293C0.844497 31.2094 0.652229 31.7895 0.459962 32.3697C0.267695 32.7564 0.0754274 33.3365 0.0754274 34.11C-0.11684 35.2703 0.0754274 36.2372 0.459962 37.2041C0.844497 37.7842 1.22903 38.1709 1.80583 38.5577C2.19037 38.7511 2.5749 38.9445 2.95944 39.1378C3.53624 39.3312 4.11304 39.5246 4.68984 39.5246C5.26664 39.5246 6.03571 39.5246 6.61252 39.5246C7.76612 39.5246 9.11199 39.1378 10.6501 38.7511C11.996 38.3643 13.3419 37.7842 14.6877 37.2041C15.6491 36.8173 16.4181 36.4306 17.1872 36.0438C17.5718 37.7842 17.9563 39.5246 18.7254 41.0716C19.3022 42.6186 19.879 43.7789 20.4558 44.9391C20.8403 45.5192 21.0326 46.0994 21.4171 46.4861C21.8016 47.0662 22.1862 47.453 22.5707 47.8397C22.763 48.0331 22.9552 48.0331 23.1475 48.2265C23.3398 48.4199 23.7243 48.6133 23.9166 48.6133C24.4934 48.8066 24.8779 49 25.4547 49C26.6083 49 27.7619 48.4199 28.7233 47.6464C29.1078 47.2596 29.6846 46.6795 30.0691 46.0994C30.4537 45.5192 30.8382 44.9391 31.0305 44.1656C31.6073 42.812 32.1841 41.265 32.5686 39.5246C32.9531 38.1709 33.1454 36.8173 33.5299 34.8835C33.5299 34.3034 33.7222 33.9167 33.7222 33.3365C34.4913 33.3365 35.2603 33.3365 36.0294 33.3365C38.7212 33.1432 41.0284 32.9498 42.951 32.3697C43.7201 32.1763 44.2969 31.9829 44.6814 31.7895C45.2582 31.5962 45.835 31.2094 46.2196 30.8227C46.7964 30.4359 46.9887 30.0492 47.3732 29.6624C47.7577 29.0823 47.95 28.6955 47.95 28.1154C48.1423 27.3419 47.7577 26.375 47.1809 25.4081C46.9887 25.0214 46.6041 24.6346 46.2196 24.2479C45.835 23.8611 45.2582 23.281 44.8737 22.8942C44.1046 22.3141 43.3356 21.734 42.5665 21.1539C42.182 20.9605 41.9897 20.7671 41.6052 20.5737C40.4516 19.8002 39.298 19.2201 37.9521 18.4466C37.183 18.0598 36.6062 17.6731 35.8371 17.2863C35.8371 16.3194 36.0294 14.9658 36.0294 13.6122C36.0294 11.8718 36.0294 10.3248 36.0294 9.16454C36.0294 7.42415 35.8371 6.2639 35.4526 5.10364C35.2603 4.52351 35.0681 3.94338 34.8758 3.36326C34.8758 2.39638 34.4913 2.00962 34.299 1.62287C33.9145 1.23612 33.7222 0.849366 33.3377 0.65599Z" fill="#D773FB"/>
</svg>
