<svg width="103" height="100" viewBox="0 0 103 100" fill="none" xmlns="http://www.w3.org/2000/svg">
<path d="M98.8243 40.6784C96.2114 38.4217 92.6483 37.234 89.3227 36.4027C84.0969 35.0962 78.7523 34.7399 73.4076 35.5713C75.5455 33.7897 77.5646 31.7706 79.3461 29.514C82.4341 25.4759 85.5221 20.25 84.4532 15.0241C83.503 10.2734 79.1086 6.71028 74.4766 5.76012C69.2507 4.69119 64.0248 6.59151 59.8679 9.56074C55.8297 12.2924 52.3854 15.9743 49.8913 20.1312C49.535 16.3306 48.9411 12.53 47.2783 8.9669C45.378 4.92873 41.6962 1.36565 37.1829 0.296721C32.6697 -0.772204 28.1564 1.12811 25.306 4.69119C22.218 8.37305 20.9115 13.0051 21.2678 17.6371C21.5053 21.4377 22.693 25.0008 23.9995 28.4451C17.586 26.3072 10.8161 25.8322 5.11516 30.2266C1.78961 32.8396 -0.585781 36.8777 0.126836 41.2722C0.839453 46.3793 5.23392 50.0611 9.98471 51.4864C13.3103 52.5553 16.7546 52.4365 20.1989 51.8427C18.6549 52.9116 17.2296 54.0993 15.9232 55.4058C13.7853 56.9498 11.885 58.7313 10.4598 60.9879C7.49055 65.62 6.77793 71.796 10.5786 76.1904C11.6475 77.3781 12.8352 78.4471 14.1416 79.1597C15.3293 80.1098 16.6358 80.8225 18.1798 81.1788C19.4863 81.4163 20.674 81.5351 21.9804 81.2975C24.3558 81.4163 26.7312 80.8224 28.8691 79.8723C33.3823 78.0907 37.3017 74.7652 40.5085 71.0834C41.3399 70.1332 42.0525 69.183 42.8839 68.2329C43.3589 73.1024 44.4279 78.0908 45.8531 82.7228C48.1097 89.4926 52.0291 96.0249 58.9177 98.8754C64.7374 101.251 71.151 99.8256 75.1892 94.956C79.1086 90.324 80.415 83.9105 79.1086 77.972C78.3959 74.884 77.0895 72.0335 75.4267 69.4206C76.2581 69.6581 77.2083 69.8957 78.0396 70.1332C84.0969 71.2021 90.1541 69.6581 94.9049 65.7387C99.5369 61.9381 102.506 56.1184 102.744 50.1799C102.506 46.6168 101.675 43.0537 98.8243 40.6784ZM71.7449 71.4397C72.3387 72.271 72.695 73.2212 73.0513 74.2901C72.695 74.2901 72.3387 74.2901 72.1012 74.5277C71.9824 73.8151 71.8636 73.1024 71.6261 72.271C71.6261 72.0335 71.5073 71.9147 71.2698 71.6772C71.5073 71.6772 71.6261 71.5584 71.7449 71.4397ZM69.7258 71.2021C69.7258 71.3209 69.8445 71.3209 69.8445 71.4397C69.607 71.5584 69.2507 71.6772 69.1319 71.9147C69.0132 71.2021 68.8944 70.4895 68.8944 69.8957C69.2507 70.252 69.4882 70.7271 69.7258 71.2021ZM68.4193 75.1215C68.4193 75.2403 68.3005 75.3591 68.3005 75.5966C68.3005 76.3092 68.1818 77.0218 68.063 77.8532C68.063 76.9031 67.9442 76.0717 67.7067 75.1215C67.9442 75.1215 68.1818 75.2403 68.4193 75.1215ZM65.5688 63.4821C65.6876 63.6009 65.8064 63.7196 65.9251 63.8384C65.6876 64.076 65.4501 64.4323 65.5688 64.7886C65.5688 64.9073 65.5688 65.0261 65.5688 65.2636C65.5688 65.3824 65.4501 65.3824 65.4501 65.5012C64.975 64.7886 64.6187 63.9572 64.1436 63.2446C64.6187 63.2446 65.0938 63.3633 65.5688 63.4821ZM65.9251 72.1523C65.6876 72.1523 65.5688 72.1523 65.3313 72.271C65.0938 71.4397 64.975 70.6083 64.7374 69.7769C65.2125 70.4895 65.5688 71.3209 65.9251 72.1523ZM63.9061 76.1904C63.9061 76.6655 64.1436 76.9031 64.4999 77.1406C64.3811 77.4969 64.2624 77.972 64.2624 78.3283C64.0248 79.0409 63.7873 79.7535 63.6685 80.3474C63.5498 78.6846 63.5498 77.1406 63.431 75.4778C63.431 75.8341 63.6685 76.0717 63.9061 76.1904ZM61.887 70.8458C62.0058 71.4397 62.2433 72.0335 62.3621 72.5086C62.1245 72.3898 62.0058 72.3898 61.7682 72.3898C61.887 71.9147 61.887 71.4397 61.887 70.8458ZM16.9921 65.5012C17.3484 65.5012 17.586 65.3824 17.9423 65.1449L18.061 65.0261C18.061 65.1449 17.9423 65.2636 17.9423 65.3824L16.9921 66.8077C16.9921 66.3326 16.9921 65.8575 16.9921 65.5012ZM14.2604 63.2446C13.6666 64.1947 13.3103 65.1449 12.9539 66.2138C12.7164 66.6889 12.4789 67.2827 12.3601 67.8766C12.5976 65.7387 13.5478 63.7196 14.8543 61.8193C14.973 61.7006 14.973 61.5818 15.0918 61.463C15.0918 61.9381 15.3293 62.4132 15.6856 62.6507C15.2106 62.4132 14.6167 62.532 14.2604 63.2446ZM13.429 72.8649C14.4979 74.4089 16.042 75.4778 17.7047 75.9529C17.7047 76.0717 17.7047 76.1904 17.586 76.1904C17.3484 77.1406 18.2986 78.0908 19.2487 77.8532C20.0801 77.6157 20.9115 77.2594 21.7429 76.9031C21.9804 77.7344 22.9306 78.2095 23.762 77.7344C24.4746 77.2594 25.0684 76.7843 25.781 76.3092C26.1374 76.3092 26.4937 76.1904 26.85 76.1904C25.306 77.3781 23.5244 78.3283 21.6241 78.6846C18.4173 78.4471 15.4481 76.5468 13.6666 73.6963C13.3103 73.1024 13.0727 72.5086 12.8352 71.9147C13.0727 72.271 13.1915 72.6274 13.429 72.8649ZM40.6272 45.1916C41.4586 44.5978 42.29 44.1227 43.1214 43.6476L40.8648 46.1418C40.5085 46.3793 40.1522 46.7356 39.7959 46.9731C40.1522 46.2605 40.5085 45.7854 40.6272 45.1916ZM45.4968 70.6083C45.2593 68.8267 45.1405 67.0452 45.0217 65.1449C45.1405 65.0261 45.2593 64.9073 45.2593 64.7886C45.378 66.095 45.4968 67.2827 45.6156 68.5892C45.4968 69.3018 45.4968 69.8957 45.4968 70.6083ZM74.0015 91.5117C71.151 96.1437 66.0439 98.5191 60.6993 96.9751C56.5424 95.6686 53.4543 92.6994 51.1977 89.1363C52.623 91.0366 54.2857 92.8182 56.1861 94.2434C57.9676 95.6686 60.1054 96.6188 62.3621 96.8563C63.6685 96.9751 65.0938 96.8563 66.2815 96.5C68.7756 96.1437 70.9135 94.8372 72.3387 92.8182C73.0513 92.1056 73.8827 91.3929 74.4766 90.6803C74.4766 90.6803 74.4766 90.6803 74.5953 90.5615C74.4766 90.7991 74.239 91.1554 74.0015 91.5117ZM78.2772 43.2913C78.0396 43.0537 77.8021 42.6974 77.5646 42.4599C78.0396 42.5787 78.5147 42.5787 78.9898 42.6974C78.6335 42.8162 78.3959 43.0537 78.2772 43.2913ZM94.6674 46.3793C94.4298 46.023 94.1923 45.6667 94.0735 45.1916C94.6674 45.9042 95.2612 46.6168 95.7363 47.4482C95.6175 47.567 95.6175 47.6858 95.4988 47.9233C95.4988 48.0421 95.4988 48.0421 95.4988 48.1608C95.2612 47.9233 94.9049 47.8045 94.5486 47.8045C94.9049 47.567 95.1424 46.9731 94.6674 46.3793ZM93.836 40.6784C94.4298 40.9159 94.9049 41.1534 95.4988 41.5097C95.1424 41.6285 94.9049 41.7473 94.5486 41.8661C93.2421 40.7971 91.8169 40.0845 90.2729 39.3719C91.4606 39.7282 92.6483 40.2033 93.836 40.6784ZM89.7978 53.3867C89.679 53.6242 89.5603 53.743 89.4415 53.9805H89.3227C88.9664 53.8618 88.4914 53.8618 88.135 53.743L89.7978 53.3867ZM81.8403 48.7547C81.2464 47.567 80.5338 46.4981 79.8212 45.4291C80.415 45.5479 81.0089 45.6667 81.4839 45.7854C80.7713 46.3793 80.7713 47.8045 81.959 48.1608C82.5529 48.2796 83.2655 48.5171 83.8593 48.6359C83.2655 48.6359 82.5529 48.6359 81.8403 48.7547ZM88.8477 58.6126C88.4914 58.8501 88.0163 59.0876 87.66 59.2064C86.9473 59.4439 86.3535 59.6815 85.6409 59.919C85.6409 59.6815 85.5221 59.4439 85.4034 59.3252L88.0163 58.8501C88.9664 58.6126 89.204 57.5436 88.7289 56.831H88.8477C89.204 57.3061 89.9166 57.5436 90.5104 57.3061C89.9166 57.6624 89.4415 58.1375 88.8477 58.6126ZM91.1043 47.8045C90.748 47.6858 90.2729 47.567 89.9166 47.4482C90.1541 47.4482 90.3917 47.4482 90.6292 47.3294C90.8667 47.3294 91.1043 47.2107 91.2231 47.0919C91.1043 47.3294 91.1043 47.567 91.1043 47.8045ZM93.3609 59.6815C93.4797 59.4439 93.4797 59.3252 93.4797 59.0876C94.3111 58.2562 95.1424 57.4249 95.8551 56.5935C95.2612 57.7812 94.3111 58.8501 93.3609 59.6815ZM99.6557 50.8925C99.6557 50.4175 99.5369 49.9424 99.4182 49.5861C99.5369 49.2298 99.5369 48.8735 99.6557 48.5171C99.7745 49.3485 99.7745 50.0611 99.6557 50.8925Z" fill="#FFCB0F"/>
<path d="M72.8142 38.4217C72.9329 38.1842 72.9329 37.8279 72.6954 37.5904C70.4388 33.5522 67.8258 29.514 63.9064 26.9011C60.4621 24.5257 56.3052 23.338 52.1483 23.2192C43.9532 23.1005 36.3519 28.3263 33.0264 35.8088C29.4633 44.0039 31.8387 54.2181 37.7771 60.7504C40.9839 64.1947 45.1409 65.5012 49.6541 65.7387C54.2861 66.095 58.7994 65.3824 62.8375 63.007C69.0135 59.4439 72.6954 53.1492 73.1705 46.3793C73.1705 46.2605 73.1705 46.2605 73.1705 46.1418C73.5268 43.5288 73.408 40.9159 72.8142 38.4217ZM49.7729 35.69C50.0104 35.5713 50.1292 35.3337 50.3667 35.215C50.3667 35.3337 50.4855 35.5713 50.4855 35.69C50.2479 35.8088 50.1292 35.9276 49.8916 36.1651C49.8916 35.9276 49.8916 35.8088 49.7729 35.69ZM62.9563 42.935C62.9563 42.8162 62.9563 42.8162 62.9563 42.935C62.9563 43.0537 62.9563 43.1725 62.9563 43.2913C62.9563 43.6476 62.9563 43.8851 62.8375 44.2414C62.7187 44.2414 62.7187 44.2414 62.6 44.2414H62.4812C62.6 43.7664 62.7187 43.2913 62.9563 42.935ZM66.8757 43.0538C66.9944 43.2913 67.1132 43.6476 67.3508 43.8851C67.232 45.0728 66.8757 46.3793 66.5194 47.6858C66.5194 46.8544 66.5194 45.9042 66.5194 45.0728C66.6381 44.3602 66.8757 43.6476 66.8757 43.0538ZM53.0984 54.2181C53.336 54.0993 53.6923 54.0993 53.9298 53.9805C53.9298 54.2181 53.9298 54.3369 53.9298 54.5744C53.4547 54.8119 52.9796 55.1682 52.3858 55.4058C52.7421 55.0495 52.9796 54.5744 53.0984 54.2181ZM62.9563 53.2679C62.9563 53.6242 63.0751 54.0993 63.0751 54.4556C62.1249 55.4058 61.1747 56.2372 59.8683 56.9498C60.9372 55.7621 62.0061 54.5744 62.9563 53.2679ZM52.6233 28.4451L52.7421 28.5639H52.8609C52.7421 28.6826 52.6233 28.8014 52.3858 28.8014C52.3858 28.8014 52.3858 28.8014 52.267 28.8014C51.6732 28.5639 51.0793 28.6826 50.3667 29.0389C50.1292 29.0389 49.8916 29.1577 49.6541 29.2765C49.5353 29.0389 49.2978 28.8014 48.9415 28.6826C49.5353 28.4451 50.2479 28.3263 50.8418 28.2076C51.4356 28.4451 52.0295 28.4451 52.6233 28.4451ZM46.4473 52.5553C46.4473 52.9116 46.5661 53.3867 46.5661 53.743C46.4473 53.8618 46.4473 53.9805 46.3286 53.9805C46.2098 53.9805 46.091 53.8618 46.091 53.743C46.2098 53.3867 46.3286 52.9116 46.4473 52.5553ZM47.5162 60.7504C47.9913 60.9879 48.4664 61.1067 48.9415 61.3443C48.2289 61.2255 47.5162 61.1067 46.8036 60.9879C47.0412 60.8692 47.2787 60.8692 47.5162 60.7504ZM47.5162 57.3061C47.9913 57.4249 48.4664 57.1873 48.5852 56.5935C48.9415 56.7122 49.2978 56.5935 49.5353 56.2372C49.7729 55.9996 50.0104 55.6433 50.1292 55.287C50.2479 55.4058 50.2479 55.4058 50.3667 55.5246C50.4855 56.2372 50.723 56.831 51.3169 57.3061C51.4356 57.4249 51.6732 57.4249 51.792 57.5436C51.3169 57.6624 50.723 57.8999 50.2479 57.8999C49.2978 58.0187 48.3476 57.7812 47.5162 57.3061ZM70.2012 37.234C69.9637 37.4716 69.8449 37.8279 69.9637 38.303C69.8449 38.303 69.8449 38.4217 69.7262 38.4217C68.6572 35.3337 67.1132 32.3645 64.7378 30.1079L64.6191 29.9891C66.8757 32.0082 68.6572 34.5023 70.2012 37.234ZM39.5587 36.1651C39.5587 36.8777 40.2713 37.4716 40.9839 36.9965C40.7464 37.5904 40.3901 38.0654 40.1525 38.6593C39.7962 37.8279 38.371 37.7091 38.2522 38.778C38.1335 39.847 38.0147 40.9159 38.0147 41.9848C37.8959 41.6285 37.5396 41.5098 37.1833 41.5098C37.7771 39.7282 38.4898 37.9467 39.5587 36.1651ZM33.2639 43.6476C33.2639 44.2414 33.8578 44.5978 34.4516 44.5978C34.3328 47.4482 34.4516 50.1799 35.0455 53.0304C33.8578 49.9424 33.1451 46.7356 33.2639 43.6476ZM53.0984 63.8384C48.8227 64.076 44.0719 63.6009 40.6276 60.7504C39.3212 59.6815 38.2522 58.4938 37.3021 57.0686C37.4208 57.0686 37.4208 57.0686 37.5396 56.9498C38.0147 57.6624 38.4898 58.375 39.0836 58.9689C41.1027 60.9879 43.7156 62.1756 46.4473 62.7695C51.0793 63.8384 55.9489 63.6009 60.3434 61.9381C58.0867 63.1258 55.5926 63.7196 53.0984 63.8384ZM62.1249 58.9689C62.6 58.6126 63.0751 58.1375 63.5501 57.6624C63.5501 57.7812 63.6689 57.8999 63.7877 57.8999C63.1938 58.2562 62.7187 58.6126 62.1249 58.9689ZM70.2012 49.3485C70.5575 47.9233 70.7951 46.3793 70.7951 44.9541C70.9138 44.9541 71.1514 44.8353 71.1514 44.5978C71.1514 44.9541 71.1514 45.1916 71.1514 45.5479C71.0326 46.8544 70.6763 48.1608 70.2012 49.3485ZM36.4707 27.3762C38.0147 29.7516 39.5587 32.0082 40.9839 34.5023C41.1027 34.7399 41.3402 35.0962 41.459 35.3337C41.5778 35.3337 41.6965 35.4525 41.6965 35.4525C43.1218 36.8777 44.7845 37.9467 46.4473 39.1344C46.4473 39.0156 46.4473 38.8968 46.4473 38.8968C44.1907 27.4949 39.2024 17.0432 34.0953 6.59151C33.739 5.87889 32.5513 6.35397 32.9076 7.06659C37.6584 16.9245 42.4092 26.9011 44.7845 37.7091C43.2405 36.5214 42.4092 34.5023 41.459 32.9583C40.0338 30.7017 38.6085 28.4451 37.0645 26.1885C33.9765 21.6752 30.651 17.2808 27.2067 13.0051C26.7316 12.4112 25.6627 13.1238 26.1377 13.7177C29.9384 18.1122 33.3827 22.6254 36.4707 27.3762ZM38.6085 37.234C37.4208 36.8777 36.1144 36.5214 34.9267 36.4027C31.9574 35.8088 28.8694 35.8088 25.7814 35.5713C19.7242 35.215 13.7857 32.9583 7.72846 32.8396C6.89708 32.8396 6.65954 34.146 7.49092 34.146C13.5482 34.2648 19.2491 36.4027 25.3063 36.759C28.2756 36.9965 31.2448 36.9965 34.0953 37.5904C36.3519 37.9467 38.7273 38.5405 40.8652 39.3719C32.195 41.6285 23.406 43.1725 14.3796 44.1227C13.5482 44.2414 13.6669 45.4291 14.4983 45.4291C23.8811 44.5978 33.1451 42.8162 42.2904 40.4408C41.1027 39.2531 39.7962 38.303 38.6085 37.234ZM41.6965 46.8544C32.6701 52.7929 23.7623 58.8501 14.7359 64.7886C14.0232 65.2636 14.8546 66.3326 15.4485 65.8575C24.475 59.919 33.3827 53.8618 42.4092 47.9233C43.2405 47.4482 42.4092 46.4981 41.6965 46.8544ZM46.2098 51.1301C38.1335 57.4249 30.5322 64.4323 23.7623 72.0335C23.1685 72.6274 24.2374 73.4587 24.7125 72.8649C31.4824 65.2636 38.8461 58.375 46.9224 52.0802C47.635 51.6052 46.9224 50.655 46.2098 51.1301ZM59.987 87.9486C57.1366 77.972 56.0677 67.639 54.9987 57.4249C54.88 56.5935 53.6923 56.7122 53.6923 57.5436C54.7612 67.8766 55.8301 78.3283 58.7994 88.4237C59.0369 89.1363 60.2246 88.78 59.987 87.9486ZM65.8068 86.8797C62.8375 77.7345 60.3434 68.4704 58.0867 59.0876C57.8492 58.2562 56.6615 58.375 56.7803 59.2064C59.0369 68.708 61.6498 77.972 64.6191 87.236C64.8566 88.0674 66.0443 87.5923 65.8068 86.8797ZM70.6763 77.2594C67.9446 71.5584 65.3317 65.9763 62.6 60.2753C62.2437 59.5627 61.056 60.0378 61.4123 60.7504C64.144 66.4513 66.7569 72.0335 69.4886 77.7345C69.8449 78.4471 71.0326 77.972 70.6763 77.2594ZM85.76 58.1375C81.9594 58.2562 78.04 58.375 74.2394 57.8999C70.4388 57.4249 66.6381 56.4747 63.0751 55.0495C62.3624 54.6932 61.7686 55.8809 62.6 56.2372C66.2818 57.7812 70.0825 58.7313 74.0019 59.2064C77.9212 59.6815 81.9594 59.4439 85.8788 59.4439C86.7102 59.4439 86.5914 58.1375 85.76 58.1375ZM90.9859 49.8236C82.672 50.2987 74.2394 50.1799 65.9255 49.4673C65.0941 49.3485 64.8566 50.655 65.688 50.7738C74.1206 51.6052 82.672 51.7239 91.1047 51.1301C91.9361 51.0113 91.8173 49.7048 90.9859 49.8236ZM78.9902 16.9245C75.6646 20.6063 72.4579 24.2882 69.1323 27.8513C66.2818 31.058 63.4314 34.2648 61.6498 38.1842C61.2935 38.8968 62.4812 39.4907 62.8375 38.6593C64.6191 34.7399 67.4695 31.5331 70.32 28.4451C73.5268 24.882 76.7336 21.3189 79.9403 17.7558C80.5342 17.162 79.4652 16.3306 78.9902 16.9245ZM73.408 12.8863C66.6381 18.8248 60.4621 25.4759 55.1175 32.7208C54.6424 33.4334 55.5926 34.146 56.0677 33.5522C61.4123 26.426 67.4695 19.8937 74.1206 13.9552C74.8332 13.3614 74.1206 12.2924 73.408 12.8863ZM87.6603 42.2224C80.1779 43.2913 72.5766 44.0039 65.0941 44.479C64.2628 44.479 64.3815 45.7854 65.2129 45.7854C72.8142 45.3104 80.2966 44.5978 87.7791 43.5288C88.6105 43.4101 88.4917 42.1036 87.6603 42.2224Z" fill="#F64E33"/>
<path d="M47.1599 38.8968C47.1599 38.778 47.2787 38.6593 47.1599 38.5405C47.1599 38.4217 47.1599 38.3029 47.0412 38.1842C47.0412 38.0654 46.9224 37.9466 46.8036 37.8279C46.6849 37.8279 46.6849 37.7091 46.5661 37.7091C46.4473 37.5903 46.2098 37.5903 46.091 37.5903C45.9722 37.5903 45.9722 37.5903 45.8535 37.7091C45.7347 37.8279 45.4972 37.8279 45.3784 38.0654C45.2596 38.1842 45.2596 38.3029 45.1409 38.4217V38.5405C45.1409 38.6593 45.1409 38.6593 45.0221 38.778C45.0221 38.8968 45.0221 38.8968 44.9033 39.0156V39.1343C44.9033 39.2531 44.9033 39.3719 44.9033 39.4906C44.9033 39.6094 44.9033 39.847 45.0221 39.9657C45.0221 40.0845 45.1409 40.2033 45.2596 40.322C45.3784 40.4408 45.4972 40.5596 45.6159 40.5596C45.7347 40.6783 45.8535 40.6783 45.9722 40.6783C46.091 40.6783 46.2098 40.6783 46.3286 40.6783C46.4473 40.6783 46.4473 40.5596 46.5661 40.5596C46.6849 40.4408 46.8036 40.322 46.9224 40.2033C46.9224 40.0845 46.9224 40.0845 47.0412 39.9657C47.0412 39.847 47.0412 39.7282 47.0412 39.6094V39.4906V39.3719C47.0412 39.3719 47.0412 39.3719 47.0412 39.4906C47.1599 39.1343 47.1599 39.0156 47.1599 38.8968Z" fill="black"/>
<path d="M61.1743 37.828C61.1743 37.7092 61.0555 37.5904 60.9367 37.4717L60.6992 37.3529C60.5804 37.2341 60.3429 37.2341 60.2241 37.2341C60.1053 37.2341 60.1053 37.2341 59.9866 37.3529C59.8678 37.4717 59.6303 37.4717 59.5115 37.7092C59.3927 37.9467 59.1552 38.1843 59.0364 38.4218C58.9176 38.5406 58.9177 38.6594 58.7989 38.7781C58.7989 38.8969 58.6801 39.0157 58.7989 39.1344C58.7989 39.2532 58.7989 39.372 58.9177 39.4908C58.9177 39.6095 59.0364 39.7283 59.1552 39.8471L59.3927 39.9658C59.5115 40.0846 59.749 40.0846 59.8678 40.0846C59.9866 40.0846 59.9866 40.0846 60.1053 39.9658C60.2241 39.8471 60.4617 39.8471 60.5804 39.6095C60.6992 39.372 60.9367 39.1344 61.0555 38.8969C61.1743 38.7781 61.1743 38.6594 61.293 38.5406C61.293 38.4218 61.4118 38.3031 61.293 38.1843C61.293 38.0655 61.1743 37.9468 61.1743 37.828Z" fill="black"/>
<path d="M62.956 44.3602C61.0557 47.9233 57.4926 49.4673 53.5732 49.9424C51.6729 50.1799 49.6538 50.2987 47.8723 49.5861C45.9719 48.8734 44.6655 47.4482 43.359 46.023C42.5276 45.0728 40.8649 46.2605 41.6962 47.2107C43.2402 48.8734 44.903 50.655 47.0409 51.3676C49.1787 52.199 51.5541 52.0802 53.8107 51.8427C58.4427 51.3676 62.5997 49.3485 64.8563 45.1916C65.4501 44.0039 63.5498 43.1725 62.956 44.3602Z" fill="black"/>
</svg>
