<svg width="185" height="108" viewBox="0 0 185 108" fill="none" xmlns="http://www.w3.org/2000/svg">
<path d="M104.975 107.73C104.466 107.751 103.836 107.698 103.326 107.718C99.1092 107.298 95.3669 105.015 92.7766 101.115C89.418 96.166 88.3778 89.3185 90.02 83.7766C92.883 73.9265 101.399 67.0293 109.347 61.6073C109.883 61.2717 110.419 60.9362 110.932 60.5034C103.675 51.3538 92.6396 44.8681 80.642 43.7597C71.1653 42.8641 61.6404 45.1698 53.0924 49.8111C58.7077 61.1071 60.0371 74.6752 55.3653 86.4035C52.8688 92.6667 47.9046 98.0868 42.5764 100.303C39.1214 101.756 35.6286 101.779 32.4131 100.396C29.1977 99.014 26.8161 96.401 25.5568 92.8989C23.4648 87.232 24.3746 79.0894 27.7725 72.2994C32.5527 62.2939 40.3509 54.1301 49.4145 48.6437C45.1527 41.2385 38.8201 35.0548 31.0612 31.4799C11.5536 22.7236 -14.0533 31.7002 -23.7518 50.7157C-24.0966 51.4165 -24.8741 51.6047 -25.5749 51.2599C-26.2757 50.9151 -26.4639 50.1375 -26.1191 49.4367C-15.8784 29.2611 11.4309 19.6667 32.1222 29.0624C40.4376 32.8112 47.1795 39.4103 51.6797 47.3751C60.6901 42.5189 70.8217 40.1693 80.7107 41.068C93.5563 42.2798 105.316 49.2075 113.029 58.9669C119.66 54.4809 126.438 49.7536 130.684 43.0669C131.052 42.4633 131.927 42.2516 132.53 42.6199C133.134 42.9882 133.346 43.8629 132.977 44.4665C128.51 51.5154 121.464 56.4105 114.663 61.0407C119.511 67.8924 122.385 75.9421 122.421 84.1645C122.439 91.4652 119.447 99.0829 114.539 103.46C111.705 106.204 108.445 107.611 104.975 107.73ZM112.468 62.6008C111.932 62.9363 111.322 63.3926 110.786 63.7282C103.278 68.8381 95.1767 75.3262 92.5378 84.4018C91.046 89.29 92.0688 95.2156 94.9476 99.4574C97.1553 102.627 100.197 104.566 103.566 104.882C106.838 105.222 110.048 104.033 112.735 101.531C116.936 97.6331 119.777 90.6691 119.753 84.1931C119.64 76.5036 116.907 69.0371 112.468 62.6008ZM50.7066 51.006C42.1054 56.2776 34.7962 63.9115 30.0928 73.3839C27.0397 79.4732 26.2568 86.8649 27.9662 91.8013C28.9636 94.6465 30.7917 96.6732 33.3299 97.8079C35.8681 98.9426 38.5363 98.9141 41.3344 97.7223C46.0059 95.7684 50.4073 90.999 52.6327 85.3159C57.1541 74.2413 55.9627 61.6687 50.7066 51.006Z" fill="#D9D9D9"/>
<path d="M146.756 27.8586L145.733 38.0862L154.211 33.1533C154.523 33.5922 154.835 34.0311 155.05 34.4935L161.025 43.0272L184.576 0.904053L125.838 26.0285L146.756 27.8586Z" fill="#FF2E3A"/>
<path d="M170.383 11.1302L152.799 27.3217L154.667 33.7631L146.491 27.6141L170.383 11.1302Z" fill="#C61D1D"/>
<path d="M146.491 27.6141L154.187 33.0561L143.73 40.0116L146.491 27.6141Z" fill="#C61D1D"/>
</svg>
