<svg width="183" height="121" viewBox="0 0 183 121" fill="none" xmlns="http://www.w3.org/2000/svg">
<path d="M16.4832 39.6345C23.6483 35.8815 32.69 35.7109 39.0021 40.658C37.8079 30.9344 45.1437 20.8695 54.8677 19.1636C64.5918 17.4577 74.9983 24.1108 77.2161 33.6638C76.5337 21.3813 84.04 9.09881 94.9583 3.63993C105.877 -1.98955 119.866 -0.966011 130.101 5.8576C141.02 13.0224 146.991 25.3049 147.673 38.0992C156.032 38.7815 163.539 40.8286 170.021 46.4581C181.451 56.5229 187.934 74.2643 178.381 88.7645C170.021 101.388 153.985 104.118 141.361 99.3411C136.243 110.429 124.642 117.594 112.7 119.812C101.612 122.03 86.0872 121.518 76.5337 115.035C69.3686 110.259 64.4212 102.241 63.227 93.8822C52.4794 97.294 41.0493 99.6823 29.7898 98.3175C17.5068 96.7822 3.00595 89.1057 0.446982 75.7996C-1.60019 64.0289 3.51774 49.1875 13.0712 41.6816C14.0948 40.9992 15.289 40.1462 16.4832 39.6345Z" fill="white"/>
</svg>
