<svg width="123" height="81" viewBox="0 0 123 81" fill="none" xmlns="http://www.w3.org/2000/svg">
<path d="M31.729 46.6178C31.729 46.6178 25.3531 48.231 22.6645 44.0828C19.9759 39.9347 18.6699 35.4792 19.6686 34.4038C20.6672 33.3283 30.3463 31.7919 32.6509 33.1747C34.9554 34.5574 35.8004 37.8606 35.8004 37.8606C35.8004 37.8606 33.1118 43.3915 31.729 46.6178Z" fill="#FFBF00"/>
<path d="M40.3327 31.0239C40.3327 31.0239 33.2655 31.408 31.9596 27.6439C30.6537 23.8798 30.5 18.6561 31.1914 16.9661C31.8828 15.2761 38.7964 16.5052 41.9459 17.043C45.0955 17.6575 46.1709 25.8002 46.1709 25.8002C46.1709 25.8002 42.8677 27.7975 40.3327 31.0239Z" fill="#FFBF00"/>
<path d="M52.6245 22.497C52.6245 22.497 47.0167 16.4284 47.0936 14.8152C47.1704 13.1252 50.6272 5.82749 52.1636 4.36794C53.6231 2.9084 60.9208 8.36249 62.0731 10.2829C63.3022 12.2034 61.3049 20.8838 60.9208 21.3448C60.9976 21.2679 56.3886 20.807 52.6245 22.497Z" fill="#FFBF00"/>
<path d="M69.5242 22.881C69.5242 22.881 66.7588 15.6601 66.9124 13.0483C67.0661 10.4365 72.7506 6.28833 75.6697 6.28833C78.5888 6.28833 81.2774 13.5092 81.5079 15.5833C81.8151 17.6574 74.9015 25.3392 74.9015 25.3392L69.5242 22.881Z" fill="#FFBF00"/>
<path d="M83.4277 29.3339C83.4277 29.3339 83.5814 23.1116 84.3495 22.113C85.1177 21.0375 90.1109 19.8084 91.4168 20.1925C92.6459 20.4998 93.4909 25.3393 92.9532 27.183C92.4155 28.9498 87.1918 31.1775 87.1918 31.1775L83.4277 29.3339Z" fill="#FFBF00"/>
<path d="M48.1689 61.8278C48.1689 61.8278 54.8521 69.2792 56.3117 73.3505C57.7712 77.4219 63.1485 76.116 65.6067 75.1174C68.0648 74.1187 70.4462 73.1201 70.1389 70.7387C69.8317 68.3574 66.0676 59.6001 66.298 55.6824" fill="#0BD260"/>
<path d="M79.2031 50.1516C79.2031 50.1516 85.8863 57.6029 87.3458 61.6743C88.8054 65.7456 94.1827 64.4397 96.6408 63.4411C99.099 62.4425 101.48 61.4438 101.173 59.0625C100.866 56.6811 97.1017 47.9238 97.3322 44.0061" fill="#0BD260"/>
<path d="M93.5675 51.5343C92.5689 51.7647 91.5703 51.9184 90.5716 52.1488C84.8871 53.3779 79.1257 54.607 73.518 56.0665C72.3657 56.3738 71.2135 56.6811 70.0612 57.0652C68.5248 57.5261 67.0653 57.987 65.5289 58.4479C64.223 58.9088 62.9171 59.3697 61.6112 59.8306C55.2353 62.2888 49.1667 65.3615 43.8662 69.5097C44.8648 69.1256 45.4026 68.8952 45.4026 68.8952C49.7812 66.8211 55.0817 65.4383 60.9967 64.0556C62.3026 63.7484 63.6853 63.4411 65.068 63.1338C66.5276 62.8265 68.0639 62.4424 69.5235 62.1352C70.7526 61.8279 71.9816 61.5206 73.2107 61.2134C78.2039 59.9843 83.3507 58.4479 88.5744 56.3738C89.1889 56.1434 89.8035 55.8361 90.3412 55.6056C91.4935 55.0679 92.5689 54.5302 93.5675 53.9924C95.7953 52.7634 97.6389 51.5343 99.1753 50.3052C97.4085 50.7661 95.488 51.1502 93.5675 51.5343Z" fill="#00BC50"/>
<path d="M103.632 1.52566C97.5629 3.83021 92.6466 8.74657 94.2597 16.9661C95.8729 25.1856 101.865 28.1047 95.5657 32.2529C89.2666 36.4011 68.9866 16.5052 53.2389 22.1897C37.4911 27.9511 34.4184 41.087 29.4252 51.6111C24.4321 62.1352 7.14798 58.6784 3.46071 57.6029C-0.226561 56.5274 -2.68474 63.8252 14.9066 69.4329C28.8875 73.8883 39.9493 70.8924 43.867 69.4329C59.077 57.6029 79.8179 54.4534 99.2529 50.2284C105.706 44.9279 106.474 39.1665 107.703 34.4806C109.393 27.8743 109.009 28.1047 110.468 27.0293C111.928 25.9538 122.99 26.2611 122.682 13.202C122.375 0.296575 109.7 -0.702062 103.632 1.52566Z" fill="#0BD260"/>
<path d="M41.4092 66.2834C41.4092 66.2834 48.0924 73.7347 49.5519 77.8061C51.0114 81.8775 56.3887 80.5716 58.8469 79.5729C61.3051 78.5743 63.6864 77.5757 63.3792 75.1943C63.0719 72.8129 59.3078 64.0557 59.5383 60.1379" fill="#0BD260"/>
<path d="M72.4434 54.6838C72.4434 54.6838 79.1265 62.1351 80.5861 66.2065C82.0456 70.2779 87.4229 68.972 89.8811 67.9733C92.3393 66.9747 94.7206 65.976 94.4133 63.5947C94.1061 61.2133 90.342 52.4561 90.5724 48.5383" fill="#0BD260"/>
<path d="M50.6641 31.9175C52.889 31.0841 54.4032 29.6354 54.046 28.6819C53.6888 27.7283 51.5955 27.6309 49.3706 28.4644C47.1456 29.2978 45.6315 30.7465 45.9887 31.7C46.3459 32.6536 48.4391 32.7509 50.6641 31.9175Z" fill="white"/>
<path d="M63.6301 28.9762C65.8551 28.1428 67.3692 26.6942 67.012 25.7406C66.6549 24.7871 64.5616 24.6897 62.3366 25.5231C60.1117 26.3566 58.5976 27.8052 58.9547 28.7588C59.3119 29.7123 61.4052 29.8097 63.6301 28.9762Z" fill="white"/>
<path d="M45.6295 39.4649C47.179 38.8845 48.2301 37.8664 47.977 37.1909C47.724 36.5155 46.2628 36.4385 44.7133 37.0189C43.1637 37.5994 42.1127 38.6174 42.3657 39.2929C42.6187 39.9683 44.08 40.0453 45.6295 39.4649Z" fill="white"/>
<path d="M51.78 41.6087C53.0116 41.1473 53.805 40.2257 53.552 39.5503C53.299 38.8749 52.0954 38.7013 50.8637 39.1627C49.6321 39.6241 48.8387 40.5456 49.0917 41.2211C49.3447 41.8965 50.5483 42.07 51.78 41.6087Z" fill="white"/>
<path d="M56.0838 35.5583C57.3154 35.0969 58.1088 34.1753 57.8558 33.4999C57.6028 32.8245 56.3992 32.6509 55.1675 33.1123C53.9359 33.5737 53.1425 34.4952 53.3955 35.1707C53.6485 35.8461 54.8521 36.0196 56.0838 35.5583Z" fill="white"/>
<path d="M66.248 33.2905C67.9962 32.6356 69.16 31.4284 68.8475 30.594C68.535 29.7596 66.8644 29.6141 65.1162 30.269C63.368 30.9238 62.2042 32.1311 62.5168 32.9654C62.8293 33.7998 64.4999 33.9453 66.248 33.2905Z" fill="white"/>
<path d="M117.306 16.2748C117.942 16.2748 118.458 15.7589 118.458 15.1225C118.458 14.4861 117.942 13.9702 117.306 13.9702C116.669 13.9702 116.153 14.4861 116.153 15.1225C116.153 15.7589 116.669 16.2748 117.306 16.2748Z" fill="#35343D"/>
</svg>
