<svg width="1920" height="91" viewBox="0 0 1920 91" fill="none" xmlns="http://www.w3.org/2000/svg">
<path d="M648 145.815C644.985 119.387 622.182 98.8734 594.479 98.8734C591.087 98.8734 587.884 99.243 584.68 99.7975C579.403 94.2532 572.807 89.8177 565.458 87.0456C565.835 84.643 566.023 82.0557 566.023 79.4683C566.023 50.2683 541.901 26.6127 512.126 26.6127C493.657 26.6127 477.262 35.8532 467.651 49.7139C461.62 47.4962 455.024 46.2025 448.052 46.2025C428.641 46.2025 411.68 56.1823 402.069 71.3367C399.242 72.2608 396.604 73.3696 393.966 74.8481C387.747 64.6835 378.136 56.5519 366.452 52.3013C357.029 36.962 339.88 26.7975 320.281 26.7975C305.016 26.7975 291.259 33.081 281.459 43.0608C276.748 41.7671 271.66 41.0278 266.383 41.0278C248.857 41.0278 233.404 49.1595 223.604 61.7266C214.747 55.443 203.817 51.562 191.944 51.562C187.61 51.562 183.464 52.1165 179.318 53.0405C169.519 41.5823 154.631 34.1899 138.047 34.1899C114.679 34.1899 94.8912 48.7899 87.3531 69.119C74.7268 58.9544 58.5198 52.8557 40.9937 52.8557C9.89905 52.8557 -16.6728 71.8911 -27.4146 98.5038C-30.053 81.5013 -44.7523 68.3797 -62.4668 68.3797C-65.6705 68.3797 -68.6858 68.7494 -71.5125 69.4886C-71.5125 69.119 -71.5125 68.7494 -71.5125 68.3797C-71.5125 48.9747 -87.7195 33.081 -107.507 33.081C-118.626 33.081 -128.614 38.0709 -135.21 45.8329C-135.963 45.4633 -136.717 45.0937 -137.471 44.724C-137.283 43.4304 -137.283 42.1367 -137.283 40.6582C-137.283 18.2962 -155.751 0 -178.742 0C-197.587 0 -213.417 12.3823 -218.694 29.2C-223.594 26.9823 -229.248 25.6886 -235.09 25.6886C-255.442 25.6886 -272.215 40.6582 -274.853 60.0633C-275.795 60.0633 -276.738 59.8785 -277.868 59.8785C-301.236 59.8785 -320.27 78.7291 -320.27 101.646C-320.27 105.342 -319.705 108.853 -318.763 112.365C-331.766 116.615 -341 128.628 -341 142.673C-341 143.782 -341 144.891 -340.812 146H648V145.815Z" fill="white"/>
<path d="M459 145.825C462.015 120.846 484.818 101.456 512.521 101.456C515.913 101.456 519.116 101.805 522.32 102.329C527.597 97.0886 534.193 92.8962 541.542 90.2759C541.165 88.0051 540.977 85.5595 540.977 83.1139C540.977 55.5139 565.099 33.1544 594.874 33.1544C613.343 33.1544 629.738 41.8886 639.349 54.9899C645.38 52.8937 651.976 51.6709 658.948 51.6709C678.359 51.6709 695.32 61.1038 704.931 75.4278C707.758 76.3013 710.396 77.3494 713.034 78.7468C719.253 69.1392 728.864 61.4532 740.548 57.4354C749.971 42.9367 767.12 33.3291 786.719 33.3291C801.984 33.3291 815.741 39.2683 825.541 48.7013C830.252 47.4785 835.34 46.7797 840.617 46.7797C858.143 46.7797 873.596 54.4658 883.396 66.3443C892.253 60.4051 903.183 56.7367 915.056 56.7367C919.39 56.7367 923.536 57.2608 927.682 58.1342C937.481 47.3038 952.369 40.3165 968.953 40.3165C992.321 40.3165 1012.11 54.1165 1019.65 73.3316C1032.27 63.7241 1048.48 57.9595 1066.01 57.9595C1097.1 57.9595 1123.67 75.9519 1134.41 101.106C1137.05 85.0354 1151.75 72.6329 1169.47 72.6329C1172.67 72.6329 1175.69 72.9823 1178.51 73.681C1178.51 73.3316 1178.51 72.9823 1178.51 72.6329C1178.51 54.2911 1194.72 39.2684 1214.51 39.2684C1225.63 39.2684 1235.61 43.9848 1242.21 51.3215C1242.96 50.9721 1243.72 50.6228 1244.47 50.2734C1244.28 49.0506 1244.28 47.8278 1244.28 46.4304C1244.28 25.2937 1262.75 8 1285.74 8C1304.59 8 1320.42 19.7038 1325.69 35.6C1330.59 33.5038 1336.25 32.281 1342.09 32.281C1362.44 32.281 1379.21 46.4304 1381.85 64.7722C1382.8 64.7722 1383.74 64.5975 1384.87 64.5975C1408.24 64.5975 1427.27 82.4152 1427.27 104.076C1427.27 107.57 1426.7 110.889 1425.76 114.208C1438.77 118.225 1448 129.58 1448 142.856C1448 143.904 1448 144.952 1447.81 146H459V145.825Z" fill="white"/>
<path d="M1290 145.825C1293.02 120.846 1315.82 101.456 1343.52 101.456C1346.91 101.456 1350.12 101.805 1353.32 102.329C1358.6 97.0886 1365.19 92.8962 1372.54 90.2759C1372.17 88.0051 1371.98 85.5595 1371.98 83.1139C1371.98 55.5139 1396.1 33.1544 1425.87 33.1544C1444.34 33.1544 1460.74 41.8886 1470.35 54.9899C1476.38 52.8937 1482.98 51.6709 1489.95 51.6709C1509.36 51.6709 1526.32 61.1038 1535.93 75.4278C1538.76 76.3013 1541.4 77.3494 1544.03 78.7468C1550.25 69.1392 1559.86 61.4532 1571.55 57.4354C1580.97 42.9367 1598.12 33.3291 1617.72 33.3291C1632.98 33.3291 1646.74 39.2683 1656.54 48.7013C1661.25 47.4785 1666.34 46.7797 1671.62 46.7797C1689.14 46.7797 1704.6 54.4658 1714.4 66.3443C1723.25 60.4051 1734.18 56.7367 1746.06 56.7367C1750.39 56.7367 1754.54 57.2608 1758.68 58.1342C1768.48 47.3038 1783.37 40.3165 1799.95 40.3165C1823.32 40.3165 1843.11 54.1165 1850.65 73.3316C1863.27 63.7241 1879.48 57.9595 1897.01 57.9595C1928.1 57.9595 1954.67 75.9519 1965.41 101.106C1968.05 85.0354 1982.75 72.6329 2000.47 72.6329C2003.67 72.6329 2006.69 72.9823 2009.51 73.681C2009.51 73.3316 2009.51 72.9823 2009.51 72.6329C2009.51 54.2911 2025.72 39.2684 2045.51 39.2684C2056.63 39.2684 2066.61 43.9848 2073.21 51.3215C2073.96 50.9721 2074.72 50.6228 2075.47 50.2734C2075.28 49.0506 2075.28 47.8278 2075.28 46.4304C2075.28 25.2937 2093.75 8 2116.74 8C2135.59 8 2151.42 19.7038 2156.69 35.6C2161.59 33.5038 2167.25 32.281 2173.09 32.281C2193.44 32.281 2210.21 46.4304 2212.85 64.7722C2213.8 64.7722 2214.74 64.5975 2215.87 64.5975C2239.24 64.5975 2258.27 82.4152 2258.27 104.076C2258.27 107.57 2257.71 110.889 2256.76 114.208C2269.77 118.225 2279 129.58 2279 142.856C2279 143.904 2279 144.952 2278.81 146H1290V145.825Z" fill="white"/>
</svg>
