<svg width="65" height="61" viewBox="0 0 65 61" fill="none" xmlns="http://www.w3.org/2000/svg">
<path d="M28.8004 18.5221C28.8476 14.4528 29.0361 9.72878 31.6279 6.36112C32.8532 4.77084 34.3612 4.91116 35.822 5.79985C37.8013 7.01594 39.0737 9.63523 39.592 12.2077C40.3932 16.1367 39.2622 20.2995 37.3772 23.7607C38.9323 24.509 40.4874 25.2574 42.0425 26.0058C43.0322 21.7027 46.0953 17.914 49.8181 15.5286C52.9284 13.5174 56.934 12.5819 58.9603 16.3705C62.6361 23.1994 52.41 34.612 45.1999 30.8234C44.4459 32.3669 43.6919 33.9104 42.9379 35.4539C46.8964 36.67 50.1009 39.7102 52.2215 43.2182C54.0594 46.3052 55.1904 50.6551 52.2686 53.4615C45.4826 59.9162 32.6176 51.8712 35.0681 43.0779C33.3716 42.9843 31.6751 42.8908 30.0257 42.7973C31.2038 46.4455 30.3084 50.1406 27.2925 52.6196C24.088 55.2856 20.4594 53.1809 18.056 50.6083C14.5687 46.8197 16.0296 38.0264 22.1087 38.2135C21.2605 37.278 20.4594 36.3894 19.6111 35.4539C19.6111 35.6878 19.564 35.9684 19.564 36.2023C20.0352 35.4539 20.5065 34.7523 20.9777 34.0039C13.3906 38.0732 3.35303 30.1218 5.66215 21.9833C6.65177 18.5221 9.47926 16.6044 13.0607 16.9786C16.8779 17.3528 19.941 20.6736 21.0248 24.1348C22.0616 27.3154 27.1982 26.2396 26.1615 23.0123C24.2765 17.0721 19.6582 12.6287 13.3435 11.74C6.93452 10.8513 1.84504 15.5286 0.384166 21.422C-1.2652 28.1105 2.59903 34.612 8.34826 37.9796C11.1286 39.6167 14.3802 40.5054 17.6319 40.3183C20.6479 40.1312 24.6063 39.2893 24.7948 35.7813C24.8891 34.3781 23.7581 33.0685 22.2972 33.0217C11.1758 32.7411 7.68852 47.1939 14.3802 54.4437C18.433 58.8404 24.5121 60.7113 29.7429 57.2501C34.7853 53.8825 36.953 47.4278 35.0681 41.7215C34.3141 39.4764 30.7797 38.728 30.0257 41.4408C28.2821 47.6149 31.2509 53.4615 35.9634 57.4372C41.1472 61.8339 48.7343 62.1613 54.3421 58.4194C66.2176 50.468 54.8134 33.6765 44.5873 30.5427C41.854 29.7008 39.592 33.7701 42.3253 35.1733C53.8237 41.2537 68.8566 26.7541 64.097 15.0141C61.5051 8.653 55.2375 7.34336 49.2998 9.91587C43.5976 12.4416 38.5082 18.2882 37.0944 24.3687C36.4818 27.0348 40.2518 29.4202 41.7598 26.6138C45.9068 18.9431 47.2263 6.31435 38.2254 1.16932C34.9267 -0.701594 31.0153 -0.327411 28.2821 2.29188C24.1822 6.2208 23.6167 12.9093 23.5696 18.2415C23.5225 21.6091 28.7533 21.8897 28.8004 18.5221Z" fill="#75C137"/>
</svg>
