<svg width="219" height="151" viewBox="0 0 219 151" fill="none" xmlns="http://www.w3.org/2000/svg">
<path d="M118.976 123.73C118.466 123.751 117.836 123.698 117.327 123.718C113.11 123.298 109.367 121.015 106.777 117.115C103.419 112.166 102.378 105.319 104.021 99.7766C106.884 89.9265 115.4 83.0293 123.347 77.6073C123.883 77.2718 124.419 76.9362 124.932 76.5035C117.676 67.3538 106.64 60.8681 94.6425 59.7597C85.1658 58.8642 75.6409 61.1698 67.093 65.8112C72.7082 77.1071 74.0377 90.6752 69.3659 102.404C66.8693 108.667 61.9052 114.087 56.5769 116.303C53.1219 117.756 49.6291 117.779 46.4137 116.396C43.1982 115.014 40.8166 112.401 39.5573 108.899C37.4653 103.232 38.3752 95.0895 41.773 88.2994C46.5532 78.2939 54.3514 70.1301 63.415 64.6437C59.1532 57.2385 52.8206 51.0548 45.0617 47.4799C25.5541 38.7237 -0.0528035 47.7002 -9.75125 66.7157C-10.0961 67.4165 -10.8736 67.6047 -11.5744 67.2599C-12.2752 66.9151 -12.4634 66.1376 -12.1186 65.4368C-1.87788 45.2611 25.4314 35.6667 46.1228 45.0624C54.4382 48.8113 61.18 55.4104 65.6802 63.3752C74.6906 58.519 84.8222 56.1694 94.7112 57.068C107.557 58.2798 119.317 65.2075 127.029 74.9669C133.66 70.481 140.438 65.7536 144.684 59.0669C145.053 58.4633 145.927 58.2516 146.531 58.6199C147.134 58.9883 147.346 59.863 146.978 60.4666C142.511 67.5154 135.465 72.4106 128.663 77.0407C133.511 83.8924 136.386 91.9421 136.421 100.165C136.439 107.465 133.448 115.083 128.54 119.46C125.706 122.204 122.445 123.611 118.976 123.73ZM126.469 78.6008C125.933 78.9364 125.323 79.3926 124.787 79.7282C117.278 84.8382 109.177 91.3262 106.538 100.402C105.047 105.29 106.069 111.216 108.948 115.457C111.156 118.627 114.197 120.566 117.566 120.882C120.838 121.222 124.049 120.033 126.735 117.531C130.936 113.633 133.777 106.669 133.753 100.193C133.641 92.5037 130.908 85.0372 126.469 78.6008ZM64.7071 67.006C56.1059 72.2776 48.7968 79.9115 44.0933 89.384C41.0402 95.4732 40.2573 102.865 41.9667 107.801C42.9641 110.647 44.7922 112.673 47.3304 113.808C49.8686 114.943 52.5368 114.914 55.335 113.722C60.0064 111.768 64.4079 106.999 66.6333 101.316C71.1547 90.2413 69.9632 77.6687 64.7071 67.006Z" fill="#D9D9D9"/>
<path d="M160.756 43.8586L159.734 54.0862L168.211 49.1533C168.523 49.5922 168.835 50.0311 169.05 50.4935L175.026 59.0272L198.576 16.904L139.839 42.0285L160.756 43.8586Z" fill="#2EB4FF"/>
<path d="M184.384 27.1302L166.8 43.3217L168.668 49.763L160.491 43.6141L184.384 27.1302Z" fill="#0283CC"/>
<path d="M160.491 43.6141L168.188 49.0561L157.731 56.0116L160.491 43.6141Z" fill="#0283CC"/>
</svg>
