<svg width="118" height="110" viewBox="0 0 118 110" fill="none" xmlns="http://www.w3.org/2000/svg">
<g opacity="0.15">
<path d="M61.4085 108.226C61.3168 107.787 60.9422 107.318 60.6008 106.565C59.5938 106.6 58.7116 106.791 57.7045 106.826C55.5322 107.021 55.2492 106.991 55.5484 104.447C52.9431 103.451 50.3046 102.737 47.6993 101.741C47.0085 101.524 46.6923 101.776 45.9682 101.841C43.9208 102.193 42.4807 101.036 40.8825 100.006C39.1594 98.8182 37.6277 97.222 36.0628 95.9086C33.3075 93.7513 30.4273 91.4375 27.1976 89.6586C25.5994 88.6278 24.3759 88.0667 24.7999 85.6792C22.5612 86.4401 21.7203 85.0614 20.7213 83.8089C16.817 79.2379 14.1444 73.9408 11.9461 68.2653C11.6047 67.513 11.1052 66.8867 10.6057 66.2604C10.356 65.9473 10.2643 65.508 10.0146 65.1949C9.33995 62.4029 8.94827 59.6413 8.2736 56.8493C7.69057 54.4965 6.98267 51.9871 6.55775 49.5082C6.37449 48.6298 6.47421 47.7817 6.57394 46.9337C6.67366 46.0857 6.80663 44.955 6.90635 44.107C7.19743 42.8502 6.69793 42.2239 5.283 42.0716C7.13817 37.2619 7.98626 32.4869 10.0912 27.9903C11.2061 25.8203 11.6301 23.4328 12.0542 21.0453C12.8609 17.8402 14.2004 14.9788 16.1059 12.1782C18.0113 9.3777 19.7919 6.42059 21.9804 3.65052C23.3118 2.07633 25.2343 1.56766 26.7822 0.589275C27.2565 0.210959 28.9544 0.393737 29.2042 0.706874C30.1367 2.52477 31.7097 2.55098 33.3744 3.01644C35.3221 3.51235 36.7289 4.95193 38.0441 5.95227C41.0824 8.13998 43.9626 10.4538 46.876 12.4849C48.4742 13.5157 50.3886 14.2943 51.8287 15.4512C55.8992 18.6088 59.9697 21.7664 64.1651 25.0806C64.9476 25.7373 65.9214 25.9853 66.7039 26.642C69.1762 28.7688 71.6485 30.8956 73.996 32.8658C80.0393 37.5239 86.2075 42.3385 92.0927 47.1227C96.0383 50.1237 99.8259 53.2509 103.613 56.378C106.369 58.5352 108.841 60.662 111.596 62.8193C112.945 63.5369 114.293 64.2546 115.325 65.2245C115.7 65.6942 116.166 66.6031 115.975 67.0119C115.11 69.495 113.837 71.7911 112.847 74.1177C112.622 74.8092 111.99 75.3136 111.357 75.818C111.008 76.3529 110.533 76.7312 110.467 77.2966C110.16 81.1279 107.064 83.0847 104.751 85.6982C100.981 89.7293 96.9284 93.73 92.8758 97.7306C92.2101 98.5177 91.1366 99.1178 90.2211 99.5917C88.5151 100.696 86.6842 101.644 84.9782 102.749C84.0628 103.223 82.8643 103.666 83.106 105.266C83.2309 105.423 82.7565 105.801 82.3154 105.897C80.3929 106.406 78.5952 107.071 76.6727 107.58C75.3494 107.867 74.2175 107.745 72.9526 108.754C72.162 109.384 71.03 109.262 70.88 108.101C70.6051 106.783 69.7229 106.975 68.9988 107.04C66.5436 107.205 64.0551 107.653 61.4085 108.226ZM34.8276 77.1692C34.6695 77.2953 34.5114 77.4214 34.3532 77.5475C35.3522 78.8 36.035 80.3048 37.1921 81.4313C37.5667 81.901 38.607 81.5836 39.3311 81.5184C39.6141 81.5489 39.739 81.7054 40.022 81.7359C42.5607 83.2973 44.9082 85.2675 47.6051 86.7029C50.4269 88.2948 53.4068 89.7605 56.2285 91.3524C57.9849 92.2571 60.0574 92.9096 61.8137 93.8143C63.4452 94.5625 64.8268 94.9974 66.841 94.928C71.7183 94.8805 75.946 93.0456 80.0821 90.7715C82.6703 89.4757 85.1337 88.0234 87.597 86.571C88.5125 86.0971 89.2698 85.7492 90.0604 85.1187C92.8148 82.4095 95.6025 79.4177 98.232 76.552C99.3721 75.3866 100.229 74.1907 101.119 72.7122C102.867 70.0377 104.739 67.5199 106.203 64.815C106.553 64.2801 106.311 62.6797 105.654 62.1795C104.122 60.5834 102.274 59.2394 100.551 58.0521C98.578 56.5516 96.6052 55.0511 94.6324 53.5505C91.2195 50.8931 87.8398 47.953 84.4269 45.2956C80.5145 42.0119 76.6021 38.7282 72.5316 35.5707C69.5266 33.1003 66.5215 30.6299 63.167 28.6944C60.3452 27.1025 57.3653 25.6367 54.7682 23.3534C52.0461 20.9134 49.1327 18.8823 46.2525 16.5685C42.3401 13.2848 37.5374 11.4797 33.7832 8.06986C33.6583 7.91329 33.2172 8.00893 32.8093 7.8219C31.2201 10.3702 29.4727 13.0446 28.0084 15.7495C26.9267 17.6369 25.8118 19.8069 25.421 21.9117C23.7743 28.6045 22.6935 35.3582 20.9219 41.8944C19.117 48.7133 19.9587 54.9584 22.9728 61.0079C24.3715 63.7347 25.8035 66.1789 27.0441 69.0319C28.5345 72.198 31.1982 73.916 33.8286 75.9166C35.2687 77.0735 35.9263 77.5737 36.6091 79.0785C36.0179 78.013 35.4852 77.6693 34.8276 77.1692ZM109.849 65.4937C109.15 66.5635 108.484 67.3506 108.102 68.1681C107.403 69.2379 106.704 70.3076 106.005 71.3774C103.467 74.6824 101.054 78.1439 98.2329 81.4184C96.0777 83.9058 93.5146 86.2062 90.8267 88.35C88.455 90.2415 85.7419 91.3807 83.1204 92.9592C77.2783 96.3378 70.845 98.6509 63.9536 98.7678C59.8004 98.7501 55.6805 98.4498 52.0762 96.2011C49.5375 94.6397 46.8738 92.9217 44.3682 91.0776C41.3299 88.8899 38.6079 86.45 35.7277 84.1361C33.3803 82.1659 30.7166 80.4479 29.1598 77.8472C28.6935 76.9382 28.0691 76.1554 27.6029 75.2464C25.2635 71.989 23.0491 68.8881 20.7097 65.6306C20.5849 65.474 20.4932 65.0348 20.3684 64.8782C19.3523 61.3338 18.0533 57.7589 17.1954 54.0884C16.3958 51.1398 16.0374 48.0956 16.5612 44.86C17.376 40.3677 17.4668 35.9406 17.9986 31.4178C18.0983 30.5698 18.6392 29.6261 19.1468 28.9651C20.4449 27.6736 21.0522 26.1646 21.4098 24.3424C21.576 22.9291 21.9003 21.3896 22.7241 20.4764C25.1039 17.2975 25.1614 13.153 28.1989 10.4744C29.4638 9.46553 29.9794 7.51727 30.903 5.75604C29.8375 5.06884 28.9302 4.25553 27.7398 3.41177C24.5362 7.50382 21.5239 11.1871 18.6698 14.7443C16.6727 17.1055 15.3332 19.967 14.5597 22.8894C13.0792 28.1688 11.5986 33.4482 10.401 38.7581C9.49456 42.8112 9.59516 46.8296 10.9858 50.8437C12.8679 56.7713 14.7499 62.699 16.4739 68.7527C17.5816 72.7364 19.9209 75.9939 22.7346 78.873C25.5483 81.7522 28.3952 84.3487 31.2089 87.2279C32.8655 88.9806 33.7315 91.3638 36.2451 91.9207C36.653 92.1077 36.9028 92.4208 37.2774 92.8905C39.9662 95.6131 43.9612 95.7569 46.8747 97.7881C47.8153 98.3187 49.2302 98.471 50.1708 99.0017C52.7428 100.28 55.473 101.433 58.5526 102.051C59.8094 102.329 61.0662 102.608 62.0068 103.138C64.171 104.23 66.31 104.317 68.6404 103.996C69.3645 103.93 69.9637 103.709 70.5297 103.77C77.263 103.779 82.7889 100.652 88.065 97.2127C90.7197 95.3516 93.3744 93.4905 94.7804 90.0637C94.8137 89.781 95.288 89.4027 95.571 89.4332C96.7029 89.555 96.8943 89.1462 97.1521 88.1721C97.3767 87.4807 98.1673 86.8501 98.6749 86.1891C100.639 84.1105 102.852 82.345 104.533 80.236C106.722 77.4659 108.502 74.5088 110.566 71.5822C111.265 70.5124 112.247 69.4731 113.262 68.1511C112.263 66.8985 111.197 66.2113 109.849 65.4937ZM52.733 91.8349C52.8911 91.7088 52.9243 91.4261 53.0824 91.3C52.2667 90.926 51.8005 90.017 50.5688 90.7432C51.2596 90.9607 52.0754 91.3347 52.733 91.8349Z" fill="black"/>
<path d="M97.5797 105.25C98.4116 103.05 99.743 101.476 101.324 100.214C102.273 99.4578 102.905 98.9534 103.604 97.8836C104.811 96.1529 106.267 94.7352 107.756 93.0349C108.231 92.6566 108.705 92.2783 109.146 92.1827C111.036 91.9567 112.392 91.3871 113.066 89.3127C113.224 89.1866 113.382 89.0605 113.54 88.9344C113.698 88.8083 113.823 88.9648 114.356 89.3084C113.308 90.9131 113.732 93.392 110.869 93.37C110.586 93.3396 109.954 93.844 109.921 94.1267C107.624 99.032 102.889 101.528 98.7781 104.807C98.5535 105.498 98.1456 105.311 97.5797 105.25Z" fill="black"/>
<path d="M45.8753 1.49961C47.2821 2.93919 48.5641 4.2222 50.0042 5.37911C54.0747 8.53669 58.1784 11.4116 61.7414 15.2302C62.8985 16.3566 64.2137 17.357 65.3708 18.4834C66.2781 19.2967 65.7705 19.9577 64.5721 20.4012C64.0475 18.7703 62.8571 17.9266 61.2257 17.1784C59.7191 16.5869 58.5036 14.7385 57.3798 13.3294C56.2559 11.9203 55.2237 10.9504 53.559 10.485C53.1512 10.2979 52.7433 10.1109 52.4935 9.79775C50.8702 7.76236 48.8309 6.8272 46.983 5.48326C45.6677 4.48292 45.2347 3.2913 45.8753 1.49961Z" fill="black"/>
<path d="M3.91463 69.5477C2.75753 68.4212 2.04154 67.1991 1.79988 65.5987C1.43336 63.8418 0.783852 62.0543 1.01654 60.0756C1.1495 58.9449 0.308634 57.5662 0.191851 56.1224C0.116404 53.1086 -0.0417127 53.2347 1.52238 49.6818C3.52843 50.8997 2.41354 53.0697 3.18793 55.0137C2.56356 54.2308 2.03083 53.8872 1.15672 52.7912C1.08215 54.6439 1.23217 55.805 1.22408 57.0923C2.0398 57.4664 2.60577 57.5273 3.54636 58.0579C3.6299 59.7844 3.43046 61.4805 3.63887 63.3635C3.78889 64.5247 3.93891 65.6859 4.53003 66.7514C4.83817 67.7864 5.17954 68.5388 3.91463 69.5477Z" fill="black"/>
<path d="M15.9024 84.5783C13.4472 84.7433 14.121 82.669 13.3717 81.7296C12.4976 80.6336 11.7484 79.6942 10.6578 78.0024C12.9801 78.968 12.9801 78.968 15.9024 84.5783Z" fill="black"/>
<path d="M117.235 86.7559C116.253 87.7952 115.621 88.2996 114.955 89.0867C114.971 86.5122 114.971 86.5122 117.235 86.7559Z" fill="black"/>
<path d="M57.923 72.0697C55.4264 73.8047 53.0547 75.6963 50.5913 77.1486C49.0434 78.127 47.5288 78.8227 45.7644 79.2053C44.3162 79.3356 42.7764 79.0267 41.2366 78.7179C36.6171 77.7912 35.3181 74.2163 36.6325 70.3503C36.8903 69.3762 37.1481 68.402 37.689 67.4584C40.1101 62.7096 42.5312 57.9608 45.3602 53.399C46.9162 51.1334 48.5971 49.0243 51.0604 47.572C51.9759 47.098 52.3918 45.9978 53.1824 45.3672C55.5209 43.7583 57.7345 41.9928 60.1978 40.5405C62.2201 39.1838 65.9321 39.2972 67.9301 41.8023C68.6794 42.7417 69.3037 43.5245 70.053 44.4639C71.3349 45.7469 71.7015 47.5039 71.219 49.1695C70.4626 54.3837 68.7323 59.35 66.3444 63.8161C65.0381 66.3949 63.1327 69.1955 60.2282 70.7434C59.4709 71.0913 58.8384 71.5957 58.0479 72.2262C57.7981 71.9131 57.7981 71.9131 57.923 72.0697ZM63.3555 58.7712C65.3355 54.1181 68.5392 50.026 66.5906 44.6637C64.7346 44.607 63.0367 44.4243 61.3639 45.2461C58.3346 46.6375 55.9296 48.8117 53.3665 51.1121C51.7854 52.3732 50.4208 54.23 49.2142 55.9608C46.2604 60.366 45.662 65.4541 44.2147 70.4509C43.9236 71.7077 44.5148 72.7732 45.264 73.7126C50.3075 72.2518 53.7608 68.4728 57.8386 65.4768C56.9312 64.6635 55.5495 64.2285 56.7228 62.7804C57.7047 61.7411 58.4037 60.6713 59.2607 59.4754C60.8751 57.9317 61.4743 57.71 63.3555 58.7712ZM40.3373 76.6173C39.6213 75.3952 40.7362 73.2252 38.3807 72.5422C37.5488 74.7427 39.0221 75.6169 40.3373 76.6173Z" fill="black"/>
<path d="M85.4187 52.7018C87.475 55.9288 89.6895 59.0298 88.9079 63.2394C88.3841 66.4749 87.8271 69.9931 87.0204 73.1982C86.2136 76.4033 84.8409 79.5474 83.6263 82.5654C83.0522 83.7918 82.3533 84.8615 81.6543 85.9313C80.3229 87.5055 78.5917 87.6054 76.7025 87.8314C74.6883 87.9008 73.4315 87.6224 71.933 85.7436C69.8102 83.0819 68.8193 80.5421 69.2182 77.15C69.5506 74.3233 69.4419 71.5922 69.7743 68.7654C70.1067 65.9387 70.4392 63.1119 71.2127 60.1895C71.9529 57.5498 72.6932 54.9101 73.5584 52.427C74.6149 49.535 78.6513 48.1089 81.3482 49.5442C81.8809 49.8878 82.6966 50.2619 83.2293 50.6055C84.0118 51.2622 84.7943 51.919 85.4187 52.7018ZM75.7862 83.4389C75.911 83.5955 76.5686 84.0957 77.2927 84.0305C77.8587 84.0914 78.6825 83.1782 78.8739 82.7695C79.739 80.2863 80.446 77.9293 81.1531 75.5722C81.6355 73.9067 81.5852 71.8975 82.2258 70.1058C83.0577 67.9053 83.0074 65.8961 82.3911 63.826C82.2995 63.3868 82.083 62.791 82.2743 62.3822C82.8816 60.8732 81.4415 59.7163 81.4829 58.1463C81.5161 57.8637 80.9834 57.52 80.5755 57.333C79.0689 56.7415 78.1535 57.2154 77.6711 58.881C76.9973 60.9554 76.4484 63.1863 76.0576 65.2911C75.1843 69.0615 74.3111 72.8319 73.8789 76.5067C73.613 78.7681 73.755 81.2165 75.7862 83.4389ZM81.9815 53.9062C80.4255 56.1719 82.8143 56.5721 83.2473 57.7638C83.5222 59.0815 84.3963 60.1775 84.9542 61.5257C85.1617 58.5423 84.2957 56.1591 81.9815 53.9062ZM76.9291 51.7879C77.0539 51.9445 77.1788 52.1011 77.1788 52.1011C77.778 51.8793 78.0942 51.6271 78.5686 51.2488C78.7267 51.1227 78.477 50.8096 78.3853 50.3703C77.8777 51.0313 77.4034 51.4096 76.9291 51.7879Z" fill="black"/>
<path d="M55.6845 27.7458C58.7479 30.9381 57.1919 33.2037 53.9964 36.0085C51.4333 38.3089 47.9629 39.7959 44.8671 41.7527C41.7713 43.7095 38.2173 43.47 35.0047 43.9829C33.3985 44.2394 31.6673 44.3393 29.9694 44.1565C28.1133 44.0999 26.4819 43.3517 25.7075 41.4077C24.9331 39.4637 23.909 37.2066 26.1558 35.1584C26.6302 34.7801 26.8548 34.0886 27.2042 33.5538C28.1278 31.7925 29.4259 30.501 31.4149 29.427C33.0877 28.6052 34.5772 26.9049 36.4333 26.9616C38.2893 27.0182 39.1796 25.5397 40.8775 25.7225C42.2924 25.8748 43.8403 24.8964 45.4134 24.9226C47.8686 24.7575 50.5736 24.9056 52.9624 25.3059C53.903 25.8365 54.7439 27.2152 55.6845 27.7458ZM53.3379 30.642C51.1405 29.8329 51.1405 29.8329 49.501 30.372C49.218 30.3416 48.9017 30.5938 48.4939 30.4068C45.4143 29.789 42.3266 30.4585 39.2388 31.128C36.7504 31.5757 35.2608 33.276 33.2386 34.6327C32.6061 35.1372 31.9404 35.9243 30.7501 35.0805C30.0925 34.5803 28.3532 35.9675 28.187 37.3808C27.896 38.6377 28.6784 39.2944 29.6855 39.2597C32.2324 39.5338 34.9374 39.6819 37.5175 39.6734C41.862 39.2823 45.8068 37.4169 49.5018 35.2384C51.4908 34.1644 53.1968 33.0599 53.3379 30.642ZM26.7146 41.373C26.9976 41.4035 27.1557 41.2774 27.4387 41.3078C27.3803 40.5859 27.0389 39.8335 26.9805 39.1116C26.4729 39.7726 26.2816 40.1814 26.2151 40.7467C26.34 40.9033 26.4648 41.0599 26.7146 41.373Z" fill="black"/>
<path d="M68.6216 91.9709C65.9085 93.1101 63.2951 93.4013 60.7231 92.1225C60.989 89.8611 61.1804 89.4524 63.0364 89.509C64.4514 89.6614 65.7495 88.3698 66.9982 89.9355C68.7294 89.8356 68.1221 91.3446 68.6216 91.9709Z" fill="black"/>
<path d="M31.7211 65.814C30.1229 64.7832 28.6496 63.909 29.0404 61.8042C29.1733 60.6735 29.7142 59.7298 31.1623 59.5995C31.687 61.2303 30.414 63.5264 33.2106 64.1137C32.42 64.7443 32.0706 65.2792 31.7211 65.814Z" fill="black"/>
<path d="M38.3575 36.1857C36.9012 37.6033 36.0523 37.5119 34.7119 35.507C37.2337 34.7765 37.2337 34.7765 38.3575 36.1857Z" fill="black"/>
<path d="M40.1722 37.8123C39.8057 36.0553 41.3455 36.3642 41.8531 35.7032C42.2277 36.1729 42.4775 36.486 42.9769 37.1123C41.9366 37.4297 41.0544 37.621 40.1722 37.8123Z" fill="black"/>
</g>
</svg>
