<svg width="104" height="110" viewBox="0 0 104 110" fill="none" xmlns="http://www.w3.org/2000/svg">
<g opacity="0.15">
<path d="M61.6341 6.68867C62.9466 7.6502 63.6836 8.16643 64.4206 8.68267C65.4808 9.34075 66.7735 9.90815 67.7628 10.7278C71.9524 13.9159 76.0711 17.2656 79.8153 21.0292C80.0676 21.3326 80.5523 21.5454 80.9662 21.9198C82.0264 22.5779 83.2285 22.9127 83.3074 24.4893C83.398 24.7218 83.4887 24.9544 83.6503 25.0253C85.5776 27.2204 87.7375 29.3248 89.6648 31.52C90.0786 31.8944 90.3309 32.1978 90.5122 32.6629C93.0229 37.0415 95.3721 41.3491 97.9537 45.5661C98.3873 46.3346 98.6593 47.0322 98.9313 47.7298C99.2939 48.6599 99.5856 49.7517 99.9482 50.6818C100.815 52.2188 101.45 53.8466 100.902 55.5336C100.831 55.6952 100.689 56.0184 100.78 56.2509C102.424 59.0925 102.258 62.1037 102.558 64.9336C102.929 67.6019 103.299 70.2702 103.043 73.0489C102.748 75.0393 102.291 76.9589 102.318 79.0912C102.176 79.4144 101.964 79.8992 101.731 79.9899C99.6582 81.2001 99.2011 83.1197 98.6731 85.2008C98.216 87.1203 97.3451 88.6655 95.9894 89.9978C95.3116 90.664 94.7953 91.4011 94.2791 92.1382C93.085 93.5415 91.8909 94.9448 90.1213 95.9028C87.6543 97.1328 85.7823 99.2023 83.5675 100.736C80.0482 103.046 76.3672 105.285 72.6863 107.524C71.8469 108.119 71.0587 108.159 70.1798 107.966C69.4625 107.844 68.5127 107.812 67.9767 108.155C65.2259 110.032 62.5695 109.059 60.0038 108.318C58.246 107.932 56.4882 107.546 54.8723 106.837C52.5391 106.005 50.1862 104.78 47.853 103.949C46.7219 103.452 45.6105 103.35 44.4793 102.853C43.3482 102.357 42.2171 101.86 41.3894 101.112C39.734 99.614 38.3112 98.0258 36.6558 96.5282C35.9898 95.8504 34.9493 95.5865 34.2832 94.9086C32.9707 93.9471 31.678 93.3797 30.74 92.0043C29.8019 90.6288 28.3988 89.4348 27.2282 88.15C26.1285 86.7036 25.2614 85.1666 24.0908 83.8819C23.1725 82.9006 22.2542 81.9192 21.8718 80.595C21.7811 80.3625 21.5289 80.059 21.2964 80.1497C19.8815 80.2996 19.2666 79.066 18.4389 78.3173C17.1265 77.3557 16.6732 76.1931 15.6642 74.9793C14.6552 73.7654 13.323 72.4097 13.7801 70.4902C13.851 70.3286 13.5988 70.0252 13.5081 69.7926C10.9344 67.3138 10.1303 63.877 7.7891 61.3075C7.7891 61.3075 7.62751 61.2366 7.69844 61.075C7.39877 58.2451 5.70396 55.9593 4.63578 53.563C3.31536 50.8633 2.8541 47.9625 2.39284 45.0617C2.21152 44.5966 1.93954 43.899 1.45477 43.6863C0.717754 43.17 0.374848 42.634 0.800442 41.6644C1.65163 39.7251 1.78552 37.6638 1.91941 35.6024C2.12424 33.3794 3.5114 31.0972 4.66604 28.9056C5.39509 27.6837 5.58815 26.8047 4.50823 25.7525C5.72205 24.7433 6.93587 23.7342 7.9881 22.6541C8.18117 21.7751 6.79779 20.9752 7.77908 20.0567C8.76038 19.1383 9.78113 19.0081 11.0739 19.5755C11.3576 18.9291 11.732 18.5152 11.9448 18.0303C12.1576 17.5455 12.4413 16.8991 12.5634 16.1817C13.9074 16.1934 15.3419 16.4376 16.6662 16.0551C18.8495 15.4715 20.627 16.2517 22.6173 16.547C23.0114 16.5273 23.4253 16.9017 23.6775 17.2051C24.99 18.1667 26.464 19.1991 27.7055 20.3223C28.7854 21.3745 29.7944 22.5883 30.7128 23.5696C32.2972 25.2288 34.1141 26.7972 36.1833 28.6691C36.1439 27.8808 36.1242 27.4867 36.0335 27.2542C35.1269 24.9289 34.2203 22.6035 33.0812 20.3689C32.285 18.6703 31.1854 17.2239 30.8542 15.3439C30.8148 14.5556 30.3812 13.7871 30.8975 13.05C31.0393 12.7268 31.0905 12.171 31.0708 11.7769C31.4607 6.93679 34.4756 4.01978 38.6412 1.99337C39.4097 1.55972 40.1073 1.28768 40.8049 1.01563C41.2699 0.834271 41.735 0.652909 41.8966 0.723833C44.9668 2.07141 48.565 1.33786 51.7062 2.52384C52.0293 2.66568 52.656 2.55525 52.9082 2.8587C55.6238 5.01432 59.2497 6.41306 61.6341 6.68867ZM93.7267 81.1024C93.5139 81.5872 93.3011 82.072 93.1593 82.3952C93.1278 83.3451 92.6115 84.0822 91.5199 84.374C91.1807 80.7558 90.6091 77.2283 90.3606 73.8427C89.6312 67.1621 89.1342 60.3908 88.4048 53.7102C88.2352 51.9012 88.0656 50.0921 87.8961 48.283C87.766 47.2622 87.8881 46.5448 88.7275 45.9496C89.496 45.5159 89.4566 44.7277 89.023 43.9591C86.8237 41.0664 84.8569 38.083 82.5867 35.3519C79.9026 32.2464 76.9151 29.3932 74.231 26.2877C71.7992 23.4857 69.2255 21.0068 66.1355 19.2651C65.2369 18.678 64.0349 18.3431 63.2072 17.5943C60.0778 15.0643 56.3612 13.4331 52.7156 11.6402C52.3924 11.4983 52.1401 11.1949 51.9076 11.2856C49.1291 11.0297 46.3506 10.7739 43.4105 10.4471C42.8942 11.1842 42.4489 11.7597 42.0942 12.5677C41.3337 14.7395 40.5022 17.073 41.5704 19.4692C43.1431 22.4724 44.4832 25.5662 46.8953 27.9741C47.3092 28.3485 47.5614 28.6519 47.7427 29.117C49.2957 31.726 50.8486 34.335 52.169 37.0347C53.7417 40.0379 55.3144 43.041 56.8871 46.0442C56.9777 46.2767 56.9068 46.4383 56.9974 46.6709C57.0369 47.4591 57.0764 48.2474 56.8833 49.1264C56.3553 51.2075 56.312 53.5014 54.3297 54.9442C51.8824 56.5684 47.5983 56.2299 45.3675 54.2871C43.7122 52.7896 41.9859 51.4537 40.4921 50.0271C39.5028 49.2074 38.5845 48.2261 37.4139 46.9413C37.4534 47.7296 37.3115 48.0528 37.4022 48.2853C37.5994 52.2267 37.706 55.9356 37.9033 59.877C37.9625 61.0594 37.8601 62.1709 37.7576 63.2824C37.7618 68.1027 37.9276 72.994 37.8609 77.9759C37.9713 78.6026 37.8491 79.3199 36.7377 79.2176C35.981 78.3072 36.4578 76.7818 34.9325 76.3051C34.7709 76.2342 34.6605 75.6075 34.6408 75.2134C34.6841 72.9195 34.4948 70.7163 34.538 68.4223C34.7349 64.4612 34.9317 60.5001 34.967 56.468C34.959 54.7298 35.1126 53.0626 34.7105 51.3442C34.2178 49.3933 35.1596 47.6865 35.7074 45.9995C35.7783 45.8379 36.4049 45.7275 36.6375 45.6368C36.3852 45.3334 36.0423 44.7974 35.79 44.4939C34.2371 41.8849 33.0073 39.4177 31.2219 36.8994C29.1842 34.0776 26.843 31.5081 24.7343 28.8479C23.9776 27.9375 23.1696 27.5829 22.007 28.0363C21.1479 28.2374 20.0562 28.5292 19.1773 28.3362C17.5811 28.0211 16.651 28.3838 16.0126 29.8383C15.8708 30.1615 15.7289 30.4847 15.4964 30.5754C13.6047 32.2507 13.329 34.6353 12.73 36.878C12.0996 40.0707 12.419 43.2947 12.1827 46.4676C12.0803 47.579 11.9976 49.0847 12.6834 50.1567C14.6502 53.1401 15.4544 56.5769 17.4212 59.5603C20.2354 63.6866 22.281 68.2465 25.3987 72.1205C25.9032 72.7274 26.4077 73.3344 26.7506 73.8703C27.9094 76.4991 29.4426 78.714 32.5246 78.7175C34.3495 82.0242 36.5291 84.5227 38.9412 86.9306C40.2734 88.2863 41.7672 89.7129 43.0993 91.0686C43.7654 91.7464 44.5222 92.6568 45.2592 93.173C48.3689 95.3089 51.5495 97.2831 55.0138 98.611C55.6602 98.8947 56.4681 99.2493 57.0238 99.3005C60.1255 99.6982 63.1366 99.8633 66.2383 100.261C67.9054 100.415 69.4818 100.336 70.9479 99.6298C71.2828 98.4276 71.1527 97.4068 70.861 96.3151C70.3683 94.3642 70.5022 92.3028 70.4745 90.1705C72.3426 91.1832 72.3426 91.1832 73.0406 98.8137C73.2731 98.723 73.6672 98.7032 73.8997 98.6126C75.9018 97.5639 77.9945 96.7478 79.9059 95.4666C81.8173 94.1854 84.1425 93.2786 85.5494 91.3904C88.6628 90.4441 90.1721 87.4445 92.3673 85.5169C94.1368 84.5589 94.8461 82.9429 93.7267 81.1024C95.043 78.9817 95.8035 76.8099 96.3118 74.3346C96.4536 74.0114 96.4339 73.6173 96.2526 73.1522C96.1028 71.7373 95.7007 70.0189 95.5508 68.6039C95.3338 64.2684 93.7927 60.3154 92.8781 56.2519C92.6968 55.7868 92.4445 55.4834 91.8494 54.6439C91.747 55.7554 91.6248 56.4728 91.7352 57.0994C92.0349 59.9293 92.4961 62.8301 92.7249 65.8216C92.9536 68.8131 93.0208 71.7337 93.0879 74.6543C93.5097 76.7668 93.699 78.9701 93.7267 81.1024ZM48.0944 47.1962C45.6194 46.6881 43.964 45.1905 42.218 43.4605C40.3813 41.4979 39.0806 39.1923 37.6381 37.21C36.7 35.8345 35.3876 34.873 34.6111 33.5685C33.0384 30.5653 31.3948 27.7238 28.9827 25.3159C27.0751 23.5149 25.0256 22.0371 22.9762 20.5593C21.5021 19.5269 19.6537 18.9083 17.9039 20.2604C16.761 21.108 14.9323 20.8835 14.152 22.6612C14.0811 22.8228 13.6161 23.0042 13.3835 23.0949C10.9874 24.1633 9.00507 25.6061 8.28399 28.5662C8.03972 30.0009 7.07814 31.3135 6.1875 32.4645C3.37373 36.2407 3.73258 40.253 4.5762 44.4781C5.17933 47.0557 6.17657 49.6135 7.17381 52.1714C8.17105 54.7292 8.77418 57.3069 10.5399 59.431C11.4583 60.4123 12.2347 61.7169 13.0112 63.0214C14.7967 65.5397 16.6728 68.2906 18.6199 70.8798C19.7195 72.3262 21.2842 73.5912 22.4548 74.8759C23.6254 76.1607 24.1891 77.95 25.8956 78.8918C26.3804 79.1046 26.4198 79.8928 26.7627 80.4288C28.3866 82.8762 30.0105 85.3237 31.6344 87.7711C32.2295 88.6105 32.8247 89.45 33.4908 90.1278C35.1461 91.6253 36.8015 93.1229 38.2953 94.5495C40.4551 96.6539 42.8987 98.1119 45.626 98.9235C46.5049 99.1165 47.2616 100.027 48.0696 100.382C48.5544 100.594 48.9485 100.575 49.4332 100.787C47.6872 99.0573 45.9609 97.7213 44.0021 96.4761C39.6707 93.6112 36.1589 89.757 32.8087 85.9736C32.3949 85.5993 32.052 85.0633 31.8707 84.5982C30.8537 81.6462 28.3195 79.9557 26.6247 77.6699C24.6067 75.2422 22.5178 72.9762 20.5707 70.3869C18.9665 68.3336 17.5752 65.7955 15.971 63.7423C14.2565 61.0623 13.0977 58.4336 12.4039 55.6234C12.0215 54.2992 11.5682 53.1365 10.579 52.3168C9.17586 51.1227 9.09696 49.5462 8.85646 47.8987C8.61596 46.2512 8.51733 44.2805 7.8118 42.8144C6.92494 40.8832 7.22042 38.8928 7.44497 37.064C7.56711 36.3466 7.7799 35.8618 7.90204 35.1444C8.11862 31.5774 9.53726 28.3453 12.359 26.3072C13.8763 25.0458 15.697 23.5321 17.9908 23.5751C20.8402 23.6694 23.4769 24.2484 25.9205 25.7065C28.9395 27.6098 31.1388 30.5025 33.6415 33.1429C34.146 33.7498 34.8121 34.4277 35.0841 35.1253C36.6568 38.1284 37.9969 41.2223 39.6405 44.0638C40.3263 45.1358 41.1737 46.2787 42.0014 47.0275C44.2322 48.9703 46.6049 50.5899 48.9972 52.6037C49.3913 52.5839 50.0889 52.3119 50.9481 52.1108C50.7588 49.9075 51.6297 48.3624 53.147 47.101C52.3508 45.4023 51.3221 43.7943 50.6874 42.1666C49.8006 40.2354 48.8231 38.0717 48.0978 36.2115C47.2819 34.1187 46.2334 32.1166 44.4165 30.5481C43.8411 30.1028 43.104 29.5866 42.6705 28.8181C41.4802 27.1392 40.4317 25.1371 39.2414 23.4582C38.8985 22.9222 38.2324 22.2444 37.8186 21.87C39.0168 25.287 39.9117 28.9564 42.7179 31.3445C43.2933 31.7898 43.4234 32.8106 43.6954 33.5082C43.8767 33.9733 43.8255 34.529 44.0778 34.8325C45.6504 37.8356 47.3138 41.0713 48.8864 44.0745C50.1674 45.9859 50.1674 45.9859 48.0944 47.1962ZM86.2164 33.6685C86.4489 33.5778 86.5199 33.4162 86.7524 33.3255C83.9499 27.8552 79.7012 23.4847 75.2396 19.599C71.6766 16.3005 67.4358 13.6682 62.9822 11.5207C62.0127 11.0951 60.8815 10.5986 60.1248 9.68826C58.3591 7.56406 56.0653 7.52099 53.7518 7.08379C56.2861 8.77433 58.8913 10.3033 61.5674 11.6706C63.9203 12.8961 66.1825 13.889 68.0192 15.8516C68.6144 16.6911 69.978 17.0969 70.8766 17.684C73.4306 19.7687 75.9846 21.8534 78.7001 24.009C79.5278 24.7578 80.9112 25.5577 80.86 26.1135C80.332 28.1946 81.6956 28.6004 82.4524 29.5108C83.552 30.9571 84.8842 32.3128 86.2164 33.6685ZM36.3597 8.5088C37.6839 8.12632 39.0278 8.13798 39.544 7.40087C40.8091 5.83597 42.5471 5.82788 44.2142 5.98138C46.508 6.02445 48.7308 6.22913 51.3477 6.41405C47.8951 3.7422 44.3284 3.52587 40.6 3.23861C40.5371 5.13838 38.9804 5.61154 37.5852 6.15563C36.8167 6.58928 36.2807 6.93225 35.9261 7.74028C35.2168 9.35635 34.2749 11.0631 34.0504 12.8919C33.9677 14.3976 33.6525 15.9939 34.4487 17.6925C35.2251 18.997 36.2144 19.8167 37.3653 20.7073C36.2891 16.5729 36.5569 12.4502 36.3597 8.5088ZM55.7156 103.159C59.3494 106.296 63.1882 107.21 67.4957 104.86C67.9608 104.679 68.6583 104.407 69.0524 104.387C70.9323 104.056 72.7413 103.886 74.369 103.252C75.9966 102.617 77.6952 101.82 79.2322 100.953C80.0007 100.519 80.2845 99.873 79.5986 98.801C79.1336 98.9824 78.9011 99.0731 78.6686 99.1638C76.0596 100.717 73.5216 102.109 70.5697 103.126C68.0829 103.962 65.5054 104.565 62.6362 104.077C60.4134 103.872 58.029 103.596 55.7156 103.159ZM80.9938 98.2569C81.0844 98.4895 81.246 98.5604 81.1751 98.722C81.7111 98.379 82.4086 98.107 82.9446 97.764C84.0166 97.0781 84.9269 96.3212 86.0896 95.8678C89.4867 94.2751 92.0562 91.9336 94.1212 88.9851C94.5666 88.4096 95.1538 87.5109 94.6295 86.5099C91.2483 91.5789 85.6165 94.311 80.9938 98.2569ZM90.7884 38.1808C90.5558 38.2715 90.2524 38.5238 90.0199 38.6145C91.159 40.8491 92.4597 43.1547 93.5988 45.3893C94.8285 47.8565 95.7351 50.1818 96.7126 52.3455C96.9451 52.2548 97.1777 52.1641 97.1777 52.1641C96.7953 50.8399 96.0898 49.3737 95.869 48.1204C95.4787 45.058 93.6223 42.7012 92.2309 40.1632C91.9589 39.4656 91.2929 38.7877 90.7884 38.1808ZM100.19 68.1343C99.7996 72.9744 99.319 77.582 97.1713 82.036C100.36 77.8459 101.396 73.2895 100.19 68.1343ZM46.0487 42.6362C46.1197 42.4746 46.3522 42.3839 46.3522 42.3839C45.0712 40.4725 43.7903 38.5611 42.3477 36.5787C42.257 36.3462 41.9339 36.2044 41.6107 36.0625C41.4491 35.9916 41.1259 35.8497 40.9643 35.7788C40.8934 35.9404 40.8225 36.102 40.8225 36.102C42.5882 38.2262 44.3539 40.3504 46.0487 42.6362ZM40.582 34.4546C38.4851 30.4503 38.4851 30.4503 37.6062 30.2573C38.5128 32.5826 39.5415 34.1906 40.582 34.4546ZM24.9105 82.8924C24.4178 80.9415 24.3271 80.709 22.8728 80.0707C23.7202 81.2136 24.3154 82.053 24.9105 82.8924Z" fill="black"/>
<path d="M66.3605 25.3388C67.7951 25.583 68.603 25.9376 68.9145 27.4235C70.1917 32.4171 70.4481 37.5409 70.8661 42.7356C71.2841 47.9303 71.7022 53.1251 72.1202 58.3198C72.1991 59.8963 72.9244 61.7566 71.013 63.0378C75.2853 64.7202 78.9309 66.5131 82.1707 69.6698C81.9105 67.6282 81.7409 65.8191 81.4807 63.7775C81.2914 61.5742 81.1928 59.6035 81.0035 57.4003C80.7433 55.3587 80.4831 53.3171 80.2228 51.2755C79.9626 49.2339 79.864 47.2632 79.4422 45.1506C79.1819 43.109 78.5985 40.9255 78.3383 38.8839C78.1688 37.0748 77.1203 35.0727 77.8611 32.5068C78.4563 33.3462 78.7085 33.6497 78.7992 33.8822C79.686 35.8134 79.9463 37.855 81.1366 39.5339C81.913 40.8384 81.6885 42.6673 81.9999 44.1531C82.891 50.9047 83.782 57.6562 84.208 64.5891C84.5157 69.1571 85.2174 73.7054 85.7576 78.1828C86.1874 82.0335 86.6172 85.8842 87.0469 89.7349C86.8144 89.8256 86.5819 89.9162 86.511 90.0778C86.2587 89.7744 85.6123 89.4907 85.5926 89.0965C85.1196 87.5397 84.9698 86.1248 84.4968 84.568C84.1656 82.688 83.8344 80.808 82.9476 78.8768C82.8452 79.9883 82.7428 81.0998 82.4788 82.1403C82.2857 83.0193 81.7694 83.7564 81.2532 84.4935C80.7369 85.2306 79.9882 86.0584 79.3813 86.563C78.7743 87.0676 77.7733 87.5919 76.9142 87.793C74.7308 88.3766 72.4568 88.7277 70.0526 88.0579C66.0523 87.0731 63.4786 84.5943 61.2596 81.3074C61.0074 81.004 60.5935 80.6296 59.8762 80.5075C59.9551 82.084 59.8015 83.7513 59.8804 85.3278C59.9593 86.9044 60.1092 88.3193 60.1881 89.8959C60.1054 91.4015 61.1341 93.0095 60.3538 94.7871C58.8798 93.7547 58.9625 92.249 58.6708 91.1573C58.2607 87.7008 58.0123 84.3151 57.9254 81.0004C57.6572 77.2206 57.4599 73.2792 57.1917 69.4995C56.963 66.508 56.9668 63.4258 56.809 60.2727C56.6789 59.2519 56.7813 58.1404 56.6512 57.1196C56.4304 55.8662 57.2186 55.8267 58.0975 56.0197C57.9791 53.6549 57.9515 51.5226 57.8331 49.1578C58.2981 48.9764 58.6923 48.9567 59.0864 48.9369C59.1892 55.7279 59.4536 62.5899 59.5761 69.7751C60.3959 68.7857 61.0028 68.2811 61.4481 67.7056C63.4619 65.3129 65.657 63.3853 68.7902 62.8331C69.6493 62.632 69.9331 61.9856 69.732 61.1264C69.5822 59.7114 69.4323 58.2965 69.2825 56.8815C68.9434 53.2633 68.4427 49.5743 68.1035 45.9561C67.6146 40.923 67.035 35.6573 66.546 30.6242C66.4868 29.4418 66.2661 28.1885 66.0453 26.9351C66.0256 26.541 66.3093 25.8946 66.3605 25.3388ZM66.7608 69.652C65.082 70.8425 64.3727 72.4586 63.4308 74.1653C61.5274 77.1847 63.1395 80.9761 65.7447 82.505C71.4398 85.7757 76.1494 85.1445 79.4203 79.4487C80.1493 78.2268 80.3227 76.9537 79.6881 75.326C78.3479 72.2322 75.8137 70.5416 73.1376 69.1743C70.8556 67.7872 68.6722 68.3708 66.7608 69.652ZM70.6348 66.5339C66.7567 64.8317 62.8827 67.9498 62.1893 73.0422C64.9833 68.8718 64.9833 68.8718 70.6348 66.5339Z" fill="black"/>
<path d="M22.7419 63.2448C21.9339 62.8902 21.4492 62.6774 20.6412 62.3228C20.8658 60.4939 21.0903 58.6651 21.3858 56.6746C21.5591 55.4016 21.6418 53.8959 21.6536 52.5519C21.7715 47.0142 21.8895 41.4765 22.0074 35.9388C22.1925 33.3217 22.1925 33.3217 25.1956 31.7487C25.3341 42.4102 24.503 52.6461 22.7419 63.2448Z" fill="black"/>
<path d="M45.7423 61.7757C46.1167 61.3618 46.7039 60.4631 47.4329 59.2412C47.8468 59.6156 48.2606 59.99 48.2803 60.3841C48.3395 61.5665 48.3987 62.7489 48.5288 63.7697C48.5842 68.0343 48.4071 72.3896 48.3009 76.5833C48.2064 79.4329 48.112 82.2826 48.0885 84.9706C48.0058 86.4762 48.5695 88.2656 47.6079 89.5782C47.2335 89.9921 46.9301 90.2444 46.5557 90.6583C46.1419 90.2839 45.5664 89.8386 45.5467 89.4444C45.3457 88.5852 45.4678 87.8679 45.5899 87.1505C45.6961 82.9569 45.7314 78.9248 45.676 74.6602C45.7113 70.6281 45.8175 66.4345 45.7423 61.7757Z" fill="black"/>
<path d="M55.4311 13.7958C55.8449 14.1702 56.2588 14.5446 56.2785 14.9387C56.4796 15.7979 56.6806 16.6571 56.6491 17.607C56.9685 20.831 57.217 24.2166 57.698 27.5116C58.0371 31.1298 58.4669 34.9805 58.806 38.5986C58.9756 40.4077 58.9126 42.3075 58.8497 44.2073C58.8694 44.6014 58.4043 44.7828 57.6556 45.6105C56.0825 34.7049 56.0346 24.2759 54.8045 13.9062C55.1986 13.8865 55.2695 13.7249 55.4311 13.7958Z" fill="black"/>
<path d="M46.2922 25.3965C44.6368 23.899 44.5579 22.3224 44.7825 20.4936C45.078 18.5031 44.8887 16.2999 44.861 14.1676C44.8215 13.3793 45.1053 12.7329 45.3693 11.6923C46.9931 14.1397 47.4271 22.8108 46.2922 25.3965Z" fill="black"/>
</g>
</svg>
