<svg width="50" height="50" viewBox="0 0 50 50" fill="none" xmlns="http://www.w3.org/2000/svg">
<g clip-path="url(#clip0_17_8518)">
<rect width="50" height="50" fill="#F1B6B6"/>
<g clip-path="url(#clip1_17_8518)">
<path d="M-4.5 38.1625H59.5V59.5H-4.5V38.1625Z" fill="#FFCE00"/>
<path d="M-4.5 -4.5H59.5V16.8375H-4.5V-4.5Z" fill="black"/>
<path d="M-4.5 16.8375H59.5V38.1625H-4.5V16.8375Z" fill="#DD0000"/>
</g>
<g clip-path="url(#clip2_17_8518)">
<path d="M-4.5 38.1625H59.5V59.5H-4.5V38.1625Z" fill="#FFCE00"/>
<path d="M-4.5 -4.5H59.5V16.8375H-4.5V-4.5Z" fill="black"/>
<path d="M-4.5 16.8375H59.5V38.1625H-4.5V16.8375Z" fill="#DD0000"/>
<g clip-path="url(#clip3_17_8518)">
<path d="M-4.5 -4.5H59.5V59.5H-4.5V-4.5Z" fill="white"/>
<path d="M-4.5 -4.5H16.8375V59.5H-4.5V-4.5Z" fill="#002654"/>
<path d="M38.1621 -4.5H59.4996V59.5H38.1621V-4.5Z" fill="#CE1126"/>
</g>
</g>
</g>
<defs>
<clipPath id="clip0_17_8518">
<rect width="50" height="50" fill="white"/>
</clipPath>
<clipPath id="clip1_17_8518">
<rect width="64" height="64" fill="white" transform="translate(-4.5 -4.5)"/>
</clipPath>
<clipPath id="clip2_17_8518">
<rect width="64" height="64" fill="white" transform="translate(-4.5 -4.5)"/>
</clipPath>
<clipPath id="clip3_17_8518">
<rect width="64" height="64" fill="white" transform="translate(-4.5 -4.5)"/>
</clipPath>
</defs>
</svg>
