<svg width="50" height="50" viewBox="0 0 50 50" fill="none" xmlns="http://www.w3.org/2000/svg">
<g clip-path="url(#clip0_17_8298)">
<rect width="50" height="50" fill="#F1B6B6"/>
<g clip-path="url(#clip1_17_8298)">
<path d="M-4.5 38.1625H59.5V59.5H-4.5V38.1625Z" fill="#FFCE00"/>
<path d="M-4.5 -4.5H59.5V16.8375H-4.5V-4.5Z" fill="black"/>
<path d="M-4.5 16.8375H59.5V38.1625H-4.5V16.8375Z" fill="#DD0000"/>
</g>
<g clip-path="url(#clip2_17_8298)">
<path d="M-4.5 38.1625H59.5V59.5H-4.5V38.1625Z" fill="#FFCE00"/>
<path d="M-4.5 -4.5H59.5V16.8375H-4.5V-4.5Z" fill="black"/>
<path d="M-4.5 16.8375H59.5V38.1625H-4.5V16.8375Z" fill="#DD0000"/>
</g>
<g clip-path="url(#clip3_17_8298)">
<path fill-rule="evenodd" clip-rule="evenodd" d="M-7 -7H57V57H-7V-7Z" fill="#00247D"/>
<path d="M42.5488 12.3662V14.0848L45.9859 12.3662H42.5488Z" fill="white"/>
<path d="M43.2363 14.4285L42.5488 13.0536L45.9859 12.3662L43.2363 14.4285Z" fill="white"/>
<path d="M42.5488 12.3662V14.0848L39.1117 12.3662H42.5488Z" fill="white"/>
<path d="M41.8614 14.4285L42.5488 13.0536L39.1117 12.3662L41.8614 14.4285Z" fill="white"/>
<path d="M43.5293 13.0786L41.8948 13.6097L44.5914 16.3475L43.5293 13.0786Z" fill="white"/>
<path d="M41.7804 14.3697L42.8755 13.291L44.5914 16.3475L41.7804 14.3697Z" fill="white"/>
<path d="M41.5684 13.0786L43.2028 13.6097L42.6305 9.80972L41.5684 13.0786Z" fill="white"/>
<path d="M43.7421 13.0621L42.2221 13.291L42.6305 9.80972L43.7421 13.0621Z" fill="white"/>
<path d="M41.5684 13.0786L43.2028 13.6097L40.5062 16.3475L41.5684 13.0786Z" fill="white"/>
<path d="M43.3173 14.3697L42.2221 13.291L40.5062 16.3475L43.3173 14.3697Z" fill="white"/>
<path d="M42.5491 12.7158V13.8514L44.8203 12.7158H42.5491Z" fill="#CC142B"/>
<path d="M43.0033 14.0786L42.5491 13.1701L44.8203 12.7158L43.0033 14.0786Z" fill="#CC142B"/>
<path d="M42.5491 12.7158V13.8514L40.2778 12.7158H42.5491Z" fill="#CC142B"/>
<path d="M42.0948 14.0786L42.5491 13.1701L40.2778 12.7158L42.0948 14.0786Z" fill="#CC142B"/>
<path d="M43.1975 13.1868L42.1175 13.5377L43.8994 15.3468L43.1975 13.1868Z" fill="#CC142B"/>
<path d="M42.0418 14.0399L42.7655 13.3271L43.8994 15.3468L42.0418 14.0399Z" fill="#CC142B"/>
<path d="M41.9006 13.1868L42.9807 13.5377L42.6025 11.0267L41.9006 13.1868Z" fill="#CC142B"/>
<path d="M43.337 13.1759L42.3326 13.3271L42.6025 11.0267L43.337 13.1759Z" fill="#CC142B"/>
<path d="M41.9006 13.1868L42.9807 13.5377L41.1988 15.3468L41.9006 13.1868Z" fill="#CC142B"/>
<path d="M43.0563 14.0399L42.3326 13.3271L41.1988 15.3468L43.0563 14.0399Z" fill="#CC142B"/>
<path d="M51.5547 20.302L51.5547 21.8313L48.4961 20.302L51.5547 20.302Z" fill="white"/>
<path d="M50.943 22.1372L51.5547 20.9137L48.4961 20.302L50.943 22.1372Z" fill="white"/>
<path d="M50.6816 20.936L52.1361 21.4086L49.7365 23.8449L50.6816 20.936Z" fill="white"/>
<path d="M52.2379 22.0849L51.2634 21.1251L49.7365 23.8449L52.2379 22.0849Z" fill="white"/>
<path d="M51.5547 20.6519L51.5547 21.5982L49.662 20.6519L51.5547 20.6519Z" fill="#CC142B"/>
<path d="M51.1762 21.7875L51.5547 21.0304L49.662 20.6519L51.1762 21.7875Z" fill="#CC142B"/>
<path d="M32.0583 22.9319L32.0583 24.6504L35.4955 22.9319L32.0583 22.9319Z" fill="white"/>
<path d="M32.7458 24.9942L32.0583 23.6193L35.4955 22.9319L32.7458 24.9942Z" fill="white"/>
<path d="M32.0583 22.9319L32.0583 24.6504L28.6212 22.9319L32.0583 22.9319Z" fill="white"/>
<path d="M31.3709 24.9942L32.0583 23.6193L28.6212 22.9319L31.3709 24.9942Z" fill="white"/>
<path d="M33.0388 23.6443L31.4044 24.1754L34.1009 26.9132L33.0388 23.6443Z" fill="white"/>
<path d="M31.2899 24.9353L32.385 23.8567L34.1009 26.9132L31.2899 24.9353Z" fill="white"/>
<path d="M31.0779 23.6443L32.7123 24.1754L32.14 20.3754L31.0779 23.6443Z" fill="white"/>
<path d="M33.2516 23.6278L31.7317 23.8567L32.14 20.3754L33.2516 23.6278Z" fill="white"/>
<path d="M31.0779 23.6443L32.7123 24.1754L30.0158 26.9132L31.0779 23.6443Z" fill="white"/>
<path d="M32.8268 24.9353L31.7317 23.8567L30.0158 26.9132L32.8268 24.9353Z" fill="white"/>
<path d="M32.0566 23.2815L32.0566 24.4171L34.3279 23.2815L32.0566 23.2815Z" fill="#CC142B"/>
<path d="M32.5109 24.6442L32.0566 23.7357L34.3279 23.2815L32.5109 24.6442Z" fill="#CC142B"/>
<path d="M32.0566 23.2815L32.0566 24.4171L29.7854 23.2815L32.0566 23.2815Z" fill="#CC142B"/>
<path d="M31.6024 24.6442L32.0566 23.7357L29.7854 23.2815L31.6024 24.6442Z" fill="#CC142B"/>
<path d="M32.7051 23.7524L31.625 24.1034L33.4069 25.9125L32.7051 23.7524Z" fill="#CC142B"/>
<path d="M31.5494 24.6056L32.2731 23.8928L33.4069 25.9125L31.5494 24.6056Z" fill="#CC142B"/>
<path d="M31.4082 23.7524L32.4882 24.1034L32.1101 21.5924L31.4082 23.7524Z" fill="#CC142B"/>
<path d="M32.8446 23.7415L31.8402 23.8928L32.1101 21.5924L32.8446 23.7415Z" fill="#CC142B"/>
<path d="M31.4082 23.7524L32.4882 24.1034L30.7064 25.9125L31.4082 23.7524Z" fill="#CC142B"/>
<path d="M32.5639 24.6056L31.8402 23.8928L30.7064 25.9125L32.5639 24.6056Z" fill="#CC142B"/>
<path d="M42.5508 39.5073V41.4152L46.3664 39.5073H42.5508Z" fill="white"/>
<path d="M43.3139 41.7967L42.5508 40.2705L46.3664 39.5073L43.3139 41.7967Z" fill="white"/>
<path d="M42.5508 39.5073V41.4152L38.7351 39.5073H42.5508Z" fill="white"/>
<path d="M41.7876 41.7967L42.5508 40.2705L38.7351 39.5073L41.7876 41.7967Z" fill="white"/>
<path d="M43.6387 40.2983L41.8242 40.8879L44.8178 43.9272L43.6387 40.2983Z" fill="white"/>
<path d="M41.6971 41.7316L42.9129 40.5342L44.8178 43.9272L41.6971 41.7316Z" fill="white"/>
<path d="M41.4609 40.2983L43.2754 40.8879L42.64 36.6694L41.4609 40.2983Z" fill="white"/>
<path d="M43.8741 40.28L42.1867 40.5342L42.64 36.6694L43.8741 40.28Z" fill="white"/>
<path d="M41.4609 40.2983L43.2754 40.8879L40.2818 43.9272L41.4609 40.2983Z" fill="white"/>
<path d="M43.4025 41.7316L42.1867 40.5342L40.2818 43.9272L43.4025 41.7316Z" fill="white"/>
<path d="M42.5508 39.8569V41.1818L45.2005 39.8569H42.5508Z" fill="#CC142B"/>
<path d="M43.0807 41.4468L42.5508 40.3869L45.2005 39.8569L43.0807 41.4468Z" fill="#CC142B"/>
<path d="M42.5508 39.8569V41.1818L39.901 39.8569H42.5508Z" fill="#CC142B"/>
<path d="M42.0208 41.4468L42.5508 40.3869L39.901 39.8569L42.0208 41.4468Z" fill="#CC142B"/>
<path d="M43.3066 40.4062L42.0466 40.8157L44.1255 42.9263L43.3066 40.4062Z" fill="#CC142B"/>
<path d="M41.9584 41.4016L42.8026 40.57L44.1255 42.9263L41.9584 41.4016Z" fill="#CC142B"/>
<path d="M41.7949 40.4062L43.055 40.8157L42.6137 37.8862L41.7949 40.4062Z" fill="#CC142B"/>
<path d="M43.4707 40.3935L42.2989 40.57L42.6137 37.8862L43.4707 40.3935Z" fill="#CC142B"/>
<path d="M41.7949 40.4062L43.055 40.8157L40.9761 42.9263L41.7949 40.4062Z" fill="#CC142B"/>
<path d="M43.1432 41.4016L42.2989 40.57L40.9761 42.9263L43.1432 41.4016Z" fill="#CC142B"/>
<path d="M-7 -7H25V25H-7V-7Z" fill="#012169"/>
<path d="M25 -7V-3L13.125 9L25 20.6875V25H20.8125L8.875 13.25L-2.75 25H-7V20.75L4.625 9.0625L-7 -2.375V-7H-3.125L8.875 4.75L20.5 -7H25Z" fill="white"/>
<path d="M4.5 13.25L5.1875 15.375L-4.375 25H-7V24.8125L4.5 13.25ZM12.25 12.5L15.625 13L25 22.1875V25L12.25 12.5ZM25 -7L13 5.25L12.75 2.5L22.125 -7H25ZM-7 -6.9375L5.0625 4.875L1.375 4.375L-7 -3.9375V-6.9375Z" fill="#C8102E"/>
<path d="M4 -7V25H14V-7H4ZM-7 4V14H25V4H-7Z" fill="white"/>
<path d="M-7 6V12H25V6H-7ZM6 -7V25H12V-7H6Z" fill="#C8102E"/>
</g>
</g>
<defs>
<clipPath id="clip0_17_8298">
<rect width="50" height="50" fill="white"/>
</clipPath>
<clipPath id="clip1_17_8298">
<rect width="64" height="64" fill="white" transform="translate(-4.5 -4.5)"/>
</clipPath>
<clipPath id="clip2_17_8298">
<rect width="64" height="64" fill="white" transform="translate(-4.5 -4.5)"/>
</clipPath>
<clipPath id="clip3_17_8298">
<rect width="64" height="64" fill="white" transform="translate(-7 -7)"/>
</clipPath>
</defs>
</svg>
