<svg width="50" height="50" viewBox="0 0 50 50" fill="none" xmlns="http://www.w3.org/2000/svg">
<g clip-path="url(#clip0_17_8534)">
<rect width="50" height="50" fill="#F1B6B6"/>
<path d="M-0.0807447 37.7107H55.0414V56H-0.0807447V37.7107Z" fill="#FFCE00"/>
<path d="M-0.0807447 1.14286H55.0414V19.4321H-0.0807447V1.14286Z" fill="black"/>
<path d="M-0.0807447 19.4321H55.0414V37.7107H-0.0807447V19.4321Z" fill="#DD0000"/>
<path d="M-0.0807447 37.7107H55.0414V56H-0.0807447V37.7107Z" fill="#FFCE00"/>
<path d="M-0.0807447 1.14286H55.0414V19.4321H-0.0807447V1.14286Z" fill="black"/>
<path d="M-0.0807447 19.4321H55.0414V37.7107H-0.0807447V19.4321Z" fill="#DD0000"/>
<path d="M6.49664 -1H45.502V53.8571H6.49664V-1Z" fill="white"/>
<path d="M-13 -1H6.49664V53.8571H-13V-1ZM45.502 -1H65V53.8571H45.502V-1ZM12.3325 25.5071L10.8253 26.0214L17.8663 32.1821C18.4046 33.7679 17.6832 34.2286 17.2203 35.0643L24.8642 34.1L24.6704 41.7607L26.2638 41.7071L25.9085 34.1107L33.5739 35.0107C33.1002 34.0143 32.6803 33.4893 33.111 31.9036L40.152 26.0643L38.9246 25.625C37.9126 24.8429 39.3553 21.8964 39.5706 20.0321C39.5706 20.0321 35.4687 21.4357 35.1996 20.6964L34.1337 18.7143L30.4087 22.7857C29.9996 22.8929 29.8273 22.7214 29.7304 22.3786L31.453 13.8393L28.7184 15.3714C28.4923 15.4679 28.2663 15.3714 28.1155 15.1143L25.4778 9.86429L22.7648 15.3179C22.5602 15.5107 22.3557 15.5321 22.1834 15.4036L19.5781 13.9464L21.1391 22.4321C21.0207 22.7536 20.7193 22.8607 20.3747 22.6786L16.7896 18.6286C16.3267 19.3786 16.0037 20.6 15.3901 20.8786C14.7764 21.125 12.6986 20.3536 11.3097 20.0536C11.7834 21.7571 13.2692 24.5857 12.3325 25.5179V25.5071Z" fill="#D52B1E"/>
</g>
<defs>
<clipPath id="clip0_17_8534">
<rect width="50" height="50" fill="white"/>
</clipPath>
</defs>
</svg>
