<svg width="50" height="50" viewBox="0 0 50 50" fill="none" xmlns="http://www.w3.org/2000/svg">
<g clip-path="url(#clip0_17_8466)">
<rect width="50" height="50" fill="#F1B6B6"/>
<g clip-path="url(#clip1_17_8466)">
<path d="M-4.5 38.1625H59.5V59.5H-4.5V38.1625Z" fill="#FFCE00"/>
<path d="M-4.5 -4.5H59.5V16.8375H-4.5V-4.5Z" fill="black"/>
<path d="M-4.5 16.8375H59.5V38.1625H-4.5V16.8375Z" fill="#DD0000"/>
</g>
<g clip-path="url(#clip2_17_8466)">
<path d="M-4.5 38.1625H59.5V59.5H-4.5V38.1625Z" fill="#FFCE00"/>
<path d="M-4.5 -4.5H59.5V16.8375H-4.5V-4.5Z" fill="black"/>
<path d="M-4.5 16.8375H59.5V38.1625H-4.5V16.8375Z" fill="#DD0000"/>
</g>
<g clip-path="url(#clip3_17_8466)">
<path d="M-7 -7H57.0125V57H-7V-7Z" fill="#C8102E"/>
<path d="M11 -7H20.1375V57H11V-7Z" fill="white"/>
<path d="M-7 20.425H57.0125V29.5751H-7V20.425Z" fill="white"/>
</g>
</g>
<defs>
<clipPath id="clip0_17_8466">
<rect width="50" height="50" fill="white"/>
</clipPath>
<clipPath id="clip1_17_8466">
<rect width="64" height="64" fill="white" transform="translate(-4.5 -4.5)"/>
</clipPath>
<clipPath id="clip2_17_8466">
<rect width="64" height="64" fill="white" transform="translate(-4.5 -4.5)"/>
</clipPath>
<clipPath id="clip3_17_8466">
<rect width="64" height="64" fill="white" transform="translate(-7 -7)"/>
</clipPath>
</defs>
</svg>
