<svg width="107" height="135" viewBox="0 0 107 135" fill="none" xmlns="http://www.w3.org/2000/svg">
<g opacity="0.15">
<path d="M99.1249 41.437C76.0921 54.3011 50.4916 62.7781 24.4441 66.8853C17.2017 68.0172 9.9136 68.771 2.60586 69.1396C1.8626 69.1715 1.07566 70.0794 1.63647 70.8215C10.432 82.2402 16.309 95.4447 22.3521 108.437C25.3597 114.882 28.3932 121.319 31.9185 127.513C32.8063 129.06 33.6871 130.581 34.6199 132.088C35.3113 133.213 36.0926 134.259 37.536 134.346C39.1753 134.436 40.9729 133.871 42.5665 133.584C44.4788 133.238 46.3841 132.867 48.3154 132.489C63.771 129.38 78.9579 125.059 94.0769 120.59C95.8555 120.058 97.6341 119.525 99.4387 118.986C100.958 118.523 103.035 118.273 104.242 117.169C105.36 116.145 105.267 114.552 105.282 113.154C105.297 111.337 105.252 109.509 105.208 107.68C104.978 101.105 104.259 94.5774 103.318 88.0533C102.217 80.5127 100.593 73.0002 100.273 65.3618C99.9526 57.7234 100.375 50.0531 100.838 42.4279C100.931 41.0087 98.6997 40.9932 98.6066 42.4124C98.2236 48.9845 97.8545 55.6086 97.948 62.1924C98.0307 68.5281 98.9707 74.6341 99.9525 80.8962C100.967 87.1774 101.93 93.4725 102.489 99.82C102.78 103.088 102.96 106.358 103.03 109.63C103.07 111.237 103.366 113.277 103.008 114.851C102.747 115.952 101.574 116.044 100.646 116.32C99.7174 116.597 98.7891 116.873 97.8349 117.157C83.5022 121.444 69.0966 125.666 54.485 128.912C50.8581 129.717 47.2172 130.469 43.5555 131.143C41.78 131.48 39.9286 131.948 38.1043 132.102C37.1532 132.19 36.8611 131.515 36.4112 130.771C35.9143 129.956 35.4106 129.115 34.9068 128.274C31.4252 122.347 28.4025 116.158 25.4836 109.941C18.9887 96.0931 12.9247 81.879 3.53543 69.6992C3.21231 70.2598 2.88918 70.8205 2.56605 71.3811C29.2226 70.0666 55.7065 63.6395 80.2487 53.1873C87.0691 50.2723 93.7399 47.0069 100.235 43.3982C101.488 42.672 100.359 40.7437 99.1249 41.437Z" fill="black"/>
<path d="M6.86811 76.8372C19.786 75.2721 32.6095 73.1467 45.3246 70.4089C57.721 67.7287 70.1396 64.8194 81.5993 59.267C88.0572 56.1423 94.2179 52.4281 100.386 48.7398C101.606 47.9945 100.484 46.0923 99.2563 46.8115C88.5811 53.2134 77.838 59.4661 65.8225 63.0482C53.6511 66.672 41.083 69.231 28.6061 71.4029C21.3985 72.665 14.1421 73.7449 6.85596 74.6097C5.48223 74.7825 5.46144 76.9911 6.86811 76.8372Z" fill="black"/>
<path d="M68.0493 54.4205C63.8996 54.417 61.3623 50.6631 60.1145 47.1492C58.9364 43.8956 57.9718 39.776 59.9074 36.6083C60.9357 34.9384 62.6059 33.7938 64.1932 32.755C66.0712 31.5546 68.0031 30.4514 70.0358 29.5163C74.0492 27.6602 78.4453 26.8169 82.3769 24.7595C85.7269 23.0253 88.6802 20.2262 89.6532 16.4798C89.2794 16.7473 88.9385 17.0338 88.5647 17.3013C90.9681 17.4381 93.3322 17.948 95.5602 18.8847C95.5557 18.2445 95.5512 17.6044 95.5467 16.9642C91.9123 19.6112 92.858 24.907 93.713 28.7213C94.7739 33.5122 96.7308 38.4255 95.6679 43.395C95.372 44.7849 97.5093 45.3834 97.8052 43.9936C98.7357 39.6729 97.6913 35.4632 96.6209 31.2605C96.0612 29.068 95.4757 26.8826 95.2607 24.6257C95.0915 22.7469 94.9747 20.1291 96.676 18.8924C97.2557 18.4582 97.5104 17.3304 96.6626 16.9719C94.0602 15.8846 91.3805 15.2362 88.5855 15.0928C88.102 15.055 87.6262 15.4614 87.4969 15.9143C86.4136 20.0807 82.5466 22.4832 78.7683 23.9696C74.2575 25.736 69.7112 26.9542 65.4926 29.3952C61.9906 31.3932 58.0577 33.7576 56.9553 37.957C55.9753 41.6774 57.0628 45.7361 58.5185 49.1943C60.1915 53.1519 63.4492 56.6849 68.0165 56.688C69.451 56.6383 69.4649 54.4037 68.0493 54.4205Z" fill="black"/>
<path d="M92.1498 16.3407C93.3789 13.4459 96.9707 7.93815 92.4268 6.2556C91.5599 5.93015 90.0297 5.7267 89.5829 4.78676C88.9866 3.4965 90.674 3.35111 91.5871 3.32954C92.8917 3.31458 93.2986 4.20945 94.251 4.95813C94.9258 5.50233 95.6767 5.91461 96.4517 6.2089C98.402 6.94114 100.202 6.48685 102.204 6.47998C102.759 6.47085 105.192 6.82276 104.461 7.93889C104.283 8.20968 102.606 8.18504 102.247 8.19749C101.733 8.25169 101.237 8.27292 100.742 8.29415C98.7595 8.37906 97.1443 8.17048 96.1946 10.2375C95.2329 12.3635 94.5017 14.623 93.7897 16.8494C93.35 18.2221 95.5063 18.7876 95.9269 17.4479C96.57 15.3794 97.258 13.2709 98.1437 11.2768C98.6341 10.1973 99.6518 10.566 100.721 10.5027C101.797 10.4654 102.859 10.376 103.907 10.2346C105.521 10.0251 107.073 9.5814 106.928 7.58467C106.809 5.99908 105.419 4.86562 103.996 4.43828C102.154 3.90025 100.301 4.67555 98.4501 4.41858C97.5541 4.29614 96.6543 3.95164 95.9275 3.42137C95.1348 2.85298 94.6171 1.95995 93.7603 1.46448C91.296 0.0612607 86.3259 1.67187 87.357 5.10436C87.9597 7.14582 89.9252 7.62302 91.6659 8.29992C92.5067 8.63232 92.6512 9.06766 92.4187 9.96652C92.2654 10.5374 92.0133 11.0512 91.794 11.5839C91.2796 12.7814 90.7721 14.005 90.2577 15.2025C89.6672 16.5319 91.5853 17.6632 92.1498 16.3407Z" fill="black"/>
<path d="M40.8552 62.0418C37.8745 61.725 35.573 59.1628 34.8011 56.3859C33.8638 53.0956 34.7038 49.58 35.969 46.5082C37.1652 43.5944 38.8119 40.6992 38.7756 37.4463C38.7558 34.7746 37.674 32.1923 35.3466 30.7803C35.4791 31.2746 35.6185 31.795 35.7509 32.2893C37.1562 30.156 38.8461 28.2531 40.7805 26.5357C40.1513 26.3697 39.548 26.1967 38.9188 26.0307C39.4905 29.3074 42.9629 30.5242 45.7193 31.4587C49.8799 32.8536 54.0404 34.2485 58.194 35.6173C59.5392 36.0655 60.1354 33.9259 58.7901 33.4777C55.3057 32.32 51.8213 31.1622 48.3368 30.0044C45.9479 29.1945 41.5771 28.4695 41.0491 25.4599C40.89 24.5544 39.7532 24.4686 39.1874 24.9548C37.1111 26.766 35.3332 28.8598 33.8329 31.158C33.4958 31.6666 33.7429 32.3812 34.2372 32.667C37.1977 34.4671 36.7828 38.4265 35.7805 41.2326C34.604 44.5316 32.9003 47.5257 32.367 51.0427C31.5341 56.8709 34.4016 63.52 40.8534 64.2173C42.2727 64.4226 42.2606 62.195 40.8552 62.0418Z" fill="black"/>
<path d="M35.8813 29.2427C34.4809 27.8612 33.1147 26.1916 31.5483 25.0219C30.2664 24.0826 29.0112 24.6978 27.9575 25.6494C27.3086 26.2415 26.7574 27.1979 25.9679 27.5768C24.6538 28.1799 24.8837 26.7519 25.5775 26.1198C26.9271 24.9216 28.8952 24.7846 30.2099 23.4564C31.4157 22.241 31.8566 20.5612 32.9046 19.2765C33.0516 19.0977 33.9874 18.1219 34.1478 18.7204C34.2035 18.9285 33.8715 19.3521 33.7695 19.491C33.4654 20.0186 33.1024 20.5342 32.93 21.1381C32.0323 24.3345 35.8824 26.6491 38.1871 27.872C39.4512 28.5371 40.5536 26.6244 39.2895 25.9592C37.8606 25.1988 34.3476 23.5189 35.2055 21.4207C35.756 20.0462 37.0277 18.8689 35.9251 17.3518C34.8763 15.9318 32.8062 16.2076 31.6575 17.3241C30.1558 18.7861 29.8372 21.1302 28.084 22.3808C26.4277 23.5775 24.134 23.7459 23.1114 25.7488C22.417 27.1061 22.7631 29.0211 24.185 29.7555C26.0612 30.7307 27.7428 29.1089 28.9486 27.8935C29.1665 27.6678 29.7406 26.9005 30.0923 26.862C30.5478 26.7957 31.1435 27.6679 31.4489 27.9765C32.4311 28.9402 33.4133 29.904 34.3885 30.8418C35.3448 31.8125 36.9034 30.2516 35.8813 29.2427Z" fill="black"/>
<path d="M9.92117 68.0718C7.00004 67.042 5.31499 63.1433 4.27125 60.495C2.88657 56.99 1.60706 53.15 4.14715 49.8482C6.06822 47.3535 8.95056 45.7447 11.0034 43.3263C13.4783 40.4044 13.9717 36.8423 13.0407 33.1599C12.7746 33.6216 12.5085 34.0833 12.2614 34.512C14.3536 34.0072 16.4719 33.4954 18.5711 33.0165C18.113 32.5537 17.6618 32.1169 17.2036 31.654C16.6956 33.6027 17.0834 35.6739 18.1309 37.401C19.373 39.4384 21.2663 40.2696 23.3194 41.2811C27.3076 43.2798 30.6502 45.6747 31.9861 50.1409C32.3816 51.5129 34.5378 50.9351 34.1424 49.5631C32.9737 45.7213 30.5575 42.9388 27.1618 40.865C25.3356 39.7648 23.1773 39.0883 21.4531 37.8493C19.7549 36.6033 18.7828 34.3262 19.315 32.2595C19.5354 31.4196 18.7858 30.7003 17.9475 30.897C15.8552 31.4019 13.737 31.9137 11.6378 32.3925C11.0333 32.5266 10.7051 33.1722 10.8585 33.7446C11.4181 35.9371 11.498 38.3138 10.3715 40.3445C9.52317 41.8546 8.22554 43.0388 6.93994 44.1641C4.47773 46.3018 1.69489 48.3859 0.73319 51.6553C-0.357747 55.3775 1.35709 59.4912 2.87673 62.8765C4.21893 65.8073 6.10925 69.1211 9.332 70.2374C10.7032 70.6787 11.2664 68.52 9.92117 68.0718Z" fill="black"/>
<path d="M14.306 32.3747C13.9498 30.6297 13.7356 28.7909 13.1975 27.0946C12.8179 25.8857 12.0676 24.7482 10.7642 24.4561C9.75545 24.2245 7.60683 25.2464 7.01117 24.3742C6.27482 23.2888 7.53069 23.0917 8.29295 23.0269C9.32895 22.9445 10.4118 22.9332 11.4548 22.8768C13.1561 22.7835 14.9024 22.6502 16.4276 21.7953C16.7894 21.5869 17.1733 21.1493 17.589 21.038C17.9159 20.6994 18.1377 20.6957 18.2423 21.086C18.5407 21.3685 18.4336 21.5924 17.947 21.7507C17.2893 22.2058 16.4352 22.2395 15.7845 22.7206C14.6249 23.589 14.8151 25.5458 14.909 26.8312C15.0124 28.6719 15.4345 30.455 16.0904 32.1754C16.6087 33.4866 18.746 32.9418 18.2466 31.5977C17.796 30.4357 17.4424 29.2198 17.2446 27.9622C17.1394 27.1538 16.7325 25.1157 17.2495 24.4473C17.3965 24.2685 18.0669 24.1725 18.3127 24.0509C18.7854 23.8406 19.2321 23.6372 19.637 23.2777C20.2218 22.7585 20.64 22.033 20.7046 21.2349C20.8091 19.3386 19.1907 18.1828 17.4501 18.6491C16.385 18.9346 15.636 19.7766 14.6248 20.1591C13.4646 20.6094 12.127 20.6053 10.9142 20.6514C9.21288 20.7448 6.67577 20.4207 5.33506 21.7559C4.08431 23.0113 4.51594 25.3496 5.82573 26.3929C6.39476 26.8539 7.07593 27.006 7.81222 26.9481C8.49655 26.9042 9.45395 26.4246 10.1351 26.5767C11.1109 26.7893 11.2137 28.2118 11.3778 29.0322C11.6415 30.328 11.9051 31.6237 12.1688 32.9195C12.4413 34.3523 14.5646 33.7554 14.306 32.3747Z" fill="black"/>
<path d="M51.22 32.2435C52.9686 26.9229 58.699 23.9932 59.3881 18.1478C59.0162 18.5263 58.6373 18.8788 58.2654 19.2573C60.3634 19.0856 62.4265 18.7837 64.4668 18.2928C64.0105 17.941 63.5214 17.5701 63.0651 17.2183C62.7864 19.6075 63.9645 21.7179 65.3985 23.5366C66.1659 24.53 67.0492 25.4366 67.7197 26.484C68.1956 27.2209 68.4231 28.6936 69.226 29.092C69.8121 29.409 70.7214 29.1653 70.8588 28.4314C70.9361 27.9924 70.9114 27.6923 70.7029 27.3298C70.0286 26.0605 68.1297 27.1828 68.778 28.4591C68.7919 28.5111 68.8318 28.5562 68.8388 28.5822C68.7881 28.2891 68.7703 28.015 68.7196 27.7218C68.7006 27.7548 68.7146 27.8068 68.6955 27.8398C69.2462 27.6086 69.7708 27.3844 70.3284 27.1792C70.3024 27.1862 70.2955 27.1602 70.2695 27.1671C70.4431 27.3995 70.6098 27.6058 70.7834 27.8381C70.1706 25.9667 69.023 24.4895 67.7905 23.0072C66.3983 21.3446 64.9712 19.5519 65.2708 17.2408C65.3493 16.4947 64.4926 15.9992 63.8691 16.1663C62.0107 16.6085 60.1434 16.9137 58.2602 17.0557C57.6088 17.1187 57.2179 17.5302 57.1375 18.1653C56.8056 20.8754 54.9117 23.056 53.2238 25.0699C51.5429 27.1097 49.8879 29.1427 49.0447 31.711C48.643 33.0177 50.7803 33.6162 51.22 32.2435Z" fill="black"/>
<path d="M60.803 17.7129C60.6135 16.1742 60.4689 14.5956 60.2275 13.0708C60.0943 12.1584 59.7185 11.1715 58.7098 10.9399C58.1135 10.7929 57.7467 11.0864 57.1872 11.1806C55.8793 11.3916 55.8995 9.90824 57.2701 9.93139C58.6996 9.96664 60.0512 10.0228 61.468 9.69892C62.7029 9.42379 64.8129 8.04975 66.0352 8.55879C67.1656 9.03668 66.1138 10.0993 65.4333 10.3653C64.7338 10.6643 63.9436 10.625 63.1953 10.7419C60.1291 11.1452 60.6698 14.5139 61.5032 16.6887C62.0215 17.9999 64.1588 17.4551 63.6594 16.111C63.4211 15.5335 62.6505 13.5928 63.1694 13.0354C63.5154 12.6639 65.1876 12.7735 65.7591 12.6204C67.181 12.2115 68.3975 11.2442 68.7174 9.73629C69.0373 8.22842 68.0545 6.84653 66.6313 6.41919C64.7627 5.88812 63.0785 6.98076 61.3379 7.44714C60.2988 7.72559 59.2628 7.80798 58.1919 7.76029C57.3498 7.73496 56.5248 7.56563 55.7024 7.92543C54.4193 8.43654 53.6679 9.89273 53.9784 11.2596C54.2959 12.6524 55.6558 13.5708 57.0764 13.469C57.1613 13.4741 57.9857 13.2253 57.9857 13.2253C58.0446 13.2374 58.0959 13.9487 58.1327 14.1898C58.2766 15.3503 58.4275 16.5369 58.5714 17.6974C58.752 19.099 60.9907 19.1406 60.803 17.7129Z" fill="black"/>
<path d="M24.6782 34.9216C26.0893 34.2646 27.6055 33.2728 29.1193 32.895C28.8316 32.8606 28.5699 32.8192 28.2823 32.7847C28.9013 33.1208 29.2993 33.8786 29.9513 34.2337C30.5514 34.6027 31.2535 34.8329 31.9416 35.011C33.6126 35.4277 35.4248 35.3325 37.0615 36.0373C38.3567 36.6105 39.4851 34.6908 38.1639 34.1245C37.0005 33.6276 35.8479 33.3787 34.5794 33.2167C33.193 33.0305 31.5727 32.9069 30.4917 31.8859C29.6692 31.1025 29.2731 30.4557 28.0281 30.9008C26.5042 31.4486 25.031 32.2895 23.575 32.9864C22.2678 33.6155 23.397 35.5437 24.6782 34.9216Z" fill="black"/>
<path d="M22.3572 35.4041C24.3444 36.3774 24.6372 38.6135 24.8604 40.5893C25.015 41.9979 27.2467 42.0134 27.092 40.6048C26.7706 37.8466 26.2097 34.818 23.4527 33.4653C22.1765 32.8591 21.0551 34.8049 22.3572 35.4041Z" fill="black"/>
<path d="M24.6294 33.5962C24.0292 32.0839 23.4424 30.2055 22.4545 28.9086C22.1072 28.4439 21.6459 28.1771 21.0446 28.1152C20.6131 28.0635 18.4397 28.7853 19.072 27.612C19.3312 27.1242 20.613 26.9202 21.1047 26.6769C21.7003 26.4058 22.2161 26.0445 22.7109 25.6052C23.7716 24.6796 24.5199 23.4194 25.289 22.2373C25.6831 21.6298 26.1032 21.0153 26.5961 20.465C26.6791 20.3591 27.57 19.4232 27.1341 19.8746C26.9161 20.1004 26.6981 20.3261 26.4732 20.5258C25.4125 21.4513 24.1523 22.1515 23.5029 23.4689C22.0159 26.5443 25.036 29.9179 26.7773 32.1562C27.6645 33.2849 29.2162 31.6979 28.329 30.5692C27.2283 29.1631 24.4896 26.2161 25.585 24.2773C26.3954 22.8332 28.3039 22.2661 29.1922 20.8011C30.0234 19.4351 29.3156 17.7285 27.6295 17.5668C25.9174 17.4121 24.7522 19.0907 23.8861 20.3267C22.8989 21.7345 22.1063 23.4527 20.6091 24.4116C19.2538 25.2767 17.3757 25.3337 16.8258 27.1263C16.369 28.643 17.3626 30.2729 18.9397 30.5475C19.2604 30.601 19.5671 30.6025 19.8598 30.5519C20.6081 30.4351 20.5454 30.2009 20.9744 30.8668C21.5979 31.843 22.0105 33.0709 22.4402 34.1549C23.0175 35.4781 25.1737 34.9004 24.6294 33.5962Z" fill="black"/>
<path d="M83.9266 57.2491C89.79 77.2614 91.3961 98.2192 93.6428 118.866C93.7905 120.248 95.9582 120.337 95.8745 118.881C95.8529 118.385 95.7984 117.87 95.7768 117.374C95.6741 115.951 93.4684 115.929 93.5451 117.358C93.5667 117.855 93.6212 118.37 93.6428 118.866C94.393 118.86 95.1242 118.887 95.8745 118.881C93.605 98.0456 91.9951 76.8657 86.0828 56.6714C85.6614 55.3064 83.5311 55.8772 83.9266 57.2491Z" fill="black"/>
<path d="M68.1448 63.4019C73.5324 82.6772 78.913 101.927 84.3005 121.202C84.696 122.574 86.8262 122.003 86.4568 120.624C81.0692 101.349 75.6886 82.0995 70.3011 62.8242C69.9056 61.4522 67.7494 62.03 68.1448 63.4019Z" fill="black"/>
<path d="M51.3105 67.9127C57.0377 87.2085 62.5381 106.593 67.8046 126.04C68.1741 127.419 70.3303 126.841 69.9608 125.462C64.6683 106.022 59.1749 86.6637 53.4668 67.3349C53.0453 65.9699 50.9151 66.5407 51.3105 67.9127Z" fill="black"/>
<path d="M36.0381 71.8097C41.5859 90.5401 47.4715 109.18 53.6878 127.703C54.1352 129.062 56.2915 128.484 55.8441 127.126C49.6277 108.602 43.7422 89.9624 38.1943 71.2319C37.7729 69.8669 35.6097 70.4187 36.0381 71.8097Z" fill="black"/>
<path d="M21.0259 72.6254C24.1814 82.7389 28.0312 92.6384 32.5287 102.253C34.7504 107.012 37.1591 111.637 39.6977 116.227C42.2972 120.94 44.7078 125.676 46.3618 130.81C46.8093 132.168 48.9395 131.597 48.5181 130.232C45.2676 120.283 39.368 111.463 34.9004 102.064C30.2901 92.3399 26.3794 82.3172 23.1822 72.0476C22.7607 70.6826 20.6045 71.2604 21.0259 72.6254Z" fill="black"/>
<path d="M63.7744 47.5071C63.2326 45.5887 62.8079 43.2765 63.4009 41.3329C63.9819 39.4484 65.6641 38.2447 67.2253 37.2129C68.4058 36.4225 67.3095 34.5133 66.0961 35.2846C64.1541 36.5579 62.2158 38.0532 61.3808 40.3405C60.5217 42.7458 60.9179 45.6791 61.6182 48.0848C62.0396 49.4498 64.1699 48.879 63.7744 47.5071Z" fill="black"/>
<path d="M88.9206 25.4879C89.036 27.2696 89.3852 28.9886 90.0272 30.657C90.5455 31.9681 92.6828 31.4233 92.1834 30.0792C91.6162 28.586 91.2448 27.096 91.1522 25.5035C91.0495 24.0809 88.8438 24.0585 88.9206 25.4879Z" fill="black"/>
<path d="M37.2604 46.8593C34.4276 51.355 37.9851 56.0068 41.0603 59.1704C42.0564 60.1862 43.6151 58.6253 42.612 57.5834C40.2605 55.1461 36.9159 51.497 39.1715 47.9646C39.9337 46.7565 38.0226 45.6512 37.2604 46.8593Z" fill="black"/>
<path d="M6.98838 49.6446C3.40913 53.2249 6.30833 59.0569 8.38622 62.655C8.76327 63.3348 9.59144 63.3081 10.1452 62.8809C10.5121 62.5874 10.6312 62.3045 10.8003 61.8966C11.3389 60.5811 9.20855 60.0087 8.66305 61.2981C8.63707 61.3051 8.61109 61.3121 8.58512 61.319C9.16046 61.3879 9.73581 61.4569 10.3441 61.5448C8.83782 58.9368 5.92598 53.889 8.60741 51.2185C9.58823 50.2028 7.99518 48.6219 6.98838 49.6446Z" fill="black"/>
<path d="M18.9265 43.0716C20.003 43.4524 20.8895 44.163 21.603 45.0593C21.9763 45.517 22.7905 45.4383 23.1624 45.0598C23.6243 44.6014 23.535 43.9561 23.1617 43.4984C22.2277 42.2986 20.9407 41.4444 19.5036 40.965C18.1444 40.4647 17.5742 42.5974 18.9265 43.0716Z" fill="black"/>
<path d="M59.0247 22.8184C58.6274 23.622 58.2961 24.4637 58.0167 25.2914C57.8374 25.8693 58.2335 26.5161 58.7968 26.644C59.4 26.817 59.9677 26.4418 60.147 25.8639C60.3833 25.1871 60.6336 24.5624 60.9358 23.9237C61.181 23.3839 61.0846 22.7126 60.5315 22.4147C60.0372 22.1288 59.2699 22.2786 59.0247 22.8184Z" fill="black"/>
</g>
</svg>
