<svg width="147" height="117" viewBox="0 0 147 117" fill="none" xmlns="http://www.w3.org/2000/svg">
<g opacity="0.15">
<path d="M24.3219 37.8604C30.8354 41.0578 36.5635 45.6256 40.9058 51.381C44.8324 56.5883 47.0035 63.3487 52.4545 67.277C57.7207 71.0682 66.9596 72.3929 72.6416 68.7843C78.6007 65.0387 80.8642 57.1821 81.8343 50.6959C83.0816 42.6109 82.4348 34.4802 81.4186 26.3952C80.6332 20.0003 80.1713 12.9659 76.6143 7.39322C72.9649 1.6378 66.4515 -0.691771 59.7532 0.176109C52.2697 1.18102 45.5715 5.74881 39.7048 10.1796C33.3299 15.0671 27.5556 20.7312 22.8437 27.3088C20.8573 30.0951 18.3628 33.3839 20.1182 36.9011C22.0122 40.6011 26.2159 41.3319 30.0039 41.6516C32.4522 41.88 32.4522 38.0888 30.0039 37.8604C26.8164 37.5863 21.6888 36.5814 23.9986 32.3334C25.4768 29.6384 27.5556 27.1261 29.5419 24.7965C33.6071 20.1374 38.2265 15.935 43.2155 12.3264C48.3432 8.58084 54.2561 4.51551 60.7695 3.83034C67.1444 3.19085 72.3644 6.20559 74.7665 12.0524C76.9839 17.4424 77.3534 23.6546 78.0001 29.3643C78.7393 36.0789 79.2012 43.022 78.1849 49.7366C77.3534 55.2637 75.5518 63.0289 70.147 65.9066C64.6499 68.83 56.1963 66.5461 52.3159 62.024C50.3295 59.6944 48.9437 56.9081 47.3731 54.2588C45.7101 51.4267 43.8161 48.7317 41.6449 46.2651C37.3488 41.4233 32.0826 37.4493 26.2621 34.6173C24.0448 33.521 22.1508 36.7641 24.3219 37.8604Z" fill="black"/>
<path d="M29.3571 37.0839C22.4741 40.0529 15.6835 44.8034 11.2488 50.8786C9.07768 53.8477 9.35485 56.771 11.5722 59.5574C14.1129 62.7092 17.0232 65.6326 20.072 68.2819C23.0747 70.9312 26.3083 73.3521 29.6805 75.499C32.6832 77.4175 35.963 79.1075 39.6124 79.3359C47.8812 79.8384 54.1175 73.5348 59.1527 67.9621C60.7695 66.1807 58.0902 63.4857 56.4734 65.3128C52.2697 69.9263 47.2345 75.6817 40.3515 75.5903C37.1179 75.5447 34.2538 73.9459 31.5745 72.2102C28.7104 70.3831 25.9387 68.3275 23.3518 66.0893C20.9497 64.0338 18.64 61.7956 16.515 59.4204C15.5449 58.3698 14.0667 57.0451 13.6048 55.6748C13.0504 53.8933 14.852 52.2489 15.9607 51.0156C20.2106 46.3108 25.4306 42.7022 31.2973 40.2356C33.5147 39.4134 31.5745 36.1703 29.3571 37.0839Z" fill="black"/>
<path d="M74.2584 7.48457C81.3262 8.80923 88.3016 10.545 95.1384 12.6919C96.94 13.24 98.7878 13.8795 100.543 14.4733C102.252 15.0671 104.654 15.3869 104.839 17.488C104.978 18.9041 104.008 20.9139 103.638 22.2385C103.13 23.9286 102.622 25.6187 102.114 27.3088C100.035 34.0691 97.9563 40.7838 95.6465 47.4527C95.0922 49.0058 94.584 50.4675 93.1058 51.381C91.7662 52.2032 89.9646 52.5687 88.4401 53.0711C84.7446 54.3044 81.049 55.4921 77.3534 56.7254C75.0437 57.5019 76.0138 61.1104 78.3697 60.3796C82.6196 58.9636 86.9157 57.5932 91.1656 56.1772C94.5378 55.081 97.1247 53.8933 98.5568 50.5132C100.081 46.9046 101.144 43.022 102.345 39.3221C103.684 35.1197 105.024 30.9173 106.317 26.6693C107.288 23.4262 109.459 19.1324 108.489 15.7066C107.565 12.3721 103.638 11.5956 100.728 10.5907C92.4129 7.71296 83.8669 5.52042 75.2285 3.87602C72.8725 3.37356 71.8563 7.0278 74.2584 7.48457Z" fill="black"/>
<path d="M105.301 22.5583C109.644 24.8422 114.124 26.852 118.79 28.4507C120.592 29.0902 123.363 29.547 124.703 31.0544C126.274 32.8815 123.825 36.8098 122.994 38.6826C122.07 40.6467 121.192 42.8393 119.668 44.3923C117.959 46.1738 115.556 46.7219 113.154 46.9046C107.934 47.3157 102.576 47.0416 97.3095 46.7676C94.8612 46.6305 94.8612 50.4218 97.3095 50.5588C103.5 50.8786 110.429 51.6094 116.527 50.2391C122.301 48.9601 124.749 44.0726 126.92 39.1394C127.983 36.7641 129.461 34.0691 128.907 31.3741C128.445 29.0902 126.736 27.5829 124.657 26.6236C122.208 25.4817 119.483 24.7965 116.942 23.8373C113.616 22.5583 110.383 21.0052 107.195 19.3608C105.07 18.1732 103.13 21.4163 105.301 22.5583Z" fill="black"/>
<path d="M123.41 47.0873C128.537 45.4886 133.803 46.9503 138.608 49.0515C140.271 49.7823 142.072 50.9699 144.012 50.3305C145.629 49.7823 146.645 48.2293 146.923 46.6305C147.523 42.9306 144.52 40.0986 141.656 38.3172C137.129 35.3938 132.279 32.9272 127.613 30.2779C125.488 29.0445 123.548 32.3334 125.673 33.521C129.369 35.6222 133.064 37.7234 136.76 39.8702C138.284 40.7381 144.382 43.6158 143.042 46.2194C142.488 47.3157 139.531 45.4429 138.469 45.0318C136.667 44.301 134.82 43.6615 132.926 43.2504C129.369 42.4739 125.812 42.4282 122.347 43.5244C120.037 44.1639 121.054 47.8182 123.41 47.0873Z" fill="black"/>
<path d="M11.4798 59.5574C6.90653 64.0795 3.34954 69.5152 1.17839 75.5903C0.346887 77.9199 -0.71559 80.889 0.67025 83.2642C2.24087 85.9136 6.53697 86.3246 9.17007 87.1012C12.9118 88.1974 16.6536 89.2937 20.3492 90.39C22.197 90.9381 24.091 91.4863 25.9387 92.0344C27.5094 92.4912 29.2186 93.222 30.8816 93.1763C33.8842 93.085 35.501 90.2073 36.9331 87.9691C38.7809 85.0913 40.2129 81.9396 41.3216 78.6964C42.1069 76.4125 38.4113 75.4076 37.626 77.6915C36.7945 80.1581 35.732 82.4877 34.4386 84.7259C33.7918 85.8679 33.0527 86.9641 32.2674 88.0147C31.2049 89.4307 30.2348 89.3394 28.618 88.8826C23.0285 87.2382 17.4389 85.5938 11.8032 83.9037C10.5097 83.5383 9.21627 83.1272 7.92282 82.7618C6.99892 82.4877 4.45821 82.168 3.85768 81.2544C2.88759 79.7927 4.92016 75.9558 5.52069 74.6311C7.50706 69.972 10.4635 65.7696 14.1129 62.161C15.9145 60.5166 13.189 57.8673 11.4798 59.5574Z" fill="black"/>
<path d="M5.05874 82.8074C2.51804 88.1061 1.40937 93.9985 2.0099 99.8453C2.56423 105.098 4.27344 111.356 7.92282 115.376C9.72441 117.34 12.4037 117.523 14.5287 115.924C16.6536 114.325 17.1156 111.63 17.8085 109.255C19.6101 103.363 22.3818 97.4701 27.417 93.5874C29.311 92.1257 27.417 88.8369 25.4768 90.3443C21.735 93.1763 18.9171 96.8306 16.8846 101.033C15.9145 103.043 15.1292 105.098 14.4363 107.199C13.9743 108.661 12.958 114.736 10.5097 112.635C8.9391 111.31 7.92281 108.204 7.22989 106.377C6.39839 104.048 5.84405 101.627 5.65928 99.1601C5.24352 94.2269 6.12122 89.248 8.24618 84.7259C9.40104 82.4877 6.12122 80.5692 5.05874 82.8074Z" fill="black"/>
<path d="M35.8244 32.1963C35.8706 32.105 35.963 32.0136 36.0092 31.9223C36.1478 31.7395 35.732 32.1963 35.963 31.9679C36.1016 31.8309 36.2402 31.6482 36.4249 31.5112C36.6097 31.3284 36.4249 31.5112 36.3325 31.5568C36.4249 31.5112 36.5173 31.4198 36.6097 31.3741C36.7945 31.2371 37.0255 31.1457 37.2102 31.0544C38.1341 30.6433 38.4113 29.2729 37.9032 28.4964C37.3026 27.5829 36.2864 27.3545 35.3163 27.8112C34.1614 28.3137 33.2375 29.2273 32.5908 30.2779C31.9902 31.1457 32.3136 32.4247 33.2375 32.8815C34.1614 33.3839 35.2701 33.0642 35.8244 32.1963Z" fill="black"/>
<path d="M37.4412 37.4493C37.9032 37.1295 38.3651 36.7641 38.7809 36.4444C39.1966 36.1246 39.52 35.8506 39.6586 35.3024C39.7971 34.8456 39.7048 34.2518 39.4738 33.8407C39.1966 33.4296 38.8271 33.0642 38.3189 32.9728C37.857 32.8815 37.2564 32.8815 36.8407 33.1556C36.3787 33.4753 35.9168 33.8407 35.501 34.1605C35.0853 34.4802 34.7619 34.7543 34.6233 35.3024C34.4848 35.7592 34.5771 36.353 34.8081 36.7641C35.0853 37.1752 35.4548 37.5406 35.963 37.632C36.4711 37.769 37.0717 37.769 37.4412 37.4493Z" fill="black"/>
<path d="M39.8433 39.8702C42.2917 39.8702 42.2917 36.0789 39.8433 36.0789C37.395 36.0789 37.395 39.8702 39.8433 39.8702Z" fill="black"/>
<path d="M80.4023 14.519C81.3262 14.656 82.2962 14.793 83.2201 14.9301C84.1902 15.0671 85.2989 14.7017 85.5761 13.6054C85.7609 12.6919 85.2989 11.4586 84.2364 11.2758C83.3125 11.1388 82.3425 11.0018 81.4186 10.8647C80.4485 10.7277 79.3398 11.0931 79.0626 12.1894C78.8778 13.103 79.3398 14.3819 80.4023 14.519Z" fill="black"/>
<path d="M81.6033 16.8942C82.0653 17.0313 82.481 17.1683 82.943 17.351C83.9131 17.6707 85.0679 16.9856 85.2989 16.0263C85.5299 14.9758 84.9755 14.0622 83.9593 13.6968C83.4973 13.5597 83.0816 13.4227 82.6196 13.24C81.6495 12.9202 80.4947 13.6054 80.2637 14.5646C80.0327 15.6152 80.5871 16.5745 81.6033 16.8942Z" fill="black"/>
<path d="M81.8805 20.4114C82.481 20.5941 83.0816 20.7768 83.6821 21.0052C84.6522 21.325 85.8071 20.6398 86.038 19.6806C86.269 18.63 85.7147 17.7164 84.6984 17.351C84.0978 17.1683 83.4973 16.9856 82.8968 16.7572C81.9267 16.4374 80.7718 17.1226 80.5409 18.0819C80.3099 19.1324 80.8642 20.0917 81.8805 20.4114Z" fill="black"/>
<path d="M62.7559 8.2611C64.1879 8.44381 65.62 9.31169 66.4977 10.4993C67.0982 11.3215 68.1607 11.7326 69.0846 11.1845C69.9161 10.7277 70.378 9.44872 69.7775 8.62652C68.0683 6.25127 65.6662 4.88093 62.7559 4.51551C61.7396 4.37848 60.8619 5.47475 60.8619 6.38831C60.8619 7.48457 61.7396 8.12407 62.7559 8.2611Z" fill="black"/>
<path d="M6.62936 81.3914C7.32228 80.2952 8.0152 79.2446 8.70812 78.1483C9.26246 77.2804 8.8929 76.0471 8.0152 75.5903C7.09131 75.0422 5.98264 75.4076 5.4283 76.2755C4.73538 77.3718 4.04246 78.4224 3.34954 79.5186C2.79521 80.3865 3.16476 81.6198 4.04246 82.0766C4.92016 82.5791 6.07503 82.2593 6.62936 81.3914Z" fill="black"/>
<path d="M8.0152 81.8025C10.4635 81.8025 10.4635 78.0113 8.0152 78.0113C5.56689 78.0569 5.56689 81.8025 8.0152 81.8025Z" fill="black"/>
<path d="M6.67556 93.222C6.95273 93.3134 7.27609 93.4047 7.55326 93.4961C8.52334 93.8158 9.67821 93.1307 9.90919 92.1714C10.1402 91.1208 9.58582 90.2073 8.56954 89.8418C8.29237 89.7505 7.96901 89.6591 7.69184 89.5678C6.72175 89.248 5.56689 89.9332 5.33591 90.8924C5.10494 91.943 5.65928 92.8566 6.67556 93.222Z" fill="black"/>
<path d="M6.67556 96.1454C6.95273 96.2368 7.27609 96.3281 7.55326 96.4195C8.52334 96.7392 9.67821 96.054 9.90919 95.0948C10.1402 94.0442 9.58582 93.1307 8.56954 92.7652C8.29237 92.6739 7.96901 92.5825 7.69184 92.4912C6.72175 92.1714 5.56689 92.8566 5.33591 93.8158C5.10494 94.8664 5.65928 95.8257 6.67556 96.1454Z" fill="black"/>
<path d="M107.103 32.3334C107.611 32.3334 108.073 32.3334 108.581 32.3334C109.597 32.3334 110.521 31.4655 110.475 30.4606C110.429 29.4557 109.644 28.5878 108.581 28.5878C108.073 28.5878 107.611 28.5878 107.103 28.5878C106.087 28.5878 105.163 29.4557 105.209 30.4606C105.255 31.4655 106.04 32.379 107.103 32.3334Z" fill="black"/>
<path d="M109.597 30.826C112.046 30.826 112.046 27.0347 109.597 27.0347C107.149 27.0804 107.149 30.826 109.597 30.826Z" fill="black"/>
<path d="M108.858 28.6334C111.307 28.6334 111.307 24.8422 108.858 24.8422C106.41 24.8879 106.41 28.6334 108.858 28.6334Z" fill="black"/>
</g>
</svg>
