<svg width="46" height="38" viewBox="0 0 46 38" fill="none" xmlns="http://www.w3.org/2000/svg">
<path d="M2 14.7404C2.075 25.3318 9.65 34.0813 19.475 35.693C19.55 35.693 19.625 35.693 19.625 35.693C20.75 35.9232 21.875 36 23 36C24.275 36 25.475 35.9232 26.675 35.693C36.5 33.9278 43.925 25.2551 44 14.7404C40.85 15.0474 37.85 15.9684 35.15 17.2731C31.925 18.8081 29.075 20.8804 26.675 23.4131C25.4 24.7946 24.2 26.2528 23.225 27.8646C22.475 29.0925 21.8 30.3205 21.2 31.702M21.275 25.2551C20.75 24.6411 20.225 24.0271 19.7 23.4898C17.3 20.9571 14.45 18.8849 11.225 17.3499C8.375 15.9684 5.225 15.1242 2 14.8172M28.4 12.5147C28.1 5.91422 23.15 2 23.15 2M23.15 2C23.15 2 18.275 5.99097 17.9 12.5914M23.15 2V10.0587M23.15 11.2867V14.5869M26.6 23.4131C25.775 21.3409 24.575 19.4221 23.15 17.6569C21.5 15.6614 19.7 13.9729 17.9 12.5147C17.675 12.3612 17.45 12.1309 17.225 11.9774C13.7 9.2912 10.7 7.75621 10.7 7.75621C10.625 8.5237 10.625 9.2912 10.625 10.0587C10.625 12.5147 10.85 14.8939 11.225 17.2731M23.15 17.7336C28.175 11.5169 35.6 7.83296 35.6 7.83296C35.675 8.60045 35.675 9.36794 35.675 10.1354C35.675 12.5914 35.45 14.9707 35.075 17.2731M19.625 35.9233C19.625 35.9233 19.55 35.8465 19.55 35.7698" stroke="currentcolor" stroke-width="2.5" stroke-miterlimit="10" stroke-linecap="round" stroke-linejoin="round"/>
</svg>
