<svg width="12" height="8" viewBox="0 0 12 8" fill="none" xmlns="http://www.w3.org/2000/svg">
<path d="M-3.39921e-08 1.27765C3.1444e-05 1.12384 0.0440693 0.973485 0.126546 0.845605C0.209023 0.717725 0.326236 0.618055 0.463366 0.559198C0.600495 0.500341 0.751387 0.484938 0.896963 0.514936C1.04254 0.544935 1.17627 0.618988 1.28123 0.727734L6.00461 5.62252L10.728 0.727734C10.8695 0.586049 11.0591 0.50765 11.2559 0.509422C11.4527 0.511194 11.641 0.592996 11.7802 0.737209C11.9193 0.881422 11.9983 1.07651 12 1.28045C12.0017 1.48439 11.926 1.68087 11.7893 1.82756L6.53527 7.27227C6.39452 7.41809 6.20364 7.5 6.00461 7.5C5.80559 7.5 5.61471 7.41809 5.47395 7.27227L0.219918 1.82756C0.0791482 1.68173 4.28723e-05 1.48392 -3.39921e-08 1.27765Z" fill="#161439"/>
</svg>
