<svg width="76" height="44" viewBox="0 0 76 44" fill="none" xmlns="http://www.w3.org/2000/svg">
<path d="M73.6074 8.12289L36.4745 0.152891C35.8473 0.0141726 35.2225 0.11201 34.6731 0.431975L1.7392 19.3806C0.824924 19.9132 0.338714 20.9341 0.502733 21.9815C0.666752 23.0288 1.44032 23.8524 2.48142 24.0818L6.93595 25.0383L7.75789 30.2869C6.62226 30.9507 5.94663 32.2684 6.16325 33.6516C6.27905 34.3911 6.63394 35.0358 7.13479 35.5188L6.7149 41.5686C6.67042 42.1385 6.87719 42.672 7.29705 43.0696C7.3043 43.0775 7.31302 43.0852 7.32151 43.0914C7.74956 43.4741 8.29335 43.6365 8.85358 43.5488L13.111 42.882C13.6712 42.7943 14.1408 42.4733 14.4299 41.9782C14.4359 41.9682 14.4403 41.9585 14.4465 41.95C14.726 41.4414 14.76 40.8716 14.5417 40.3414L12.2927 34.7111C12.6219 34.0981 12.7629 33.3772 12.6469 32.6363C12.4303 31.253 11.3842 30.205 10.1 29.9201L9.41899 25.5716L18.9653 27.6202L20.4242 36.936C20.7367 38.8641 23.101 39.9925 27.6551 40.3856C31.5225 40.7202 36.5219 40.4549 41.7296 39.6394C46.9374 38.8238 51.7786 37.548 55.3584 36.0472C59.5729 34.2809 61.4806 32.4835 61.1887 30.5522C61.1882 30.5492 61.1877 30.5463 61.1873 30.5433L59.7298 21.2364L74.344 12.8264C75.2629 12.2947 75.7519 11.2718 75.5876 10.223C75.4263 9.17371 74.6496 8.34907 73.6074 8.12289ZM10.3048 33.003C10.3828 33.5009 10.0427 33.9677 9.54846 34.0451C9.05276 34.1228 8.58748 33.7806 8.50974 33.2842C8.43154 32.7848 8.77117 32.315 9.2654 32.2377C9.75963 32.1603 10.2266 32.5037 10.3048 33.003ZM9.12853 41.0925L9.45152 36.4388C9.60604 36.4373 9.7604 36.4252 9.91733 36.4006C10.0742 36.376 10.2249 36.3403 10.3725 36.2946L12.1027 40.6267L9.12853 41.0925ZM58.375 27.908C57.2463 27.5127 55.7758 27.2374 53.9572 27.0801C50.0886 26.7472 45.0907 27.0122 39.8829 27.8277C34.6752 28.6433 29.8354 29.9188 26.2539 31.4185C24.5689 32.1245 23.2542 32.8345 22.3006 33.5573L20.2782 20.6428C20.2517 20.4734 20.9074 19.2781 24.6666 17.7038C28.0705 16.2788 32.7206 15.0586 37.7597 14.2695C42.7988 13.4804 47.5992 13.2206 51.2758 13.5368C55.3363 13.8864 56.3261 14.8241 56.3526 14.9935L58.375 27.908ZM54.3559 33.886C50.953 35.2988 46.34 36.5057 41.3639 37.2849C36.3879 38.0642 31.6253 38.3256 27.9549 38.0205C23.8872 37.6825 22.8184 36.7678 22.7705 36.558L22.7703 36.5565C22.7559 36.3399 23.5118 35.1319 27.2895 33.5699C30.6901 32.162 35.2933 30.9597 40.2518 30.1832C45.2117 29.4065 49.9621 29.144 53.6303 29.4449C57.7095 29.7795 58.7956 30.699 58.8464 30.9084C58.866 31.1197 58.1297 32.3186 54.3559 33.886ZM73.1624 10.7597L59.338 18.7155L58.6976 14.6262C58.394 12.6877 56.0319 11.5544 51.4749 11.1618C47.6139 10.8292 42.6117 11.0964 37.3908 11.914C32.1698 12.7316 27.324 14.0067 23.751 15.5034C19.5322 17.2703 17.6296 19.0715 17.9332 21.01L18.5735 25.0993L2.98074 21.7534C2.87818 21.7317 2.85653 21.6702 2.84799 21.6157C2.83946 21.5612 2.84274 21.4958 2.92666 21.4464L35.8621 2.49752C35.9062 2.4725 35.9179 2.47066 35.974 2.48302L73.1101 10.454C73.2126 10.4757 73.235 10.5326 73.2443 10.5915C73.2535 10.6504 73.2505 10.7082 73.1624 10.7597Z" fill="currentcolor"/>
</svg>
