<svg width="54" height="46" viewBox="0 0 54 46" fill="none" xmlns="http://www.w3.org/2000/svg">
<path d="M49.5 0H4.5C2.01595 0.00292466 0.00297551 1.9815 0 4.42309V36.2694C0.00297551 38.711 2.01595 40.6895 4.5 40.6925H31.5V45.1155C31.5001 45.4733 31.7194 45.7958 32.0556 45.9327C32.3919 46.0695 32.7789 45.9939 33.0363 45.741L36 42.8279L38.9637 45.741C39.2211 45.9939 39.6081 46.0695 39.9444 45.9327C40.2807 45.7958 40.4999 45.4733 40.5 45.1155V40.6925H49.5C51.9841 40.6895 53.997 38.711 54 36.2694V4.42309C53.997 1.9815 51.9841 0.00292466 49.5 0ZM29.079 17.3076C28.9399 17.2445 28.8399 17.1198 28.81 16.9721C28.7801 16.8244 28.8239 16.6716 28.9278 16.5609C29.7331 15.7007 29.7331 14.3773 28.9278 13.517C28.8235 13.4062 28.7796 13.253 28.8097 13.1051C28.8399 12.9571 28.9403 12.8323 29.0799 12.7695C30.158 12.2763 30.6726 11.0541 30.2643 9.95638C30.2112 9.81505 30.2301 9.65726 30.3152 9.53194C30.4003 9.40663 30.5413 9.32895 30.6945 9.32299C31.883 9.27391 32.8352 8.33805 32.8851 7.16983C32.8911 7.01905 32.9702 6.88022 33.0979 6.79652C33.2257 6.71282 33.3865 6.6944 33.5304 6.74699C34.6474 7.14592 35.8894 6.64033 36.3924 5.58194C36.4561 5.44493 36.5828 5.34632 36.7331 5.31689C36.8834 5.28745 37.0389 5.33077 37.1511 5.43333C38.0266 6.22499 39.3734 6.22499 40.2489 5.43333C40.3614 5.33084 40.5172 5.28767 40.6676 5.31727C40.818 5.34688 40.9448 5.44566 41.0085 5.58283C41.5105 6.64172 42.7531 7.14731 43.8696 6.74699C44.0135 6.6944 44.1743 6.71282 44.3021 6.79652C44.4298 6.88022 44.5089 7.01905 44.5149 7.16983C44.5654 8.33966 45.5198 9.27616 46.71 9.32388C46.8631 9.32954 47.0042 9.40702 47.0893 9.53222C47.1745 9.65741 47.1934 9.81515 47.1402 9.95638C46.7316 11.0544 47.2467 12.277 48.3255 12.7695C48.4646 12.8325 48.5646 12.9572 48.5945 13.1049C48.6244 13.2526 48.5806 13.4055 48.4767 13.5161C47.6714 14.3764 47.6714 15.6998 48.4767 16.5601C48.581 16.6708 48.6249 16.824 48.5948 16.972C48.5647 17.1199 48.4642 17.2447 48.3246 17.3076C47.2465 17.8007 46.7319 19.0229 47.1402 20.1206C47.1933 20.262 47.1744 20.4198 47.0893 20.5451C47.0042 20.6704 46.8632 20.7481 46.71 20.754C45.5181 20.801 44.5627 21.74 44.5149 22.9116C44.5089 23.0624 44.4298 23.2012 44.3021 23.2849C44.1743 23.3686 44.0135 23.3871 43.8696 23.3345C42.7526 22.9351 41.5102 23.4408 41.0076 24.4995C40.9463 24.6378 40.8192 24.7372 40.6683 24.7649C40.5176 24.7959 40.3611 24.7526 40.2489 24.649C39.3732 23.8578 38.0268 23.8578 37.1511 24.649C37.0388 24.7525 36.8824 24.7957 36.7317 24.7649C36.5806 24.7372 36.4532 24.6379 36.3915 24.4995C35.8898 23.4403 34.647 22.9346 33.5304 23.3354C33.3865 23.3879 33.2257 23.3695 33.0979 23.2858C32.9702 23.2021 32.8911 23.0633 32.8851 22.9125C32.8373 21.7406 31.8822 20.8011 30.69 20.7532C30.5369 20.7475 30.3958 20.67 30.3107 20.5448C30.2255 20.4196 30.2066 20.2619 30.2598 20.1206C30.6691 19.0238 30.156 17.8016 29.079 17.3076ZM38.9646 33.8738L38.7 34.1339V25.8185C38.8205 25.8182 38.9366 25.8627 39.0249 25.9432C39.442 26.3275 39.9922 26.5413 40.5639 26.5412C40.7168 26.5409 40.8693 26.5261 41.0193 26.497C41.7355 26.3596 42.3394 25.8893 42.6393 25.2355C42.7447 25.0125 43.0066 24.9063 43.2414 24.9914C43.5153 25.0867 43.8052 25.1297 44.0955 25.1179V34.1339L42.0318 32.1055C41.6804 31.7601 41.1107 31.7601 40.7592 32.1055L38.9646 33.8738ZM38.7 42.9801L36.6363 40.9516C36.2849 40.6063 35.7152 40.6063 35.3637 40.9516L33.3 42.9801V25.1161C33.5903 25.128 33.8802 25.085 34.1541 24.9896C34.3884 24.904 34.6502 25.01 34.7553 25.2329C35.0561 25.8884 35.6623 26.3592 36.3807 26.4952C36.5516 26.5285 36.7258 26.543 36.9 26.5386V36.2694C36.9001 36.6271 37.1194 36.9496 37.4556 37.0865C37.7919 37.2234 38.1789 37.1477 38.4363 36.8948L38.7 36.6356V42.9801ZM52.2 36.2694C52.2 37.735 50.9912 38.9232 49.5 38.9232H40.5V34.8664L41.4 33.9817L44.3637 36.8948C44.6211 37.1477 45.0081 37.2234 45.3444 37.0865C45.6806 36.9496 45.8999 36.6271 45.9 36.2694V24.1563C46.1512 23.8096 46.2947 23.3988 46.3131 22.9735C46.3241 22.7282 46.5242 22.5318 46.7739 22.5215C47.5035 22.4938 48.1755 22.1242 48.5811 21.5274C48.9866 20.9306 49.0767 20.1789 48.8232 19.5058C48.7373 19.2756 48.8453 19.0191 49.0716 18.9158C49.7354 18.616 50.2128 18.0217 50.3553 17.3174C50.4978 16.6132 50.2882 15.8845 49.7916 15.3579C49.6224 15.1771 49.6224 14.8991 49.7916 14.7183C50.2882 14.1918 50.4978 13.4632 50.3553 12.7591C50.2128 12.055 49.7354 11.4608 49.0716 11.1612C48.8446 11.0586 48.736 10.8017 48.8223 10.5712C49.0758 9.89812 48.9857 9.14644 48.5802 8.54963C48.1746 7.95283 47.5026 7.58318 46.773 7.55553C46.5233 7.54521 46.3232 7.34887 46.3122 7.10349C46.2849 6.38607 45.9093 5.72503 45.3021 5.32596C44.695 4.92688 43.93 4.83818 43.245 5.08744C43.0107 5.1744 42.7479 5.06807 42.6438 4.84417C42.3388 4.1917 41.7341 3.72249 41.0176 3.58241C40.3011 3.44234 39.5598 3.64838 39.024 4.13648C38.8404 4.30263 38.5578 4.30263 38.3742 4.13648C37.8386 3.64837 37.0973 3.44231 36.381 3.5824C35.6646 3.72249 35.06 4.19173 34.7553 4.84417C34.6508 5.0682 34.388 5.17478 34.1532 5.08833C33.4682 4.83907 32.7032 4.92777 32.0961 5.32684C31.4889 5.72592 31.1133 6.38696 31.086 7.10437C31.075 7.34975 30.8749 7.54609 30.6252 7.55641C29.8956 7.58407 29.2236 7.95371 28.8181 8.55052C28.4125 9.14732 28.3225 9.89901 28.5759 10.5721C28.6618 10.8023 28.5538 11.0589 28.3275 11.1621C27.6637 11.4619 27.1863 12.0563 27.0438 12.7605C26.9013 13.4647 27.1109 14.1934 27.6075 14.7201C27.7767 14.9008 27.7767 15.1789 27.6075 15.3596C27.1109 15.8861 26.9013 16.6147 27.0438 17.3188C27.1863 18.0229 27.6637 18.6171 28.3275 18.9167C28.5545 19.0193 28.6631 19.2762 28.5768 19.5067C28.3234 20.1798 28.4134 20.9315 28.819 21.5283C29.2245 22.1251 29.8965 22.4947 30.6261 22.5224C30.8758 22.5327 31.0759 22.729 31.0869 22.9744C31.1055 23.3993 31.249 23.8099 31.5 24.1563V38.9232H4.5C3.00883 38.9232 1.8 37.735 1.8 36.2694V4.42309C1.8 2.95741 3.00883 1.76924 4.5 1.76924H49.5C50.9912 1.76924 52.2 2.95741 52.2 4.42309V36.2694Z" fill="currentcolor"/>
<path d="M9.9 31.8463C8.40883 31.8463 7.2 30.6581 7.2 29.1924V11.5C7.2 10.0344 8.40883 8.84619 9.9 8.84619H26.1C26.5971 8.84619 27 8.45013 27 7.96157C27 7.47301 26.5971 7.07695 26.1 7.07695H9.9C7.41595 7.07987 5.40298 9.05845 5.4 11.5V29.1924C5.40298 31.634 7.41595 33.6126 9.9 33.6155H27C27.4971 33.6155 27.9 33.2194 27.9 32.7309C27.9 32.2423 27.4971 31.8463 27 31.8463H9.9Z" fill="currentcolor"/>
<path d="M10.8 21.2308H23.4C23.8971 21.2308 24.3 20.8348 24.3 20.3462C24.3 19.8577 23.8971 19.4616 23.4 19.4616H10.8C10.3029 19.4616 9.9 19.8577 9.9 20.3462C9.9 20.8348 10.3029 21.2308 10.8 21.2308Z" fill="currentcolor"/>
<path d="M10.8 17.6924H23.4C23.8971 17.6924 24.3 17.2963 24.3 16.8078C24.3 16.3192 23.8971 15.9231 23.4 15.9231H10.8C10.3029 15.9231 9.9 16.3192 9.9 16.8078C9.9 17.2963 10.3029 17.6924 10.8 17.6924Z" fill="currentcolor"/>
<path d="M10.8 14.1539H23.4C23.8971 14.1539 24.3 13.7578 24.3 13.2693C24.3 12.7807 23.8971 12.3847 23.4 12.3847H10.8C10.3029 12.3847 9.9 12.7807 9.9 13.2693C9.9 13.7578 10.3029 14.1539 10.8 14.1539Z" fill="currentcolor"/>
<path d="M9.9747 29.5463C10.1179 29.8688 10.442 30.0772 10.8 30.077C10.9239 30.0776 11.0465 30.0526 11.16 30.0036C11.9932 29.6993 12.759 29.2401 13.4154 28.651C13.6591 28.412 13.8722 28.1446 14.0499 27.8549C14.3936 28.2346 14.7975 28.5573 15.246 28.8103C15.8715 29.2123 16.65 29.3101 17.3583 29.0756C17.6298 28.972 17.8754 28.8121 18.0783 28.6068C18.4856 28.8569 18.9342 29.0351 19.404 29.1331L20.0844 29.2915C21.4732 29.6913 22.9162 29.8793 24.363 29.8488C24.6837 29.826 24.9678 29.6368 25.1081 29.3524C25.2484 29.068 25.2237 28.7317 25.0433 28.47C24.8629 28.2084 24.5541 28.0612 24.2334 28.084C22.9709 28.1002 21.7133 27.9272 20.5038 27.5709L19.8081 27.409C18.9684 27.2188 18.7524 26.8862 18.6633 26.6518C18.5065 26.2402 18.066 26.0042 17.629 26.0977C17.1921 26.1912 16.8913 26.5858 16.9227 27.0242C16.9328 27.1828 16.8563 27.3347 16.722 27.4232C16.5117 27.4495 16.2992 27.3956 16.128 27.2728C15.4002 26.8274 14.8528 26.1468 14.58 25.3479C14.4251 24.9365 13.987 24.6988 13.5503 24.7892C13.1137 24.8797 12.8104 25.271 12.8376 25.7088C12.8528 26.3416 12.6006 26.9523 12.141 27.3958C11.6413 27.8253 11.0644 28.1595 10.44 28.3812C10.221 28.475 10.049 28.6504 9.96171 28.869C9.87444 29.0875 9.87911 29.3311 9.9747 29.5463Z" fill="currentcolor"/>
<path d="M38.7 22.1155C42.6765 22.1155 45.9 18.947 45.9 15.0385C45.9 11.13 42.6765 7.96157 38.7 7.96157C34.7236 7.96157 31.5 11.13 31.5 15.0385C31.5045 18.9452 34.7254 22.1111 38.7 22.1155ZM38.7 9.7308C41.6823 9.7308 44.1 12.1071 44.1 15.0385C44.1 17.9699 41.6823 20.3462 38.7 20.3462C35.7177 20.3462 33.3 17.9699 33.3 15.0385C33.303 12.1084 35.7189 9.73373 38.7 9.7308Z" fill="currentcolor"/>
</svg>
