<svg width="54" height="50" viewBox="0 0 54 50" fill="none" xmlns="http://www.w3.org/2000/svg">
<path fill-rule="evenodd" clip-rule="evenodd" d="M14.8215 9.97018V2.61631C14.8215 2.38295 14.9125 2.1594 15.074 1.99498C15.236 1.82993 15.4554 1.73727 15.6845 1.73727H51.4319C51.661 1.73727 51.8804 1.82993 52.0418 1.99498C52.2038 2.1594 52.2947 2.38295 52.2947 2.61631V30.4197C52.2947 30.6531 52.2038 30.8766 52.0418 31.041C51.8804 31.2061 51.661 31.2987 51.4319 31.2987H33.5942C33.1235 31.2987 32.7417 31.6879 32.7417 32.1673C32.7417 32.6468 33.1236 33.0359 33.5942 33.0359H51.4319C52.1128 33.0359 52.766 32.7602 53.248 32.2698C53.7295 31.7787 54 31.1133 54 30.4196V2.61631C54 1.92258 53.7295 1.2572 53.248 0.766127C52.766 0.275602 52.1128 0 51.4319 0C44.9712 0 22.1451 0 15.6845 0C15.0035 0 14.3498 0.275693 13.8684 0.766127C13.3869 1.2572 13.1164 1.92258 13.1164 2.61631V9.97018C13.1164 10.4496 13.4983 10.8388 13.9689 10.8388C14.4395 10.8388 14.8215 10.4497 14.8215 9.97018Z" fill="currentcolor"/>
<path fill-rule="evenodd" clip-rule="evenodd" d="M33.1582 36.7891V49.1312C33.1582 49.6107 33.5407 49.9998 34.0108 49.9998C34.4815 49.9998 34.8634 49.6107 34.8634 49.1312V36.7891C34.8634 36.3095 34.4814 35.9205 34.0108 35.9205C33.5407 35.9205 33.1582 36.3096 33.1582 36.7891Z" fill="currentcolor"/>
<path fill-rule="evenodd" clip-rule="evenodd" d="M53.1473 26.2247H43.5672C42.4644 26.2247 41.5709 27.135 41.5709 28.2585V32.1673C41.5709 32.6469 41.9528 33.0359 42.4235 33.0359C42.8942 33.0359 43.276 32.6468 43.276 32.1673V28.2585C43.276 28.0946 43.4062 27.962 43.5671 27.962H53.1472C53.6179 27.962 53.9998 27.5728 53.9998 27.0934C53.9998 26.614 53.618 26.2247 53.1473 26.2247Z" fill="currentcolor"/>
<path fill-rule="evenodd" clip-rule="evenodd" d="M19.9072 7.59532H31.6803C32.1504 7.59532 32.5329 7.20617 32.5329 6.72673C32.5329 6.24719 32.1504 5.85814 31.6803 5.85814H19.9072C19.4366 5.85814 19.0546 6.24728 19.0546 6.72673C19.0545 7.20617 19.4365 7.59532 19.9072 7.59532Z" fill="currentcolor"/>
<path fill-rule="evenodd" clip-rule="evenodd" d="M19.9072 12.0839H48.1151C48.5858 12.0839 48.9677 11.6947 48.9677 11.2153C48.9677 10.7364 48.5857 10.3467 48.1151 10.3467H19.9072C19.4366 10.3467 19.0546 10.7364 19.0546 11.2153C19.0545 11.6947 19.4365 12.0839 19.9072 12.0839Z" fill="currentcolor"/>
<path fill-rule="evenodd" clip-rule="evenodd" d="M25.0673 16.573H30.631C31.1017 16.573 31.4835 16.1839 31.4835 15.7044C31.4835 15.2249 31.1016 14.8358 30.631 14.8358H25.0673C24.5972 14.8358 24.2147 15.225 24.2147 15.7044C24.2147 16.1839 24.5972 16.573 25.0673 16.573Z" fill="currentcolor"/>
<path fill-rule="evenodd" clip-rule="evenodd" d="M38.7293 22.705H47.5296C48.0003 22.705 48.3822 22.3159 48.3822 21.8364C48.3822 21.3575 48.0002 20.9678 47.5296 20.9678H38.7293C38.2586 20.9678 37.8767 21.3575 37.8767 21.8364C37.8767 22.3159 38.2587 22.705 38.7293 22.705Z" fill="currentcolor"/>
<path fill-rule="evenodd" clip-rule="evenodd" d="M40.8354 16.573H47.9787C48.4494 16.573 48.8313 16.1839 48.8313 15.7044C48.8313 15.2249 48.4493 14.8358 47.9787 14.8358H40.8354C40.3653 14.8358 39.9828 15.225 39.9828 15.7044C39.9827 16.1839 40.3653 16.573 40.8354 16.573Z" fill="currentcolor"/>
<path fill-rule="evenodd" clip-rule="evenodd" d="M13.6005 11.8389C9.27195 11.8389 5.75799 15.4188 5.75799 19.8286C5.75799 24.2385 9.27195 27.8184 13.6005 27.8184C17.9285 27.8184 21.443 24.2385 21.443 19.8286C21.443 15.4188 17.9285 11.8389 13.6005 11.8389ZM13.6005 13.5762C16.9878 13.5762 19.7378 16.3778 19.7378 19.8286C19.7378 23.2795 16.9878 26.0811 13.6005 26.0811C10.2133 26.0811 7.46325 23.2795 7.46325 19.8286C7.46325 16.3778 10.2133 13.5762 13.6005 13.5762Z" fill="currentcolor"/>
<path fill-rule="evenodd" clip-rule="evenodd" d="M27.8565 27.1015L24.6671 30.2188C24.5063 30.3757 24.2925 30.4631 24.0697 30.4631H9.30726C5.5341 30.4631 2.3117 33.2376 1.68247 37.0282C1.11521 40.4438 0.434798 44.5437 0.0357883 46.9475C-0.089844 47.7067 0.1188 48.4838 0.606439 49.0722C1.0947 49.6605 1.81203 49.9999 2.56805 49.9999H18.3702C19.789 49.9999 20.9389 48.8284 20.9389 47.3836V39.1634C20.9389 39.0846 20.969 39.0093 21.0236 38.9537C21.0787 38.8981 21.1526 38.8669 21.2299 38.8669H25.0179C26.7607 38.8669 28.4358 38.1807 29.6931 36.9519C30.8249 35.8458 32.3232 34.3819 33.567 33.1657C34.3565 32.3943 34.8124 31.3353 34.8351 30.221C34.8579 29.1184 34.4537 28.0512 33.7114 27.2497C33.704 27.2416 33.6722 27.208 33.6642 27.2C32.9094 26.4112 31.8794 25.9555 30.7972 25.9323C29.7034 25.9097 28.6461 26.3295 27.8565 27.1015ZM25.8477 31.4719C26.5458 30.7897 27.8617 29.5035 29.0372 28.3546C29.4998 27.9023 30.1206 27.6556 30.7618 27.6695C31.3967 27.6828 32.0003 27.9498 32.4431 28.4125C32.4477 28.4176 32.4664 28.4373 32.471 28.4425C32.9063 28.9122 33.1434 29.5381 33.1303 30.1844C33.1172 30.8382 32.8495 31.4596 32.3862 31.9119C31.1425 33.1279 29.6442 34.5919 28.5124 35.698C27.5728 36.6165 26.3206 37.1295 25.0177 37.1295C23.7473 37.1295 22.2404 37.1295 21.2298 37.1295C20.7 37.1295 20.1924 37.3438 19.8178 37.7254C19.4438 38.1065 19.2335 38.6242 19.2335 39.1633V47.3835C19.2329 47.8688 18.8469 48.2625 18.3706 48.2625C18.3701 48.2625 2.56796 48.2625 2.56796 48.2625C2.31384 48.2625 2.07283 48.1484 1.90913 47.951C1.74489 47.7529 1.67498 47.4918 1.71698 47.237L3.36366 37.3177C3.85424 34.3632 6.36609 32.2003 9.30708 32.2003H24.0695C24.7325 32.2004 25.3691 31.9391 25.8477 31.4719Z" fill="currentcolor"/>
<path fill-rule="evenodd" clip-rule="evenodd" d="M7.6571 49.276L9.1481 40.2914C9.22656 39.8189 8.91387 39.37 8.4495 39.2902C7.98567 39.2103 7.54511 39.5294 7.46673 40.0019L5.97573 48.9865C5.89726 49.459 6.20987 49.9079 6.67433 49.9877C7.13816 50.0677 7.57872 49.7486 7.6571 49.276Z" fill="currentcolor"/>
<path fill-rule="evenodd" clip-rule="evenodd" d="M7.69579 44.7012H12.8252C12.9861 44.7012 13.1163 44.8339 13.1163 44.9977V49.1313C13.1163 49.6108 13.4982 49.9999 13.9688 49.9999C14.4395 49.9999 14.8214 49.6108 14.8214 49.1313V44.9977C14.8214 43.8742 13.9273 42.964 12.8251 42.964C11.0158 42.964 7.6957 42.964 7.6957 42.964C7.2251 42.964 6.84312 43.3531 6.84312 43.8326C6.84312 44.3121 7.2251 44.7012 7.69579 44.7012Z" fill="currentcolor"/>
<path fill-rule="evenodd" clip-rule="evenodd" d="M32.492 27.2144L36.0236 15.969C36.1668 15.5121 35.9196 15.0234 35.4711 14.8769C35.0232 14.731 34.5429 14.9829 34.399 15.4398L30.868 26.6852C30.7247 27.1415 30.972 27.6308 31.4199 27.7773C31.8685 27.9232 32.3488 27.6707 32.492 27.2144Z" fill="currentcolor"/>
</svg>
