<svg width="45" height="45" viewBox="0 0 45 45" fill="none" xmlns="http://www.w3.org/2000/svg">
<path d="M42.5678 30.6576C44.5959 25.3821 44.4618 19.5197 42.1947 14.3424M22.0167 21.9334C18.4371 21.8482 14.9359 20.868 11.8324 19.0822C8.72885 17.2965 6.12183 14.762 4.24913 11.7101C2.34534 8.63168 1.25549 5.11974 1.08201 1.50433C4.7785 1.57481 8.39328 2.60437 11.5722 4.49214C15.5452 6.85509 18.653 10.4331 20.4366 14.6979C20.4366 14.6979 11.6391 17.5133 6.45556 7.42014M23.565 29.4575C25.3806 34.0802 28.7369 37.934 33.0664 40.3671C36.2747 42.178 39.8972 43.1274 43.5812 43.1226C43.7185 43.1226 43.8522 43.1226 43.9859 43.1226C43.7262 37.6085 41.3524 32.4063 37.3576 28.5967C33.3627 24.7871 28.0539 22.6629 22.534 22.6654H22.3967M2.4298 30.6576C0.401694 25.3821 0.535729 19.5197 2.80282 14.3424M14.3417 2.42988C19.6168 0.40166 25.4789 0.535703 30.6559 2.80292M14.3417 42.5701C19.6168 44.5983 25.4789 44.4643 30.6559 42.1971M22.0835 22.2431H22.1222C22.1222 22.141 22.1222 22.0355 22.1222 21.9334H22.0695C22.08 22.0355 22.08 22.141 22.0835 22.2431ZM22.1011 22.9716C22.1011 22.7323 22.1011 22.4965 22.1222 22.2677H22.0835C22.0906 22.4789 22.1011 22.7147 22.1011 22.9716ZM43.5636 1.50433C38.0513 1.50601 32.751 3.6283 28.7606 7.43148C24.7703 11.2347 22.3959 16.4272 22.1293 21.9334C22.263 21.9334 22.3967 21.9334 22.534 21.9334C26.2045 21.9383 29.8147 21.0004 33.0188 19.2097C36.223 17.419 38.9136 14.8354 40.8329 11.7065C42.7397 8.62952 43.8298 5.11679 44 1.50081C43.8346 1.50433 43.7009 1.50433 43.5636 1.50433ZM22.0835 22.3663H22.1222C22.1222 22.4683 22.1222 22.5739 22.1222 22.676H22.0695C22.08 22.5739 22.08 22.4683 22.0835 22.3663ZM22.1011 21.6554C22.1011 21.8947 22.1011 22.1305 22.1222 22.3592H22.0835C22.0906 22.1305 22.1011 21.8947 22.1011 21.6554ZM4.24913 32.8923C2.34548 35.9707 1.25564 39.4826 1.08201 43.098C4.77853 43.0245 8.39284 41.9939 11.5722 40.1067C14.6265 38.294 17.1834 35.7517 19.0136 32.7078C20.8438 29.6638 21.8902 26.2133 22.0589 22.6654C18.4717 22.7437 14.9616 23.721 11.85 25.5077C8.73847 27.2944 6.12502 29.8335 4.24913 32.8923Z" stroke="currentcolor" stroke-width="2" stroke-linecap="round" stroke-linejoin="round"/>
</svg>
