<svg width="52" height="52" viewBox="0 0 52 52" fill="none" xmlns="http://www.w3.org/2000/svg">
<path d="M43.9622 30.4888C12.8902 22.5271 25.8404 5.44306 25.8404 5.44306C25.8404 5.44306 30.6486 10.4169 25.9462 20.6716M24.14 23.7053C21.1803 27.635 15.737 29.9526 7.97611 30.4641M7.97611 22.774C39.0516 30.7252 26.0979 47.8198 26.0979 47.8198C26.0979 47.8198 21.2932 42.8353 25.9921 32.6054M28.0487 29.2189C31.0684 25.4903 36.42 23.2855 43.9622 22.7881M4.19089 38.2495C2.21832 34.7256 1.12717 30.7769 1.01046 26.7401C0.893754 22.7034 1.75495 18.6983 3.52062 15.0663M48.4812 15.0486C50.2457 18.6816 51.1062 22.6871 50.9895 26.7242C50.8728 30.7613 49.7823 34.7104 47.8109 38.2354M14.1425 4.19077C17.6666 2.21828 21.6154 1.12717 25.6523 1.01046C29.6892 0.893757 33.6944 1.75492 37.3266 3.52053M37.3266 48.4795C33.6944 50.2451 29.6892 51.1062 25.6523 50.9895C21.6154 50.8728 17.6666 49.7817 14.1425 47.8092" stroke="currentcolor" stroke-width="2" stroke-linecap="round" stroke-linejoin="round"/>
</svg>
