<svg width="53" height="52" viewBox="0 0 53 52" fill="none" xmlns="http://www.w3.org/2000/svg">
<path d="M9.52523 8.68925C11.8149 6.25465 14.5688 4.31758 17.6196 2.99574C20.6703 1.67391 23.9542 0.99492 27.2718 1.00003C40.8315 1.00003 51.8197 12.2596 51.8197 26C51.8197 39.7476 40.8315 51 27.2718 51C21.0382 51.0093 15.0362 48.6045 10.4922 44.2769M42.6044 14.0612C45.2608 17.5044 46.7022 21.7516 46.6981 26.1235C46.6979 29.314 45.9303 32.4563 44.4618 35.278C42.9932 38.0996 40.8681 40.5153 38.2707 42.3155M29.0625 40.0745L34.4349 45.2031M15.7428 11.1228L34.3668 28.8367M41.555 23.3994L19.0844 44.7781M38.8688 11.9836C36.3044 14.428 32.2859 18.2563 28.5289 21.8339M12.7844 28.6369C12.7092 28.7241 12.8561 28.5461 12.7844 28.6369ZM12.7844 28.6369C-1.685 45.7842 29.6929 43.3071 12.7844 28.6369ZM12.7844 28.6369C-4.12403 13.9667 -1.685 45.7842 12.7844 28.6369ZM12.7844 28.6369C12.7092 28.7205 12.8561 28.5498 12.7844 28.6369ZM12.7844 28.6369C-4.12761 13.9631 27.2503 11.486 12.7844 28.6369ZM12.7844 28.6369C27.2503 11.486 29.6965 43.3107 12.7844 28.6369ZM12.7844 28.6369C12.7092 28.7241 12.8561 28.5498 12.7844 28.6369Z" stroke="currentcolor" stroke-width="2" stroke-linecap="round" stroke-linejoin="round"/>
</svg>
