<svg width="25" height="24" viewBox="0 0 25 24" fill="none" xmlns="http://www.w3.org/2000/svg">
<g opacity="0.5">
<path d="M8.31686 1.00893C8.17621 0.982336 8.10588 0.969042 7.95194 1.01278C7.72766 1.04322 7.4901 1.14399 7.1822 1.23147C6.94464 1.33224 6.75081 1.58695 6.49994 1.75805C6.30611 2.01276 6.11228 2.26748 5.90516 2.59252C5.68474 2.98789 5.61827 3.33952 5.46818 3.74818C5.31808 4.15685 5.23832 4.5788 5.15855 5.00076C5.01231 5.77435 4.99343 6.64485 5.03158 7.59897C5.05259 8.2585 5.14392 8.93132 5.27898 9.75808L5.35316 10.1363L5.32657 10.277C5.38361 10.3606 5.35702 10.5012 5.41405 10.5848L5.52811 10.7521L5.60229 11.1303L5.64603 11.2843C5.73351 11.5922 5.82098 11.9 5.92175 12.1376L6.10999 12.6831L6.15373 12.837L6.34197 13.3825C6.47319 13.8443 6.61769 14.2358 6.77549 14.557C6.81923 14.711 6.9333 14.8782 6.97703 15.0322C7.47105 13.9601 7.88144 12.9451 8.19492 12.0575C8.6452 10.8315 8.99856 9.73284 9.2683 8.69124C9.49816 7.86062 9.6444 7.08703 9.77735 6.38377C9.84382 6.03214 9.92358 5.61018 9.91973 5.24525C9.94632 5.1046 9.90258 4.95066 9.92917 4.81C10.0089 4.38805 10.0051 4.02312 9.9309 3.6449C9.90046 3.42063 9.94034 3.20965 9.9099 2.98538C9.86616 2.83143 9.76539 2.59386 9.72165 2.43991C9.64747 2.0617 9.33187 1.41932 8.6552 1.14572C8.59817 1.0621 8.45751 1.03551 8.31686 1.00893Z" fill="currentcolor"/>
<path d="M23.8143 16.4325C23.8042 16.3068 23.7991 16.244 23.7262 16.1233C23.6482 15.9398 23.5073 15.7613 23.3614 15.52C23.2205 15.3415 22.959 15.236 22.7553 15.0626C22.4938 14.9571 22.2323 14.8516 21.9079 14.7511C21.5207 14.6557 21.2064 14.681 20.8242 14.6484C20.442 14.6159 20.0649 14.6462 19.6878 14.6765C18.9964 14.732 18.2522 14.9183 17.4502 15.1726C16.8946 15.3437 16.3441 15.5777 15.6729 15.8847L15.3687 16.0357L15.243 16.0458C15.1852 16.1137 15.0595 16.1238 15.0017 16.1917L14.8861 16.3275L14.5819 16.4785L14.4613 16.5514C14.2199 16.6973 13.9786 16.8432 13.8002 16.9841L13.3804 17.2709L13.2597 17.3438L12.8399 17.6306C12.4779 17.8495 12.1788 18.0633 11.9426 18.272C11.8219 18.345 11.7063 18.4808 11.5856 18.5538C12.6115 18.7244 13.5695 18.8372 14.3967 18.8972C15.5432 18.9949 16.559 19.0398 17.5069 19.0269C18.2662 19.0292 18.9576 18.9736 19.5862 18.9231C19.9004 18.8979 20.2776 18.8676 20.5868 18.7795C20.7125 18.7694 20.8332 18.6964 20.9589 18.6863C21.336 18.656 21.6452 18.5679 21.9494 18.4169C22.1329 18.3389 22.3215 18.3238 22.505 18.2458C22.6256 18.1728 22.8041 18.0319 22.9248 17.959C23.2289 17.808 23.7015 17.3905 23.7767 16.7519C23.8345 16.6839 23.8244 16.5582 23.8143 16.4325Z" fill="currentcolor"/>
<path d="M16.8311 8.56751C16.7694 8.4893 16.7386 8.45019 16.6377 8.40282C16.5061 8.31635 16.3353 8.26073 16.1337 8.166C15.9629 8.11038 15.7448 8.15557 15.5349 8.1308C15.3168 8.17599 15.0986 8.22118 14.8414 8.29722C14.545 8.40411 14.3495 8.55837 14.084 8.70437C13.8185 8.85037 13.5839 9.03548 13.3492 9.22059C12.919 9.55996 12.5114 10.0084 12.0956 10.5268C11.8053 10.8827 11.5459 11.2776 11.2391 11.7734L11.1053 12.0059L11.0271 12.0676C11.0188 12.1376 10.9406 12.1993 10.9323 12.2692L10.9158 12.4092L10.782 12.6416L10.7346 12.7424C10.6399 12.9441 10.5452 13.1457 10.4895 13.3165L10.3392 13.6889L10.2918 13.7897L10.1415 14.1621C9.99937 14.4645 9.89638 14.7361 9.83251 14.9768C9.78514 15.0776 9.76863 15.2175 9.72126 15.3183C10.4704 14.9811 11.1496 14.6357 11.7197 14.3128C12.5162 13.8748 13.2036 13.4594 13.8211 13.0358C14.3212 12.7047 14.7514 12.3653 15.1425 12.0568C15.338 11.9025 15.5727 11.7174 15.7374 11.5241C15.8156 11.4624 15.863 11.3615 15.9412 11.2998C16.1758 11.1147 16.3405 10.9214 16.4743 10.6889C16.5608 10.5572 16.6781 10.4647 16.7646 10.333C16.812 10.2322 16.8676 10.0614 16.915 9.96062C17.0488 9.72815 17.1766 9.24669 16.9463 8.7939C16.9545 8.72394 16.8928 8.64573 16.8311 8.56751Z" fill="currentcolor"/>
</g>
</svg>
