<svg width="205" height="160" viewBox="0 0 205 160" fill="none" xmlns="http://www.w3.org/2000/svg">
<path d="M187.608 137.08C173.232 152.29 151.478 160 122.961 160L112.715 160L112.715 131.81L120.953 130.2C134.991 127.46 144.756 122.07 149.982 114.16C152.709 109.899 154.255 105.02 154.47 100L122.961 100C120.244 100 117.637 98.9464 115.716 97.0711C113.794 95.1957 112.715 92.6522 112.715 90L112.715 20C112.715 8.97001 121.906 7.99447e-06 133.208 8.98254e-06L194.689 1.43574e-05C197.406 1.45949e-05 200.013 1.05357 201.934 2.92894C203.856 4.80431 204.936 7.34785 204.936 10L204.936 60L204.905 89.19C204.997 90.3 206.944 116.6 187.608 137.08ZM20.4936 -8.71277e-07L81.9742 4.50353e-06C84.6919 4.74112e-06 87.2982 1.05356 89.2198 2.92893C91.1415 4.8043 92.221 7.34784 92.221 10L92.221 60L92.1903 89.19C92.2825 90.3 94.2294 116.6 74.8937 137.08C60.5175 152.29 38.7635 160 10.2468 160L0 160L2.46445e-06 131.81L8.23842 130.2C22.2765 127.46 32.0417 122.07 37.2675 114.16C39.9943 109.899 41.5408 105.02 41.7556 100L10.2468 100C7.52916 100 4.92284 98.9464 3.0012 97.0711C1.07956 95.1957 5.88773e-06 92.6522 6.11959e-06 90L1.22392e-05 20C1.32035e-05 8.97 9.19137 -1.85935e-06 20.4936 -8.71277e-07Z" fill="#E9E9E9"/>
</svg>
