<svg width="59" height="46" viewBox="0 0 59 46" fill="none" xmlns="http://www.w3.org/2000/svg">
<path d="M43.9997 33.3726L44.0037 33.3665L44.0076 33.3604C44.887 31.9877 45.3869 30.4138 45.4564 28.7928L45.501 27.75L44.4573 27.75L35.3889 27.75C34.8639 27.75 34.3653 27.5464 34.0016 27.1919C33.6388 26.8382 33.4398 26.364 33.4398 25.875L33.4398 5.75C33.4398 3.15499 35.6133 1 38.3379 1L56.0324 1C56.5574 1 57.056 1.20357 57.4196 1.55811C57.7825 1.91182 57.9815 2.38605 57.9815 2.875L57.9815 17.2494L57.9815 17.25L57.9726 25.6411L57.9726 25.6831L57.9761 25.725C57.9975 25.9824 58.5244 33.1619 53.2678 38.7236C49.38 42.8323 43.4244 45 35.3889 45L33.4398 45L33.4398 38.719L35.0022 38.414C35.0023 38.414 35.0024 38.414 35.0025 38.414C39.1726 37.6009 42.2867 35.9626 43.9997 33.3726ZM25.5328 25.6411L25.5328 25.6831L25.5362 25.725C25.5577 25.9824 26.0845 33.1615 20.8284 38.7232C16.9406 42.8321 10.9849 45 2.94907 45L0.999996 45L0.999997 38.719L2.56243 38.414C2.5625 38.414 2.56258 38.414 2.56266 38.414C6.73282 37.6008 9.84691 35.9626 11.5599 33.3726L11.5639 33.3665L11.5678 33.3604C12.4472 31.9877 12.9471 30.4138 13.0166 28.7928L13.0612 27.75L12.0175 27.75L2.94907 27.75C2.42405 27.75 1.9255 27.5464 1.56181 27.1919C1.199 26.8382 0.999998 26.364 0.999998 25.875L1 5.75C1 3.15499 3.17347 0.999999 5.89815 0.999999L23.5926 1C24.1176 1 24.6162 1.20356 24.9798 1.55811C25.3427 1.91181 25.5417 2.38605 25.5417 2.875L25.5417 17.2489L25.5417 17.25L25.5328 25.6411Z" stroke="currentcolor" stroke-width="2"/>
</svg>
