<svg width="58" height="62" viewBox="0 0 58 62" fill="none" xmlns="http://www.w3.org/2000/svg">
<path d="M25.2057 61.0522C24.9082 60.5329 24.5202 59.9118 24.0518 59.3442C23.6898 58.9372 23.5099 58.3859 23.1694 57.9415C22.9352 57.6577 22.7113 57.529 22.2995 57.6408C21.8877 57.7526 21.4012 57.8215 20.9747 57.5267C20.8254 57.4409 20.6014 57.3122 20.3819 57.435C20.3016 57.4883 20.0934 57.4185 20.0776 57.3597C19.6466 56.8135 18.9203 56.6948 18.4463 56.2234C18.2652 56.0199 18.0254 55.8324 17.9406 55.6343C17.7924 55.2008 17.3659 54.9061 17.298 54.4192C17.2505 54.2426 17.091 54.0017 16.9846 53.841C16.6916 53.5732 16.7143 53.188 16.7098 52.9366C16.6951 52.5301 16.3862 52.2033 16.5853 51.7703C16.6498 51.658 16.2708 51.5399 16.0627 51.47C15.4167 51.298 14.9585 50.8855 14.377 50.6012C14.0195 50.4456 13.9517 49.9587 13.5082 49.9528C13.3532 49.9633 13.5195 49.7602 13.3917 49.637C13.0455 49.2889 12.8227 48.8125 12.5568 48.4109C12.1473 47.8273 12.326 47.084 11.9165 46.5003C11.8633 46.42 11.9437 46.3666 11.9867 46.2918C12.2174 45.9765 11.9731 45.5375 12.2412 45.2437C12.1292 45.1793 12.1779 45.0082 11.9912 44.901C11.378 44.499 10.7434 44.1344 10.2105 43.679C9.47521 43.0575 8.80436 42.3237 8.49213 41.3979C8.41294 41.1035 8.41408 40.7558 8.39372 40.4455C8.39938 40.3493 8.44237 40.2744 8.3892 40.1941C8.08602 39.7711 8.45596 39.3865 8.51593 39.0228C8.52158 38.9265 8.60191 38.8731 8.48991 38.8088C7.71158 38.2621 7.19572 37.5179 6.70135 36.7362C6.24431 35.976 5.8676 35.1624 5.71036 34.226C5.65267 33.8943 5.59498 33.5626 5.63345 33.2363C5.68776 32.9689 5.62441 32.7335 5.4434 32.5299C5.00673 32.08 4.57005 31.6301 4.33701 30.9986C4.268 30.8594 4.18316 30.6613 4.05532 30.5381C3.6243 29.9919 3.72274 29.302 3.4682 28.7079C3.35168 28.3921 3.51347 27.9376 3.57343 27.574C3.66621 26.9803 3.5972 26.8411 3.05305 26.5783C2.58356 26.3583 2.29621 25.9942 2.03036 25.5926C1.90818 25.3732 1.66269 25.2819 1.51902 25.0998C1.42852 24.9981 1.30068 24.8749 1.30634 24.7786C1.21245 24.0777 0.845919 23.4192 0.693203 22.7343C0.423968 21.7336 0.405882 20.7279 0.446624 19.7063C0.459077 19.166 0.685348 18.5992 0.85279 18.0485C0.971581 17.6688 1.20237 17.3535 1.28383 16.9524C1.31664 16.7225 1.7341 16.5144 1.86873 16.1936C2.17532 15.5735 2.73758 15.1998 3.27835 14.8635C3.74446 14.4843 4.29088 14.0517 4.96401 14.0901C5.19366 14.1225 5.41879 13.9034 5.70728 13.9199C6.32157 13.9742 6.91438 14.0659 7.50152 14.2539C7.84317 14.3506 8.03097 14.1102 8.23461 13.9286C8.70071 13.5494 9.20415 13.1916 9.68609 12.8713C10.6715 12.1933 11.6942 11.5366 12.7859 11.0192C13.321 10.7792 13.8618 10.4429 14.3969 10.2029C14.8947 9.94143 15.4671 9.72286 15.9117 9.38109C16.7364 8.8098 17.6777 8.55428 18.4968 8.07928C19.3588 7.52943 20.2684 7.15618 21.1836 6.68665C22.4575 6.02502 23.7313 5.36339 24.9837 4.73918C25.7598 4.339 26.6422 4.09945 27.3708 3.52269C27.9975 3.03672 28.7894 2.69542 29.5384 2.42894C30.5441 2.06117 31.4967 1.61308 32.5024 1.24531C33.369 0.946896 34.1824 0.56817 35.1599 0.681802C35.3522 0.692756 35.5603 0.762573 35.704 0.944641C35.9913 1.30878 36.2414 1.65147 36.4914 1.99416C36.7787 2.3583 36.8251 2.88259 37.3161 3.06512C37.3534 3.08657 37.3421 3.27913 37.3953 3.35944C37.5491 3.69666 37.703 4.03387 37.8998 4.29625C38.2245 4.68183 38.4474 5.15822 38.6544 5.57575C38.9304 6.13245 39.2438 6.71059 39.5413 7.22987C39.892 7.82947 40.1839 8.44503 40.5345 9.04462C40.8004 9.44618 41.0074 9.8637 41.193 10.3186C41.4 10.7362 41.4837 11.2819 41.9102 11.5767C42.0595 11.6625 41.8989 11.7693 41.9305 11.887C42.2428 12.8128 42.796 13.5785 43.2903 14.3602C43.434 14.5423 43.4385 14.7937 43.5234 14.9917C43.7145 15.3504 43.9057 15.709 44.1184 16.0303C44.5381 16.7691 44.8187 17.5772 45.2599 18.2785C45.6637 18.9584 45.9873 19.6917 46.295 20.3662C46.5495 20.9603 46.7237 21.6078 47.0959 22.1699C47.5959 22.8553 47.7373 23.7328 48.1785 24.4342C48.5507 24.9963 48.6819 25.7187 49.0168 26.2594C49.389 26.8216 49.5417 27.5065 49.8924 28.1061C50.0678 28.4059 50.104 28.775 50.2793 29.0748C50.768 29.9528 51.1764 30.8841 51.6063 31.778C51.9355 32.415 52.2805 33.1109 52.5509 33.7639C52.8269 34.3206 53.0226 34.9307 53.2772 35.5248C53.6007 36.2581 53.9242 36.9914 54.2478 37.7247C54.6777 38.6186 55.1449 39.5339 55.6336 40.4119C56.0375 41.0918 56.3022 41.841 56.5296 42.5689C56.6777 43.0023 56.5273 43.2643 56.1687 43.4564C56.008 43.5631 56.0238 43.622 56.0125 43.8146C56.0216 44.3174 56.0521 44.7829 56.0826 45.2483C56.198 45.9118 56.1369 46.6231 56.4876 47.2227C56.594 47.3834 56.7161 47.6028 56.9356 47.4801C57.0533 47.4482 57.1766 47.3199 57.2829 47.4806C57.3519 47.6197 57.266 47.7694 57.1426 47.8976C56.5532 48.405 55.7726 48.5538 55.1357 48.8846C54.4988 49.2154 53.7928 49.4071 53.2679 49.8022C53.0858 49.9464 52.8346 49.9514 52.674 50.0582C52.433 50.2184 52.1547 50.3571 51.8979 50.4584C51.1648 50.7837 50.469 51.1305 49.7733 51.4773C49.1363 51.8081 48.4406 52.1549 47.7663 52.4642C46.9156 52.8215 46.0433 53.2162 45.2458 53.6538C45.0263 53.7766 44.7005 53.7387 44.4595 53.8988C43.6778 54.3953 42.7953 54.6349 41.9819 55.0136C41.3077 55.3229 40.5746 55.6483 39.9003 55.9577C38.9262 56.4432 37.9047 56.7521 36.9306 57.2376C36.176 57.6003 35.4214 57.9631 34.6137 58.2455C33.7256 58.5814 32.8534 58.9761 32.0185 59.3922C31.5207 59.6537 30.9641 59.9311 30.4561 60.0374C29.8678 60.1971 29.3486 60.496 28.7603 60.6557C28.3858 60.7889 28.0114 60.9221 27.6901 61.1357C27.1866 61.4934 26.535 61.4177 26.0316 61.7754C25.9456 61.9251 25.3698 61.5445 25.2057 61.0522ZM42.4673 50.3656C42.4673 50.3656 42.4458 50.403 42.4085 50.3816C42.3237 50.1836 42.1687 50.1941 42.008 50.3008C41.8904 50.3328 41.8259 50.445 41.6867 50.5144C40.9106 50.9145 40.0497 51.1167 39.311 51.5383C39.1718 51.6077 39.0858 51.7573 38.9308 51.7678C38.0858 52.0288 37.2882 52.4664 36.4748 52.8451C36.3356 52.9145 36.218 52.9464 36.0788 53.0158C35.1692 53.389 34.2755 53.8212 33.4033 54.2158C33.0073 54.3865 32.6113 54.5572 32.2154 54.7278C31.7821 54.877 31.3646 55.0851 30.8725 55.2503C29.6903 55.666 28.5929 56.2797 27.5702 56.9363C27.1901 57.1658 27.146 57.5883 27.1075 57.9146C27.0747 58.1446 27.4118 57.9899 27.5826 58.0383C27.5611 58.0757 27.577 58.1346 27.5555 58.172C26.9514 58.2728 26.8269 58.7487 26.7398 59.2461C26.7341 59.3424 26.707 59.4761 26.7443 59.4975C26.819 59.5404 26.9366 59.5085 27.017 59.4551C27.2636 59.1987 27.5736 59.1777 27.8835 59.1567C28.0974 59.1302 28.327 59.1626 28.4503 59.0344C28.9323 58.7141 29.4832 58.5329 29.981 58.2715C30.8962 57.8019 31.8273 57.3913 32.7052 56.9003C33.5243 56.4253 34.4124 56.0895 35.2473 55.6733C35.9215 55.364 36.5958 55.0546 37.1954 54.7023C37.9341 54.2807 38.7204 54.0357 39.4591 53.614C39.8981 53.3686 40.4332 53.1286 40.9626 52.9848C41.2568 52.905 41.5883 52.8466 41.8292 52.6864C42.5306 52.2433 43.2796 51.9769 44.0342 51.6141C44.7672 51.2888 45.4788 51.0008 46.2119 50.6755C47.0039 50.3342 47.8014 49.8966 48.6465 49.6356C49.1386 49.4704 49.5776 49.2249 50.0539 49.0009C51.7984 48.2115 53.5904 47.5987 55.3348 46.8093C55.474 46.74 55.8371 46.7993 55.7421 46.4461C55.6946 46.2695 55.6844 46.1144 55.6742 45.9592C55.6335 45.3386 55.4469 45.2314 54.8959 45.4126C54.4626 45.5618 54.0293 45.711 53.5745 45.8976C52.8041 46.2015 52.071 46.5268 51.2848 46.7718C50.5358 47.0383 49.8401 47.3851 49.1285 47.673C48.4972 47.9076 47.935 48.2813 47.2935 48.3607C47.2245 48.2215 47.2302 48.1252 47.444 48.0987C47.9146 47.971 48.2947 47.7415 48.7495 47.5548C49.2846 47.3148 49.8356 47.1337 50.3118 46.9096C51.1038 46.5683 51.8742 46.2644 52.6819 45.982C53.3935 45.6941 54.1425 45.4276 54.8541 45.1397C55.2285 45.0064 55.8055 45.0393 55.5193 44.3275C55.5034 44.2686 55.5951 44.0226 55.5204 43.9798C55.4299 43.878 55.2636 44.081 55.2048 44.097C54.9378 44.0432 54.8088 44.2677 54.6108 44.353C53.7386 44.7477 52.8822 45.2013 52.01 45.596C51.4533 45.8734 50.8967 46.1508 50.287 46.3479C49.7948 46.5131 49.3401 46.6997 48.9011 46.9452C48.5425 47.1373 48.1839 47.3294 47.7879 47.5001C46.9372 47.8574 46.1769 48.3164 45.3262 48.6737C44.7322 48.9297 44.17 49.3034 43.5602 49.5005C43.1857 49.6337 42.9176 49.9276 42.5058 50.0394C42.3666 50.1087 42.3768 50.2639 42.4673 50.3656ZM12.0175 28.6925C12.0582 29.313 12.6612 29.5599 12.686 30.1216C12.7222 30.4908 13.0899 30.8015 13.1849 31.1547C13.3591 31.8022 13.8705 32.295 14.0232 32.98C14.0334 33.1351 14.2834 33.4778 14.7325 33.3874C15.572 33.2227 16.4431 33.1757 17.2859 33.6102C18.1287 34.0446 18.752 34.6017 19.1876 35.3994C19.2566 35.5385 19.2826 35.7525 19.5451 35.555C19.6469 35.4642 19.8392 35.4751 19.9297 35.5769C20.0575 35.7001 20.2012 35.8821 20.0937 36.0692C19.9648 36.2937 19.8731 36.5397 19.5948 36.6784C19.2147 36.9079 18.9002 36.6775 18.6819 36.4525C18.5009 36.249 18.6083 36.0619 18.7905 35.9177C18.8708 35.8643 18.855 35.8055 18.8176 35.784C18.5936 35.6553 18.5144 35.361 18.3493 35.2164C17.6829 34.734 16.9521 34.364 16.1297 34.2398C15.7665 34.1805 15.4034 34.1212 15.0346 34.1582C14.8208 34.1846 14.6759 34.3503 14.8038 34.4735C15.107 34.8965 15.3672 35.3943 15.6488 35.8547C15.9837 36.3954 16.1421 36.9841 16.4554 37.5622C16.7688 38.1404 17.0822 38.7185 17.3525 39.3715C17.4532 39.6284 17.736 39.7411 17.9125 39.6932C18.4476 39.4532 18.9545 39.6946 19.4511 39.7808C20.0439 39.8726 20.7272 40.066 21.1854 40.4786C21.4252 40.6661 21.6979 40.6237 21.9004 40.7898C22.2465 41.1379 22.6357 41.4113 22.9015 41.8128C23.0452 41.9949 23.1516 42.1555 23.3812 42.1879C23.6482 42.2418 23.6901 42.5146 23.6199 42.7232C23.5226 43.0654 23.2443 43.2041 22.966 43.3428C22.6877 43.4815 22.4264 43.3314 22.3415 43.1334C22.2567 42.9353 21.9852 42.6301 22.3653 42.4005C22.4456 42.3471 22.4354 42.192 22.3234 42.1277C22.1209 41.9616 21.9773 41.7795 21.7748 41.6134C21.4229 41.3615 21.0496 41.147 20.6763 40.9326C20.3403 40.7395 19.9342 40.7551 19.5767 40.5995C19.1818 40.4224 18.7757 40.4379 18.3322 40.432C18.1987 40.4051 18.0811 40.437 18.0008 40.4904C17.9363 40.6026 17.9465 40.7578 18.1173 40.8061C18.5653 41.0635 18.5155 41.5823 18.8028 41.9465C19.037 42.2303 19.1852 42.6638 19.3979 42.985C19.8447 43.5901 20.0133 44.3339 20.4816 44.9015C20.7158 45.1854 20.9817 45.5869 21.071 46.0364C21.0869 46.0952 21.209 46.3147 21.3799 46.3631C22.3143 46.5516 23.2386 46.5849 24.1674 46.8696C24.9254 47.106 25.4955 47.5829 26.1675 47.9689C26.6155 48.2263 26.913 48.7456 27.1144 49.2594C27.2151 49.5163 27.2569 49.7891 27.6258 49.7522C27.7219 49.7577 27.7536 49.8754 27.7694 49.9342C27.8859 50.25 27.74 50.7634 27.4244 50.8806C27.1302 50.9605 26.8089 51.174 26.5374 50.8688C26.2444 50.6009 26.3202 50.2961 26.5668 50.0396C26.7117 49.874 26.6856 49.66 26.5736 49.5957C26.2591 49.3652 26.0465 49.044 25.7908 48.7976C25.3541 48.3476 24.7828 48.2185 24.3031 47.8434C24.0101 47.5755 23.6357 47.7088 23.3155 47.5746C22.8245 47.3921 22.4297 47.215 21.8629 47.3373C21.5688 47.4172 21.6808 47.4815 21.691 47.6367C21.786 47.9898 22.0575 48.2951 22.174 48.6109C22.4489 49.5153 22.9863 50.2221 23.4218 51.0198C23.9637 51.978 24.5859 52.8829 25.1493 53.8037C25.5373 54.4247 26.0701 54.8801 26.5012 55.4264C26.5917 55.5281 26.6822 55.6299 26.6923 55.785C26.7399 55.9616 26.776 56.3308 27.1132 56.1761C27.37 56.0748 27.68 56.0538 27.8621 55.9096C28.3655 55.5519 28.9753 55.3547 29.5478 55.1362C30.5592 54.6721 31.549 54.2455 32.5604 53.7814C33.1544 53.5255 33.7483 53.2695 34.3264 52.9546C35.0652 52.533 35.8299 52.3254 36.5845 51.9626C37.3764 51.6213 38.1152 51.1997 38.8698 50.837C39.742 50.4423 40.5554 50.0635 41.4277 49.6688C42.0804 49.3969 42.7332 49.1249 43.3328 48.7727C43.9697 48.4419 44.601 48.2073 45.2164 47.9139C45.8907 47.6045 46.565 47.2952 47.2392 46.9858C47.7743 46.7458 48.2879 46.5432 48.8231 46.3032C49.5188 45.9564 50.2462 45.7273 50.8673 45.3377C51.9489 44.6651 53.1311 44.2494 54.1911 43.6142C54.6731 43.2939 55.2557 43.2305 55.7003 42.8887C55.9039 42.7071 55.9096 42.6108 55.8089 42.3539C55.6766 41.9793 55.3247 41.7274 55.267 41.3957C55.1313 40.4219 54.5566 39.6936 54.2014 38.8426C53.9627 38.3074 53.7828 37.7561 53.4853 37.2369C53.0973 36.6158 52.9072 35.9095 52.5407 35.251C52.2115 34.614 51.9626 33.9236 51.6334 33.2866C51.4422 32.9279 51.406 32.5588 51.1345 32.2535C50.9535 32.05 50.7782 31.7502 50.7363 31.4773C50.6368 30.8727 50.2216 30.3854 50.0044 29.8127C49.8189 29.3577 49.553 28.9562 49.3675 28.5012C49.0123 27.6502 48.5982 26.8152 48.1842 25.9801C47.855 25.3431 47.6061 24.6527 47.2769 24.0157C47.0699 23.5982 46.9432 23.1273 46.6773 22.7257C46.1241 21.96 45.8866 21.0771 45.5099 20.2635C45.0585 19.407 44.6286 18.5131 44.2202 17.5817C44.098 17.3622 43.8955 17.1962 43.848 17.0196C43.3503 15.6388 42.3875 14.2895 41.7405 12.8229C41.2156 11.5758 40.4927 10.414 39.8501 9.19885C39.7653 9.00081 39.6589 8.84019 39.5741 8.64215C39.091 7.66793 38.3297 6.83242 38.0073 5.75142C37.9914 5.69255 37.9009 5.5908 37.8636 5.56935C37.6136 5.22666 37.2244 4.95333 37.2742 4.4345C37.2799 4.33822 37.264 4.27936 37.2482 4.2205C36.9348 3.64235 36.5785 3.13904 36.2436 2.59831C36.0151 2.2182 35.8081 1.80068 35.5422 1.39912C35.42 1.17964 35.2175 1.01354 34.9981 1.13628C34.4845 1.33888 33.9765 1.44519 33.4255 1.62634C32.5216 1.90331 31.6494 2.298 30.7986 2.65528C29.9264 3.04998 29.0757 3.40726 28.2622 3.78599C27.8663 3.95664 27.5235 4.20761 27.1275 4.37826C26.5121 4.67166 25.8808 4.90619 25.2812 5.25846C25.1421 5.32781 25.0346 5.5149 24.8796 5.52539C24.4146 5.55687 24.013 5.82381 23.6329 6.05333C23.1136 6.3522 22.5944 6.65108 22.0219 6.86964C21.8828 6.939 21.7595 7.06722 21.6045 7.07772C21.428 7.12563 21.3952 7.3556 21.2402 7.3661C20.6417 7.37065 20.2661 7.8516 19.7152 8.03275C19.0839 8.26728 18.4413 8.69438 17.8259 8.98778C17.1675 9.35601 16.4185 9.62249 15.7974 10.0122C14.6141 10.7756 13.3832 11.3624 12.184 12.0669C11.124 12.702 10.0424 13.3746 8.96091 14.0472C8.42014 14.3835 8.43598 14.4424 8.95298 14.8389C8.99031 14.8604 9.02764 14.8818 9.06497 14.9033C9.46432 15.3317 9.82067 15.835 10.1985 16.3009C10.5605 16.708 10.6657 17.2163 10.9689 17.6393C11.1499 17.8428 10.9565 18.1796 11.1963 18.3671C11.5481 18.619 11.547 18.9667 11.4339 19.2501C11.3422 19.496 11.0209 19.7096 10.7109 19.7306C10.4971 19.757 10.289 19.6872 10.1826 19.5266C10.0763 19.366 10.0876 19.1734 10.2324 19.0078C10.3127 18.9544 10.2969 18.8955 10.3026 18.7992C10.0277 17.8948 9.8331 16.937 9.10342 16.2192C8.93825 16.0746 8.75159 15.9674 8.66674 15.7693C8.47556 15.4107 8.11241 15.3513 7.85674 15.1049C7.76623 15.0032 7.64858 15.0351 7.4506 15.1204C7.25262 15.2058 7.08631 15.4088 6.851 15.4727C6.35888 15.6379 6.35322 15.7342 6.59758 16.1731C6.85777 16.671 7.13946 17.1314 7.34082 17.6452C8.0309 19.0369 8.44267 20.5674 9.03093 22.05C9.14744 22.3657 9.33411 22.473 9.56942 22.4091C10.9326 22.1969 11.8976 22.8508 12.728 23.8255C12.8558 23.9487 12.9407 24.1467 13.0527 24.2111C13.5063 24.3722 13.5267 24.6824 13.3706 25.0406C13.2789 25.2866 12.7438 25.5266 12.4825 25.3765C12.1838 25.2049 12.0028 25.0014 12.2178 24.6272C12.2608 24.5524 12.2449 24.4935 12.2132 24.3758C11.9214 23.7602 11.3014 23.8022 10.8161 23.5234C10.4801 23.3304 10.0525 23.3833 9.73232 23.2491C9.30016 23.0506 9.43818 23.329 9.42686 23.5216C9.40989 23.8104 9.69271 23.9231 9.73456 24.196C9.79226 24.5277 9.92461 24.9023 10.0785 25.2396C10.4235 25.9354 10.7685 26.6313 11.0333 27.3806C11.1339 27.6375 11.3364 27.8036 11.5288 27.8145C11.9881 27.8793 12.4847 27.9656 12.9225 28.0678C13.7767 28.3096 14.6364 28.4552 15.2485 29.2049C15.3921 29.387 15.5777 29.8419 16.1128 29.6019C16.4499 29.4472 16.6829 30.0788 16.4522 30.3941C16.2429 30.672 15.9702 30.7144 15.6602 30.7354C15.1953 30.7669 15.0459 30.6811 15.0901 30.2585C15.0799 30.1034 15.0855 30.0071 14.9362 29.9213C14.6002 29.7283 14.3445 29.4819 14.03 29.2515C13.4757 28.8335 12.7653 28.7737 12.0175 28.6925ZM56.2727 47.5969C56.2093 47.3615 55.9265 47.2487 55.9005 47.0347C55.8846 46.9759 55.81 46.933 55.6335 46.9809C55.216 47.189 54.8574 47.3811 54.4241 47.5303C53.5146 47.9035 52.5835 48.3142 51.6739 48.6874C50.2722 49.2259 48.918 49.9409 47.479 50.4579C46.5909 50.7937 45.7345 51.2473 44.8838 51.6045C44.0704 51.9833 43.2569 52.362 42.3904 52.6604C42.155 52.7243 41.8824 52.7667 41.7218 52.8735C41.4378 53.1085 41.1222 53.2258 40.785 53.3804C40.0734 53.6684 39.415 54.0366 38.7034 54.3245C37.735 54.7137 36.8141 55.2795 35.8242 55.7062C35.4871 55.8609 35.2246 56.0584 34.8717 56.1543C34.599 56.1967 34.3366 56.3943 34.0582 56.533C33.5605 56.7944 33.0095 56.9756 32.5649 57.3174C32.3024 57.5149 31.971 57.5733 31.6338 57.728C30.9596 58.0374 30.2853 58.3468 29.6484 58.6776C29.0703 58.9924 28.4764 59.2484 27.8666 59.4455C27.5509 59.5628 27.267 59.7978 26.8608 59.8133C26.6097 59.8183 26.3676 60.3262 26.5214 60.6634C26.6221 60.9203 26.8631 60.7601 27.0396 60.7122C27.6064 60.59 28.1041 60.3285 28.6392 60.0885C29.5115 59.6938 30.3781 59.3954 31.213 58.9792C31.6304 58.7712 32.0321 58.5042 32.4812 58.4139C33.1498 58.2008 33.7437 57.9448 34.3592 57.6514C35.0334 57.342 35.6703 57.0112 36.3231 56.7393C37.1739 56.382 38.0189 56.121 38.838 55.646C38.9987 55.5392 39.122 55.411 39.3358 55.3845C40.0202 55.2303 40.6413 54.8406 41.2941 54.5687C42.2252 54.158 43.1562 53.7473 44.0873 53.3367C44.6598 53.1181 45.2854 52.9799 45.8046 52.681C45.885 52.6276 45.8431 52.3547 46.0671 52.4834C46.2538 52.5906 46.3986 52.425 46.5751 52.3771C47.1848 52.18 47.5978 51.7205 48.1861 51.5608C48.7743 51.4011 49.2834 50.947 49.8717 50.7873C50.5403 50.5743 51.1399 50.222 51.7768 49.8912C52.2746 49.6297 52.8097 49.3897 53.3233 49.1871C54.2329 48.8139 55.0735 48.3014 56.0204 47.9496C56.2342 47.9232 56.3575 47.795 56.2727 47.5969ZM4.19455 25.542C4.11988 25.4991 4.11988 25.4991 4.08255 25.4777C4.31786 25.4138 4.16401 25.0766 4.3405 25.0287C4.80094 24.7458 5.05888 24.2968 5.48199 23.9924C5.58381 23.9016 5.66414 23.8482 5.51481 23.7624C5.27497 23.5749 5.38811 23.2915 5.39942 23.099C5.48316 22.0025 5.31574 20.911 5.4583 19.7985C5.53524 19.146 5.57485 18.472 5.65178 17.8195C5.71175 17.4558 5.77171 17.0921 5.75701 16.6856C5.70046 16.0061 5.71857 15.3696 6.48899 15.0657C6.54782 15.0497 6.56931 15.0123 6.59081 14.9749C6.67113 14.9215 6.71412 14.8466 6.66095 14.7663C6.62928 14.6486 6.53312 14.6431 6.43696 14.6377C6.24463 14.6267 6.12132 14.7549 5.9505 14.7065C5.01038 14.6144 4.19131 15.0894 3.50008 15.6876C3.29644 15.8692 3.04981 16.1256 2.83033 16.2484C2.42872 16.5153 2.2511 16.9109 2.03614 17.2851C1.73521 17.8089 1.54627 18.3971 1.41051 19.0656C1.24645 20.2155 1.25888 21.3175 1.48512 22.393C1.58015 22.7462 1.74984 23.1423 1.84486 23.4955C1.93988 23.8486 2.25438 24.0791 2.32791 24.4697C2.4071 24.764 2.65711 25.1067 2.95012 25.3745C3.07795 25.4977 3.30761 25.5301 3.39245 25.7282C3.43996 25.9048 3.62663 26.012 3.74428 25.9801C3.97959 25.9162 4.07123 25.6702 4.19455 25.542ZM25.0768 59.6344C25.1775 59.8913 25.3528 60.1911 25.4693 60.5069C25.501 60.6246 25.6288 60.7478 25.7148 60.5981C25.828 60.3148 25.9411 60.0314 25.9581 59.7426C25.9592 59.3949 26.0565 59.0526 26.1481 58.8067C26.3099 58.3522 26.5464 57.9406 26.5747 57.4592C26.586 57.2666 26.5385 57.0901 26.4106 56.9668C25.8619 56.4526 25.6934 55.7088 25.1877 55.1197C24.7352 54.6109 24.4275 53.9365 24.018 53.3529C23.6989 52.871 23.4388 52.3732 23.1197 51.8913C22.8007 51.4094 22.5247 50.8527 22.1683 50.3494C21.9715 50.087 21.9726 49.7393 21.7758 49.477C21.3979 49.0111 21.2984 48.4065 21.097 47.8926C20.9963 47.6357 20.9918 47.3843 20.5427 47.4747C20.1524 47.549 19.7621 47.6234 19.3503 47.7352C19.0777 47.7776 18.8684 48.0555 18.6115 48.1568C18.5901 48.1942 18.5471 48.2691 18.5471 48.2691C18.7281 48.4726 18.5188 48.7505 18.7959 48.9595C18.9453 49.0453 19.0833 49.3236 19.2055 49.5431C19.3435 49.8214 19.2779 50.2814 19.7587 50.3088C19.796 50.3302 19.8118 50.3891 19.8277 50.448C20.0811 51.3898 20.5698 52.2677 21.0641 53.0494C21.5958 53.8525 21.9884 54.725 22.4986 55.5655C22.9398 56.2668 23.4025 56.9308 23.7419 57.7229C24.1084 58.3814 24.6141 58.9705 25.0768 59.6344ZM20.4975 46.6027C20.2644 45.9711 19.7689 45.5372 19.6694 44.9326C19.6535 44.8737 19.6377 44.8148 19.6004 44.7934C19.2383 44.3864 19.0155 43.91 18.7711 43.471C18.2666 42.5342 17.7994 41.6188 17.3322 40.7035C17.279 40.6232 17.2258 40.5428 17.1082 40.5748C16.6375 40.7025 16.1352 40.7126 15.7336 40.9795C15.6533 41.0329 15.6318 41.0703 15.5356 41.0648C15.2098 41.027 15.0379 41.3263 14.8342 41.5079C14.6736 41.6147 14.8919 41.8396 14.9236 41.9574C14.9756 42.3854 15.3648 42.6587 15.4383 43.0493C15.496 43.3811 15.6928 43.6434 15.8524 43.8844C15.9055 43.9647 16.0175 44.029 16.0277 44.1842C16.1702 44.7139 16.4089 45.2492 16.7924 45.6188C17.2665 46.0902 17.4837 46.6629 17.7224 47.1981C17.892 47.5942 18.09 47.5089 18.288 47.4235C18.9306 46.9964 19.6105 46.5908 20.4975 46.6027ZM12.9562 47.1971C12.9505 47.2934 13.084 47.3203 13.1157 47.4381C13.1406 47.9998 13.4652 48.3854 13.7526 48.7495C14.2526 49.4349 15.0366 49.8853 15.6599 50.4424C15.7878 50.5656 15.9699 50.4214 16.0389 50.5606C16.1023 50.7961 16.2629 50.6893 16.3432 50.6359C16.4609 50.604 16.6159 50.5935 16.6272 50.4009C16.608 49.7429 16.8716 49.1976 17.1725 48.6738C17.28 48.4867 17.4146 48.1659 17.3773 48.1445C17.0741 47.7215 16.9746 47.1169 16.6126 46.7098C16.3942 46.4849 16.2132 46.2814 16.1182 45.9282C16.0548 45.6927 15.9813 45.3021 15.6555 45.2642C15.3297 45.2264 14.902 45.2793 14.5706 45.3377C14.0626 45.444 13.6191 45.4381 13.1225 45.3518C13.0263 45.3464 12.9415 45.1483 12.834 45.3354C12.7695 45.4476 12.6677 45.5385 12.7526 45.7365C12.8374 45.9345 12.8951 46.2663 12.8894 46.3625C12.7548 46.6833 12.9143 46.9243 12.9562 47.1971ZM12.3172 35.0853C11.7606 35.3628 11.6746 35.5124 11.8341 35.7534C11.9936 35.9943 12.1101 36.3101 12.2108 36.567C12.471 37.0648 12.79 37.5467 12.9326 38.0765C13.0276 38.4296 13.2403 38.7509 13.3941 39.0881C13.6543 39.5859 13.9733 40.0678 14.1532 40.619C14.169 40.6779 14.2165 40.8545 14.3184 40.7637C14.522 40.5821 14.8105 40.5985 15.0141 40.4169C15.2981 40.1819 15.6137 40.0646 15.9825 40.0277C16.8593 39.8844 16.8219 39.8629 16.4237 39.0868C16.1794 38.6478 15.8389 38.2033 15.728 37.7913C15.607 37.2241 15.1216 36.9453 15.0006 36.3781C14.9327 35.8912 14.4961 35.4413 14.2947 34.9275C14.2155 34.6332 14.056 34.3922 13.6012 34.5789C13.2267 34.7121 12.6815 34.797 12.3172 35.0853ZM10.9585 33.9067C11.1022 34.0888 11.2775 34.3885 11.4529 34.6883C11.5219 34.8275 11.5807 34.8116 11.6237 34.7367C12.1113 34.3201 12.7052 34.0641 13.2833 33.7493C13.5831 33.5732 13.6046 33.5357 13.4666 33.2574C13.1589 32.583 12.8727 31.8711 12.5062 31.2127C12.1238 30.4953 11.8002 29.762 11.4179 29.0447C11.2957 28.8252 11.2425 28.7449 11.0287 28.7714C10.4676 28.7974 9.95962 28.9037 9.48334 29.1278C9.28536 29.2131 8.99688 29.1966 8.86791 29.4212C8.71744 29.6831 9.05909 29.7798 9.12244 30.0153C9.13828 30.0741 9.17561 30.0956 9.15412 30.133C9.40299 30.8234 9.76952 31.4818 10.0987 32.1189C10.2209 32.3383 10.4392 32.5633 10.4494 32.7185C10.5015 33.1465 10.773 33.4517 10.9585 33.9067ZM9.91757 41.7689C10.0126 42.122 10.2943 42.5825 10.7366 42.9361C11.1948 43.3486 11.6959 43.6863 12.1971 44.024C12.2344 44.0454 12.4211 44.1526 12.3736 43.9761C12.3317 43.7032 12.5139 43.559 12.5467 43.329C12.7141 42.7782 12.9777 42.233 13.3907 41.7735C13.6803 41.4422 13.6011 41.1479 13.4258 40.8481C13.2029 40.3717 12.9212 39.9113 12.6984 39.4349C12.6508 39.2583 12.566 39.0602 12.3465 39.183C11.9506 39.3536 11.5976 39.4495 11.1541 39.4435C10.5398 39.3892 9.93005 39.5863 9.35422 39.2058C9.24222 39.1414 9.12456 39.1734 9.13474 39.3285C9.31913 40.1312 9.48769 40.8749 9.91757 41.7689ZM18.754 55.2556C18.9723 55.4806 19.1692 55.7429 19.409 55.9305C19.9475 56.2896 20.5935 56.4616 21.175 56.7459C21.5698 56.923 21.8967 56.6132 22.2384 56.7099C22.3345 56.7154 22.3244 56.5602 22.2712 56.4799C22.1648 56.3193 22.08 56.1213 21.9307 56.0355C21.7813 55.9497 21.6908 55.8479 21.718 55.7142C21.7508 55.4843 21.623 55.361 21.4793 55.179C21.192 54.8148 20.8458 54.4667 20.7406 53.9583C20.6772 53.7229 20.5336 53.5408 20.4114 53.3213C20.167 52.8824 19.8638 52.4594 19.7428 51.8922C19.6953 51.7156 19.5312 51.2232 19.1726 51.4153C18.7337 51.6608 18.3117 51.6175 17.8626 51.7078C17.4938 51.7448 17.2686 51.9638 17.3422 52.3544C17.3999 52.6861 17.479 52.9804 17.7132 53.2643C17.7664 53.3446 17.8625 53.3501 17.8196 53.4249C17.6634 53.7831 18.0368 53.9976 18.0571 54.3078C18.168 54.7199 18.6216 54.881 18.754 55.2556ZM8.02398 27.6922C8.13032 27.8528 8.17783 28.0294 8.28417 28.19C8.45386 28.5861 8.72651 28.5437 9.04214 28.4264C9.59309 28.2453 10.0965 27.8875 10.7006 27.7867C10.9145 27.7602 10.7866 27.637 10.7708 27.5781C10.6384 27.2035 10.4846 26.8663 10.3307 26.5291C9.99701 25.6407 9.46531 24.8375 9.27074 23.8797C9.13386 23.2537 8.71754 23.1141 8.13944 23.4289C7.72198 23.637 7.28869 23.7862 6.90857 24.0157C6.82825 24.0691 6.40061 24.122 6.61895 24.347C7.03979 24.738 6.72754 25.4544 7.35202 25.6639C7.23322 26.0435 7.52623 26.3114 7.64275 26.6272C7.67894 26.9963 7.87013 27.355 8.02398 27.6922ZM8.68564 37.7766C8.90511 37.6539 8.98092 37.349 9.0669 37.1994C9.40064 36.4456 10.0432 36.0185 10.5421 35.4093C10.7085 35.2062 10.7514 35.1314 10.6134 34.8531C10.4222 34.4944 10.0704 34.2425 10.0184 33.8145C9.8815 33.1884 9.90299 33.151 9.34073 33.5247C9.34073 33.5247 9.34073 33.5247 9.2819 33.5407C8.48546 33.6306 7.66753 33.7579 6.87222 33.5001C6.73873 33.4731 6.57922 33.2322 6.47174 33.4193C6.34843 33.5475 6.35295 33.7989 6.37897 34.013C6.44684 34.4998 6.79301 34.848 6.94121 35.2815C7.14257 35.7953 7.34394 36.3091 7.72178 36.775C7.93446 37.0962 8.20597 37.4015 8.45598 37.7442C8.50915 37.8245 8.54649 37.846 8.68564 37.7766ZM6.24347 16.6167C6.26722 17.5261 6.21064 18.4889 6.19705 19.3769C6.20043 19.976 6.08616 20.6071 6.03072 21.2222C5.95378 21.8747 5.93567 22.5112 6.16871 23.1428C6.23206 23.3782 6.36555 23.4052 6.5262 23.2984C6.75133 23.0794 7.0828 23.021 7.37695 22.9411C7.69258 22.8238 7.9607 22.53 8.38268 22.5733C8.51617 22.6003 8.79448 22.4615 8.67796 22.1458C8.5456 21.7711 8.43474 21.3591 8.30238 20.9845C7.97884 20.2512 7.6553 19.5179 7.39058 18.7686C6.99238 17.9924 6.64734 17.2966 6.24347 16.6167ZM5.38912 31.1551C5.49546 31.3157 5.6018 31.4763 5.6923 31.5781C5.79864 31.7387 5.9163 31.7068 5.96495 31.5356C6.05772 30.942 6.353 30.5144 6.74444 30.0924C6.99107 29.8359 7.2377 29.5795 7.55899 29.3659C7.71964 29.2591 7.84295 29.1309 7.68344 28.89C7.38026 28.467 7.25356 27.9961 7.12686 27.5252C6.93115 26.9151 6.81236 27.2947 6.57705 27.3586C6.06909 27.4649 5.58263 27.5338 5.07581 27.2924C4.92648 27.2066 4.77714 27.1209 4.64365 27.0939C4.47283 27.0456 4.32349 26.9598 4.32236 27.3075C4.2556 28.1151 4.61647 28.8699 4.80652 29.5762C4.92756 30.1434 5.18776 30.6413 5.38912 31.1551ZM9.18349 32.5884C9.20499 32.551 9.47198 32.6048 9.3498 32.3853C9.24346 32.2247 9.15861 32.0267 9.07377 31.8286C8.87806 31.2185 8.32373 30.8006 8.24568 30.1585C8.214 30.0408 8.15518 30.0568 8.01603 30.1261C7.65174 30.4145 7.56462 30.9119 7.14717 31.12C7.08834 31.1359 7.163 31.1788 7.14151 31.2162C7.22635 31.4143 7.04421 31.5585 6.90506 31.6278C6.60526 31.804 6.70029 32.1571 6.54982 32.4191C6.50683 32.4939 6.62901 32.7134 6.70933 32.66C7.02496 32.5427 7.18447 32.7837 7.39263 32.8535C8.03861 33.0255 8.5624 32.9781 9.18349 32.5884ZM11.0591 35.8058C11.101 36.0787 11.127 36.2927 10.8012 36.2548C10.705 36.2494 10.5071 36.3347 10.4584 36.5058C10.4098 36.6769 10.3396 36.8855 10.2163 37.0137C9.91085 37.2861 9.81355 37.6283 9.6201 37.9651C9.51262 38.1522 9.55447 38.425 9.78412 38.4574C10.1846 38.5382 10.5692 38.5601 10.9856 38.6997C11.3272 38.7965 11.7017 38.6632 12.0015 38.4871C12.1621 38.3803 12.1678 38.2841 12.1576 38.1289C12.1271 37.6635 11.7809 37.3153 11.67 36.9033C11.5162 36.5661 11.3465 36.17 11.0591 35.8058ZM14.4722 42.7431C14.3817 42.6414 14.3127 42.5022 14.2063 42.3416C14.1373 42.2024 13.9823 42.2129 13.9179 42.3251C13.7459 42.6245 13.4619 42.8595 13.4981 43.2286C13.5343 43.5978 13.2719 43.7954 13.1587 44.0787C13.0456 44.3621 13.0988 44.4424 13.3069 44.5122C13.8567 44.6788 14.3862 44.5351 14.9315 44.4502C15.2041 44.4078 15.1939 44.2526 15.0876 44.092C14.9394 43.6585 14.695 43.2195 14.4722 42.7431ZM6.00804 24.8918C5.94469 24.6563 5.83269 24.592 5.65055 24.7362C5.54873 24.827 5.44691 24.9178 5.36093 25.0675C5.14598 25.4416 4.93102 25.8158 4.71607 26.19C4.60859 26.3771 4.72059 26.4414 4.87558 26.4309C5.34055 26.3994 5.82135 26.4268 6.28632 26.3953C6.38248 26.4008 6.50013 26.3689 6.46846 26.2511C6.40511 26.0157 6.28293 25.7962 6.27841 25.5448C6.25239 25.3308 5.97409 25.4695 6.03858 25.3572C6.18339 25.1916 6.07704 25.031 6.00804 24.8918ZM17.9893 48.8942C17.5277 49.5248 17.435 50.1185 17.3795 50.7336C17.3467 50.9636 17.427 50.9102 17.5979 50.9585C18.0357 51.0608 18.2936 50.6118 18.6783 50.6337C18.7744 50.6391 18.9034 50.4146 18.7756 50.2914C18.504 49.9862 18.4893 49.5796 18.159 49.2903C18.1432 49.2314 17.892 49.2364 17.9893 48.8942Z" fill="#6D6C80"/>
<path d="M42.4673 50.3656C42.7343 50.4195 42.9006 50.2164 43.1574 50.1151C43.869 49.8272 44.5806 49.5393 45.2232 49.1122C45.8228 48.7599 46.4699 48.5842 47.0638 48.3283C47.203 48.2589 47.1973 48.3552 47.2505 48.4355C46.7256 48.8307 46.1316 49.0866 45.5377 49.3426C44.9223 49.636 44.3068 49.9294 43.7287 50.2443C43.4878 50.4044 43.1936 50.4843 42.878 50.6015C42.0057 50.9962 41.1278 51.4872 40.2183 51.8605C39.3302 52.1963 38.5858 52.7142 37.7565 53.0341C37.1253 53.2686 36.5257 53.6209 35.9102 53.9143C35.4713 54.1597 35.0323 54.4052 34.5402 54.5704C33.9678 54.789 33.4802 55.2056 32.9077 55.4241C32.2176 55.6747 31.6497 56.1446 30.9596 56.3951C30.446 56.5977 29.964 56.9181 29.4663 57.1795C29.4504 57.1207 29.4131 57.0992 29.3973 57.0404C29.5749 56.6447 29.981 56.6292 30.2808 56.4531C30.9019 56.0634 31.592 55.8129 32.2131 55.4232C32.9733 54.9642 33.7868 54.5855 34.5628 54.1853C35.1624 53.833 35.8367 53.5237 36.4521 53.2303C37.1264 52.9209 37.8063 52.5152 38.5179 52.2273C39.1119 51.9713 39.7646 51.6994 40.3427 51.3845C41.0226 50.9789 41.7659 50.8087 42.3712 50.3601C42.4085 50.3816 42.43 50.3442 42.4673 50.3656Z" fill="#6D6C80"/>
<path d="M20.3405 27.6015C20.2081 27.2269 19.9525 26.9805 19.7771 26.6807C19.5328 26.2417 19.3472 25.7868 19.1617 25.3318C18.9603 24.818 18.7001 24.3202 18.4988 23.8064C18.2341 23.0571 17.9105 22.3238 17.587 21.5905C17.0564 20.4397 16.5847 19.2729 15.915 18.1915C15.7396 17.8917 15.6231 17.5759 15.4104 17.2547C15.2351 16.9549 15.5937 16.7628 15.7917 16.6775C16.5564 16.4698 17.1832 15.9839 17.9321 15.7174C18.4831 15.5363 19.0714 15.3766 19.4945 15.0722C19.8961 14.8053 20.3667 14.6775 20.7842 14.4694C21.1643 14.2399 21.6349 14.1122 22.0524 13.9041C23.0852 13.4026 24.065 12.8208 25.151 12.3997C25.8411 12.1492 26.4995 11.7809 27.1738 11.4716C28.0675 11.0395 28.9613 10.6073 29.855 10.1752C30.5134 9.807 31.2035 9.55649 31.9151 9.26857C32.3111 9.09792 32.6539 8.84695 33.0498 8.6763C33.5261 8.45225 34.0239 8.1908 34.5375 7.9882C34.7355 7.90287 34.9233 7.6624 35.11 7.76964C35.446 7.96266 35.7446 8.13423 35.9516 8.55176C36.3657 9.38681 36.6994 10.2752 37.1135 11.1103C37.4743 11.865 37.8137 12.6572 38.1531 13.4493C38.4393 14.1612 38.7628 14.8945 39.1294 15.5529C39.5808 16.4094 40.1283 17.2714 40.3014 18.2666C40.4167 18.9301 40.2878 19.1546 39.7097 19.4694C38.8748 19.8856 37.9708 20.1625 37.1303 20.675C36.6483 20.9953 36.0544 21.2513 35.5623 21.4164C34.8937 21.6295 34.2409 21.9015 33.6255 22.1949C33.0904 22.4349 32.5926 22.6964 32.0575 22.9364C31.4635 23.1924 30.8481 23.4858 30.2168 23.7203C29.7032 23.9229 29.1681 24.1629 28.7235 24.5047C28.461 24.7022 28.1454 24.8195 27.8513 24.8994C27.0435 25.1818 26.3953 25.7052 25.6407 26.0679C24.8058 26.4841 23.9867 26.9591 23.2264 27.4181C22.7875 27.6636 22.3271 27.9465 21.8881 28.192C21.2138 28.5014 20.8349 28.3832 20.5272 27.7088C20.3348 27.6978 20.3405 27.6015 20.3405 27.6015ZM35.55 8.81869C35.1835 8.16024 34.9007 8.04752 34.4346 8.42671C33.9685 8.8059 33.4492 9.10477 32.9356 9.30737C32.1437 9.64868 31.3302 10.0274 30.5168 10.4061C29.6446 10.8008 28.7938 11.1581 27.9374 11.6117C27.5788 11.8038 27.1614 12.0118 26.7654 12.1825C26.3909 12.3157 25.995 12.4864 25.6364 12.6785C25.1544 12.9988 24.6193 13.2388 24.0842 13.4788C23.3511 13.8042 22.6768 14.1135 21.9437 14.4389C20.9912 14.887 20.0386 15.335 19.0487 15.7617C18.4174 15.9962 17.7488 16.2093 17.1866 16.583C16.8653 16.7966 16.4433 16.7532 16.122 16.9668C15.9025 17.0895 15.8754 17.2232 15.9817 17.3838C16.4218 18.4329 17.0383 19.434 17.5372 20.4671C17.9829 21.4199 18.3698 22.3886 18.7941 23.3788C19.2398 24.3316 19.664 25.3218 20.1097 26.2746C20.2953 26.7295 20.6199 27.1151 20.8055 27.57C20.9537 28.0035 21.1562 28.1696 21.5363 27.9401C21.7557 27.8174 21.9752 27.6946 22.2162 27.5345C22.8214 27.0859 23.4799 26.7177 24.1383 26.3495C24.8556 25.9653 25.5943 25.5436 26.3116 25.1594C27.168 24.7059 28.0459 24.2149 28.9181 23.8202C29.4532 23.5802 30.0256 23.3616 30.5019 23.1376C31.7113 22.5882 32.9048 21.98 34.13 21.4894C34.7828 21.2175 35.4197 20.8867 36.0725 20.6147C37.2231 20.0813 38.3521 19.5853 39.5027 19.0519C39.7006 18.9666 39.8986 18.8812 39.7979 18.6243C39.6022 18.0143 39.4065 17.4042 39.1305 16.8475C38.8703 16.3496 38.5513 15.8678 38.3714 15.3166C38.006 14.3104 37.4426 13.3896 37.0557 12.4208C36.8069 11.7304 36.4777 11.0934 36.17 10.419C35.9528 9.8463 35.6767 9.2896 35.55 8.81869Z" fill="#6D6C80"/>
<path d="M50.7577 41.2934C50.0404 41.6776 49.3876 41.9496 48.7564 42.1841C47.9701 42.4291 47.2314 42.8507 46.4451 43.0958C45.8941 43.2769 45.3375 43.5544 44.9088 43.955C44.6621 44.2114 44.2243 44.1092 43.9472 43.9002C43.3023 43.3805 43.3533 42.5139 42.8476 41.9248C42.7571 41.8231 42.6666 41.7213 42.6349 41.6036C42.5874 41.427 42.3532 41.1432 42.8397 41.0743C43.2085 41.0373 43.5139 40.7649 43.7979 40.5299C43.9585 40.4231 44.1033 40.2575 44.3488 40.3488C44.3975 40.1777 44.5898 40.1886 44.729 40.1193C45.2482 39.8204 45.7992 39.6392 46.3343 39.3992C47.0085 39.0899 47.7733 38.8822 48.3627 38.3748C48.5664 38.1932 48.9193 38.0974 49.2135 38.0176C49.4115 37.9322 49.5879 37.8843 49.7701 37.7401C50.0914 37.5266 50.2192 37.6498 50.3731 37.987C50.4579 38.185 50.6016 38.3671 50.6864 38.5651C50.984 39.0844 51.3188 39.6252 51.4399 40.1923C51.5496 40.9521 51.4319 40.984 50.7577 41.2934ZM43.8126 40.9365C43.0207 41.2778 43.0365 41.3367 43.403 41.9951C43.5252 42.2146 43.6417 42.5304 43.7209 42.8247C43.9268 43.5899 44.3216 43.767 45.0016 43.3613C45.5582 43.0839 46.0774 42.785 46.6499 42.5665C47.1635 42.3639 47.7518 42.2042 48.1749 41.8998C48.7156 41.5635 49.3571 41.4841 49.8605 41.1264C50.0427 40.9822 50.3798 40.8275 50.674 40.7477C50.8504 40.6998 51.0914 40.5396 51.0066 40.3416C50.8685 40.0632 50.8482 39.7529 50.6887 39.512C50.4387 39.1693 50.2475 38.8106 50.1581 38.3612C50.1106 38.1846 49.9828 38.0614 49.8063 38.1093C49.4748 38.1677 49.106 38.2046 48.9024 38.3862C48.3129 38.8937 47.5912 39.0264 46.9542 39.3572C46.7563 39.4426 46.5741 39.5868 46.3388 39.6506C46.082 39.7519 45.7879 39.8318 45.5311 39.9331C44.8726 40.3013 44.4009 40.7768 43.8126 40.9365Z" fill="#6D6C80"/>
<path d="M29.3913 4.93224C29.0428 5.27949 28.5292 5.48209 28.1276 5.74902C27.485 6.17612 26.7949 6.42662 26.0991 6.77341C24.6488 7.48295 23.2041 8.09621 21.7696 8.86462C21.0524 9.24882 20.3724 9.65447 19.6925 10.0601C18.7128 10.6419 17.6584 11.1808 16.6787 11.7626C15.501 12.4297 14.3391 13.1557 13.1988 13.8442C12.899 14.0203 12.589 14.0413 12.3265 14.2389C12.1874 14.3083 11.9792 14.2384 11.8729 14.0778C11.8039 13.9386 12.0177 13.9122 12.098 13.8588C12.8956 13.4212 13.752 12.9676 14.5869 12.5515C14.8652 12.4128 15.0688 12.2312 15.3471 12.0925C16.8835 11.2333 18.4571 10.3955 19.9561 9.51484C20.8555 8.98644 21.7391 8.39918 22.6916 7.9511C23.5639 7.55641 24.3513 6.96367 25.314 6.67073C25.667 6.57491 25.9939 6.26508 26.3899 6.09443C27.0857 5.74764 27.8187 5.4223 28.5145 5.07552C28.8731 4.88342 29.2103 4.72873 29.5689 4.53663C29.708 4.46727 29.906 4.38194 29.975 4.52112C30.044 4.66029 29.8461 4.74562 29.7442 4.83642C29.6266 4.86836 29.5621 4.98062 29.3913 4.93224Z" fill="#6D6C80"/>
<path d="M26.2617 30.605C26.9088 30.4293 27.3964 30.0127 27.9903 29.7568C28.5254 29.5167 29.0289 29.159 29.5267 28.8976C30.2224 28.5508 30.9023 28.1451 31.5234 27.7554C32.0642 27.4191 32.7271 27.3023 33.2521 26.9072C34.061 26.277 35.0079 25.9252 35.9016 25.4931C36.3779 25.2691 36.8915 25.0665 37.3893 24.805C37.5873 24.7197 37.8543 24.7735 38.0579 24.5919C38.1382 24.5385 38.309 24.5869 38.3622 24.6672C38.4154 24.7475 38.2762 24.8169 38.1959 24.8703C37.5001 25.2171 36.7829 25.6013 36.0871 25.9481C35.1934 26.3802 34.2997 26.8123 33.4218 27.3033C32.6457 27.7034 31.9228 28.1839 31.184 28.6055C30.8039 28.8351 30.4079 29.0057 30.012 29.1764C29.0968 29.6459 28.1657 30.0566 27.2505 30.5261C26.9133 30.6808 26.6033 30.7018 26.2617 30.605Z" fill="#6D6C80"/>
<path d="M48.0201 28.7723C47.7689 28.7773 47.7373 28.6596 47.6309 28.4989C47.1909 27.4499 46.692 26.4168 46.1931 25.3837C45.5777 24.0349 44.9034 22.702 44.2507 21.3317C44.012 20.7964 43.7948 20.2238 43.5346 19.7259C43.1839 19.1263 43.0685 18.4629 42.616 17.9541C42.5255 17.8523 42.59 17.7401 42.5583 17.6223C42.5052 17.542 42.3027 17.3759 42.4418 17.3066C42.6025 17.1998 42.7993 17.4622 42.8151 17.521C43.2179 18.5486 43.7597 19.5069 44.2428 20.4811C44.7258 21.4553 45.0856 22.5578 45.6275 23.516C46.1162 24.394 46.4284 25.3198 46.8798 26.1763C47.2938 27.0114 47.6275 27.8998 48.0201 28.7723Z" fill="#6D6C80"/>
<path d="M29.5481 32.1446C32.063 31.0514 34.5304 29.7815 37.1143 28.8274C34.7476 30.3541 32.27 31.4689 29.5481 32.1446Z" fill="#6D6C80"/>
<path d="M37.8098 49.8299C34.8073 51.3398 31.7414 52.6142 28.6597 53.8298C31.6407 52.3573 34.6749 50.9651 37.8098 49.8299Z" fill="#6D6C80"/>
<path d="M42.5556 47.8783C42.1155 48.4715 41.5646 48.6526 40.9819 48.7161C40.827 48.7265 40.7036 48.8548 40.6018 48.9456C40.5215 48.999 40.4253 48.9935 40.3722 48.9132C40.319 48.8329 40.3993 48.7795 40.4208 48.7421C40.4423 48.7046 40.4796 48.7261 40.5011 48.6887C41.1697 48.4756 41.7218 47.9467 42.5556 47.8783Z" fill="#6D6C80"/>
<path d="M31.7353 3.79059C32.0408 3.51818 32.4469 3.50267 32.7309 3.26767C32.8327 3.17687 32.9877 3.16637 33.0567 3.30555C33.1416 3.50359 32.9492 3.49263 32.8689 3.54602C32.6121 3.64732 32.3553 3.74862 32.0985 3.84991C32.0182 3.9033 31.8417 3.95121 31.7353 3.79059Z" fill="#6D6C80"/>
<path d="M28.2414 37.963C28.4325 38.3217 28.2662 38.5247 28.0626 38.7063C27.9393 38.8346 27.8544 38.6365 27.8386 38.5777C27.7006 38.2993 27.8511 38.0374 28.092 37.8772C28.135 37.8024 28.2685 37.8293 28.2414 37.963Z" fill="#6D6C80"/>
<path d="M40.2591 45.912C40.1154 45.73 39.9876 45.6068 39.8812 45.4461C39.8281 45.3658 39.7002 45.2426 39.7862 45.093C39.8507 44.9807 39.9842 45.0076 40.1177 45.0346C40.2297 45.0989 40.4005 45.1473 40.3892 45.3398C40.3779 45.5324 40.3881 45.6875 40.2591 45.912Z" fill="#6D6C80"/>
<path d="M39.4753 33.9659C39.6518 33.918 39.8554 33.7364 39.9029 33.913C39.9719 34.0521 39.8214 34.314 39.6608 34.4208C39.5216 34.4902 39.3452 34.5381 39.2603 34.3401C39.197 34.1046 39.3576 33.9978 39.4753 33.9659Z" fill="#6D6C80"/>
<path d="M49.0869 30.9776C49.3584 31.2829 49.5552 31.5453 49.4953 31.909C49.3573 31.6306 48.9624 31.4536 49.0869 30.9776Z" fill="#6D6C80"/>
<path d="M44.1771 25.8678C44.3264 25.9536 44.5301 25.772 44.5719 26.0449C44.6194 26.2215 44.4588 26.3283 44.357 26.4191C44.2766 26.4724 44.1703 26.3118 44.1545 26.253C44.0855 26.1138 44.1499 26.0015 44.1771 25.8678Z" fill="#6D6C80"/>
<path d="M26.7785 42.4973C26.8962 42.4654 27.0082 42.5297 27.0025 42.626C27.0127 42.7812 27.0172 43.0326 26.8566 43.1394C26.7174 43.2087 26.7287 43.0161 26.6756 42.9358C26.5534 42.7164 26.714 42.6096 26.7785 42.4973Z" fill="#6D6C80"/>
<path d="M48.676 48.8065C48.6499 48.5925 48.8637 48.566 48.9814 48.5341C49.7462 48.3265 50.3944 47.8031 51.2282 47.7347C51.545 47.2697 52.1321 47.4577 52.5179 47.1319C52.7 46.9877 52.9297 47.0201 53.1435 46.9936C53.1163 47.1273 52.9987 47.1593 52.9184 47.2127C52.1853 47.538 51.4149 47.8419 50.6444 48.1458C50.1308 48.3484 49.6172 48.551 49.0821 48.791C48.9056 48.8389 48.7665 48.9083 48.676 48.8065Z" fill="#6D6C80"/>
<path d="M29.4346 57.0618C29.4504 57.1207 29.4878 57.1421 29.5036 57.201C29.0647 57.4465 28.5352 57.5902 28.1279 57.9534C28.0261 58.0442 27.8553 57.9958 27.7003 58.0063C28.2411 57.67 28.723 57.3497 29.2638 57.0134C29.3226 56.9975 29.3973 57.0404 29.4346 57.0618Z" fill="#6D6C80"/>
<path d="M39.6696 52.9885C39.0756 53.2444 38.4444 53.479 37.8289 53.7724C37.8131 53.7135 37.8131 53.7135 37.7973 53.6546C38.3912 53.3987 39.0066 53.1053 39.6379 52.8707C39.6164 52.9081 39.6537 52.9296 39.6696 52.9885Z" fill="#6D6C80"/>
<path d="M48.676 48.8065C48.6545 48.8439 48.6918 48.8654 48.676 48.8065C48.2155 49.0894 47.6804 49.3294 47.1509 49.4731C47.5526 49.2062 48.0447 49.041 48.4463 48.7741C48.5266 48.7207 48.6171 48.8225 48.676 48.8065Z" fill="#6D6C80"/>
<path d="M45.6259 50.1398C45.9529 49.83 46.3488 49.6593 46.798 49.569C46.4869 49.9377 45.9687 49.8888 45.6259 50.1398Z" fill="#6D6C80"/>
<path d="M21.1778 18.2787C21.9165 17.8571 22.575 17.4889 23.2707 17.1421C23.6882 16.934 24.1271 16.6885 24.5819 16.5019C25.0367 16.3153 25.4598 16.0109 25.9361 15.7869C26.7065 15.483 27.3921 14.981 28.1625 14.6771C29.4466 14.1707 30.6989 13.5464 31.9988 13.0988C32.4909 12.9336 32.9084 12.7256 33.3632 12.5389C33.5396 12.491 33.6143 12.5339 33.7206 12.6946C33.8802 12.9355 33.6347 12.8442 33.5758 12.8602C33.1584 13.0683 32.7568 13.3352 32.2703 13.4041C32.0565 13.4306 31.7623 13.5104 31.5587 13.692C31.2533 13.9644 30.7566 13.8782 30.4138 14.1291C29.8516 14.5029 29.2045 14.6785 28.589 14.9719C28.1501 15.2174 27.6896 15.5003 27.1658 15.5478C26.8344 15.6062 26.6251 15.8841 26.3094 16.0013C25.3195 16.428 24.3455 16.9135 23.3714 17.399C22.8148 17.6764 22.2209 17.9324 21.6858 18.1724C21.4289 18.2737 21.1563 18.3161 20.9527 18.4977C20.8723 18.5511 20.7174 18.5616 20.7015 18.5027C20.6325 18.3636 20.7502 18.3316 20.8678 18.2997C20.9798 18.364 21.119 18.2947 21.1778 18.2787Z" fill="#6D6C80"/>
<path d="M22.7095 20.4526C25.8897 18.5471 29.1275 16.9733 32.578 15.7208C32.3415 16.1324 31.9512 16.2067 31.6514 16.3829C30.9557 16.7297 30.2973 17.0979 29.623 17.4073C28.9917 17.6418 28.3921 17.9941 27.7982 18.25C27.3219 18.4741 26.7653 18.7515 26.2834 19.0718C25.8817 19.3388 25.3466 19.5788 24.7957 19.7599C24.3839 19.8717 24.0196 20.1601 23.6021 20.3682C23.3295 20.4106 23.1044 20.6296 22.7095 20.4526Z" fill="#6D6C80"/>
<path d="M21.9662 25.5495C22.0296 25.785 22.1891 26.0259 21.8893 26.202C21.6698 26.3248 21.4673 26.1587 21.4198 25.9821C21.3349 25.7841 21.5012 25.581 21.6619 25.4742C21.7795 25.4423 21.8972 25.4104 21.9662 25.5495Z" fill="#6D6C80"/>
<path d="M20.6607 22.8089C20.5702 22.7072 20.3779 22.6962 20.3304 22.5196C20.267 22.2842 20.2625 22.0327 20.5035 21.8726C20.6053 21.7818 20.749 21.9638 20.7433 22.0601C20.7105 22.2901 21.0035 22.558 20.6607 22.8089Z" fill="#6D6C80"/>
<path d="M35.6562 17.1906C35.4956 17.2974 35.4209 17.2545 35.3519 17.1153C35.2297 16.8958 35.3847 16.8853 35.5239 16.8159C35.706 16.6718 35.7535 16.8483 35.844 16.9501C35.9877 17.1322 35.6246 17.0729 35.6562 17.1906Z" fill="#6D6C80"/>
</svg>
