<svg width="148" height="101" viewBox="0 0 148 101" fill="none" xmlns="http://www.w3.org/2000/svg">
<path d="M64.0541 3.94576C64.9504 3.94576 65.677 3.21918 65.677 2.32289C65.677 1.4266 64.9504 0.700012 64.0541 0.700012C63.1578 0.700012 62.4312 1.4266 62.4312 2.32289C62.4312 3.21918 63.1578 3.94576 64.0541 3.94576Z" fill="#6D6C80"/>
<path d="M64.0541 17.7788C64.9504 17.7788 65.677 17.0523 65.677 16.156C65.677 15.2597 64.9504 14.5331 64.0541 14.5331C63.1578 14.5331 62.4312 15.2597 62.4312 16.156C62.4312 17.0523 63.1578 17.7788 64.0541 17.7788Z" fill="#6D6C80"/>
<path d="M64.0541 31.6892C64.9504 31.6892 65.677 30.9626 65.677 30.0663C65.677 29.17 64.9504 28.4434 64.0541 28.4434C63.1578 28.4434 62.4312 29.17 62.4312 30.0663C62.4312 30.9626 63.1578 31.6892 64.0541 31.6892Z" fill="#6D6C80"/>
<path d="M64.0541 45.5996C64.9504 45.5996 65.677 44.873 65.677 43.9767C65.677 43.0804 64.9504 42.3538 64.0541 42.3538C63.1578 42.3538 62.4312 43.0804 62.4312 43.9767C62.4312 44.873 63.1578 45.5996 64.0541 45.5996Z" fill="#6D6C80"/>
<path d="M64.0541 59.0462C64.9504 59.0462 65.677 58.3196 65.677 57.4234C65.677 56.5271 64.9504 55.8005 64.0541 55.8005C63.1578 55.8005 62.4312 56.5271 62.4312 57.4234C62.4312 58.3196 63.1578 59.0462 64.0541 59.0462Z" fill="#6D6C80"/>
<path d="M64.0541 72.9566C64.9504 72.9566 65.677 72.23 65.677 71.3337C65.677 70.4374 64.9504 69.7108 64.0541 69.7108C63.1578 69.7108 62.4312 70.4374 62.4312 71.3337C62.4312 72.23 63.1578 72.9566 64.0541 72.9566Z" fill="#6D6C80"/>
<path d="M64.0541 86.7897C64.9504 86.7897 65.677 86.0631 65.677 85.1668C65.677 84.2705 64.9504 83.5439 64.0541 83.5439C63.1578 83.5439 62.4312 84.2705 62.4312 85.1668C62.4312 86.0631 63.1578 86.7897 64.0541 86.7897Z" fill="#6D6C80"/>
<path d="M64.0541 100.7C64.9504 100.7 65.677 99.9734 65.677 99.0771C65.677 98.1809 64.9504 97.4543 64.0541 97.4543C63.1578 97.4543 62.4312 98.1809 62.4312 99.0771C62.4312 99.9734 63.1578 100.7 64.0541 100.7Z" fill="#6D6C80"/>
<path d="M47.8254 3.94576C48.7216 3.94576 49.4482 3.21918 49.4482 2.32289C49.4482 1.4266 48.7216 0.700012 47.8254 0.700012C46.9291 0.700012 46.2025 1.4266 46.2025 2.32289C46.2025 3.21918 46.9291 3.94576 47.8254 3.94576Z" fill="#6D6C80"/>
<path d="M47.8254 17.7788C48.7216 17.7788 49.4482 17.0523 49.4482 16.156C49.4482 15.2597 48.7216 14.5331 47.8254 14.5331C46.9291 14.5331 46.2025 15.2597 46.2025 16.156C46.2025 17.0523 46.9291 17.7788 47.8254 17.7788Z" fill="#6D6C80"/>
<path d="M47.8254 31.6892C48.7216 31.6892 49.4482 30.9626 49.4482 30.0663C49.4482 29.17 48.7216 28.4434 47.8254 28.4434C46.9291 28.4434 46.2025 29.17 46.2025 30.0663C46.2025 30.9626 46.9291 31.6892 47.8254 31.6892Z" fill="#6D6C80"/>
<path d="M47.8254 45.5996C48.7216 45.5996 49.4482 44.873 49.4482 43.9767C49.4482 43.0804 48.7216 42.3538 47.8254 42.3538C46.9291 42.3538 46.2025 43.0804 46.2025 43.9767C46.2025 44.873 46.9291 45.5996 47.8254 45.5996Z" fill="#6D6C80"/>
<path d="M47.8254 59.0462C48.7216 59.0462 49.4482 58.3196 49.4482 57.4234C49.4482 56.5271 48.7216 55.8005 47.8254 55.8005C46.9291 55.8005 46.2025 56.5271 46.2025 57.4234C46.2025 58.3196 46.9291 59.0462 47.8254 59.0462Z" fill="#6D6C80"/>
<path d="M47.8254 72.9566C48.7216 72.9566 49.4482 72.23 49.4482 71.3337C49.4482 70.4374 48.7216 69.7108 47.8254 69.7108C46.9291 69.7108 46.2025 70.4374 46.2025 71.3337C46.2025 72.23 46.9291 72.9566 47.8254 72.9566Z" fill="#6D6C80"/>
<path d="M47.8254 86.7897C48.7216 86.7897 49.4482 86.0631 49.4482 85.1668C49.4482 84.2705 48.7216 83.5439 47.8254 83.5439C46.9291 83.5439 46.2025 84.2705 46.2025 85.1668C46.2025 86.0631 46.9291 86.7897 47.8254 86.7897Z" fill="#6D6C80"/>
<path d="M47.8254 100.7C48.7216 100.7 49.4482 99.9734 49.4482 99.0771C49.4482 98.1809 48.7216 97.4543 47.8254 97.4543C46.9291 97.4543 46.2025 98.1809 46.2025 99.0771C46.2025 99.9734 46.9291 100.7 47.8254 100.7Z" fill="#6D6C80"/>
<path d="M98.0572 3.94576C98.9535 3.94576 99.6801 3.21918 99.6801 2.32289C99.6801 1.4266 98.9535 0.700012 98.0572 0.700012C97.1609 0.700012 96.4343 1.4266 96.4343 2.32289C96.4343 3.21918 97.1609 3.94576 98.0572 3.94576Z" fill="#6D6C80"/>
<path d="M98.0572 17.7788C98.9535 17.7788 99.6801 17.0523 99.6801 16.156C99.6801 15.2597 98.9535 14.5331 98.0572 14.5331C97.1609 14.5331 96.4343 15.2597 96.4343 16.156C96.4343 17.0523 97.1609 17.7788 98.0572 17.7788Z" fill="#6D6C80"/>
<path d="M98.0572 31.6892C98.9535 31.6892 99.6801 30.9626 99.6801 30.0663C99.6801 29.17 98.9535 28.4434 98.0572 28.4434C97.1609 28.4434 96.4343 29.17 96.4343 30.0663C96.4343 30.9626 97.1609 31.6892 98.0572 31.6892Z" fill="#6D6C80"/>
<path d="M98.0572 45.5996C98.9535 45.5996 99.6801 44.873 99.6801 43.9767C99.6801 43.0804 98.9535 42.3538 98.0572 42.3538C97.1609 42.3538 96.4343 43.0804 96.4343 43.9767C96.4343 44.873 97.1609 45.5996 98.0572 45.5996Z" fill="#6D6C80"/>
<path d="M98.0572 59.0462C98.9535 59.0462 99.6801 58.3196 99.6801 57.4234C99.6801 56.5271 98.9535 55.8005 98.0572 55.8005C97.1609 55.8005 96.4343 56.5271 96.4343 57.4234C96.4343 58.3196 97.1609 59.0462 98.0572 59.0462Z" fill="#6D6C80"/>
<path d="M98.0572 72.9566C98.9535 72.9566 99.6801 72.23 99.6801 71.3337C99.6801 70.4374 98.9535 69.7108 98.0572 69.7108C97.1609 69.7108 96.4343 70.4374 96.4343 71.3337C96.4343 72.23 97.1609 72.9566 98.0572 72.9566Z" fill="#6D6C80"/>
<path d="M98.0572 86.7897C98.9535 86.7897 99.6801 86.0631 99.6801 85.1668C99.6801 84.2705 98.9535 83.5439 98.0572 83.5439C97.1609 83.5439 96.4343 84.2705 96.4343 85.1668C96.4343 86.0631 97.1609 86.7897 98.0572 86.7897Z" fill="#6D6C80"/>
<path d="M98.0572 100.7C98.9535 100.7 99.6801 99.9734 99.6801 99.0771C99.6801 98.1809 98.9535 97.4543 98.0572 97.4543C97.1609 97.4543 96.4343 98.1809 96.4343 99.0771C96.4343 99.9734 97.1609 100.7 98.0572 100.7Z" fill="#6D6C80"/>
<path d="M81.8284 3.94576C82.7247 3.94576 83.4513 3.21918 83.4513 2.32289C83.4513 1.4266 82.7247 0.700012 81.8284 0.700012C80.9322 0.700012 80.2056 1.4266 80.2056 2.32289C80.2056 3.21918 80.9322 3.94576 81.8284 3.94576Z" fill="#6D6C80"/>
<path d="M81.8284 17.7788C82.7247 17.7788 83.4513 17.0523 83.4513 16.156C83.4513 15.2597 82.7247 14.5331 81.8284 14.5331C80.9322 14.5331 80.2056 15.2597 80.2056 16.156C80.2056 17.0523 80.9322 17.7788 81.8284 17.7788Z" fill="#6D6C80"/>
<path d="M81.8284 31.6892C82.7247 31.6892 83.4513 30.9626 83.4513 30.0663C83.4513 29.17 82.7247 28.4434 81.8284 28.4434C80.9322 28.4434 80.2056 29.17 80.2056 30.0663C80.2056 30.9626 80.9322 31.6892 81.8284 31.6892Z" fill="#6D6C80"/>
<path d="M81.8284 45.5996C82.7247 45.5996 83.4513 44.873 83.4513 43.9767C83.4513 43.0804 82.7247 42.3538 81.8284 42.3538C80.9322 42.3538 80.2056 43.0804 80.2056 43.9767C80.2056 44.873 80.9322 45.5996 81.8284 45.5996Z" fill="#6D6C80"/>
<path d="M81.8284 59.0462C82.7247 59.0462 83.4513 58.3196 83.4513 57.4234C83.4513 56.5271 82.7247 55.8005 81.8284 55.8005C80.9322 55.8005 80.2056 56.5271 80.2056 57.4234C80.2056 58.3196 80.9322 59.0462 81.8284 59.0462Z" fill="#6D6C80"/>
<path d="M81.8284 72.9566C82.7247 72.9566 83.4513 72.23 83.4513 71.3337C83.4513 70.4374 82.7247 69.7108 81.8284 69.7108C80.9322 69.7108 80.2056 70.4374 80.2056 71.3337C80.2056 72.23 80.9322 72.9566 81.8284 72.9566Z" fill="#6D6C80"/>
<path d="M81.8284 86.7897C82.7247 86.7897 83.4513 86.0631 83.4513 85.1668C83.4513 84.2705 82.7247 83.5439 81.8284 83.5439C80.9322 83.5439 80.2056 84.2705 80.2056 85.1668C80.2056 86.0631 80.9322 86.7897 81.8284 86.7897Z" fill="#6D6C80"/>
<path d="M81.8284 100.7C82.7247 100.7 83.4513 99.9734 83.4513 99.0771C83.4513 98.1809 82.7247 97.4543 81.8284 97.4543C80.9322 97.4543 80.2056 98.1809 80.2056 99.0771C80.2056 99.9734 80.9322 100.7 81.8284 100.7Z" fill="#6D6C80"/>
<path d="M130.515 3.94576C131.411 3.94576 132.138 3.21918 132.138 2.32289C132.138 1.4266 131.411 0.700012 130.515 0.700012C129.618 0.700012 128.892 1.4266 128.892 2.32289C128.892 3.21918 129.618 3.94576 130.515 3.94576Z" fill="#6D6C80"/>
<path d="M130.515 17.7788C131.411 17.7788 132.138 17.0523 132.138 16.156C132.138 15.2597 131.411 14.5331 130.515 14.5331C129.618 14.5331 128.892 15.2597 128.892 16.156C128.892 17.0523 129.618 17.7788 130.515 17.7788Z" fill="#6D6C80"/>
<path d="M130.515 31.6892C131.411 31.6892 132.138 30.9626 132.138 30.0663C132.138 29.17 131.411 28.4434 130.515 28.4434C129.618 28.4434 128.892 29.17 128.892 30.0663C128.892 30.9626 129.618 31.6892 130.515 31.6892Z" fill="#6D6C80"/>
<path d="M130.515 45.5996C131.411 45.5996 132.138 44.873 132.138 43.9767C132.138 43.0804 131.411 42.3538 130.515 42.3538C129.618 42.3538 128.892 43.0804 128.892 43.9767C128.892 44.873 129.618 45.5996 130.515 45.5996Z" fill="#6D6C80"/>
<path d="M130.515 59.0462C131.411 59.0462 132.138 58.3196 132.138 57.4234C132.138 56.5271 131.411 55.8005 130.515 55.8005C129.618 55.8005 128.892 56.5271 128.892 57.4234C128.892 58.3196 129.618 59.0462 130.515 59.0462Z" fill="#6D6C80"/>
<path d="M130.515 72.9566C131.411 72.9566 132.138 72.23 132.138 71.3337C132.138 70.4374 131.411 69.7108 130.515 69.7108C129.618 69.7108 128.892 70.4374 128.892 71.3337C128.892 72.23 129.618 72.9566 130.515 72.9566Z" fill="#6D6C80"/>
<path d="M130.515 86.7897C131.411 86.7897 132.138 86.0631 132.138 85.1668C132.138 84.2705 131.411 83.5439 130.515 83.5439C129.618 83.5439 128.892 84.2705 128.892 85.1668C128.892 86.0631 129.618 86.7897 130.515 86.7897Z" fill="#6D6C80"/>
<path d="M130.515 100.7C131.411 100.7 132.138 99.9734 132.138 99.0771C132.138 98.1809 131.411 97.4543 130.515 97.4543C129.618 97.4543 128.892 98.1809 128.892 99.0771C128.892 99.9734 129.618 100.7 130.515 100.7Z" fill="#6D6C80"/>
<path d="M114.286 3.94576C115.182 3.94576 115.909 3.21918 115.909 2.32289C115.909 1.4266 115.182 0.700012 114.286 0.700012C113.39 0.700012 112.663 1.4266 112.663 2.32289C112.663 3.21918 113.39 3.94576 114.286 3.94576Z" fill="#6D6C80"/>
<path d="M114.286 17.7788C115.182 17.7788 115.909 17.0523 115.909 16.156C115.909 15.2597 115.182 14.5331 114.286 14.5331C113.39 14.5331 112.663 15.2597 112.663 16.156C112.663 17.0523 113.39 17.7788 114.286 17.7788Z" fill="#6D6C80"/>
<path d="M114.286 31.6892C115.182 31.6892 115.909 30.9626 115.909 30.0663C115.909 29.17 115.182 28.4434 114.286 28.4434C113.39 28.4434 112.663 29.17 112.663 30.0663C112.663 30.9626 113.39 31.6892 114.286 31.6892Z" fill="#6D6C80"/>
<path d="M114.286 45.5996C115.182 45.5996 115.909 44.873 115.909 43.9767C115.909 43.0804 115.182 42.3538 114.286 42.3538C113.39 42.3538 112.663 43.0804 112.663 43.9767C112.663 44.873 113.39 45.5996 114.286 45.5996Z" fill="#6D6C80"/>
<path d="M114.286 59.0462C115.182 59.0462 115.909 58.3196 115.909 57.4234C115.909 56.5271 115.182 55.8005 114.286 55.8005C113.39 55.8005 112.663 56.5271 112.663 57.4234C112.663 58.3196 113.39 59.0462 114.286 59.0462Z" fill="#6D6C80"/>
<path d="M114.286 72.9566C115.182 72.9566 115.909 72.23 115.909 71.3337C115.909 70.4374 115.182 69.7108 114.286 69.7108C113.39 69.7108 112.663 70.4374 112.663 71.3337C112.663 72.23 113.39 72.9566 114.286 72.9566Z" fill="#6D6C80"/>
<path d="M114.286 86.7897C115.182 86.7897 115.909 86.0631 115.909 85.1668C115.909 84.2705 115.182 83.5439 114.286 83.5439C113.39 83.5439 112.663 84.2705 112.663 85.1668C112.663 86.0631 113.39 86.7897 114.286 86.7897Z" fill="#6D6C80"/>
<path d="M114.286 100.7C115.182 100.7 115.909 99.9734 115.909 99.0771C115.909 98.1809 115.182 97.4543 114.286 97.4543C113.39 97.4543 112.663 98.1809 112.663 99.0771C112.663 99.9734 113.39 100.7 114.286 100.7Z" fill="#6D6C80"/>
<path d="M145.971 3.94576C146.867 3.94576 147.594 3.21918 147.594 2.32289C147.594 1.4266 146.867 0.700012 145.971 0.700012C145.074 0.700012 144.348 1.4266 144.348 2.32289C144.348 3.21918 145.074 3.94576 145.971 3.94576Z" fill="#6D6C80"/>
<path d="M145.971 17.7788C146.867 17.7788 147.594 17.0523 147.594 16.156C147.594 15.2597 146.867 14.5331 145.971 14.5331C145.074 14.5331 144.348 15.2597 144.348 16.156C144.348 17.0523 145.074 17.7788 145.971 17.7788Z" fill="#6D6C80"/>
<path d="M145.971 31.6892C146.867 31.6892 147.594 30.9626 147.594 30.0663C147.594 29.17 146.867 28.4434 145.971 28.4434C145.074 28.4434 144.348 29.17 144.348 30.0663C144.348 30.9626 145.074 31.6892 145.971 31.6892Z" fill="#6D6C80"/>
<path d="M145.971 45.5996C146.867 45.5996 147.594 44.873 147.594 43.9767C147.594 43.0804 146.867 42.3538 145.971 42.3538C145.074 42.3538 144.348 43.0804 144.348 43.9767C144.348 44.873 145.074 45.5996 145.971 45.5996Z" fill="#6D6C80"/>
<path d="M145.971 59.0462C146.867 59.0462 147.594 58.3196 147.594 57.4234C147.594 56.5271 146.867 55.8005 145.971 55.8005C145.074 55.8005 144.348 56.5271 144.348 57.4234C144.348 58.3196 145.074 59.0462 145.971 59.0462Z" fill="#6D6C80"/>
<path d="M145.971 72.9566C146.867 72.9566 147.594 72.23 147.594 71.3337C147.594 70.4374 146.867 69.7108 145.971 69.7108C145.074 69.7108 144.348 70.4374 144.348 71.3337C144.348 72.23 145.074 72.9566 145.971 72.9566Z" fill="#6D6C80"/>
<path d="M145.971 86.7897C146.867 86.7897 147.594 86.0631 147.594 85.1668C147.594 84.2705 146.867 83.5439 145.971 83.5439C145.074 83.5439 144.348 84.2705 144.348 85.1668C144.348 86.0631 145.074 86.7897 145.971 86.7897Z" fill="#6D6C80"/>
<path d="M145.971 100.7C146.867 100.7 147.594 99.9734 147.594 99.0771C147.594 98.1809 146.867 97.4543 145.971 97.4543C145.074 97.4543 144.348 98.1809 144.348 99.0771C144.348 99.9734 145.074 100.7 145.971 100.7Z" fill="#6D6C80"/>
<path d="M18.459 3.94576C19.3553 3.94576 20.0819 3.21918 20.0819 2.32289C20.0819 1.4266 19.3553 0.700012 18.459 0.700012C17.5628 0.700012 16.8362 1.4266 16.8362 2.32289C16.8362 3.21918 17.5628 3.94576 18.459 3.94576Z" fill="#6D6C80"/>
<path d="M18.459 17.7788C19.3553 17.7788 20.0819 17.0523 20.0819 16.156C20.0819 15.2597 19.3553 14.5331 18.459 14.5331C17.5628 14.5331 16.8362 15.2597 16.8362 16.156C16.8362 17.0523 17.5628 17.7788 18.459 17.7788Z" fill="#6D6C80"/>
<path d="M18.459 31.6892C19.3553 31.6892 20.0819 30.9626 20.0819 30.0663C20.0819 29.17 19.3553 28.4434 18.459 28.4434C17.5628 28.4434 16.8362 29.17 16.8362 30.0663C16.8362 30.9626 17.5628 31.6892 18.459 31.6892Z" fill="#6D6C80"/>
<path d="M18.459 45.5996C19.3553 45.5996 20.0819 44.873 20.0819 43.9767C20.0819 43.0804 19.3553 42.3538 18.459 42.3538C17.5628 42.3538 16.8362 43.0804 16.8362 43.9767C16.8362 44.873 17.5628 45.5996 18.459 45.5996Z" fill="#6D6C80"/>
<path d="M18.459 59.0462C19.3553 59.0462 20.0819 58.3196 20.0819 57.4234C20.0819 56.5271 19.3553 55.8005 18.459 55.8005C17.5628 55.8005 16.8362 56.5271 16.8362 57.4234C16.8362 58.3196 17.5628 59.0462 18.459 59.0462Z" fill="#6D6C80"/>
<path d="M18.459 72.9566C19.3553 72.9566 20.0819 72.23 20.0819 71.3337C20.0819 70.4374 19.3553 69.7108 18.459 69.7108C17.5628 69.7108 16.8362 70.4374 16.8362 71.3337C16.8362 72.23 17.5628 72.9566 18.459 72.9566Z" fill="#6D6C80"/>
<path d="M18.459 86.7897C19.3553 86.7897 20.0819 86.0631 20.0819 85.1668C20.0819 84.2705 19.3553 83.5439 18.459 83.5439C17.5628 83.5439 16.8362 84.2705 16.8362 85.1668C16.8362 86.0631 17.5628 86.7897 18.459 86.7897Z" fill="#6D6C80"/>
<path d="M18.459 100.7C19.3553 100.7 20.0819 99.9734 20.0819 99.0771C20.0819 98.1809 19.3553 97.4543 18.459 97.4543C17.5628 97.4543 16.8362 98.1809 16.8362 99.0771C16.8362 99.9734 17.5628 100.7 18.459 100.7Z" fill="#6D6C80"/>
<path d="M2.2303 3.94576C3.12658 3.94576 3.85317 3.21918 3.85317 2.32289C3.85317 1.4266 3.12658 0.700012 2.2303 0.700012C1.33401 0.700012 0.607422 1.4266 0.607422 2.32289C0.607422 3.21918 1.33401 3.94576 2.2303 3.94576Z" fill="#6D6C80"/>
<path d="M2.2303 17.7788C3.12658 17.7788 3.85317 17.0523 3.85317 16.156C3.85317 15.2597 3.12658 14.5331 2.2303 14.5331C1.33401 14.5331 0.607422 15.2597 0.607422 16.156C0.607422 17.0523 1.33401 17.7788 2.2303 17.7788Z" fill="#6D6C80"/>
<path d="M2.2303 31.6892C3.12658 31.6892 3.85317 30.9626 3.85317 30.0663C3.85317 29.17 3.12658 28.4434 2.2303 28.4434C1.33401 28.4434 0.607422 29.17 0.607422 30.0663C0.607422 30.9626 1.33401 31.6892 2.2303 31.6892Z" fill="#6D6C80"/>
<path d="M2.2303 45.5996C3.12658 45.5996 3.85317 44.873 3.85317 43.9767C3.85317 43.0804 3.12658 42.3538 2.2303 42.3538C1.33401 42.3538 0.607422 43.0804 0.607422 43.9767C0.607422 44.873 1.33401 45.5996 2.2303 45.5996Z" fill="#6D6C80"/>
<path d="M2.2303 59.0462C3.12658 59.0462 3.85317 58.3196 3.85317 57.4234C3.85317 56.5271 3.12658 55.8005 2.2303 55.8005C1.33401 55.8005 0.607422 56.5271 0.607422 57.4234C0.607422 58.3196 1.33401 59.0462 2.2303 59.0462Z" fill="#6D6C80"/>
<path d="M2.2303 72.9566C3.12658 72.9566 3.85317 72.23 3.85317 71.3337C3.85317 70.4374 3.12658 69.7108 2.2303 69.7108C1.33401 69.7108 0.607422 70.4374 0.607422 71.3337C0.607422 72.23 1.33401 72.9566 2.2303 72.9566Z" fill="#6D6C80"/>
<path d="M2.2303 86.7897C3.12658 86.7897 3.85317 86.0631 3.85317 85.1668C3.85317 84.2705 3.12658 83.5439 2.2303 83.5439C1.33401 83.5439 0.607422 84.2705 0.607422 85.1668C0.607422 86.0631 1.33401 86.7897 2.2303 86.7897Z" fill="#6D6C80"/>
<path d="M2.2303 100.7C3.12658 100.7 3.85317 99.9734 3.85317 99.0771C3.85317 98.1809 3.12658 97.4543 2.2303 97.4543C1.33401 97.4543 0.607422 98.1809 0.607422 99.0771C0.607422 99.9734 1.33401 100.7 2.2303 100.7Z" fill="#6D6C80"/>
<path d="M33.915 3.94576C34.8113 3.94576 35.5379 3.21918 35.5379 2.32289C35.5379 1.4266 34.8113 0.700012 33.915 0.700012C33.0187 0.700012 32.2921 1.4266 32.2921 2.32289C32.2921 3.21918 33.0187 3.94576 33.915 3.94576Z" fill="#6D6C80"/>
<path d="M33.915 17.7788C34.8113 17.7788 35.5379 17.0523 35.5379 16.156C35.5379 15.2597 34.8113 14.5331 33.915 14.5331C33.0187 14.5331 32.2921 15.2597 32.2921 16.156C32.2921 17.0523 33.0187 17.7788 33.915 17.7788Z" fill="#6D6C80"/>
<path d="M33.915 31.6892C34.8113 31.6892 35.5379 30.9626 35.5379 30.0663C35.5379 29.17 34.8113 28.4434 33.915 28.4434C33.0187 28.4434 32.2921 29.17 32.2921 30.0663C32.2921 30.9626 33.0187 31.6892 33.915 31.6892Z" fill="#6D6C80"/>
<path d="M33.915 45.5996C34.8113 45.5996 35.5379 44.873 35.5379 43.9767C35.5379 43.0804 34.8113 42.3538 33.915 42.3538C33.0187 42.3538 32.2921 43.0804 32.2921 43.9767C32.2921 44.873 33.0187 45.5996 33.915 45.5996Z" fill="#6D6C80"/>
<path d="M33.915 59.0462C34.8113 59.0462 35.5379 58.3196 35.5379 57.4234C35.5379 56.5271 34.8113 55.8005 33.915 55.8005C33.0187 55.8005 32.2921 56.5271 32.2921 57.4234C32.2921 58.3196 33.0187 59.0462 33.915 59.0462Z" fill="#6D6C80"/>
<path d="M33.915 72.9566C34.8113 72.9566 35.5379 72.23 35.5379 71.3337C35.5379 70.4374 34.8113 69.7108 33.915 69.7108C33.0187 69.7108 32.2921 70.4374 32.2921 71.3337C32.2921 72.23 33.0187 72.9566 33.915 72.9566Z" fill="#6D6C80"/>
<path d="M33.915 86.7897C34.8113 86.7897 35.5379 86.0631 35.5379 85.1668C35.5379 84.2705 34.8113 83.5439 33.915 83.5439C33.0187 83.5439 32.2921 84.2705 32.2921 85.1668C32.2921 86.0631 33.0187 86.7897 33.915 86.7897Z" fill="#6D6C80"/>
<path d="M33.915 100.7C34.8113 100.7 35.5379 99.9734 35.5379 99.0771C35.5379 98.1809 34.8113 97.4543 33.915 97.4543C33.0187 97.4543 32.2921 98.1809 32.2921 99.0771C32.2921 99.9734 33.0187 100.7 33.915 100.7Z" fill="#6D6C80"/>
</svg>
