<svg width="112" height="163" viewBox="0 0 112 163" fill="none" xmlns="http://www.w3.org/2000/svg">
<path d="M1.9 3.65541C2.94934 3.65541 3.8 2.83712 3.8 1.82771C3.8 0.818292 2.94934 0 1.9 0C0.850659 0 0 0.818292 0 1.82771C0 2.83712 0.850659 3.65541 1.9 3.65541Z" fill="#B4BAC7"/>
<path d="M20.1 3.65541C21.1493 3.65541 22 2.83712 22 1.82771C22 0.818292 21.1493 0 20.1 0C19.0507 0 18.2 0.818292 18.2 1.82771C18.2 2.83712 19.0507 3.65541 20.1 3.65541Z" fill="#B4BAC7"/>
<path d="M38.2 3.65541C39.2493 3.65541 40.1 2.83712 40.1 1.82771C40.1 0.818292 39.2493 0 38.2 0C37.1507 0 36.3 0.818292 36.3 1.82771C36.3 2.83712 37.1507 3.65541 38.2 3.65541Z" fill="#B4BAC7"/>
<path d="M56.3 3.65541C57.3493 3.65541 58.2 2.83712 58.2 1.82771C58.2 0.818292 57.3493 0 56.3 0C55.2507 0 54.4 0.818292 54.4 1.82771C54.4 2.83712 55.2507 3.65541 56.3 3.65541Z" fill="#B4BAC7"/>
<path d="M74.5 3.65541C75.5493 3.65541 76.4 2.83712 76.4 1.82771C76.4 0.818292 75.5493 0 74.5 0C73.4507 0 72.6 0.818292 72.6 1.82771C72.6 2.83712 73.4507 3.65541 74.5 3.65541Z" fill="#B4BAC7"/>
<path d="M92.6 3.65541C93.6493 3.65541 94.5 2.83712 94.5 1.82771C94.5 0.818292 93.6493 0 92.6 0C91.5507 0 90.7 0.818292 90.7 1.82771C90.7 2.83712 91.5507 3.65541 92.6 3.65541Z" fill="#B4BAC7"/>
<path d="M109.4 3.65541C110.449 3.65541 111.3 2.83712 111.3 1.82771C111.3 0.818292 110.449 0 109.4 0C108.351 0 107.5 0.818292 107.5 1.82771C107.5 2.83712 108.351 3.65541 109.4 3.65541Z" fill="#B4BAC7"/>
<path d="M1.9 18.8542C2.94934 18.8542 3.8 18.0359 3.8 17.0265C3.8 16.0171 2.94934 15.1988 1.9 15.1988C0.850659 15.1988 0 16.0171 0 17.0265C0 18.0359 0.850659 18.8542 1.9 18.8542Z" fill="#B4BAC7"/>
<path d="M20.1 18.8542C21.1493 18.8542 22 18.0359 22 17.0265C22 16.0171 21.1493 15.1988 20.1 15.1988C19.0507 15.1988 18.2 16.0171 18.2 17.0265C18.2 18.0359 19.0507 18.8542 20.1 18.8542Z" fill="#B4BAC7"/>
<path d="M38.2 18.8542C39.2493 18.8542 40.1 18.0359 40.1 17.0265C40.1 16.0171 39.2493 15.1988 38.2 15.1988C37.1507 15.1988 36.3 16.0171 36.3 17.0265C36.3 18.0359 37.1507 18.8542 38.2 18.8542Z" fill="#B4BAC7"/>
<path d="M56.3 18.8542C57.3493 18.8542 58.2 18.0359 58.2 17.0265C58.2 16.0171 57.3493 15.1988 56.3 15.1988C55.2507 15.1988 54.4 16.0171 54.4 17.0265C54.4 18.0359 55.2507 18.8542 56.3 18.8542Z" fill="#B4BAC7"/>
<path d="M74.5 18.8542C75.5493 18.8542 76.4 18.0359 76.4 17.0265C76.4 16.0171 75.5493 15.1988 74.5 15.1988C73.4507 15.1988 72.6 16.0171 72.6 17.0265C72.6 18.0359 73.4507 18.8542 74.5 18.8542Z" fill="#B4BAC7"/>
<path d="M92.6 18.8542C93.6493 18.8542 94.5 18.0359 94.5 17.0265C94.5 16.0171 93.6493 15.1988 92.6 15.1988C91.5507 15.1988 90.7 16.0171 90.7 17.0265C90.7 18.0359 91.5507 18.8542 92.6 18.8542Z" fill="#B4BAC7"/>
<path d="M1.9 34.8226C2.94934 34.8226 3.8 34.0043 3.8 32.9949C3.8 31.9855 2.94934 31.1672 1.9 31.1672C0.850659 31.1672 0 31.9855 0 32.9949C0 34.0043 0.850659 34.8226 1.9 34.8226Z" fill="#B4BAC7"/>
<path d="M20.1 34.8226C21.1493 34.8226 22 34.0043 22 32.9949C22 31.9855 21.1493 31.1672 20.1 31.1672C19.0507 31.1672 18.2 31.9855 18.2 32.9949C18.2 34.0043 19.0507 34.8226 20.1 34.8226Z" fill="#B4BAC7"/>
<path d="M38.2 34.8226C39.2493 34.8226 40.1 34.0043 40.1 32.9949C40.1 31.9855 39.2493 31.1672 38.2 31.1672C37.1507 31.1672 36.3 31.9855 36.3 32.9949C36.3 34.0043 37.1507 34.8226 38.2 34.8226Z" fill="#B4BAC7"/>
<path d="M56.3 34.8226C57.3493 34.8226 58.2 34.0043 58.2 32.9949C58.2 31.9855 57.3493 31.1672 56.3 31.1672C55.2507 31.1672 54.4 31.9855 54.4 32.9949C54.4 34.0043 55.2507 34.8226 56.3 34.8226Z" fill="#B4BAC7"/>
<path d="M74.5 34.8226C75.5493 34.8226 76.4 34.0043 76.4 32.9949C76.4 31.9855 75.5493 31.1672 74.5 31.1672C73.4507 31.1672 72.6 31.9855 72.6 32.9949C72.6 34.0043 73.4507 34.8226 74.5 34.8226Z" fill="#B4BAC7"/>
<path d="M92.6 34.8226C93.6493 34.8226 94.5 34.0043 94.5 32.9949C94.5 31.9855 93.6493 31.1672 92.6 31.1672C91.5507 31.1672 90.7 31.9855 90.7 32.9949C90.7 34.0043 91.5507 34.8226 92.6 34.8226Z" fill="#B4BAC7"/>
<path d="M1.9 50.6948C2.94934 50.6948 3.8 49.8765 3.8 48.8671C3.8 47.8576 2.94934 47.0394 1.9 47.0394C0.850659 47.0394 0 47.8576 0 48.8671C0 49.8765 0.850659 50.6948 1.9 50.6948Z" fill="#B4BAC7"/>
<path d="M20.1 50.6948C21.1493 50.6948 22 49.8765 22 48.8671C22 47.8576 21.1493 47.0394 20.1 47.0394C19.0507 47.0394 18.2 47.8576 18.2 48.8671C18.2 49.8765 19.0507 50.6948 20.1 50.6948Z" fill="#B4BAC7"/>
<path d="M38.2 50.6948C39.2493 50.6948 40.1 49.8765 40.1 48.8671C40.1 47.8576 39.2493 47.0394 38.2 47.0394C37.1507 47.0394 36.3 47.8576 36.3 48.8671C36.3 49.8765 37.1507 50.6948 38.2 50.6948Z" fill="#B4BAC7"/>
<path d="M56.3 50.6948C57.3493 50.6948 58.2 49.8765 58.2 48.8671C58.2 47.8576 57.3493 47.0394 56.3 47.0394C55.2507 47.0394 54.4 47.8576 54.4 48.8671C54.4 49.8765 55.2507 50.6948 56.3 50.6948Z" fill="#B4BAC7"/>
<path d="M74.5 50.6948C75.5493 50.6948 76.4 49.8765 76.4 48.8671C76.4 47.8576 75.5493 47.0394 74.5 47.0394C73.4507 47.0394 72.6 47.8576 72.6 48.8671C72.6 49.8765 73.4507 50.6948 74.5 50.6948Z" fill="#B4BAC7"/>
<path d="M92.6 50.6948C93.6493 50.6948 94.5 49.8765 94.5 48.8671C94.5 47.8576 93.6493 47.0394 92.6 47.0394C91.5507 47.0394 90.7 47.8576 90.7 48.8671C90.7 49.8765 91.5507 50.6948 92.6 50.6948Z" fill="#B4BAC7"/>
<path d="M1.9 66.5669C2.94934 66.5669 3.8 65.7486 3.8 64.7392C3.8 63.7298 2.94934 62.9115 1.9 62.9115C0.850659 62.9115 0 63.7298 0 64.7392C0 65.7486 0.850659 66.5669 1.9 66.5669Z" fill="#B4BAC7"/>
<path d="M20.1 66.5669C21.1493 66.5669 22 65.7486 22 64.7392C22 63.7298 21.1493 62.9115 20.1 62.9115C19.0507 62.9115 18.2 63.7298 18.2 64.7392C18.2 65.7486 19.0507 66.5669 20.1 66.5669Z" fill="#B4BAC7"/>
<path d="M38.2 66.5669C39.2493 66.5669 40.1 65.7486 40.1 64.7392C40.1 63.7298 39.2493 62.9115 38.2 62.9115C37.1507 62.9115 36.3 63.7298 36.3 64.7392C36.3 65.7486 37.1507 66.5669 38.2 66.5669Z" fill="#B4BAC7"/>
<path d="M56.3 66.5669C57.3493 66.5669 58.2 65.7486 58.2 64.7392C58.2 63.7298 57.3493 62.9115 56.3 62.9115C55.2507 62.9115 54.4 63.7298 54.4 64.7392C54.4 65.7486 55.2507 66.5669 56.3 66.5669Z" fill="#B4BAC7"/>
<path d="M74.5 66.5669C75.5493 66.5669 76.4 65.7486 76.4 64.7392C76.4 63.7298 75.5493 62.9115 74.5 62.9115C73.4507 62.9115 72.6 63.7298 72.6 64.7392C72.6 65.7486 73.4507 66.5669 74.5 66.5669Z" fill="#B4BAC7"/>
<path d="M92.6 66.5669C93.6493 66.5669 94.5 65.7486 94.5 64.7392C94.5 63.7298 93.6493 62.9115 92.6 62.9115C91.5507 62.9115 90.7 63.7298 90.7 64.7392C90.7 65.7486 91.5507 66.5669 92.6 66.5669Z" fill="#B4BAC7"/>
<path d="M1.9 82.5353C2.94934 82.5353 3.8 81.717 3.8 80.7076C3.8 79.6982 2.94934 78.8799 1.9 78.8799C0.850659 78.8799 0 79.6982 0 80.7076C0 81.717 0.850659 82.5353 1.9 82.5353Z" fill="#B4BAC7"/>
<path d="M20.1 82.5353C21.1493 82.5353 22 81.717 22 80.7076C22 79.6982 21.1493 78.8799 20.1 78.8799C19.0507 78.8799 18.2 79.6982 18.2 80.7076C18.2 81.717 19.0507 82.5353 20.1 82.5353Z" fill="#B4BAC7"/>
<path d="M38.2 82.5353C39.2493 82.5353 40.1 81.717 40.1 80.7076C40.1 79.6982 39.2493 78.8799 38.2 78.8799C37.1507 78.8799 36.3 79.6982 36.3 80.7076C36.3 81.717 37.1507 82.5353 38.2 82.5353Z" fill="#B4BAC7"/>
<path d="M56.3 82.5353C57.3493 82.5353 58.2 81.717 58.2 80.7076C58.2 79.6982 57.3493 78.8799 56.3 78.8799C55.2507 78.8799 54.4 79.6982 54.4 80.7076C54.4 81.717 55.2507 82.5353 56.3 82.5353Z" fill="#B4BAC7"/>
<path d="M74.5 82.5353C75.5493 82.5353 76.4 81.717 76.4 80.7076C76.4 79.6982 75.5493 78.8799 74.5 78.8799C73.4507 78.8799 72.6 79.6982 72.6 80.7076C72.6 81.717 73.4507 82.5353 74.5 82.5353Z" fill="#B4BAC7"/>
<path d="M92.6 82.5353C93.6493 82.5353 94.5 81.717 94.5 80.7076C94.5 79.6982 93.6493 78.8799 92.6 78.8799C91.5507 78.8799 90.7 79.6982 90.7 80.7076C90.7 81.717 91.5507 82.5353 92.6 82.5353Z" fill="#B4BAC7"/>
<path d="M1.9 98.4075C2.94934 98.4075 3.8 97.5892 3.8 96.5798C3.8 95.5704 2.94934 94.7521 1.9 94.7521C0.850659 94.7521 0 95.5704 0 96.5798C0 97.5892 0.850659 98.4075 1.9 98.4075Z" fill="#B4BAC7"/>
<path d="M20.1 98.4075C21.1493 98.4075 22 97.5892 22 96.5798C22 95.5704 21.1493 94.7521 20.1 94.7521C19.0507 94.7521 18.2 95.5704 18.2 96.5798C18.2 97.5892 19.0507 98.4075 20.1 98.4075Z" fill="#B4BAC7"/>
<path d="M38.2 98.4075C39.2493 98.4075 40.1 97.5892 40.1 96.5798C40.1 95.5704 39.2493 94.7521 38.2 94.7521C37.1507 94.7521 36.3 95.5704 36.3 96.5798C36.3 97.5892 37.1507 98.4075 38.2 98.4075Z" fill="#B4BAC7"/>
<path d="M56.3 98.4075C57.3493 98.4075 58.2 97.5892 58.2 96.5798C58.2 95.5704 57.3493 94.7521 56.3 94.7521C55.2507 94.7521 54.4 95.5704 54.4 96.5798C54.4 97.5892 55.2507 98.4075 56.3 98.4075Z" fill="#B4BAC7"/>
<path d="M74.5 98.4075C75.5493 98.4075 76.4 97.5892 76.4 96.5798C76.4 95.5704 75.5493 94.7521 74.5 94.7521C73.4507 94.7521 72.6 95.5704 72.6 96.5798C72.6 97.5892 73.4507 98.4075 74.5 98.4075Z" fill="#B4BAC7"/>
<path d="M92.6 98.4075C93.6493 98.4075 94.5 97.5892 94.5 96.5798C94.5 95.5704 93.6493 94.7521 92.6 94.7521C91.5507 94.7521 90.7 95.5704 90.7 96.5798C90.7 97.5892 91.5507 98.4075 92.6 98.4075Z" fill="#B4BAC7"/>
<path d="M109.4 18.8542C110.449 18.8542 111.3 18.0359 111.3 17.0265C111.3 16.0171 110.449 15.1988 109.4 15.1988C108.351 15.1988 107.5 16.0171 107.5 17.0265C107.5 18.0359 108.351 18.8542 109.4 18.8542Z" fill="#B4BAC7"/>
<path d="M109.4 34.8226C110.449 34.8226 111.3 34.0043 111.3 32.9949C111.3 31.9855 110.449 31.1672 109.4 31.1672C108.351 31.1672 107.5 31.9855 107.5 32.9949C107.5 34.0043 108.351 34.8226 109.4 34.8226Z" fill="#B4BAC7"/>
<path d="M109.4 50.6948C110.449 50.6948 111.3 49.8765 111.3 48.8671C111.3 47.8576 110.449 47.0394 109.4 47.0394C108.351 47.0394 107.5 47.8576 107.5 48.8671C107.5 49.8765 108.351 50.6948 109.4 50.6948Z" fill="#B4BAC7"/>
<path d="M109.4 66.5669C110.449 66.5669 111.3 65.7486 111.3 64.7392C111.3 63.7298 110.449 62.9115 109.4 62.9115C108.351 62.9115 107.5 63.7298 107.5 64.7392C107.5 65.7486 108.351 66.5669 109.4 66.5669Z" fill="#B4BAC7"/>
<path d="M109.4 82.5353C110.449 82.5353 111.3 81.717 111.3 80.7076C111.3 79.6982 110.449 78.8799 109.4 78.8799C108.351 78.8799 107.5 79.6982 107.5 80.7076C107.5 81.717 108.351 82.5353 109.4 82.5353Z" fill="#B4BAC7"/>
<path d="M109.4 98.4075C110.449 98.4075 111.3 97.5892 111.3 96.5798C111.3 95.5704 110.449 94.7521 109.4 94.7521C108.351 94.7521 107.5 95.5704 107.5 96.5798C107.5 97.5892 108.351 98.4075 109.4 98.4075Z" fill="#B4BAC7"/>
<path d="M1.9 114.695C2.94934 114.695 3.8 113.876 3.8 112.867C3.8 111.858 2.94934 111.039 1.9 111.039C0.850659 111.039 0 111.858 0 112.867C0 113.876 0.850659 114.695 1.9 114.695Z" fill="#B4BAC7"/>
<path d="M20.1 114.695C21.1493 114.695 22 113.876 22 112.867C22 111.858 21.1493 111.039 20.1 111.039C19.0507 111.039 18.2 111.858 18.2 112.867C18.2 113.876 19.0507 114.695 20.1 114.695Z" fill="#B4BAC7"/>
<path d="M38.2 114.695C39.2493 114.695 40.1 113.876 40.1 112.867C40.1 111.858 39.2493 111.039 38.2 111.039C37.1507 111.039 36.3 111.858 36.3 112.867C36.3 113.876 37.1507 114.695 38.2 114.695Z" fill="#B4BAC7"/>
<path d="M56.3 114.695C57.3493 114.695 58.2 113.876 58.2 112.867C58.2 111.858 57.3493 111.039 56.3 111.039C55.2507 111.039 54.4 111.858 54.4 112.867C54.4 113.876 55.2507 114.695 56.3 114.695Z" fill="#B4BAC7"/>
<path d="M74.5 114.695C75.5493 114.695 76.4 113.876 76.4 112.867C76.4 111.858 75.5493 111.039 74.5 111.039C73.4507 111.039 72.6 111.858 72.6 112.867C72.6 113.876 73.4507 114.695 74.5 114.695Z" fill="#B4BAC7"/>
<path d="M92.6 114.695C93.6493 114.695 94.5 113.876 94.5 112.867C94.5 111.858 93.6493 111.039 92.6 111.039C91.5507 111.039 90.7 111.858 90.7 112.867C90.7 113.876 91.5507 114.695 92.6 114.695Z" fill="#B4BAC7"/>
<path d="M1.9 130.567C2.94934 130.567 3.8 129.749 3.8 128.739C3.8 127.73 2.94934 126.911 1.9 126.911C0.850659 126.911 0 127.73 0 128.739C0 129.749 0.850659 130.567 1.9 130.567Z" fill="#B4BAC7"/>
<path d="M20.1 130.567C21.1493 130.567 22 129.749 22 128.739C22 127.73 21.1493 126.911 20.1 126.911C19.0507 126.911 18.2 127.73 18.2 128.739C18.2 129.749 19.0507 130.567 20.1 130.567Z" fill="#B4BAC7"/>
<path d="M38.2 130.567C39.2493 130.567 40.1 129.749 40.1 128.739C40.1 127.73 39.2493 126.911 38.2 126.911C37.1507 126.911 36.3 127.73 36.3 128.739C36.3 129.749 37.1507 130.567 38.2 130.567Z" fill="#B4BAC7"/>
<path d="M56.3 130.567C57.3493 130.567 58.2 129.749 58.2 128.739C58.2 127.73 57.3493 126.911 56.3 126.911C55.2507 126.911 54.4 127.73 54.4 128.739C54.4 129.749 55.2507 130.567 56.3 130.567Z" fill="#B4BAC7"/>
<path d="M74.5 130.567C75.5493 130.567 76.4 129.749 76.4 128.739C76.4 127.73 75.5493 126.911 74.5 126.911C73.4507 126.911 72.6 127.73 72.6 128.739C72.6 129.749 73.4507 130.567 74.5 130.567Z" fill="#B4BAC7"/>
<path d="M92.6 130.567C93.6493 130.567 94.5 129.749 94.5 128.739C94.5 127.73 93.6493 126.911 92.6 126.911C91.5507 126.911 90.7 127.73 90.7 128.739C90.7 129.749 91.5507 130.567 92.6 130.567Z" fill="#B4BAC7"/>
<path d="M1.9 146.535C2.94934 146.535 3.8 145.717 3.8 144.708C3.8 143.698 2.94934 142.88 1.9 142.88C0.850659 142.88 0 143.698 0 144.708C0 145.717 0.850659 146.535 1.9 146.535Z" fill="#B4BAC7"/>
<path d="M20.1 146.535C21.1493 146.535 22 145.717 22 144.708C22 143.698 21.1493 142.88 20.1 142.88C19.0507 142.88 18.2 143.698 18.2 144.708C18.2 145.717 19.0507 146.535 20.1 146.535Z" fill="#B4BAC7"/>
<path d="M38.2 146.535C39.2493 146.535 40.1 145.717 40.1 144.708C40.1 143.698 39.2493 142.88 38.2 142.88C37.1507 142.88 36.3 143.698 36.3 144.708C36.3 145.717 37.1507 146.535 38.2 146.535Z" fill="#B4BAC7"/>
<path d="M56.3 146.535C57.3493 146.535 58.2 145.717 58.2 144.708C58.2 143.698 57.3493 142.88 56.3 142.88C55.2507 142.88 54.4 143.698 54.4 144.708C54.4 145.717 55.2507 146.535 56.3 146.535Z" fill="#B4BAC7"/>
<path d="M74.5 146.535C75.5493 146.535 76.4 145.717 76.4 144.708C76.4 143.698 75.5493 142.88 74.5 142.88C73.4507 142.88 72.6 143.698 72.6 144.708C72.6 145.717 73.4507 146.535 74.5 146.535Z" fill="#B4BAC7"/>
<path d="M92.6 146.535C93.6493 146.535 94.5 145.717 94.5 144.708C94.5 143.698 93.6493 142.88 92.6 142.88C91.5507 142.88 90.7 143.698 90.7 144.708C90.7 145.717 91.5507 146.535 92.6 146.535Z" fill="#B4BAC7"/>
<path d="M1.9 162.407C2.94934 162.407 3.8 161.589 3.8 160.58C3.8 159.57 2.94934 158.752 1.9 158.752C0.850659 158.752 0 159.57 0 160.58C0 161.589 0.850659 162.407 1.9 162.407Z" fill="#B4BAC7"/>
<path d="M20.1 162.407C21.1493 162.407 22 161.589 22 160.58C22 159.57 21.1493 158.752 20.1 158.752C19.0507 158.752 18.2 159.57 18.2 160.58C18.2 161.589 19.0507 162.407 20.1 162.407Z" fill="#B4BAC7"/>
<path d="M38.2 162.407C39.2493 162.407 40.1 161.589 40.1 160.58C40.1 159.57 39.2493 158.752 38.2 158.752C37.1507 158.752 36.3 159.57 36.3 160.58C36.3 161.589 37.1507 162.407 38.2 162.407Z" fill="#B4BAC7"/>
<path d="M56.3 162.407C57.3493 162.407 58.2 161.589 58.2 160.58C58.2 159.57 57.3493 158.752 56.3 158.752C55.2507 158.752 54.4 159.57 54.4 160.58C54.4 161.589 55.2507 162.407 56.3 162.407Z" fill="#B4BAC7"/>
<path d="M74.5 162.407C75.5493 162.407 76.4 161.589 76.4 160.58C76.4 159.57 75.5493 158.752 74.5 158.752C73.4507 158.752 72.6 159.57 72.6 160.58C72.6 161.589 73.4507 162.407 74.5 162.407Z" fill="#B4BAC7"/>
<path d="M92.6 162.407C93.6493 162.407 94.5 161.589 94.5 160.58C94.5 159.57 93.6493 158.752 92.6 158.752C91.5507 158.752 90.7 159.57 90.7 160.58C90.7 161.589 91.5507 162.407 92.6 162.407Z" fill="#B4BAC7"/>
<path d="M109.4 114.695C110.449 114.695 111.3 113.876 111.3 112.867C111.3 111.858 110.449 111.039 109.4 111.039C108.351 111.039 107.5 111.858 107.5 112.867C107.5 113.876 108.351 114.695 109.4 114.695Z" fill="#B4BAC7"/>
<path d="M109.4 130.567C110.449 130.567 111.3 129.749 111.3 128.739C111.3 127.73 110.449 126.911 109.4 126.911C108.351 126.911 107.5 127.73 107.5 128.739C107.5 129.749 108.351 130.567 109.4 130.567Z" fill="#B4BAC7"/>
<path d="M109.4 146.535C110.449 146.535 111.3 145.717 111.3 144.708C111.3 143.698 110.449 142.88 109.4 142.88C108.351 142.88 107.5 143.698 107.5 144.708C107.5 145.717 108.351 146.535 109.4 146.535Z" fill="#B4BAC7"/>
<path d="M109.4 162.407C110.449 162.407 111.3 161.589 111.3 160.58C111.3 159.57 110.449 158.752 109.4 158.752C108.351 158.752 107.5 159.57 107.5 160.58C107.5 161.589 108.351 162.407 109.4 162.407Z" fill="#B4BAC7"/>
</svg>
