<svg width="202" height="178" viewBox="0 0 202 178" fill="none" xmlns="http://www.w3.org/2000/svg">
<path d="M1.9 3.65541C2.94934 3.65541 3.8 2.83712 3.8 1.82771C3.8 0.818291 2.94934 0 1.9 0C0.850659 0 0 0.818291 0 1.82771C0 2.83712 0.850659 3.65541 1.9 3.65541Z" fill="#B4BAC7"/>
<path d="M20.1 3.65541C21.1493 3.65541 22 2.83712 22 1.82771C22 0.818291 21.1493 0 20.1 0C19.0507 0 18.2 0.818291 18.2 1.82771C18.2 2.83712 19.0507 3.65541 20.1 3.65541Z" fill="#B4BAC7"/>
<path d="M38.2 3.65541C39.2493 3.65541 40.1 2.83712 40.1 1.82771C40.1 0.818291 39.2493 0 38.2 0C37.1507 0 36.3 0.818291 36.3 1.82771C36.3 2.83712 37.1507 3.65541 38.2 3.65541Z" fill="#B4BAC7"/>
<path d="M56.3 3.65541C57.3493 3.65541 58.2 2.83712 58.2 1.82771C58.2 0.818291 57.3493 0 56.3 0C55.2507 0 54.4 0.818291 54.4 1.82771C54.4 2.83712 55.2507 3.65541 56.3 3.65541Z" fill="#B4BAC7"/>
<path d="M74.5 3.65541C75.5493 3.65541 76.4 2.83712 76.4 1.82771C76.4 0.818291 75.5493 0 74.5 0C73.4507 0 72.6 0.818291 72.6 1.82771C72.6 2.83712 73.4507 3.65541 74.5 3.65541Z" fill="#B4BAC7"/>
<path d="M92.6 3.65541C93.6493 3.65541 94.5 2.83712 94.5 1.82771C94.5 0.818291 93.6493 0 92.6 0C91.5507 0 90.7 0.818291 90.7 1.82771C90.7 2.83712 91.5507 3.65541 92.6 3.65541Z" fill="#B4BAC7"/>
<path d="M1.9 19.6238C2.94934 19.6238 3.8 18.8055 3.8 17.7961C3.8 16.7867 2.94934 15.9684 1.9 15.9684C0.850659 15.9684 0 16.7867 0 17.7961C0 18.8055 0.850659 19.6238 1.9 19.6238Z" fill="#B4BAC7"/>
<path d="M20.1 19.6238C21.1493 19.6238 22 18.8055 22 17.7961C22 16.7867 21.1493 15.9684 20.1 15.9684C19.0507 15.9684 18.2 16.7867 18.2 17.7961C18.2 18.8055 19.0507 19.6238 20.1 19.6238Z" fill="#B4BAC7"/>
<path d="M38.2 19.6238C39.2493 19.6238 40.1 18.8055 40.1 17.7961C40.1 16.7867 39.2493 15.9684 38.2 15.9684C37.1507 15.9684 36.3 16.7867 36.3 17.7961C36.3 18.8055 37.1507 19.6238 38.2 19.6238Z" fill="#B4BAC7"/>
<path d="M56.3 19.6238C57.3493 19.6238 58.2 18.8055 58.2 17.7961C58.2 16.7867 57.3493 15.9684 56.3 15.9684C55.2507 15.9684 54.4 16.7867 54.4 17.7961C54.4 18.8055 55.2507 19.6238 56.3 19.6238Z" fill="#B4BAC7"/>
<path d="M74.5 19.6238C75.5493 19.6238 76.4 18.8055 76.4 17.7961C76.4 16.7867 75.5493 15.9684 74.5 15.9684C73.4507 15.9684 72.6 16.7867 72.6 17.7961C72.6 18.8055 73.4507 19.6238 74.5 19.6238Z" fill="#B4BAC7"/>
<path d="M92.6 19.6238C93.6493 19.6238 94.5 18.8055 94.5 17.7961C94.5 16.7867 93.6493 15.9684 92.6 15.9684C91.5507 15.9684 90.7 16.7867 90.7 17.7961C90.7 18.8055 91.5507 19.6238 92.6 19.6238Z" fill="#B4BAC7"/>
<path d="M1.9 35.496C2.94934 35.496 3.8 34.6777 3.8 33.6683C3.8 32.6588 2.94934 31.8405 1.9 31.8405C0.850659 31.8405 0 32.6588 0 33.6683C0 34.6777 0.850659 35.496 1.9 35.496Z" fill="#B4BAC7"/>
<path d="M20.1 35.496C21.1493 35.496 22 34.6777 22 33.6683C22 32.6588 21.1493 31.8405 20.1 31.8405C19.0507 31.8405 18.2 32.6588 18.2 33.6683C18.2 34.6777 19.0507 35.496 20.1 35.496Z" fill="#B4BAC7"/>
<path d="M38.2 35.496C39.2493 35.496 40.1 34.6777 40.1 33.6683C40.1 32.6588 39.2493 31.8405 38.2 31.8405C37.1507 31.8405 36.3 32.6588 36.3 33.6683C36.3 34.6777 37.1507 35.496 38.2 35.496Z" fill="#B4BAC7"/>
<path d="M56.3 35.496C57.3493 35.496 58.2 34.6777 58.2 33.6683C58.2 32.6588 57.3493 31.8405 56.3 31.8405C55.2507 31.8405 54.4 32.6588 54.4 33.6683C54.4 34.6777 55.2507 35.496 56.3 35.496Z" fill="#B4BAC7"/>
<path d="M74.5 35.496C75.5493 35.496 76.4 34.6777 76.4 33.6683C76.4 32.6588 75.5493 31.8405 74.5 31.8405C73.4507 31.8405 72.6 32.6588 72.6 33.6683C72.6 34.6777 73.4507 35.496 74.5 35.496Z" fill="#B4BAC7"/>
<path d="M92.6 35.496C93.6493 35.496 94.5 34.6777 94.5 33.6683C94.5 32.6588 93.6493 31.8405 92.6 31.8405C91.5507 31.8405 90.7 32.6588 90.7 33.6683C90.7 34.6777 91.5507 35.496 92.6 35.496Z" fill="#B4BAC7"/>
<path d="M1.9 51.3681C2.94934 51.3681 3.8 50.5498 3.8 49.5404C3.8 48.531 2.94934 47.7127 1.9 47.7127C0.850659 47.7127 0 48.531 0 49.5404C0 50.5498 0.850659 51.3681 1.9 51.3681Z" fill="#B4BAC7"/>
<path d="M20.1 51.3681C21.1493 51.3681 22 50.5498 22 49.5404C22 48.531 21.1493 47.7127 20.1 47.7127C19.0507 47.7127 18.2 48.531 18.2 49.5404C18.2 50.5498 19.0507 51.3681 20.1 51.3681Z" fill="#B4BAC7"/>
<path d="M38.2 51.3681C39.2493 51.3681 40.1 50.5498 40.1 49.5404C40.1 48.531 39.2493 47.7127 38.2 47.7127C37.1507 47.7127 36.3 48.531 36.3 49.5404C36.3 50.5498 37.1507 51.3681 38.2 51.3681Z" fill="#B4BAC7"/>
<path d="M56.3 51.3681C57.3493 51.3681 58.2 50.5498 58.2 49.5404C58.2 48.531 57.3493 47.7127 56.3 47.7127C55.2507 47.7127 54.4 48.531 54.4 49.5404C54.4 50.5498 55.2507 51.3681 56.3 51.3681Z" fill="#B4BAC7"/>
<path d="M74.5 51.3681C75.5493 51.3681 76.4 50.5498 76.4 49.5404C76.4 48.531 75.5493 47.7127 74.5 47.7127C73.4507 47.7127 72.6 48.531 72.6 49.5404C72.6 50.5498 73.4507 51.3681 74.5 51.3681Z" fill="#B4BAC7"/>
<path d="M92.6 51.3681C93.6493 51.3681 94.5 50.5498 94.5 49.5404C94.5 48.531 93.6493 47.7127 92.6 47.7127C91.5507 47.7127 90.7 48.531 90.7 49.5404C90.7 50.5498 91.5507 51.3681 92.6 51.3681Z" fill="#B4BAC7"/>
<path d="M1.9 67.3365C2.94934 67.3365 3.8 66.5182 3.8 65.5088C3.8 64.4994 2.94934 63.6811 1.9 63.6811C0.850659 63.6811 0 64.4994 0 65.5088C0 66.5182 0.850659 67.3365 1.9 67.3365Z" fill="#B4BAC7"/>
<path d="M20.1 67.3365C21.1493 67.3365 22 66.5182 22 65.5088C22 64.4994 21.1493 63.6811 20.1 63.6811C19.0507 63.6811 18.2 64.4994 18.2 65.5088C18.2 66.5182 19.0507 67.3365 20.1 67.3365Z" fill="#B4BAC7"/>
<path d="M38.2 67.3365C39.2493 67.3365 40.1 66.5182 40.1 65.5088C40.1 64.4994 39.2493 63.6811 38.2 63.6811C37.1507 63.6811 36.3 64.4994 36.3 65.5088C36.3 66.5182 37.1507 67.3365 38.2 67.3365Z" fill="#B4BAC7"/>
<path d="M56.3 67.3365C57.3493 67.3365 58.2 66.5182 58.2 65.5088C58.2 64.4994 57.3493 63.6811 56.3 63.6811C55.2507 63.6811 54.4 64.4994 54.4 65.5088C54.4 66.5182 55.2507 67.3365 56.3 67.3365Z" fill="#B4BAC7"/>
<path d="M74.5 67.3365C75.5493 67.3365 76.4 66.5182 76.4 65.5088C76.4 64.4994 75.5493 63.6811 74.5 63.6811C73.4507 63.6811 72.6 64.4994 72.6 65.5088C72.6 66.5182 73.4507 67.3365 74.5 67.3365Z" fill="#B4BAC7"/>
<path d="M92.6 67.3365C93.6493 67.3365 94.5 66.5182 94.5 65.5088C94.5 64.4994 93.6493 63.6811 92.6 63.6811C91.5507 63.6811 90.7 64.4994 90.7 65.5088C90.7 66.5182 91.5507 67.3365 92.6 67.3365Z" fill="#B4BAC7"/>
<path d="M1.9 83.2087C2.94934 83.2087 3.8 82.3904 3.8 81.381C3.8 80.3716 2.94934 79.5533 1.9 79.5533C0.850659 79.5533 0 80.3716 0 81.381C0 82.3904 0.850659 83.2087 1.9 83.2087Z" fill="#B4BAC7"/>
<path d="M20.1 83.2087C21.1493 83.2087 22 82.3904 22 81.381C22 80.3716 21.1493 79.5533 20.1 79.5533C19.0507 79.5533 18.2 80.3716 18.2 81.381C18.2 82.3904 19.0507 83.2087 20.1 83.2087Z" fill="#B4BAC7"/>
<path d="M38.2 83.2087C39.2493 83.2087 40.1 82.3904 40.1 81.381C40.1 80.3716 39.2493 79.5533 38.2 79.5533C37.1507 79.5533 36.3 80.3716 36.3 81.381C36.3 82.3904 37.1507 83.2087 38.2 83.2087Z" fill="#B4BAC7"/>
<path d="M56.3 83.2087C57.3493 83.2087 58.2 82.3904 58.2 81.381C58.2 80.3716 57.3493 79.5533 56.3 79.5533C55.2507 79.5533 54.4 80.3716 54.4 81.381C54.4 82.3904 55.2507 83.2087 56.3 83.2087Z" fill="#B4BAC7"/>
<path d="M74.5 83.2087C75.5493 83.2087 76.4 82.3904 76.4 81.381C76.4 80.3716 75.5493 79.5533 74.5 79.5533C73.4507 79.5533 72.6 80.3716 72.6 81.381C72.6 82.3904 73.4507 83.2087 74.5 83.2087Z" fill="#B4BAC7"/>
<path d="M92.6 83.2087C93.6493 83.2087 94.5 82.3904 94.5 81.381C94.5 80.3716 93.6493 79.5533 92.6 79.5533C91.5507 79.5533 90.7 80.3716 90.7 81.381C90.7 82.3904 91.5507 83.2087 92.6 83.2087Z" fill="#B4BAC7"/>
<path d="M109.4 3.65541C110.449 3.65541 111.3 2.83712 111.3 1.82771C111.3 0.818291 110.449 0 109.4 0C108.351 0 107.5 0.818291 107.5 1.82771C107.5 2.83712 108.351 3.65541 109.4 3.65541Z" fill="#B4BAC7"/>
<path d="M127.6 3.65541C128.649 3.65541 129.5 2.83712 129.5 1.82771C129.5 0.818291 128.649 0 127.6 0C126.551 0 125.7 0.818291 125.7 1.82771C125.7 2.83712 126.551 3.65541 127.6 3.65541Z" fill="#B4BAC7"/>
<path d="M145.7 3.65541C146.749 3.65541 147.6 2.83712 147.6 1.82771C147.6 0.818291 146.749 0 145.7 0C144.651 0 143.8 0.818291 143.8 1.82771C143.8 2.83712 144.651 3.65541 145.7 3.65541Z" fill="#B4BAC7"/>
<path d="M163.8 3.65541C164.849 3.65541 165.7 2.83712 165.7 1.82771C165.7 0.818291 164.849 0 163.8 0C162.751 0 161.9 0.818291 161.9 1.82771C161.9 2.83712 162.751 3.65541 163.8 3.65541Z" fill="#B4BAC7"/>
<path d="M182 3.65541C183.049 3.65541 183.9 2.83712 183.9 1.82771C183.9 0.818291 183.049 0 182 0C180.951 0 180.1 0.818291 180.1 1.82771C180.1 2.83712 180.951 3.65541 182 3.65541Z" fill="#B4BAC7"/>
<path d="M200.1 3.65541C201.149 3.65541 202 2.83712 202 1.82771C202 0.818291 201.149 0 200.1 0C199.051 0 198.2 0.818291 198.2 1.82771C198.2 2.83712 199.051 3.65541 200.1 3.65541Z" fill="#B4BAC7"/>
<path d="M109.4 19.6238C110.449 19.6238 111.3 18.8055 111.3 17.7961C111.3 16.7867 110.449 15.9684 109.4 15.9684C108.351 15.9684 107.5 16.7867 107.5 17.7961C107.5 18.8055 108.351 19.6238 109.4 19.6238Z" fill="#B4BAC7"/>
<path d="M127.6 19.6238C128.649 19.6238 129.5 18.8055 129.5 17.7961C129.5 16.7867 128.649 15.9684 127.6 15.9684C126.551 15.9684 125.7 16.7867 125.7 17.7961C125.7 18.8055 126.551 19.6238 127.6 19.6238Z" fill="#B4BAC7"/>
<path d="M145.7 19.6238C146.749 19.6238 147.6 18.8055 147.6 17.7961C147.6 16.7867 146.749 15.9684 145.7 15.9684C144.651 15.9684 143.8 16.7867 143.8 17.7961C143.8 18.8055 144.651 19.6238 145.7 19.6238Z" fill="#B4BAC7"/>
<path d="M163.8 19.6238C164.849 19.6238 165.7 18.8055 165.7 17.7961C165.7 16.7867 164.849 15.9684 163.8 15.9684C162.751 15.9684 161.9 16.7867 161.9 17.7961C161.9 18.8055 162.751 19.6238 163.8 19.6238Z" fill="#B4BAC7"/>
<path d="M182 19.6238C183.049 19.6238 183.9 18.8055 183.9 17.7961C183.9 16.7867 183.049 15.9684 182 15.9684C180.951 15.9684 180.1 16.7867 180.1 17.7961C180.1 18.8055 180.951 19.6238 182 19.6238Z" fill="#B4BAC7"/>
<path d="M200.1 19.6238C201.149 19.6238 202 18.8055 202 17.7961C202 16.7867 201.149 15.9684 200.1 15.9684C199.051 15.9684 198.2 16.7867 198.2 17.7961C198.2 18.8055 199.051 19.6238 200.1 19.6238Z" fill="#B4BAC7"/>
<path d="M109.4 35.496C110.449 35.496 111.3 34.6777 111.3 33.6683C111.3 32.6588 110.449 31.8405 109.4 31.8405C108.351 31.8405 107.5 32.6588 107.5 33.6683C107.5 34.6777 108.351 35.496 109.4 35.496Z" fill="#B4BAC7"/>
<path d="M127.6 35.496C128.649 35.496 129.5 34.6777 129.5 33.6683C129.5 32.6588 128.649 31.8405 127.6 31.8405C126.551 31.8405 125.7 32.6588 125.7 33.6683C125.7 34.6777 126.551 35.496 127.6 35.496Z" fill="#B4BAC7"/>
<path d="M145.7 35.496C146.749 35.496 147.6 34.6777 147.6 33.6683C147.6 32.6588 146.749 31.8405 145.7 31.8405C144.651 31.8405 143.8 32.6588 143.8 33.6683C143.8 34.6777 144.651 35.496 145.7 35.496Z" fill="#B4BAC7"/>
<path d="M163.8 35.496C164.849 35.496 165.7 34.6777 165.7 33.6683C165.7 32.6588 164.849 31.8405 163.8 31.8405C162.751 31.8405 161.9 32.6588 161.9 33.6683C161.9 34.6777 162.751 35.496 163.8 35.496Z" fill="#B4BAC7"/>
<path d="M182 35.496C183.049 35.496 183.9 34.6777 183.9 33.6683C183.9 32.6588 183.049 31.8405 182 31.8405C180.951 31.8405 180.1 32.6588 180.1 33.6683C180.1 34.6777 180.951 35.496 182 35.496Z" fill="#B4BAC7"/>
<path d="M200.1 35.496C201.149 35.496 202 34.6777 202 33.6683C202 32.6588 201.149 31.8405 200.1 31.8405C199.051 31.8405 198.2 32.6588 198.2 33.6683C198.2 34.6777 199.051 35.496 200.1 35.496Z" fill="#B4BAC7"/>
<path d="M109.4 51.3681C110.449 51.3681 111.3 50.5498 111.3 49.5404C111.3 48.531 110.449 47.7127 109.4 47.7127C108.351 47.7127 107.5 48.531 107.5 49.5404C107.5 50.5498 108.351 51.3681 109.4 51.3681Z" fill="#B4BAC7"/>
<path d="M127.6 51.3681C128.649 51.3681 129.5 50.5498 129.5 49.5404C129.5 48.531 128.649 47.7127 127.6 47.7127C126.551 47.7127 125.7 48.531 125.7 49.5404C125.7 50.5498 126.551 51.3681 127.6 51.3681Z" fill="#B4BAC7"/>
<path d="M145.7 51.3681C146.749 51.3681 147.6 50.5498 147.6 49.5404C147.6 48.531 146.749 47.7127 145.7 47.7127C144.651 47.7127 143.8 48.531 143.8 49.5404C143.8 50.5498 144.651 51.3681 145.7 51.3681Z" fill="#B4BAC7"/>
<path d="M163.8 51.3681C164.849 51.3681 165.7 50.5498 165.7 49.5404C165.7 48.531 164.849 47.7127 163.8 47.7127C162.751 47.7127 161.9 48.531 161.9 49.5404C161.9 50.5498 162.751 51.3681 163.8 51.3681Z" fill="#B4BAC7"/>
<path d="M182 51.3681C183.049 51.3681 183.9 50.5498 183.9 49.5404C183.9 48.531 183.049 47.7127 182 47.7127C180.951 47.7127 180.1 48.531 180.1 49.5404C180.1 50.5498 180.951 51.3681 182 51.3681Z" fill="#B4BAC7"/>
<path d="M200.1 51.3681C201.149 51.3681 202 50.5498 202 49.5404C202 48.531 201.149 47.7127 200.1 47.7127C199.051 47.7127 198.2 48.531 198.2 49.5404C198.2 50.5498 199.051 51.3681 200.1 51.3681Z" fill="#B4BAC7"/>
<path d="M109.4 67.3365C110.449 67.3365 111.3 66.5182 111.3 65.5088C111.3 64.4994 110.449 63.6811 109.4 63.6811C108.351 63.6811 107.5 64.4994 107.5 65.5088C107.5 66.5182 108.351 67.3365 109.4 67.3365Z" fill="#B4BAC7"/>
<path d="M127.6 67.3365C128.649 67.3365 129.5 66.5182 129.5 65.5088C129.5 64.4994 128.649 63.6811 127.6 63.6811C126.551 63.6811 125.7 64.4994 125.7 65.5088C125.7 66.5182 126.551 67.3365 127.6 67.3365Z" fill="#B4BAC7"/>
<path d="M145.7 67.3365C146.749 67.3365 147.6 66.5182 147.6 65.5088C147.6 64.4994 146.749 63.6811 145.7 63.6811C144.651 63.6811 143.8 64.4994 143.8 65.5088C143.8 66.5182 144.651 67.3365 145.7 67.3365Z" fill="#B4BAC7"/>
<path d="M163.8 67.3365C164.849 67.3365 165.7 66.5182 165.7 65.5088C165.7 64.4994 164.849 63.6811 163.8 63.6811C162.751 63.6811 161.9 64.4994 161.9 65.5088C161.9 66.5182 162.751 67.3365 163.8 67.3365Z" fill="#B4BAC7"/>
<path d="M182 67.3365C183.049 67.3365 183.9 66.5182 183.9 65.5088C183.9 64.4994 183.049 63.6811 182 63.6811C180.951 63.6811 180.1 64.4994 180.1 65.5088C180.1 66.5182 180.951 67.3365 182 67.3365Z" fill="#B4BAC7"/>
<path d="M200.1 67.3365C201.149 67.3365 202 66.5182 202 65.5088C202 64.4994 201.149 63.6811 200.1 63.6811C199.051 63.6811 198.2 64.4994 198.2 65.5088C198.2 66.5182 199.051 67.3365 200.1 67.3365Z" fill="#B4BAC7"/>
<path d="M109.4 83.2087C110.449 83.2087 111.3 82.3904 111.3 81.381C111.3 80.3716 110.449 79.5533 109.4 79.5533C108.351 79.5533 107.5 80.3716 107.5 81.381C107.5 82.3904 108.351 83.2087 109.4 83.2087Z" fill="#B4BAC7"/>
<path d="M127.6 83.2087C128.649 83.2087 129.5 82.3904 129.5 81.381C129.5 80.3716 128.649 79.5533 127.6 79.5533C126.551 79.5533 125.7 80.3716 125.7 81.381C125.7 82.3904 126.551 83.2087 127.6 83.2087Z" fill="#B4BAC7"/>
<path d="M145.7 83.2087C146.749 83.2087 147.6 82.3904 147.6 81.381C147.6 80.3716 146.749 79.5533 145.7 79.5533C144.651 79.5533 143.8 80.3716 143.8 81.381C143.8 82.3904 144.651 83.2087 145.7 83.2087Z" fill="#B4BAC7"/>
<path d="M163.8 83.2087C164.849 83.2087 165.7 82.3904 165.7 81.381C165.7 80.3716 164.849 79.5533 163.8 79.5533C162.751 79.5533 161.9 80.3716 161.9 81.381C161.9 82.3904 162.751 83.2087 163.8 83.2087Z" fill="#B4BAC7"/>
<path d="M182 83.2087C183.049 83.2087 183.9 82.3904 183.9 81.381C183.9 80.3716 183.049 79.5533 182 79.5533C180.951 79.5533 180.1 80.3716 180.1 81.381C180.1 82.3904 180.951 83.2087 182 83.2087Z" fill="#B4BAC7"/>
<path d="M200.1 83.2087C201.149 83.2087 202 82.3904 202 81.381C202 80.3716 201.149 79.5533 200.1 79.5533C199.051 79.5533 198.2 80.3716 198.2 81.381C198.2 82.3904 199.051 83.2087 200.1 83.2087Z" fill="#B4BAC7"/>
<path d="M1.9 98.4075C2.94934 98.4075 3.8 97.5892 3.8 96.5798C3.8 95.5704 2.94934 94.7521 1.9 94.7521C0.850659 94.7521 0 95.5704 0 96.5798C0 97.5892 0.850659 98.4075 1.9 98.4075Z" fill="#B4BAC7"/>
<path d="M20.1 98.4075C21.1493 98.4075 22 97.5892 22 96.5798C22 95.5704 21.1493 94.7521 20.1 94.7521C19.0507 94.7521 18.2 95.5704 18.2 96.5798C18.2 97.5892 19.0507 98.4075 20.1 98.4075Z" fill="#B4BAC7"/>
<path d="M38.2 98.4075C39.2493 98.4075 40.1 97.5892 40.1 96.5798C40.1 95.5704 39.2493 94.7521 38.2 94.7521C37.1507 94.7521 36.3 95.5704 36.3 96.5798C36.3 97.5892 37.1507 98.4075 38.2 98.4075Z" fill="#B4BAC7"/>
<path d="M56.3 98.4075C57.3493 98.4075 58.2 97.5892 58.2 96.5798C58.2 95.5704 57.3493 94.7521 56.3 94.7521C55.2507 94.7521 54.4 95.5704 54.4 96.5798C54.4 97.5892 55.2507 98.4075 56.3 98.4075Z" fill="#B4BAC7"/>
<path d="M74.5 98.4075C75.5493 98.4075 76.4 97.5892 76.4 96.5798C76.4 95.5704 75.5493 94.7521 74.5 94.7521C73.4507 94.7521 72.6 95.5704 72.6 96.5798C72.6 97.5892 73.4507 98.4075 74.5 98.4075Z" fill="#B4BAC7"/>
<path d="M92.6 98.4075C93.6493 98.4075 94.5 97.5892 94.5 96.5798C94.5 95.5704 93.6493 94.7521 92.6 94.7521C91.5507 94.7521 90.7 95.5704 90.7 96.5798C90.7 97.5892 91.5507 98.4075 92.6 98.4075Z" fill="#B4BAC7"/>
<path d="M1.9 114.376C2.94934 114.376 3.8 113.558 3.8 112.548C3.8 111.539 2.94934 110.72 1.9 110.72C0.850659 110.72 0 111.539 0 112.548C0 113.558 0.850659 114.376 1.9 114.376Z" fill="#B4BAC7"/>
<path d="M20.1 114.376C21.1493 114.376 22 113.558 22 112.548C22 111.539 21.1493 110.72 20.1 110.72C19.0507 110.72 18.2 111.539 18.2 112.548C18.2 113.558 19.0507 114.376 20.1 114.376Z" fill="#B4BAC7"/>
<path d="M38.2 114.376C39.2493 114.376 40.1 113.558 40.1 112.548C40.1 111.539 39.2493 110.72 38.2 110.72C37.1507 110.72 36.3 111.539 36.3 112.548C36.3 113.558 37.1507 114.376 38.2 114.376Z" fill="#B4BAC7"/>
<path d="M56.3 114.376C57.3493 114.376 58.2 113.558 58.2 112.548C58.2 111.539 57.3493 110.72 56.3 110.72C55.2507 110.72 54.4 111.539 54.4 112.548C54.4 113.558 55.2507 114.376 56.3 114.376Z" fill="#B4BAC7"/>
<path d="M74.5 114.376C75.5493 114.376 76.4 113.558 76.4 112.548C76.4 111.539 75.5493 110.72 74.5 110.72C73.4507 110.72 72.6 111.539 72.6 112.548C72.6 113.558 73.4507 114.376 74.5 114.376Z" fill="#B4BAC7"/>
<path d="M92.6 114.376C93.6493 114.376 94.5 113.558 94.5 112.548C94.5 111.539 93.6493 110.72 92.6 110.72C91.5507 110.72 90.7 111.539 90.7 112.548C90.7 113.558 91.5507 114.376 92.6 114.376Z" fill="#B4BAC7"/>
<path d="M1.9 130.248C2.94934 130.248 3.8 129.43 3.8 128.42C3.8 127.411 2.94934 126.593 1.9 126.593C0.850659 126.593 0 127.411 0 128.42C0 129.43 0.850659 130.248 1.9 130.248Z" fill="#B4BAC7"/>
<path d="M20.1 130.248C21.1493 130.248 22 129.43 22 128.42C22 127.411 21.1493 126.593 20.1 126.593C19.0507 126.593 18.2 127.411 18.2 128.42C18.2 129.43 19.0507 130.248 20.1 130.248Z" fill="#B4BAC7"/>
<path d="M38.2 130.248C39.2493 130.248 40.1 129.43 40.1 128.42C40.1 127.411 39.2493 126.593 38.2 126.593C37.1507 126.593 36.3 127.411 36.3 128.42C36.3 129.43 37.1507 130.248 38.2 130.248Z" fill="#B4BAC7"/>
<path d="M56.3 130.248C57.3493 130.248 58.2 129.43 58.2 128.42C58.2 127.411 57.3493 126.593 56.3 126.593C55.2507 126.593 54.4 127.411 54.4 128.42C54.4 129.43 55.2507 130.248 56.3 130.248Z" fill="#B4BAC7"/>
<path d="M74.5 130.248C75.5493 130.248 76.4 129.43 76.4 128.42C76.4 127.411 75.5493 126.593 74.5 126.593C73.4507 126.593 72.6 127.411 72.6 128.42C72.6 129.43 73.4507 130.248 74.5 130.248Z" fill="#B4BAC7"/>
<path d="M92.6 130.248C93.6493 130.248 94.5 129.43 94.5 128.42C94.5 127.411 93.6493 126.593 92.6 126.593C91.5507 126.593 90.7 127.411 90.7 128.42C90.7 129.43 91.5507 130.248 92.6 130.248Z" fill="#B4BAC7"/>
<path d="M1.9 146.12C2.94934 146.12 3.8 145.302 3.8 144.292C3.8 143.283 2.94934 142.465 1.9 142.465C0.850659 142.465 0 143.283 0 144.292C0 145.302 0.850659 146.12 1.9 146.12Z" fill="#B4BAC7"/>
<path d="M20.1 146.12C21.1493 146.12 22 145.302 22 144.292C22 143.283 21.1493 142.465 20.1 142.465C19.0507 142.465 18.2 143.283 18.2 144.292C18.2 145.302 19.0507 146.12 20.1 146.12Z" fill="#B4BAC7"/>
<path d="M38.2 146.12C39.2493 146.12 40.1 145.302 40.1 144.292C40.1 143.283 39.2493 142.465 38.2 142.465C37.1507 142.465 36.3 143.283 36.3 144.292C36.3 145.302 37.1507 146.12 38.2 146.12Z" fill="#B4BAC7"/>
<path d="M56.3 146.12C57.3493 146.12 58.2 145.302 58.2 144.292C58.2 143.283 57.3493 142.465 56.3 142.465C55.2507 142.465 54.4 143.283 54.4 144.292C54.4 145.302 55.2507 146.12 56.3 146.12Z" fill="#B4BAC7"/>
<path d="M74.5 146.12C75.5493 146.12 76.4 145.302 76.4 144.292C76.4 143.283 75.5493 142.465 74.5 142.465C73.4507 142.465 72.6 143.283 72.6 144.292C72.6 145.302 73.4507 146.12 74.5 146.12Z" fill="#B4BAC7"/>
<path d="M92.6 146.12C93.6493 146.12 94.5 145.302 94.5 144.292C94.5 143.283 93.6493 142.465 92.6 142.465C91.5507 142.465 90.7 143.283 90.7 144.292C90.7 145.302 91.5507 146.12 92.6 146.12Z" fill="#B4BAC7"/>
<path d="M1.9 162.089C2.94934 162.089 3.8 161.27 3.8 160.261C3.8 159.251 2.94934 158.433 1.9 158.433C0.850659 158.433 0 159.251 0 160.261C0 161.27 0.850659 162.089 1.9 162.089Z" fill="#B4BAC7"/>
<path d="M20.1 162.089C21.1493 162.089 22 161.27 22 160.261C22 159.251 21.1493 158.433 20.1 158.433C19.0507 158.433 18.2 159.251 18.2 160.261C18.2 161.27 19.0507 162.089 20.1 162.089Z" fill="#B4BAC7"/>
<path d="M38.2 162.089C39.2493 162.089 40.1 161.27 40.1 160.261C40.1 159.251 39.2493 158.433 38.2 158.433C37.1507 158.433 36.3 159.251 36.3 160.261C36.3 161.27 37.1507 162.089 38.2 162.089Z" fill="#B4BAC7"/>
<path d="M56.3 162.089C57.3493 162.089 58.2 161.27 58.2 160.261C58.2 159.251 57.3493 158.433 56.3 158.433C55.2507 158.433 54.4 159.251 54.4 160.261C54.4 161.27 55.2507 162.089 56.3 162.089Z" fill="#B4BAC7"/>
<path d="M74.5 162.089C75.5493 162.089 76.4 161.27 76.4 160.261C76.4 159.251 75.5493 158.433 74.5 158.433C73.4507 158.433 72.6 159.251 72.6 160.261C72.6 161.27 73.4507 162.089 74.5 162.089Z" fill="#B4BAC7"/>
<path d="M92.6 162.089C93.6493 162.089 94.5 161.27 94.5 160.261C94.5 159.251 93.6493 158.433 92.6 158.433C91.5507 158.433 90.7 159.251 90.7 160.261C90.7 161.27 91.5507 162.089 92.6 162.089Z" fill="#B4BAC7"/>
<path d="M1.9 177.961C2.94934 177.961 3.8 177.142 3.8 176.133C3.8 175.124 2.94934 174.305 1.9 174.305C0.850659 174.305 0 175.124 0 176.133C0 177.142 0.850659 177.961 1.9 177.961Z" fill="#B4BAC7"/>
<path d="M20.1 177.961C21.1493 177.961 22 177.142 22 176.133C22 175.124 21.1493 174.305 20.1 174.305C19.0507 174.305 18.2 175.124 18.2 176.133C18.2 177.142 19.0507 177.961 20.1 177.961Z" fill="#B4BAC7"/>
<path d="M38.2 177.961C39.2493 177.961 40.1 177.142 40.1 176.133C40.1 175.124 39.2493 174.305 38.2 174.305C37.1507 174.305 36.3 175.124 36.3 176.133C36.3 177.142 37.1507 177.961 38.2 177.961Z" fill="#B4BAC7"/>
<path d="M56.3 177.961C57.3493 177.961 58.2 177.142 58.2 176.133C58.2 175.124 57.3493 174.305 56.3 174.305C55.2507 174.305 54.4 175.124 54.4 176.133C54.4 177.142 55.2507 177.961 56.3 177.961Z" fill="#B4BAC7"/>
<path d="M74.5 177.961C75.5493 177.961 76.4 177.142 76.4 176.133C76.4 175.124 75.5493 174.305 74.5 174.305C73.4507 174.305 72.6 175.124 72.6 176.133C72.6 177.142 73.4507 177.961 74.5 177.961Z" fill="#B4BAC7"/>
<path d="M92.6 177.961C93.6493 177.961 94.5 177.142 94.5 176.133C94.5 175.124 93.6493 174.305 92.6 174.305C91.5507 174.305 90.7 175.124 90.7 176.133C90.7 177.142 91.5507 177.961 92.6 177.961Z" fill="#B4BAC7"/>
<path d="M109.4 98.4075C110.449 98.4075 111.3 97.5892 111.3 96.5798C111.3 95.5704 110.449 94.7521 109.4 94.7521C108.351 94.7521 107.5 95.5704 107.5 96.5798C107.5 97.5892 108.351 98.4075 109.4 98.4075Z" fill="#B4BAC7"/>
<path d="M127.6 98.4075C128.649 98.4075 129.5 97.5892 129.5 96.5798C129.5 95.5704 128.649 94.7521 127.6 94.7521C126.551 94.7521 125.7 95.5704 125.7 96.5798C125.7 97.5892 126.551 98.4075 127.6 98.4075Z" fill="#B4BAC7"/>
<path d="M145.7 98.4075C146.749 98.4075 147.6 97.5892 147.6 96.5798C147.6 95.5704 146.749 94.7521 145.7 94.7521C144.651 94.7521 143.8 95.5704 143.8 96.5798C143.8 97.5892 144.651 98.4075 145.7 98.4075Z" fill="#B4BAC7"/>
<path d="M163.8 98.4075C164.849 98.4075 165.7 97.5892 165.7 96.5798C165.7 95.5704 164.849 94.7521 163.8 94.7521C162.751 94.7521 161.9 95.5704 161.9 96.5798C161.9 97.5892 162.751 98.4075 163.8 98.4075Z" fill="#B4BAC7"/>
<path d="M182 98.4075C183.049 98.4075 183.9 97.5892 183.9 96.5798C183.9 95.5704 183.049 94.7521 182 94.7521C180.951 94.7521 180.1 95.5704 180.1 96.5798C180.1 97.5892 180.951 98.4075 182 98.4075Z" fill="#B4BAC7"/>
<path d="M200.1 98.4075C201.149 98.4075 202 97.5892 202 96.5798C202 95.5704 201.149 94.7521 200.1 94.7521C199.051 94.7521 198.2 95.5704 198.2 96.5798C198.2 97.5892 199.051 98.4075 200.1 98.4075Z" fill="#B4BAC7"/>
<path d="M109.4 114.376C110.449 114.376 111.3 113.558 111.3 112.548C111.3 111.539 110.449 110.72 109.4 110.72C108.351 110.72 107.5 111.539 107.5 112.548C107.5 113.558 108.351 114.376 109.4 114.376Z" fill="#B4BAC7"/>
<path d="M127.6 114.376C128.649 114.376 129.5 113.558 129.5 112.548C129.5 111.539 128.649 110.72 127.6 110.72C126.551 110.72 125.7 111.539 125.7 112.548C125.7 113.558 126.551 114.376 127.6 114.376Z" fill="#B4BAC7"/>
<path d="M145.7 114.376C146.749 114.376 147.6 113.558 147.6 112.548C147.6 111.539 146.749 110.72 145.7 110.72C144.651 110.72 143.8 111.539 143.8 112.548C143.8 113.558 144.651 114.376 145.7 114.376Z" fill="#B4BAC7"/>
<path d="M163.8 114.376C164.849 114.376 165.7 113.558 165.7 112.548C165.7 111.539 164.849 110.72 163.8 110.72C162.751 110.72 161.9 111.539 161.9 112.548C161.9 113.558 162.751 114.376 163.8 114.376Z" fill="#B4BAC7"/>
<path d="M182 114.376C183.049 114.376 183.9 113.558 183.9 112.548C183.9 111.539 183.049 110.72 182 110.72C180.951 110.72 180.1 111.539 180.1 112.548C180.1 113.558 180.951 114.376 182 114.376Z" fill="#B4BAC7"/>
<path d="M200.1 114.376C201.149 114.376 202 113.558 202 112.548C202 111.539 201.149 110.72 200.1 110.72C199.051 110.72 198.2 111.539 198.2 112.548C198.2 113.558 199.051 114.376 200.1 114.376Z" fill="#B4BAC7"/>
<path d="M109.4 130.248C110.449 130.248 111.3 129.43 111.3 128.42C111.3 127.411 110.449 126.593 109.4 126.593C108.351 126.593 107.5 127.411 107.5 128.42C107.5 129.43 108.351 130.248 109.4 130.248Z" fill="#B4BAC7"/>
<path d="M127.6 130.248C128.649 130.248 129.5 129.43 129.5 128.42C129.5 127.411 128.649 126.593 127.6 126.593C126.551 126.593 125.7 127.411 125.7 128.42C125.7 129.43 126.551 130.248 127.6 130.248Z" fill="#B4BAC7"/>
<path d="M145.7 130.248C146.749 130.248 147.6 129.43 147.6 128.42C147.6 127.411 146.749 126.593 145.7 126.593C144.651 126.593 143.8 127.411 143.8 128.42C143.8 129.43 144.651 130.248 145.7 130.248Z" fill="#B4BAC7"/>
<path d="M163.8 130.248C164.849 130.248 165.7 129.43 165.7 128.42C165.7 127.411 164.849 126.593 163.8 126.593C162.751 126.593 161.9 127.411 161.9 128.42C161.9 129.43 162.751 130.248 163.8 130.248Z" fill="#B4BAC7"/>
<path d="M182 130.248C183.049 130.248 183.9 129.43 183.9 128.42C183.9 127.411 183.049 126.593 182 126.593C180.951 126.593 180.1 127.411 180.1 128.42C180.1 129.43 180.951 130.248 182 130.248Z" fill="#B4BAC7"/>
<path d="M200.1 130.248C201.149 130.248 202 129.43 202 128.42C202 127.411 201.149 126.593 200.1 126.593C199.051 126.593 198.2 127.411 198.2 128.42C198.2 129.43 199.051 130.248 200.1 130.248Z" fill="#B4BAC7"/>
<path d="M109.4 146.12C110.449 146.12 111.3 145.302 111.3 144.292C111.3 143.283 110.449 142.465 109.4 142.465C108.351 142.465 107.5 143.283 107.5 144.292C107.5 145.302 108.351 146.12 109.4 146.12Z" fill="#B4BAC7"/>
<path d="M127.6 146.12C128.649 146.12 129.5 145.302 129.5 144.292C129.5 143.283 128.649 142.465 127.6 142.465C126.551 142.465 125.7 143.283 125.7 144.292C125.7 145.302 126.551 146.12 127.6 146.12Z" fill="#B4BAC7"/>
<path d="M145.7 146.12C146.749 146.12 147.6 145.302 147.6 144.292C147.6 143.283 146.749 142.465 145.7 142.465C144.651 142.465 143.8 143.283 143.8 144.292C143.8 145.302 144.651 146.12 145.7 146.12Z" fill="#B4BAC7"/>
<path d="M163.8 146.12C164.849 146.12 165.7 145.302 165.7 144.292C165.7 143.283 164.849 142.465 163.8 142.465C162.751 142.465 161.9 143.283 161.9 144.292C161.9 145.302 162.751 146.12 163.8 146.12Z" fill="#B4BAC7"/>
<path d="M182 146.12C183.049 146.12 183.9 145.302 183.9 144.292C183.9 143.283 183.049 142.465 182 142.465C180.951 142.465 180.1 143.283 180.1 144.292C180.1 145.302 180.951 146.12 182 146.12Z" fill="#B4BAC7"/>
<path d="M200.1 146.12C201.149 146.12 202 145.302 202 144.292C202 143.283 201.149 142.465 200.1 142.465C199.051 142.465 198.2 143.283 198.2 144.292C198.2 145.302 199.051 146.12 200.1 146.12Z" fill="#B4BAC7"/>
<path d="M109.4 162.089C110.449 162.089 111.3 161.27 111.3 160.261C111.3 159.251 110.449 158.433 109.4 158.433C108.351 158.433 107.5 159.251 107.5 160.261C107.5 161.27 108.351 162.089 109.4 162.089Z" fill="#B4BAC7"/>
<path d="M127.6 162.089C128.649 162.089 129.5 161.27 129.5 160.261C129.5 159.251 128.649 158.433 127.6 158.433C126.551 158.433 125.7 159.251 125.7 160.261C125.7 161.27 126.551 162.089 127.6 162.089Z" fill="#B4BAC7"/>
<path d="M145.7 162.089C146.749 162.089 147.6 161.27 147.6 160.261C147.6 159.251 146.749 158.433 145.7 158.433C144.651 158.433 143.8 159.251 143.8 160.261C143.8 161.27 144.651 162.089 145.7 162.089Z" fill="#B4BAC7"/>
<path d="M163.8 162.089C164.849 162.089 165.7 161.27 165.7 160.261C165.7 159.251 164.849 158.433 163.8 158.433C162.751 158.433 161.9 159.251 161.9 160.261C161.9 161.27 162.751 162.089 163.8 162.089Z" fill="#B4BAC7"/>
<path d="M182 162.089C183.049 162.089 183.9 161.27 183.9 160.261C183.9 159.251 183.049 158.433 182 158.433C180.951 158.433 180.1 159.251 180.1 160.261C180.1 161.27 180.951 162.089 182 162.089Z" fill="#B4BAC7"/>
<path d="M200.1 162.089C201.149 162.089 202 161.27 202 160.261C202 159.251 201.149 158.433 200.1 158.433C199.051 158.433 198.2 159.251 198.2 160.261C198.2 161.27 199.051 162.089 200.1 162.089Z" fill="#B4BAC7"/>
<path d="M109.4 177.961C110.449 177.961 111.3 177.142 111.3 176.133C111.3 175.124 110.449 174.305 109.4 174.305C108.351 174.305 107.5 175.124 107.5 176.133C107.5 177.142 108.351 177.961 109.4 177.961Z" fill="#B4BAC7"/>
<path d="M127.6 177.961C128.649 177.961 129.5 177.142 129.5 176.133C129.5 175.124 128.649 174.305 127.6 174.305C126.551 174.305 125.7 175.124 125.7 176.133C125.7 177.142 126.551 177.961 127.6 177.961Z" fill="#B4BAC7"/>
<path d="M145.7 177.961C146.749 177.961 147.6 177.142 147.6 176.133C147.6 175.124 146.749 174.305 145.7 174.305C144.651 174.305 143.8 175.124 143.8 176.133C143.8 177.142 144.651 177.961 145.7 177.961Z" fill="#B4BAC7"/>
<path d="M163.8 177.961C164.849 177.961 165.7 177.142 165.7 176.133C165.7 175.124 164.849 174.305 163.8 174.305C162.751 174.305 161.9 175.124 161.9 176.133C161.9 177.142 162.751 177.961 163.8 177.961Z" fill="#B4BAC7"/>
<path d="M182 177.961C183.049 177.961 183.9 177.142 183.9 176.133C183.9 175.124 183.049 174.305 182 174.305C180.951 174.305 180.1 175.124 180.1 176.133C180.1 177.142 180.951 177.961 182 177.961Z" fill="#B4BAC7"/>
<path d="M200.1 177.961C201.149 177.961 202 177.142 202 176.133C202 175.124 201.149 174.305 200.1 174.305C199.051 174.305 198.2 175.124 198.2 176.133C198.2 177.142 199.051 177.961 200.1 177.961Z" fill="#B4BAC7"/>
</svg>
