<svg width="69" height="69" viewBox="0 0 69 69" fill="none" xmlns="http://www.w3.org/2000/svg">
<path d="M37.3586 2.88322C37.3586 1.29086 36.0677 0 34.4754 0C32.883 0 31.5921 1.29086 31.5921 2.88322V66.1168C31.5921 67.7091 32.883 69 34.4754 69C36.0677 69 37.3586 67.7091 37.3586 66.1168V2.88322Z" fill="#3FE0B9"/>
<path d="M69 34.4754C69 32.883 67.7091 31.5921 66.1168 31.5921H2.88322C1.29086 31.5921 0 32.883 0 34.4754C0 36.0677 1.29086 37.3586 2.88322 37.3586H66.1168C67.7091 37.3586 69 36.0677 69 34.4754Z" fill="#3FE0B9"/>
<path d="M54.8176 58.8709C55.9435 59.9968 57.7691 59.9968 58.895 58.8709C60.021 57.7449 60.021 55.9194 58.895 54.7934L14.1826 10.081C13.0566 8.95502 11.2311 8.95502 10.1051 10.081C8.97917 11.2069 8.97917 13.0325 10.1051 14.1584L54.8176 58.8709Z" fill="#3FE0B9"/>
<path d="M10.1153 54.8178C8.98937 55.9437 8.98937 57.7693 10.1153 58.8952C11.2413 60.0212 13.0668 60.0212 14.1928 58.8952L58.9052 14.1828C60.0312 13.0568 60.0312 11.2313 58.9052 10.1053C57.7793 8.97937 55.9537 8.97937 54.8278 10.1053L10.1153 54.8178Z" fill="#3FE0B9"/>
</svg>
