<svg width="72" height="77" viewBox="0 0 72 77" fill="none" xmlns="http://www.w3.org/2000/svg">
<path d="M36.2758 38.6729C23.9882 54.1224 9.5282 63.0684 3.9784 58.6544C-1.5714 54.2404 3.89063 38.138 16.1782 22.6885C28.4657 7.23909 42.9258 -1.70692 48.4756 2.70705C54.0254 7.12103 48.5633 23.2235 36.2758 38.6729ZM36.2758 38.6729C23.9882 54.1224 18.5262 70.2249 24.076 74.6388C29.6258 79.0528 44.0858 70.1068 56.3734 54.6574C68.6609 39.2079 74.123 23.1054 68.5732 18.6915C63.0234 14.2775 48.5633 23.2235 36.2758 38.6729ZM46.3246 46.6652C34.037 62.1146 19.577 71.0606 14.0272 66.6466C8.4774 62.2327 13.9394 46.1302 26.227 30.6807C38.5145 15.2313 52.9746 6.28529 58.5244 10.6993C64.0742 15.1132 58.6121 31.2157 46.3246 46.6652Z" stroke="#FF429D" stroke-width="2" stroke-miterlimit="10"/>
</svg>
