<svg width="382" height="320" viewBox="0 0 382 320" fill="none" xmlns="http://www.w3.org/2000/svg">
<path d="M170.325 -13.554C140.407 -42.6115 109.569 -51.9828 83.477 -53.573C46.0391 -55.8492 12.3706 -43.013 3.65913 -1.82143C2.01397 5.97932 1.37075 15.2754 5.04024 26.2277C10.7675 43.3155 24.8954 58.7808 37.7236 70.2353C69.6789 98.7807 102.166 116.814 133.689 132.462C163.049 147.04 192.091 159.938 220.816 171.156C243.232 179.932 265.854 187.685 284.687 185.969C287.38 185.718 290.202 185.02 290.476 181.516C290.558 179.186 289.806 176.297 288.377 173.448C282.658 161.506 271.706 154.869 263.163 151.667C220.171 135.697 187.294 150.766 163.918 176.48C156.417 184.746 149.473 195.228 151.646 212.799C154.547 236.398 173.808 265.748 193.235 282.898C212.662 300.047 232.08 307.511 250.395 313.314C296.591 327.893 340.5 334.7 381.176 333.59" stroke="#36337E" stroke-width="3" stroke-miterlimit="10"/>
</svg>
