<svg width="247" height="247" viewBox="0 0 247 247" fill="none" xmlns="http://www.w3.org/2000/svg">
<path d="M95.0016 66.4275C90.3345 62.885 84.886 60.4994 79.1074 59.4685C73.3288 58.4375 67.3864 58.7907 61.7724 60.499C55.4433 61.2152 49.0368 60.8138 42.8481 59.3133C42.4935 59.1869 42.1078 59.1752 41.746 59.2798C41.3843 59.3844 41.065 59.6 40.8337 59.8957C40.6024 60.1915 40.471 60.5524 40.4581 60.9269C40.4452 61.3014 40.5516 61.6703 40.762 61.9811C43.6409 67.4758 45.4603 73.4579 46.1264 79.6184C45.6907 85.4672 46.6515 91.3356 48.9304 96.7448C51.2093 102.154 54.7416 106.95 59.2392 110.743C53.4755 112.177 48.1528 114.993 43.7367 118.946C39.3207 122.9 35.9459 127.869 33.9075 133.42C30.4852 138.771 26.1483 143.486 21.0927 147.352C20.877 147.584 20.7221 147.865 20.6416 148.171C20.5611 148.477 20.5575 148.798 20.6311 149.105C20.7047 149.413 20.8533 149.698 21.0637 149.935C21.2742 150.172 21.54 150.353 21.8377 150.464C28.1458 151.705 34.1617 154.118 39.5699 157.578C44.7534 161.955 50.7181 165.324 57.1531 167.509C62.049 168.69 67.1581 168.69 72.0541 167.509C69.9447 171.362 68.6277 175.594 68.1798 179.958C68.5447 187.171 70.5305 194.211 73.9912 200.56C76.1616 206.593 77.1725 212.978 76.9714 219.383C76.9822 219.756 77.1017 220.118 77.3152 220.424C77.5287 220.731 77.8271 220.969 78.1743 221.111C78.5214 221.252 78.9023 221.29 79.2707 221.22C79.6391 221.15 79.9791 220.975 80.2496 220.717C84.9661 216.648 90.4314 213.527 96.3427 211.528C102.166 210.726 107.706 208.525 112.483 205.116C117.26 201.708 121.131 197.194 123.761 191.964C126.435 197.189 130.337 201.696 135.136 205.102C139.935 208.508 145.489 210.712 151.327 211.528C157.197 213.618 162.646 216.729 167.42 220.717C167.691 220.975 168.031 221.15 168.399 221.22C168.768 221.29 169.149 221.252 169.496 221.111C169.843 220.969 170.141 220.731 170.355 220.424C170.568 220.118 170.688 219.756 170.699 219.383C170.498 212.978 171.508 206.593 173.679 200.56C177.264 193.842 179.204 186.377 179.341 178.773C178.893 174.408 177.576 170.176 175.467 166.323C180.362 167.51 185.473 167.51 190.368 166.323C196.803 164.138 202.768 160.77 207.951 156.393C213.359 152.933 219.375 150.519 225.683 149.278C225.93 149.099 226.13 148.865 226.268 148.595C226.406 148.324 226.478 148.025 226.478 147.722C226.478 147.419 226.406 147.12 226.268 146.849C226.13 146.579 225.93 146.345 225.683 146.166C220.729 142.656 216.398 138.348 212.868 133.42C210.77 127.952 207.368 123.072 202.956 119.2C198.544 115.327 193.253 112.578 187.537 111.188C192.034 107.395 195.567 102.599 197.846 97.1894C200.124 91.7803 201.085 85.9119 200.65 80.0631C201.316 73.9025 203.135 67.9204 206.014 62.4258C206.429 62.1506 206.717 61.7227 206.815 61.2363C206.913 60.7499 206.812 60.2448 206.536 59.832C206.259 59.4193 205.829 59.1328 205.34 59.0355C204.851 58.9382 204.343 59.0381 203.928 59.3133C197.689 60.8159 191.233 61.2172 184.855 60.499C179.265 58.7912 173.346 58.4383 167.591 59.4696C161.836 60.5009 156.413 62.8866 151.774 66.4275C151.655 60.5862 150.148 54.8558 147.377 49.7042C144.606 44.5525 140.649 40.1257 135.83 36.785C131.312 32.2185 127.631 26.9016 124.953 21.0744C124.798 20.7964 124.571 20.5647 124.296 20.4034C124.021 20.242 123.707 20.1569 123.388 20.1569C123.069 20.1569 122.755 20.242 122.48 20.4034C122.205 20.5647 121.978 20.7964 121.823 21.0744C119.145 26.9016 115.464 32.2185 110.946 36.785C106.109 40.1084 102.14 44.5315 99.3669 49.6869C96.5939 54.8424 95.0974 60.5814 95.0016 66.4275ZM117.8 48.4938C111.84 41.3796 119.29 33.6725 123.313 27.8922C127.486 34.4136 135.085 41.2313 128.976 48.4938C127.369 49.7079 125.406 50.3652 123.388 50.3652C121.37 50.3652 119.407 49.7079 117.8 48.4938ZM116.757 52.0509C118 52.8082 119.359 53.3589 120.78 53.6812C121.479 58.347 120.698 63.1135 118.545 67.3168C117.653 68.7929 117.189 70.4856 117.204 72.2078C117.393 73.7543 118.097 75.1933 119.204 76.2949C120.312 77.3964 121.759 78.097 123.313 78.2845C124.873 78.135 126.337 77.4697 127.472 76.395C128.606 75.3202 129.346 73.8981 129.572 72.356C129.584 70.5874 129.121 68.8478 128.231 67.3168C126.087 63.1104 125.307 58.3469 125.996 53.6812C127.417 53.3589 128.776 52.8082 130.019 52.0509C133.183 56.4385 135.228 61.5246 135.979 66.8721C135.979 74.431 132.403 84.213 123.313 84.213C119.76 83.677 116.522 81.8819 114.194 79.1583C111.866 76.4346 110.607 72.9661 110.648 69.3917C110.855 63.1264 112.987 57.0746 116.757 52.0509ZM137.767 78.1363C139.05 80.5472 141.067 82.4917 143.531 83.6901C145.994 84.8885 148.776 85.2791 151.476 84.8059C150.502 86.7546 149.896 88.8645 149.688 91.0308C146.685 91.8474 143.483 91.5074 140.721 90.0788C137.959 88.6502 135.84 86.238 134.787 83.3237C136.014 81.7379 137.017 79.9925 137.767 78.1363ZM199.905 64.6489C197.371 71.7632 196.924 81.5452 187.239 81.6934C185.281 81.2537 183.534 80.1613 182.287 78.5975C181.041 77.0338 180.369 75.0928 180.384 73.0971C182.321 63.9079 192.156 65.5382 199.905 64.6489ZM176.808 74.1346C177.097 75.5636 177.547 76.9557 178.149 78.2845C175.11 81.8122 170.962 84.2148 166.377 85.1023C164.596 85.3006 162.899 85.9654 161.46 87.0291C160.415 88.1193 159.803 89.5495 159.737 91.0543C159.672 92.5592 160.157 94.0367 161.103 95.2129C162.049 96.3892 163.392 97.1843 164.882 97.4509C166.373 97.7175 167.91 97.4375 169.209 96.6629C170.649 95.5939 171.696 94.0837 172.189 92.3647C174.005 88.0812 177.274 84.567 181.427 82.4345C182.618 83.2138 183.863 83.9072 185.153 84.5094C181.278 95.1807 168.165 112.67 156.394 99.3307C155.237 97.8352 154.402 96.1195 153.939 94.2897C153.476 92.46 153.396 90.5552 153.703 88.6934C154.01 86.8315 154.699 85.0523 155.725 83.4658C156.752 81.8793 158.095 80.5194 159.672 79.4702C164.741 76.0726 170.696 74.2184 176.808 74.1346ZM172.785 121.563C170.627 121.999 168.56 122.801 166.675 123.934C164 122.2 162.103 119.503 161.38 116.409C160.658 113.315 161.167 110.063 162.801 107.334C164.97 107.708 167.188 107.708 169.358 107.334C168.367 109.813 168.164 112.535 168.777 115.132C169.39 117.729 170.789 120.077 172.785 121.859V121.563ZM212.421 139.645C213.729 140.978 214.925 142.416 215.998 143.943L218.68 146.759C211.527 149.278 203.034 154.91 197.52 147.648C196.728 145.823 196.532 143.798 196.96 141.856C197.388 139.915 198.418 138.156 199.905 136.828H209.143L212.421 139.645ZM194.242 138.755C189.296 138.295 184.612 136.328 180.831 133.123C179.752 132.152 178.4 131.532 176.957 131.345C175.428 131.135 173.875 131.508 172.611 132.391C171.347 133.273 170.467 134.599 170.146 136.101C169.825 137.603 170.088 139.171 170.881 140.488C171.675 141.805 172.941 142.775 174.424 143.202C176.032 143.651 177.733 143.651 179.341 143.202C183.999 142.155 188.862 142.464 193.348 144.091C193.444 145.51 193.746 146.907 194.242 148.241C188.23 150.812 181.557 151.435 175.169 150.019C167.569 147.796 160.268 139.348 165.334 131.345C173.232 118.302 189.325 127.639 197.222 135.346C196.021 136.285 195.01 137.442 194.242 138.755ZM165.93 212.862C159.523 208.86 149.986 206.192 152.072 196.855C152.936 195.037 154.393 193.564 156.206 192.676C158.019 191.787 160.081 191.536 162.056 191.964C170.252 196.114 166.675 205.303 165.781 213.01L165.93 212.862ZM161.46 188.258C160.023 188.113 158.575 188.113 157.139 188.258C155.763 186.214 154.614 184.027 153.712 181.737C153.41 179.574 153.41 177.379 153.712 175.216C154 173.5 153.74 171.737 152.966 170.176C152.139 168.833 150.878 167.809 149.389 167.271C147.901 166.732 146.273 166.712 144.771 167.212C143.522 167.915 142.54 169.006 141.975 170.318C141.409 171.63 141.292 173.09 141.642 174.474C141.919 175.825 142.594 177.063 143.579 178.032C144.622 179.069 145.963 179.365 147.006 180.255C149.934 183.027 152.003 186.576 152.966 190.481C151.868 191.425 150.914 192.524 150.135 193.742C140.599 187.517 126.294 171.066 141.344 162.321C142.985 161.55 144.765 161.11 146.579 161.028C148.392 160.947 150.205 161.224 151.91 161.845C153.615 162.465 155.179 163.416 156.512 164.643C157.844 165.87 158.918 167.348 159.672 168.991C162.402 175.094 162.98 181.936 161.311 188.406L161.46 188.258ZM115.863 173.437C115.892 171.22 115.539 169.014 114.82 166.916C117.123 164.715 120.194 163.485 123.388 163.485C126.582 163.485 129.653 164.715 131.956 166.916C131.237 169.014 130.884 171.22 130.913 173.437C128.648 171.908 125.951 171.141 123.215 171.248C120.48 171.355 117.852 172.329 115.714 174.03L115.863 173.437ZM84.8689 192.705C86.8438 192.277 88.906 192.528 90.7191 193.417C92.5322 194.305 93.9893 195.778 94.8526 197.596C94.956 199.803 94.5064 202.002 93.544 203.994C92.5817 205.986 91.1368 207.709 89.3392 209.008C87.7001 210.046 85.912 210.638 84.2729 211.528C83.0822 212.081 81.9364 212.725 80.8456 213.454C80.1006 205.303 76.5244 196.114 84.8689 192.705ZM97.3858 194.78C96.5927 193.527 95.5838 192.423 94.4056 191.519C95.9348 186.788 98.9024 182.645 102.899 179.662C104.139 178.909 105.085 177.759 105.581 176.401C106.143 174.912 106.152 173.272 105.605 171.778C105.059 170.283 103.993 169.032 102.601 168.25C101.135 167.772 99.552 167.789 98.0971 168.299C96.6421 168.808 95.3968 169.78 94.5546 171.066C93.7321 172.557 93.4183 174.273 93.6605 175.957C93.6605 177.587 93.6605 179.514 93.6605 180.996C92.7342 183.999 91.2703 186.81 89.3392 189.296H89.9353C88.5488 189.143 87.1495 189.143 85.763 189.296C84.6117 183.21 85.2854 176.922 87.7001 171.214C88.3247 169.435 89.3093 167.803 90.5931 166.417C91.8769 165.032 93.4327 163.923 95.1643 163.159C96.8959 162.395 98.7665 161.992 100.661 161.976C102.555 161.959 104.432 162.329 106.177 163.062C121.227 171.51 106.922 187.962 97.3858 194.187V194.78ZM27.7981 147.055C33.1625 141.571 38.0798 132.234 46.8714 136.977C48.3522 138.341 49.3753 140.125 49.8018 142.087C50.2283 144.049 50.0376 146.094 49.2556 147.944C43.5932 155.207 35.0996 149.575 27.7981 147.055ZM53.7259 143.794C58.0959 142.126 62.8612 141.765 67.4348 142.757C69.3719 142.757 70.564 143.794 72.5011 142.757C74.0198 142.285 75.3261 141.302 76.1961 139.977C77.0661 138.652 77.4456 137.067 77.2694 135.495C76.8826 134.137 76.0634 132.941 74.935 132.086C73.8065 131.23 72.4296 130.762 71.011 130.752C69.6 130.727 68.2088 131.085 66.9877 131.789C65.7957 132.53 65.0506 133.864 64.0075 134.754C60.6713 136.897 56.8024 138.077 52.8318 138.162C52.2127 136.833 51.3542 135.627 50.2986 134.605C58.0471 127.491 74.1402 118.598 82.0377 131.196C82.8654 132.959 83.291 134.881 83.2841 136.826C83.2772 138.771 82.8379 140.691 81.9977 142.447C81.1576 144.203 79.9373 145.753 78.4243 146.985C76.9113 148.218 75.143 149.102 73.2462 149.575C66.5885 151.468 59.4758 150.996 53.1298 148.241C53.4739 146.782 53.6735 145.292 53.7259 143.794ZM77.4184 107.038C79.5878 107.411 81.8055 107.411 83.9749 107.038C85.6333 109.775 86.1409 113.052 85.3879 116.159C84.6349 119.266 82.6818 121.953 79.9516 123.638C78.1311 122.484 76.1094 121.68 73.9912 121.266C75.9272 119.507 77.2886 117.211 77.8996 114.675C78.5105 112.139 78.3429 109.478 77.4184 107.038ZM96.9387 94.7361C100.641 95.7736 104.595 95.4449 108.073 93.8106C111.551 92.1764 114.318 89.3468 115.863 85.8434C118.053 87.3475 120.652 88.1532 123.313 88.1532C125.975 88.1532 128.574 87.3475 130.764 85.8434C132.309 89.3468 135.076 92.1764 138.554 93.8106C142.032 95.4449 145.986 95.7736 149.688 94.7361C149.83 97.415 150.763 99.9927 152.37 102.147C154.153 104.213 156.473 105.752 159.076 106.593C157.337 110.024 156.923 113.97 157.911 117.684C158.9 121.399 161.223 124.624 164.44 126.75C163.03 128.146 161.915 129.809 161.162 131.641C159.902 134.781 159.902 138.283 161.162 141.423C157.404 142.161 154.034 144.209 151.658 147.197C149.281 150.185 148.055 153.919 148.198 157.726C145.583 157.287 142.896 157.596 140.45 158.616C137.896 159.917 135.775 161.924 134.34 164.396C131.569 161.768 127.887 160.303 124.059 160.303C120.23 160.303 116.548 161.768 113.777 164.396C112.551 161.937 110.542 159.949 108.062 158.743C105.583 157.537 102.773 157.179 100.068 157.726C100.211 153.919 98.9848 150.185 96.6085 147.197C94.2322 144.209 90.8621 142.161 87.1041 141.423C88.3645 138.283 88.3645 134.781 87.1041 131.641C86.3506 129.809 85.2359 128.146 83.8259 126.75C86.8925 124.493 89.0344 121.209 89.8561 117.504C90.6778 113.799 90.1237 109.923 88.2962 106.593C90.8995 105.752 93.2195 104.213 95.0016 102.147C96.3457 99.9113 97.0179 97.3396 96.9387 94.7361ZM84.5709 144.98C87.7908 145.316 90.7449 146.91 92.7845 149.411C94.824 151.912 95.7822 155.116 95.4486 158.319C93.458 159.127 91.5997 160.226 89.9353 161.58C89.8211 158.873 88.8528 156.271 87.1677 154.143C85.4826 152.014 83.1663 150.468 80.5476 149.723C82.1622 148.393 83.5248 146.787 84.5709 144.98ZM156.841 161.58C155.131 160.213 153.221 159.114 151.178 158.319C150.845 155.116 151.803 151.912 153.842 149.411C155.882 146.91 158.836 145.316 162.056 144.98C163.201 146.759 164.608 148.358 166.228 149.723C163.61 150.468 161.293 152.014 159.608 154.143C157.923 156.271 156.955 158.873 156.841 161.58ZM109.009 78.1363C109.99 80.0366 111.245 81.7842 112.734 83.3237C111.653 86.2172 109.529 88.608 106.776 90.0321C104.022 91.4562 100.835 91.8121 97.8328 91.0308C97.6246 88.8645 97.0186 86.7546 96.0447 84.8059C98.629 85.1173 101.248 84.6477 103.56 83.4581C105.872 82.2685 107.771 80.4141 109.009 78.1363ZM89.9353 100.22C78.1635 112.966 65.0506 95.329 61.1764 85.3987C62.4664 84.7965 63.7113 84.1031 64.9016 83.3237C69.2606 85.181 72.8402 88.4797 75.0343 92.6611C75.527 94.3801 76.5742 95.8903 78.0145 96.9593C79.3132 97.734 80.8504 98.0139 82.3408 97.7473C83.8313 97.4807 85.174 96.6856 86.1201 95.5094C87.0661 94.3331 87.5513 92.8556 87.4856 91.3508C87.4199 89.8459 86.8079 88.4157 85.763 87.3255C84.3613 86.1968 82.6446 85.5241 80.8456 85.3987C76.2611 84.5113 72.1128 82.1087 69.0739 78.5809C69.5455 77.1386 69.8455 75.6463 69.9679 74.1346C75.2361 74.5516 80.336 76.1748 84.8689 78.8774C86.6843 79.8783 88.2695 81.2455 89.5228 82.8913C90.776 84.537 91.6698 86.425 92.1468 88.4344C92.6238 90.4437 92.6734 92.53 92.2926 94.5595C91.9118 96.5891 91.1088 98.5171 89.9353 100.22ZM60.1333 81.6934C52.6828 81.6934 50.1496 74.2828 48.8085 68.3543C48.8085 67.0203 48.0635 65.8346 47.6165 64.6489C55.365 65.5382 65.0506 64.6489 66.9877 73.0971C66.9763 75.086 66.2948 77.0137 65.0522 78.572C63.8097 80.1303 62.0777 81.2293 60.1333 81.6934ZM46.2754 121.118C51.18 116.713 57.4177 114.054 64.0075 113.559C65.7957 113.559 65.6467 110.891 64.0075 110.15C59.0294 107.044 55.0061 102.635 52.3779 97.4073C49.7498 92.1792 48.618 86.3327 49.1066 80.5077C50.0527 81.716 51.2459 82.7107 52.6073 83.4261C53.9688 84.1415 55.4674 84.5613 57.0041 84.6576C57.9954 88.8813 59.8239 92.8657 62.3825 96.3778C64.9412 99.8898 68.1785 102.859 71.9051 105.111C72.7936 106.249 73.4224 107.566 73.7479 108.97C74.0735 110.374 74.0879 111.832 73.7901 113.242C73.4924 114.652 72.8896 115.981 72.0238 117.137C71.1579 118.292 70.0496 119.246 68.7759 119.932C64.3957 120.584 60.1947 122.116 56.4289 124.435C52.6631 126.754 49.4113 129.811 46.8714 133.42C44.0349 132.376 40.9164 132.376 38.0798 133.42C40.1539 128.921 42.9188 124.771 46.2754 121.118ZM71.458 181.44C71.6411 175.309 73.5514 169.352 76.9714 164.248C77.1586 163.948 77.2519 163.6 77.2396 163.247C77.2273 162.895 77.1098 162.554 76.9022 162.268C76.6945 161.982 76.406 161.764 76.0734 161.641C75.7408 161.519 75.3791 161.497 75.0343 161.58C68.5029 164.026 61.3003 164.026 54.7689 161.58C50.6966 159.688 46.8484 157.352 43.2952 154.614C46.2853 154.275 49.0445 152.85 51.0437 150.612C59.0576 154.178 68.1646 154.444 76.3754 151.353C79.2387 151.652 81.8661 153.068 83.6817 155.291C85.4972 157.514 86.3528 160.361 86.061 163.21C83.5796 166.808 81.8747 170.878 81.054 175.163C80.2333 179.449 80.3146 183.857 81.2927 188.11C79.9209 188.842 78.7205 189.854 77.7702 191.08C76.8199 192.306 76.1414 193.719 75.7793 195.224C73.6357 190.878 72.1782 186.229 71.458 181.44ZM125.251 185.887C125.135 185.484 124.891 185.13 124.555 184.878C124.218 184.626 123.809 184.489 123.388 184.489C122.967 184.489 122.557 184.626 122.221 184.878C121.885 185.13 121.641 185.484 121.525 185.887C119.496 191.149 116.117 195.792 111.726 199.354C107.334 202.916 102.082 205.273 96.4917 206.192C98.2013 203.78 98.9451 200.821 98.5778 197.892C102.558 195.851 106.077 193.023 108.921 189.583C111.765 186.143 113.873 182.162 115.118 177.883C116.067 176.859 117.219 176.042 118.501 175.483C119.783 174.924 121.168 174.636 122.568 174.636C123.969 174.636 125.353 174.924 126.636 175.483C127.918 176.042 129.07 176.859 130.019 177.883C130.019 177.883 130.019 177.883 130.764 177.883C132.081 182.034 134.224 185.879 137.066 189.189C139.907 192.499 143.389 195.207 147.304 197.151C147.024 198.649 147.064 200.189 147.424 201.671C147.783 203.152 148.453 204.541 149.39 205.747C144.025 204.691 139.008 202.323 134.794 198.855C130.58 195.388 127.3 190.931 125.251 185.887ZM171.891 161.58C171.536 161.454 171.15 161.442 170.789 161.547C170.427 161.651 170.108 161.867 169.876 162.162C169.645 162.458 169.514 162.819 169.501 163.194C169.488 163.568 169.594 163.937 169.805 164.248C173.225 169.352 175.135 175.309 175.318 181.44C174.518 186.618 172.856 191.627 170.401 196.262C170.038 194.756 169.36 193.344 168.41 192.117C167.459 190.891 166.259 189.879 164.887 189.148C165.865 184.895 165.947 180.486 165.126 176.201C164.305 171.915 162.6 167.845 160.119 164.248C159.954 162.834 160.075 161.401 160.476 160.034C160.876 158.667 161.547 157.394 162.449 156.289C163.352 155.184 164.468 154.27 165.731 153.601C166.994 152.931 168.379 152.52 169.805 152.391C178.015 155.482 187.122 155.215 195.136 151.65C197.135 153.887 199.895 155.312 202.885 155.651C199.368 158.442 195.513 160.782 191.411 162.617C184.972 164.464 178.095 164.099 171.891 161.58ZM182.321 110.15C181.129 110.891 180.98 113.263 182.321 113.559C188.937 113.949 195.208 116.622 200.054 121.118C203.677 124.75 206.74 128.896 209.143 133.42C206.307 132.376 203.188 132.376 200.352 133.42C197.557 130.046 194.115 127.26 190.226 125.224C186.338 123.188 182.08 121.943 177.702 121.563C176.428 120.876 175.32 119.922 174.454 118.767C173.588 117.612 172.986 116.283 172.688 114.873C172.39 113.462 172.404 112.005 172.73 110.6C173.056 109.196 173.684 107.879 174.573 106.741C178.299 104.489 181.537 101.52 184.095 98.0081C186.654 94.4961 188.483 90.5116 189.474 86.288C191.011 86.1916 192.509 85.7719 193.871 85.0565C195.232 84.3411 196.425 83.3463 197.371 82.138C197.545 87.7085 196.246 93.2268 193.605 98.1421C190.964 103.057 187.074 107.198 182.321 110.15ZM144.026 50.8652C147.697 56.9104 149.17 64.0261 148.198 71.0221C148.163 71.3969 148.248 71.7733 148.441 72.097C148.634 72.4206 148.926 72.6749 149.274 72.8232C149.622 72.9716 150.008 73.0062 150.377 72.9223C150.746 72.8383 151.079 72.64 151.327 72.356C155.395 68.3427 160.484 65.5053 166.048 64.1477C171.613 62.7901 177.444 62.9634 182.917 64.6489C181.508 65.273 180.264 66.2134 179.281 67.3963C178.299 68.5792 177.605 69.9725 177.255 71.4667C172.875 71.4991 168.547 72.408 164.527 74.1395C160.508 75.8711 156.88 78.3896 153.861 81.5452C152.456 82.0694 150.955 82.2904 149.458 82.1935C147.96 82.0965 146.501 81.684 145.176 80.9831C143.851 80.2823 142.692 79.3092 141.774 78.1284C140.856 76.9476 140.202 75.5862 139.854 74.1346C140.487 69.8158 140.247 65.4146 139.147 61.1896C138.046 56.9645 136.108 53.0008 133.446 49.5313C134.936 46.9234 135.362 43.8465 134.638 40.9349C138.166 43.5668 141.324 46.6574 144.026 50.1241V50.8652ZM111.989 40.9349C111.607 43.8642 112.352 46.829 114.075 49.2348C111.374 52.7411 109.414 56.7544 108.313 61.0335C107.212 65.3125 106.992 69.7689 107.667 74.1346C107.425 74.0554 107.164 74.0554 106.922 74.1346C105.949 76.7101 104 78.8039 101.493 79.9675C98.9866 81.1311 96.1213 81.2718 93.5115 80.3595C90.4916 77.2039 86.8639 74.6854 82.8447 72.9538C78.8254 71.2223 74.4969 70.3133 70.117 70.281C69.7462 68.7956 69.045 67.4119 68.065 66.2319C67.085 65.0519 65.8512 64.1058 64.4546 63.4632C69.9278 61.7777 75.7589 61.6044 81.3235 62.962C86.8882 64.3196 91.9768 67.157 96.0447 71.1703C96.2931 71.4543 96.6258 71.6526 96.9948 71.7366C97.3638 71.8205 97.7501 71.7859 98.098 71.6376C98.4459 71.4892 98.7375 71.2349 98.9309 70.9113C99.1242 70.5876 99.2093 70.2112 99.1739 69.8364C98.0998 62.8374 99.5799 55.6872 103.346 49.6795C105.884 46.4474 108.783 43.5136 111.989 40.9349Z" fill="#3B387A"/>
<path d="M26.9041 46.567C26.5494 46.4407 26.1637 46.4289 25.802 46.5335C25.4402 46.6381 25.1209 46.8537 24.8897 47.1495C24.6584 47.4452 24.5269 47.8061 24.514 48.1806C24.5012 48.5551 24.6075 48.924 24.8179 49.2348C27.8156 55.9911 30.4031 62.9201 32.5665 69.9846C33.6619 74.5162 34.4091 79.1241 34.8016 83.7684C24.8179 78.7291 16.7714 85.6951 13.0462 95.329C12.4113 94.6159 11.5863 94.0963 10.6667 93.8306C9.74711 93.5649 8.77064 93.5638 7.85047 93.8275C6.93029 94.0912 6.10411 94.6089 5.46767 95.3206C4.83124 96.0323 4.41062 96.9088 4.25457 97.8486C3.86983 98.7849 3.76062 99.8108 3.93968 100.807C4.11873 101.802 4.57867 102.727 5.26588 103.473C5.95308 104.218 6.83923 104.754 7.82102 105.018C8.8028 105.282 9.83976 105.263 10.811 104.963C10.811 115.189 14.3872 124.823 25.712 124.527C23.3145 128.511 20.5722 132.28 17.5165 135.791C12.1958 141.382 6.5219 146.629 0.529325 151.502C-0.662754 152.391 0.529325 154.169 0.529325 154.614C7.89561 156.398 15.1178 158.727 22.1358 161.58C26.4261 163.423 30.5618 165.604 34.5036 168.101C23.7749 172.548 24.3709 182.923 29.7353 192.408C28.7162 192.41 27.7213 192.716 26.8803 193.289C26.0394 193.861 25.3915 194.673 25.0214 195.617C24.6513 196.562 24.5761 197.595 24.8056 198.583C25.0351 199.57 25.5587 200.466 26.308 201.153C26.8208 202.036 27.5842 202.75 28.5027 203.204C29.4212 203.659 30.454 203.834 31.4719 203.707C32.4897 203.58 33.4475 203.158 34.2253 202.493C35.0031 201.828 35.5663 200.949 35.8447 199.967C43.4442 207.081 53.7259 209.897 60.4313 201.005C62.1435 205.37 63.4406 209.886 64.3056 214.492C66.0028 221.957 67.1483 229.537 67.7328 237.168C67.7309 237.53 67.8401 237.885 68.0459 238.183C68.2516 238.482 68.5442 238.711 68.8843 238.84C69.2245 238.969 69.5961 238.991 69.9495 238.904C70.3029 238.818 70.6212 238.626 70.862 238.354C76.9198 233.722 83.2928 229.513 89.9353 225.756C94.0871 223.555 98.425 221.72 102.899 220.272C99.9189 231.24 108.562 237.465 118.843 238.947C118.301 239.769 118.005 240.727 117.989 241.709C117.973 242.692 118.238 243.659 118.754 244.498C119.269 245.336 120.013 246.012 120.899 246.446C121.786 246.881 122.778 247.055 123.761 246.95C124.755 247.088 125.768 246.937 126.679 246.516C127.589 246.095 128.358 245.422 128.893 244.576C129.428 243.731 129.706 242.751 129.694 241.752C129.683 240.753 129.381 239.779 128.827 238.947C139.109 237.465 147.602 231.24 144.92 220.42C149.342 221.817 153.631 223.602 157.735 225.756C164.207 229.339 170.429 233.35 176.361 237.761C176.569 237.982 176.83 238.147 177.12 238.239C177.41 238.332 177.719 238.349 178.017 238.29C178.315 238.23 178.594 238.096 178.825 237.9C179.057 237.704 179.235 237.452 179.341 237.168C179.512 229.767 180.209 222.388 181.427 215.085C182.314 210.451 183.56 205.892 185.153 201.449C192.007 210.49 202.289 207.674 209.888 200.56C210.19 201.503 210.756 202.34 211.52 202.974C212.284 203.607 213.215 204.01 214.201 204.134C215.188 204.259 216.19 204.1 217.089 203.677C217.988 203.254 218.747 202.584 219.276 201.746C220.017 201.067 220.537 200.185 220.772 199.211C221.006 198.237 220.943 197.216 220.592 196.277C220.24 195.339 219.615 194.526 218.797 193.943C217.979 193.359 217.004 193.031 215.998 193.001C221.362 183.96 221.809 173.141 211.229 168.694C215.294 165.972 219.581 163.592 224.044 161.58C231.062 158.727 238.284 156.398 245.651 154.614C246.843 154.614 247.588 152.391 246.396 151.502C240.608 146.61 235.133 141.363 230.005 135.791C226.949 132.28 224.207 128.511 221.809 124.527C233.134 124.527 236.71 115.189 236.71 104.963C237.69 105.302 238.748 105.351 239.756 105.105C240.763 104.858 241.677 104.326 242.387 103.573C243.097 102.82 243.572 101.878 243.754 100.862C243.937 99.8463 243.819 98.7994 243.415 97.8486C243.259 96.9088 242.839 96.0323 242.202 95.3206C241.566 94.6089 240.74 94.0912 239.82 93.8275C238.899 93.5638 237.923 93.5649 237.003 93.8306C236.084 94.0963 235.259 94.6159 234.624 95.329C230.899 85.6951 222.852 78.7291 212.868 83.7684C213.261 79.1241 214.008 74.5162 215.104 69.9846C217.267 62.9201 219.854 55.9911 222.852 49.2348C223.063 48.924 223.169 48.5551 223.156 48.1806C223.143 47.8061 223.012 47.4452 222.78 47.1495C222.549 46.8537 222.23 46.6381 221.868 46.5335C221.506 46.4289 221.121 46.4407 220.766 46.567C213.482 48.0007 206.117 48.9906 198.712 49.5313C193.751 49.8623 188.773 49.8623 183.812 49.5313C191.262 40.9349 186.196 31.4493 177.404 25.669C178.338 25.2917 179.137 24.6459 179.7 23.8143C180.263 22.9826 180.564 22.0028 180.564 21.0003C180.564 19.9978 180.263 19.0181 179.7 18.1864C179.137 17.3547 178.338 16.7089 177.404 16.3316C172.189 13.812 168.612 17.5173 169.358 21.3709C159.374 18.1102 148.943 20.0369 146.708 31.4493C143.328 28.2141 140.237 24.6932 137.469 20.9262C132.81 14.5704 128.627 7.88286 124.953 0.917514C124.798 0.639524 124.571 0.407808 124.296 0.246454C124.021 0.0851004 123.707 0 123.388 0C123.069 0 122.755 0.0851004 122.48 0.246454C122.205 0.407808 121.978 0.639524 121.823 0.917514C118.364 7.65713 114.43 14.1452 110.052 20.3334C107.289 24.1046 104.198 27.626 100.813 30.8565C98.5778 19.4441 88.1471 17.5173 78.1635 20.778C78.1635 16.9245 75.3323 13.2192 70.1169 15.7388C69.1831 16.1161 68.3837 16.7619 67.8209 17.5935C67.258 18.4252 66.9574 19.4049 66.9574 20.4075C66.9574 21.41 67.258 22.3897 67.8209 23.2214C68.3837 24.0531 69.1831 24.6989 70.1169 25.0762C61.3254 30.8565 56.259 39.8974 63.7095 48.9384C58.7482 49.273 53.7698 49.273 48.8085 48.9384C41.4657 48.5877 34.1508 47.7958 26.9041 46.567ZM26.9041 108.372C26.138 106.749 25.9419 104.917 26.3472 103.17C26.7525 101.424 27.7357 99.8626 29.1392 98.7378H34.2056C35.2508 99.5964 36.1121 100.655 36.7387 101.85L35.3976 107.631C34.3715 108.508 33.1428 109.119 31.8214 109.409L26.9041 108.372ZM28.3942 120.822C4.10556 124.823 15.4303 74.1346 35.2486 88.0665C35.2486 90.8826 35.2486 93.5504 35.2486 96.3664C34.0145 95.5375 32.5944 95.0229 31.1134 94.8678C29.6324 94.7127 28.1357 94.922 26.7551 95.4772C24.5026 97.1355 22.9094 99.5301 22.2554 102.241C21.6014 104.951 21.9283 107.804 23.1788 110.298H23.9239C24.8915 111.156 26.0247 111.809 27.2545 112.217C28.4843 112.625 29.7847 112.779 31.0764 112.67H31.8214L30.6293 114.3L27.3511 119.932L28.3942 120.822ZM40.0169 170.621L43.5932 172.992C44.8314 173.778 46.1264 174.472 47.4674 175.067H45.9773C44.4873 175.489 43.1303 176.282 42.035 177.371C40.9396 178.46 40.1424 179.81 39.7189 181.292C39.5643 184.067 40.4326 186.802 42.1609 188.985C43.8892 191.168 46.3588 192.648 49.1066 193.149C50.6596 193.081 52.1703 192.625 53.4987 191.821C54.8271 191.018 55.9303 189.895 56.7061 188.555L59.5372 195.965C48.3615 218.049 15.4303 176.994 39.5699 170.621H40.0169ZM50.2986 190.037C48.5095 189.667 46.9002 188.702 45.7357 187.301C44.5711 185.9 43.9206 184.147 43.8912 182.33L47.3184 178.773H51.1927L54.7689 183.515C54.7514 184.882 54.4994 186.235 54.0239 187.517L50.2986 190.037ZM107.071 218.938L113.181 217.012L114.969 216.122C114.469 217.514 114.303 219.002 114.484 220.469C114.665 221.936 115.189 223.34 116.012 224.57C118.102 226.307 120.739 227.258 123.462 227.258C126.186 227.258 128.823 226.307 130.913 224.57C131.747 223.345 132.277 221.94 132.459 220.471C132.64 219.003 132.468 217.512 131.956 216.122L139.705 218.642C148.645 241.467 97.8328 241.467 106.624 218.938H107.071ZM118.992 223.088V217.901C119.676 216.701 120.586 215.644 121.674 214.788H127.486C128.574 215.644 129.485 216.701 130.168 217.901V223.088C129.428 223.888 128.53 224.526 127.53 224.962C126.529 225.399 125.449 225.624 124.357 225.624C123.264 225.624 122.184 225.399 121.183 224.962C120.183 224.526 119.285 223.888 118.545 223.088H118.992ZM186.941 197.003C186.941 195.076 188.282 193.298 189.176 191.223C190.07 189.148 189.176 189.889 189.176 188.999C189.952 190.339 191.055 191.463 192.383 192.266C193.712 193.069 195.222 193.526 196.775 193.594C199.55 193.125 202.055 191.658 203.814 189.472C205.572 187.286 206.461 184.533 206.312 181.737C205.942 180.253 205.181 178.893 204.107 177.799C203.033 176.705 201.686 175.915 200.203 175.512H199.16C200.417 174.997 201.616 174.351 202.736 173.585L206.759 171.066C231.197 176.994 198.265 218.197 186.494 196.706L186.941 197.003ZM197.371 190.333L193.199 187.814C192.653 186.552 192.399 185.184 192.454 183.812L196.03 179.069H200.352L203.779 182.626C203.662 184.455 202.918 186.189 201.67 187.538C200.423 188.887 198.747 189.769 196.924 190.037L197.371 190.333ZM219.276 121.118C218.382 119.784 217.637 118.45 216.892 117.116C216.024 115.872 215.079 114.684 214.061 113.559H215.104C216.395 113.668 217.696 113.514 218.925 113.106C220.155 112.699 221.288 112.046 222.256 111.188C223.507 108.693 223.833 105.84 223.179 103.13C222.525 100.419 220.932 98.0247 218.68 96.3664C217.299 95.8113 215.803 95.602 214.321 95.7571C212.84 95.9121 211.42 96.4268 210.186 97.2557C210.186 94.4397 210.186 91.7719 210.931 89.104C232.091 74.1346 242.67 124.823 218.829 120.822L219.276 121.118ZM218.084 98.7378C219.487 99.8626 220.47 101.424 220.876 103.17C221.281 104.917 221.085 106.749 220.319 108.372L215.402 110.002C214.08 109.712 212.852 109.101 211.825 108.223L210.484 102.443C211.111 101.248 211.972 100.189 213.017 99.3307L218.084 98.7378ZM149.539 33.8207C150.88 9.06921 198.116 32.0422 179.341 48.642H175.169C173.633 48.4844 172.085 48.4844 170.55 48.642C171.642 47.671 172.474 46.4438 172.968 45.0719C173.462 43.7 173.604 42.227 173.381 40.7867C172.237 38.2713 170.226 36.246 167.712 35.0771C165.198 33.9082 162.346 33.6728 159.672 34.4136C158.368 35.1023 157.253 36.0965 156.422 37.3102C155.591 38.5239 155.07 39.9206 154.904 41.3796C154.589 40.8679 154.185 40.4162 153.712 40.0456L149.539 33.8207ZM161.907 35.1546C163.667 34.7163 165.527 34.9065 167.161 35.692C168.794 36.4774 170.099 37.8084 170.848 39.4528C170.262 41.0049 169.765 42.5883 169.358 44.1956C168.219 44.9474 166.959 45.4989 165.632 45.8259L160.119 43.4545L159.225 39.4528C159.218 38.6096 159.418 37.7775 159.808 37.0286C160.197 36.2797 160.764 35.6364 161.46 35.1546H161.907ZM113.33 22.2601C116.973 16.9205 120.306 11.3782 123.313 5.66032C126.443 11.4406 129.87 16.9245 133.446 22.2601C137.219 26.7854 141.355 30.9986 145.814 34.8582C150.852 38.8498 154.926 43.9145 157.735 49.6795C157.782 49.9157 157.882 50.1385 158.027 50.3319C158.171 50.5253 158.357 50.6844 158.571 50.7978C158.784 50.9111 159.021 50.976 159.263 50.9877C159.505 50.9993 159.746 50.9575 159.97 50.8652C170.997 47.1599 185.749 52.6437 197.52 52.1991C204.077 52.1991 210.633 50.8652 217.19 49.6795C214.531 55.6611 212.242 61.7987 210.335 68.0578C207.206 79.322 209.292 95.0325 203.183 104.815C202.964 105.25 202.919 105.753 203.057 106.22C203.195 106.688 203.506 107.086 203.928 107.334C209.182 111.221 213.423 116.303 216.296 122.155C219.012 127.376 222.204 132.337 225.832 136.977C230.303 141.72 235.071 146.166 240.733 150.464C234.461 152.132 228.292 154.161 222.256 156.541C218.007 158.245 213.875 160.225 209.888 162.469C202.885 166.767 197.818 172.844 188.878 173.882C187.984 173.882 186.941 174.771 187.09 175.808C188.282 187.073 179.639 200.56 177.553 211.972C176.539 218.452 175.892 224.984 175.616 231.536C170.252 227.831 164.887 224.274 159.225 221.013C148.645 215.381 133.148 214.047 124.655 206.192C124.501 206.006 124.307 205.856 124.088 205.753C123.869 205.65 123.63 205.597 123.388 205.597C123.146 205.597 122.907 205.65 122.688 205.753C122.469 205.856 122.275 206.006 122.121 206.192C113.628 214.344 98.1308 215.678 87.5511 221.013C81.8887 224.274 76.5244 227.831 71.16 231.536C70.8839 224.984 70.2372 218.452 69.2229 211.972C67.2858 202.19 58.4942 188.406 60.1333 177.883C60.1333 176.846 59.2392 176.105 58.3452 175.957C49.8516 175.067 43.4442 168.694 37.3348 164.544C33.3475 162.3 29.216 160.32 24.9669 158.616C18.9315 156.236 12.762 154.207 6.48972 152.539C11.4109 148.31 16.0874 143.807 20.4967 139.052C24.2232 134.421 27.5152 129.459 30.3313 124.23C33.3587 118.436 37.6322 113.375 42.8481 109.409C43.2697 109.161 43.5809 108.763 43.7191 108.295C43.8574 107.828 43.8124 107.325 43.5932 106.89C37.4838 97.1075 39.5699 81.397 36.4407 70.1328C34.5341 63.8736 32.245 57.7361 29.5863 51.7544C36.1427 52.9401 42.6991 53.6812 49.2556 54.2741C61.5283 51.9671 74.0398 51.1707 86.508 51.9027C86.7318 51.995 86.9733 52.0368 87.2153 52.0251C87.4573 52.0135 87.6936 51.9486 87.9073 51.8352C88.1211 51.7219 88.3069 51.5628 88.4514 51.3694C88.596 51.176 88.6956 50.9532 88.7432 50.717C91.5547 44.995 95.5692 39.9405 100.515 35.8957C105.213 31.7659 109.504 27.2 113.33 22.2601ZM85.316 35.1546C86.0947 35.5838 86.75 36.2041 87.2195 36.9565C87.689 37.7088 87.9571 38.5682 87.9981 39.4528L87.1041 43.4545L81.5907 45.8259C80.2829 45.591 79.0238 45.1401 77.8655 44.492C77.458 42.8847 76.9606 41.3013 76.3754 39.7492C77.0718 38.0502 78.3548 36.654 79.9937 35.8118C81.6326 34.9696 83.5198 34.7366 85.316 35.1546ZM97.6838 33.8207C96.6407 34.8582 95.5976 36.0439 94.4056 37.0814C93.3531 37.9608 92.4034 38.9551 91.5744 40.0456C91.5744 40.0456 91.5744 40.0456 91.5744 39.3046C91.408 37.8456 90.8869 36.4489 90.0561 35.2352C89.2253 34.0215 88.1098 33.0273 86.8061 32.3386C84.1323 31.5978 81.2804 31.8332 78.766 33.0021C76.2516 34.1711 74.2408 36.1963 73.0971 38.7117C72.7085 40.1232 72.6821 41.6091 73.0206 43.0333C73.359 44.4575 74.0514 45.7744 75.0343 46.8634H73.6932L67.4348 47.7527C49.1065 32.0422 96.3427 9.06921 97.6838 33.8207Z" fill="#3B387A"/>
<path d="M93.3625 125.416C94.6814 127.097 96.5388 128.278 98.6261 128.764C100.713 129.249 102.905 129.009 104.836 128.084C104.766 129.071 104.766 130.061 104.836 131.048C100.813 131.937 97.2367 133.568 96.3427 137.866C96.434 140.278 97.3121 142.595 98.8445 144.467C100.377 146.339 102.48 147.663 104.836 148.241C106.732 148.003 108.521 147.236 109.998 146.03C111.474 144.823 112.578 143.226 113.181 141.423C113.943 142.084 114.796 142.633 115.714 143.053C114.592 144.665 113.992 146.578 113.992 148.537C113.992 150.497 114.592 152.41 115.714 154.021C117.623 155.321 119.882 156.017 122.196 156.017C124.509 156.017 126.769 155.321 128.678 154.021C129.845 152.373 130.471 150.405 130.471 148.389C130.471 146.373 129.845 144.406 128.678 142.757C128.678 142.757 129.572 142.757 130.019 142.757L131.36 141.868C131.944 143.641 133.026 145.212 134.478 146.393C135.93 147.575 137.692 148.319 139.556 148.537C141.884 147.932 143.954 146.596 145.458 144.726C146.961 142.857 147.818 140.555 147.9 138.162C147.006 133.864 143.43 132.234 139.407 131.345C139.491 130.358 139.491 129.367 139.407 128.38C141.203 129.101 143.178 129.26 145.068 128.836C146.958 128.412 148.674 127.426 149.986 126.009C151.028 123.866 151.329 121.44 150.844 119.109C150.359 116.778 149.115 114.671 147.304 113.114C145.489 112.286 143.456 112.055 141.499 112.455C139.543 112.854 137.766 113.864 136.426 115.338L134.787 112.966C136.35 111.951 137.606 110.532 138.42 108.861C139.234 107.19 139.575 105.33 139.407 103.481C138.289 101.36 136.504 99.6617 134.324 98.6448C132.145 97.6278 129.691 97.3482 127.337 97.8486C125.632 98.837 124.266 100.313 123.416 102.084C122.565 103.854 122.27 105.839 122.568 107.779H121.972C122.292 105.837 122.006 103.845 121.154 102.07C120.302 100.295 118.923 98.8215 117.204 97.8486C114.998 97.11 112.613 97.085 110.391 97.7772C108.169 98.4695 106.225 99.8434 104.836 101.702C104.648 103.57 104.997 105.452 105.841 107.131C106.685 108.81 107.99 110.216 109.605 111.188C108.974 111.97 108.425 112.814 107.965 113.707C106.607 112.216 104.813 111.185 102.835 110.76C100.857 110.335 98.7954 110.536 96.9387 111.336C94.6661 112.801 93.0345 115.066 92.3712 117.678C91.7079 120.289 92.062 123.053 93.3625 125.416ZM104.836 144.832C103.478 144.413 102.28 143.594 101.402 142.482C100.524 141.37 100.006 140.018 99.9189 138.607C100.573 137.515 101.458 136.578 102.513 135.862C103.569 135.145 104.768 134.666 106.028 134.457C107.088 136.553 108.557 138.417 110.35 139.941C109.87 141.122 109.123 142.178 108.167 143.026C107.211 143.875 106.071 144.492 104.836 144.832ZM127.486 151.65C126.217 152.455 124.744 152.882 123.239 152.882C121.734 152.882 120.261 152.455 118.992 151.65C118.235 150.493 117.896 149.114 118.031 147.74C118.167 146.366 118.768 145.079 119.737 144.091C121.95 144.534 124.23 144.534 126.443 144.091C127.482 145.024 128.168 146.284 128.385 147.66C128.602 149.036 128.337 150.445 127.635 151.65H127.486ZM146.559 138.607C146.471 140.018 145.954 141.37 145.076 142.482C144.197 143.594 143 144.413 141.642 144.832C140.354 144.521 139.163 143.898 138.175 143.019C137.187 142.14 136.433 141.032 135.979 139.793C137.666 138.226 139.121 136.43 140.301 134.457C141.635 134.553 142.922 134.984 144.043 135.709C145.164 136.435 146.081 137.432 146.708 138.607H146.559ZM148.198 115.338C149.297 116.32 150.071 117.611 150.417 119.04C150.763 120.469 150.665 121.969 150.135 123.341C149.163 124.223 147.947 124.793 146.645 124.978C145.343 125.163 144.015 124.954 142.834 124.379C142.724 122.417 142.373 120.476 141.791 118.598C142.518 117.549 143.501 116.7 144.648 116.13C145.794 115.56 147.067 115.287 148.347 115.338H148.198ZM131.36 99.6271C132.828 99.5569 134.285 99.9115 135.554 100.648C136.824 101.385 137.851 102.472 138.512 103.777C138.428 105.012 138.028 106.204 137.35 107.242C136.672 108.28 135.738 109.128 134.638 109.706C132.769 108.444 130.705 107.493 128.529 106.89C128.176 105.537 128.26 104.108 128.768 102.805C129.276 101.501 130.183 100.39 131.36 99.6271ZM135.979 115.634C137.956 118.245 139.073 121.401 139.178 124.668C139.282 127.935 138.37 131.154 136.564 133.886C134.759 136.617 132.149 138.726 129.092 139.926C126.034 141.125 122.679 141.355 119.485 140.585C116.292 139.815 113.415 138.082 111.249 135.623C109.084 133.165 107.735 130.101 107.387 126.85C107.04 123.6 107.71 120.322 109.308 117.465C110.905 114.608 113.35 112.312 116.31 110.891C119.654 109.404 123.399 109.063 126.959 109.921C130.519 110.779 133.692 112.789 135.979 115.634ZM108.263 103.777C109.025 102.609 110.095 101.672 111.357 101.071C112.619 100.469 114.024 100.226 115.416 100.368C116.562 101.16 117.443 102.275 117.947 103.569C118.452 104.863 118.556 106.277 118.247 107.631C117.209 107.49 116.156 107.49 115.118 107.631C114.215 108.248 113.367 108.942 112.585 109.706C111.401 109.187 110.377 108.364 109.618 107.323C108.859 106.281 108.391 105.057 108.263 103.777ZM105.581 118.598C104.601 120.693 104.044 122.959 103.942 125.268C102.743 125.877 101.385 126.103 100.052 125.918C98.7196 125.732 97.4764 125.143 96.4917 124.23C95.9624 122.858 95.8642 121.358 96.2101 119.929C96.5559 118.5 97.3296 117.209 98.4288 116.227C99.6529 115.883 100.942 115.838 102.188 116.096C103.433 116.354 104.597 116.907 105.581 117.709V118.598Z" fill="#3B387A"/>
<path d="M128.529 135.495C130.884 133.968 132.593 131.634 133.333 128.936C134.072 126.239 133.79 123.365 132.54 120.86C131.291 118.356 129.16 116.395 126.553 115.349C123.945 114.304 121.043 114.247 118.396 115.189C104.836 121.118 115.267 142.016 128.529 135.495ZM126.592 132.382C124.777 133.126 122.746 133.156 120.909 132.467C119.072 131.779 117.566 130.423 116.696 128.673C115.826 126.923 115.656 124.909 116.22 123.039C116.785 121.169 118.042 119.582 119.737 118.598C129.125 113.707 135.532 128.38 126.592 132.382Z" fill="#3B387A"/>
<path d="M123.313 129.566C124.46 129.566 125.559 129.113 126.369 128.307C127.179 127.501 127.635 126.408 127.635 125.268C127.635 124.128 127.179 123.035 126.369 122.229C125.559 121.423 124.46 120.97 123.313 120.97H122.866C121.72 121.029 120.645 121.538 119.876 122.386C119.108 123.234 118.709 124.35 118.769 125.49C118.828 126.63 119.34 127.7 120.192 128.464C121.045 129.229 122.167 129.625 123.313 129.566ZM123.313 125.861C123.313 125.861 123.313 125.12 124.059 124.823C124.804 124.527 124.059 124.823 124.059 125.861C124.059 126.898 123.761 125.861 123.313 125.861Z" fill="#3B387A"/>
</svg>
