<svg width="137" height="408" viewBox="0 0 137 408" fill="none" xmlns="http://www.w3.org/2000/svg">
<path d="M136.884 369.074V377.678C136.096 374.961 135.115 372.303 133.95 369.725C132.117 375.418 129.466 380.815 126.081 385.747C122.52 391.204 118.271 396.183 113.439 400.559C110.889 402.802 108.147 404.818 105.244 406.582C107.408 406.439 109.562 406.167 111.693 405.768C114.295 405.308 116.862 404.671 119.376 403.861C124.468 402.229 129.281 399.829 133.647 396.745C134.765 395.978 135.836 395.164 136.884 394.42V396.745L135.51 397.769C133.291 399.372 130.956 400.809 128.526 402.07C123.64 404.574 118.405 406.33 112.997 407.279C109.915 407.753 106.802 407.994 103.684 408C103.59 407.995 103.497 407.97 103.413 407.926C103.329 407.882 103.255 407.82 103.198 407.745C103.14 407.67 103.1 407.583 103.079 407.49C103.059 407.398 103.059 407.302 103.079 407.209C105.873 397.49 108.597 387.77 111.67 378.12L110.017 379.213C109.109 379.84 108.224 380.538 107.339 381.236C105.488 382.672 103.731 384.226 102.078 385.886C98.7817 389.18 96.094 393.029 94.1389 397.257C93.976 397.606 93.3707 397.373 93.4871 396.978C95.0419 392.386 97.4074 388.11 100.471 384.351C102.007 382.473 103.748 380.773 105.663 379.282L105.873 379.143C103.964 379.794 102.031 380.398 100.122 381.003C96.2575 382.166 92.3928 383.328 88.4816 384.235C85.2369 385.066 81.8659 385.287 78.5404 384.886H77.9584C77.8357 384.901 77.7115 384.88 77.6002 384.826C77.4889 384.773 77.3951 384.689 77.3298 384.584L76.7245 384.421C76.5827 384.558 76.4054 384.651 76.2128 384.692C76.0202 384.732 75.8202 384.717 75.6355 384.649C75.4509 384.582 75.2891 384.463 75.1688 384.307C75.0484 384.152 74.9744 383.966 74.9551 383.77C74.7592 383.751 74.5728 383.677 74.4171 383.557C74.2614 383.437 74.1427 383.275 74.0747 383.091C74.0067 382.906 73.992 382.706 74.0324 382.514C74.0728 382.322 74.1667 382.145 74.3032 382.003H74.4196L74.2799 381.422C74.1689 381.356 74.0792 381.259 74.0214 381.144C73.9636 381.028 73.9402 380.899 73.954 380.771C73.9425 380.546 73.9425 380.321 73.954 380.096C73.6166 377.709 73.6637 375.283 74.0937 372.911C74.8018 369.128 75.7426 365.393 76.9107 361.726C77.7954 358.75 78.7267 355.797 79.7278 352.843L79.5415 353.076C78.0576 354.988 76.3629 356.728 74.4894 358.261C70.7276 361.337 66.4356 363.701 61.8244 365.237C61.4519 365.377 61.1958 364.772 61.5683 364.61C65.7992 362.654 69.6527 359.97 72.9529 356.68C74.6095 355.057 76.1646 353.333 77.6092 351.518C78.3076 350.634 79.006 349.751 79.6346 348.844C80.2632 347.937 80.4029 347.681 80.7754 347.1C71.1369 350.169 61.4053 352.89 51.6737 355.657C51.5807 355.682 51.4832 355.685 51.3887 355.667C51.2943 355.648 51.2054 355.608 51.1289 355.549C51.0524 355.491 50.9903 355.416 50.9476 355.33C50.9048 355.244 50.8824 355.149 50.8821 355.053C50.8866 352.308 51.0654 349.566 51.4176 346.844C51.8258 344.125 52.4486 341.443 53.2801 338.822C54.958 333.599 57.3893 328.648 60.4973 324.126C61.382 322.847 62.3133 321.615 63.3144 320.429L63.9895 319.661C62.5228 319.964 61.0095 320.196 59.5661 320.638C53.8722 322.194 48.6917 325.227 44.5496 329.428C42.9529 331.042 41.5823 332.864 40.4753 334.846C40.4043 334.969 40.2872 335.059 40.1496 335.096C40.0121 335.133 39.8655 335.114 39.742 335.043C39.6185 334.972 39.5282 334.855 39.4911 334.718C39.454 334.581 39.4731 334.434 39.5441 334.311C43.5205 326.986 50.0602 321.381 57.9131 318.568L59.7523 318.034C50.4398 316.871 41.1272 315.452 32.6993 311.406C27.7977 309.217 23.5176 305.845 20.2438 301.594C20.1643 301.565 20.0941 301.515 20.0408 301.449C19.9874 301.384 19.953 301.305 19.9411 301.221C19.8951 301.153 19.8705 301.072 19.8705 300.989C19.8705 300.906 19.8951 300.825 19.9411 300.756C18.5443 291.781 21.9666 282.828 26.4366 275.178C29.3862 270.313 32.6608 265.651 36.2381 261.226L35.2836 261.761C33.4237 262.741 31.4648 263.52 29.4399 264.086C25.481 265.227 21.3395 265.598 17.2405 265.179C14.9253 264.97 12.6342 264.55 10.3958 263.923C10.2759 263.873 10.1785 263.781 10.1215 263.665C10.0646 263.548 10.052 263.415 10.0862 263.289C10.1204 263.164 10.199 263.056 10.3073 262.984C10.4157 262.913 10.5464 262.883 10.6751 262.9C18.3381 264.942 26.4974 263.899 33.3978 259.994C34.9424 259.133 36.4421 258.193 37.8911 257.18C36.3778 257.18 34.8645 256.878 33.4211 256.645C30.697 256.203 28.0115 255.55 25.389 254.692C20.1578 253.025 15.2118 250.571 10.7217 247.414C8.23756 245.585 5.90215 243.564 3.73727 241.368C3.6714 241.297 3.62215 241.212 3.59309 241.12C3.56403 241.028 3.55589 240.93 3.56927 240.835C3.58264 240.739 3.61719 240.647 3.67041 240.567C3.72363 240.486 3.79419 240.418 3.87697 240.368C12.7006 235.462 21.5243 230.532 30.5109 225.881C29.277 225.649 28.043 225.346 26.7859 225.207C24.9699 224.998 23.154 224.742 21.3147 224.626C17.7143 224.415 14.1017 224.649 10.5587 225.323C8.53023 225.72 6.53709 226.28 4.59869 226.997C4.22618 227.137 3.97008 226.532 4.34258 226.346C10.9567 223.014 18.4002 221.681 25.7615 222.51C24.2016 221.742 22.6418 220.975 21.1052 220.184C17.2172 218.138 13.3059 216.045 9.46449 213.673C6.68324 212.026 4.23534 209.872 2.24725 207.325L1.75835 206.93C1.65611 206.849 1.5797 206.739 1.53838 206.616C1.49704 206.492 1.49258 206.359 1.52554 206.232L1.24615 205.721C1.03748 205.742 0.827103 205.702 0.641159 205.605C0.455215 205.508 0.30191 205.358 0.200241 205.175C0.0985718 204.992 0.0530396 204.783 0.0692749 204.574C0.0855255 204.365 0.162842 204.165 0.291626 204C0.199387 203.911 0.126038 203.804 0.0759277 203.687C0.0258179 203.569 0 203.442 0 203.314C0 203.186 0.0258179 203.059 0.0759277 202.941C0.126038 202.824 0.199387 202.717 0.291626 202.628C0.400345 202.506 0.539902 202.416 0.695602 202.367C0.851288 202.318 1.01736 202.312 1.17632 202.349L1.47897 201.814C1.44603 201.688 1.45049 201.555 1.49181 201.431C1.53314 201.307 1.60954 201.198 1.71178 201.117L2.22398 200.721C3.87878 198.535 5.90372 196.654 8.20729 195.164C11.49 192.838 15.0287 191.071 18.4977 189.164C20.8258 187.909 23.154 186.7 25.4821 185.537C24.0846 185.715 22.6769 185.8 21.2682 185.793C17.4378 185.762 13.6329 185.167 9.97669 184.026C7.96811 183.391 6.00748 182.614 4.10977 181.7C3.76056 181.537 4.10977 180.91 4.36588 181.072C11.1816 183.466 18.4881 184.122 25.6218 182.979C26.6462 182.84 27.6473 182.723 28.6716 182.537L30.2781 182.189C21.2915 177.538 12.4678 172.608 3.64415 167.702C3.56137 167.652 3.49083 167.584 3.43761 167.503C3.38438 167.422 3.34982 167.331 3.33646 167.235C3.32307 167.139 3.33122 167.042 3.36028 166.95C3.38934 166.857 3.43858 166.773 3.50446 166.702C5.44669 164.761 7.5155 162.951 9.69731 161.284C11.9001 159.636 14.2363 158.174 16.6817 156.912C21.5639 154.4 26.7876 152.614 32.1871 151.611C33.7273 151.326 35.2816 151.124 36.8434 151.006H37.8678C36.5873 150.146 35.3301 149.262 33.9798 148.518C32.3122 147.593 30.5673 146.815 28.7648 146.193C25.0778 144.831 21.171 144.161 17.2405 144.216C14.9761 144.28 12.7298 144.64 10.5587 145.286C10.43 145.303 10.2993 145.273 10.1909 145.202C10.0826 145.13 10.004 145.022 9.96982 144.897C9.93563 144.771 9.94817 144.638 10.0051 144.521C10.0621 144.405 10.1595 144.313 10.2793 144.263C18.2538 141.791 26.862 142.354 34.4454 145.844C35.0275 146.123 35.5862 146.425 36.1683 146.751L35.7725 146.239C29.9288 138.728 24.2715 130.869 21.3147 121.73C19.7081 117.08 19.2215 112.117 19.8946 107.244C19.8492 107.17 19.8252 107.086 19.8252 106.999C19.8252 106.913 19.8492 106.829 19.8946 106.755C19.9043 106.674 19.9353 106.597 19.9843 106.532C20.0334 106.467 20.0988 106.415 20.1739 106.383C25.9943 98.4306 35.7725 94.5241 45.085 92.4313C49.9361 91.391 54.8402 90.6147 59.7756 90.106L58.6581 89.8037C56.6559 89.2367 54.7203 88.4571 52.8843 87.4784C49.2538 85.4846 46.044 82.8077 43.4321 79.5956C41.9429 77.8253 40.6254 75.9177 39.4975 73.8986C39.4265 73.7752 39.4074 73.6287 39.4446 73.4914C39.4817 73.354 39.5719 73.237 39.6954 73.1661C39.7565 73.131 39.824 73.1082 39.894 73.0991C39.9639 73.0901 40.035 73.0948 40.1031 73.1132C40.2406 73.1503 40.3577 73.2404 40.4288 73.3637C44.4176 80.2114 50.9385 85.2214 58.5882 87.3156C60.2878 87.8272 62.0106 88.1527 63.7334 88.5015C62.734 87.3707 61.8012 86.1827 60.9397 84.9438C59.3269 82.7323 57.887 80.4001 56.6326 77.9678C54.1187 73.0891 52.3529 67.8608 51.3943 62.458C50.9391 59.3782 50.7057 56.2698 50.6959 53.1567C50.6971 53.0601 50.7198 52.9649 50.7624 52.8781C50.8051 52.7913 50.8665 52.7151 50.9423 52.655C51.0181 52.5949 51.1063 52.5524 51.2006 52.5305C51.2949 52.5087 51.3929 52.5082 51.4874 52.5289C61.219 55.3193 70.9507 58.0399 80.5892 61.1093L79.5182 59.4583C78.8896 58.5515 78.1912 57.6678 77.4927 56.7842C76.0543 54.9353 74.499 53.1799 72.8365 51.529C69.5363 48.2397 65.6828 45.5558 61.4519 43.5997C61.3654 43.5658 61.296 43.4989 61.2589 43.4139C61.2218 43.3289 61.22 43.2326 61.254 43.1462C61.2879 43.0599 61.3548 42.9906 61.44 42.9535C61.5251 42.9164 61.6215 42.9147 61.708 42.9486C66.3144 44.4963 70.6045 46.8592 74.373 49.9245C76.2465 51.4583 77.9411 53.1977 79.4251 55.11L79.5881 55.3193C78.9362 53.4125 78.3076 51.5058 77.7256 49.5757C76.5615 45.7157 75.3974 41.8557 74.4894 37.9492C73.6382 34.7118 73.4091 31.3426 73.8143 28.0201C73.8028 27.8265 73.8028 27.6323 73.8143 27.4387C73.8 27.3162 73.8209 27.1921 73.8744 27.081C73.928 26.9698 74.0121 26.8762 74.1169 26.8109C74.1169 26.6016 74.1169 26.3923 74.2799 26.1598C74.1599 26.0748 74.0601 25.9644 73.9877 25.8365C73.9152 25.7086 73.8719 25.5663 73.8608 25.4198C73.8497 25.2732 73.8711 25.126 73.9234 24.9887C73.9757 24.8513 74.0577 24.7272 74.1635 24.6251C74.3334 24.4571 74.5547 24.3507 74.7921 24.3228C74.8233 24.0866 74.9294 23.8666 75.0948 23.695C75.2007 23.5901 75.3283 23.5096 75.4686 23.4592C75.6089 23.4087 75.7586 23.3894 75.9072 23.4027C76.0557 23.416 76.1996 23.4615 76.3287 23.5361C76.4578 23.6107 76.569 23.7125 76.6546 23.8345L77.2599 23.6717C77.326 23.5609 77.4226 23.4713 77.5381 23.4135C77.6537 23.3558 77.7834 23.3325 77.9118 23.3462L78.6801 23.2532C80.994 22.8899 83.3506 22.8899 85.6645 23.2532C89.4598 23.9578 93.2076 24.8975 96.8862 26.0668C99.8662 26.9504 102.823 27.8805 105.78 28.8804L105.547 28.7177C103.637 27.221 101.896 25.5213 100.355 23.6485C97.291 19.8898 94.9255 15.6135 93.3707 11.022C93.2542 10.6267 93.8596 10.3709 94.0225 10.743C95.9858 14.9729 98.6723 18.8287 101.961 22.137C103.589 23.7983 105.323 25.3518 107.153 26.7876C108.038 27.4852 108.923 28.1828 109.831 28.8107L111.577 29.9733C108.55 20.2303 105.826 10.5104 103.032 0.790608C103.012 0.698053 103.012 0.602156 103.033 0.509617C103.053 0.417077 103.094 0.330125 103.151 0.254836C103.209 0.179547 103.282 0.117735 103.366 0.0737192C103.45 0.0297033 103.543 0.00454438 103.638 0C106.386 0.00294872 109.131 0.181588 111.856 0.534823C114.584 0.919716 117.278 1.51839 119.911 2.32532C125.12 4.02915 130.053 6.48091 134.555 9.60356C135.324 10.1384 136.069 10.6965 136.884 11.2778V13.6031C136.069 12.9055 135.277 12.2777 134.439 11.6266C132.297 10.0826 130.049 8.69172 127.711 7.46426C122.959 5.02827 117.876 3.29709 112.624 2.32532C110.185 1.80082 107.711 1.45113 105.221 1.27892C110.563 4.56456 115.369 8.65052 119.469 13.3938C123.754 18.3011 127.436 23.7033 130.435 29.485C131.854 32.2565 133.038 35.1423 133.973 38.1119C135.124 35.5545 136.097 32.9206 136.884 30.2291V38.8328C136.604 39.4839 136.302 40.1117 135.999 40.7628V40.9256L136.884 41.3441V43.6694C132.67 41.9255 128.502 40.0652 124.335 38.2282C116.574 34.8177 108.667 31.7173 100.611 28.9269C96.7465 27.6015 92.8585 26.3458 88.9705 25.2994C87.7366 24.9739 86.4561 24.6716 85.1989 24.4391C89.9481 26.1245 94.4563 28.4228 98.609 31.2755C104.895 35.3681 110.855 39.9722 117.234 43.8322C123.406 47.6134 130.001 50.6571 136.884 52.9009V54.5054C130.945 52.6918 125.21 50.2683 119.772 47.2737C116.489 45.4832 113.253 43.5764 110.11 41.5534C106.967 39.5304 103.824 37.2051 100.681 35.1123C96.2464 31.9411 91.4949 29.2371 86.5027 27.0434C88.4028 28.0138 90.2039 29.1663 91.8806 30.4849C96.5905 34.3104 100.371 39.152 102.939 44.6461C104.364 47.4462 105.428 50.4152 106.106 53.4823L108.946 53.5985C110.296 53.5985 111.623 53.7381 112.974 53.8311C115.561 54.0643 118.133 54.4369 120.68 54.9472C125.547 55.8705 130.253 57.4999 134.649 59.7839C135.37 60.1559 136.045 60.5512 136.744 60.9698V63.0161C132.127 60.0378 127.055 57.8308 121.727 56.4819C119.041 55.8197 116.31 55.3534 113.556 55.0867C112.135 54.924 110.692 54.831 109.249 54.7612C110.783 55.1878 112.285 55.724 113.742 56.3657C116.522 57.5923 119.141 59.1541 121.541 61.0163C126.349 64.7069 130.316 69.3753 133.182 74.7124C134.88 77.6712 136.069 80.894 136.697 84.2462C136.728 84.4578 136.693 84.6737 136.598 84.865C136.502 85.0562 136.35 85.2135 136.162 85.3158C136.055 85.5055 135.894 85.6582 135.698 85.7538C135.503 85.8493 135.283 85.8831 135.068 85.8507C129.055 84.6971 123.442 82.0141 118.771 78.0609C114.013 74.3327 110.181 69.5582 107.572 64.109C106.741 62.3543 106.056 60.5345 105.524 58.6677C105.524 59.7606 105.524 60.8768 105.756 61.9697C105.969 64.4545 106.335 66.924 106.851 69.3642C107.837 74.0663 109.5 78.6011 111.786 82.8278C113.995 87.0016 116.892 90.7748 120.354 93.9893C124.181 97.7631 128.909 100.5 134.09 101.942C135.012 102.128 135.945 102.252 136.884 102.314V104.128L135.929 104.011C130.508 103.044 125.449 100.634 121.285 97.0354C113.565 90.5265 108.24 81.6317 106.152 71.7593C105.502 68.9714 105.035 66.1439 104.755 63.2951C104.592 61.7836 104.499 60.2722 104.429 58.7607C104.359 57.2493 104.313 56.4354 104.29 55.2728C101.632 54.6808 99.0484 53.7997 96.5835 52.6452C93.7394 51.3731 91.0326 49.8148 88.5048 47.9945C84.177 44.9096 80.6035 40.8873 78.0515 36.2284C78.2377 36.6935 78.4473 37.1586 78.6568 37.6236C80.3185 41.0483 82.2085 44.3577 84.3142 47.5295C86.4095 50.6919 88.6213 53.7846 90.7399 56.8307C92.8585 59.8769 94.8607 63.1323 96.7232 66.411C100.532 72.9028 103.527 79.8378 105.64 87.0598C107.707 94.3487 108.393 101.959 107.665 109.499C107.223 113.754 106.408 117.963 105.547 122.149C104.829 126.053 103.754 129.882 102.334 133.589C103.878 132.299 105.486 131.089 107.153 129.962C110.587 127.691 114.138 125.603 117.793 123.707C121.401 121.707 125.033 119.777 128.526 117.568C131.434 115.761 134.226 113.773 136.884 111.615V113.94C135.044 115.382 133.159 116.754 131.203 118.056C124.219 122.707 116.675 126.009 109.668 130.473C107.734 131.683 105.883 133.019 104.127 134.473C103.498 134.985 102.916 135.519 102.334 136.077C106.682 134.2 111.25 132.879 115.93 132.148C121.856 131.241 127.885 131.241 133.81 132.148C134.788 132.287 135.836 132.543 136.884 132.706V135.031C130.791 133.565 124.499 133.11 118.258 133.682C113.274 134.177 108.379 135.342 103.708 137.147C104.918 137.147 106.129 137.194 107.339 137.287C116.495 138.026 125.194 141.594 132.227 147.495C133.922 148.896 135.481 150.453 136.884 152.145V163.237C136.492 162.195 136.226 161.11 136.092 160.005C135.442 160.495 134.757 160.938 134.043 161.33C132.181 162.331 130.14 162.955 128.037 163.167C124.198 163.729 120.285 162.904 117.001 160.842C116.792 160.679 117.001 160.238 117.188 160.377C118.829 161.075 120.537 161.605 122.286 161.958C124.096 162.238 125.941 162.191 127.734 161.819C129.606 161.403 131.398 160.688 133.042 159.703C133.869 159.227 134.649 158.675 135.37 158.052L136.045 157.47V157.331C136.035 157.269 136.035 157.206 136.045 157.145C130.366 157.754 124.622 157.236 119.145 155.619C113.667 154.003 108.563 151.321 104.127 147.727C102.88 146.734 101.69 145.67 100.565 144.542C102.627 149.092 105.289 153.346 108.48 157.191C112.622 162.185 117.591 166.433 123.171 169.748C127.461 172.267 132.074 174.192 136.884 175.468V177.956C132.456 176.811 128.192 175.107 124.195 172.887C118.314 169.587 113.058 165.282 108.667 160.168C104.576 155.475 101.288 150.14 98.9349 144.379C98.9825 146.827 99.2159 149.268 99.6334 151.68C100.425 155.633 101.542 159.517 102.706 163.307C103.871 167.097 105.035 171.19 105.989 175.213C106.932 179.505 107.585 183.855 107.945 188.234C108.251 191.892 108.313 195.567 108.131 199.233C110.505 195.996 113.506 193.269 116.955 191.211C121.267 188.702 125.927 186.845 130.784 185.7C132.763 185.188 134.765 184.77 136.767 184.374V185.746C130.984 186.816 125.395 188.753 120.191 191.49C117.372 193.028 114.739 194.885 112.345 197.024C114.588 195.485 117.012 194.228 119.562 193.28C123.669 191.677 127.978 190.652 132.367 190.234C133.834 190.071 135.3 190.025 136.767 190.002V192.141C131.779 192.143 126.821 192.928 122.077 194.466C117.789 195.804 113.798 197.951 110.32 200.791C118.724 197.252 128.067 196.598 136.884 198.931V200.14C135.352 199.739 133.797 199.436 132.227 199.233C126.774 198.546 121.239 198.926 115.93 200.349C113.229 201.058 110.59 201.984 108.038 203.116C107.898 203.279 107.759 203.419 107.642 203.581C107.573 203.669 107.473 203.727 107.363 203.744C107.263 203.828 107.142 203.883 107.013 203.906C106.885 203.928 106.753 203.916 106.63 203.872C106.507 203.827 106.399 203.751 106.315 203.651C106.231 203.551 106.175 203.431 106.152 203.302C105.661 200.802 104.654 198.432 103.195 196.342C101.735 194.252 99.8567 192.489 97.6777 191.164C93.1724 188.443 88.0402 186.929 82.7776 186.769C73.3534 186.349 64.0216 188.78 56.004 193.745C53.6742 195.132 51.4488 196.686 49.3455 198.396C48.2746 199.256 47.2269 200.163 46.2025 201.093C47.6718 200.365 49.1885 199.735 50.7424 199.21C53.5697 198.078 56.5252 197.297 59.5428 196.885C65.5427 196.116 71.6377 196.631 77.4229 198.396C80.7028 199.325 83.798 200.812 86.5725 202.791C86.841 203.119 86.9877 203.53 86.9877 203.953C86.9877 204.377 86.841 204.788 86.5725 205.116C81.455 208.564 75.524 210.616 69.3675 211.069C63.3635 211.796 57.2726 211.111 51.5806 209.069C49.7649 208.442 48.0049 207.664 46.3189 206.744C47.0872 207.441 47.8788 208.139 48.6471 208.813C50.5291 210.419 52.512 211.902 54.5839 213.255C58.4932 215.82 62.7398 217.831 67.2024 219.231C71.6635 220.653 76.3258 221.344 81.0082 221.277C86.2378 221.324 91.4026 220.12 96.0713 217.766C98.673 216.504 100.951 214.664 102.731 212.386C104.51 210.109 105.744 207.455 106.338 204.628C106.361 204.499 106.417 204.379 106.501 204.279C106.585 204.18 106.694 204.103 106.816 204.059C106.939 204.014 107.071 204.002 107.2 204.024C107.328 204.047 107.449 204.103 107.549 204.186C107.605 204.189 107.66 204.205 107.709 204.233C107.757 204.261 107.798 204.301 107.828 204.349L108.224 204.814C117.188 208.933 127.26 209.987 136.884 207.814V208.999C135.394 209.348 133.88 209.627 132.367 209.837C126.792 210.607 121.121 210.276 115.674 208.86C113.866 208.385 112.105 207.747 110.413 206.953C113.47 209.51 116.964 211.495 120.726 212.813C124.669 214.256 128.788 215.163 132.972 215.51C134.276 215.51 135.58 215.673 136.884 215.673V217.812C131.581 217.775 126.32 216.871 121.308 215.138C118.511 214.22 115.837 212.962 113.346 211.395C112.997 211.185 112.671 210.929 112.322 210.697C118.015 215.707 124.849 219.251 132.227 221.021C133.741 221.417 135.277 221.765 136.884 222.091V223.463C135.51 223.207 134.113 222.905 132.74 222.579C127.874 221.556 123.173 219.866 118.771 217.557C114.637 215.386 111.041 212.319 108.247 208.581C108.429 211.679 108.429 214.784 108.247 217.882C107.976 222.234 107.4 226.562 106.525 230.834C104.872 238.903 101.868 246.623 100.122 254.669C99.6448 256.856 99.295 259.068 99.0746 261.296C99.0746 262.017 99.0746 262.761 98.9582 263.621C101.019 258.604 103.787 253.906 107.177 249.669C111.342 244.37 116.41 239.844 122.146 236.299C126.713 233.458 131.681 231.318 136.884 229.951V232.532C126.582 235.298 117.285 240.945 110.087 248.809C106.191 253.153 103.002 258.081 100.634 263.412C101.473 262.575 102.334 261.761 103.242 261.086C105.585 259.066 108.128 257.29 110.832 255.785C116.206 252.911 122.105 251.147 128.176 250.599C130.806 250.37 133.453 250.432 136.069 250.785C136.069 250.785 136.069 250.785 136.069 250.623V250.483L135.394 249.902C134.672 249.279 133.892 248.726 133.065 248.251C131.426 247.256 129.632 246.54 127.757 246.135C125.964 245.763 124.119 245.716 122.309 245.995C120.558 246.338 118.849 246.868 117.211 247.576C116.931 247.576 116.815 247.274 117.025 247.111C120.309 245.049 124.222 244.225 128.06 244.786C130.125 244.996 132.132 245.596 133.973 246.553C134.718 246.969 135.434 247.435 136.115 247.948C136.238 246.829 136.496 245.728 136.884 244.67V255.785C129.656 264.23 119.452 269.575 108.387 270.713C106.841 270.888 105.287 270.973 103.731 270.969C107.735 272.502 111.897 273.586 116.14 274.201C121.835 274.965 127.613 274.856 133.275 273.876C134.509 273.666 135.743 273.387 136.953 273.085V275.41C130.759 276.742 124.386 277.033 118.096 276.271C112.706 275.624 107.437 274.206 102.45 272.062C104.298 273.763 106.275 275.318 108.364 276.713C111.81 279.038 115.348 280.968 119.073 282.921C122.798 284.874 126.36 286.851 129.899 289.083C132.32 290.634 134.649 292.308 136.884 294.106V296.431C134.555 294.618 132.227 292.92 129.899 291.339C122.915 286.688 115.372 283.386 108.434 278.852C106.311 277.481 104.274 275.982 102.334 274.364C103.419 277.093 104.268 279.909 104.872 282.782C105.803 286.944 106.664 291.13 107.2 295.338C108.308 302.967 107.977 310.736 106.222 318.243C104.409 325.551 101.638 332.588 97.9804 339.171C96.18 342.442 94.2709 345.65 92.2532 348.797C90.1578 352.006 87.9461 355.099 85.8042 358.238C82.6208 362.662 79.9129 367.409 77.7256 372.399C78.6971 370.502 79.8511 368.703 81.1712 367.028C84.9894 362.221 89.8755 358.368 95.4427 355.773C98.2462 354.35 101.219 353.288 104.29 352.611C104.29 351.634 104.29 350.634 104.406 349.681C104.406 348.332 104.406 347.007 104.639 345.658C104.872 343.074 105.245 340.505 105.756 337.961C106.683 333.104 108.306 328.405 110.576 324.01C112.96 319.562 116.112 315.571 119.888 312.22C123.907 308.375 128.844 305.621 134.23 304.221C135.142 304.008 136.068 303.852 137 303.756V305.57L135.999 305.686C130.797 306.709 125.97 309.12 122.03 312.662C114.808 319.035 109.734 327.481 107.502 336.845C106.837 339.528 106.371 342.256 106.106 345.007C105.943 346.426 105.849 347.867 105.78 349.309C106.207 347.777 106.744 346.277 107.386 344.821C108.522 342.109 109.975 339.541 111.716 337.171C115.405 332.363 120.081 328.399 125.429 325.544C128.422 323.848 131.681 322.668 135.068 322.056C135.283 322.024 135.503 322.058 135.698 322.153C135.894 322.249 136.055 322.401 136.162 322.591C136.352 322.691 136.506 322.848 136.602 323.04C136.698 323.232 136.732 323.449 136.697 323.661C135.544 329.667 132.858 335.274 128.898 339.938C125.165 344.69 120.385 348.518 114.929 351.123C113.176 351.955 111.353 352.632 109.481 353.146C110.576 353.146 111.693 353.03 112.787 352.936C115.275 352.724 117.748 352.359 120.191 351.844C124.896 350.848 129.435 349.188 133.671 346.914C134.788 346.333 135.882 345.658 136.93 344.984V346.914C132.506 349.551 127.688 351.467 122.659 352.588C119.865 353.226 117.035 353.692 114.184 353.983C112.671 354.146 111.158 354.239 109.528 354.308L106.036 354.448C105.443 357.102 104.561 359.683 103.405 362.145C102.136 364.981 100.576 367.677 98.7487 370.19C95.6675 374.526 91.639 378.104 86.9683 380.654L88.3652 380.05C91.8106 378.384 95.1396 376.489 98.3296 374.376C101.496 372.283 104.592 370.074 107.642 367.935C110.692 365.795 113.951 363.842 117.234 361.982C123.438 358.401 130.031 355.538 136.884 353.448V355.029C130.886 356.954 125.105 359.494 119.632 362.61C113.09 366.307 107.083 370.772 100.891 375.004C96.0534 378.515 90.7481 381.332 85.129 383.375L86.2466 383.166C90.0638 382.284 93.8327 381.205 97.538 379.933C105.64 377.314 113.602 374.306 121.425 370.911C126.57 368.586 131.692 366.261 136.884 364.214V366.54L135.882 366.958V367.121C136.302 367.795 136.604 368.423 136.884 369.074ZM120.982 34.6007C124.777 36.1819 128.549 37.8329 132.227 39.5304C130.259 33.8489 127.691 28.3925 124.568 23.2532C121.169 17.9148 117.057 13.0645 112.345 8.8362C109.966 6.54105 107.471 4.36796 104.872 2.32532C108.015 12.1614 111.274 21.951 113.975 31.8336C116.326 32.7172 118.654 33.6473 120.982 34.6007ZM108.527 62.5045C109.726 65.1574 111.218 67.6687 112.974 69.992C116.443 74.6718 121.007 78.432 126.267 80.9443C128.925 82.1555 131.703 83.083 134.555 83.7114C133.407 78.3432 131.104 73.2889 127.804 68.8991C124.186 64.3362 119.576 60.6546 114.324 58.1329C111.715 56.9388 109.003 55.9816 106.222 55.2728C106.831 57.7388 107.601 60.1623 108.527 62.5278V62.5045ZM106.199 352.518C108.624 351.907 111.004 351.13 113.323 350.193C115.979 348.995 118.493 347.505 120.819 345.751C125.511 342.305 129.284 337.762 131.808 332.52C133.023 329.845 133.944 327.046 134.555 324.172C129.177 325.309 124.115 327.611 119.725 330.916C115.155 334.528 111.469 339.132 108.946 344.379C107.754 346.995 106.796 349.711 106.082 352.495L106.199 352.518ZM82.6147 344.728C83.5226 342.403 84.4539 340.077 85.4084 337.752C86.9916 333.962 88.6445 330.195 90.2509 326.428C84.5185 328.377 79.0151 330.942 73.8376 334.078C68.4927 337.473 63.6365 341.58 59.4031 346.286C57.1663 348.697 55.0527 351.219 53.0706 353.843C62.9186 350.681 72.7201 347.518 82.5914 344.751L82.6147 344.728ZM62.3831 324.312C60.8213 326.45 59.4131 328.695 58.1692 331.032C55.7463 335.773 54.0287 340.841 53.0706 346.077C52.5689 348.523 52.2421 351.002 52.0927 353.495C55.3824 348.158 59.4733 343.359 64.2224 339.264C69.1355 334.984 74.5443 331.307 80.3331 328.311C83.108 326.894 85.9973 325.711 88.9705 324.777C81.9125 321.77 74.4543 319.804 66.8299 318.94C66.2013 319.708 65.5261 320.429 64.8975 321.266C64.2689 322.103 63.198 323.219 62.3831 324.312ZM32.3501 309.197C36.8466 311.354 41.6049 312.917 46.5052 313.848C56.1437 315.894 66.0383 316.173 75.7466 317.894C81.2061 318.715 86.5161 320.329 91.5081 322.684H91.6711C92.7886 319.987 93.8829 317.289 94.8839 314.546C97.5545 307.6 99.3986 300.365 100.378 292.99C100.689 290.211 100.813 287.414 100.751 284.619C100.458 287.67 99.6717 290.654 98.4227 293.455C96.6189 297.423 93.8301 300.865 90.3208 303.454C86.9667 305.849 83.0079 307.258 78.8931 307.521C74.7782 307.784 70.6718 306.891 67.0394 304.942C58.0186 309.919 47.4954 311.456 37.4255 309.267C33.1631 308.337 29.0658 306.769 25.2726 304.616C27.4669 306.426 29.8563 307.986 32.3967 309.267L32.3501 309.197ZM97.8407 269.272C97.8168 269.149 97.8168 269.022 97.8407 268.9C97.7166 268.87 97.6036 268.805 97.5147 268.714C97.4226 268.7 97.3355 268.663 97.262 268.606C97.1885 268.549 97.1312 268.474 97.0957 268.388C93.4835 260.978 87.0927 255.288 79.3087 252.553C75.9283 251.422 72.3278 251.109 68.8027 251.639C65.2776 252.168 61.9285 253.525 59.0306 255.599C57.6155 256.695 56.3888 258.015 55.3987 259.505C56.648 258.72 58.1184 258.361 59.5893 258.482C60.9077 258.57 62.1741 259.03 63.2414 259.808C64.3088 260.585 65.1333 261.65 65.6192 262.877C66.1166 261.718 66.9261 260.72 67.9578 259.993C68.9895 259.266 70.2029 258.84 71.4629 258.761C72.8029 258.698 74.1175 259.142 75.1445 260.004C76.1715 260.866 76.8354 262.083 77.0038 263.412C77.0852 264.006 77.0852 264.608 77.0038 265.202C77.8302 264.567 78.7826 264.115 79.7976 263.877C80.6503 263.687 81.5325 263.669 82.3922 263.824C83.2519 263.98 84.0717 264.306 84.8031 264.784C85.5474 265.266 86.177 265.905 86.6476 266.656C87.1182 267.408 87.4184 268.253 87.527 269.132C87.6314 270.545 87.375 271.961 86.782 273.248C86.8545 273.329 86.9099 273.424 86.945 273.527C86.9584 273.635 86.9584 273.744 86.945 273.852C88.0019 274.247 88.9738 274.839 89.8086 275.596C90.8334 276.575 91.4769 277.885 91.6246 279.294C91.7499 280.627 91.4591 281.966 90.7922 283.128C90.1253 284.289 89.1148 285.216 87.8995 285.781C87.1974 286.099 86.452 286.31 85.6878 286.409C86.1355 286.748 86.5419 287.138 86.8984 287.572C87.3432 288.117 87.6734 288.746 87.8694 289.421C88.0654 290.096 88.1232 290.804 88.0392 291.502C87.8259 292.817 87.1785 294.024 86.1998 294.93C85.2212 295.835 83.9675 296.389 82.6379 296.501C81.4955 296.618 80.3412 296.475 79.2621 296.083C79.7851 297.29 79.9555 298.621 79.7537 299.921C79.5518 301.221 78.9859 302.438 78.1213 303.431C77.17 304.526 75.9005 305.298 74.4894 305.64C79.2155 306.401 84.056 305.373 88.0625 302.756C91.3679 300.507 94.1045 297.521 96.0561 294.035C98.0076 290.548 99.1207 286.656 99.3074 282.665C99.5496 278.339 98.9973 274.004 97.6777 269.876C97.6443 269.77 97.6419 269.657 97.6707 269.55C97.6996 269.443 97.7586 269.346 97.8407 269.272ZM85.8741 284.712C86.5383 284.603 87.1773 284.374 87.7598 284.037C88.3474 283.719 88.8595 283.278 89.2612 282.744C89.663 282.211 89.9449 281.597 90.088 280.945C90.2392 280.31 90.2552 279.651 90.1349 279.01C90.0146 278.369 89.7606 277.761 89.3895 277.224C88.7618 276.384 87.9697 275.68 87.0614 275.155C86.683 278.466 85.8608 281.712 84.6169 284.805C85.0379 284.812 85.4586 284.781 85.8741 284.712ZM83.8486 286.27C82.6031 289.059 81.0408 291.696 79.1923 294.129C80.3438 294.73 81.6516 294.965 82.9406 294.804C83.5868 294.708 84.2045 294.473 84.7512 294.116C85.2978 293.759 85.7603 293.287 86.1069 292.734C86.4602 292.18 86.6631 291.543 86.6958 290.887C86.7284 290.23 86.5897 289.577 86.2931 288.99C85.9268 288.323 85.4461 287.725 84.873 287.223C84.5479 286.888 84.206 286.57 83.8486 286.27ZM85.7111 272.318C85.9567 271.448 86.0666 270.546 86.037 269.644C85.9892 268.946 85.7843 268.267 85.4377 267.66C85.091 267.052 84.6115 266.53 84.0348 266.132C83.4592 265.73 82.8022 265.46 82.1103 265.339C81.4183 265.218 80.7083 265.251 80.0304 265.435C78.9328 265.753 77.9427 266.364 77.1668 267.202C80.2113 268.509 83.0688 270.214 85.6645 272.271L85.7111 272.318ZM69.74 273.062C72.2843 272.166 74.9947 271.841 77.679 272.108C79.0293 272.108 80.3796 272.434 81.7067 272.667H82.2421C73.691 267.184 63.3289 265.267 53.379 267.328C43.4292 269.388 34.6844 275.262 29.0209 283.689C25.9203 288.22 23.6136 293.244 22.1994 298.547C23.2704 297.059 24.0387 295.338 25.1562 293.897C26.6843 291.896 28.5614 290.186 30.6971 288.851C35.1147 286.203 40.1056 284.655 45.248 284.34C47.7645 284.13 50.2919 284.084 52.8145 284.2C54.1182 284.2 55.422 284.27 56.7257 284.409C57.1681 284.409 57.8432 284.595 58.239 284.409C58.6348 284.223 58.9142 283.247 59.1703 282.805C61.4235 278.396 65.1685 274.927 69.74 273.015V273.062ZM60.2412 284.526C60.8465 284.688 61.4519 284.944 62.0106 285.084C63.0654 285.353 64.1396 285.539 65.2234 285.642C67.4115 285.899 69.6282 285.757 71.7655 285.223C74.4126 284.507 76.8224 283.103 78.7499 281.154C79.8722 280.029 80.8928 278.807 81.7998 277.503C82.3818 276.666 82.9173 275.783 83.4528 274.922C81.7358 274.492 79.9943 274.165 78.2377 273.945C75.9014 273.648 73.5294 273.806 71.2533 274.411C66.721 275.925 62.9451 279.122 60.7068 283.34C60.6603 283.689 60.4508 284.084 60.2412 284.479V284.526ZM75.6302 263.458C75.5206 262.825 75.2485 262.231 74.8405 261.733C74.4325 261.236 73.9025 260.853 73.3021 260.621C72.6698 260.382 71.9914 260.289 71.318 260.35C70.6445 260.41 69.9935 260.622 69.4141 260.97C68.2015 261.765 67.3042 262.958 66.8764 264.342C67.9939 264.505 69.2046 264.691 70.2522 264.947C72.1053 265.366 73.926 265.918 75.7001 266.598V265.458C75.7747 264.776 75.7512 264.087 75.6302 263.412V263.458ZM64.8742 264.133C64.5832 263.253 64.0841 262.456 63.4193 261.809C62.7544 261.163 61.9433 260.686 61.0547 260.419C60.1661 260.152 59.2262 260.103 58.3146 260.276C57.403 260.449 56.5465 260.838 55.8178 261.412C54.6991 262.319 53.8065 263.474 53.2103 264.784C57.043 263.982 60.973 263.747 64.8742 264.086V264.133ZM77.9817 295.687C75.6578 298.503 72.9547 300.983 69.9496 303.058L69.321 303.454C70.5612 303.997 71.93 304.178 73.2691 303.976C74.6081 303.775 75.8626 303.198 76.8874 302.314C77.7339 301.459 78.2938 300.362 78.4898 299.175C78.6858 297.988 78.5082 296.769 77.9817 295.687ZM35.8889 306.593C41.0626 307.885 46.4347 308.185 51.7202 307.477C57.0188 306.774 62.1063 304.95 66.6436 302.128C71.2461 299.221 75.207 295.408 78.2843 290.92C81.1078 286.807 83.0861 282.176 84.1047 277.294L83.6623 277.899C82.8502 279.107 81.9638 280.264 81.0082 281.363C79.2927 283.359 77.1532 284.948 74.7455 286.014C70.4706 287.702 65.7585 287.939 61.3354 286.688C60.8 286.688 60.3111 286.409 59.7989 286.246C59.2867 286.084 58.8909 286.014 58.4253 286.456C57.4707 287.409 56.6326 288.502 55.7246 289.502C53.8081 291.633 51.7467 293.63 49.5551 295.478C45.7364 298.757 41.1981 301.091 36.3079 302.291C33.804 302.866 31.2155 302.977 28.6716 302.617C26.9255 302.361 25.2493 301.733 23.5032 301.431C27.3666 303.728 31.5367 305.466 35.8889 306.593ZM27.2515 300.896C29.4672 301.341 31.7429 301.404 33.9798 301.082C38.7703 300.304 43.2778 298.302 47.0639 295.269C49.2231 293.593 51.247 291.75 53.1171 289.758C54.0717 288.735 55.0262 287.665 55.9575 286.618L56.3532 286.13L55.0029 285.991C52.477 285.816 49.9438 285.77 47.4132 285.851C42.3653 285.901 37.3987 287.127 32.9089 289.432C30.4461 290.741 28.2571 292.509 26.4599 294.641C25.0165 296.385 24.1318 298.989 22.1296 300.268C23.8618 300.129 25.6044 300.342 27.2515 300.896ZM23.2471 286.177C22.256 289.014 21.592 291.955 21.2682 294.943C24.0501 285.372 29.9904 277.022 38.1239 271.248C41.8897 268.573 46.0982 266.581 50.5562 265.365C50.5672 265.327 50.5672 265.287 50.5562 265.249C51.7023 261.476 53.8404 258.08 56.7477 255.413C59.655 252.747 63.2251 250.908 67.086 250.088C70.9073 249.406 74.8313 249.563 78.586 250.546C82.3408 251.53 85.8365 253.318 88.8308 255.785C87.1911 254.085 85.4578 252.478 83.639 250.971C77.7596 246.23 71.3066 242.246 64.4319 239.112C61.4286 237.694 58.402 236.392 55.3288 235.113C55.3288 235.113 55.3288 235.113 55.3288 235.299C51.8832 245.507 44.666 253.901 38.0773 262.133C32.1173 269.504 26.3435 277.178 23.2471 286.177ZM10.7217 245.507C12.888 247.03 15.1598 248.397 17.5199 249.599C22.2703 252.039 27.3654 253.74 32.6295 254.645C34.1816 254.909 35.6716 255.118 37.0995 255.273C38.217 255.273 39.4277 255.436 40.452 255.552C41.7558 253.855 43.013 252.111 44.2469 250.367C47.4151 245.832 50.0185 240.928 51.9996 235.764C46.6309 238.492 40.9004 240.441 34.9809 241.554C28.6387 242.88 22.1523 243.388 15.6806 243.065C12.2821 242.847 8.90901 242.334 5.59978 241.531C7.22403 242.959 8.93454 244.287 10.7217 245.507ZM6.06541 240.484C12.0161 241.413 18.0478 241.717 24.0619 241.391C30.4262 241.007 36.7005 239.699 42.6871 237.508C45.7602 236.392 48.8101 235.182 51.7668 233.694L42.8733 230.206C39.707 228.904 36.5408 227.579 33.3978 226.184C24.4344 231.136 15.2848 235.81 6.13525 240.484H6.06541ZM9.74387 212.069C13.1197 214.185 16.7283 215.999 20.2438 217.789C27.4145 221.37 34.7015 224.765 42.1516 227.602C56.4929 233.276 71.5327 238.298 83.639 248.204C86.8881 250.829 89.8252 253.817 92.3928 257.11C93.6362 258.709 94.7867 260.379 95.8385 262.11C94.7585 259.68 93.4734 257.346 91.9971 255.134C89.6689 251.669 87.3408 248.158 85.0126 244.856C82.6217 241.563 79.9161 238.51 76.934 235.741C74.116 233.211 71.0418 230.983 67.7611 229.09C61.1243 225.25 53.9976 222.324 46.575 220.393C39.2414 218.394 31.7681 217.324 24.3413 215.906C18.7046 214.971 13.2218 213.274 8.04433 210.86C8.53323 211.325 9.13856 211.604 9.74387 212.069ZM2.03773 203.953C6.5013 207.16 11.7255 209.148 17.1939 209.72C23.0169 210.302 28.8951 209.505 34.3523 207.395C36.8692 206.382 39.3255 205.225 41.7092 203.93C39.6139 202.861 37.5651 201.744 35.4 200.884C32.6665 199.754 29.8168 198.927 26.9023 198.419C21.2409 197.483 15.4356 197.954 9.99997 199.791C7.15048 200.769 4.4659 202.172 2.03773 203.953ZM22.8047 188.839C18.8003 190.792 14.7959 192.815 10.9312 195.071C9.90685 195.675 8.88246 196.326 7.88136 197.001C12.2507 194.923 16.8662 193.407 21.6174 192.49C28.9743 190.932 36.4709 189.978 43.8046 188.165C51.2744 186.385 58.4929 183.682 65.2933 180.119C68.6352 178.334 71.8069 176.248 74.7688 173.887C77.8213 171.389 80.5926 168.566 83.0337 165.47C85.9672 161.796 88.5514 157.819 91.1589 153.843C93.0262 151.194 94.625 148.367 95.9316 145.402C95.0951 146.855 94.1779 148.26 93.1844 149.611C90.9807 152.652 88.46 155.45 85.6645 157.959C79.8896 162.929 73.4484 167.069 66.5272 170.26C59.5428 173.655 52.0695 176.422 44.7591 179.259C37.4487 182.095 30.0452 185.351 22.8047 188.839ZM97.7708 138.101C100.298 130.741 100.016 122.709 96.9793 115.545C95.4433 111.987 93.0182 108.882 89.9363 106.529C86.8544 104.176 83.219 102.652 79.3785 102.105C77.7472 101.941 76.1008 102.012 74.4894 102.314C75.9492 102.669 77.2555 103.484 78.2145 104.639C79.0791 105.632 79.6449 106.849 79.8468 108.149C80.0486 109.449 79.8782 110.78 79.3553 111.987C80.45 111.564 81.634 111.423 82.7978 111.577C83.9616 111.732 85.0677 112.176 86.0137 112.871C87.0778 113.693 87.8013 114.878 88.0461 116.199C88.2909 117.52 88.0398 118.885 87.3408 120.033C86.9068 120.652 86.3808 121.2 85.7809 121.661C86.349 121.707 86.9065 121.84 87.4339 122.056C88.7463 122.539 89.8767 123.416 90.67 124.567C91.4179 125.68 91.7898 127.002 91.7311 128.341C91.6725 129.68 91.1864 130.965 90.3441 132.008C89.4442 133.036 88.3105 133.834 87.0381 134.334C87.0515 134.442 87.0515 134.551 87.0381 134.659C86.9979 134.76 86.943 134.854 86.8752 134.938C87.4701 136.224 87.7266 137.641 87.6202 139.054C87.5115 139.933 87.2113 140.778 86.7407 141.53C86.2701 142.281 85.6406 142.92 84.8962 143.402C84.1648 143.88 83.3451 144.206 82.4854 144.362C81.6257 144.517 80.7434 144.499 79.8907 144.309C78.8757 144.071 77.9233 143.619 77.097 142.984C77.1318 143.402 77.1318 143.822 77.097 144.239C77.065 145.57 76.5332 146.84 75.607 147.797C74.6008 148.717 73.307 149.261 71.945 149.338C70.583 149.414 69.2365 149.018 68.1336 148.216C67.0644 147.456 66.2135 146.43 65.6658 145.239C65.2719 146.185 64.6744 147.033 63.9155 147.722C63.1567 148.411 62.2552 148.925 61.2752 149.227C60.2951 149.528 59.2605 149.611 58.2449 149.468C57.2292 149.326 56.2575 148.962 55.3987 148.402C56.1648 149.528 57.0724 150.552 58.0993 151.448C60.8463 153.859 64.2053 155.468 67.8077 156.098C71.4166 156.689 75.1103 156.5 78.6402 155.546C82.1701 154.591 85.4544 152.893 88.272 150.564C91.9706 147.532 95.0056 143.772 97.1888 139.519C97.2243 139.433 97.2816 139.358 97.3551 139.301C97.4286 139.244 97.5157 139.207 97.6079 139.193C97.6967 139.102 97.8097 139.037 97.9338 139.007C97.9099 138.885 97.9099 138.758 97.9338 138.635C97.8656 138.566 97.8151 138.481 97.7867 138.388C97.7583 138.295 97.7529 138.196 97.7708 138.101ZM69.3675 104.43C72.6193 106.591 75.5371 109.215 78.0282 112.22C78.5533 111.134 78.73 109.912 78.5341 108.722C78.3383 107.531 77.7795 106.431 76.934 105.569C75.9065 104.69 74.6523 104.117 73.3144 103.916C71.9765 103.714 70.6089 103.892 69.3675 104.43ZM69.3675 140.519C73.8832 139.568 78.1796 137.777 82.0326 135.24C80.822 135.45 79.7045 135.612 78.424 135.752C76.0944 136.044 73.7319 135.933 71.4396 135.426C66.6993 134.072 62.6381 130.994 60.055 126.799L59.147 125.311C58.9345 124.754 58.6446 124.23 58.2856 123.753C57.9131 123.428 57.2612 123.567 56.8189 123.591L54.8632 123.73C52.279 123.87 49.6482 123.939 47.0639 123.73C41.9461 123.599 36.9209 122.336 32.3501 120.033C29.7941 118.724 27.5231 116.922 25.6684 114.731C24.7901 113.607 24.0111 112.409 23.3402 111.15C22.991 110.569 22.6418 109.987 22.2693 109.429C23.4778 114.085 25.402 118.525 27.9732 122.591C30.9547 127.311 34.8488 131.39 39.4277 134.589C43.7596 137.544 48.6453 139.592 53.7907 140.611C58.936 141.63 64.2346 141.599 69.3675 140.519ZM53.0706 143.216C53.7185 144.494 54.6406 145.614 55.7712 146.495C56.7996 147.288 58.0572 147.729 59.3565 147.751C60.5686 147.739 61.748 147.356 62.7349 146.653C63.7218 145.951 64.4686 144.962 64.8742 143.821C61.7727 144.119 58.6466 144.049 55.5617 143.612C54.8399 143.542 54.0251 143.379 53.2335 143.216H53.0706ZM66.6902 143.612C67.1535 145.017 68.1025 146.213 69.3675 146.983C69.947 147.331 70.5979 147.544 71.2714 147.604C71.9449 147.664 72.6233 147.571 73.2555 147.332C73.8535 147.096 74.3812 146.712 74.7887 146.216C75.1961 145.719 75.4698 145.127 75.5837 144.495C75.677 143.832 75.677 143.159 75.5837 142.495V141.333C72.77 142.422 69.8408 143.187 66.8531 143.612H66.6902ZM61.6148 126.079C62.3116 127.072 63.0904 128.005 63.943 128.869C65.5522 130.599 67.4915 131.991 69.6469 132.962C72.0796 133.92 74.6997 134.31 77.3065 134.101C78.6124 134.004 79.911 133.826 81.1945 133.566L83.5226 133.055C83.057 132.334 82.6147 131.59 82.1257 130.869C81.3337 129.682 80.4461 128.563 79.4717 127.52C77.8011 125.627 75.7018 124.16 73.3487 123.242C69.0984 121.842 64.5017 121.899 60.2878 123.405C60.7534 124.288 61.1958 125.218 61.7778 126.079H61.6148ZM77.0038 140.728C77.3193 141.074 77.6705 141.386 78.0515 141.658C78.6085 142.037 79.2211 142.328 79.8674 142.519C80.5678 142.729 81.307 142.778 82.029 142.661C82.751 142.545 83.437 142.265 84.0348 141.844C84.6115 141.447 85.091 140.925 85.4377 140.317C85.7843 139.709 85.9892 139.031 86.037 138.333C86.0539 137.42 85.9282 136.51 85.6645 135.636C83.065 137.694 80.2085 139.406 77.1668 140.728H77.0038ZM86.7587 132.752C87.667 132.227 88.4591 131.523 89.0869 130.683C89.458 130.146 89.7119 129.538 89.8322 128.897C89.9526 128.256 89.9366 127.597 89.7853 126.962C89.6423 126.31 89.3603 125.696 88.9586 125.163C88.5568 124.629 88.0448 124.188 87.4572 123.87C86.8746 123.533 86.2357 123.304 85.5714 123.195C85.1146 123.15 84.6545 123.15 84.1978 123.195C85.5189 126.249 86.4347 129.462 86.9217 132.752H86.7587ZM84.7333 120.684C85.2792 120.189 85.7498 119.617 86.1301 118.986C86.4432 118.393 86.593 117.728 86.5644 117.058C86.5357 116.388 86.3297 115.737 85.9672 115.173C85.6281 114.628 85.1765 114.161 84.6426 113.804C84.1086 113.448 83.5045 113.209 82.8707 113.103C81.5588 112.927 80.2244 113.163 79.0526 113.778C79.5415 114.406 79.9839 115.057 80.4495 115.708C81.7073 117.585 82.7979 119.569 83.7089 121.637L84.7333 120.684ZM33.3978 181.793C35.7259 180.793 37.8678 179.84 40.1261 178.91C43.9675 177.305 47.8555 175.794 51.7668 174.259C46.3421 171.596 40.6434 169.53 34.7714 168.097C28.5588 166.69 22.1822 166.143 15.8203 166.469C12.5842 166.632 9.32481 166.934 6.08868 167.423C15.2848 172.073 24.4344 176.724 33.3978 181.793ZM37.5186 152.587C36.2148 152.587 34.8878 152.89 33.584 153.099C30.9659 153.5 28.382 154.098 25.8546 154.889C20.7557 156.495 15.9229 158.846 11.5133 161.865C9.42467 163.26 7.44759 164.815 5.59978 166.516C11.698 165.088 17.9781 164.594 24.2249 165.051C30.6864 165.491 37.072 166.701 43.2458 168.655C46.2514 169.535 49.1731 170.678 51.9763 172.073C49.0606 164.964 45.1406 158.308 40.3356 152.308L37.5186 152.587ZM28.4388 132.543C33.7237 141.24 40.7314 148.681 46.6682 156.912C50.3611 161.662 53.3053 166.947 55.3987 172.585C55.3987 172.585 55.3987 172.585 55.3987 172.748C64.7474 169.176 73.5848 164.392 81.6834 158.517C84.3048 156.511 86.7718 154.311 89.0636 151.936C86.3004 154.198 83.1435 155.933 79.751 157.052C76.1058 158.303 72.2066 158.631 68.4032 158.006C64.5998 157.381 61.0112 155.823 57.9596 153.471C54.4355 150.709 51.8567 146.923 50.5795 142.635C43.6102 140.55 37.2776 136.748 32.1638 131.58C27.0501 126.412 23.3194 120.042 21.3147 113.057C22.2424 119.992 24.6736 126.642 28.4388 132.543ZM22.1296 107.709C23.6332 109.087 24.8857 110.716 25.8313 112.522C27.3157 114.521 29.1543 116.231 31.2559 117.568C35.5503 120.215 40.4416 121.742 45.4808 122.009C48.0392 122.172 50.6053 122.172 53.1637 122.009L56.3532 121.823C55.7712 121.149 55.2124 120.451 54.6304 119.8C52.7589 117.71 50.7441 115.752 48.6005 113.94C44.9079 110.675 40.4722 108.36 35.6793 107.197C33.1787 106.644 30.5962 106.565 28.0663 106.965C26.1437 107.542 24.1329 107.771 22.1296 107.639V107.709ZM27.7637 105.383C30.03 105.011 32.342 105.011 34.6084 105.383C39.4703 106.187 44.0506 108.202 47.9254 111.243C50.1657 112.951 52.2675 114.832 54.2113 116.87C55.2202 117.925 56.198 118.994 57.1448 120.079L58.3787 121.498C58.5371 121.692 58.7564 121.828 59.0014 121.883C59.2464 121.938 59.5027 121.908 59.729 121.8C64.0591 120.289 68.7508 120.151 73.1624 121.405C75.8657 122.277 78.3071 123.812 80.2632 125.869C81.3758 127.001 82.403 128.214 83.3364 129.497C83.6158 129.846 83.8718 130.218 84.1279 130.59C82.0536 120.995 76.4018 112.549 68.3199 106.965C63.9018 103.957 58.9196 101.875 53.6738 100.844C48.428 99.8132 43.0274 99.8544 37.798 100.965C32.7753 102.001 27.9551 103.847 23.5265 106.43C24.9466 106.104 26.3435 105.616 27.7637 105.337V105.383ZM63.0816 91.6175C53.2568 92.7336 43.2225 93.78 34.1195 97.8726C30.969 99.2815 28.0116 101.087 25.3191 103.244C33.4553 98.7628 42.804 96.9718 52.0229 98.1283C57.3008 98.7558 62.4034 100.415 67.0394 103.012C70.4086 101.21 74.1887 100.315 78.009 100.412C81.8292 100.51 85.5584 101.598 88.8308 103.57C92.1644 105.749 94.9659 108.648 97.0289 112.053C99.0919 115.457 100.364 119.281 100.751 123.242C100.751 121.382 100.751 119.521 100.611 117.661C100.005 110.327 98.4399 103.103 95.9549 96.1751C94.6744 92.4081 93.2077 88.7341 91.6944 85.0601H91.5314C82.7078 89.5479 72.7433 90.5246 63.0816 91.6175ZM52.8145 60.8768C53.2853 63.4827 53.9309 66.0541 54.7468 68.5736C56.3765 73.6542 58.7793 78.454 61.8709 82.8045C62.7091 84.0369 63.617 85.1298 64.5716 86.3855C65.5261 87.6412 66.0616 88.1062 66.76 88.9899C69.3908 88.6178 72.0216 88.1992 74.6059 87.6644C79.5316 86.6595 84.3273 85.0993 88.9006 83.0138C83.2105 81.1777 77.8156 78.5305 72.883 75.1542C67.4141 71.6031 62.4292 67.3589 58.0528 62.5278C55.8067 59.981 53.789 57.2421 52.0229 54.3426C52.1657 56.5336 52.4299 58.715 52.8145 60.8768ZM53.0706 54.0636C56.6439 58.9313 60.717 63.4125 65.2234 67.4342C69.9636 71.6119 75.2794 75.0888 81.0082 77.7586C84.0348 79.0607 87.108 80.3629 90.3208 81.3861C89.1102 78.5957 87.9927 75.8053 86.7122 73.0149C85.3153 69.713 83.9883 66.411 82.7078 63.0626C72.7201 60.4582 62.9186 57.226 53.0706 54.0636ZM82.5681 40.1117C86.2507 44.6406 90.948 48.241 96.2808 50.6221C98.8192 51.7217 101.424 52.6614 104.08 53.4358C103.419 51.15 102.642 48.8993 101.752 46.6923C100.622 43.9962 99.2009 41.431 97.5147 39.0421C94.184 34.4306 89.7819 30.6961 84.6867 28.1596C81.9618 26.8171 79.05 25.8921 76.0493 25.4157C76.9763 30.7608 79.2429 35.7845 82.6379 40.0187L82.5681 40.1117ZM103.521 124.614C104.383 120.475 105.221 116.336 105.849 112.15C106.458 108.236 106.661 104.27 106.455 100.314C106.219 96.6363 105.619 92.9909 104.662 89.4317C102.708 82.2496 99.8364 75.3487 96.1179 68.8991C92.4161 62.365 87.9461 56.3657 83.7089 50.2966C80.1889 45.4682 77.3674 40.1687 75.3276 34.5542L75.5371 35.6703C76.3962 39.4107 77.4452 43.105 78.6801 46.7389C81.3031 54.831 84.3142 62.7835 87.7133 70.5966C91.0192 78.2469 94.5347 85.7809 97.3751 93.6172C100.049 100.675 101.771 108.057 102.497 115.568C103.003 121.255 102.594 126.986 101.286 132.543C102.288 129.943 103.051 127.258 103.568 124.521L103.521 124.614ZM99.7498 140.891C100.262 141.449 100.774 142.03 101.31 142.565C102.33 143.604 103.402 144.589 104.522 145.518C106.786 147.364 109.236 148.969 111.833 150.308C116.953 153.017 122.567 154.67 128.339 155.168C131.143 155.413 133.963 155.413 136.767 155.168C129.599 146.503 119.44 140.836 108.294 139.286C106.642 139.074 104.978 138.965 103.312 138.961H100.984C100.434 139.007 99.8807 139.007 99.3307 138.961L99.191 139.1C99.1222 139.182 99.0343 139.246 98.9349 139.286C98.9704 139.392 98.9704 139.506 98.9349 139.612V139.798C99.2484 140.099 99.5365 140.426 99.7963 140.775L99.7498 140.891ZM48.2047 198.117C50.1492 196.454 52.1857 194.901 54.3045 193.466C58.346 190.692 62.7585 188.501 67.4119 186.955C72.0425 185.468 76.8905 184.769 81.7532 184.886C87.2794 184.912 92.7178 186.268 97.6079 188.839C101.542 191 104.694 194.344 106.618 198.396C106.835 191.161 106.194 183.925 104.709 176.84C103.009 168.795 100.052 161.098 98.4227 153.029C97.9087 150.658 97.5355 148.259 97.3052 145.844C96.2299 148.38 94.945 150.822 93.4638 153.145C91.1356 156.68 88.9239 160.121 86.4794 163.539C84.0935 166.907 81.3711 170.023 78.3542 172.841C75.545 175.436 72.506 177.77 69.2744 179.817C62.7374 183.793 55.688 186.859 48.3212 188.932C44.5961 190.017 40.8323 190.963 37.0297 191.769C33.3279 192.536 29.6262 193.141 25.9244 193.862C20.749 194.731 15.6776 196.134 10.7915 198.047C12.8605 197.38 14.9889 196.913 17.1474 196.652C23.1917 196.057 29.2922 196.852 34.9809 198.977C37.9205 199.943 40.7281 201.271 43.3389 202.93C44.0374 202.256 44.7824 201.628 45.4808 200.954C46.1793 200.279 47.2269 198.954 48.2047 198.117ZM51.3477 207.418C54.0531 208.436 56.8646 209.146 59.729 209.534C65.5222 210.403 71.4406 209.828 76.9573 207.86C79.6677 206.834 82.2655 205.533 84.71 203.977C80.0753 200.974 74.8385 199.022 69.3675 198.256C63.5449 197.59 57.6467 198.25 52.116 200.186C49.4557 201.201 46.8857 202.438 44.4332 203.884V204.023C46.6528 205.314 48.9638 206.441 51.3477 207.395V207.418ZM100.984 244.623C102.124 240.67 103.312 236.764 104.266 232.764C105.277 228.482 105.954 224.129 106.292 219.742C106.576 216.34 106.685 212.925 106.618 209.511C104.991 212.92 102.484 215.834 99.354 217.952C94.6811 220.916 89.3095 222.6 83.7787 222.835C73.9031 223.43 64.1005 220.811 55.841 215.371C53.4116 213.85 51.079 212.181 48.8566 210.371C47.7624 209.464 46.6682 208.534 45.6205 207.558L43.1061 205.232C40.804 206.677 38.3532 207.869 35.7958 208.79C32.8941 209.865 29.8911 210.644 26.8324 211.115C21.5537 212.022 16.1369 211.704 11.0011 210.185L12.235 210.65C15.7275 211.907 19.3067 212.91 22.9444 213.65C30.4178 215.208 37.9376 216.301 45.3178 218.301C52.7716 220.22 59.9583 223.056 66.7135 226.742C73.5647 230.584 79.6115 235.708 84.5237 241.833C87.1545 245.158 89.5292 248.809 91.8341 252.25C93.9652 255.349 95.7972 258.642 97.3052 262.086C97.4573 260.191 97.706 258.306 98.0502 256.436C98.8274 252.444 99.8064 248.493 100.984 244.6V244.623ZM102.706 268.969C104.173 268.969 105.64 268.969 107.083 268.783C109.984 268.496 112.847 267.912 115.628 267.039C121.186 265.333 126.347 262.535 130.807 258.808C132.999 256.992 135.032 254.993 136.884 252.832C125.661 251.781 114.455 254.994 105.5 261.831C104.195 262.849 102.951 263.944 101.775 265.109C101.216 265.667 100.658 266.225 100.122 266.83C99.7847 267.264 99.4023 267.662 98.9815 268.016V268.202C99.017 268.308 99.017 268.422 98.9815 268.528C99.0851 268.559 99.1752 268.625 99.2376 268.714L99.3773 268.853C99.7956 268.818 100.216 268.818 100.634 268.853L102.706 268.969ZM82.1723 360.191C86.2698 353.913 90.8796 347.96 94.721 341.589C98.6458 335.229 101.773 328.411 104.034 321.289C106.279 314.131 107.07 306.597 106.362 299.129C105.919 294.873 105.058 290.664 104.243 286.479C103.649 282.507 102.634 278.61 101.216 274.852C101.589 276.294 101.915 277.736 102.171 279.224C102.746 282.688 102.972 286.202 102.846 289.711C102.485 297.094 101.058 304.385 98.609 311.36C95.9782 319.243 92.5558 326.846 89.18 334.45C85.8042 342.054 82.6379 350.123 79.8674 358.168C78.5404 362.028 77.2832 365.912 76.2356 369.795C75.9096 371.027 75.607 372.283 75.3741 373.562C77.0376 368.817 79.3235 364.313 82.1723 360.168V360.191ZM90.8097 376.05C95.3469 372.384 98.9526 367.699 101.333 362.377C102.434 359.842 103.375 357.24 104.15 354.587C101.861 355.248 99.6079 356.024 97.3983 356.913C94.699 358.042 92.1306 359.461 89.7388 361.145C85.1153 364.465 81.3748 368.863 78.8431 373.957C77.499 376.679 76.5728 379.587 76.0959 382.584C81.4806 381.689 86.5461 379.432 90.8097 376.027V376.05ZM123.939 372.051C120.633 373.446 117.327 374.771 113.975 376.05C111.204 385.933 108.015 395.722 104.872 405.489C109.741 401.949 114.227 397.912 118.258 393.443C122.453 388.696 125.942 383.371 128.619 377.631C129.992 374.655 131.226 371.586 132.344 368.47L123.939 372.051Z" fill="#413E7E"/>
</svg>
