<svg width="137" height="408" viewBox="0 0 137 408" fill="none" xmlns="http://www.w3.org/2000/svg">
<path d="M0.116407 369.074V377.678C0.904409 374.961 1.8847 372.303 3.04986 369.725C4.88312 375.418 7.53378 380.815 10.919 385.747C14.4804 391.204 18.7291 396.183 23.5608 400.559C26.1106 402.802 28.8528 404.818 31.7558 406.582C29.5918 406.439 27.4383 406.167 25.3069 405.768C22.7054 405.308 20.1384 404.671 17.624 403.861C12.5319 402.229 7.71925 399.829 3.35252 396.745C2.23501 395.978 1.16407 395.164 0.116407 394.42V396.745L1.49001 397.769C3.70944 399.372 6.04387 400.809 8.47443 402.07C13.36 404.574 18.5948 406.33 24.0031 407.279C27.0847 407.753 30.1978 407.994 33.3157 408C33.4105 407.995 33.5031 407.97 33.5872 407.926C33.6712 407.882 33.7446 407.82 33.8023 407.745C33.8599 407.67 33.9004 407.583 33.9209 407.49C33.9414 407.398 33.9414 407.302 33.921 407.209C31.1272 397.49 28.4033 387.77 25.3302 378.12L26.9831 379.213C27.8911 379.84 28.7758 380.538 29.6605 381.236C31.5117 382.672 33.2692 384.226 34.9221 385.886C38.2183 389.18 40.906 393.029 42.8611 397.257C43.024 397.606 43.6293 397.373 43.5129 396.978C41.9581 392.386 39.5926 388.11 36.5285 384.351C34.9934 382.473 33.2519 380.773 31.3368 379.282L31.1272 379.143C33.0363 379.794 34.9687 380.398 36.8777 381.003C40.7425 382.166 44.6072 383.328 48.5184 384.235C51.7631 385.066 55.1341 385.287 58.4596 384.886H59.0416C59.1643 384.901 59.2885 384.88 59.3998 384.826C59.5111 384.773 59.6049 384.689 59.6702 384.584L60.2755 384.421C60.4173 384.558 60.5946 384.651 60.7872 384.692C60.9798 384.732 61.1798 384.717 61.3645 384.649C61.5491 384.582 61.7109 384.463 61.8312 384.307C61.9516 384.152 62.0256 383.966 62.0449 383.77C62.2408 383.751 62.4272 383.677 62.5829 383.557C62.7386 383.437 62.8573 383.275 62.9253 383.091C62.9933 382.906 63.008 382.706 62.9676 382.514C62.9272 382.322 62.8333 382.145 62.6968 382.003H62.5804L62.7201 381.422C62.8311 381.356 62.9208 381.259 62.9786 381.144C63.0364 381.028 63.0598 380.899 63.046 380.771C63.0575 380.546 63.0575 380.321 63.046 380.096C63.3834 377.709 63.3363 375.283 62.9063 372.911C62.1982 369.128 61.2574 365.393 60.0893 361.726C59.2046 358.75 58.2733 355.797 57.2722 352.843L57.4585 353.076C58.9424 354.988 60.6371 356.728 62.5106 358.261C66.2724 361.337 70.5644 363.701 75.1756 365.237C75.5481 365.377 75.8042 364.772 75.4317 364.61C71.2008 362.654 67.3473 359.97 64.0471 356.68C62.3905 355.057 60.8354 353.333 59.3908 351.518C58.6924 350.634 57.994 349.751 57.3654 348.844C56.7368 347.937 56.5971 347.681 56.2246 347.1C65.8631 350.169 75.5947 352.89 85.3263 355.657C85.4193 355.682 85.5168 355.685 85.6113 355.667C85.7057 355.648 85.7946 355.608 85.8711 355.549C85.9476 355.491 86.0097 355.416 86.0524 355.33C86.0952 355.244 86.1176 355.149 86.1179 355.053C86.1134 352.308 85.9346 349.566 85.5824 346.844C85.1742 344.125 84.5514 341.443 83.7199 338.822C82.042 333.599 79.6107 328.648 76.5027 324.126C75.618 322.847 74.6867 321.615 73.6856 320.429L73.0105 319.661C74.4772 319.964 75.9905 320.196 77.4339 320.638C83.1278 322.194 88.3083 325.227 92.4504 329.428C94.0471 331.042 95.4177 332.864 96.5247 334.846C96.5957 334.969 96.7128 335.059 96.8504 335.096C96.9879 335.133 97.1345 335.114 97.258 335.043C97.3815 334.972 97.4718 334.855 97.5089 334.718C97.546 334.581 97.5269 334.434 97.4559 334.311C93.4795 326.986 86.9398 321.381 79.0869 318.568L77.2477 318.034C86.5602 316.871 95.8728 315.452 104.301 311.406C109.202 309.217 113.482 305.845 116.756 301.594C116.836 301.565 116.906 301.515 116.959 301.449C117.013 301.384 117.047 301.305 117.059 301.221C117.105 301.153 117.129 301.072 117.129 300.989C117.129 300.906 117.105 300.825 117.059 300.756C118.456 291.781 115.033 282.828 110.563 275.178C107.614 270.313 104.339 265.651 100.762 261.226L101.716 261.761C103.576 262.741 105.535 263.52 107.56 264.086C111.519 265.227 115.66 265.598 119.76 265.179C122.075 264.97 124.366 264.55 126.604 263.923C126.724 263.873 126.822 263.781 126.878 263.665C126.935 263.548 126.948 263.415 126.914 263.289C126.88 263.164 126.801 263.056 126.693 262.984C126.584 262.913 126.454 262.883 126.325 262.9C118.662 264.942 110.503 263.899 103.602 259.994C102.058 259.133 100.558 258.193 99.1089 257.18C100.622 257.18 102.135 256.878 103.579 256.645C106.303 256.203 108.988 255.55 111.611 254.692C116.842 253.025 121.788 250.571 126.278 247.414C128.762 245.585 131.098 243.564 133.263 241.368C133.329 241.297 133.378 241.212 133.407 241.12C133.436 241.028 133.444 240.93 133.431 240.835C133.417 240.739 133.383 240.647 133.33 240.567C133.276 240.486 133.206 240.418 133.123 240.368C124.299 235.462 115.476 230.532 106.489 225.881C107.723 225.649 108.957 225.346 110.214 225.207C112.03 224.998 113.846 224.742 115.685 224.626C119.286 224.415 122.898 224.649 126.441 225.323C128.47 225.72 130.463 226.28 132.401 226.997C132.774 227.137 133.03 226.532 132.657 226.346C126.043 223.014 118.6 221.681 111.239 222.51C112.798 221.742 114.358 220.975 115.895 220.184C119.783 218.138 123.694 216.045 127.536 213.673C130.317 212.026 132.765 209.872 134.753 207.325L135.242 206.93C135.344 206.849 135.42 206.739 135.462 206.616C135.503 206.492 135.507 206.359 135.474 206.232L135.754 205.721C135.963 205.742 136.173 205.702 136.359 205.605C136.545 205.508 136.698 205.358 136.8 205.175C136.901 204.992 136.947 204.783 136.931 204.574C136.914 204.365 136.837 204.165 136.708 204C136.801 203.911 136.874 203.804 136.924 203.687C136.974 203.569 137 203.442 137 203.314C137 203.186 136.974 203.059 136.924 202.941C136.874 202.824 136.801 202.717 136.708 202.628C136.6 202.506 136.46 202.416 136.304 202.367C136.149 202.318 135.983 202.312 135.824 202.349L135.521 201.814C135.554 201.688 135.55 201.555 135.508 201.431C135.467 201.307 135.39 201.198 135.288 201.117L134.776 200.721C133.121 198.535 131.096 196.654 128.793 195.164C125.51 192.838 121.971 191.071 118.502 189.164C116.174 187.909 113.846 186.7 111.518 185.537C112.915 185.715 114.323 185.8 115.732 185.793C119.562 185.762 123.367 185.167 127.023 184.026C129.032 183.391 130.993 182.614 132.89 181.7C133.239 181.537 132.89 180.91 132.634 181.072C125.818 183.466 118.512 184.122 111.378 182.979C110.354 182.84 109.353 182.723 108.328 182.537L106.722 182.189C115.709 177.538 124.532 172.608 133.356 167.702C133.439 167.652 133.509 167.584 133.562 167.503C133.616 167.422 133.65 167.331 133.664 167.235C133.677 167.139 133.669 167.042 133.64 166.95C133.611 166.857 133.561 166.773 133.496 166.702C131.553 164.761 129.484 162.951 127.303 161.284C125.1 159.636 122.764 158.174 120.318 156.912C115.436 154.4 110.212 152.614 104.813 151.611C103.273 151.326 101.718 151.124 100.157 151.006H99.1322C100.413 150.146 101.67 149.262 103.02 148.518C104.688 147.593 106.433 146.815 108.235 146.193C111.922 144.831 115.829 144.161 119.76 144.216C122.024 144.28 124.27 144.64 126.441 145.286C126.57 145.303 126.701 145.273 126.809 145.202C126.917 145.13 126.996 145.022 127.03 144.897C127.064 144.771 127.052 144.638 126.995 144.521C126.938 144.405 126.84 144.313 126.721 144.263C118.746 141.791 110.138 142.354 102.555 145.844C101.973 146.123 101.414 146.425 100.832 146.751L101.228 146.239C107.071 138.728 112.729 130.869 115.685 121.73C117.292 117.08 117.778 112.117 117.105 107.244C117.151 107.17 117.175 107.086 117.175 106.999C117.175 106.913 117.151 106.829 117.105 106.755C117.096 106.674 117.065 106.597 117.016 106.532C116.967 106.467 116.901 106.415 116.826 106.383C111.006 98.4306 101.228 94.5241 91.915 92.4313C87.0639 91.391 82.1598 90.6147 77.2244 90.106L78.3419 89.8037C80.3441 89.2367 82.2797 88.4571 84.1157 87.4784C87.7462 85.4846 90.956 82.8077 93.5679 79.5956C95.0571 77.8253 96.3746 75.9177 97.5025 73.8986C97.5735 73.7752 97.5926 73.6287 97.5554 73.4914C97.5183 73.354 97.4281 73.237 97.3046 73.1661C97.2435 73.131 97.176 73.1082 97.106 73.0991C97.0361 73.0901 96.965 73.0948 96.8969 73.1132C96.7594 73.1503 96.6423 73.2404 96.5712 73.3637C92.5824 80.2114 86.0615 85.2214 78.4118 87.3156C76.7122 87.8272 74.9894 88.1527 73.2666 88.5015C74.266 87.3707 75.1988 86.1827 76.0603 84.9438C77.6731 82.7323 79.113 80.4001 80.3674 77.9678C82.8813 73.0891 84.6471 67.8608 85.6057 62.458C86.0609 59.3782 86.2943 56.2698 86.3041 53.1567C86.3029 53.0601 86.2802 52.9649 86.2376 52.8781C86.1949 52.7913 86.1335 52.7151 86.0577 52.655C85.9819 52.5949 85.8937 52.5524 85.7994 52.5305C85.7051 52.5087 85.6071 52.5082 85.5126 52.5289C75.781 55.3193 66.0493 58.0399 56.4108 61.1093L57.4818 59.4583C58.1104 58.5515 58.8088 57.6678 59.5073 56.7842C60.9457 54.9353 62.501 53.1799 64.1635 51.529C67.4637 48.2397 71.3172 45.5558 75.5481 43.5997C75.6346 43.5658 75.704 43.4989 75.7411 43.4139C75.7782 43.3289 75.78 43.2326 75.746 43.1462C75.7121 43.0599 75.6452 42.9906 75.56 42.9535C75.4749 42.9164 75.3785 42.9147 75.292 42.9486C70.6856 44.4963 66.3955 46.8592 62.627 49.9245C60.7535 51.4583 59.0589 53.1977 57.5749 55.11L57.4119 55.3193C58.0638 53.4125 58.6924 51.5058 59.2744 49.5757C60.4385 45.7157 61.6026 41.8557 62.5106 37.9492C63.3618 34.7118 63.5909 31.3426 63.1857 28.0201C63.1972 27.8265 63.1972 27.6323 63.1857 27.4387C63.2 27.3162 63.1791 27.1921 63.1256 27.081C63.072 26.9698 62.9879 26.8762 62.8831 26.8109C62.8831 26.6016 62.8831 26.3923 62.7201 26.1598C62.8401 26.0748 62.9399 25.9644 63.0123 25.8365C63.0848 25.7086 63.1281 25.5663 63.1392 25.4198C63.1503 25.2732 63.1289 25.126 63.0766 24.9887C63.0243 24.8513 62.9423 24.7272 62.8365 24.6251C62.6666 24.4571 62.4453 24.3507 62.2079 24.3228C62.1767 24.0866 62.0706 23.8666 61.9052 23.695C61.7993 23.5901 61.6717 23.5096 61.5314 23.4592C61.3911 23.4087 61.2414 23.3894 61.0928 23.4027C60.9443 23.416 60.8004 23.4615 60.6713 23.5361C60.5422 23.6107 60.431 23.7125 60.3454 23.8345L59.7401 23.6717C59.674 23.5609 59.5774 23.4713 59.4619 23.4135C59.3463 23.3558 59.2166 23.3325 59.0882 23.3462L58.3199 23.2532C56.006 22.8899 53.6494 22.8899 51.3355 23.2532C47.5402 23.9578 43.7924 24.8975 40.1138 26.0668C37.1338 26.9504 34.1771 27.8805 31.2204 28.8804L31.4532 28.7177C33.3627 27.221 35.1036 25.5213 36.6449 23.6485C39.709 19.8898 42.0745 15.6135 43.6293 11.022C43.7458 10.6267 43.1404 10.3709 42.9775 10.743C41.0142 14.9729 38.3277 18.8287 35.0385 22.137C33.4109 23.7983 31.6767 25.3518 29.8468 26.7876C28.9621 27.4852 28.0774 28.1828 27.1694 28.8107L25.4233 29.9733C28.4499 20.2303 31.1738 10.5104 33.9676 0.790608C33.988 0.698053 33.988 0.602156 33.9675 0.509617C33.947 0.417077 33.9065 0.330125 33.8488 0.254836C33.7912 0.179547 33.7178 0.117735 33.6337 0.0737192C33.5497 0.0297033 33.457 0.00454438 33.3622 0C30.6142 0.00294872 27.8691 0.181588 25.1439 0.534823C22.4159 0.919716 19.7225 1.51839 17.0885 2.32532C11.8796 4.02915 6.9466 6.48091 2.44455 9.60356C1.67626 10.1384 0.931256 10.6965 0.116407 11.2778V13.6031C0.931256 12.9055 1.72282 12.2777 2.56095 11.6266C4.7028 10.0826 6.95117 8.69172 9.28928 7.46426C14.0414 5.02827 19.1236 3.29709 24.3756 2.32532C26.8153 1.80082 29.2895 1.45113 31.7791 1.27892C26.4365 4.56456 21.6311 8.65052 17.5309 13.3938C13.2456 18.3011 9.56422 23.7033 6.56535 29.485C5.14583 32.2565 3.96207 35.1423 3.02658 38.1119C1.87579 35.5545 0.903411 32.9206 0.116407 30.2291V38.8328C0.395784 39.4839 0.698442 40.1117 1.0011 40.7628V40.9256L0.116407 41.3441V43.6694C4.33034 41.9255 8.49771 40.0652 12.6651 38.2282C20.4255 34.8177 28.3335 31.7173 36.3888 28.9269C40.2535 27.6015 44.1415 26.3458 48.0295 25.2994C49.2634 24.9739 50.5439 24.6716 51.8011 24.4391C47.0519 26.1245 42.5437 28.4228 38.391 31.2755C32.105 35.3681 26.145 39.9722 19.7659 43.8322C13.5943 47.6134 6.99926 50.6571 0.116407 52.9009V54.5054C6.0552 52.6918 11.7898 50.2683 17.2282 47.2737C20.5109 45.4832 23.747 43.5764 26.89 41.5534C30.033 39.5304 33.176 37.2051 36.319 35.1123C40.7536 31.9411 45.5051 29.2371 50.4973 27.0434C48.5972 28.0138 46.7961 29.1663 45.1194 30.4849C40.4095 34.3104 36.6286 39.152 34.0607 44.6461C32.6361 47.4462 31.5722 50.4152 30.8944 53.4823L28.0541 53.5985C26.7038 53.5985 25.3767 53.7381 24.0264 53.8311C21.4395 54.0643 18.867 54.4369 16.3203 54.9472C11.4528 55.8705 6.74664 57.4999 2.35142 59.7839C1.6297 60.1559 0.954537 60.5512 0.256095 60.9698V63.0161C4.873 60.0378 9.94496 57.8308 15.2726 56.4819C17.9591 55.8197 20.6902 55.3534 23.4444 55.0867C24.8645 54.924 26.308 54.831 27.7514 54.7612C26.2171 55.1878 24.7155 55.724 23.2581 56.3657C20.4781 57.5923 17.8589 59.1541 15.4588 61.0163C10.6514 64.7069 6.6836 69.3753 3.81815 74.7124C2.11983 77.6712 0.931449 80.894 0.302658 84.2462C0.271809 84.4578 0.306593 84.6737 0.402327 84.865C0.498062 85.0562 0.650153 85.2135 0.83813 85.3158C0.944507 85.5055 1.10621 85.6582 1.30169 85.7538C1.49717 85.8493 1.71716 85.8831 1.93236 85.8507C7.94501 84.6971 13.5581 82.0141 18.2293 78.0609C22.9872 74.3327 26.8194 69.5582 29.4277 64.109C30.2587 62.3543 30.9439 60.5345 31.4765 58.6677C31.4765 59.7606 31.4765 60.8768 31.2436 61.9697C31.0307 64.4545 30.6653 66.924 30.1494 69.3642C29.1629 74.0663 27.5005 78.6011 25.2138 82.8278C23.0045 87.0016 20.1083 90.7748 16.6462 93.9893C12.8187 97.7631 8.09117 100.5 2.91017 101.942C1.98823 102.128 1.05491 102.252 0.116407 102.314V104.128L1.07094 104.011C6.49157 103.044 11.5506 100.634 15.7149 97.0354C23.4345 90.5265 28.7598 81.6317 30.8479 71.7593C31.498 68.9714 31.9646 66.1439 32.2447 63.2951C32.4077 61.7836 32.5008 60.2722 32.5707 58.7607C32.6405 57.2493 32.6871 56.4354 32.7104 55.2728C35.3675 54.6808 37.9516 53.7997 40.4165 52.6452C43.2606 51.3731 45.9674 49.8148 48.4952 47.9945C52.823 44.9096 56.3965 40.8873 58.9485 36.2284C58.7623 36.6935 58.5527 37.1586 58.3432 37.6236C56.6815 41.0483 54.7915 44.3577 52.6858 47.5295C50.5905 50.6919 48.3787 53.7846 46.2601 56.8307C44.1415 59.8769 42.1393 63.1323 40.2768 66.411C36.4682 72.9028 33.4734 79.8378 31.36 87.0598C29.2934 94.3487 28.6065 101.959 29.3346 109.499C29.7769 113.754 30.5918 117.963 31.4532 122.149C32.1708 126.053 33.2463 129.882 34.666 133.589C33.1222 132.299 31.5138 131.089 29.8468 129.962C26.4132 127.691 22.8617 125.603 19.2072 123.707C15.5985 121.707 11.9666 119.777 8.47443 117.568C5.56593 115.761 2.77438 113.773 0.116407 111.615V113.94C1.95564 115.382 3.84143 116.754 5.79707 118.056C12.7815 122.707 20.3247 126.009 27.3324 130.473C29.266 131.683 31.1171 133.019 32.8733 134.473C33.5019 134.985 34.084 135.519 34.666 136.077C30.3181 134.2 25.7496 132.879 21.0697 132.148C15.1442 131.241 9.115 131.241 3.18955 132.148C2.21173 132.287 1.16407 132.543 0.116407 132.706V135.031C6.20884 133.565 12.5011 133.11 18.7415 133.682C23.7261 134.177 28.6208 135.342 33.2924 137.147C32.0818 137.147 30.8711 137.194 29.6605 137.287C20.5046 138.026 11.8062 141.594 4.77269 147.495C3.07842 148.896 1.5195 150.453 0.116407 152.145V163.237C0.508412 162.195 0.774158 161.11 0.907975 160.005C1.55848 160.495 2.24314 160.938 2.95674 161.33C4.81862 162.331 6.85973 162.955 8.96334 163.167C12.8017 163.729 16.7146 162.904 19.9987 160.842C20.2083 160.679 19.9987 160.238 19.8125 160.377C18.1708 161.075 16.4626 161.605 14.7138 161.958C12.9042 162.238 11.0589 162.191 9.266 161.819C7.39434 161.403 5.602 160.688 3.95784 159.703C3.13105 159.227 2.35148 158.675 1.6297 158.052L0.954537 157.47V157.331C0.964958 157.269 0.964958 157.206 0.954537 157.145C6.63377 157.754 12.3776 157.236 17.8554 155.619C23.3333 154.003 28.4372 151.321 32.8733 147.727C34.1204 146.734 35.3097 145.67 36.4354 144.542C34.3733 149.092 31.7111 153.346 28.5197 157.191C24.3779 162.185 19.409 166.433 13.8292 169.748C9.53921 172.267 4.92597 174.192 0.116407 175.468V177.956C4.54392 176.811 8.80758 175.107 12.8048 172.887C18.686 169.587 23.9419 165.282 28.3335 160.168C32.4242 155.475 35.7122 150.14 38.0651 144.379C38.0175 146.827 37.7841 149.268 37.3666 151.68C36.5751 155.633 35.4576 159.517 34.2935 163.307C33.1294 167.097 31.9654 171.19 31.0108 175.213C30.0683 179.505 29.4149 183.855 29.0552 188.234C28.749 191.892 28.6868 195.567 28.8689 199.233C26.4945 195.996 23.4941 193.269 20.0453 191.211C15.7332 188.702 11.073 186.845 6.21613 185.7C4.23721 185.188 2.23501 184.77 0.232814 184.374V185.746C6.01627 186.816 11.6048 188.753 16.8092 191.49C19.6282 193.028 22.2607 194.885 24.655 197.024C22.412 195.485 19.988 194.228 17.4378 193.28C13.3314 191.677 9.02193 190.652 4.633 190.234C3.16627 190.071 1.69954 190.025 0.232814 190.002V192.141C5.22134 192.143 10.1786 192.928 14.9234 194.466C19.2112 195.804 23.2024 197.951 26.6805 200.791C18.2759 197.252 8.93321 196.598 0.116407 198.931V200.14C1.64763 199.739 3.20288 199.436 4.77269 199.233C10.2261 198.546 15.7611 198.926 21.0697 200.349C23.7706 201.058 26.4099 201.984 28.9621 203.116C29.1017 203.279 29.2414 203.419 29.3578 203.581C29.4271 203.669 29.5269 203.727 29.6372 203.744C29.7375 203.828 29.8579 203.883 29.9865 203.906C30.1151 203.928 30.2473 203.916 30.3699 203.872C30.4925 203.827 30.6012 203.751 30.6851 203.651C30.769 203.551 30.8251 203.431 30.8479 203.302C31.3392 200.802 32.3464 198.432 33.8055 196.342C35.2645 194.252 37.1433 192.489 39.3223 191.164C43.8276 188.443 48.9598 186.929 54.2224 186.769C63.6466 186.349 72.9784 188.78 80.996 193.745C83.3258 195.132 85.5512 196.686 87.6545 198.396C88.7254 199.256 89.7731 200.163 90.7975 201.093C89.3282 200.365 87.8115 199.735 86.2576 199.21C83.4303 198.078 80.4748 197.297 77.4572 196.885C71.4573 196.116 65.3623 196.631 59.5771 198.396C56.2972 199.325 53.202 200.812 50.4275 202.791C50.159 203.119 50.0123 203.53 50.0123 203.953C50.0123 204.377 50.159 204.788 50.4275 205.116C55.545 208.564 61.476 210.616 67.6325 211.069C73.6365 211.796 79.7274 211.111 85.4194 209.069C87.2351 208.442 88.9951 207.664 90.6811 206.744C89.9128 207.441 89.1212 208.139 88.3529 208.813C86.4709 210.419 84.488 211.902 82.4161 213.255C78.5068 215.82 74.2602 217.831 69.7976 219.231C65.3365 220.653 60.6742 221.344 55.9918 221.277C50.7622 221.324 45.5974 220.12 40.9287 217.766C38.327 216.504 36.0491 214.664 34.2695 212.386C32.4898 210.109 31.2557 207.455 30.6616 204.628C30.6388 204.499 30.5827 204.379 30.4988 204.279C30.415 204.18 30.3063 204.103 30.1837 204.059C30.0611 204.014 29.9289 204.002 29.8003 204.024C29.6717 204.047 29.5512 204.103 29.451 204.186C29.3947 204.189 29.3399 204.205 29.2913 204.233C29.2426 204.261 29.2016 204.301 29.1716 204.349L28.7758 204.814C19.8124 208.933 9.73998 209.987 0.116407 207.814V208.999C1.60642 209.348 3.11971 209.627 4.633 209.837C10.2075 210.607 15.8795 210.276 21.3258 208.86C23.1339 208.385 24.895 207.747 26.5874 206.953C23.53 209.51 20.0362 211.495 16.2737 212.813C12.3311 214.256 8.21224 215.163 4.02768 215.51C2.72392 215.51 1.42017 215.673 0.116407 215.673V217.812C5.41937 217.775 10.6805 216.871 15.6917 215.138C18.4888 214.22 21.1628 212.962 23.6539 211.395C24.0031 211.185 24.3291 210.929 24.6783 210.697C18.9845 215.707 12.1511 219.251 4.77269 221.021C3.2594 221.417 1.72282 221.765 0.116407 222.091V223.463C1.49001 223.207 2.88689 222.905 4.2605 222.579C9.12621 221.556 13.827 219.866 18.2293 217.557C22.3634 215.386 25.9589 212.319 28.7525 208.581C28.5708 211.679 28.5708 214.784 28.7525 217.882C29.0242 222.234 29.5998 226.562 30.4754 230.834C32.1283 238.903 35.1316 246.623 36.8777 254.669C37.3552 256.856 37.705 259.068 37.9254 261.296C37.9254 262.017 37.9254 262.761 38.0418 263.621C35.9806 258.604 33.2133 253.906 29.8235 249.669C25.6577 244.37 20.5904 239.844 14.8535 236.299C10.2869 233.458 5.31915 231.318 0.116407 229.951V232.532C10.4183 235.298 19.7151 240.945 26.9133 248.809C30.8086 253.153 33.9981 258.081 36.3655 263.412C35.5274 262.575 34.666 261.761 33.758 261.086C31.4149 259.066 28.8719 257.29 26.1683 255.785C20.794 252.911 14.8951 251.147 8.82365 250.599C6.19405 250.37 3.5471 250.432 0.931256 250.785C0.931256 250.785 0.931256 250.785 0.931256 250.623V250.483L1.60642 249.902C2.3282 249.279 3.10777 248.726 3.93456 248.251C5.57384 247.256 7.36784 246.54 9.24272 246.135C11.0357 245.763 12.8809 245.716 14.6906 245.995C16.442 246.338 18.1514 246.868 19.7892 247.576C20.0686 247.576 20.185 247.274 19.9754 247.111C16.6913 245.049 12.7784 244.225 8.94006 244.786C6.87474 244.996 4.8681 245.596 3.02658 246.553C2.28172 246.969 1.5661 247.435 0.884693 247.948C0.762067 246.829 0.504093 245.728 0.116407 244.67V255.785C7.34429 264.23 17.5475 269.575 28.6128 270.713C30.1587 270.888 31.7134 270.973 33.2691 270.969C29.2653 272.502 25.1035 273.586 20.8601 274.201C15.1652 274.965 9.38676 274.856 3.72502 273.876C2.49111 273.666 1.2572 273.387 0.0465628 273.085V275.41C6.24095 276.742 12.6143 277.033 18.9045 276.271C24.2945 275.624 29.5633 274.206 34.5496 272.062C32.7019 273.763 30.7248 275.318 28.6361 276.713C25.1905 279.038 21.6517 280.968 17.9267 282.921C14.2017 284.874 10.6396 286.851 7.10083 289.083C4.67956 290.634 2.35142 292.308 0.116407 294.106V296.431C2.44455 294.618 4.77269 292.92 7.10083 291.339C14.0852 286.688 21.6284 283.386 28.5663 278.852C30.6889 277.481 32.7259 275.982 34.666 274.364C33.5815 277.093 32.7325 279.909 32.1283 282.782C31.1971 286.944 30.3357 291.13 29.8002 295.338C28.6916 302.967 29.0232 310.736 30.778 318.243C32.5907 325.551 35.3619 332.588 39.0196 339.171C40.82 342.442 42.7291 345.65 44.7468 348.797C46.8422 352.006 49.0539 355.099 51.1958 358.238C54.3792 362.662 57.0871 367.409 59.2744 372.399C58.3029 370.502 57.1489 368.703 55.8288 367.028C52.0106 362.221 47.1245 358.368 41.5573 355.773C38.7538 354.35 35.7812 353.288 32.7104 352.611C32.7104 351.634 32.7104 350.634 32.594 349.681C32.594 348.332 32.594 347.007 32.3611 345.658C32.1276 343.074 31.7545 340.505 31.2436 337.961C30.3168 333.104 28.6937 328.405 26.4244 324.01C24.0403 319.562 20.8876 315.571 17.1118 312.22C13.0935 308.375 8.15626 305.621 2.77049 304.221C1.85775 304.008 0.932404 303.852 0 303.756V305.57L1.0011 305.686C6.20259 306.709 11.0297 309.12 14.9699 312.662C22.1924 319.035 27.2664 327.481 29.4975 336.845C30.1625 339.528 30.6294 342.256 30.8944 345.007C31.0574 346.426 31.1505 347.867 31.2204 349.309C30.7932 347.777 30.2563 346.277 29.6139 344.821C28.4782 342.109 27.0246 339.541 25.2836 337.171C21.5948 332.363 16.9193 328.399 11.5709 325.544C8.57771 323.848 5.31898 322.668 1.93236 322.056C1.71716 322.024 1.49717 322.058 1.30169 322.153C1.10621 322.249 0.944507 322.401 0.83813 322.591C0.647831 322.691 0.493731 322.848 0.397635 323.04C0.301539 323.232 0.268313 323.449 0.302658 323.661C1.45563 329.667 4.14214 335.274 8.10193 339.938C11.8346 344.69 16.6149 348.518 22.0708 351.123C23.8239 351.955 25.6468 352.632 27.5186 353.146C26.4244 353.146 25.3069 353.03 24.2127 352.936C21.7248 352.724 19.2523 352.359 16.8092 351.844C12.1044 350.848 7.5655 349.188 3.32924 346.914C2.21173 346.333 1.11751 345.658 0.0698442 344.984V346.914C4.49448 349.551 9.31224 351.467 14.3413 352.588C17.1348 353.226 19.965 353.692 22.8158 353.983C24.3291 354.146 25.8424 354.239 27.4721 354.308L30.9643 354.448C31.557 357.102 32.4392 359.683 33.5951 362.145C34.8636 364.981 36.4241 367.677 38.2513 370.19C41.3325 374.526 45.361 378.104 50.0317 380.654L48.6348 380.05C45.1894 378.384 41.8604 376.489 38.6704 374.376C35.5041 372.283 32.4077 370.074 29.3578 367.935C26.308 365.795 23.0486 363.842 19.7659 361.982C13.5617 358.401 6.96941 355.538 0.116407 353.448V355.029C6.11373 356.954 11.8951 359.494 17.3679 362.61C23.91 366.307 29.9166 370.772 36.1095 375.004C40.9466 378.515 46.2519 381.332 51.871 383.375L50.7534 383.166C46.9362 382.284 43.1673 381.205 39.462 379.933C31.36 377.314 23.3978 374.306 15.5753 370.911C10.4301 368.586 5.30816 366.261 0.116407 364.214V366.54L1.11751 366.958V367.121C0.698442 367.795 0.395784 368.423 0.116407 369.074ZM16.0176 34.6007C12.2227 36.1819 8.45115 37.8329 4.77269 39.5304C6.74115 33.8489 9.30877 28.3925 12.4323 23.2532C15.8313 17.9148 19.9434 13.0645 24.655 8.8362C27.0343 6.54105 29.5286 4.36796 32.1283 2.32532C28.9853 12.1614 25.7259 21.951 23.0253 31.8336C20.6739 32.7172 18.3457 33.6473 16.0176 34.6007ZM28.4732 62.5045C27.2736 65.1574 25.7822 67.6687 24.0264 69.992C20.5567 74.6718 15.9926 78.432 10.7327 80.9443C8.07524 82.1555 5.2971 83.083 2.44455 83.7114C3.59256 78.3432 5.89639 73.2889 9.19615 68.8991C12.8142 64.3362 17.4237 60.6546 22.6761 58.1329C25.2854 56.9388 27.997 55.9816 30.778 55.2728C30.1692 57.7388 29.3993 60.1623 28.4732 62.5278V62.5045ZM30.8013 352.518C28.376 351.907 25.9956 351.13 23.6772 350.193C21.0211 348.995 18.5067 347.505 16.1806 345.751C11.4892 342.305 7.71596 337.762 5.19175 332.52C3.97735 329.845 3.05626 327.046 2.44455 324.172C7.82254 325.309 12.8851 327.611 17.2748 330.916C21.845 334.528 25.5314 339.132 28.0541 344.379C29.2459 346.995 30.2041 349.711 30.9177 352.495L30.8013 352.518ZM54.3853 344.728C53.4774 342.403 52.5461 340.077 51.5916 337.752C50.0084 333.962 48.3555 330.195 46.7491 326.428C52.4815 328.377 57.9849 330.942 63.1624 334.078C68.5073 337.473 73.3635 341.58 77.5969 346.286C79.8337 348.697 81.9473 351.219 83.9294 353.843C74.0814 350.681 64.2799 347.518 54.4086 344.751L54.3853 344.728ZM74.6169 324.312C76.1787 326.45 77.5869 328.695 78.8308 331.032C81.2537 335.773 82.9713 340.841 83.9294 346.077C84.4311 348.523 84.7579 351.002 84.9073 353.495C81.6176 348.158 77.5267 343.359 72.7776 339.264C67.8645 334.984 62.4557 331.307 56.6669 328.311C53.892 326.894 51.0027 325.711 48.0295 324.777C55.0875 321.77 62.5457 319.804 70.1701 318.94C70.7987 319.708 71.4739 320.429 72.1025 321.266C72.7311 322.103 73.802 323.219 74.6169 324.312ZM104.65 309.197C100.153 311.354 95.3951 312.917 90.4948 313.848C80.8563 315.894 70.9617 316.173 61.2534 317.894C55.7939 318.715 50.4839 320.329 45.4919 322.684H45.3289C44.2114 319.987 43.1171 317.289 42.1161 314.546C39.4455 307.6 37.6014 300.365 36.6216 292.99C36.311 290.211 36.1865 287.414 36.2491 284.619C36.5421 287.67 37.3283 290.654 38.5773 293.455C40.3811 297.423 43.1699 300.865 46.6792 303.454C50.0333 305.849 53.9921 307.258 58.1069 307.521C62.2218 307.784 66.3282 306.891 69.9606 304.942C78.9814 309.919 89.5046 311.456 99.5745 309.267C103.837 308.337 107.934 306.769 111.727 304.616C109.533 306.426 107.144 307.986 104.603 309.267L104.65 309.197ZM39.1593 269.272C39.1832 269.149 39.1832 269.022 39.1593 268.9C39.2834 268.87 39.3964 268.805 39.4853 268.714C39.5774 268.7 39.6645 268.663 39.738 268.606C39.8115 268.549 39.8688 268.474 39.9043 268.388C43.5165 260.978 49.9073 255.288 57.6913 252.553C61.0717 251.422 64.6722 251.109 68.1973 251.639C71.7224 252.168 75.0715 253.525 77.9694 255.599C79.3845 256.695 80.6112 258.015 81.6013 259.505C80.352 258.72 78.8816 258.361 77.4107 258.482C76.0923 258.57 74.8259 259.03 73.7586 259.808C72.6912 260.585 71.8667 261.65 71.3808 262.877C70.8834 261.718 70.0739 260.72 69.0422 259.993C68.0105 259.266 66.7971 258.84 65.5371 258.761C64.1971 258.698 62.8825 259.142 61.8555 260.004C60.8285 260.866 60.1646 262.083 59.9962 263.412C59.9148 264.006 59.9148 264.608 59.9962 265.202C59.1698 264.567 58.2174 264.115 57.2024 263.877C56.3497 263.687 55.4675 263.669 54.6078 263.824C53.7481 263.98 52.9283 264.306 52.1969 264.784C51.4526 265.266 50.823 265.905 50.3524 266.656C49.8818 267.408 49.5816 268.253 49.473 269.132C49.3686 270.545 49.625 271.961 50.218 273.248C50.1455 273.329 50.0901 273.424 50.055 273.527C50.0416 273.635 50.0416 273.744 50.055 273.852C48.9981 274.247 48.0262 274.839 47.1914 275.596C46.1666 276.575 45.5231 277.885 45.3754 279.294C45.2501 280.627 45.5409 281.966 46.2078 283.128C46.8747 284.289 47.8852 285.216 49.1005 285.781C49.8026 286.099 50.548 286.31 51.3122 286.409C50.8645 286.748 50.4581 287.138 50.1016 287.572C49.6568 288.117 49.3266 288.746 49.1306 289.421C48.9346 290.096 48.8768 290.804 48.9608 291.502C49.1741 292.817 49.8215 294.024 50.8002 294.93C51.7788 295.835 53.0325 296.389 54.3621 296.501C55.5045 296.618 56.6588 296.475 57.7379 296.083C57.2149 297.29 57.0445 298.621 57.2463 299.921C57.4482 301.221 58.0141 302.438 58.8787 303.431C59.83 304.526 61.0995 305.298 62.5106 305.64C57.7845 306.401 52.944 305.373 48.9375 302.756C45.6321 300.507 42.8955 297.521 40.9439 294.035C38.9924 290.548 37.8793 286.656 37.6926 282.665C37.4504 278.339 38.0027 274.004 39.3223 269.876C39.3557 269.77 39.3581 269.657 39.3293 269.55C39.3004 269.443 39.2414 269.346 39.1593 269.272ZM51.1259 284.712C50.4617 284.603 49.8227 284.374 49.2402 284.037C48.6526 283.719 48.1405 283.278 47.7388 282.744C47.337 282.211 47.0551 281.597 46.912 280.945C46.7608 280.31 46.7448 279.651 46.8651 279.01C46.9854 278.369 47.2394 277.761 47.6105 277.224C48.2382 276.384 49.0303 275.68 49.9386 275.155C50.317 278.466 51.1392 281.712 52.3831 284.805C51.9621 284.812 51.5414 284.781 51.1259 284.712ZM53.1514 286.27C54.3969 289.059 55.9592 291.696 57.8077 294.129C56.6562 294.73 55.3484 294.965 54.0594 294.804C53.4132 294.708 52.7955 294.473 52.2488 294.116C51.7022 293.759 51.2397 293.287 50.8931 292.734C50.5398 292.18 50.3369 291.543 50.3042 290.887C50.2716 290.23 50.4103 289.577 50.7069 288.99C51.0732 288.323 51.5539 287.725 52.127 287.223C52.4521 286.888 52.794 286.57 53.1514 286.27ZM51.2889 272.318C51.0433 271.448 50.9334 270.546 50.963 269.644C51.0108 268.946 51.2157 268.267 51.5623 267.66C51.909 267.052 52.3885 266.53 52.9652 266.132C53.5408 265.73 54.1978 265.46 54.8897 265.339C55.5817 265.218 56.2917 265.251 56.9696 265.435C58.0672 265.753 59.0573 266.364 59.8332 267.202C56.7887 268.509 53.9312 270.214 51.3355 272.271L51.2889 272.318ZM67.26 273.062C64.7157 272.166 62.0053 271.841 59.321 272.108C57.9707 272.108 56.6204 272.434 55.2933 272.667H54.7579C63.309 267.184 73.6711 265.267 83.621 267.328C93.5708 269.388 102.316 275.262 107.979 283.689C111.08 288.22 113.386 293.244 114.801 298.547C113.73 297.059 112.961 295.338 111.844 293.897C110.316 291.896 108.439 290.186 106.303 288.851C101.885 286.203 96.8944 284.655 91.752 284.34C89.2355 284.13 86.7081 284.084 84.1855 284.2C82.8818 284.2 81.578 284.27 80.2743 284.409C79.8319 284.409 79.1568 284.595 78.761 284.409C78.3652 284.223 78.0858 283.247 77.8297 282.805C75.5765 278.396 71.8315 274.927 67.26 273.015V273.062ZM76.7588 284.526C76.1535 284.688 75.5481 284.944 74.9894 285.084C73.9346 285.353 72.8604 285.539 71.7766 285.642C69.5885 285.899 67.3718 285.757 65.2345 285.223C62.5874 284.507 60.1776 283.103 58.2501 281.154C57.1278 280.029 56.1072 278.807 55.2002 277.503C54.6182 276.666 54.0827 275.783 53.5472 274.922C55.2642 274.492 57.0057 274.165 58.7623 273.945C61.0986 273.648 63.4706 273.806 65.7467 274.411C70.279 275.925 74.0549 279.122 76.2932 283.34C76.3397 283.689 76.5492 284.084 76.7588 284.479V284.526ZM61.3698 263.458C61.4794 262.825 61.7515 262.231 62.1595 261.733C62.5675 261.236 63.0975 260.853 63.6979 260.621C64.3302 260.382 65.0086 260.289 65.682 260.35C66.3555 260.41 67.0065 260.622 67.5859 260.97C68.7985 261.765 69.6958 262.958 70.1236 264.342C69.0061 264.505 67.7954 264.691 66.7478 264.947C64.8947 265.366 63.074 265.918 61.2999 266.598V265.458C61.2253 264.776 61.2488 264.087 61.3698 263.412V263.458ZM72.1258 264.133C72.4168 263.253 72.9159 262.456 73.5807 261.809C74.2456 261.163 75.0567 260.686 75.9453 260.419C76.8339 260.152 77.7738 260.103 78.6854 260.276C79.597 260.449 80.4535 260.838 81.1822 261.412C82.3009 262.319 83.1935 263.474 83.7897 264.784C79.957 263.982 76.027 263.747 72.1258 264.086V264.133ZM59.0183 295.687C61.3422 298.503 64.0453 300.983 67.0504 303.058L67.679 303.454C66.4388 303.997 65.07 304.178 63.7309 303.976C62.3919 303.775 61.1374 303.198 60.1126 302.314C59.2661 301.459 58.7062 300.362 58.5102 299.175C58.3142 297.988 58.4918 296.769 59.0183 295.687ZM101.111 306.593C95.9374 307.885 90.5653 308.185 85.2798 307.477C79.9812 306.774 74.8937 304.95 70.3564 302.128C65.7539 299.221 61.793 295.408 58.7157 290.92C55.8922 286.807 53.9139 282.176 52.8953 277.294L53.3377 277.899C54.1498 279.107 55.0362 280.264 55.9918 281.363C57.7073 283.359 59.8468 284.948 62.2545 286.014C66.5294 287.702 71.2415 287.939 75.6646 286.688C76.2 286.688 76.6889 286.409 77.2011 286.246C77.7133 286.084 78.1091 286.014 78.5747 286.456C79.5293 287.409 80.3674 288.502 81.2754 289.502C83.1919 291.633 85.2533 293.63 87.4449 295.478C91.2636 298.757 95.8019 301.091 100.692 302.291C103.196 302.866 105.784 302.977 108.328 302.617C110.074 302.361 111.751 301.733 113.497 301.431C109.633 303.728 105.463 305.466 101.111 306.593ZM109.749 300.896C107.533 301.341 105.257 301.404 103.02 301.082C98.2297 300.304 93.7222 298.302 89.9361 295.269C87.7769 293.593 85.753 291.75 83.8829 289.758C82.9283 288.735 81.9738 287.665 81.0425 286.618L80.6468 286.13L81.9971 285.991C84.523 285.816 87.0562 285.77 89.5868 285.851C94.6347 285.901 99.6013 287.127 104.091 289.432C106.554 290.741 108.743 292.509 110.54 294.641C111.984 296.385 112.868 298.989 114.87 300.268C113.138 300.129 111.396 300.342 109.749 300.896ZM113.753 286.177C114.744 289.014 115.408 291.955 115.732 294.943C112.95 285.372 107.01 277.022 98.8761 271.248C95.1103 268.573 90.9018 266.581 86.4438 265.365C86.4328 265.327 86.4328 265.287 86.4438 265.249C85.2977 261.476 83.1596 258.08 80.2523 255.413C77.345 252.747 73.7749 250.908 69.914 250.088C66.0927 249.406 62.1687 249.563 58.414 250.546C54.6592 251.53 51.1635 253.318 48.1692 255.785C49.8089 254.085 51.5422 252.478 53.361 250.971C59.2404 246.23 65.6934 242.246 72.5681 239.112C75.5714 237.694 78.598 236.392 81.6712 235.113C81.6712 235.113 81.6712 235.113 81.6712 235.299C85.1168 245.507 92.334 253.901 98.9227 262.133C104.883 269.504 110.656 277.178 113.753 286.177ZM126.278 245.507C124.112 247.03 121.84 248.397 119.48 249.599C114.73 252.039 109.635 253.74 104.371 254.645C102.818 254.909 101.328 255.118 99.9005 255.273C98.783 255.273 97.5723 255.436 96.548 255.552C95.2442 253.855 93.987 252.111 92.7531 250.367C89.5849 245.832 86.9815 240.928 85.0004 235.764C90.3691 238.492 96.0996 240.441 102.019 241.554C108.361 242.88 114.848 243.388 121.319 243.065C124.718 242.847 128.091 242.334 131.4 241.531C129.776 242.959 128.065 244.287 126.278 245.507ZM130.935 240.484C124.984 241.413 118.952 241.717 112.938 241.391C106.574 241.007 100.3 239.699 94.3129 237.508C91.2398 236.392 88.1899 235.182 85.2332 233.694L94.1267 230.206C97.293 228.904 100.459 227.579 103.602 226.184C112.566 231.136 121.715 235.81 130.865 240.484H130.935ZM127.256 212.069C123.88 214.185 120.272 215.999 116.756 217.789C109.586 221.37 102.298 224.765 94.8484 227.602C80.5071 233.276 65.4673 238.298 53.361 248.204C50.1119 250.829 47.1748 253.817 44.6072 257.11C43.3638 258.709 42.2133 260.379 41.1615 262.11C42.2415 259.68 43.5266 257.346 45.0029 255.134C47.3311 251.669 49.6592 248.158 51.9874 244.856C54.3783 241.563 57.0839 238.51 60.066 235.741C62.884 233.211 65.9582 230.983 69.2389 229.09C75.8757 225.25 83.0024 222.324 90.425 220.393C97.7586 218.394 105.232 217.324 112.659 215.906C118.295 214.971 123.778 213.274 128.956 210.86C128.467 211.325 127.861 211.604 127.256 212.069ZM134.962 203.953C130.499 207.16 125.274 209.148 119.806 209.72C113.983 210.302 108.105 209.505 102.648 207.395C100.131 206.382 97.6745 205.225 95.2908 203.93C97.3861 202.861 99.4349 201.744 101.6 200.884C104.333 199.754 107.183 198.927 110.098 198.419C115.759 197.483 121.564 197.954 127 199.791C129.85 200.769 132.534 202.172 134.962 203.953ZM114.195 188.839C118.2 190.792 122.204 192.815 126.069 195.071C127.093 195.675 128.118 196.326 129.119 197.001C124.749 194.923 120.134 193.407 115.383 192.49C108.026 190.932 100.529 189.978 93.1954 188.165C85.7256 186.385 78.5071 183.682 71.7067 180.119C68.3648 178.334 65.1931 176.248 62.2312 173.887C59.1787 171.389 56.4074 168.566 53.9663 165.47C51.0328 161.796 48.4486 157.819 45.8411 153.843C43.9738 151.194 42.375 148.367 41.0684 145.402C41.9049 146.855 42.8221 148.26 43.8156 149.611C46.0193 152.652 48.54 155.45 51.3355 157.959C57.1104 162.929 63.5516 167.069 70.4728 170.26C77.4572 173.655 84.9305 176.422 92.2409 179.259C99.5513 182.095 106.955 185.351 114.195 188.839ZM39.2292 138.101C36.7021 130.741 36.9839 122.709 40.0207 115.545C41.5567 111.987 43.9818 108.882 47.0637 106.529C50.1456 104.176 53.781 102.652 57.6215 102.105C59.2528 101.941 60.8992 102.012 62.5106 102.314C61.0508 102.669 59.7445 103.484 58.7855 104.639C57.9209 105.632 57.3551 106.849 57.1532 108.149C56.9514 109.449 57.1218 110.78 57.6447 111.987C56.55 111.564 55.366 111.423 54.2022 111.577C53.0384 111.732 51.9323 112.176 50.9863 112.871C49.9222 113.693 49.1987 114.878 48.9539 116.199C48.7091 117.52 48.9602 118.885 49.6592 120.033C50.0932 120.652 50.6192 121.2 51.2191 121.661C50.651 121.707 50.0935 121.84 49.5661 122.056C48.2537 122.539 47.1233 123.416 46.33 124.567C45.5821 125.68 45.2102 127.002 45.2689 128.341C45.3275 129.68 45.8136 130.965 46.6559 132.008C47.5558 133.036 48.6895 133.834 49.9619 134.334C49.9485 134.442 49.9485 134.551 49.9619 134.659C50.0021 134.76 50.057 134.854 50.1248 134.938C49.5299 136.224 49.2734 137.641 49.3798 139.054C49.4885 139.933 49.7887 140.778 50.2593 141.53C50.7299 142.281 51.3594 142.92 52.1038 143.402C52.8352 143.88 53.6549 144.206 54.5146 144.362C55.3743 144.517 56.2566 144.499 57.1093 144.309C58.1243 144.071 59.0767 143.619 59.903 142.984C59.8682 143.402 59.8682 143.822 59.903 144.239C59.935 145.57 60.4668 146.84 61.393 147.797C62.3992 148.717 63.693 149.261 65.055 149.338C66.417 149.414 67.7635 149.018 68.8664 148.216C69.9356 147.456 70.7865 146.43 71.3342 145.239C71.7281 146.185 72.3256 147.033 73.0845 147.722C73.8433 148.411 74.7448 148.925 75.7248 149.227C76.7049 149.528 77.7395 149.611 78.7551 149.468C79.7708 149.326 80.7425 148.962 81.6013 148.402C80.8352 149.528 79.9276 150.552 78.9007 151.448C76.1537 153.859 72.7947 155.468 69.1923 156.098C65.5834 156.689 61.8897 156.5 58.3598 155.546C54.8299 154.591 51.5456 152.893 48.728 150.564C45.0294 147.532 41.9944 143.772 39.8112 139.519C39.7757 139.433 39.7184 139.358 39.6449 139.301C39.5714 139.244 39.4843 139.207 39.3921 139.193C39.3033 139.102 39.1903 139.037 39.0662 139.007C39.0901 138.885 39.0901 138.758 39.0662 138.635C39.1344 138.566 39.1849 138.481 39.2133 138.388C39.2417 138.295 39.2471 138.196 39.2292 138.101ZM67.6325 104.43C64.3807 106.591 61.4629 109.215 58.9718 112.22C58.4467 111.134 58.27 109.912 58.4659 108.722C58.6617 107.531 59.2205 106.431 60.066 105.569C61.0935 104.69 62.3477 104.117 63.6856 103.916C65.0235 103.714 66.3911 103.892 67.6325 104.43ZM67.6325 140.519C63.1168 139.568 58.8204 137.777 54.9674 135.24C56.178 135.45 57.2955 135.612 58.576 135.752C60.9056 136.044 63.2681 135.933 65.5604 135.426C70.3007 134.072 74.3619 130.994 76.945 126.799L77.853 125.311C78.0655 124.754 78.3554 124.23 78.7144 123.753C79.0869 123.428 79.7388 123.567 80.1811 123.591L82.1368 123.73C84.721 123.87 87.3518 123.939 89.9361 123.73C95.0539 123.599 100.079 122.336 104.65 120.033C107.206 118.724 109.477 116.922 111.332 114.731C112.21 113.607 112.989 112.409 113.66 111.15C114.009 110.569 114.358 109.987 114.731 109.429C113.522 114.085 111.598 118.525 109.027 122.591C106.045 127.311 102.151 131.39 97.5723 134.589C93.2404 137.544 88.3547 139.592 83.2093 140.611C78.064 141.63 72.7654 141.599 67.6325 140.519ZM83.9294 143.216C83.2815 144.494 82.3594 145.614 81.2288 146.495C80.2004 147.288 78.9428 147.729 77.6435 147.751C76.4314 147.739 75.252 147.356 74.2651 146.653C73.2782 145.951 72.5314 144.962 72.1258 143.821C75.2273 144.119 78.3534 144.049 81.4383 143.612C82.1601 143.542 82.9749 143.379 83.7665 143.216H83.9294ZM70.3098 143.612C69.8465 145.017 68.8975 146.213 67.6325 146.983C67.053 147.331 66.4021 147.544 65.7286 147.604C65.0551 147.664 64.3767 147.571 63.7445 147.332C63.1465 147.096 62.6188 146.712 62.2113 146.216C61.8039 145.719 61.5302 145.127 61.4163 144.495C61.323 143.832 61.323 143.159 61.4163 142.495V141.333C64.23 142.422 67.1592 143.187 70.1469 143.612H70.3098ZM75.3852 126.079C74.6884 127.072 73.9096 128.005 73.057 128.869C71.4478 130.599 69.5085 131.991 67.3531 132.962C64.9204 133.92 62.3003 134.31 59.6935 134.101C58.3876 134.004 57.089 133.826 55.8055 133.566L53.4774 133.055C53.943 132.334 54.3853 131.59 54.8743 130.869C55.6663 129.682 56.5539 128.563 57.5283 127.52C59.1989 125.627 61.2982 124.16 63.6513 123.242C67.9016 121.842 72.4983 121.899 76.7122 123.405C76.2466 124.288 75.8042 125.218 75.2222 126.079H75.3852ZM59.9962 140.728C59.6807 141.074 59.3295 141.386 58.9485 141.658C58.3915 142.037 57.7789 142.328 57.1326 142.519C56.4322 142.729 55.693 142.778 54.971 142.661C54.249 142.545 53.563 142.265 52.9652 141.844C52.3885 141.447 51.909 140.925 51.5623 140.317C51.2157 139.709 51.0108 139.031 50.963 138.333C50.9461 137.42 51.0718 136.51 51.3355 135.636C53.935 137.694 56.7915 139.406 59.8332 140.728H59.9962ZM50.2413 132.752C49.333 132.227 48.5409 131.523 47.9131 130.683C47.542 130.146 47.2881 129.538 47.1678 128.897C47.0474 128.256 47.0634 127.597 47.2147 126.962C47.3577 126.31 47.6397 125.696 48.0414 125.163C48.4432 124.629 48.9552 124.188 49.5428 123.87C50.1254 123.533 50.7643 123.304 51.4286 123.195C51.8854 123.15 52.3455 123.15 52.8022 123.195C51.4811 126.249 50.5653 129.462 50.0783 132.752H50.2413ZM52.2667 120.684C51.7208 120.189 51.2502 119.617 50.8699 118.986C50.5568 118.393 50.407 117.728 50.4356 117.058C50.4643 116.388 50.6703 115.737 51.0328 115.173C51.3719 114.628 51.8235 114.161 52.3574 113.804C52.8914 113.448 53.4955 113.209 54.1293 113.103C55.4412 112.927 56.7756 113.163 57.9474 113.778C57.4585 114.406 57.0161 115.057 56.5505 115.708C55.2927 117.585 54.2021 119.569 53.2911 121.637L52.2667 120.684ZM103.602 181.793C101.274 180.793 99.1322 179.84 96.8739 178.91C93.0325 177.305 89.1445 175.794 85.2332 174.259C90.6579 171.596 96.3566 169.53 102.229 168.097C108.441 166.69 114.818 166.143 121.18 166.469C124.416 166.632 127.675 166.934 130.911 167.423C121.715 172.073 112.566 176.724 103.602 181.793ZM99.4814 152.587C100.785 152.587 102.112 152.89 103.416 153.099C106.034 153.5 108.618 154.098 111.145 154.889C116.244 156.495 121.077 158.846 125.487 161.865C127.575 163.26 129.552 164.815 131.4 166.516C125.302 165.088 119.022 164.594 112.775 165.051C106.314 165.491 99.928 166.701 93.7542 168.655C90.7486 169.535 87.8269 170.678 85.0237 172.073C87.9394 164.964 91.8594 158.308 96.6644 152.308L99.4814 152.587ZM108.561 132.543C103.276 141.24 96.2686 148.681 90.3318 156.912C86.6389 161.662 83.6947 166.947 81.6013 172.585C81.6013 172.585 81.6013 172.585 81.6013 172.748C72.2526 169.176 63.4152 164.392 55.3166 158.517C52.6952 156.511 50.2282 154.311 47.9364 151.936C50.6996 154.198 53.8565 155.933 57.249 157.052C60.8942 158.303 64.7934 158.631 68.5968 158.006C72.4002 157.381 75.9888 155.823 79.0404 153.471C82.5645 150.709 85.1433 146.923 86.4205 142.635C93.3898 140.55 99.7224 136.748 104.836 131.58C109.95 126.412 113.681 120.042 115.685 113.057C114.758 119.992 112.326 126.642 108.561 132.543ZM114.87 107.709C113.367 109.087 112.114 110.716 111.169 112.522C109.684 114.521 107.846 116.231 105.744 117.568C101.45 120.215 96.5584 121.742 91.5192 122.009C88.9608 122.172 86.3947 122.172 83.8363 122.009L80.6468 121.823C81.2288 121.149 81.7876 120.451 82.3696 119.8C84.2411 117.71 86.2559 115.752 88.3995 113.94C92.0921 110.675 96.5278 108.36 101.321 107.197C103.821 106.644 106.404 106.565 108.934 106.965C110.856 107.542 112.867 107.771 114.87 107.639V107.709ZM109.236 105.383C106.97 105.011 104.658 105.011 102.392 105.383C97.5297 106.187 92.9494 108.202 89.0746 111.243C86.8343 112.951 84.7325 114.832 82.7887 116.87C81.7798 117.925 80.802 118.994 79.8552 120.079L78.6213 121.498C78.4629 121.692 78.2436 121.828 77.9986 121.883C77.7536 121.938 77.4973 121.908 77.271 121.8C72.9409 120.289 68.2492 120.151 63.8376 121.405C61.1343 122.277 58.6929 123.812 56.7368 125.869C55.6242 127.001 54.597 128.214 53.6636 129.497C53.3842 129.846 53.1282 130.218 52.8721 130.59C54.9464 120.995 60.5982 112.549 68.6801 106.965C73.0982 103.957 78.0804 101.875 83.3262 100.844C88.572 99.8132 93.9726 99.8544 99.202 100.965C104.225 102.001 109.045 103.847 113.474 106.43C112.053 106.104 110.656 105.616 109.236 105.337V105.383ZM73.9184 91.6175C83.7432 92.7336 93.7775 93.78 102.881 97.8726C106.031 99.2815 108.988 101.087 111.681 103.244C103.545 98.7628 94.196 96.9718 84.9771 98.1283C79.6992 98.7558 74.5966 100.415 69.9606 103.012C66.5914 101.21 62.8113 100.315 58.991 100.412C55.1708 100.51 51.4416 101.598 48.1692 103.57C44.8356 105.749 42.0341 108.648 39.9711 112.053C37.9081 115.457 36.6362 119.281 36.2491 123.242C36.2491 121.382 36.2491 119.521 36.3888 117.661C36.9947 110.327 38.5601 103.103 41.0451 96.1751C42.3256 92.4081 43.7923 88.7341 45.3056 85.0601H45.4686C54.2922 89.5479 64.2567 90.5246 73.9184 91.6175ZM84.1855 60.8768C83.7147 63.4827 83.0691 66.0541 82.2532 68.5736C80.6235 73.6542 78.2207 78.454 75.1291 82.8045C74.2909 84.0369 73.383 85.1298 72.4284 86.3855C71.4739 87.6412 70.9384 88.1062 70.24 88.9899C67.6092 88.6178 64.9784 88.1992 62.3941 87.6644C57.4684 86.6595 52.6727 85.0993 48.0994 83.0138C53.7895 81.1777 59.1844 78.5305 64.117 75.1542C69.5859 71.6031 74.5708 67.3589 78.9472 62.5278C81.1933 59.981 83.211 57.2421 84.9771 54.3426C84.8343 56.5336 84.5701 58.715 84.1855 60.8768ZM83.9294 54.0636C80.3561 58.9313 76.283 63.4125 71.7766 67.4342C67.0364 71.6119 61.7206 75.0888 55.9918 77.7586C52.9652 79.0607 49.892 80.3629 46.6792 81.3861C47.8898 78.5957 49.0073 75.8053 50.2878 73.0149C51.6847 69.713 53.0117 66.411 54.2922 63.0626C64.2799 60.4582 74.0814 57.226 83.9294 54.0636ZM54.4319 40.1117C50.7493 44.6406 46.052 48.241 40.7192 50.6221C38.1808 51.7217 35.5759 52.6614 32.9199 53.4358C33.5809 51.15 34.358 48.8993 35.248 46.6923C36.3783 43.9962 37.7991 41.431 39.4853 39.0421C42.816 34.4306 47.2181 30.6961 52.3133 28.1596C55.0382 26.8171 57.95 25.8921 60.9507 25.4157C60.0237 30.7608 57.7571 35.7845 54.3621 40.0187L54.4319 40.1117ZM33.4787 124.614C32.6172 120.475 31.7791 116.336 31.1505 112.15C30.5423 108.236 30.3395 104.27 30.5452 100.314C30.7806 96.6363 31.3811 92.9909 32.3379 89.4317C34.2919 82.2496 37.1636 75.3487 40.8821 68.8991C44.5839 62.365 49.0539 56.3657 53.2911 50.2966C56.8111 45.4682 59.6326 40.1687 61.6724 34.5542L61.4629 35.6703C60.6038 39.4107 59.5548 43.105 58.3199 46.7389C55.6969 54.831 52.6858 62.7835 49.2867 70.5966C45.9808 78.2469 42.4653 85.7809 39.6249 93.6172C36.9513 100.675 35.229 108.057 34.503 115.568C33.9969 121.255 34.4056 126.986 35.7137 132.543C34.7123 129.943 33.9487 127.258 33.4321 124.521L33.4787 124.614ZM37.2502 140.891C36.738 141.449 36.2259 142.03 35.6904 142.565C34.6705 143.604 33.5981 144.589 32.4776 145.518C30.2139 147.364 27.7639 148.969 25.1672 150.308C20.0467 153.017 14.4333 154.67 8.66068 155.168C5.85671 155.413 3.03679 155.413 0.232814 155.168C7.4005 146.503 17.5599 140.836 28.706 139.286C30.3582 139.074 32.0223 138.965 33.6882 138.961H36.0163C36.5663 139.007 37.1193 139.007 37.6693 138.961L37.809 139.1C37.8778 139.182 37.9657 139.246 38.0651 139.286C38.0296 139.392 38.0296 139.506 38.0651 139.612V139.798C37.7516 140.099 37.4635 140.426 37.2037 140.775L37.2502 140.891ZM88.7953 198.117C86.8508 196.454 84.8143 194.901 82.6955 193.466C78.654 190.692 74.2415 188.501 69.5881 186.955C64.9575 185.468 60.1095 184.769 55.2468 184.886C49.7206 184.912 44.2822 186.268 39.3921 188.839C35.4583 191 32.3059 194.344 30.3822 198.396C30.1651 191.161 30.8059 183.925 32.2913 176.84C33.9908 168.795 36.9476 161.098 38.5773 153.029C39.0913 150.658 39.4645 148.259 39.6948 145.844C40.7701 148.38 42.055 150.822 43.5362 153.145C45.8644 156.68 48.0761 160.121 50.5206 163.539C52.9065 166.907 55.6289 170.023 58.6458 172.841C61.455 175.436 64.494 177.77 67.7256 179.817C74.2626 183.793 81.312 186.859 88.6788 188.932C92.4039 190.017 96.1677 190.963 99.9703 191.769C103.672 192.536 107.374 193.141 111.076 193.862C116.251 194.731 121.322 196.134 126.208 198.047C124.139 197.38 122.011 196.913 119.853 196.652C113.808 196.057 107.708 196.852 102.019 198.977C99.0795 199.943 96.2719 201.271 93.6611 202.93C92.9626 202.256 92.2176 201.628 91.5192 200.954C90.8207 200.279 89.7731 198.954 88.7953 198.117ZM85.6523 207.418C82.9469 208.436 80.1354 209.146 77.271 209.534C71.4778 210.403 65.5594 209.828 60.0427 207.86C57.3323 206.834 54.7345 205.533 52.29 203.977C56.9247 200.974 62.1615 199.022 67.6325 198.256C73.4551 197.59 79.3533 198.25 84.884 200.186C87.5443 201.201 90.1143 202.438 92.5668 203.884V204.023C90.3472 205.314 88.0362 206.441 85.6523 207.395V207.418ZM36.0163 244.623C34.8755 240.67 33.6882 236.764 32.7337 232.764C31.7228 228.482 31.0456 224.129 30.7082 219.742C30.4243 216.34 30.3155 212.925 30.3822 209.511C32.0088 212.92 34.5163 215.834 37.646 217.952C42.3189 220.916 47.6905 222.6 53.2213 222.835C63.0969 223.43 72.8995 220.811 81.159 215.371C83.5884 213.85 85.921 212.181 88.1434 210.371C89.2376 209.464 90.3318 208.534 91.3795 207.558L93.8939 205.232C96.196 206.677 98.6468 207.869 101.204 208.79C104.106 209.865 107.109 210.644 110.168 211.115C115.446 212.022 120.863 211.704 125.999 210.185L124.765 210.65C121.272 211.907 117.693 212.91 114.056 213.65C106.582 215.208 99.0624 216.301 91.6822 218.301C84.2284 220.22 77.0417 223.056 70.2865 226.742C63.4353 230.584 57.3885 235.708 52.4763 241.833C49.8455 245.158 47.4708 248.809 45.1659 252.25C43.0348 255.349 41.2028 258.642 39.6948 262.086C39.5427 260.191 39.294 258.306 38.9498 256.436C38.1726 252.444 37.1936 248.493 36.0163 244.6V244.623ZM34.2935 268.969C32.8268 268.969 31.36 268.969 29.9166 268.783C27.0162 268.496 24.153 267.912 21.3723 267.039C15.8138 265.333 10.6529 262.535 6.19285 258.808C4.00093 256.992 1.96808 254.993 0.116407 252.832C11.3385 251.781 22.5448 254.994 31.4997 261.831C32.8055 262.849 34.0494 263.944 35.2248 265.109C35.7835 265.667 36.3423 266.225 36.8777 266.83C37.2153 267.264 37.5977 267.662 38.0185 268.016V268.202C37.983 268.308 37.983 268.422 38.0185 268.528C37.9149 268.559 37.8248 268.625 37.7624 268.714L37.6227 268.853C37.2044 268.818 36.7839 268.818 36.3655 268.853L34.2935 268.969ZM54.8277 360.191C50.7302 353.913 46.1204 347.96 42.279 341.589C38.3542 335.229 35.2266 328.411 32.9665 321.289C30.7212 314.131 29.9296 306.597 30.6383 299.129C31.0807 294.873 31.9421 290.664 32.7569 286.479C33.3514 282.507 34.3659 278.61 35.7835 274.852C35.411 276.294 35.0851 277.736 34.829 279.224C34.2544 282.688 34.0283 286.202 34.1538 289.711C34.515 297.094 35.9421 304.385 38.391 311.36C41.0218 319.243 44.4442 326.846 47.82 334.45C51.1958 342.054 54.3621 350.123 57.1326 358.168C58.4596 362.028 59.7168 365.912 60.7644 369.795C61.0904 371.027 61.393 372.283 61.6259 373.562C59.9624 368.817 57.6765 364.313 54.8277 360.168V360.191ZM46.1903 376.05C41.6531 372.384 38.0474 367.699 35.6671 362.377C34.5662 359.842 33.6254 357.24 32.8501 354.587C35.1386 355.248 37.3921 356.024 39.6017 356.913C42.301 358.042 44.8694 359.461 47.2612 361.145C51.8847 364.465 55.6252 368.863 58.1569 373.957C59.501 376.679 60.4272 379.587 60.9041 382.584C55.5194 381.689 50.4539 379.432 46.1903 376.027V376.05ZM13.0609 372.051C16.3668 373.446 19.6728 374.771 23.0253 376.05C25.7958 385.933 28.9853 395.722 32.1283 405.489C27.2593 401.949 22.7728 397.912 18.7415 393.443C14.5468 388.696 11.0576 383.371 8.3813 377.631C7.0077 374.655 5.77379 371.586 4.65628 368.47L13.0609 372.051Z" fill="#413E7E"/>
</svg>
