<svg width="75" height="73" viewBox="0 0 75 73" fill="none" xmlns="http://www.w3.org/2000/svg">
<path d="M59.4214 48.8814C62.4842 59.9072 54.6572 69.5038 44.1078 71.954C33.0819 74.5403 22.1922 67.7342 20.9671 56.6403C19.81 45.8867 25.9355 36.7666 36.2808 33.5677C46.7621 30.3008 56.4268 38.4 59.4214 48.8814Z" fill="#D64D4D"/>
<path opacity="0.5" d="M50.9818 40.3056C51.4582 40.9182 51.9346 41.6668 52.0708 42.4155C52.2069 43.2322 52.0027 44.117 51.3902 44.5935C50.7095 45.206 49.6206 45.1379 48.7358 44.7976C47.851 44.4573 47.1704 43.8448 46.3537 43.3684C45.4689 42.8239 44.448 42.4836 43.4951 42.0071C42.5423 41.5307 41.6575 40.9182 41.113 39.9653C40.5685 39.0805 40.5004 37.7874 41.113 36.9706C43.1548 34.3163 47.3746 36.9026 49.2122 38.468C49.8928 39.0125 50.4373 39.625 50.9818 40.3056Z" fill="white"/>
<path d="M31.3123 38.6722C29.0663 38.468 20.6268 47.8604 25.7994 50.1745C30.972 52.4886 34.9876 38.9445 31.3123 38.6722Z" fill="#963535"/>
<path d="M50.7102 55.2109C48.4642 55.3471 43.9041 64.5353 49.4851 65.4881C53.9771 66.3049 53.2284 55.0748 50.7102 55.2109Z" fill="#963535"/>
<path d="M33.8304 43.6407C32.4691 44.0491 31.9927 50.7191 34.3748 50.651C36.825 50.651 35.7361 43.0282 33.8304 43.6407Z" fill="#963535"/>
<path d="M55.4054 53.3733C54.0442 53.2372 53.0913 59.3627 55.4734 59.3627C57.9236 59.2946 57.3791 53.5775 55.4054 53.3733Z" fill="#963535"/>
<path d="M52.3433 49.2216C50.9821 49.4938 49.8251 54.3942 52.2072 54.3262C54.6574 54.19 54.0448 48.8132 52.3433 49.2216Z" fill="#963535"/>
<path d="M74.3952 45.8186C73.5785 42.8239 66.7044 41.9391 56.9036 42.9601C57.4481 43.9129 57.9245 44.8658 58.3329 45.8867C60.5789 46.0228 62.0082 46.4992 62.2804 47.384C62.961 49.9023 53.6367 54.5985 41.3857 57.8654C29.2029 61.2004 18.7215 61.8129 18.0409 59.3627C17.7686 58.4779 18.8576 57.2528 20.8994 55.9597C20.8314 54.8707 20.8314 53.7817 20.8994 52.6928C11.7112 56.7764 6.06218 61.1323 6.87891 64.127C8.17206 68.7551 24.3025 68.4148 42.8831 63.3783C61.5317 58.3418 75.6203 50.5148 74.3952 45.8186Z" fill="#E9D11F"/>
<path d="M30.7371 15.6992C34.11 15.9705 36.976 13.4022 38.6172 11.3907C39.0405 10.9207 39.6421 11.2923 39.6255 11.8305C38.9777 16.5666 40.7444 19.5193 42.1143 20.8807C42.4926 21.2639 42.2127 21.9055 41.7145 21.7973C37.9467 21.681 35.0173 23.8943 33.2727 25.6425C32.8894 26.0209 32.1562 25.701 32.3044 25.111C33.0273 20.9532 31.5355 18.1204 30.2456 16.5758C29.9189 16.3242 30.1988 15.6825 30.7371 15.6992Z" fill="white"/>
<path d="M13.2346 33.8117C14.3628 33.9765 15.3009 33.0766 15.8041 32.4233C15.9757 32.2799 16.159 32.3599 16.1707 32.5832C15.9376 34.118 16.5226 35.0278 16.9526 35.5427C17.0959 35.7144 16.9243 35.8577 16.8326 35.8177C15.6244 35.8362 14.6746 36.5128 14.1198 37.0345C13.9481 37.1778 13.7648 37.0978 13.7531 36.8745C13.998 35.563 13.5446 34.6015 13.1146 34.0866C13.023 34.0466 13.1029 33.8633 13.2346 33.8117Z" fill="white"/>
<path d="M7.87672 13.5816C9.89811 13.6998 11.5227 12.2265 12.4892 11.0116C12.7008 10.7766 13.0674 10.9365 13.0391 11.2515C12.6011 14.0061 13.7194 15.6941 14.4761 16.4606C14.7111 16.6722 14.5511 17.0389 14.2362 17.0106C12.0831 16.9441 10.3152 18.2458 9.33706 19.2374C9.12544 19.4724 8.66715 19.2724 8.78711 18.9975C9.19682 16.5578 8.35345 14.9897 7.58513 14C7.4418 13.8283 7.56176 13.5533 7.87672 13.5816Z" fill="white"/>
</svg>
