<svg width="96" height="80" viewBox="0 0 96 80" fill="none" xmlns="http://www.w3.org/2000/svg">
<path d="M45.5122 58.3119C34.5217 57.7252 25.9952 49.4726 26.5428 39.9292C27.0513 30.3858 36.4382 23.111 47.4287 23.6976C58.4192 24.2843 66.9457 32.537 66.3981 42.0804C65.8505 51.6237 56.5027 58.8986 45.5122 58.3119ZM47.1158 28.704C38.9023 28.2738 31.9403 33.3975 31.5492 40.1639C31.1972 46.9303 37.5724 52.7971 45.786 53.2664C53.9995 53.6967 61.0006 48.573 61.3526 41.8066C61.7437 35.0402 55.3294 29.1342 47.1158 28.704Z" fill="#FF3194"/>
<path d="M60.0619 62.6925C63.8949 67.777 68.119 72.5096 72.7734 76.8511C74.6116 78.572 71.7173 81.1534 69.8791 79.4325C65.2247 75.091 61.0006 70.3584 57.1676 65.2739C55.7205 63.2791 58.5757 60.6977 60.0619 62.6925Z" fill="#FF3194"/>
<path d="M33.6221 1.28638C35.2257 7.42699 37.3378 13.4503 39.9974 19.2389C41.0534 21.5074 37.3769 22.7981 36.36 20.5296C33.7003 14.741 31.5883 8.71769 29.9847 2.57708C29.3589 0.191243 32.9963 -1.13857 33.6221 1.28638Z" fill="#FF3194"/>
<path d="M75.1201 47.1649C80.0873 48.2601 85.0546 49.2379 90.0218 50.3721C92.4468 50.9197 91.1952 54.5962 88.8093 54.0487C83.8421 52.9535 78.8749 51.9757 73.9076 50.8415C71.4827 50.2939 72.6952 46.6174 75.1201 47.1649Z" fill="#FF3194"/>
<path d="M76.6455 29.7991C81.9256 28.5867 87.1666 27.1395 92.2903 25.3012C94.598 24.4408 96.3971 27.8826 94.0504 28.7431C88.6138 30.6987 83.099 32.3023 77.4668 33.593C75.0028 34.1406 74.1814 30.3467 76.6455 29.7991Z" fill="#FF3194"/>
<path d="M57.6761 18.2219C58.7712 14.1543 60.5313 10.3604 62.2913 6.56652C63.3473 4.33713 67.0239 5.5105 65.9679 7.81811C64.2078 11.612 62.4478 15.4059 61.3526 19.4735C60.6877 21.8594 57.0112 20.6469 57.6761 18.2219Z" fill="#FF3194"/>
<path d="M19.8155 31.0507C16.8821 28.5867 13.9878 26.1617 10.6633 24.2061C8.51211 22.9545 10.6633 19.7082 12.8144 20.9598C16.0999 22.8763 19.0333 25.3404 21.9667 27.8044C23.8441 29.408 21.732 32.6543 19.8155 31.0507Z" fill="#FF3194"/>
<path d="M20.4413 55.6523C14.7701 57.6861 8.94234 59.0941 3.07552 60.4631C0.650567 61.0106 -0.170788 57.2168 2.25417 56.6692C7.76898 55.4176 13.3229 54.1269 18.6813 52.2104C20.9889 51.389 22.788 54.8309 20.4413 55.6523Z" fill="#FF3194"/>
<path d="M34.7955 66.8383C33.4266 69.3024 32.527 71.9229 32.9572 74.739C33.3483 77.2031 29.5544 78.0244 29.1633 75.5604C28.5375 71.61 29.6327 68.1291 31.5492 64.6872C32.7616 62.536 36.008 64.6481 34.7955 66.8383Z" fill="#FF3194"/>
</svg>
