<svg width="120" height="144" viewBox="0 0 120 144" fill="none" xmlns="http://www.w3.org/2000/svg">
<path d="M54.4139 110.94C39.4545 122.124 57.3284 136.368 63.3974 140.677C64.4897 141.421 65.9598 141.48 67.0433 140.681L67.4045 140.415C68.6308 139.553 69.1177 137.889 68.5406 136.534C66.9942 133.107 64.9431 126.504 68.7785 121.749L54.4139 110.94Z" fill="#FF2F2F"/>
<path d="M81.7751 84.1222C94.0429 70.0962 106.964 88.9811 110.709 95.3005C111.365 96.4484 111.306 97.9186 110.424 98.9352L110.131 99.2741C109.17 100.498 107.476 100.781 106.171 100.098C102.805 98.3515 96.4563 95.785 91.4081 99.3003L81.7751 84.1222Z" fill="#FF2F2F"/>
<path d="M99.5818 110.634C98.1619 109.315 96.3779 108.333 94.4961 108.048L78.7029 122.564C79.815 124.572 81.3555 126.386 83.3383 127.657C85.2511 128.925 87.6063 129.65 89.9221 129.602C92.3079 129.557 94.5171 128.663 96.7823 128.122C98.482 127.699 100.313 127.491 102.05 127.911C103.091 128.163 104.166 127.575 104.491 126.466C104.9 125.009 105.031 123.472 104.882 121.924C104.694 119.602 103.94 117.399 102.971 115.327C102.055 113.677 101.002 111.953 99.5818 110.634Z" fill="#FFB800"/>
<path d="M95.1831 111.931C94.3065 111.055 93.1386 110.448 91.8841 110.258L81.6231 119.666C82.3431 120.956 83.3458 122.188 84.6453 123.011C85.8747 123.832 87.3982 124.313 88.9411 124.304C90.4868 124.225 91.912 123.651 93.3961 123.36C94.5273 123.124 95.7258 122.961 96.7675 123.213C97.462 123.381 98.1788 122.989 98.3467 122.294C98.5957 121.323 98.7047 120.345 98.6037 119.36C98.4522 117.881 98.0179 116.462 97.3707 115.104C96.788 113.888 96.1298 112.811 95.1831 111.931Z" fill="white"/>
<path d="M68.8788 120.981L76.6196 125.567C89.0177 118.838 97.9311 106.291 97.9311 106.291L92.2675 98.8436L68.8788 120.981Z" fill="#7E3333"/>
<path d="M94.8244 99.7867C94.8244 99.7867 82.3445 117.38 69.4142 123.387C69.4142 123.387 37.5511 113.564 35.5066 83.8934C35.1976 79.3235 35.6082 74.2914 36.8784 68.8027C37.2086 67.5537 38.0905 66.537 39.3001 66.0943C44.0685 64.3208 48.5852 63.5891 52.7183 63.6834C80.3904 64.2939 94.8244 99.7867 94.8244 99.7867Z" fill="white"/>
<path d="M65.8232 102.629C67.8411 97.7313 73.2842 94.8628 73.2842 94.8628L92.6942 116.32C93.7053 117.342 93.7784 119.027 92.821 120.181C91.8635 121.335 90.105 121.476 88.9483 120.588L65.8232 102.629Z" fill="#FF2F2F"/>
<path d="M66.774 78.7572C71.8911 84.0794 70.3861 91.9428 65.1534 96.5726C59.7023 101.404 51.3827 100.793 47.3408 94.8821C43.4333 89.1172 44.0647 82.0605 48.9613 77.0667C53.9279 72.0757 61.9257 73.7262 66.774 78.7572Z" fill="#282568"/>
<path d="M63.1506 81.698C66.3828 85.052 65.4149 89.9918 62.1448 92.8767C58.7263 95.9661 53.4814 95.6171 50.966 91.8709C48.5151 88.2675 48.9034 83.7955 51.9719 80.6922C55.0431 77.5189 60.1201 78.5624 63.1506 81.698Z" fill="white"/>
<path d="M52.7192 63.6835C51.5385 68.685 48.6188 73.3368 44.898 76.975C42.1235 79.7394 38.8785 81.9942 35.4374 83.8907C35.1285 79.3208 35.5391 74.2887 36.8093 68.8C37.1395 67.551 38.0213 66.5343 39.2309 66.0917C44.0694 64.3209 48.586 63.5892 52.7192 63.6835Z" fill="#FFC224"/>
<path d="M47.2423 67.3921C51.7701 66.3803 56.6678 66.6453 61.0953 68.1537" stroke="#2D2F3D" stroke-width="1.71107" stroke-miterlimit="10" stroke-linecap="round" stroke-linejoin="round"/>
<path d="M111.006 14.2383C106.844 13.8456 102.759 15.6521 98.9109 17.4586C102.053 15.7307 102.367 10.6254 99.5392 8.50474C97.4186 6.93389 94.2769 7.16952 91.9206 8.4262C89.5644 9.68288 87.7579 11.725 86.0299 13.7671C88.7004 9.76142 86.9725 3.63511 82.7312 1.20029C78.4899 -1.15598 72.7563 0.100697 69.536 3.71365C66.3158 7.32661 65.6874 12.8246 67.3368 17.38C65.766 14.0813 60.8178 12.9031 58.0688 15.3379C56.4194 16.7517 55.8696 19.1865 56.4194 21.3857C56.2623 21.3857 56.0267 21.3857 55.8696 21.4643C53.4348 21.857 51 23.8205 51 26.3339C51 28.1404 52.2567 29.7898 53.8275 30.6537C55.3984 31.5177 57.2834 31.6748 59.0899 31.5177C63.8024 31.125 68.2793 28.7687 71.264 25.0772C69.536 27.4335 69.6146 30.9679 71.4996 33.1671C73.3846 35.3663 76.8405 36.1517 79.4324 34.8165C81.6316 33.7169 83.1239 31.2821 83.0453 28.7687C83.7522 32.8529 87.7579 36.1517 91.9206 35.9946C96.4761 35.759 100.482 31.3606 100.089 26.7266C103.702 28.1404 107.472 29.5541 111.321 29.24C115.169 28.8472 119.096 26.0983 119.332 22.1711C119.568 18.0084 115.248 14.5525 111.006 14.2383Z" fill="#EDECFF"/>
<path d="M25.2756 123.565C25.0241 122.667 23.9823 122.164 23.0483 122.272C22.1143 122.344 21.288 122.847 20.4977 123.35C21.3599 122.595 22.0065 121.589 22.2939 120.476C22.5813 119.362 22.4376 118.141 21.791 117.171C21.0725 116.057 19.7792 115.446 18.45 115.159C16.115 114.692 13.6003 115.267 11.6964 116.704C9.79239 118.141 8.57098 120.44 8.39136 122.811C7.49327 122.272 6.59517 121.769 5.55338 121.554C4.54751 121.374 3.39795 121.589 2.67948 122.344C2.21247 122.883 2.03285 123.709 2.28431 124.356C2.03285 124.356 1.8173 124.392 1.56584 124.499C0.84736 124.751 0.236655 125.433 0.344426 126.188C0.452198 126.978 1.27845 127.445 2.03285 127.589C3.93681 128.02 6.05631 127.301 7.34957 125.828C6.70294 126.834 7.02626 128.379 7.96028 129.205C9.03799 130.103 10.6186 130.175 11.9478 129.744C13.4566 129.241 14.8217 127.876 14.7499 126.295C17.4442 128.271 21.4676 128.164 24.0542 126.08C24.8445 125.397 25.527 124.499 25.2756 123.565Z" fill="#CFCEE4"/>
</svg>
