<svg width="65" height="64" viewBox="0 0 65 64" fill="none" xmlns="http://www.w3.org/2000/svg">
<path d="M2.55721 47.0171C9.8625 39.184 17.8319 31.9211 25.8617 24.8382C34.2839 17.4253 42.8873 10.0724 52.1246 3.64981C51.4001 3.16962 50.6756 2.71944 49.9209 2.23925C48.17 14.244 44.1552 25.7986 42.5854 37.8334C42.193 40.7746 41.9817 43.7458 41.9515 46.717C41.9515 48.1275 42.0119 49.5081 42.1024 50.9186C42.1628 51.819 42.4949 52.8994 42.4043 53.7398C42.0722 56.6209 41.7402 59.472 41.4383 62.3532C42.2835 62.1731 43.1288 61.993 43.974 61.813C38.1177 52.4192 33.8311 42.0051 29.4238 31.861C24.9863 21.5069 20.7903 10.9727 15.8094 0.858697C14.9943 1.27886 14.1491 1.69903 13.334 2.1192C19.3715 9.71222 28.0352 15.2044 36.3065 20.0663C44.8495 25.0783 53.8151 29.5201 63.0523 33.1816C63.0825 32.3112 63.1429 31.4409 63.1731 30.6005C52.6076 32.8814 41.7402 33.8718 31.0539 35.7026C25.2882 36.693 19.5224 37.8334 13.8774 39.424C9.31914 40.7146 4.64012 42.3052 0.6856 45.0063C-0.823759 46.0267 0.806349 48.3376 2.28552 47.3172C6.02873 44.7662 10.4662 43.3256 14.8132 42.0951C20.4582 40.4745 26.2541 39.394 32.0501 38.4036C42.7062 36.6029 53.5132 35.5525 64.0787 33.2716C65.2862 33.0015 65.2862 31.1107 64.1994 30.6906C55.2338 27.1492 46.5399 22.8274 38.1781 18.0255C33.6802 15.3245 29.3031 12.5033 25.1674 9.38209C21.6959 6.77105 18.3149 3.91992 15.6283 0.528565C14.6925 -0.641901 12.3982 0.288469 13.1227 1.78907C18.1338 11.9031 22.3298 22.4373 26.7975 32.7914C31.2652 43.1455 35.7027 53.7998 41.6798 63.4036C42.3137 64.424 44.0948 64.0639 44.2155 62.8634C44.5476 60.0423 44.8495 57.1911 45.1815 54.37C45.2721 53.7097 45.1513 53.0795 45.091 52.3892C44.9098 50.8586 44.8193 49.328 44.7891 47.7974C44.7287 44.6461 44.9702 41.4949 45.3626 38.3736C46.9022 26.3388 50.9473 14.7842 52.6981 2.77946C52.8792 1.57898 51.551 0.648613 50.4945 1.3689C41.1364 7.85148 32.4425 15.2944 23.8995 22.8274C15.7792 30.0003 7.71921 37.3232 0.353541 45.2464C-0.853946 46.5369 1.31953 48.3376 2.55721 47.0171Z" fill="#FEC022"/>
</svg>
