<svg viewBox="0 0 319 341" fill="none" xmlns="http://www.w3.org/2000/svg" x="0px" y="0px" preserveAspectRatio="none">
<path class="animation-dashed" d="M316.81 222.58C311.51 197.91 300.68 173.96 299.24 147.13C298.24 128.92 300.68 110.47 299.72 92.2701C298.27 62.5601 282.87 35.9701 258.79 18.2701C251.432 12.7654 243.104 8.69451 234.24 6.27005C223.4 3.39005 211.85 5.27005 201.02 7.27005C195.24 8.27005 189.7 9.42005 183.92 9.90005C177.92 10.6201 171.92 8.90005 165.92 7.99005C163.03 7.51005 160.38 6.99005 157.49 6.55005C149.065 3.66963 140.344 1.74096 131.49 0.800052C131.249 0.780555 131.011 0.733584 130.78 0.660052C130.607 0.608713 130.43 0.575204 130.25 0.560052C115.07 -0.919948 99.4299 0.760052 84.7399 3.87005C59.2299 9.87005 31.7399 21.6001 15.8899 43.4001C0.24994 64.4801 1.44994 92.0001 8.66994 116C11.0799 123.67 13.9699 130.86 15.6699 138.52C17.4777 147.261 18.2065 156.191 17.8399 165.11C17.1199 181.11 13.0199 196.97 9.16994 212.54C2.16994 240.33 -4.07006 268.6 3.38994 297.1C8.20994 315.31 20.2499 328.72 38.2999 334.47C63.0999 342.38 97.9999 340.22 124 340.47C148.915 340.4 173.786 338.394 198.39 334.47C234.26 328.72 286.98 322.26 307.44 287.76C317.29 270.49 320.9 241.75 316.81 222.58Z" stroke="currentColor" stroke-width="1.5" stroke-dasharray="6 6"/>
</svg>
