<svg width="65" height="61" viewBox="0 0 65 61" fill="none" xmlns="http://www.w3.org/2000/svg">
<path d="M28.7995 18.5221C28.8466 14.4528 29.0351 9.72878 31.627 6.36112C32.8522 4.77084 34.3602 4.91116 35.8211 5.79985C37.8003 7.01594 39.0727 9.63523 39.5911 12.2077C40.3922 16.1367 39.2612 20.2995 37.3762 23.7607C38.9313 24.509 40.4864 25.2574 42.0415 26.0058C43.0312 21.7027 46.0943 17.914 49.8172 15.5286C52.9274 13.5174 56.933 12.5819 58.9594 16.3705C62.6351 23.1994 52.409 34.612 45.1989 30.8234C44.4449 32.3669 43.6909 33.9104 42.9369 35.4539C46.8954 36.67 50.0999 39.7102 52.2205 43.2182C54.0584 46.3052 55.1894 50.6551 52.2676 53.4615C45.4817 59.9162 32.6166 51.8712 35.0671 43.0779C33.3706 42.9843 31.6741 42.8908 30.0247 42.7973C31.2028 46.4455 30.3075 50.1406 27.2915 52.6196C24.087 55.2856 20.4584 53.1809 18.055 50.6083C14.5678 46.8197 16.0286 38.0264 22.1077 38.2135C21.2595 37.278 20.4584 36.3894 19.6101 35.4539C19.6101 35.6878 19.563 35.9684 19.563 36.2023C20.0343 35.4539 20.5055 34.7523 20.9767 34.0039C13.3896 38.0732 3.35205 30.1218 5.66117 21.9833C6.65079 18.5221 9.47828 16.6044 13.0598 16.9786C16.8769 17.3528 19.94 20.6736 21.0239 24.1348C22.0606 27.3154 27.1972 26.2396 26.1605 23.0123C24.2755 17.0721 19.6572 12.6287 13.3425 11.74C6.93354 10.8513 1.84406 15.5286 0.383189 21.422C-1.26618 28.1105 2.59806 34.612 8.34729 37.9796C11.1277 39.6167 14.3793 40.5054 17.6309 40.3183C20.6469 40.1312 24.6054 39.2893 24.7939 35.7813C24.8881 34.3781 23.7571 33.0685 22.2962 33.0217C11.1748 32.7411 7.68754 47.1939 14.3793 54.4437C18.432 58.8404 24.5111 60.7113 29.742 57.2501C34.7843 53.8825 36.9521 47.4278 35.0671 41.7215C34.3131 39.4764 30.7787 38.728 30.0247 41.4408C28.2811 47.6149 31.25 53.4615 35.9624 57.4372C41.1462 61.8339 48.7333 62.1613 54.3411 58.4194C66.2166 50.468 54.8124 33.6765 44.5863 30.5427C41.8531 29.7008 39.5911 33.7701 42.3243 35.1733C53.8228 41.2537 68.8556 26.7541 64.096 15.0141C61.5041 8.653 55.2365 7.34336 49.2988 9.91587C43.5967 12.4416 38.5072 18.2882 37.0934 24.3687C36.4808 27.0348 40.2508 29.4202 41.7588 26.6138C45.9058 18.9431 47.2253 6.31435 38.2244 1.16932C34.9257 -0.701594 31.0143 -0.327411 28.2811 2.29188C24.1812 6.2208 23.6157 12.9093 23.5686 18.2415C23.5215 21.6091 28.7523 21.8897 28.7995 18.5221Z" fill="#75C137"/>
</svg>
