<svg width="82" height="78" viewBox="0 0 82 78" fill="none" xmlns="http://www.w3.org/2000/svg">
<path d="M0.171099 1.99351C5.2083 17.6519 15.145 33.7487 31.1245 40.0235C35.231 41.6193 39.5654 42.3595 43.9433 42.4067C46.6839 42.435 49.306 41.0184 51.536 39.5547C54.0662 37.9354 56.5639 35.9083 58.1551 33.3273C59.4503 31.2035 57.7834 30.3596 55.5963 29.8434C54.4178 29.5511 53.8686 30.3407 53.3258 31.5829C52.456 33.5936 52.3111 35.9035 52.1996 38.0532C52.0713 40.283 52.2006 42.4822 52.4103 44.6979C52.5852 46.355 52.97 48.3727 53.2969 49.4593C56.7051 60.7051 67.2744 73.7566 80.0826 73.5304C82.6178 73.4998 82.1399 77.4126 79.6402 77.4338C70.8345 77.5799 63.1991 71.8496 57.769 65.4194C53.2353 60.0757 49.58 53.3249 48.661 46.3007C47.9314 40.7026 47.5254 33.4662 50.5493 28.422C53.5305 23.5028 62.6182 26.2725 62.5563 31.8918C62.5336 34.6614 60.4772 37.0633 58.6177 38.9207C56.311 41.2377 53.4732 43.1281 50.5581 44.5848C43.8271 47.9648 35.3384 46.0201 28.6889 43.2834C12.9388 36.8719 2.60487 20.9942 -2.82231 5.43958C-3.01761 4.84794 -3.22231 4.22094 -3.42701 3.59395C-4.17274 1.21797 -0.584042 -0.417829 0.171099 1.99351Z" fill="#F06FA9"/>
</svg>
