<svg width="115" height="94" viewBox="0 0 115 94" fill="none" xmlns="http://www.w3.org/2000/svg">
<g clip-path="url(#clip0_17_8750)">
<path d="M32.7447 43.5526C32.7447 43.5526 27.4183 43.0974 26.4554 39.1964C25.4925 35.2954 25.6734 31.5259 26.7263 30.9652C27.7792 30.4044 35.6226 31.7966 37.0254 33.4712C38.4282 35.1458 38.1994 37.9077 38.1994 37.9077C38.1994 37.9077 34.6642 41.4418 32.7447 43.5526Z" fill="#007C35"/>
<path d="M43.4977 33.8604C43.4977 33.8604 37.9668 32.2772 37.964 29.0388C37.9612 25.8003 39.2314 21.7469 40.2116 20.6325C41.1918 19.518 46.1759 22.2995 48.4524 23.5496C50.7084 24.8586 49.3705 31.3993 49.3705 31.3993C49.3705 31.3993 46.3024 32.0557 43.4977 33.8604Z" fill="#007C35"/>
<path d="M55.205 30.577C55.205 30.577 52.5102 24.4251 52.9979 23.2063C53.506 21.9286 58.1008 17.2414 59.6689 16.5286C61.1779 15.7953 65.3342 21.9243 65.709 23.7057C66.1427 25.5076 62.3016 31.6447 61.8841 31.8967C61.9635 31.8581 58.5455 30.2792 55.205 30.577Z" fill="#007C35"/>
<path d="M68.0848 35.3632C68.0848 35.3632 67.8795 29.0815 68.6916 27.116C69.5037 25.1505 74.9728 23.4748 77.2151 24.2506C79.4574 25.0263 79.6037 31.2876 79.2295 32.9421C78.9143 34.617 71.5621 38.6805 71.5621 38.6805L68.0848 35.3632Z" fill="#007C35"/>
<path d="M77.0505 44.015C77.0505 44.015 78.8222 39.2761 79.6776 38.7132C80.5535 38.0912 84.7157 38.474 85.6168 39.1161C86.4793 39.6788 85.8422 43.6209 84.9392 44.8942C84.0566 46.1085 79.452 46.4315 79.452 46.4315L77.0505 44.015Z" fill="#007C35"/>
<path d="M41.3302 59.6049C41.3302 59.6049 44.4837 67.1048 44.5228 70.6202C44.562 74.1355 49.0396 74.5614 51.1933 74.4476C53.3469 74.3337 55.4416 74.1995 55.8384 72.2886C56.2353 70.3777 55.6711 62.6504 56.8893 59.7022" fill="#04BC53"/>
<path d="M68.2726 58.8833C68.2726 58.8833 71.426 66.3832 71.4652 69.8985C71.5044 73.4138 75.982 73.8397 78.1357 73.7259C80.2893 73.6121 82.384 73.4778 82.7808 71.5669C83.1776 69.656 82.6135 61.9287 83.8317 58.9805" fill="#04BC53"/>
<path d="M78.9396 63.7629C78.1113 63.6746 77.3033 63.5272 76.475 63.4388C71.7817 62.8723 67.0295 62.2853 62.334 61.9161C61.3672 61.8459 60.4004 61.7758 59.4132 61.7646C58.1105 61.7103 56.8669 61.6765 55.5642 61.6222C54.4386 61.6292 53.313 61.6362 52.1874 61.6432C46.6364 61.8371 41.1581 62.5846 35.9842 64.3624C36.8533 64.3328 37.3276 64.2987 37.3276 64.2987C41.2423 63.8691 45.6814 64.2156 50.5925 64.7254C51.6773 64.8364 52.8211 64.9678 53.9649 65.0993C55.1677 65.2511 56.4499 65.3644 57.6528 65.5162C58.6786 65.6068 59.7043 65.6974 60.7301 65.788C64.8923 66.1709 69.2542 66.3585 73.8179 66.1535C74.3512 66.1398 74.905 66.0671 75.3793 66.033C76.4073 65.9261 77.3763 65.7989 78.2863 65.6512C80.3242 65.2991 82.0671 64.8449 83.5739 64.3091C82.0942 64.1936 80.5169 63.9783 78.9396 63.7629Z" fill="#007C35"/>
<path d="M99.96 28.0232C94.6859 28.1807 89.6028 30.6506 88.6576 37.3933C87.7124 44.1359 91.5393 47.9705 85.5982 49.483C79.6571 50.9954 69.3664 30.3227 55.759 30.5042C42.1312 30.7448 36.2799 40.0186 29.6475 46.7758C23.0151 53.533 10.6569 46.2842 8.11032 44.4782C5.56373 42.6722 1.73604 47.6247 13.7587 56.6073C23.3141 63.7453 32.6075 64.3837 36.0048 64.3037C50.8323 59.2586 67.6016 62.3513 83.6535 64.2708C90.0188 61.9141 92.14 57.6926 94.3295 54.4198C97.3834 49.7942 97.0271 49.8691 98.434 49.4309C99.841 48.9927 108.257 52.1684 111.491 42.0554C114.685 32.0603 105.214 27.9247 99.96 28.0232Z" fill="#04BC53"/>
<path d="M34.9537 61.2314C34.9537 61.2314 38.1072 68.7313 38.1464 72.2466C38.1855 75.762 42.6632 76.1879 44.8168 76.074C46.9705 75.9602 49.0651 75.826 49.462 73.915C49.8588 72.0041 49.2947 64.2768 50.5129 61.3287" fill="#04BC53"/>
<path d="M61.8756 60.5683C61.8756 60.5683 65.0291 68.0682 65.0682 71.5835C65.1074 75.0989 69.585 75.5248 71.7387 75.4109C73.8924 75.2971 75.987 75.1629 76.3838 73.252C76.7807 71.341 76.2166 63.6138 77.4348 60.6656" fill="#04BC53"/>
<path d="M51.1961 37.2925C53.1267 37.2436 54.6748 36.5332 54.6538 35.7058C54.6329 34.8784 53.0508 34.2473 51.1202 34.2962C49.1896 34.3451 47.6415 35.0555 47.6625 35.8829C47.6834 36.7103 49.2655 37.3414 51.1961 37.2925Z" fill="#007C35"/>
<path d="M61.9378 38.479C63.8684 38.4301 65.4165 37.7197 65.3955 36.8923C65.3746 36.0649 63.7925 35.4338 61.8619 35.4827C59.9313 35.5316 58.3832 36.242 58.4042 37.0694C58.4251 37.8968 60.0072 38.5279 61.9378 38.479Z" fill="#007C35"/>
<path d="M45.3227 41.7521C46.6673 41.718 47.7452 41.2153 47.7303 40.6292C47.7155 40.0432 46.6135 39.5957 45.269 39.6297C43.9244 39.6638 42.8465 40.1665 42.8614 40.7526C42.8762 41.3387 43.9782 41.7862 45.3227 41.7521Z" fill="#007C35"/>
<path d="M49.4781 45.0336C50.5469 45.0065 51.4012 44.5094 51.3864 43.9233C51.3715 43.3373 50.4931 42.8841 49.4244 42.9112C48.3556 42.9383 47.5013 43.4353 47.5161 44.0214C47.531 44.6075 48.4094 45.0606 49.4781 45.0336Z" fill="#007C35"/>
<path d="M54.3917 41.5296C55.4604 41.5026 56.3148 41.0055 56.2999 40.4194C56.2851 39.8334 55.4067 39.3802 54.3379 39.4073C53.2692 39.4343 52.4149 39.9314 52.4297 40.5175C52.4446 41.1036 53.323 41.5567 54.3917 41.5296Z" fill="#007C35"/>
<path d="M62.8023 42.4887C64.3192 42.4503 65.534 41.8322 65.5157 41.1082C65.4973 40.3842 64.2528 39.8285 62.7359 39.8669C61.219 39.9054 60.0041 40.5234 60.0225 41.2474C60.0408 41.9714 61.2854 42.5271 62.8023 42.4887Z" fill="#007C35"/>
<path d="M106.544 42.9866C107.033 43.1558 107.566 42.8966 107.735 42.4077C107.904 41.9189 107.645 41.3855 107.156 41.2164C106.667 41.0473 106.134 41.3064 105.965 41.7953C105.796 42.2841 106.055 42.8175 106.544 42.9866Z" fill="#35343D"/>
</g>
<defs>
<clipPath id="clip0_17_8750">
<rect width="99.0298" height="65" fill="white" transform="translate(21.252) rotate(19.0839)"/>
</clipPath>
</defs>
</svg>
