<svg width="113" height="79" viewBox="0 0 113 79" fill="none" xmlns="http://www.w3.org/2000/svg">
<path d="M108.397 78.2809C107.9 78.4629 107.345 78.4004 106.888 78.0972C106.282 77.7093 106.08 76.9588 106.374 76.2369C107.771 72.7552 109.263 68.6925 109.41 64.7095C109.528 61.8116 108.866 59.8665 107.495 58.9571L107.406 58.9062C105.916 57.9289 103.767 57.7616 101.055 58.3743C97.1219 59.2642 93.4771 61.1661 90.7498 62.7022C90.2272 62.997 89.5764 62.9644 89.06 62.6274C88.5437 62.2903 88.3102 61.7335 88.4238 61.1205L88.4921 60.8629C89.1872 57.0233 89.9552 53.0559 90.2689 49.1258L90.271 48.9151C90.4559 46.5213 90.6883 43.5614 89.6816 41.4618C88.9495 39.985 87.4603 39.5587 85.2438 40.2C80.8768 41.4356 76.6348 44.5218 73.2714 46.9656C72.6576 47.4202 71.8447 47.4646 71.2872 47.0617C70.6817 46.6738 70.4915 45.9721 70.726 45.2163C71.951 41.5521 72.5414 38.034 72.5497 34.7768C72.5429 32.443 72.3689 29.5054 70.9834 27.6556C70.2289 26.6319 69.3426 26.2532 68.2582 26.5663C66.0119 27.1906 63.1722 30.4416 59.7639 36.2065C59.5451 36.59 59.196 36.8567 58.7349 36.9748C58.2737 37.0929 57.8261 37.0493 57.4583 36.797L56.6037 36.2245C56.1171 35.9044 55.8539 35.3306 55.9196 34.7326C56.5245 27.3255 53.6774 20.4476 48.6919 17.1787C47.9676 16.723 47.2069 16.3312 46.4394 16.0202C38.5198 12.856 31.4714 18.2379 27.5223 24.3296C26.9888 25.1265 25.9409 25.3757 25.2166 24.92C24.979 24.7844 24.7961 24.5529 24.6794 24.2745C23.5419 21.5072 22.7286 18.5859 21.9381 15.7625C21.7938 15.2565 21.6494 14.7505 21.5051 14.2445C21.4066 13.9341 21.3264 13.5918 21.2279 13.2814C20.5062 10.7514 19.7799 8.09161 18.3782 6.06315C17.9483 5.43654 17.5049 4.97166 16.9885 4.6346C12.8576 1.93808 6.41418 9.57159 3.3191 13.27C3.1138 13.4917 2.9382 13.7304 2.75114 13.9202C2.23112 14.5554 1.48913 14.6826 0.853961 14.2778C0.426692 13.9915 0.138551 13.5306 0.0900872 12.9945C0.0233934 12.4905 0.189609 11.9923 0.552267 11.5638C4.14236 7.34304 12.5314 -2.52671 18.6867 1.4522C19.3218 1.85706 19.8841 2.38975 20.403 3.0672C22.4446 5.6303 23.3976 8.92779 24.3277 12.1275C24.5705 12.9438 24.7836 13.7433 25.0264 14.5597C25.5282 16.3711 26.0415 18.2314 26.6688 20.0298C31.4151 14.2661 39.5598 9.17093 47.8978 12.9129C48.7362 13.3066 49.5266 13.7154 50.2921 14.2369C55.5449 17.6584 58.8343 23.8991 59.2293 31.0721C62.3921 26.5651 67.4902 20.875 71.8291 23.6901C72.3454 24.0272 72.8368 24.4771 73.3031 25.0398C74.8965 27.0082 75.7167 29.8486 75.8277 33.7246C75.8918 36.303 75.65 39.0033 75.0498 41.7108C78.1532 39.5846 81.4463 37.609 84.9848 36.7902C88.206 36.0445 90.8029 36.8064 92.1978 38.9158C93.7735 41.4672 93.8178 44.8391 93.6063 48.1074C93.3994 51.5055 92.8638 54.9277 92.264 58.1863C94.7495 56.9359 98.1457 55.4004 101.627 54.8881C105.223 54.3138 107.829 54.7843 109.637 56.2395C115.823 61.3374 111.358 72.4724 109.465 77.2381C109.251 77.7513 108.876 78.1309 108.397 78.2809Z" fill="#31E4DA"/>
</svg>
