<svg width="113" height="79" viewBox="0 0 113 79" fill="none" xmlns="http://www.w3.org/2000/svg">
<path d="M108.397 78.281C107.9 78.463 107.345 78.4004 106.888 78.0973C106.282 77.7094 106.08 76.9588 106.374 76.2369C107.771 72.7553 109.263 68.6926 109.41 64.7096C109.528 61.8117 108.866 59.8666 107.495 58.9571L107.406 58.9063C105.916 57.929 103.767 57.7617 101.055 58.3743C97.1219 59.2643 93.4771 61.1662 90.7498 62.7022C90.2272 62.997 89.5764 62.9645 89.06 62.6274C88.5437 62.2904 88.3102 61.7335 88.4238 61.1205L88.4921 60.863C89.1872 57.0234 89.9552 53.056 90.2689 49.1258L90.271 48.9152C90.4559 46.5214 90.6883 43.5615 89.6816 41.4619C88.9495 39.985 87.4603 39.5587 85.2438 40.2C80.8768 41.4356 76.6348 44.5218 73.2714 46.9656C72.6576 47.4202 71.8447 47.4647 71.2872 47.0617C70.6817 46.6738 70.4915 45.9722 70.726 45.2164C71.951 41.5522 72.5414 38.0341 72.5497 34.7769C72.5429 32.4431 72.3689 29.5055 70.9834 27.6557C70.2289 26.632 69.3426 26.2532 68.2582 26.5664C66.0119 27.1907 63.1722 30.4417 59.7639 36.2066C59.5451 36.59 59.196 36.8568 58.7349 36.9749C58.2737 37.093 57.8261 37.0493 57.4583 36.797L56.6037 36.2246C56.1171 35.9045 55.8539 35.3307 55.9196 34.7327C56.5245 27.3256 53.6774 20.4477 48.6919 17.1788C47.9676 16.7231 47.2069 16.3312 46.4394 16.0203C38.5198 12.8561 31.4714 18.238 27.5223 24.3296C26.9888 25.1266 25.9409 25.3758 25.2166 24.9201C24.979 24.7845 24.7961 24.553 24.6794 24.2746C23.5419 21.5072 22.7286 18.586 21.9381 15.7626C21.7938 15.2566 21.6494 14.7506 21.5051 14.2446C21.4066 13.9342 21.3264 13.5918 21.2279 13.2815C20.5062 10.7515 19.7799 8.09168 18.3782 6.06321C17.9483 5.43661 17.5049 4.97172 16.9885 4.63466C12.8576 1.93815 6.41418 9.57165 3.3191 13.27C3.1138 13.4918 2.9382 13.7305 2.75114 13.9202C2.23112 14.5554 1.48913 14.6827 0.853961 14.2778C0.426692 13.9916 0.138551 13.5306 0.0900872 12.9946C0.0233934 12.4905 0.189609 11.9923 0.552267 11.5639C4.14236 7.3431 12.5314 -2.52665 18.6867 1.45226C19.3218 1.85712 19.8841 2.38981 20.403 3.06726C22.4446 5.63036 23.3976 8.92785 24.3277 12.1275C24.5705 12.9439 24.7836 13.7433 25.0264 14.5597C25.5282 16.3712 26.0415 18.2315 26.6688 20.0299C31.4151 14.2661 39.5598 9.17099 47.8978 12.9129C48.7362 13.3067 49.5266 13.7154 50.2921 14.237C55.5449 17.6585 58.8343 23.8992 59.2293 31.0721C62.3921 26.5651 67.4902 20.875 71.8291 23.6902C72.3454 24.0273 72.8368 24.4771 73.3031 25.0398C74.8965 27.0083 75.7167 29.8487 75.8277 33.7247C75.8918 36.303 75.65 39.0033 75.0498 41.7109C78.1532 39.5847 81.4463 37.6091 84.9848 36.7903C88.206 36.0445 90.8029 36.8065 92.1978 38.9158C93.7735 41.4673 93.8178 44.8392 93.6063 48.1075C93.3994 51.5055 92.8638 54.9278 92.264 58.1863C94.7495 56.936 98.1457 55.4005 101.627 54.8882C105.223 54.3139 107.829 54.7844 109.637 56.2396C115.823 61.3375 111.358 72.4724 109.465 77.2381C109.251 77.7514 108.876 78.1309 108.397 78.281Z" fill="#31E4DA"/>
</svg>
