<svg viewBox="0 0 327 350" fill="none" xmlns="http://www.w3.org/2000/svg" x="0px" y="0px" preserveAspectRatio="none">
<path d="M324.653 229.04C319.225 203.738 308.124 179.173 306.644 151.66C305.657 132.99 308.124 114.075 307.137 95.406C305.657 64.9453 289.869 37.6782 265.2 19.5C257.552 13.8501 249.165 9.67402 240.037 7.21752C228.936 4.26972 217.095 6.23492 205.994 8.20012C200.073 9.18272 194.399 10.411 188.478 10.9023C182.311 11.6392 176.144 9.91967 169.977 8.93707C167.016 8.44577 164.303 7.95447 161.342 7.46317C152.708 4.51537 143.827 2.55017 134.7 1.56757C134.453 1.56757 134.206 1.32192 133.96 1.32192C133.713 1.32192 133.713 1.32192 133.466 1.32192C117.925 -0.151986 101.89 1.56757 86.8413 4.76102C60.692 10.9023 32.5691 22.9391 16.2874 45.2933C0.252384 66.9105 1.48585 95.1603 8.88661 119.725C11.3535 127.586 14.3138 134.956 16.0407 142.816C18.0142 151.66 18.5076 160.995 18.2609 170.084C17.5208 186.542 13.3271 202.755 9.37999 218.722C2.22592 247.218 -4.18807 276.205 3.45938 305.437C8.39323 324.106 20.7278 337.863 39.2297 343.758C64.639 351.865 100.409 349.654 127.052 349.9C152.708 349.9 178.117 347.689 203.28 343.758C240.037 337.863 294.063 331.23 315.032 295.857C325.146 278.17 328.846 248.692 324.653 229.04ZM154.435 6.48057C150.241 5.74362 146.294 4.76102 142.347 3.77842C146.294 4.51537 150.488 5.25232 154.435 6.48057Z" fill="currentcolor"/>
<path d="M320.811 222.584C315.515 197.91 304.682 173.955 303.237 147.125C302.274 128.919 304.682 110.474 303.719 92.2682C302.274 62.5639 286.867 35.9738 262.794 18.2471C255.331 12.7374 247.146 8.66506 238.239 6.26955C227.406 3.39494 215.851 5.31135 205.018 7.22775C199.24 8.18596 193.703 9.38371 187.926 9.86281C181.908 10.5815 175.889 8.90461 169.871 7.9464C166.982 7.4673 164.334 6.9882 161.445 6.5091C153.02 3.63449 144.353 1.71809 135.446 0.759887C135.205 0.759887 134.965 0.520336 134.724 0.520336C134.483 0.520336 134.483 0.520336 134.242 0.520336C119.076 -0.916967 103.428 0.759887 88.7437 3.87404C63.226 9.86281 35.7824 21.6008 19.894 43.3999C4.24631 64.4803 5.44998 92.0287 12.672 115.984C15.0793 123.649 17.9681 130.836 19.6532 138.501C21.5791 147.125 22.0606 156.228 21.8199 165.092C21.0977 181.141 17.0052 196.952 13.1534 212.523C6.17218 240.31 -0.0868888 268.577 7.37585 297.084C12.1905 315.29 24.2272 328.705 42.2822 334.454C67.0777 342.359 101.984 340.203 127.983 340.443C153.02 340.443 177.815 338.287 202.37 334.454C238.239 328.705 290.96 322.237 311.422 287.741C321.292 270.494 324.903 241.748 320.811 222.584ZM154.705 5.5509C150.612 4.83225 146.76 3.87404 142.909 2.91584C146.76 3.63449 150.853 4.35315 154.705 5.5509Z" fill="currentcolor"/>
</svg>
