<svg width="103" height="69" viewBox="0 0 103 69" fill="none" xmlns="http://www.w3.org/2000/svg">
<path d="M9.27742 22.6015C13.3102 20.4613 18.3993 20.3641 21.952 23.1852C21.2799 17.6403 25.4087 11.9008 30.8818 10.928C36.355 9.95524 42.2122 13.7491 43.4604 19.1967C43.0763 12.1927 47.3012 5.18858 53.4464 2.07566C59.5917 -1.13454 67.4653 -0.550866 73.2265 3.34028C79.3717 7.42599 82.7324 14.4301 83.1165 21.726C87.8215 22.1151 92.0463 23.2824 95.6951 26.4926C102.128 32.2321 105.777 42.3491 100.4 50.6178C95.6951 57.8164 86.6692 59.3728 79.5638 56.649C76.6832 62.9722 70.1539 67.0579 63.4325 68.3225C57.1912 69.5871 48.4534 69.2953 43.0763 65.5987C39.0435 62.8749 36.2589 58.3028 35.5868 53.5361C29.5376 55.4817 23.1042 56.8436 16.767 56.0654C9.85354 55.1899 1.69187 50.8123 0.25158 43.2246C-0.900655 36.5123 1.97993 28.0491 7.35703 23.7688C7.93315 23.3797 8.60529 22.8933 9.27742 22.6015Z" fill="white"/>
</svg>
