<svg width="129" height="85" viewBox="0 0 129 85" fill="none" xmlns="http://www.w3.org/2000/svg">
<path d="M11.6193 27.8424C16.6701 25.206 23.0438 25.0862 27.4933 28.5614C26.6515 21.7308 31.8226 14.6604 38.6772 13.4621C45.5319 12.2637 52.8676 16.9373 54.431 23.6481C53.95 15.0199 59.2413 6.39173 66.9378 2.55697C74.6343 -1.39762 84.4954 -0.678603 91.7108 4.11484C99.4073 9.14796 103.616 17.7762 104.097 26.7639C109.99 27.2432 115.281 28.6813 119.851 32.6358C127.908 39.7062 132.478 52.1691 125.744 62.3552C119.851 71.2231 108.547 73.1405 99.6479 69.785C96.0401 77.5744 87.8626 82.6075 79.4446 84.1654C71.6278 85.7233 60.6844 85.3637 53.95 80.81C48.8991 77.4546 45.4117 71.8223 44.5699 65.9503C36.9936 68.347 28.9364 70.0247 20.9994 69.066C12.3408 67.9875 2.11895 62.5949 0.315086 53.2477C-1.12801 44.979 2.47972 34.5532 9.21415 29.2804C9.93569 28.8011 10.7775 28.2019 11.6193 27.8424Z" fill="#FF6565"/>
</svg>
