<svg viewBox="0 0 1920 22" fill="none" preserveAspectRatio="none" xmlns="http://www.w3.org/2000/svg">
<path d="M1920 22V0C1879.9 0 1879.9 22 1839.78 22C1799.68 22 1799.68 0 1759.56 0C1719.46 0 1719.46 22 1679.35 22C1639.25 22 1639.25 0 1599.15 0C1559.04 0 1559.04 22 1518.94 22C1478.83 22 1478.83 0 1438.73 0C1398.63 0 1398.63 22 1358.52 22C1318.42 22 1318.42 0 1278.31 0C1238.21 0 1238.21 22 1198.1 22C1158 22 1158 0 1117.9 0C1077.79 0 1077.79 22 1037.69 22C997.584 22 997.584 0 957.49 0C917.386 0 917.386 22 877.282 22C837.177 22 837.177 0 797.073 0C756.969 0 756.969 22 716.865 22C676.761 22 676.761 0 636.657 0C596.552 0 596.552 22 556.448 22C516.344 22 516.344 0 476.24 0C436.136 0 436.136 22 396.032 22C355.927 22 355.927 0 315.823 0C275.719 0 275.719 22 235.615 22C195.521 22 195.521 0 155.417 0C115.312 0 115.312 22 75.2083 22C35.1042 22 35.1042 0 -5 0L-5 22H1920Z" fill="currentColor"/>
</svg>
