<svg width="84" height="97" viewBox="0 0 84 97" fill="none" xmlns="http://www.w3.org/2000/svg">
<g clip-path="url(#clip0_17_8922)">
<path d="M39.781 65.3491L49.3862 83.4019L54.3544 81.8755L53.5418 60.2872" stroke="#171714" stroke-width="2" stroke-miterlimit="10"/>
<path d="M57.9687 76.443L58.6071 56.8354L32.8806 65.5734L34.9307 68.5074L46.9911 85.5785" stroke="#171714" stroke-width="2" stroke-miterlimit="10"/>
<path d="M60.28 85.2113C60.3196 84.5925 60.2893 83.9952 60.3289 83.3764C60.3746 82.5283 59.6968 77.5803 59.3259 75.8745C59.046 75.9604 58.6961 76.0679 58.4162 76.1539C58.0877 76.3307 57.6465 76.3904 57.2054 76.4501C52.1733 77.7687 47.1625 79.1565 42.1943 80.6829C43.4383 83.4854 44.4236 86.4432 46.2273 89.0737C46.3824 89.3294 56.5774 86.1213 60.28 85.2113Z" fill="#1C2D38"/>
<path d="M29.3894 9.09395C-6.34363e-06 18.1233 3.7302 38.7394 11.6172 50.9507C16.7059 58.7897 27.0121 66.1632 35.6516 70.1057L58.8133 62.9898C63.6089 54.9195 67.7387 43.1867 67.6882 33.7997C67.5684 19.2021 59.4085 -0.128881 29.3894 9.09395Z" fill="#0BDCCF"/>
<path d="M29.4593 9.07241C12.6654 14.232 17.3753 34.5471 23.6529 47.2529C27.6919 55.4144 34.9193 63.7338 40.5985 68.51L53.8238 64.4468C55.7717 57.3273 56.8014 46.4711 55.7013 37.4066C53.9233 23.3942 46.6031 3.80529 29.4593 9.07241Z" fill="#F69133"/>
<path d="M29.4593 9.07249C22.8817 11.0933 28.5012 31.129 33.4493 44.2432C36.6487 52.6627 41.217 61.799 44.6084 67.354L49.7865 65.7631C49.404 59.2837 48.0758 49.2278 45.996 40.4643C42.7274 26.8341 36.1769 7.00864 29.4593 9.07249Z" fill="#00C2CD"/>
<path d="M58.5883 62.7557C50.7298 65.0942 42.9414 67.4113 35.0616 69.6805C34.1519 69.96 34.7176 71.3027 35.6273 71.0233C43.4858 68.6847 51.2742 66.3677 59.154 64.0984C60.0636 63.8189 59.428 62.4977 58.5883 62.7557Z" fill="#171714"/>
<path d="M58.2123 27.3843C57.8411 27.4225 57.5764 27.8072 57.6129 28.1751C57.6858 28.911 57.8287 29.6253 57.8803 30.2919C57.9168 30.6598 58.3244 30.9896 58.6743 30.8821C59.0454 30.8439 59.3101 30.4592 59.2737 30.0913C59.2008 29.3554 59.0579 28.6411 59.0062 27.9745C58.9698 27.6066 58.5835 27.3461 58.2123 27.3843Z" fill="black"/>
<path d="M61.8574 24.2932C61.4862 24.3314 61.1515 24.7375 61.258 25.084C61.7414 26.9069 61.9937 28.725 62.0361 30.6077C62.0725 30.9756 62.4801 31.3053 62.83 31.1978C63.2712 31.1381 63.4659 30.775 63.4294 30.4071C63.3871 28.5244 63.1348 26.7063 62.6513 24.8833C62.6149 24.5154 62.2985 24.2335 61.8574 24.2932Z" fill="black"/>
<path d="M64.5884 32.9324C63.8728 38.081 62.421 43.0766 60.3516 47.807C60.0047 48.6718 61.3098 49.1808 61.678 48.3852C63.8447 43.4733 65.2539 38.3391 66.0182 33.0997C66.1826 32.1393 64.7528 31.972 64.5884 32.9324Z" fill="black"/>
<path d="M20.2475 54.3654C17.3335 50.8627 14.8667 47.071 12.7985 43.0811C12.3818 42.2233 11.0249 42.7919 11.4415 43.6496C13.5523 47.7781 16.1317 51.6869 19.067 55.2588C19.6723 55.9828 20.8528 55.0893 20.2475 54.3654Z" fill="black"/>
<path d="M18.219 46.2683C17.93 45.8263 17.6898 45.2935 17.4008 44.8515C17.267 44.6652 17.2244 44.5266 16.9719 44.4525C16.7894 44.3569 16.5582 44.3521 16.4395 44.4644C16.2296 44.5289 16.1109 44.6412 16.0348 44.8921C15.9374 45.0736 15.9313 45.303 16.0439 45.4201C16.3328 45.8621 16.5731 46.3949 16.8621 46.8369C16.9959 47.0232 17.0385 47.1618 17.291 47.2359C17.4735 47.3314 17.7047 47.3362 17.8234 47.224C18.0333 47.1595 18.152 47.0472 18.228 46.7963C18.3254 46.6147 18.3315 46.3854 18.219 46.2683Z" fill="black"/>
<path d="M26.6228 39.9712C26.5164 39.6248 26.0114 39.4766 25.6615 39.5841C25.2629 39.7824 25.1595 40.1933 25.2659 40.5397C25.8468 42.1811 26.4976 43.801 27.2884 45.3779C27.4648 45.7028 27.8998 45.8724 28.2497 45.7649C28.5783 45.5882 28.8217 45.1342 28.6453 44.8093C27.8758 43.3017 27.2037 41.6126 26.6228 39.9712Z" fill="black"/>
<path d="M29.5984 39.4361C29.422 39.1112 28.9657 38.8722 28.6371 39.049C28.3085 39.2258 28.0651 39.6797 28.2415 40.0046C28.6156 40.7238 28.9197 41.4644 29.2938 42.1836C29.4703 42.5085 29.9266 42.7474 30.2552 42.5707C30.5837 42.3939 30.8272 41.94 30.6508 41.615L29.5984 39.4361Z" fill="black"/>
<path d="M41.9302 47.1728C41.6535 46.272 40.2966 46.8406 40.5733 47.7413C41.7563 51.0933 42.6807 54.6006 43.3039 58.1247C43.4407 59.0684 44.9041 58.8463 44.7673 57.9025C44.0315 54.2615 43.1558 50.6634 41.9302 47.1728Z" fill="black"/>
<path d="M45.9824 47.8992C45.6113 47.9374 45.2766 48.3435 45.383 48.69C45.6627 50.348 45.9423 52.0061 46.222 53.6642C46.2585 54.0321 46.6661 54.3618 47.016 54.2543C47.3871 54.2161 47.7218 53.81 47.6154 53.4636C47.3357 51.8055 47.056 50.1474 46.7764 48.4893C46.7399 48.1214 46.4236 47.8395 45.9824 47.8992Z" fill="black"/>
<path d="M17.107 15.9765C15.1475 18.3225 13.118 20.6901 12.1836 23.631C12.0588 23.9727 12.1866 24.3884 12.5516 24.5795C12.8954 24.7014 13.3852 24.5509 13.51 24.2093C14.4869 21.4069 16.3977 19.1516 18.3085 16.8964C18.908 16.1056 17.7277 15.255 17.107 15.9765Z" fill="black"/>
<path d="M21.4997 16.0674C21.1072 16.0364 20.73 16.3039 20.6964 16.6934C20.6204 16.9442 20.6142 17.1736 20.5382 17.4244C20.5108 17.5845 20.4621 17.6753 20.4347 17.8353C20.4559 17.9046 20.4073 17.9954 20.4073 17.9954C20.2551 18.4971 20.1029 18.9988 19.9294 19.4313C19.8047 19.7729 19.9537 20.2579 20.2974 20.3798C20.6412 20.5016 21.131 20.3511 21.2558 20.0095C21.6301 18.9846 21.9132 17.9119 22.105 16.7914C22.1811 16.5405 21.8921 16.0985 21.4997 16.0674Z" fill="black"/>
<path d="M48.2416 9.1403C46.6902 8.32791 44.9378 8.10801 43.2433 8.32533C42.8721 8.36354 42.5374 8.76967 42.6438 9.1161C42.6803 9.48403 43.0879 9.81376 43.4378 9.70627C43.6477 9.64177 43.809 9.66806 44.0402 9.67285C44.1101 9.65135 44.2014 9.69914 44.3414 9.65614L44.4113 9.63464L44.4813 9.61315C44.8738 9.64423 45.2662 9.67531 45.6586 9.70639C45.8199 9.73268 45.9811 9.75896 46.2336 9.83304C46.3036 9.81154 46.3249 9.88083 46.3949 9.85933C46.4161 9.92862 46.5074 9.9764 46.5987 10.0242C46.9424 10.1461 47.3075 10.3372 47.6512 10.4591C48.0163 10.6502 48.4848 10.4304 48.6096 10.0888C48.7831 9.65638 48.6066 9.33145 48.2416 9.1403Z" fill="black"/>
<path d="M38.8443 13.6959C37.9347 13.9754 38.5003 15.3181 39.41 15.0386C40.3197 14.7592 39.754 13.4164 38.8443 13.6959Z" fill="black"/>
<path d="M57.8527 79.0566C57.7402 78.9395 57.5364 78.7747 57.3751 78.7484C56.9827 78.7173 56.6054 78.9849 56.5719 79.3743C56.5536 80.0624 56.5565 80.8197 56.7694 81.5126C56.8332 81.7205 56.8758 81.859 57.0583 81.9546C57.1709 82.0717 57.4234 82.1457 57.6333 82.0813C57.8432 82.0168 57.9832 81.9738 58.0805 81.7922C58.1779 81.6106 58.2753 81.4291 58.2114 81.2212C58.0624 80.7362 58.0047 80.299 58.0169 79.8403C57.9956 79.771 58.023 79.6109 58.0017 79.5416C58.0291 79.3816 57.9653 79.1737 57.8527 79.0566Z" fill="#FFCB0F"/>
<path d="M53.6239 79.7492C53.4901 79.5629 53.4475 79.4243 53.195 79.3502C53.0125 79.2546 52.7813 79.2498 52.6626 79.3621C52.4527 79.4266 52.3341 79.5389 52.258 79.7898C52.1606 79.9713 52.1545 80.2007 52.267 80.3178C52.4434 80.6427 52.5286 80.9198 52.635 81.2663C52.7202 81.5434 52.7141 81.7728 52.7992 82.0499C52.7718 82.21 52.9056 82.3963 53.0882 82.4919C53.2007 82.609 53.4532 82.6831 53.6631 82.6186C54.1043 82.5589 54.299 82.1957 54.2626 81.8278C54.2596 81.0704 54.0467 80.3776 53.6239 79.7492Z" fill="#FFCB0F"/>
<path d="M49.5323 81.3855C49.4684 81.1776 49.2859 81.0821 49.1034 80.9865C48.9208 80.8909 48.6896 80.8861 48.571 80.9984C48.2424 81.1752 47.9989 81.6291 48.1753 81.954C48.5282 82.6039 48.811 83.2753 49.1425 83.8558C49.2064 84.0637 49.3889 84.1593 49.5714 84.2549C49.754 84.3504 49.9852 84.3552 50.1038 84.2429C50.4324 84.0662 50.6759 83.6122 50.4995 83.2873C50.1679 82.7067 49.8851 82.0354 49.5323 81.3855Z" fill="#FFCB0F"/>
<path d="M47.028 84.2021C46.6265 83.6431 46.155 83.1055 45.7322 82.4771C45.4858 82.1737 45.0021 82.0948 44.6948 82.3409C44.3875 82.587 44.3053 83.0672 44.5517 83.3706C44.9532 83.9297 45.4247 84.4673 45.8475 85.0956C46.0938 85.3991 46.5775 85.4779 46.8848 85.2319C47.1921 84.9858 47.2744 84.5056 47.028 84.2021Z" fill="#FFCB0F"/>
</g>
<defs>
<clipPath id="clip0_17_8922">
<rect width="61.7099" height="81.8327" fill="white" transform="translate(0 18.1233) rotate(-17.0786)"/>
</clipPath>
</defs>
</svg>
