<svg width="95" height="62" viewBox="0 0 95 62" fill="none" xmlns="http://www.w3.org/2000/svg">
<path d="M13.3364 9.08807C17.4484 8.06955 22.0803 9.09503 24.6955 12.3752C25.2733 7.3067 30.2426 3.11439 35.4099 3.44668C40.5771 3.77896 45.0722 8.42607 45.0373 13.5341C46.1883 7.23335 51.5154 1.93953 57.7496 0.51907C64.0047 -0.987735 71.0139 1.25052 75.4011 5.963C80.0947 10.9321 81.6407 17.8832 80.4272 24.4429C84.607 25.8162 88.1852 27.7754 90.8041 31.422C95.4048 37.9218 96.5456 47.6989 89.9039 53.8635C84.1002 59.2251 75.589 58.6347 69.7339 54.6647C65.7706 59.6478 58.9801 61.8478 52.6194 61.5018C46.6937 61.2607 38.8391 59.0927 34.7582 54.6368C31.6872 51.3381 30.1427 46.6715 30.5538 42.2938C24.6564 42.6991 18.5359 42.5024 12.9604 40.4271C6.88373 38.1396 0.425573 32.4709 0.74451 25.4213C1.13707 19.2118 5.55841 12.3291 11.3465 9.70466C11.9518 9.48514 12.6649 9.20026 13.3364 9.08807Z" fill="white"/>
</svg>
