<svg width="86" height="75" viewBox="0 0 86 75" fill="none" xmlns="http://www.w3.org/2000/svg">
<path d="M13.7607 65.3138C4.63177 64.0233 -0.49462 59.2981 0.0377359 52.6869C0.471508 47.4058 3.82338 43.5145 9.73845 41.4101C12.8734 40.2983 15.9296 39.9806 17.428 39.8813C17.5069 28.5251 19.3406 19.3924 22.8502 12.6819C26.7541 5.2368 32.61 1.00798 40.2799 0.114573C41.6995 -0.0442561 43.1191 -0.0442561 44.519 0.15428C50.9468 1.06755 56.921 5.95153 60.9235 13.5356C64.5908 20.5042 66.1879 28.803 65.3598 36.5459C67.6272 36.4665 69.7567 36.5658 71.6889 36.8437C76.5984 37.5386 80.4629 39.385 82.8684 42.2042C85.057 44.7455 85.9837 48.0809 85.5105 51.5552C84.1697 61.1247 74.9028 62.8321 64.7091 63.8446H64.6894C58.7744 64.2615 47.5554 64.5991 37.6576 64.877C29.9088 65.0954 22.6136 65.3138 19.656 65.5322C17.8421 65.6712 15.7521 65.5917 13.7607 65.3138ZM44.2627 2.11979C43.0403 1.9411 41.7784 1.92125 40.5165 2.08008C33.517 2.89408 28.154 6.78538 24.5853 13.615C21.1151 20.2064 19.38 29.3788 19.38 40.8343C19.38 41.3704 18.9462 41.827 18.4139 41.827C18.3744 41.827 14.3719 41.8667 10.3497 43.2961C5.16413 45.1425 2.34461 48.3588 1.98971 52.8457C1.35877 60.7078 10.2117 62.8122 14.0367 63.3681C15.8901 63.6262 17.8224 63.7057 19.4983 63.5865C22.4953 63.3681 29.4948 63.1696 37.5787 62.9314C47.4569 62.6336 58.6363 62.3159 64.512 61.899C74.2521 60.9261 82.4149 59.4371 83.5585 51.2971C84.2683 46.1948 81.4488 40.2387 71.4129 38.8092C69.2637 38.5114 66.878 38.432 64.2951 38.571C63.9993 38.5908 63.7233 38.4717 63.5261 38.2533C63.329 38.0349 63.2304 37.7371 63.2698 37.4592C64.3345 29.8156 62.8558 21.4373 59.1884 14.4886C55.5211 7.4604 50.0595 2.95364 44.2627 2.11979Z" fill="#EF3F6F"/>
<path d="M18.2759 41.8071C17.8027 41.7476 17.4478 41.3306 17.428 40.8542C17.428 40.3181 17.8421 39.8615 18.3942 39.8615C18.6505 39.8615 44.2824 39.4446 64.5908 36.6849C65.1232 36.6055 65.6161 36.9827 65.695 37.5386C65.7739 38.0747 65.3992 38.571 64.8472 38.6504C44.4205 41.4101 18.6702 41.827 18.4139 41.827C18.3744 41.8071 18.3153 41.8071 18.2759 41.8071Z" fill="#EF3F6F"/>
<path d="M45.0908 40.2585C44.6176 40.199 44.2627 39.7821 44.243 39.2857C44.1247 19.3924 39.511 1.52418 39.4715 1.3455C39.3335 0.829302 39.649 0.273401 40.1616 0.134426C40.6742 -0.00454892 41.2263 0.313109 41.3643 0.829302C41.4038 1.00798 46.0964 19.1145 46.2147 39.2659C46.2147 39.8019 45.7809 40.2585 45.2486 40.2585C45.1697 40.2784 45.1303 40.2585 45.0908 40.2585Z" fill="#EF3F6F"/>
<path d="M28.7652 73.7516C34.1337 73.7516 38.4857 69.3694 38.4857 63.9637C38.4857 58.5581 34.1337 54.1759 28.7652 54.1759C23.3968 54.1759 19.0448 58.5581 19.0448 63.9637C19.0448 69.3694 23.3968 73.7516 28.7652 73.7516Z" fill="white"/>
<path d="M27.2668 74.6251C21.4306 73.7913 17.3492 68.3315 18.1773 62.4549C19.0054 56.5782 24.4275 52.4685 30.2637 53.3024C36.0999 54.1362 40.1813 59.596 39.3532 65.4726C38.5251 71.3493 33.103 75.459 27.2668 74.6251ZM29.9877 55.248C25.2162 54.573 20.7799 57.9283 20.1095 62.7328C19.4392 67.5374 22.7713 72.0045 27.5428 72.6795C32.3143 73.3545 36.7506 69.9992 37.421 65.1947C38.0913 60.3901 34.7592 55.9429 29.9877 55.248Z" fill="#EF3F6F"/>
<path d="M61.3967 71.1309C66.7651 71.1309 71.1171 66.7487 71.1171 61.3431C71.1171 55.9374 66.7651 51.5552 61.3967 51.5552C56.0283 51.5552 51.6763 55.9374 51.6763 61.3431C51.6763 66.7487 56.0283 71.1309 61.3967 71.1309Z" fill="white"/>
<path d="M59.8982 72.0045C54.062 71.1706 49.9806 65.7109 50.8087 59.8342C51.6368 53.9575 57.059 49.8478 62.8952 50.6817C68.7314 51.5155 72.8128 56.9753 71.9847 62.8519C71.1566 68.7286 65.7344 72.8383 59.8982 72.0045ZM62.6192 52.6273C57.8477 51.9523 53.4114 55.3076 52.741 60.1121C52.0706 64.9167 55.4028 69.3838 60.1743 70.0588C64.9458 70.7338 69.382 67.3786 70.0524 62.574C70.7228 57.7694 67.3906 53.3222 62.6192 52.6273Z" fill="#EF3F6F"/>
</svg>
