<svg width="106" height="47" viewBox="0 0 106 47" fill="none" xmlns="http://www.w3.org/2000/svg">
<path d="M106 45C100.688 45 100.688 36.9564 95.4 36.9564C90.0885 36.9564 90.0885 45 84.8 45C79.4885 45 79.4884 36.9564 74.2 36.9564C68.8885 36.9564 68.8885 45 63.6 45C58.2885 45 58.2885 36.9564 53 36.9564C47.6885 36.9564 47.6885 45 42.4 45C37.0885 45 37.0885 36.9564 31.8 36.9564C26.4885 36.9564 26.4884 45 21.2 45C15.8884 45 15.8885 36.9564 10.6 36.9564C5.31155 36.9564 5.28845 45 0 45M106 27.5051C100.688 27.5051 100.688 19.4615 95.4 19.4615C90.0885 19.4615 90.0885 27.5051 84.8 27.5051C79.4885 27.5051 79.4884 19.4614 74.2 19.4614C68.8885 19.4614 68.8885 27.5051 63.6 27.5051C58.2885 27.5051 58.2885 19.4614 53 19.4614C47.6885 19.4614 47.6885 27.5051 42.4 27.5051C37.0885 27.5051 37.0885 19.4614 31.8 19.4614C26.4885 19.4614 26.4884 27.5051 21.2 27.5051C15.8884 27.5051 15.8885 19.4614 10.6 19.4614C5.31155 19.4614 5.28845 27.5051 0 27.5051M106 10.0437C100.688 10.0437 100.688 2.00004 95.4 2.00004C90.0885 2.00004 90.0885 10.0437 84.8 10.0437C79.4885 10.0437 79.4884 2.00003 74.2 2.00003C68.8885 2.00003 68.8885 10.0437 63.6 10.0437C58.2885 10.0437 58.2885 2.00003 53 2.00003C47.6885 2.00003 47.6885 10.0437 42.4 10.0437C37.0885 10.0437 37.0885 2.00003 31.8 2.00003C26.4885 2.00003 26.4884 10.0437 21.2 10.0437C15.8884 10.0437 15.8885 2.00003 10.6 2.00003C5.31155 2.00003 5.28845 10.0437 0 10.0437" stroke="#FFC224" stroke-width="3" stroke-miterlimit="10"/>
</svg>
