<svg width="142" height="112" viewBox="0 0 142 112" fill="none" xmlns="http://www.w3.org/2000/svg">
<path d="M1.93026 3.85629C2.99631 3.85629 3.86052 2.99303 3.86052 1.92814C3.86052 0.863259 2.99631 0 1.93026 0C0.864207 0 0 0.863259 0 1.92814C0 2.99303 0.864207 3.85629 1.93026 3.85629Z" fill="#AFAFAF"/>
<path d="M21.7364 3.85629C22.8025 3.85629 23.6667 2.99303 23.6667 1.92814C23.6667 0.863259 22.8025 0 21.7364 0C20.6704 0 19.8061 0.863259 19.8061 1.92814C19.8061 2.99303 20.6704 3.85629 21.7364 3.85629Z" fill="#AFAFAF"/>
<path d="M41.4586 3.85629C42.5247 3.85629 43.3889 2.99303 43.3889 1.92814C43.3889 0.863259 42.5247 0 41.4586 0C40.3926 0 39.5284 0.863259 39.5284 1.92814C39.5284 2.99303 40.3926 3.85629 41.4586 3.85629Z" fill="#AFAFAF"/>
<path d="M61.1809 3.85629C62.2469 3.85629 63.1111 2.99303 63.1111 1.92814C63.1111 0.863259 62.2469 0 61.1809 0C60.1148 0 59.2506 0.863259 59.2506 1.92814C59.2506 2.99303 60.1148 3.85629 61.1809 3.85629Z" fill="#AFAFAF"/>
<path d="M1.93026 19.1976C2.99631 19.1976 3.86052 18.3343 3.86052 17.2695C3.86052 16.2046 2.99631 15.3413 1.93026 15.3413C0.864207 15.3413 0 16.2046 0 17.2695C0 18.3343 0.864207 19.1976 1.93026 19.1976Z" fill="#AFAFAF"/>
<path d="M21.7364 19.1976C22.8025 19.1976 23.6667 18.3343 23.6667 17.2695C23.6667 16.2046 22.8025 15.3413 21.7364 15.3413C20.6704 15.3413 19.8061 16.2046 19.8061 17.2695C19.8061 18.3343 20.6704 19.1976 21.7364 19.1976Z" fill="#AFAFAF"/>
<path d="M41.4586 19.1976C42.5247 19.1976 43.3889 18.3343 43.3889 17.2695C43.3889 16.2046 42.5247 15.3413 41.4586 15.3413C40.3926 15.3413 39.5284 16.2046 39.5284 17.2695C39.5284 18.3343 40.3926 19.1976 41.4586 19.1976Z" fill="#AFAFAF"/>
<path d="M61.1809 19.1976C62.2469 19.1976 63.1111 18.3343 63.1111 17.2695C63.1111 16.2046 62.2469 15.3413 61.1809 15.3413C60.1148 15.3413 59.2506 16.2046 59.2506 17.2695C59.2506 18.3343 60.1148 19.1976 61.1809 19.1976Z" fill="#AFAFAF"/>
<path d="M1.93026 34.6228C2.99631 34.6228 3.86052 33.7595 3.86052 32.6946C3.86052 31.6297 2.99631 30.7665 1.93026 30.7665C0.864207 30.7665 0 31.6297 0 32.6946C0 33.7595 0.864207 34.6228 1.93026 34.6228Z" fill="#AFAFAF"/>
<path d="M21.7364 34.6228C22.8025 34.6228 23.6667 33.7595 23.6667 32.6946C23.6667 31.6297 22.8025 30.7665 21.7364 30.7665C20.6704 30.7665 19.8061 31.6297 19.8061 32.6946C19.8061 33.7595 20.6704 34.6228 21.7364 34.6228Z" fill="#AFAFAF"/>
<path d="M41.4586 34.6228C42.5247 34.6228 43.3889 33.7595 43.3889 32.6946C43.3889 31.6297 42.5247 30.7665 41.4586 30.7665C40.3926 30.7665 39.5284 31.6297 39.5284 32.6946C39.5284 33.7595 40.3926 34.6228 41.4586 34.6228Z" fill="#AFAFAF"/>
<path d="M61.1809 34.6228C62.2469 34.6228 63.1111 33.7595 63.1111 32.6946C63.1111 31.6297 62.2469 30.7665 61.1809 30.7665C60.1148 30.7665 59.2506 31.6297 59.2506 32.6946C59.2506 33.7595 60.1148 34.6228 61.1809 34.6228Z" fill="#AFAFAF"/>
<path d="M1.93026 49.9641C2.99631 49.9641 3.86052 49.1008 3.86052 48.0359C3.86052 46.971 2.99631 46.1078 1.93026 46.1078C0.864207 46.1078 0 46.971 0 48.0359C0 49.1008 0.864207 49.9641 1.93026 49.9641Z" fill="#AFAFAF"/>
<path d="M21.7364 49.9641C22.8025 49.9641 23.6667 49.1008 23.6667 48.0359C23.6667 46.971 22.8025 46.1078 21.7364 46.1078C20.6704 46.1078 19.8061 46.971 19.8061 48.0359C19.8061 49.1008 20.6704 49.9641 21.7364 49.9641Z" fill="#AFAFAF"/>
<path d="M41.4586 49.9641C42.5247 49.9641 43.3889 49.1008 43.3889 48.0359C43.3889 46.971 42.5247 46.1078 41.4586 46.1078C40.3926 46.1078 39.5284 46.971 39.5284 48.0359C39.5284 49.1008 40.3926 49.9641 41.4586 49.9641Z" fill="#AFAFAF"/>
<path d="M61.1809 49.9641C62.2469 49.9641 63.1111 49.1008 63.1111 48.0359C63.1111 46.971 62.2469 46.1078 61.1809 46.1078C60.1148 46.1078 59.2506 46.971 59.2506 48.0359C59.2506 49.1008 60.1148 49.9641 61.1809 49.9641Z" fill="#AFAFAF"/>
<path d="M80.8192 3.85629C81.8852 3.85629 82.7494 2.99303 82.7494 1.92814C82.7494 0.863259 81.8852 0 80.8192 0C79.7531 0 78.8889 0.863259 78.8889 1.92814C78.8889 2.99303 79.7531 3.85629 80.8192 3.85629Z" fill="#AFAFAF"/>
<path d="M100.625 3.85629C101.691 3.85629 102.556 2.99303 102.556 1.92814C102.556 0.863259 101.691 0 100.625 0C99.5592 0 98.695 0.863259 98.695 1.92814C98.695 2.99303 99.5592 3.85629 100.625 3.85629Z" fill="#AFAFAF"/>
<path d="M120.348 3.85629C121.414 3.85629 122.278 2.99303 122.278 1.92814C122.278 0.863259 121.414 0 120.348 0C119.281 0 118.417 0.863259 118.417 1.92814C118.417 2.99303 119.281 3.85629 120.348 3.85629Z" fill="#AFAFAF"/>
<path d="M140.07 3.85629C141.136 3.85629 142 2.99303 142 1.92814C142 0.863259 141.136 0 140.07 0C139.004 0 138.139 0.863259 138.139 1.92814C138.139 2.99303 139.004 3.85629 140.07 3.85629Z" fill="#AFAFAF"/>
<path d="M80.8192 19.1976C81.8852 19.1976 82.7494 18.3343 82.7494 17.2695C82.7494 16.2046 81.8852 15.3413 80.8192 15.3413C79.7531 15.3413 78.8889 16.2046 78.8889 17.2695C78.8889 18.3343 79.7531 19.1976 80.8192 19.1976Z" fill="#AFAFAF"/>
<path d="M100.625 19.1976C101.691 19.1976 102.556 18.3343 102.556 17.2695C102.556 16.2046 101.691 15.3413 100.625 15.3413C99.5592 15.3413 98.695 16.2046 98.695 17.2695C98.695 18.3343 99.5592 19.1976 100.625 19.1976Z" fill="#AFAFAF"/>
<path d="M120.348 19.1976C121.414 19.1976 122.278 18.3343 122.278 17.2695C122.278 16.2046 121.414 15.3413 120.348 15.3413C119.281 15.3413 118.417 16.2046 118.417 17.2695C118.417 18.3343 119.281 19.1976 120.348 19.1976Z" fill="#AFAFAF"/>
<path d="M140.07 19.1976C141.136 19.1976 142 18.3343 142 17.2695C142 16.2046 141.136 15.3413 140.07 15.3413C139.004 15.3413 138.139 16.2046 138.139 17.2695C138.139 18.3343 139.004 19.1976 140.07 19.1976Z" fill="#AFAFAF"/>
<path d="M80.8192 34.6228C81.8852 34.6228 82.7494 33.7595 82.7494 32.6946C82.7494 31.6297 81.8852 30.7665 80.8192 30.7665C79.7531 30.7665 78.8889 31.6297 78.8889 32.6946C78.8889 33.7595 79.7531 34.6228 80.8192 34.6228Z" fill="#AFAFAF"/>
<path d="M100.625 34.6228C101.691 34.6228 102.556 33.7595 102.556 32.6946C102.556 31.6297 101.691 30.7665 100.625 30.7665C99.5592 30.7665 98.695 31.6297 98.695 32.6946C98.695 33.7595 99.5592 34.6228 100.625 34.6228Z" fill="#AFAFAF"/>
<path d="M120.348 34.6228C121.414 34.6228 122.278 33.7595 122.278 32.6946C122.278 31.6297 121.414 30.7665 120.348 30.7665C119.281 30.7665 118.417 31.6297 118.417 32.6946C118.417 33.7595 119.281 34.6228 120.348 34.6228Z" fill="#AFAFAF"/>
<path d="M140.07 34.6228C141.136 34.6228 142 33.7595 142 32.6946C142 31.6297 141.136 30.7665 140.07 30.7665C139.004 30.7665 138.139 31.6297 138.139 32.6946C138.139 33.7595 139.004 34.6228 140.07 34.6228Z" fill="#AFAFAF"/>
<path d="M80.8192 49.9641C81.8852 49.9641 82.7494 49.1008 82.7494 48.0359C82.7494 46.971 81.8852 46.1078 80.8192 46.1078C79.7531 46.1078 78.8889 46.971 78.8889 48.0359C78.8889 49.1008 79.7531 49.9641 80.8192 49.9641Z" fill="#AFAFAF"/>
<path d="M100.625 49.9641C101.691 49.9641 102.556 49.1008 102.556 48.0359C102.556 46.971 101.691 46.1078 100.625 46.1078C99.5592 46.1078 98.695 46.971 98.695 48.0359C98.695 49.1008 99.5592 49.9641 100.625 49.9641Z" fill="#AFAFAF"/>
<path d="M120.348 49.9641C121.414 49.9641 122.278 49.1008 122.278 48.0359C122.278 46.971 121.414 46.1078 120.348 46.1078C119.281 46.1078 118.417 46.971 118.417 48.0359C118.417 49.1008 119.281 49.9641 120.348 49.9641Z" fill="#AFAFAF"/>
<path d="M140.07 49.9641C141.136 49.9641 142 49.1008 142 48.0359C142 46.971 141.136 46.1078 140.07 46.1078C139.004 46.1078 138.139 46.971 138.139 48.0359C138.139 49.1008 139.004 49.9641 140.07 49.9641Z" fill="#AFAFAF"/>
<path d="M1.93026 65.8922C2.99631 65.8922 3.86052 65.029 3.86052 63.9641C3.86052 62.8992 2.99631 62.0359 1.93026 62.0359C0.864207 62.0359 0 62.8992 0 63.9641C0 65.029 0.864207 65.8922 1.93026 65.8922Z" fill="#AFAFAF"/>
<path d="M21.7364 65.8922C22.8025 65.8922 23.6667 65.029 23.6667 63.9641C23.6667 62.8992 22.8025 62.0359 21.7364 62.0359C20.6704 62.0359 19.8061 62.8992 19.8061 63.9641C19.8061 65.029 20.6704 65.8922 21.7364 65.8922Z" fill="#AFAFAF"/>
<path d="M41.4586 65.8922C42.5247 65.8922 43.3889 65.029 43.3889 63.9641C43.3889 62.8992 42.5247 62.0359 41.4586 62.0359C40.3926 62.0359 39.5284 62.8992 39.5284 63.9641C39.5284 65.029 40.3926 65.8922 41.4586 65.8922Z" fill="#AFAFAF"/>
<path d="M61.1809 65.8922C62.2469 65.8922 63.1111 65.029 63.1111 63.9641C63.1111 62.8992 62.2469 62.0359 61.1809 62.0359C60.1148 62.0359 59.2506 62.8992 59.2506 63.9641C59.2506 65.029 60.1148 65.8922 61.1809 65.8922Z" fill="#AFAFAF"/>
<path d="M1.93026 81.2335C2.99631 81.2335 3.86052 80.3703 3.86052 79.3054C3.86052 78.2405 2.99631 77.3772 1.93026 77.3772C0.864207 77.3772 0 78.2405 0 79.3054C0 80.3703 0.864207 81.2335 1.93026 81.2335Z" fill="#AFAFAF"/>
<path d="M21.7364 81.2335C22.8025 81.2335 23.6667 80.3703 23.6667 79.3054C23.6667 78.2405 22.8025 77.3772 21.7364 77.3772C20.6704 77.3772 19.8061 78.2405 19.8061 79.3054C19.8061 80.3703 20.6704 81.2335 21.7364 81.2335Z" fill="#AFAFAF"/>
<path d="M41.4586 81.2335C42.5247 81.2335 43.3889 80.3703 43.3889 79.3054C43.3889 78.2405 42.5247 77.3772 41.4586 77.3772C40.3926 77.3772 39.5284 78.2405 39.5284 79.3054C39.5284 80.3703 40.3926 81.2335 41.4586 81.2335Z" fill="#AFAFAF"/>
<path d="M61.1809 81.2335C62.2469 81.2335 63.1111 80.3703 63.1111 79.3054C63.1111 78.2405 62.2469 77.3772 61.1809 77.3772C60.1148 77.3772 59.2506 78.2405 59.2506 79.3054C59.2506 80.3703 60.1148 81.2335 61.1809 81.2335Z" fill="#AFAFAF"/>
<path d="M1.93026 96.6587C2.99631 96.6587 3.86052 95.7954 3.86052 94.7305C3.86052 93.6656 2.99631 92.8024 1.93026 92.8024C0.864207 92.8024 0 93.6656 0 94.7305C0 95.7954 0.864207 96.6587 1.93026 96.6587Z" fill="#AFAFAF"/>
<path d="M21.7364 96.6587C22.8025 96.6587 23.6667 95.7954 23.6667 94.7305C23.6667 93.6656 22.8025 92.8024 21.7364 92.8024C20.6704 92.8024 19.8061 93.6656 19.8061 94.7305C19.8061 95.7954 20.6704 96.6587 21.7364 96.6587Z" fill="#AFAFAF"/>
<path d="M41.4586 96.6587C42.5247 96.6587 43.3889 95.7954 43.3889 94.7305C43.3889 93.6656 42.5247 92.8024 41.4586 92.8024C40.3926 92.8024 39.5284 93.6656 39.5284 94.7305C39.5284 95.7954 40.3926 96.6587 41.4586 96.6587Z" fill="#AFAFAF"/>
<path d="M61.1809 96.6587C62.2469 96.6587 63.1111 95.7954 63.1111 94.7305C63.1111 93.6656 62.2469 92.8024 61.1809 92.8024C60.1148 92.8024 59.2506 93.6656 59.2506 94.7305C59.2506 95.7954 60.1148 96.6587 61.1809 96.6587Z" fill="#AFAFAF"/>
<path d="M1.93026 112C2.99631 112 3.86052 111.137 3.86052 110.072C3.86052 109.007 2.99631 108.144 1.93026 108.144C0.864207 108.144 0 109.007 0 110.072C0 111.137 0.864207 112 1.93026 112Z" fill="#AFAFAF"/>
<path d="M21.7364 112C22.8025 112 23.6667 111.137 23.6667 110.072C23.6667 109.007 22.8025 108.144 21.7364 108.144C20.6704 108.144 19.8061 109.007 19.8061 110.072C19.8061 111.137 20.6704 112 21.7364 112Z" fill="#AFAFAF"/>
<path d="M41.4586 112C42.5247 112 43.3889 111.137 43.3889 110.072C43.3889 109.007 42.5247 108.144 41.4586 108.144C40.3926 108.144 39.5284 109.007 39.5284 110.072C39.5284 111.137 40.3926 112 41.4586 112Z" fill="#AFAFAF"/>
<path d="M61.1809 112C62.2469 112 63.1111 111.137 63.1111 110.072C63.1111 109.007 62.2469 108.144 61.1809 108.144C60.1148 108.144 59.2506 109.007 59.2506 110.072C59.2506 111.137 60.1148 112 61.1809 112Z" fill="#AFAFAF"/>
<path d="M80.8192 65.8922C81.8852 65.8922 82.7494 65.029 82.7494 63.9641C82.7494 62.8992 81.8852 62.0359 80.8192 62.0359C79.7531 62.0359 78.8889 62.8992 78.8889 63.9641C78.8889 65.029 79.7531 65.8922 80.8192 65.8922Z" fill="#AFAFAF"/>
<path d="M100.625 65.8922C101.691 65.8922 102.556 65.029 102.556 63.9641C102.556 62.8992 101.691 62.0359 100.625 62.0359C99.5592 62.0359 98.695 62.8992 98.695 63.9641C98.695 65.029 99.5592 65.8922 100.625 65.8922Z" fill="#AFAFAF"/>
<path d="M120.348 65.8922C121.414 65.8922 122.278 65.029 122.278 63.9641C122.278 62.8992 121.414 62.0359 120.348 62.0359C119.281 62.0359 118.417 62.8992 118.417 63.9641C118.417 65.029 119.281 65.8922 120.348 65.8922Z" fill="#AFAFAF"/>
<path d="M140.07 65.8922C141.136 65.8922 142 65.029 142 63.9641C142 62.8992 141.136 62.0359 140.07 62.0359C139.004 62.0359 138.139 62.8992 138.139 63.9641C138.139 65.029 139.004 65.8922 140.07 65.8922Z" fill="#AFAFAF"/>
<path d="M80.8192 81.2335C81.8852 81.2335 82.7494 80.3703 82.7494 79.3054C82.7494 78.2405 81.8852 77.3772 80.8192 77.3772C79.7531 77.3772 78.8889 78.2405 78.8889 79.3054C78.8889 80.3703 79.7531 81.2335 80.8192 81.2335Z" fill="#AFAFAF"/>
<path d="M100.625 81.2335C101.691 81.2335 102.556 80.3703 102.556 79.3054C102.556 78.2405 101.691 77.3772 100.625 77.3772C99.5592 77.3772 98.695 78.2405 98.695 79.3054C98.695 80.3703 99.5592 81.2335 100.625 81.2335Z" fill="#AFAFAF"/>
<path d="M120.348 81.2335C121.414 81.2335 122.278 80.3703 122.278 79.3054C122.278 78.2405 121.414 77.3772 120.348 77.3772C119.281 77.3772 118.417 78.2405 118.417 79.3054C118.417 80.3703 119.281 81.2335 120.348 81.2335Z" fill="#AFAFAF"/>
<path d="M140.07 81.2335C141.136 81.2335 142 80.3703 142 79.3054C142 78.2405 141.136 77.3772 140.07 77.3772C139.004 77.3772 138.139 78.2405 138.139 79.3054C138.139 80.3703 139.004 81.2335 140.07 81.2335Z" fill="#AFAFAF"/>
<path d="M80.8192 96.6587C81.8852 96.6587 82.7494 95.7954 82.7494 94.7305C82.7494 93.6656 81.8852 92.8024 80.8192 92.8024C79.7531 92.8024 78.8889 93.6656 78.8889 94.7305C78.8889 95.7954 79.7531 96.6587 80.8192 96.6587Z" fill="#AFAFAF"/>
<path d="M100.625 96.6587C101.691 96.6587 102.556 95.7954 102.556 94.7305C102.556 93.6656 101.691 92.8024 100.625 92.8024C99.5592 92.8024 98.695 93.6656 98.695 94.7305C98.695 95.7954 99.5592 96.6587 100.625 96.6587Z" fill="#AFAFAF"/>
<path d="M120.348 96.6587C121.414 96.6587 122.278 95.7954 122.278 94.7305C122.278 93.6656 121.414 92.8024 120.348 92.8024C119.281 92.8024 118.417 93.6656 118.417 94.7305C118.417 95.7954 119.281 96.6587 120.348 96.6587Z" fill="#AFAFAF"/>
<path d="M140.07 96.6587C141.136 96.6587 142 95.7954 142 94.7305C142 93.6656 141.136 92.8024 140.07 92.8024C139.004 92.8024 138.139 93.6656 138.139 94.7305C138.139 95.7954 139.004 96.6587 140.07 96.6587Z" fill="#AFAFAF"/>
<path d="M80.8192 112C81.8852 112 82.7494 111.137 82.7494 110.072C82.7494 109.007 81.8852 108.144 80.8192 108.144C79.7531 108.144 78.8889 109.007 78.8889 110.072C78.8889 111.137 79.7531 112 80.8192 112Z" fill="#AFAFAF"/>
<path d="M100.625 112C101.691 112 102.556 111.137 102.556 110.072C102.556 109.007 101.691 108.144 100.625 108.144C99.5592 108.144 98.695 109.007 98.695 110.072C98.695 111.137 99.5592 112 100.625 112Z" fill="#AFAFAF"/>
<path d="M120.348 112C121.414 112 122.278 111.137 122.278 110.072C122.278 109.007 121.414 108.144 120.348 108.144C119.281 108.144 118.417 109.007 118.417 110.072C118.417 111.137 119.281 112 120.348 112Z" fill="#AFAFAF"/>
<path d="M140.07 112C141.136 112 142 111.137 142 110.072C142 109.007 141.136 108.144 140.07 108.144C139.004 108.144 138.139 109.007 138.139 110.072C138.139 111.137 139.004 112 140.07 112Z" fill="#AFAFAF"/>
</svg>
