<svg width="306" height="247" viewBox="0 0 306 247" fill="none" xmlns="http://www.w3.org/2000/svg">
<path d="M39.7142 160.06C16.5149 141.932 7.23041 117.313 3.88041 94.6541C-0.922324 62.1412 5.3375 28.6103 33.8755 9.01428C39.2804 5.30731 45.8333 2.05687 53.9305 2.14979C66.5637 2.2967 78.7584 10.3542 87.9916 18.4167C111 38.4973 126.582 62.08 140.386 85.4965C153.246 107.305 164.885 129.317 175.302 151.532C183.447 168.861 190.882 186.668 191.265 203.849C191.316 206.307 191.059 209.009 188.592 210.261C186.942 211.006 184.825 211.173 182.678 210.728C173.704 209.105 168.054 201.315 165.052 194.67C150.043 161.185 157.957 127.711 174.246 99.5864C179.484 90.5569 186.343 81.3817 199.018 78.2409C216.038 74.0056 238.539 82.6074 252.382 94.8743C266.225 107.141 273.182 122.192 278.865 136.746C293.157 173.47 301.731 210.41 304.402 246.768" stroke="#D7D7DF" stroke-width="3" stroke-miterlimit="10"/>
</svg>
