<svg width="142" height="112" viewBox="0 0 142 112" fill="none" xmlns="http://www.w3.org/2000/svg">
<path d="M1.93026 3.85616C2.99631 3.85616 3.86052 2.99291 3.86052 1.92802C3.86052 0.863137 2.99631 -0.00012207 1.93026 -0.00012207C0.864207 -0.00012207 0 0.863137 0 1.92802C0 2.99291 0.864207 3.85616 1.93026 3.85616Z" fill="#AFAFAF"/>
<path d="M21.7364 3.85616C22.8025 3.85616 23.6667 2.99291 23.6667 1.92802C23.6667 0.863137 22.8025 -0.00012207 21.7364 -0.00012207C20.6704 -0.00012207 19.8061 0.863137 19.8061 1.92802C19.8061 2.99291 20.6704 3.85616 21.7364 3.85616Z" fill="#AFAFAF"/>
<path d="M41.4586 3.85616C42.5247 3.85616 43.3889 2.99291 43.3889 1.92802C43.3889 0.863137 42.5247 -0.00012207 41.4586 -0.00012207C40.3926 -0.00012207 39.5284 0.863137 39.5284 1.92802C39.5284 2.99291 40.3926 3.85616 41.4586 3.85616Z" fill="#AFAFAF"/>
<path d="M61.1809 3.85616C62.2469 3.85616 63.1111 2.99291 63.1111 1.92802C63.1111 0.863137 62.2469 -0.00012207 61.1809 -0.00012207C60.1148 -0.00012207 59.2506 0.863137 59.2506 1.92802C59.2506 2.99291 60.1148 3.85616 61.1809 3.85616Z" fill="#AFAFAF"/>
<path d="M1.93026 19.1975C2.99631 19.1975 3.86052 18.3342 3.86052 17.2693C3.86052 16.2045 2.99631 15.3412 1.93026 15.3412C0.864207 15.3412 0 16.2045 0 17.2693C0 18.3342 0.864207 19.1975 1.93026 19.1975Z" fill="#AFAFAF"/>
<path d="M21.7364 19.1975C22.8025 19.1975 23.6667 18.3342 23.6667 17.2693C23.6667 16.2045 22.8025 15.3412 21.7364 15.3412C20.6704 15.3412 19.8061 16.2045 19.8061 17.2693C19.8061 18.3342 20.6704 19.1975 21.7364 19.1975Z" fill="#AFAFAF"/>
<path d="M41.4586 19.1975C42.5247 19.1975 43.3889 18.3342 43.3889 17.2693C43.3889 16.2045 42.5247 15.3412 41.4586 15.3412C40.3926 15.3412 39.5284 16.2045 39.5284 17.2693C39.5284 18.3342 40.3926 19.1975 41.4586 19.1975Z" fill="#AFAFAF"/>
<path d="M61.1809 19.1975C62.2469 19.1975 63.1111 18.3342 63.1111 17.2693C63.1111 16.2045 62.2469 15.3412 61.1809 15.3412C60.1148 15.3412 59.2506 16.2045 59.2506 17.2693C59.2506 18.3342 60.1148 19.1975 61.1809 19.1975Z" fill="#AFAFAF"/>
<path d="M1.93026 34.6226C2.99631 34.6226 3.86052 33.7594 3.86052 32.6945C3.86052 31.6296 2.99631 30.7663 1.93026 30.7663C0.864207 30.7663 0 31.6296 0 32.6945C0 33.7594 0.864207 34.6226 1.93026 34.6226Z" fill="#AFAFAF"/>
<path d="M21.7364 34.6226C22.8025 34.6226 23.6667 33.7594 23.6667 32.6945C23.6667 31.6296 22.8025 30.7663 21.7364 30.7663C20.6704 30.7663 19.8061 31.6296 19.8061 32.6945C19.8061 33.7594 20.6704 34.6226 21.7364 34.6226Z" fill="#AFAFAF"/>
<path d="M41.4586 34.6226C42.5247 34.6226 43.3889 33.7594 43.3889 32.6945C43.3889 31.6296 42.5247 30.7663 41.4586 30.7663C40.3926 30.7663 39.5284 31.6296 39.5284 32.6945C39.5284 33.7594 40.3926 34.6226 41.4586 34.6226Z" fill="#AFAFAF"/>
<path d="M61.1809 34.6226C62.2469 34.6226 63.1111 33.7594 63.1111 32.6945C63.1111 31.6296 62.2469 30.7663 61.1809 30.7663C60.1148 30.7663 59.2506 31.6296 59.2506 32.6945C59.2506 33.7594 60.1148 34.6226 61.1809 34.6226Z" fill="#AFAFAF"/>
<path d="M1.93026 49.9639C2.99631 49.9639 3.86052 49.1007 3.86052 48.0358C3.86052 46.9709 2.99631 46.1077 1.93026 46.1077C0.864207 46.1077 0 46.9709 0 48.0358C0 49.1007 0.864207 49.9639 1.93026 49.9639Z" fill="#AFAFAF"/>
<path d="M21.7364 49.9639C22.8025 49.9639 23.6667 49.1007 23.6667 48.0358C23.6667 46.9709 22.8025 46.1077 21.7364 46.1077C20.6704 46.1077 19.8061 46.9709 19.8061 48.0358C19.8061 49.1007 20.6704 49.9639 21.7364 49.9639Z" fill="#AFAFAF"/>
<path d="M41.4586 49.9639C42.5247 49.9639 43.3889 49.1007 43.3889 48.0358C43.3889 46.9709 42.5247 46.1077 41.4586 46.1077C40.3926 46.1077 39.5284 46.9709 39.5284 48.0358C39.5284 49.1007 40.3926 49.9639 41.4586 49.9639Z" fill="#AFAFAF"/>
<path d="M61.1809 49.9639C62.2469 49.9639 63.1111 49.1007 63.1111 48.0358C63.1111 46.9709 62.2469 46.1077 61.1809 46.1077C60.1148 46.1077 59.2506 46.9709 59.2506 48.0358C59.2506 49.1007 60.1148 49.9639 61.1809 49.9639Z" fill="#AFAFAF"/>
<path d="M80.8192 3.85616C81.8852 3.85616 82.7494 2.99291 82.7494 1.92802C82.7494 0.863137 81.8852 -0.00012207 80.8192 -0.00012207C79.7531 -0.00012207 78.8889 0.863137 78.8889 1.92802C78.8889 2.99291 79.7531 3.85616 80.8192 3.85616Z" fill="#AFAFAF"/>
<path d="M100.625 3.85616C101.691 3.85616 102.556 2.99291 102.556 1.92802C102.556 0.863137 101.691 -0.00012207 100.625 -0.00012207C99.5592 -0.00012207 98.695 0.863137 98.695 1.92802C98.695 2.99291 99.5592 3.85616 100.625 3.85616Z" fill="#AFAFAF"/>
<path d="M120.348 3.85616C121.414 3.85616 122.278 2.99291 122.278 1.92802C122.278 0.863137 121.414 -0.00012207 120.348 -0.00012207C119.281 -0.00012207 118.417 0.863137 118.417 1.92802C118.417 2.99291 119.281 3.85616 120.348 3.85616Z" fill="#AFAFAF"/>
<path d="M140.07 3.85616C141.136 3.85616 142 2.99291 142 1.92802C142 0.863137 141.136 -0.00012207 140.07 -0.00012207C139.004 -0.00012207 138.139 0.863137 138.139 1.92802C138.139 2.99291 139.004 3.85616 140.07 3.85616Z" fill="#AFAFAF"/>
<path d="M80.8192 19.1975C81.8852 19.1975 82.7494 18.3342 82.7494 17.2693C82.7494 16.2045 81.8852 15.3412 80.8192 15.3412C79.7531 15.3412 78.8889 16.2045 78.8889 17.2693C78.8889 18.3342 79.7531 19.1975 80.8192 19.1975Z" fill="#AFAFAF"/>
<path d="M100.625 19.1975C101.691 19.1975 102.556 18.3342 102.556 17.2693C102.556 16.2045 101.691 15.3412 100.625 15.3412C99.5592 15.3412 98.695 16.2045 98.695 17.2693C98.695 18.3342 99.5592 19.1975 100.625 19.1975Z" fill="#AFAFAF"/>
<path d="M120.348 19.1975C121.414 19.1975 122.278 18.3342 122.278 17.2693C122.278 16.2045 121.414 15.3412 120.348 15.3412C119.281 15.3412 118.417 16.2045 118.417 17.2693C118.417 18.3342 119.281 19.1975 120.348 19.1975Z" fill="#AFAFAF"/>
<path d="M140.07 19.1975C141.136 19.1975 142 18.3342 142 17.2693C142 16.2045 141.136 15.3412 140.07 15.3412C139.004 15.3412 138.139 16.2045 138.139 17.2693C138.139 18.3342 139.004 19.1975 140.07 19.1975Z" fill="#AFAFAF"/>
<path d="M80.8192 34.6226C81.8852 34.6226 82.7494 33.7594 82.7494 32.6945C82.7494 31.6296 81.8852 30.7663 80.8192 30.7663C79.7531 30.7663 78.8889 31.6296 78.8889 32.6945C78.8889 33.7594 79.7531 34.6226 80.8192 34.6226Z" fill="#AFAFAF"/>
<path d="M100.625 34.6226C101.691 34.6226 102.556 33.7594 102.556 32.6945C102.556 31.6296 101.691 30.7663 100.625 30.7663C99.5592 30.7663 98.695 31.6296 98.695 32.6945C98.695 33.7594 99.5592 34.6226 100.625 34.6226Z" fill="#AFAFAF"/>
<path d="M120.348 34.6226C121.414 34.6226 122.278 33.7594 122.278 32.6945C122.278 31.6296 121.414 30.7663 120.348 30.7663C119.281 30.7663 118.417 31.6296 118.417 32.6945C118.417 33.7594 119.281 34.6226 120.348 34.6226Z" fill="#AFAFAF"/>
<path d="M140.07 34.6226C141.136 34.6226 142 33.7594 142 32.6945C142 31.6296 141.136 30.7663 140.07 30.7663C139.004 30.7663 138.139 31.6296 138.139 32.6945C138.139 33.7594 139.004 34.6226 140.07 34.6226Z" fill="#AFAFAF"/>
<path d="M80.8192 49.9639C81.8852 49.9639 82.7494 49.1007 82.7494 48.0358C82.7494 46.9709 81.8852 46.1077 80.8192 46.1077C79.7531 46.1077 78.8889 46.9709 78.8889 48.0358C78.8889 49.1007 79.7531 49.9639 80.8192 49.9639Z" fill="#AFAFAF"/>
<path d="M100.625 49.9639C101.691 49.9639 102.556 49.1007 102.556 48.0358C102.556 46.9709 101.691 46.1077 100.625 46.1077C99.5592 46.1077 98.695 46.9709 98.695 48.0358C98.695 49.1007 99.5592 49.9639 100.625 49.9639Z" fill="#AFAFAF"/>
<path d="M120.348 49.9639C121.414 49.9639 122.278 49.1007 122.278 48.0358C122.278 46.9709 121.414 46.1077 120.348 46.1077C119.281 46.1077 118.417 46.9709 118.417 48.0358C118.417 49.1007 119.281 49.9639 120.348 49.9639Z" fill="#AFAFAF"/>
<path d="M140.07 49.9639C141.136 49.9639 142 49.1007 142 48.0358C142 46.9709 141.136 46.1077 140.07 46.1077C139.004 46.1077 138.139 46.9709 138.139 48.0358C138.139 49.1007 139.004 49.9639 140.07 49.9639Z" fill="#AFAFAF"/>
<path d="M1.93026 65.8921C2.99631 65.8921 3.86052 65.0288 3.86052 63.9639C3.86052 62.8991 2.99631 62.0358 1.93026 62.0358C0.864207 62.0358 0 62.8991 0 63.9639C0 65.0288 0.864207 65.8921 1.93026 65.8921Z" fill="#AFAFAF"/>
<path d="M21.7364 65.8921C22.8025 65.8921 23.6667 65.0288 23.6667 63.9639C23.6667 62.8991 22.8025 62.0358 21.7364 62.0358C20.6704 62.0358 19.8061 62.8991 19.8061 63.9639C19.8061 65.0288 20.6704 65.8921 21.7364 65.8921Z" fill="#AFAFAF"/>
<path d="M41.4586 65.8921C42.5247 65.8921 43.3889 65.0288 43.3889 63.9639C43.3889 62.8991 42.5247 62.0358 41.4586 62.0358C40.3926 62.0358 39.5284 62.8991 39.5284 63.9639C39.5284 65.0288 40.3926 65.8921 41.4586 65.8921Z" fill="#AFAFAF"/>
<path d="M61.1809 65.8921C62.2469 65.8921 63.1111 65.0288 63.1111 63.9639C63.1111 62.8991 62.2469 62.0358 61.1809 62.0358C60.1148 62.0358 59.2506 62.8991 59.2506 63.9639C59.2506 65.0288 60.1148 65.8921 61.1809 65.8921Z" fill="#AFAFAF"/>
<path d="M1.93026 81.2334C2.99631 81.2334 3.86052 80.3701 3.86052 79.3053C3.86052 78.2404 2.99631 77.3771 1.93026 77.3771C0.864207 77.3771 0 78.2404 0 79.3053C0 80.3701 0.864207 81.2334 1.93026 81.2334Z" fill="#AFAFAF"/>
<path d="M21.7364 81.2334C22.8025 81.2334 23.6667 80.3701 23.6667 79.3053C23.6667 78.2404 22.8025 77.3771 21.7364 77.3771C20.6704 77.3771 19.8061 78.2404 19.8061 79.3053C19.8061 80.3701 20.6704 81.2334 21.7364 81.2334Z" fill="#AFAFAF"/>
<path d="M41.4586 81.2334C42.5247 81.2334 43.3889 80.3701 43.3889 79.3053C43.3889 78.2404 42.5247 77.3771 41.4586 77.3771C40.3926 77.3771 39.5284 78.2404 39.5284 79.3053C39.5284 80.3701 40.3926 81.2334 41.4586 81.2334Z" fill="#AFAFAF"/>
<path d="M61.1809 81.2334C62.2469 81.2334 63.1111 80.3701 63.1111 79.3053C63.1111 78.2404 62.2469 77.3771 61.1809 77.3771C60.1148 77.3771 59.2506 78.2404 59.2506 79.3053C59.2506 80.3701 60.1148 81.2334 61.1809 81.2334Z" fill="#AFAFAF"/>
<path d="M1.93026 96.6586C2.99631 96.6586 3.86052 95.7953 3.86052 94.7304C3.86052 93.6655 2.99631 92.8023 1.93026 92.8023C0.864207 92.8023 0 93.6655 0 94.7304C0 95.7953 0.864207 96.6586 1.93026 96.6586Z" fill="#AFAFAF"/>
<path d="M21.7364 96.6586C22.8025 96.6586 23.6667 95.7953 23.6667 94.7304C23.6667 93.6655 22.8025 92.8023 21.7364 92.8023C20.6704 92.8023 19.8061 93.6655 19.8061 94.7304C19.8061 95.7953 20.6704 96.6586 21.7364 96.6586Z" fill="#AFAFAF"/>
<path d="M41.4586 96.6586C42.5247 96.6586 43.3889 95.7953 43.3889 94.7304C43.3889 93.6655 42.5247 92.8023 41.4586 92.8023C40.3926 92.8023 39.5284 93.6655 39.5284 94.7304C39.5284 95.7953 40.3926 96.6586 41.4586 96.6586Z" fill="#AFAFAF"/>
<path d="M61.1809 96.6586C62.2469 96.6586 63.1111 95.7953 63.1111 94.7304C63.1111 93.6655 62.2469 92.8023 61.1809 92.8023C60.1148 92.8023 59.2506 93.6655 59.2506 94.7304C59.2506 95.7953 60.1148 96.6586 61.1809 96.6586Z" fill="#AFAFAF"/>
<path d="M1.93026 112C2.99631 112 3.86052 111.137 3.86052 110.072C3.86052 109.007 2.99631 108.144 1.93026 108.144C0.864207 108.144 0 109.007 0 110.072C0 111.137 0.864207 112 1.93026 112Z" fill="#AFAFAF"/>
<path d="M21.7364 112C22.8025 112 23.6667 111.137 23.6667 110.072C23.6667 109.007 22.8025 108.144 21.7364 108.144C20.6704 108.144 19.8061 109.007 19.8061 110.072C19.8061 111.137 20.6704 112 21.7364 112Z" fill="#AFAFAF"/>
<path d="M41.4586 112C42.5247 112 43.3889 111.137 43.3889 110.072C43.3889 109.007 42.5247 108.144 41.4586 108.144C40.3926 108.144 39.5284 109.007 39.5284 110.072C39.5284 111.137 40.3926 112 41.4586 112Z" fill="#AFAFAF"/>
<path d="M61.1809 112C62.2469 112 63.1111 111.137 63.1111 110.072C63.1111 109.007 62.2469 108.144 61.1809 108.144C60.1148 108.144 59.2506 109.007 59.2506 110.072C59.2506 111.137 60.1148 112 61.1809 112Z" fill="#AFAFAF"/>
<path d="M80.8192 65.8921C81.8852 65.8921 82.7494 65.0288 82.7494 63.9639C82.7494 62.8991 81.8852 62.0358 80.8192 62.0358C79.7531 62.0358 78.8889 62.8991 78.8889 63.9639C78.8889 65.0288 79.7531 65.8921 80.8192 65.8921Z" fill="#AFAFAF"/>
<path d="M100.625 65.8921C101.691 65.8921 102.556 65.0288 102.556 63.9639C102.556 62.8991 101.691 62.0358 100.625 62.0358C99.5592 62.0358 98.695 62.8991 98.695 63.9639C98.695 65.0288 99.5592 65.8921 100.625 65.8921Z" fill="#AFAFAF"/>
<path d="M120.348 65.8921C121.414 65.8921 122.278 65.0288 122.278 63.9639C122.278 62.8991 121.414 62.0358 120.348 62.0358C119.281 62.0358 118.417 62.8991 118.417 63.9639C118.417 65.0288 119.281 65.8921 120.348 65.8921Z" fill="#AFAFAF"/>
<path d="M140.07 65.8921C141.136 65.8921 142 65.0288 142 63.9639C142 62.8991 141.136 62.0358 140.07 62.0358C139.004 62.0358 138.139 62.8991 138.139 63.9639C138.139 65.0288 139.004 65.8921 140.07 65.8921Z" fill="#AFAFAF"/>
<path d="M80.8192 81.2334C81.8852 81.2334 82.7494 80.3701 82.7494 79.3053C82.7494 78.2404 81.8852 77.3771 80.8192 77.3771C79.7531 77.3771 78.8889 78.2404 78.8889 79.3053C78.8889 80.3701 79.7531 81.2334 80.8192 81.2334Z" fill="#AFAFAF"/>
<path d="M100.625 81.2334C101.691 81.2334 102.556 80.3701 102.556 79.3053C102.556 78.2404 101.691 77.3771 100.625 77.3771C99.5592 77.3771 98.695 78.2404 98.695 79.3053C98.695 80.3701 99.5592 81.2334 100.625 81.2334Z" fill="#AFAFAF"/>
<path d="M120.348 81.2334C121.414 81.2334 122.278 80.3701 122.278 79.3053C122.278 78.2404 121.414 77.3771 120.348 77.3771C119.281 77.3771 118.417 78.2404 118.417 79.3053C118.417 80.3701 119.281 81.2334 120.348 81.2334Z" fill="#AFAFAF"/>
<path d="M140.07 81.2334C141.136 81.2334 142 80.3701 142 79.3053C142 78.2404 141.136 77.3771 140.07 77.3771C139.004 77.3771 138.139 78.2404 138.139 79.3053C138.139 80.3701 139.004 81.2334 140.07 81.2334Z" fill="#AFAFAF"/>
<path d="M80.8192 96.6586C81.8852 96.6586 82.7494 95.7953 82.7494 94.7304C82.7494 93.6655 81.8852 92.8023 80.8192 92.8023C79.7531 92.8023 78.8889 93.6655 78.8889 94.7304C78.8889 95.7953 79.7531 96.6586 80.8192 96.6586Z" fill="#AFAFAF"/>
<path d="M100.625 96.6586C101.691 96.6586 102.556 95.7953 102.556 94.7304C102.556 93.6655 101.691 92.8023 100.625 92.8023C99.5592 92.8023 98.695 93.6655 98.695 94.7304C98.695 95.7953 99.5592 96.6586 100.625 96.6586Z" fill="#AFAFAF"/>
<path d="M120.348 96.6586C121.414 96.6586 122.278 95.7953 122.278 94.7304C122.278 93.6655 121.414 92.8023 120.348 92.8023C119.281 92.8023 118.417 93.6655 118.417 94.7304C118.417 95.7953 119.281 96.6586 120.348 96.6586Z" fill="#AFAFAF"/>
<path d="M140.07 96.6586C141.136 96.6586 142 95.7953 142 94.7304C142 93.6655 141.136 92.8023 140.07 92.8023C139.004 92.8023 138.139 93.6655 138.139 94.7304C138.139 95.7953 139.004 96.6586 140.07 96.6586Z" fill="#AFAFAF"/>
<path d="M80.8192 112C81.8852 112 82.7494 111.137 82.7494 110.072C82.7494 109.007 81.8852 108.144 80.8192 108.144C79.7531 108.144 78.8889 109.007 78.8889 110.072C78.8889 111.137 79.7531 112 80.8192 112Z" fill="#AFAFAF"/>
<path d="M100.625 112C101.691 112 102.556 111.137 102.556 110.072C102.556 109.007 101.691 108.144 100.625 108.144C99.5592 108.144 98.695 109.007 98.695 110.072C98.695 111.137 99.5592 112 100.625 112Z" fill="#AFAFAF"/>
<path d="M120.348 112C121.414 112 122.278 111.137 122.278 110.072C122.278 109.007 121.414 108.144 120.348 108.144C119.281 108.144 118.417 109.007 118.417 110.072C118.417 111.137 119.281 112 120.348 112Z" fill="#AFAFAF"/>
<path d="M140.07 112C141.136 112 142 111.137 142 110.072C142 109.007 141.136 108.144 140.07 108.144C139.004 108.144 138.139 109.007 138.139 110.072C138.139 111.137 139.004 112 140.07 112Z" fill="#AFAFAF"/>
</svg>
