<svg width="153" height="151" viewBox="0 0 153 151" fill="none" xmlns="http://www.w3.org/2000/svg">
<g clip-path="url(#clip0_17_7314)">
<mask id="mask0_17_7314" style="mask-type:luminance" maskUnits="userSpaceOnUse" x="0" y="0" width="151" height="151">
<path d="M75.5634 150.089C116.817 150.089 150.26 116.646 150.26 75.3927C150.26 34.1391 116.817 0.696411 75.5634 0.696411C34.3098 0.696411 0.867188 34.1391 0.867188 75.3927C0.867188 116.646 34.3098 150.089 75.5634 150.089Z" fill="white"/>
</mask>
<g mask="url(#mask0_17_7314)">
<path d="M70.2441 -44.1511L213.496 99.1004" stroke="#DCDCE1" stroke-width="3.72179" stroke-miterlimit="10"/>
<path d="M62.6506 -36.5215L205.865 106.73" stroke="#DCDCE1" stroke-width="3.72179" stroke-miterlimit="10"/>
<path d="M55.0215 -28.8918L198.273 114.322" stroke="#DCDCE1" stroke-width="3.72179" stroke-miterlimit="10"/>
<path d="M47.3906 -21.2993L190.642 121.952" stroke="#DCDCE1" stroke-width="3.72179" stroke-miterlimit="10"/>
<path d="M39.7986 -13.6697L183.013 129.582" stroke="#DCDCE1" stroke-width="3.72179" stroke-miterlimit="10"/>
<path d="M32.1699 -6.04004L175.421 137.174" stroke="#DCDCE1" stroke-width="3.72179" stroke-miterlimit="10"/>
<path d="M24.5391 1.55237L167.791 144.804" stroke="#DCDCE1" stroke-width="3.72179" stroke-miterlimit="10"/>
<path d="M16.9473 9.18207L160.162 152.434" stroke="#DCDCE1" stroke-width="3.72179" stroke-miterlimit="10"/>
<path d="M9.31836 16.8117L152.57 160.026" stroke="#DCDCE1" stroke-width="3.72179" stroke-miterlimit="10"/>
<path d="M1.6875 24.4042L144.939 167.656" stroke="#DCDCE1" stroke-width="3.72179" stroke-miterlimit="10"/>
<path d="M-5.9043 32.0338L137.31 175.285" stroke="#DCDCE1" stroke-width="3.72179" stroke-miterlimit="10"/>
<path d="M-13.5332 39.6635L129.718 182.878" stroke="#DCDCE1" stroke-width="3.72179" stroke-miterlimit="10"/>
<path d="M-21.1641 47.2559L122.087 190.507" stroke="#DCDCE1" stroke-width="3.72179" stroke-miterlimit="10"/>
<path d="M-28.7559 54.8856L114.458 198.137" stroke="#DCDCE1" stroke-width="3.72179" stroke-miterlimit="10"/>
<path d="M-36.3865 62.5153L106.865 205.73" stroke="#DCDCE1" stroke-width="3.72179" stroke-miterlimit="10"/>
<path d="M-44.0156 70.1077L99.2359 213.359" stroke="#DCDCE1" stroke-width="3.72179" stroke-miterlimit="10"/>
</g>
</g>
<defs>
<clipPath id="clip0_17_7314">
<rect x="0.632812" y="0.5" width="151.734" height="150" fill="white"/>
</clipPath>
</defs>
</svg>
