<svg width="106" height="47" viewBox="0 0 106 47" fill="none" xmlns="http://www.w3.org/2000/svg">
<path d="M106 45C100.688 45 100.688 36.9564 95.4 36.9564C90.0885 36.9564 90.0885 45 84.8 45C79.4885 45 79.4884 36.9563 74.2 36.9563C68.8885 36.9563 68.8885 45 63.6 45C58.2885 45 58.2885 36.9563 53 36.9563C47.6885 36.9563 47.6885 45 42.4 45C37.0885 45 37.0885 36.9563 31.8 36.9563C26.4885 36.9563 26.4884 45 21.2 45C15.8884 45 15.8885 36.9563 10.6 36.9563C5.31155 36.9563 5.28845 45 0 45M106 27.5051C100.688 27.5051 100.688 19.4614 95.4 19.4614C90.0885 19.4614 90.0885 27.5051 84.8 27.5051C79.4885 27.5051 79.4884 19.4614 74.2 19.4614C68.8885 19.4614 68.8885 27.5051 63.6 27.5051C58.2885 27.5051 58.2885 19.4614 53 19.4614C47.6885 19.4614 47.6885 27.5051 42.4 27.5051C37.0885 27.5051 37.0885 19.4614 31.8 19.4614C26.4885 19.4614 26.4884 27.5051 21.2 27.5051C15.8884 27.5051 15.8885 19.4614 10.6 19.4614C5.31155 19.4614 5.28845 27.5051 0 27.5051M106 10.0437C100.688 10.0437 100.688 2.00001 95.4 2.00001C90.0885 2.00001 90.0885 10.0437 84.8 10.0437C79.4885 10.0437 79.4884 2 74.2 2C68.8885 2 68.8885 10.0436 63.6 10.0436C58.2885 10.0436 58.2885 2 53 2C47.6885 2 47.6885 10.0436 42.4 10.0436C37.0885 10.0436 37.0885 2 31.8 2C26.4885 2 26.4884 10.0436 21.2 10.0436C15.8884 10.0436 15.8885 2 10.6 2C5.31155 2 5.28845 10.0436 0 10.0436" stroke="#FFC224" stroke-width="3" stroke-miterlimit="10"/>
</svg>
