<svg width="83" height="81" viewBox="0 0 83 81" fill="none" xmlns="http://www.w3.org/2000/svg">
<path d="M2.42189 4.79771C3.48441 4.79771 4.34574 3.93637 4.34574 2.87386C4.34574 1.81135 3.48441 0.950012 2.42189 0.950012C1.35938 0.950012 0.498047 1.81135 0.498047 2.87386C0.498047 3.93637 1.35938 4.79771 2.42189 4.79771Z" fill="#6D6C80"/>
<path d="M21.1794 4.79771C22.2419 4.79771 23.1033 3.93637 23.1033 2.87386C23.1033 1.81135 22.2419 0.950012 21.1794 0.950012C20.1169 0.950012 19.2556 1.81135 19.2556 2.87386C19.2556 3.93637 20.1169 4.79771 21.1794 4.79771Z" fill="#6D6C80"/>
<path d="M41.3798 4.79771C42.4423 4.79771 43.3037 3.93637 43.3037 2.87386C43.3037 1.81135 42.4423 0.950012 41.3798 0.950012C40.3173 0.950012 39.456 1.81135 39.456 2.87386C39.456 3.93637 40.3173 4.79771 41.3798 4.79771Z" fill="#6D6C80"/>
<path d="M61.7405 4.79771C62.803 4.79771 63.6644 3.93637 63.6644 2.87386C63.6644 1.81135 62.803 0.950012 61.7405 0.950012C60.678 0.950012 59.8167 1.81135 59.8167 2.87386C59.8167 3.93637 60.678 4.79771 61.7405 4.79771Z" fill="#6D6C80"/>
<path d="M2.42189 23.8759C3.48441 23.8759 4.34574 23.0145 4.34574 21.952C4.34574 20.8895 3.48441 20.0282 2.42189 20.0282C1.35938 20.0282 0.498047 20.8895 0.498047 21.952C0.498047 23.0145 1.35938 23.8759 2.42189 23.8759Z" fill="#6D6C80"/>
<path d="M21.1794 23.8759C22.2419 23.8759 23.1033 23.0145 23.1033 21.952C23.1033 20.8895 22.2419 20.0282 21.1794 20.0282C20.1169 20.0282 19.2556 20.8895 19.2556 21.952C19.2556 23.0145 20.1169 23.8759 21.1794 23.8759Z" fill="#6D6C80"/>
<path d="M41.3798 23.8759C42.4423 23.8759 43.3037 23.0145 43.3037 21.952C43.3037 20.8895 42.4423 20.0282 41.3798 20.0282C40.3173 20.0282 39.456 20.8895 39.456 21.952C39.456 23.0145 40.3173 23.8759 41.3798 23.8759Z" fill="#6D6C80"/>
<path d="M61.7405 23.8759C62.803 23.8759 63.6644 23.0145 63.6644 21.952C63.6644 20.8895 62.803 20.0282 61.7405 20.0282C60.678 20.0282 59.8167 20.8895 59.8167 21.952C59.8167 23.0145 60.678 23.8759 61.7405 23.8759Z" fill="#6D6C80"/>
<path d="M2.42189 42.954C3.48441 42.954 4.34574 42.0927 4.34574 41.0302C4.34574 39.9677 3.48441 39.1063 2.42189 39.1063C1.35938 39.1063 0.498047 39.9677 0.498047 41.0302C0.498047 42.0927 1.35938 42.954 2.42189 42.954Z" fill="#6D6C80"/>
<path d="M21.1794 42.954C22.2419 42.954 23.1033 42.0927 23.1033 41.0302C23.1033 39.9677 22.2419 39.1063 21.1794 39.1063C20.1169 39.1063 19.2556 39.9677 19.2556 41.0302C19.2556 42.0927 20.1169 42.954 21.1794 42.954Z" fill="#6D6C80"/>
<path d="M41.3798 42.954C42.4423 42.954 43.3037 42.0927 43.3037 41.0302C43.3037 39.9677 42.4423 39.1063 41.3798 39.1063C40.3173 39.1063 39.456 39.9677 39.456 41.0302C39.456 42.0927 40.3173 42.954 41.3798 42.954Z" fill="#6D6C80"/>
<path d="M61.7405 42.954C62.803 42.954 63.6644 42.0927 63.6644 41.0302C63.6644 39.9677 62.803 39.1063 61.7405 39.1063C60.678 39.1063 59.8167 39.9677 59.8167 41.0302C59.8167 42.0927 60.678 42.954 61.7405 42.954Z" fill="#6D6C80"/>
<path d="M2.42189 61.8719C3.48441 61.8719 4.34574 61.0105 4.34574 59.948C4.34574 58.8855 3.48441 58.0242 2.42189 58.0242C1.35938 58.0242 0.498047 58.8855 0.498047 59.948C0.498047 61.0105 1.35938 61.8719 2.42189 61.8719Z" fill="#6D6C80"/>
<path d="M21.1794 61.8719C22.2419 61.8719 23.1033 61.0105 23.1033 59.948C23.1033 58.8855 22.2419 58.0242 21.1794 58.0242C20.1169 58.0242 19.2556 58.8855 19.2556 59.948C19.2556 61.0105 20.1169 61.8719 21.1794 61.8719Z" fill="#6D6C80"/>
<path d="M41.3798 61.8719C42.4423 61.8719 43.3037 61.0105 43.3037 59.948C43.3037 58.8855 42.4423 58.0242 41.3798 58.0242C40.3173 58.0242 39.456 58.8855 39.456 59.948C39.456 61.0105 40.3173 61.8719 41.3798 61.8719Z" fill="#6D6C80"/>
<path d="M61.7405 61.8719C62.803 61.8719 63.6644 61.0105 63.6644 59.948C63.6644 58.8855 62.803 58.0242 61.7405 58.0242C60.678 58.0242 59.8167 58.8855 59.8167 59.948C59.8167 61.0105 60.678 61.8719 61.7405 61.8719Z" fill="#6D6C80"/>
<path d="M2.42189 80.95C3.48441 80.95 4.34574 80.0887 4.34574 79.0262C4.34574 77.9637 3.48441 77.1023 2.42189 77.1023C1.35938 77.1023 0.498047 77.9637 0.498047 79.0262C0.498047 80.0887 1.35938 80.95 2.42189 80.95Z" fill="#6D6C80"/>
<path d="M21.1794 80.95C22.2419 80.95 23.1033 80.0887 23.1033 79.0262C23.1033 77.9637 22.2419 77.1023 21.1794 77.1023C20.1169 77.1023 19.2556 77.9637 19.2556 79.0262C19.2556 80.0887 20.1169 80.95 21.1794 80.95Z" fill="#6D6C80"/>
<path d="M41.3798 80.95C42.4423 80.95 43.3037 80.0887 43.3037 79.0262C43.3037 77.9637 42.4423 77.1023 41.3798 77.1023C40.3173 77.1023 39.456 77.9637 39.456 79.0262C39.456 80.0887 40.3173 80.95 41.3798 80.95Z" fill="#6D6C80"/>
<path d="M61.7405 80.95C62.803 80.95 63.6644 80.0887 63.6644 79.0262C63.6644 77.9637 62.803 77.1023 61.7405 77.1023C60.678 77.1023 59.8167 77.9637 59.8167 79.0262C59.8167 80.0887 60.678 80.95 61.7405 80.95Z" fill="#6D6C80"/>
<path d="M80.979 4.79771C82.0415 4.79771 82.9029 3.93637 82.9029 2.87386C82.9029 1.81135 82.0415 0.950012 80.979 0.950012C79.9165 0.950012 79.0552 1.81135 79.0552 2.87386C79.0552 3.93637 79.9165 4.79771 80.979 4.79771Z" fill="#6D6C80"/>
<path d="M80.979 23.8759C82.0415 23.8759 82.9029 23.0145 82.9029 21.952C82.9029 20.8895 82.0415 20.0282 80.979 20.0282C79.9165 20.0282 79.0552 20.8895 79.0552 21.952C79.0552 23.0145 79.9165 23.8759 80.979 23.8759Z" fill="#6D6C80"/>
<path d="M80.979 42.954C82.0415 42.954 82.9029 42.0927 82.9029 41.0302C82.9029 39.9677 82.0415 39.1063 80.979 39.1063C79.9165 39.1063 79.0552 39.9677 79.0552 41.0302C79.0552 42.0927 79.9165 42.954 80.979 42.954Z" fill="#6D6C80"/>
<path d="M80.979 61.8719C82.0415 61.8719 82.9029 61.0105 82.9029 59.948C82.9029 58.8855 82.0415 58.0242 80.979 58.0242C79.9165 58.0242 79.0552 58.8855 79.0552 59.948C79.0552 61.0105 79.9165 61.8719 80.979 61.8719Z" fill="#6D6C80"/>
<path d="M80.979 80.95C82.0415 80.95 82.9029 80.0887 82.9029 79.0262C82.9029 77.9637 82.0415 77.1023 80.979 77.1023C79.9165 77.1023 79.0552 77.9637 79.0552 79.0262C79.0552 80.0887 79.9165 80.95 80.979 80.95Z" fill="#6D6C80"/>
</svg>
