<svg width="335" height="195" viewBox="0 0 335 195" fill="none" xmlns="http://www.w3.org/2000/svg">
<path d="M278.355 35.1566C304.587 48.5235 318.4 70.9185 326.012 92.5215C336.932 123.52 337.186 157.63 312.913 182.312C308.315 186.982 302.502 191.423 294.536 192.877C282.107 195.144 268.599 189.562 257.997 183.41C231.579 168.09 211.783 147.914 193.763 127.562C176.978 108.609 161.352 89.2226 146.887 69.4044C135.584 53.9478 124.887 37.8873 121.233 21.0955C120.714 18.6923 120.45 15.9912 122.633 14.2907C124.11 13.2448 126.156 12.6766 128.348 12.7036C137.468 12.5846 144.5 19.1525 148.716 25.1024C169.84 55.1079 168.459 89.4765 157.837 120.193C154.419 130.057 149.436 140.372 137.594 145.874C121.695 153.28 97.9658 149.131 82.0363 139.731C66.1068 130.331 56.4055 116.884 48.0492 103.683C27.0107 70.3611 11.5445 35.737 1.98394 0.556686" stroke="#D7D7DF" stroke-width="3" stroke-miterlimit="10"/>
</svg>
