<svg width="180" height="116" viewBox="0 0 180 116" fill="none" xmlns="http://www.w3.org/2000/svg">
<path d="M169.518 2.24941C166.052 5.4466 162.253 8.32251 158.341 11.0266C154.601 13.6345 150.748 16.0883 146.965 18.5389C130.615 29.121 112.808 38.7597 93.4583 42.3817C94.4376 32.9975 91.2418 22.8088 86.0342 15.5047C82.1659 10.0693 76.7649 6.36498 69.96 6.08444C63.1903 5.80233 55.7993 8.64372 51.9354 14.4238C47.2769 21.4244 49.7212 30.2315 55.1098 36.0414C61.2784 42.6835 70.4422 45.0879 79.2435 45.3149C83.3165 45.4164 87.4058 45.0927 91.4449 44.435C90.7973 48.1612 89.3634 51.7101 86.9029 54.8448C86.6522 55.1744 86.3832 55.4871 86.1317 55.799C77.0728 66.4631 61.0895 69.4044 47.841 70.207C13.4217 72.2538 -21.8842 65.1235 -56.1036 69.6734C-56.8419 69.7771 -57.5626 69.88 -58.3009 69.9836C-63.9064 70.8172 -69.4801 71.9678 -75.0173 73.5413C-76.1875 73.8765 -77.3746 74.2302 -78.5432 74.6007C-78.7174 74.6615 -78.9092 74.7231 -79.0834 74.7839C-92.8069 79.2166 -105.805 86.0405 -117.041 95.068C-119.518 97.0535 -121.901 99.1411 -124.191 101.348C-127.855 104.873 -131.224 108.649 -134.3 112.661L-134.181 115.327C-132.716 113.28 -131.177 111.283 -129.495 109.351C-125.07 104.253 -120.164 99.6297 -114.883 95.4848C-105.021 87.7569 -93.8097 81.7203 -82.0034 77.5322C-67.8814 72.5157 -53.1467 70.5323 -38.3114 70.0128C-37.9936 69.9986 -37.6935 69.9852 -37.375 69.9887C-31.1216 69.7985 -24.8389 69.8723 -18.5675 70.0882C4.26749 70.8574 27.1843 73.4627 50.0326 71.7546C63.6431 70.7412 79.9994 67.0403 88.573 55.4072C88.7232 55.2059 88.8558 55.0054 89.006 54.8041C91.2339 51.609 92.5756 47.9758 93.2016 44.1621C97.9743 43.2949 102.674 41.9887 107.241 40.4761C117.124 37.1875 126.564 32.6804 135.583 27.4844C142.741 23.3797 149.742 18.9281 156.556 14.2373C158.564 12.8564 160.57 11.4402 162.54 10.008C169 5.31523 175.34 -0.0621486 179.383 -7L177.335 -6.90874C175.204 -3.52338 172.475 -0.465152 169.518 2.24941ZM64.4594 40.6312C56.7561 37.2595 49.6356 29.1031 51.3606 20.181C52.7834 12.8115 60.0554 8.48944 67.1011 7.82166C74.1821 7.15231 80.1059 10.2849 84.283 15.9012C88.4979 21.5689 90.9365 28.6602 91.6902 35.6497C91.9376 38.0268 91.9724 40.3958 91.7209 42.6891C82.7133 44.1873 72.956 44.339 64.4594 40.6312Z" fill="#636092"/>
</svg>
