<svg width="198" height="155" viewBox="0 0 198 155" fill="none" xmlns="http://www.w3.org/2000/svg">
<path d="M184.487 4.27648C179.887 8.52004 174.845 12.3371 169.652 15.9262C164.688 19.3876 159.574 22.6444 154.554 25.897C132.853 39.9424 109.217 52.7356 83.5356 57.5429C84.8353 45.0876 80.5937 31.5643 73.6818 21.8699C68.5474 14.6556 61.3789 9.73898 52.3469 9.36663C43.3618 8.99219 33.5518 12.7635 28.4234 20.4352C22.2402 29.727 25.4845 41.4163 32.6367 49.1277C40.8241 57.9435 52.9869 61.1349 64.6687 61.4361C70.0746 61.5709 75.5023 61.1412 80.8632 60.2683C80.0037 65.2139 78.1006 69.9243 74.8348 74.0849C74.5021 74.5223 74.1449 74.9374 73.8112 75.3514C61.7875 89.5056 40.5733 93.4094 22.989 94.4748C-22.6948 97.1915 -69.5554 87.7276 -114.974 93.7666C-115.954 93.9042 -116.91 94.0407 -117.89 94.1783C-125.33 95.2847 -132.728 96.8118 -140.078 98.9003C-141.631 99.3452 -143.206 99.8146 -144.757 100.306C-144.989 100.387 -145.243 100.469 -145.474 100.55C-163.689 106.433 -180.941 115.49 -195.855 127.472C-199.142 130.107 -202.305 132.878 -205.344 135.808C-210.207 140.486 -214.679 145.498 -218.762 150.822L-218.604 154.361C-216.659 151.644 -214.617 148.994 -212.384 146.429C-206.511 139.663 -199.999 133.527 -192.99 128.025C-179.9 117.768 -165.02 109.756 -149.35 104.197C-130.606 97.5391 -111.049 94.9065 -91.3587 94.2169C-90.937 94.1981 -90.5387 94.1804 -90.1159 94.185C-81.816 93.9326 -73.477 94.0306 -65.1532 94.3171C-34.845 95.3379 -4.42815 98.7959 25.8979 96.5288C43.9627 95.1838 65.672 90.2717 77.0514 74.8314C77.2508 74.5642 77.4268 74.2981 77.6262 74.0309C80.5832 69.7902 82.3639 64.9679 83.1949 59.9061C89.5295 58.7551 95.7677 57.0213 101.829 55.0137C114.947 50.6489 127.476 44.6667 139.447 37.7702C148.947 32.3221 158.24 26.4137 167.283 20.1877C169.948 18.3549 172.611 16.4752 175.226 14.5742C183.8 8.34566 192.216 1.20842 197.581 -8L194.863 -7.87888C192.034 -3.38557 188.412 0.673526 184.487 4.27648ZM45.0461 55.2196C34.8217 50.7444 25.3708 39.9187 27.6605 28.0767C29.5489 18.2953 39.2008 12.5587 48.5524 11.6724C57.9508 10.784 65.8133 14.9418 71.3575 22.3961C76.9517 29.9187 80.1885 39.3308 81.1888 48.6077C81.5172 51.7629 81.5634 54.9071 81.2295 57.9509C69.2741 59.9395 56.3234 60.1409 45.0461 55.2196Z" fill="#7570F0"/>
</svg>
