<svg width="131" height="131" viewBox="0 0 131 131" fill="none" xmlns="http://www.w3.org/2000/svg">
<mask id="mask0_17_7094" style="mask-type:luminance" maskUnits="userSpaceOnUse" x="0" y="0" width="131" height="131">
<path d="M65.6894 130.144C101.442 130.144 130.426 101.16 130.426 65.4072C130.426 29.654 101.442 0.67041 65.6894 0.67041C29.9363 0.67041 0.952637 29.654 0.952637 65.4072C0.952637 101.16 29.9363 130.144 65.6894 130.144Z" fill="white"/>
</mask>
<g mask="url(#mask0_17_7094)">
<path d="M61.0793 -38.1973L185.231 85.9541" stroke="#6B65EE" stroke-width="3.22555" stroke-miterlimit="10"/>
<path d="M54.4983 -31.585L178.617 92.5664" stroke="#6B65EE" stroke-width="3.22555" stroke-miterlimit="10"/>
<path d="M47.8865 -24.9727L172.038 99.1464" stroke="#6B65EE" stroke-width="3.22555" stroke-miterlimit="10"/>
<path d="M41.2729 -18.3923L165.424 105.759" stroke="#6B65EE" stroke-width="3.22555" stroke-miterlimit="10"/>
<path d="M34.6935 -11.78L158.813 112.371" stroke="#6B65EE" stroke-width="3.22555" stroke-miterlimit="10"/>
<path d="M28.0818 -5.16772L152.233 118.951" stroke="#6B65EE" stroke-width="3.22555" stroke-miterlimit="10"/>
<path d="M21.4683 1.41235L145.62 125.564" stroke="#6B65EE" stroke-width="3.22555" stroke-miterlimit="10"/>
<path d="M14.8887 8.0249L139.008 132.176" stroke="#6B65EE" stroke-width="3.22555" stroke-miterlimit="10"/>
<path d="M8.2771 14.6372L132.428 138.756" stroke="#6B65EE" stroke-width="3.22555" stroke-miterlimit="10"/>
<path d="M1.66357 21.2173L125.815 145.369" stroke="#6B65EE" stroke-width="3.22555" stroke-miterlimit="10"/>
<path d="M-4.91608 27.8296L119.203 151.981" stroke="#6B65EE" stroke-width="3.22555" stroke-miterlimit="10"/>
<path d="M-11.5276 34.4421L112.624 158.561" stroke="#6B65EE" stroke-width="3.22555" stroke-miterlimit="10"/>
<path d="M-18.1411 41.0222L106.01 165.174" stroke="#6B65EE" stroke-width="3.22555" stroke-miterlimit="10"/>
<path d="M-24.7206 47.6345L99.3984 171.786" stroke="#6B65EE" stroke-width="3.22555" stroke-miterlimit="10"/>
<path d="M-31.334 54.2468L92.8173 178.366" stroke="#6B65EE" stroke-width="3.22555" stroke-miterlimit="10"/>
<path d="M-37.9458 60.8271L86.2055 184.978" stroke="#6B65EE" stroke-width="3.22555" stroke-miterlimit="10"/>
</g>
</svg>
