<svg width="83" height="87" viewBox="0 0 83 87" fill="none" xmlns="http://www.w3.org/2000/svg">
<path d="M17.8686 3.28007C18.7657 3.28007 19.493 2.5458 19.493 1.64004C19.493 0.734269 18.7657 0 17.8686 0C16.9715 0 16.2442 0.734269 16.2442 1.64004C16.2442 2.5458 16.9715 3.28007 17.8686 3.28007Z" fill="#BFBFBF"/>
<path d="M17.8686 17.2594C18.7657 17.2594 19.493 16.5252 19.493 15.6194C19.493 14.7136 18.7657 13.9794 17.8686 13.9794C16.9715 13.9794 16.2442 14.7136 16.2442 15.6194C16.2442 16.5252 16.9715 17.2594 17.8686 17.2594Z" fill="#BFBFBF"/>
<path d="M17.8686 31.3169C18.7657 31.3169 19.493 30.5826 19.493 29.6768C19.493 28.7711 18.7657 28.0368 17.8686 28.0368C16.9715 28.0368 16.2442 28.7711 16.2442 29.6768C16.2442 30.5826 16.9715 31.3169 17.8686 31.3169Z" fill="#BFBFBF"/>
<path d="M17.8686 45.3743C18.7657 45.3743 19.493 44.6401 19.493 43.7343C19.493 42.8285 18.7657 42.0943 17.8686 42.0943C16.9715 42.0943 16.2442 42.8285 16.2442 43.7343C16.2442 44.6401 16.9715 45.3743 17.8686 45.3743Z" fill="#BFBFBF"/>
<path d="M17.8686 58.9632C18.7657 58.9632 19.493 58.2289 19.493 57.3232C19.493 56.4174 18.7657 55.6831 17.8686 55.6831C16.9715 55.6831 16.2442 56.4174 16.2442 57.3232C16.2442 58.2289 16.9715 58.9632 17.8686 58.9632Z" fill="#BFBFBF"/>
<path d="M17.8686 73.0206C18.7657 73.0206 19.493 72.2864 19.493 71.3806C19.493 70.4748 18.7657 69.7406 17.8686 69.7406C16.9715 69.7406 16.2442 70.4748 16.2442 71.3806C16.2442 72.2864 16.9715 73.0206 17.8686 73.0206Z" fill="#BFBFBF"/>
<path d="M17.8686 87C18.7657 87 19.493 86.2657 19.493 85.36C19.493 84.4542 18.7657 83.7199 17.8686 83.7199C16.9715 83.7199 16.2442 84.4542 16.2442 85.36C16.2442 86.2657 16.9715 87 17.8686 87Z" fill="#BFBFBF"/>
<path d="M1.62442 3.28007C2.52156 3.28007 3.24883 2.5458 3.24883 1.64004C3.24883 0.734269 2.52156 0 1.62442 0C0.727276 0 0 0.734269 0 1.64004C0 2.5458 0.727276 3.28007 1.62442 3.28007Z" fill="#BFBFBF"/>
<path d="M1.62442 17.2594C2.52156 17.2594 3.24883 16.5252 3.24883 15.6194C3.24883 14.7136 2.52156 13.9794 1.62442 13.9794C0.727276 13.9794 0 14.7136 0 15.6194C0 16.5252 0.727276 17.2594 1.62442 17.2594Z" fill="#BFBFBF"/>
<path d="M1.62442 31.3169C2.52156 31.3169 3.24883 30.5826 3.24883 29.6768C3.24883 28.7711 2.52156 28.0368 1.62442 28.0368C0.727276 28.0368 0 28.7711 0 29.6768C0 30.5826 0.727276 31.3169 1.62442 31.3169Z" fill="#BFBFBF"/>
<path d="M1.62442 45.3743C2.52156 45.3743 3.24883 44.6401 3.24883 43.7343C3.24883 42.8285 2.52156 42.0943 1.62442 42.0943C0.727276 42.0943 0 42.8285 0 43.7343C0 44.6401 0.727276 45.3743 1.62442 45.3743Z" fill="#BFBFBF"/>
<path d="M1.62442 58.9632C2.52156 58.9632 3.24883 58.2289 3.24883 57.3232C3.24883 56.4174 2.52156 55.6831 1.62442 55.6831C0.727276 55.6831 0 56.4174 0 57.3232C0 58.2289 0.727276 58.9632 1.62442 58.9632Z" fill="#BFBFBF"/>
<path d="M1.62442 73.0206C2.52156 73.0206 3.24883 72.2864 3.24883 71.3806C3.24883 70.4748 2.52156 69.7406 1.62442 69.7406C0.727276 69.7406 0 70.4748 0 71.3806C0 72.2864 0.727276 73.0206 1.62442 73.0206Z" fill="#BFBFBF"/>
<path d="M1.62442 87C2.52156 87 3.24883 86.2657 3.24883 85.36C3.24883 84.4542 2.52156 83.7199 1.62442 83.7199C0.727276 83.7199 0 84.4542 0 85.36C0 86.2657 0.727276 87 1.62442 87Z" fill="#BFBFBF"/>
<path d="M49.5834 3.28007C50.4806 3.28007 51.2078 2.5458 51.2078 1.64004C51.2078 0.734269 50.4806 0 49.5834 0C48.6863 0 47.959 0.734269 47.959 1.64004C47.959 2.5458 48.6863 3.28007 49.5834 3.28007Z" fill="#BFBFBF"/>
<path d="M49.5834 17.2594C50.4806 17.2594 51.2078 16.5252 51.2078 15.6194C51.2078 14.7136 50.4806 13.9794 49.5834 13.9794C48.6863 13.9794 47.959 14.7136 47.959 15.6194C47.959 16.5252 48.6863 17.2594 49.5834 17.2594Z" fill="#BFBFBF"/>
<path d="M49.5834 31.3169C50.4806 31.3169 51.2078 30.5826 51.2078 29.6768C51.2078 28.7711 50.4806 28.0368 49.5834 28.0368C48.6863 28.0368 47.959 28.7711 47.959 29.6768C47.959 30.5826 48.6863 31.3169 49.5834 31.3169Z" fill="#BFBFBF"/>
<path d="M49.5834 45.3743C50.4806 45.3743 51.2078 44.6401 51.2078 43.7343C51.2078 42.8285 50.4806 42.0943 49.5834 42.0943C48.6863 42.0943 47.959 42.8285 47.959 43.7343C47.959 44.6401 48.6863 45.3743 49.5834 45.3743Z" fill="#BFBFBF"/>
<path d="M49.5834 58.9632C50.4806 58.9632 51.2078 58.2289 51.2078 57.3232C51.2078 56.4174 50.4806 55.6831 49.5834 55.6831C48.6863 55.6831 47.959 56.4174 47.959 57.3232C47.959 58.2289 48.6863 58.9632 49.5834 58.9632Z" fill="#BFBFBF"/>
<path d="M49.5834 73.0206C50.4806 73.0206 51.2078 72.2864 51.2078 71.3806C51.2078 70.4748 50.4806 69.7406 49.5834 69.7406C48.6863 69.7406 47.959 70.4748 47.959 71.3806C47.959 72.2864 48.6863 73.0206 49.5834 73.0206Z" fill="#BFBFBF"/>
<path d="M49.5834 87C50.4806 87 51.2078 86.2657 51.2078 85.36C51.2078 84.4542 50.4806 83.7199 49.5834 83.7199C48.6863 83.7199 47.959 84.4542 47.959 85.36C47.959 86.2657 48.6863 87 49.5834 87Z" fill="#BFBFBF"/>
<path d="M33.3392 3.28007C34.2364 3.28007 34.9637 2.5458 34.9637 1.64004C34.9637 0.734269 34.2364 0 33.3392 0C32.4421 0 31.7148 0.734269 31.7148 1.64004C31.7148 2.5458 32.4421 3.28007 33.3392 3.28007Z" fill="#BFBFBF"/>
<path d="M33.3392 17.2594C34.2364 17.2594 34.9637 16.5252 34.9637 15.6194C34.9637 14.7136 34.2364 13.9794 33.3392 13.9794C32.4421 13.9794 31.7148 14.7136 31.7148 15.6194C31.7148 16.5252 32.4421 17.2594 33.3392 17.2594Z" fill="#BFBFBF"/>
<path d="M33.3392 31.3169C34.2364 31.3169 34.9637 30.5826 34.9637 29.6768C34.9637 28.7711 34.2364 28.0368 33.3392 28.0368C32.4421 28.0368 31.7148 28.7711 31.7148 29.6768C31.7148 30.5826 32.4421 31.3169 33.3392 31.3169Z" fill="#BFBFBF"/>
<path d="M33.3392 45.3743C34.2364 45.3743 34.9637 44.6401 34.9637 43.7343C34.9637 42.8285 34.2364 42.0943 33.3392 42.0943C32.4421 42.0943 31.7148 42.8285 31.7148 43.7343C31.7148 44.6401 32.4421 45.3743 33.3392 45.3743Z" fill="#BFBFBF"/>
<path d="M33.3392 58.9632C34.2364 58.9632 34.9637 58.2289 34.9637 57.3232C34.9637 56.4174 34.2364 55.6831 33.3392 55.6831C32.4421 55.6831 31.7148 56.4174 31.7148 57.3232C31.7148 58.2289 32.4421 58.9632 33.3392 58.9632Z" fill="#BFBFBF"/>
<path d="M33.3392 73.0206C34.2364 73.0206 34.9637 72.2864 34.9637 71.3806C34.9637 70.4748 34.2364 69.7406 33.3392 69.7406C32.4421 69.7406 31.7148 70.4748 31.7148 71.3806C31.7148 72.2864 32.4421 73.0206 33.3392 73.0206Z" fill="#BFBFBF"/>
<path d="M33.3392 87C34.2364 87 34.9637 86.2657 34.9637 85.36C34.9637 84.4542 34.2364 83.7199 33.3392 83.7199C32.4421 83.7199 31.7148 84.4542 31.7148 85.36C31.7148 86.2657 32.4421 87 33.3392 87Z" fill="#BFBFBF"/>
<path d="M81.3756 3.28007C82.2727 3.28007 83 2.5458 83 1.64004C83 0.734269 82.2727 0 81.3756 0C80.4784 0 79.7512 0.734269 79.7512 1.64004C79.7512 2.5458 80.4784 3.28007 81.3756 3.28007Z" fill="#BFBFBF"/>
<path d="M81.3756 17.2594C82.2727 17.2594 83 16.5252 83 15.6194C83 14.7136 82.2727 13.9794 81.3756 13.9794C80.4784 13.9794 79.7512 14.7136 79.7512 15.6194C79.7512 16.5252 80.4784 17.2594 81.3756 17.2594Z" fill="#BFBFBF"/>
<path d="M81.3756 31.3169C82.2727 31.3169 83 30.5826 83 29.6768C83 28.7711 82.2727 28.0368 81.3756 28.0368C80.4784 28.0368 79.7512 28.7711 79.7512 29.6768C79.7512 30.5826 80.4784 31.3169 81.3756 31.3169Z" fill="#BFBFBF"/>
<path d="M81.3756 45.3743C82.2727 45.3743 83 44.6401 83 43.7343C83 42.8285 82.2727 42.0943 81.3756 42.0943C80.4784 42.0943 79.7512 42.8285 79.7512 43.7343C79.7512 44.6401 80.4784 45.3743 81.3756 45.3743Z" fill="#BFBFBF"/>
<path d="M81.3756 58.9632C82.2727 58.9632 83 58.2289 83 57.3232C83 56.4174 82.2727 55.6831 81.3756 55.6831C80.4784 55.6831 79.7512 56.4174 79.7512 57.3232C79.7512 58.2289 80.4784 58.9632 81.3756 58.9632Z" fill="#BFBFBF"/>
<path d="M81.3756 73.0206C82.2727 73.0206 83 72.2864 83 71.3806C83 70.4748 82.2727 69.7406 81.3756 69.7406C80.4784 69.7406 79.7512 70.4748 79.7512 71.3806C79.7512 72.2864 80.4784 73.0206 81.3756 73.0206Z" fill="#BFBFBF"/>
<path d="M81.3756 87C82.2727 87 83 86.2657 83 85.36C83 84.4542 82.2727 83.7199 81.3756 83.7199C80.4784 83.7199 79.7512 84.4542 79.7512 85.36C79.7512 86.2657 80.4784 87 81.3756 87Z" fill="#BFBFBF"/>
<path d="M65.1314 3.28007C66.0285 3.28007 66.7558 2.5458 66.7558 1.64004C66.7558 0.734269 66.0285 0 65.1314 0C64.2343 0 63.507 0.734269 63.507 1.64004C63.507 2.5458 64.2343 3.28007 65.1314 3.28007Z" fill="#BFBFBF"/>
<path d="M65.1314 17.2594C66.0285 17.2594 66.7558 16.5252 66.7558 15.6194C66.7558 14.7136 66.0285 13.9794 65.1314 13.9794C64.2343 13.9794 63.507 14.7136 63.507 15.6194C63.507 16.5252 64.2343 17.2594 65.1314 17.2594Z" fill="#BFBFBF"/>
<path d="M65.1314 31.3169C66.0285 31.3169 66.7558 30.5826 66.7558 29.6768C66.7558 28.7711 66.0285 28.0368 65.1314 28.0368C64.2343 28.0368 63.507 28.7711 63.507 29.6768C63.507 30.5826 64.2343 31.3169 65.1314 31.3169Z" fill="#BFBFBF"/>
<path d="M65.1314 45.3743C66.0285 45.3743 66.7558 44.6401 66.7558 43.7343C66.7558 42.8285 66.0285 42.0943 65.1314 42.0943C64.2343 42.0943 63.507 42.8285 63.507 43.7343C63.507 44.6401 64.2343 45.3743 65.1314 45.3743Z" fill="#BFBFBF"/>
<path d="M65.1314 58.9632C66.0285 58.9632 66.7558 58.2289 66.7558 57.3232C66.7558 56.4174 66.0285 55.6831 65.1314 55.6831C64.2343 55.6831 63.507 56.4174 63.507 57.3232C63.507 58.2289 64.2343 58.9632 65.1314 58.9632Z" fill="#BFBFBF"/>
<path d="M65.1314 73.0206C66.0285 73.0206 66.7558 72.2864 66.7558 71.3806C66.7558 70.4748 66.0285 69.7406 65.1314 69.7406C64.2343 69.7406 63.507 70.4748 63.507 71.3806C63.507 72.2864 64.2343 73.0206 65.1314 73.0206Z" fill="#BFBFBF"/>
<path d="M65.1314 87C66.0285 87 66.7558 86.2657 66.7558 85.36C66.7558 84.4542 66.0285 83.7199 65.1314 83.7199C64.2343 83.7199 63.507 84.4542 63.507 85.36C63.507 86.2657 64.2343 87 65.1314 87Z" fill="#BFBFBF"/>
</svg>
