<svg width="162" height="138" viewBox="0 0 162 138" fill="none" xmlns="http://www.w3.org/2000/svg">
<path d="M121.189 46.0512C102.157 52.057 82.7972 57.098 63.2055 61.0139C53.5489 62.983 43.8612 64.6416 34.1208 66.0858C31.8384 66.4206 28.8792 67.3312 26.5783 66.8522C24.4271 66.4272 23.0634 64.3988 22.0309 62.6071C19.8914 58.9057 18.8462 54.662 18.84 50.3897C18.7437 32.2723 34.7443 20.2384 49.9108 13.866C66.0535 7.02581 85.5025 1.05357 102.888 6.27427C111.585 8.90605 119.031 14.2104 123.491 22.16C124.789 24.4772 125.873 26.8473 126.968 29.2603C127.881 31.3085 128.955 33.4537 129.108 35.7349C129.302 38.3696 127.699 40.3557 126.118 42.2455C124.462 44.1993 122.526 46.4948 119.784 46.6246C117.449 46.745 117.339 50.3638 119.685 50.2862C124.409 50.0775 127.57 46.48 130.239 42.9128C133.048 39.1749 133.222 35.2672 131.62 30.9787C128.331 22.2408 123.745 13.9589 115.989 8.50357C99.6645 -2.93453 78.6513 0.194861 60.9272 5.96959C43.2461 11.7338 23.4971 20.7352 16.9823 39.7079C14.0711 48.1997 14.624 58.3844 19.8345 65.8761C20.9534 67.4646 22.2867 69.0004 24.083 69.831C26.2105 70.8984 28.4823 70.5207 30.7324 70.2393C36.4542 69.4666 42.1873 68.5548 47.9098 67.6C73.0076 63.3283 97.8012 57.2673 122.108 49.5985C124.295 48.8779 123.419 45.32 121.189 46.0512Z" fill="black" fill-opacity="0.15"/>
<path d="M19.5132 65.8643C15.3944 67.6062 11.1938 68.277 6.78989 68.8615C3.57539 69.2895 1.1163 71.1227 0.365833 74.3538C-1.15752 81.0943 5.99757 86.8795 11.6451 88.944C14.8966 90.1437 18.5056 90.2097 21.7128 88.8287C23.3217 88.1596 24.6535 87.1042 25.8361 85.8126C27.191 84.2968 28.311 82.566 30.348 81.9734C33.9932 80.8938 38.1637 82.6855 41.7707 83.2975C45.2281 83.8555 48.7843 83.7071 52.1294 82.7014C55.4744 81.6956 58.6077 80.0146 61.2079 77.6465C62.6584 76.3344 63.8213 74.5931 65.8682 74.2254C67.9257 73.9005 70.0762 74.5075 72.11 74.825C76.3167 75.4712 80.5893 75.6465 84.8421 75.372C88.3772 75.1378 91.9235 74.7645 94.4927 72.0858C95.9439 70.5917 96.9762 69.4282 99.1412 68.9859C101.306 68.5436 103.512 68.6368 105.697 68.4623C109.929 68.1021 114.076 67.3989 118.15 66.2137C122.224 65.0284 126.107 63.4356 129.862 61.5104C131.761 60.5426 133.682 59.4784 135.773 58.9181C137.735 58.3895 139.78 58.3858 141.774 57.9857C149.437 56.4166 154.221 48.3275 151.741 40.8452C150.629 37.4364 148.251 34.4301 144.406 34.5133C139.661 34.6362 134.654 36.0966 130.151 37.5695C127.921 38.3007 128.786 41.8157 131.027 41.1274C134.651 39.962 138.382 39.0433 142.143 38.4351C143.986 38.1631 145.712 37.7835 146.98 39.4261C148.036 40.7575 148.587 42.4405 148.731 44.1327C149.061 47.5067 147.561 50.8316 144.812 52.7816C142.074 54.7745 138.83 54.5278 135.679 55.213C132.185 55.9826 129.072 57.9314 125.853 59.4516C122.431 61.0673 118.871 62.3079 115.237 63.2484C111.421 64.1882 107.563 64.7746 103.654 64.9646C100.601 65.1255 97.3235 65.1142 94.6612 66.8611C93.4376 67.6171 92.6732 68.7602 91.6844 69.7312C90.2873 71.0756 88.5511 71.4122 86.6869 71.5986C83.0977 71.9824 79.4564 71.9699 75.8804 71.6685C72.5293 71.3572 69.0739 70.2532 65.7096 70.6271C62.3883 70.9905 60.7525 73.212 58.3996 75.2919C53.1569 79.8567 46.4924 80.6797 39.9003 79.2116C36.9147 78.5375 33.8116 77.7559 30.7362 78.195C27.6609 78.6342 25.6412 80.4047 23.6947 82.6573C20.9843 85.8709 17.2963 86.9611 13.2524 85.6838C9.94681 84.6338 6.13247 82.0723 4.49431 78.9294C3.72834 77.4812 3.38124 75.7026 4.18988 74.1849C5.18188 72.3038 7.4841 72.4188 9.33773 72.1896C13.452 71.7219 17.4079 70.6112 21.2371 68.9861C23.4786 68.1158 21.6584 64.9722 19.5132 65.8643Z" fill="black" fill-opacity="0.15"/>
<path d="M28.6244 93.81C24.5056 95.5519 20.305 96.2227 15.9011 96.8072C12.6866 97.2352 10.2275 99.0684 9.47703 102.3C7.92136 109.093 15.1193 114.868 20.7563 116.89C24.0078 118.089 27.6168 118.155 30.824 116.774C32.4329 116.105 33.7647 115.05 34.9473 113.758C36.3022 112.243 37.4222 110.512 39.4592 109.919C43.1044 108.839 47.2749 110.631 50.882 111.243C54.3393 111.801 57.8955 111.653 61.2406 110.647C64.5856 109.641 67.7189 107.96 70.3191 105.592C71.7696 104.28 72.9325 102.539 74.9794 102.171C77.0369 101.846 79.1874 102.453 81.2212 102.771C85.4279 103.417 89.7005 103.592 93.9533 103.318C97.4884 103.084 101.035 102.71 103.604 100.031C105.055 98.5374 106.087 97.3739 108.252 96.9316C110.417 96.4893 112.623 96.5825 114.809 96.408C119.04 96.0478 123.188 95.3446 127.262 94.1594C131.336 92.9741 135.218 91.3813 138.974 89.4561C140.873 88.4883 142.794 87.4241 144.884 86.8638C146.846 86.3352 148.891 86.3315 150.885 85.9315C158.548 84.3623 163.332 76.2732 160.852 68.7909C159.74 65.3821 157.362 62.3758 153.517 62.459C148.772 62.5819 143.766 64.0423 139.262 65.5152C137.032 66.2463 137.898 69.7614 140.138 69.0731C143.763 67.9077 147.493 66.989 151.254 66.3808C153.097 66.1088 154.823 65.7292 156.092 67.3718C157.147 68.7032 157.698 70.3862 157.842 72.0784C158.173 75.4524 156.672 78.7773 153.924 80.7273C151.185 82.7202 147.941 82.4735 144.79 83.1587C141.296 83.9284 138.183 85.8771 134.965 87.3973C131.542 89.013 127.982 90.2536 124.348 91.1941C120.532 92.134 116.675 92.7203 112.765 92.9103C109.712 93.0712 106.435 93.0599 103.772 94.8068C102.549 95.5628 101.784 96.7059 100.796 97.6769C99.3985 99.0213 97.6623 99.3579 95.7981 99.5443C92.2089 99.9281 88.5676 99.9156 84.9916 99.6143C81.6405 99.3029 78.1851 98.1989 74.8208 98.5728C71.4995 98.9362 69.8637 101.158 67.5108 103.238C62.2681 107.802 55.6036 108.625 49.0115 107.157C46.0259 106.483 42.9228 105.702 39.8474 106.141C36.7721 106.58 34.7524 108.35 32.8059 110.603C30.0955 113.817 26.4075 114.907 22.3636 113.629C19.058 112.58 15.2437 110.018 13.6055 106.875C12.8395 105.427 12.4924 103.648 13.3011 102.131C14.2931 100.25 16.5953 100.364 18.4489 100.135C22.5632 99.6676 26.5191 98.5569 30.3483 96.9318C32.5898 96.0615 30.7696 92.9179 28.6244 93.81Z" fill="black" fill-opacity="0.15"/>
<path d="M32.8145 111.192C33.7545 120.918 40.194 129.152 48.8432 133.433C57.9626 137.961 68.2745 138.468 78.2386 137.378C84.1742 136.734 90.026 135.566 95.9206 134.387C101.74 133.272 107.592 132.103 113.306 130.378C122.956 127.456 132.461 122.841 139.161 115.144C146.108 107.159 149.586 95.7993 145.885 85.5716C145.121 83.3954 141.552 84.229 142.326 86.4481C145.338 94.7996 143.142 103.979 137.891 110.91C132.231 118.397 123.571 123.121 114.789 126.057C105.042 129.321 94.6578 131.106 84.5202 132.784C74.9612 134.411 65.0089 135.18 55.5947 132.225C46.127 129.237 37.4256 121.605 36.4129 111.215C36.2281 108.987 32.5656 108.889 32.8145 111.192Z" fill="black" fill-opacity="0.15"/>
<path d="M40.6432 23.8778C42.7205 24.0027 44.7978 24.1276 46.8751 24.2526C49.2307 24.3998 49.3294 20.7382 46.9738 20.5909C44.8965 20.466 42.8192 20.3411 40.7419 20.2162C38.3968 20.1118 38.2876 23.7305 40.6432 23.8778Z" fill="black" fill-opacity="0.15"/>
<path d="M43.3245 19.8075C43.3747 20.7499 43.4354 21.7352 43.4856 22.6776C43.5358 23.6201 44.2285 24.5861 45.2675 24.5576C46.1778 24.5607 47.1765 23.8146 47.1481 22.7759C47.0979 21.8334 47.0371 20.8481 46.9869 19.9057C46.9367 18.9633 46.244 17.9972 45.205 18.0258C44.2624 18.0761 43.2531 18.7793 43.3245 19.8075Z" fill="black" fill-opacity="0.15"/>
<path d="M64.6 21.2511C65.0037 22.1519 65.4075 23.0527 65.8007 23.9107C66.1939 24.7686 67.4994 25.0836 68.2936 24.6152C69.2059 24.0723 69.413 23.0665 68.9986 22.1228C68.5949 21.222 68.1911 20.3211 67.7979 19.4632C67.4046 18.6052 66.0992 18.2902 65.305 18.7587C64.4032 19.3445 64.1856 20.3074 64.6 21.2511Z" fill="black" fill-opacity="0.15"/>
<path d="M64.2494 26.4751C64.7745 26.3913 65.289 26.2645 65.8141 26.1807C66.7679 25.9912 67.4038 24.8798 67.1392 23.9902C66.8535 23.0148 65.9451 22.4656 64.9484 22.6657C64.4233 22.7495 63.9087 22.8762 63.3837 22.9601C62.4298 23.1496 61.794 24.261 62.0586 25.1506C62.3443 26.1259 63.2421 26.6323 64.2494 26.4751Z" fill="black" fill-opacity="0.15"/>
<path d="M95.0928 20.7883C96.1727 21.2952 97.2631 21.8451 98.343 22.352C99.2197 22.7726 100.323 22.6372 100.83 21.7395C101.272 20.9487 101.137 19.6633 100.218 19.2533C99.1377 18.7463 98.0472 18.1965 96.9673 17.6895C96.0906 17.2689 94.987 17.4043 94.4804 18.302C94.0385 19.0929 94.1626 20.3354 95.0928 20.7883Z" fill="black" fill-opacity="0.15"/>
<path d="M82.377 9.59812C82.4298 9.81245 82.4397 10.0373 82.4819 10.2088C82.6713 11.1624 83.7829 11.798 84.6728 11.5333C85.6484 11.2476 86.1978 10.3393 85.9979 9.34286C85.9451 9.12853 85.9352 8.90364 85.8929 8.73218C85.7036 7.77856 84.592 7.143 83.7021 7.40763C82.7265 7.69339 82.1771 8.60164 82.377 9.59812Z" fill="black" fill-opacity="0.15"/>
<path d="M81.0066 24.5304C83.2791 23.9707 82.4028 20.4128 80.1303 20.9725C77.8684 21.575 78.7341 25.0901 81.0066 24.5304Z" fill="black" fill-opacity="0.15"/>
<path d="M37.1729 36.0082C36.9797 36.1467 36.7864 36.2853 36.5931 36.4238C36.2494 36.6903 36.0331 37.2892 36.0424 37.6961C36.0193 38.1564 36.2423 38.6926 36.5517 39.0256C36.904 39.348 37.3315 39.6065 37.8243 39.576C37.9958 39.5338 38.135 39.545 38.3065 39.5027C38.6066 39.4288 38.8856 39.2692 39.1435 39.0238C39.3368 38.8852 39.5301 38.7467 39.7234 38.6082C40.067 38.3417 40.2833 37.7428 40.2741 37.3359C40.2971 36.8755 40.0741 36.3394 39.7647 36.0064C39.4125 35.684 38.985 35.4255 38.4922 35.4559C38.3207 35.4982 38.1815 35.487 38.01 35.5292C37.667 35.6137 37.388 35.7734 37.1729 36.0082Z" fill="black" fill-opacity="0.15"/>
<path d="M24.9624 42.3801C25.4017 42.3173 25.7876 42.2223 26.2269 42.1595C27.1808 41.9701 27.8166 40.8587 27.552 39.9691C27.2663 38.9937 26.3579 38.4445 25.3612 38.6445C24.9219 38.7072 24.536 38.8023 24.0967 38.865C23.1428 39.0545 22.507 40.1659 22.7716 41.0555C23.0573 42.0309 23.9656 42.5801 24.9624 42.3801Z" fill="black" fill-opacity="0.15"/>
<path d="M112.558 21.5335C112.148 22.2709 111.782 22.9978 111.362 23.6923C110.887 24.5366 111.087 25.7151 111.974 26.1786C112.818 26.6526 113.997 26.4532 114.461 25.5661C114.87 24.8287 115.237 24.1018 115.657 23.4073C116.131 22.563 115.932 21.3845 115.045 20.921C114.254 20.4793 113.065 20.6358 112.558 21.5335Z" fill="black" fill-opacity="0.15"/>
<path d="M109.157 23.235C110.472 23.957 111.829 24.6683 113.133 25.3474C114.021 25.8108 115.103 25.5897 115.62 24.7349C116.105 23.9335 115.895 22.7121 115.008 22.2486C113.693 21.5267 112.336 20.8153 111.031 20.1363C110.144 19.6728 109.062 19.894 108.545 20.7488C108.06 21.5502 108.27 22.7716 109.157 23.235Z" fill="black" fill-opacity="0.15"/>
<path d="M97.0371 16.1265C95.7588 17.2143 95.0788 18.7003 94.8374 20.3056C94.7056 21.2474 95.709 22.1824 96.6193 22.1855C97.7012 22.1464 98.3463 21.4419 98.4999 20.4038C98.4557 20.7784 98.5104 20.4467 98.5322 20.3504C98.554 20.2541 98.608 20.1044 98.6298 20.0081C98.6621 19.9546 98.8026 19.6018 98.7162 19.8049C98.5869 20.0186 98.8026 19.6018 98.8132 19.6446C98.8778 19.5378 98.9101 19.4844 98.9748 19.3775C99.201 19.0035 98.8244 19.5055 99.0071 19.3241C99.1898 19.1427 99.362 18.9184 99.5981 18.7693C100.307 18.14 100.301 16.823 99.65 16.2104C98.8709 15.4475 97.832 15.4761 97.0371 16.1265Z" fill="black" fill-opacity="0.15"/>
<path d="M100.139 11.1796C102.412 10.6199 101.535 7.06198 99.2629 7.62167C97.001 8.22423 97.8667 11.7393 100.139 11.1796Z" fill="black" fill-opacity="0.15"/>
<path d="M67.0297 15.6059C69.3022 15.0462 68.426 11.4883 66.1535 12.048C63.881 12.6077 64.7573 16.1656 67.0297 15.6059Z" fill="black" fill-opacity="0.15"/>
<path d="M63.671 38.5298C64.3247 38.4142 65.2351 38.4174 65.9521 38.559C66.9047 38.7336 67.9021 38.3516 68.1949 37.3246C68.4442 36.4903 67.956 35.2466 66.9605 35.0825C65.537 34.8421 64.2091 34.8054 62.7624 35.0253C61.798 35.1719 61.2156 36.3156 61.4373 37.2158C61.6907 38.2446 62.6637 38.6869 63.671 38.5298Z" fill="black" fill-opacity="0.15"/>
<path d="M110.738 36.3036C113.011 35.7439 112.135 32.186 109.862 32.7457C107.6 33.3483 108.466 36.8633 110.738 36.3036Z" fill="black" fill-opacity="0.15"/>
<path d="M25.8887 83.0717C24.2975 90.8292 30.6254 97.3182 37.8488 98.9491C41.9368 99.8519 46.1039 99.5985 50.2076 99.0879C55.3292 98.4631 60.3979 97.6239 65.435 96.6561C75.6379 94.6888 85.7681 92.0574 95.5269 88.4718C105.21 84.9502 114.075 79.766 123.62 76.0512C128.264 74.2255 134.274 73.7 137.78 69.8359C139.027 68.4375 139.901 66.631 139.982 64.7467C140.024 62.1449 138.039 59.9966 138.241 57.4918C138.432 55.1261 134.78 55.0707 134.579 57.3935C134.276 61.1508 138.088 64.4404 134.842 67.6951C133.391 69.1891 131.268 69.8029 129.317 70.3744C127.194 70.9881 125.039 71.6553 122.958 72.4405C114.776 75.5925 107.134 80.0206 99.026 83.2907C90.5853 86.6881 81.8152 89.3027 72.9508 91.3496C64.4295 93.3119 55.6515 95.1556 46.942 95.8002C42.6998 96.1176 38.127 96.0162 34.4189 93.7014C31.2022 91.7202 28.6023 87.9957 29.4193 84.1117C29.8024 81.7895 26.3253 80.7818 25.8887 83.0717Z" fill="black" fill-opacity="0.15"/>
<path d="M38.9958 86.618C38.2188 88.2643 38.9083 90.1405 40.6947 90.7463C41.5397 91.0383 42.4184 90.9128 43.2654 90.6587C43.7694 90.4891 44.3169 90.127 44.809 90.2785C45.718 90.6457 46.8236 89.9642 47.0517 89.0442C47.3551 88.0601 46.7587 87.1158 45.8174 86.8021C44.9617 86.4672 43.9868 86.5709 43.1398 86.825C42.7645 86.9629 42.432 87.0903 42.0567 87.2282C41.9709 87.2493 41.8851 87.2704 41.7565 87.3021C41.6173 87.2909 41.6708 87.3232 41.8099 87.3344C42.0435 87.9134 42.775 87.0058 42.0627 88.5452C42.4835 87.6686 42.3587 86.6082 41.4503 86.059C40.7346 85.5533 39.4166 85.7415 38.9958 86.618Z" fill="black" fill-opacity="0.15"/>
<path d="M52.4168 89.2232C52.8766 89.4282 53.2935 89.6438 53.7533 89.8488C54.2131 90.0539 54.6518 90.1731 55.1234 90.057C55.5522 89.9514 56.0245 89.6532 56.2402 89.2363C56.4558 88.8195 56.6075 88.3275 56.4485 87.8665C56.3429 87.4378 56.0448 86.9657 55.6278 86.7501C55.168 86.5451 54.7511 86.3295 54.2913 86.1245C53.8315 85.9195 53.3928 85.8002 52.9212 85.9163C52.4924 86.0219 52.0201 86.3201 51.8044 86.737C51.5888 87.1538 51.4371 87.6458 51.5961 88.1068C51.7016 88.5355 51.9999 89.0076 52.4168 89.2232Z" fill="black" fill-opacity="0.15"/>
<path d="M65.1981 84.9841C66.5564 85.5134 68.1198 85.583 69.5347 85.2346C70.478 85.0022 71.0921 83.9871 70.8598 83.0441C70.6275 82.101 69.6123 81.4872 68.669 81.7195C67.8114 81.9307 67.1584 81.8642 66.2599 81.5399C65.3508 81.1728 64.2559 81.8971 64.0171 82.7743C63.6603 83.726 64.289 84.6169 65.1981 84.9841Z" fill="black" fill-opacity="0.15"/>
<path d="M76.5937 84.9054C76.5489 85.4621 76.6756 85.9765 76.9309 86.4592C77.1434 86.9525 77.5491 87.3072 77.9442 87.6191C78.286 87.8986 78.9285 87.9223 79.3144 87.8272C79.7431 87.7216 80.2154 87.4234 80.4311 87.0066C80.6468 86.5897 80.7985 86.0977 80.6395 85.6367C80.5972 85.4653 80.5227 85.3472 80.4805 85.1758C80.3208 84.8968 80.1288 84.6713 79.8188 84.5203L79.7653 84.488C79.8828 84.5955 80.0002 84.703 80.1071 84.7676C80.0431 84.6924 79.9791 84.6173 79.9151 84.5421C79.9896 84.6601 80.1176 84.8105 80.1922 84.9285C80.1176 84.8105 80.0536 84.7353 80.022 84.6067C80.0642 84.7782 80.1387 84.8962 80.181 85.0677C80.1598 84.9819 80.1387 84.8962 80.1176 84.8105C80.1598 84.9819 80.1486 85.1211 80.1909 85.2925C80.1698 85.2068 80.1915 85.1105 80.1704 85.0248C80.2488 84.0507 79.3417 83.1374 78.3885 83.1449C77.4353 83.1523 76.7045 83.8779 76.5937 84.9054Z" fill="black" fill-opacity="0.15"/>
<path d="M95.3218 79.8837C95.3 79.98 95.1708 80.1937 95.3 79.98C95.3324 79.9266 95.3541 79.8303 95.4293 79.7663C95.4616 79.7128 95.5368 79.6489 95.5586 79.5526C95.7202 79.2854 95.3759 79.734 95.5263 79.606C95.6338 79.4886 95.7413 79.3712 95.8488 79.2538C95.924 79.1898 95.9563 79.1363 96.0421 79.1152C96.2354 78.9767 95.6556 79.3923 96.0098 79.1686C96.7934 78.6574 97.2578 77.5882 96.7148 76.6762C96.2464 75.8823 95.0807 75.3964 94.2219 75.9717C93.1269 76.696 92.3954 77.6036 91.877 78.8225C91.7042 79.2288 91.8197 79.8824 92.0433 80.2365C92.2775 80.6335 92.6832 80.9882 93.1219 81.1075C93.6035 81.2162 94.1068 81.2287 94.5362 80.941C94.9228 80.664 95.1596 80.3328 95.3218 79.8837Z" fill="black" fill-opacity="0.15"/>
<path d="M98.6456 75.837C100.752 76.8186 102.945 77.597 105.192 78.2258C107.438 78.8545 108.49 75.3675 106.243 74.7388C104.295 74.2181 102.402 73.5478 100.563 72.7277C99.6434 72.3176 98.6255 72.4319 98.0761 73.3402C97.5379 74.1093 97.726 75.4269 98.6456 75.837Z" fill="black" fill-opacity="0.15"/>
<path d="M117.63 73.8891C120.106 73.4158 122.305 72.374 124.292 70.839C125.098 70.2314 124.952 68.9032 124.344 68.28C123.608 67.5066 122.547 67.6314 121.785 68.2284C120.292 69.369 118.587 70.0163 116.765 70.3741C114.461 70.8052 115.326 74.3202 117.63 73.8891Z" fill="black" fill-opacity="0.15"/>
<path d="M135.528 61.6156C135.334 61.7541 135.184 61.8821 134.991 62.0206C134.647 62.2871 134.431 62.886 134.44 63.2929C134.417 63.7532 134.64 64.2894 134.949 64.6224C135.302 64.9448 135.729 65.2033 136.222 65.1728C136.393 65.1306 136.532 65.1418 136.704 65.0995C137.004 65.0256 137.283 64.8659 137.541 64.6206C137.734 64.482 137.885 64.3541 138.078 64.2155C138.422 63.949 138.638 63.3501 138.629 62.9432C138.652 62.4829 138.429 61.9467 138.119 61.6138C137.767 61.2913 137.34 61.0329 136.847 61.0633C136.675 61.1055 136.536 61.0943 136.365 61.1366C136.032 61.2639 135.753 61.4236 135.528 61.6156Z" fill="black" fill-opacity="0.15"/>
<path d="M131.884 71.197C134.157 70.6373 133.28 67.0794 131.008 67.6391C128.735 68.1988 129.569 71.7672 131.884 71.197Z" fill="black" fill-opacity="0.15"/>
<path d="M137.61 93.5203C136.234 97.9057 134.088 101.935 131.302 105.577C129.849 107.435 132.991 109.298 134.401 107.45C137.403 103.574 139.646 99.2023 141.097 94.5709C141.812 92.3034 138.335 91.2956 137.61 93.5203Z" fill="black" fill-opacity="0.15"/>
<path d="M53.9932 124.799C55.6854 127.792 58.5491 129.633 61.9425 130.116C62.9274 130.237 63.7769 129.255 63.8231 128.334C63.8269 127.242 63.0366 126.618 62.0412 126.454C59.9645 126.147 58.1807 124.813 57.1911 123.011C56.0095 120.983 52.8116 122.771 53.9932 124.799Z" fill="black" fill-opacity="0.15"/>
<path d="M94.399 128.578C95.7493 128.337 97.0891 128.052 98.4823 127.8C99.4361 127.61 100.029 126.51 99.8074 125.609C99.5645 124.623 98.5704 124.095 97.6166 124.285C96.2662 124.526 94.9265 124.811 93.5333 125.063C92.5794 125.253 91.9865 126.353 92.2082 127.254C92.4081 128.25 93.4023 128.778 94.399 128.578Z" fill="black" fill-opacity="0.15"/>
<path d="M76.2383 106.544C76.4838 106.802 76.7292 107.06 77.0175 107.307C77.3269 107.64 77.7867 107.845 78.29 107.857C78.7504 107.88 79.2867 107.657 79.6198 107.348C80.2649 106.644 80.3869 105.477 79.6718 104.789C79.4263 104.531 79.1809 104.273 78.8926 104.026C78.5832 103.693 78.1234 103.488 77.6201 103.476C77.1597 103.453 76.6234 103.676 76.2903 103.985C75.5917 104.657 75.5127 105.813 76.2383 106.544Z" fill="black" fill-opacity="0.15"/>
<path d="M20.8963 71.4798C20.6707 71.6717 20.4985 71.896 20.2729 72.0879C19.9504 72.4402 19.7347 72.857 19.7222 73.3602C19.6991 73.8206 19.9221 74.3567 20.2316 74.6897C20.9361 75.3346 22.1031 75.4564 22.791 74.7413C23.0166 74.5494 23.1888 74.3251 23.4144 74.1331C23.7369 73.7809 23.9526 73.3641 23.9651 72.8609C23.9882 72.4005 23.7652 71.8644 23.4558 71.5314C22.7941 70.8759 21.6271 70.7542 20.8963 71.4798Z" fill="black" fill-opacity="0.15"/>
<path d="M52.6859 70.743C52.8779 70.9685 53.1022 71.1406 53.2942 71.3661C53.6465 71.6886 54.0634 71.9041 54.5667 71.9166C55.0272 71.9396 55.5635 71.7166 55.8966 71.4072C56.5417 70.7027 56.6636 69.536 55.9485 68.8483C55.7565 68.6228 55.5322 68.4507 55.3403 68.2252C54.988 67.9027 54.571 67.6871 54.0677 67.6747C53.6073 67.6517 53.071 67.8747 52.7379 68.1841C52.0928 68.8886 51.9708 70.0553 52.6859 70.743Z" fill="black" fill-opacity="0.15"/>
<path d="M143.471 44.5644C143.755 45.9038 142.668 47.3991 141.265 47.4264C138.919 47.504 138.81 51.1228 141.166 51.088C144.915 50.9831 147.809 47.4061 146.987 43.6984C146.513 41.4054 142.954 42.2819 143.471 44.5644Z" fill="black" fill-opacity="0.15"/>
<path d="M98.2757 59.3783C98.3998 60.6208 98.7706 61.757 99.27 62.8616C99.6738 63.7624 100.958 63.9917 101.763 63.5662C102.686 63.0661 102.872 61.9746 102.468 61.0737C102.128 60.2481 101.917 59.3908 101.834 58.5018C101.731 57.527 100.501 56.966 99.6437 57.1772C98.5717 57.4412 98.172 58.4035 98.2757 59.3783Z" fill="black" fill-opacity="0.15"/>
<path d="M28.5535 98.6924C27.0627 99.2869 25.657 100.042 24.283 100.926C23.4565 101.448 23.0779 102.496 23.578 103.419C24.0464 104.213 25.2444 104.645 26.0709 104.123C27.445 103.239 28.8506 102.484 30.3414 101.889C31.2531 101.528 31.472 100.201 31.0464 99.3969C30.4929 98.442 29.4546 98.2886 28.5535 98.6924Z" fill="black" fill-opacity="0.15"/>
<path d="M31.5116 110.149C34.9713 107.023 38.9126 104.007 43.7579 105.769C45.9612 106.59 47.0019 103.06 44.8091 102.282C38.7124 100.055 33.4413 103.581 29.004 107.538C27.2527 109.106 29.8032 111.706 31.5116 110.149Z" fill="black" fill-opacity="0.15"/>
<path d="M94.7238 94.4438C95.1401 94.8414 95.5241 95.2925 95.9404 95.6901C96.6126 96.3884 97.8547 96.4462 98.4998 95.7417C99.1878 95.0266 99.2669 93.8705 98.5518 93.1828C98.1355 92.7852 97.7515 92.3341 97.3353 91.9365C96.663 91.2382 95.4209 91.1804 94.7758 91.8849C94.0772 92.5571 93.9982 93.7132 94.7238 94.4438Z" fill="black" fill-opacity="0.15"/>
<path d="M108.762 86.258C110.758 87.9031 112.982 89.1742 115.42 90.0284C117.656 90.7963 118.664 87.3199 116.472 86.5414C114.632 85.9034 112.9 84.9658 111.416 83.7401C110.668 83.1058 109.587 82.9629 108.856 83.6885C108.147 84.3178 107.971 85.6342 108.762 86.258Z" fill="black" fill-opacity="0.15"/>
<path d="M154.561 70.2041C155.35 71.1919 152.017 74.8317 151.361 75.4933C149.824 77.0085 148.064 78.1695 146.1 79.0622C143.976 80.04 145.754 83.1941 147.888 82.2592C152.104 80.357 161.405 73.065 157.172 67.6968C155.711 65.8287 153.111 68.3788 154.561 70.2041Z" fill="black" fill-opacity="0.15"/>
</svg>
