<svg width="96" height="138" viewBox="0 0 96 138" fill="none" xmlns="http://www.w3.org/2000/svg">
<g opacity="0.15">
<path d="M67.8286 80.0636C64.983 85.4685 59.1521 87.5999 54.5118 91.0648C48.9019 95.2538 43.9644 100.516 38.9412 105.346C33.6063 110.452 28.3578 115.557 22.9194 120.525C17.6369 125.354 12.6649 130.512 7.27891 135.203C8.21175 135.672 9.11005 136.123 10.0429 136.592C16.8794 114.116 21.7629 91.134 25.9033 67.9952C26.2701 65.9733 23.1243 65.3444 22.7575 67.3662C18.6345 90.4705 13.7336 113.487 6.89712 135.963C6.39258 137.656 8.60472 138.248 9.6611 137.352C15.2204 132.489 20.3655 127.158 25.8558 122.173C31.2942 117.206 36.5427 112.1 41.8776 106.994C46.9527 102.147 51.9252 96.6431 57.7421 92.7312C62.6414 89.4397 67.8678 86.9613 70.7481 81.4874C71.616 79.674 68.7829 78.2505 67.8286 80.0636Z" fill="black"/>
<path d="M24.2277 67.11C26.0588 68.0301 27.4992 65.1634 25.6681 64.2433C23.8196 63.3578 22.3966 66.1899 24.2277 67.11Z" fill="black"/>
<path d="M43.017 60.8052C44.8482 61.7253 46.2886 58.8587 44.4574 57.9386C42.6089 57.053 41.1859 59.8851 43.017 60.8052Z" fill="black"/>
<path d="M58.8077 86.8212C45.2769 91.9615 31.5563 96.8767 17.2005 99.2667C15.2115 99.6082 15.3785 102.807 17.4195 102.448C32.0174 100.007 46.0319 95.1094 59.8222 89.8832C61.7256 89.1093 60.7283 86.0992 58.8077 86.8212Z" fill="black"/>
<path d="M38.092 106.433C30.3398 109.632 22.2094 111.689 14.2679 114.404C12.3301 115.074 13.3275 118.084 15.2653 117.414C23.1894 114.734 31.3372 112.642 39.0893 109.443C40.9754 108.704 39.9608 105.642 38.092 106.433Z" fill="black"/>
<path d="M26.9383 69.2939C32.9873 80.2495 37.8946 91.4965 42.1438 103.278C42.8665 105.198 45.8769 104.202 45.1542 102.282C40.8017 90.2752 35.7739 78.7514 29.587 67.5535C28.622 65.7709 25.9733 67.5113 26.9383 69.2939Z" fill="black"/>
<path d="M18.0778 92.3536C21.8845 100.279 24.739 108.894 26.3138 117.558C26.6906 119.565 29.8551 119.381 29.4957 117.34C27.8349 108.417 25.0154 99.5597 21.0882 91.3573C20.227 89.5404 17.182 90.5193 18.0778 92.3536Z" fill="black"/>
<path d="M13.3349 114.022C13.3606 118.88 14.2855 123.67 14.3977 128.528C14.4458 130.585 17.6277 130.367 17.5796 128.31C17.4329 123.435 16.5425 118.662 16.5168 113.804C16.5033 111.764 13.3214 111.982 13.3349 114.022Z" fill="black"/>
<path d="M35.2819 35.8953C32.96 29.1484 29.1015 21.1536 34.4904 14.907C40.3646 8.03905 49.6402 3.78868 58.5631 3.34074C74.9389 2.52821 92.0503 15.4951 91.8285 32.73C91.709 41.3215 86.5434 48.4157 79.1702 52.4107C79.843 53.2247 80.5332 54.004 81.2061 54.818C82.7133 53.1961 85.4607 54.1873 87.1191 55.0206C89.2267 56.0796 90.8661 57.8117 91.6573 60.1126C93.2568 64.7662 91.8105 70.831 89.8833 75.1833C86.6885 82.4026 76.7959 83.661 70.5612 79.7064C66.9861 77.4342 65.8172 73.7323 67.1558 69.7763C67.7121 68.1525 65.431 67.4389 64.3918 68.3875C60.8584 71.7165 55.4797 72.4312 51.0912 70.5722C47.1174 68.9216 44.2367 65.1815 45.87 60.8112C44.8677 60.4807 43.8828 60.1156 42.8806 59.785C42.3894 63.6044 40.3437 66.5562 36.4519 67.3259C32.4043 68.1472 28.0321 66.8587 24.4388 65.1397C20.4826 63.2816 16.7356 60.4905 14.2525 56.8203C11.4934 52.752 11.4319 48.5684 13.7395 44.2342C17.4353 37.2234 25.8966 33.9048 33.0651 37.8095C34.8616 38.7987 36.3019 35.932 34.5055 34.9429C27.5789 31.1597 18.9994 32.9049 13.7497 38.7023C9.57417 43.3092 7.43549 49.8046 10.0357 55.6532C14.0306 64.6683 25.8793 71.66 35.7542 70.609C41.4786 69.9815 45.359 66.0482 46.0437 60.3794C46.2715 58.7203 43.7319 57.574 43.0543 59.3532C40.8476 65.2089 43.7942 70.7124 49.3227 73.2307C55.1794 75.8707 62.0974 74.9345 66.7568 70.4843C65.824 70.0155 64.9257 69.5642 63.9928 69.0955C60.4635 79.6505 71.8806 86.2092 81.1337 84.8457C86.0456 84.1127 90.5463 81.3563 92.6469 76.745C95.112 71.4084 96.7686 63.8056 94.3408 58.2167C92.1887 53.1988 83.6229 47.5106 78.8758 52.6521C77.5764 54.0324 79.4058 55.9033 80.9117 55.0594C88.2156 51.116 93.6575 44.2472 94.7794 35.8998C95.8838 27.6734 93.0115 19.3522 87.6975 13.0485C81.3656 5.49788 71.9509 0.724039 62.0962 0.184636C51.6191 -0.407943 41.721 3.78925 34.0484 10.7917C30.7576 13.81 28.4511 17.5392 28.4255 22.0684C28.3989 27.1162 30.6028 32.2033 32.2195 36.9088C32.9422 38.8292 35.9526 37.8329 35.2819 35.8953Z" fill="black"/>
<path d="M14.6752 71.4808C11.3686 73.6693 9.0465 76.4822 7.91563 80.283C7.72425 80.9222 8.17229 81.753 8.77699 82.0136C11.7312 83.3682 15.2776 82.4249 17.2708 79.836C19.5067 76.85 18.2677 73.632 15.4356 71.6898C13.7605 70.5454 12.3201 73.412 13.9952 74.5565C17.38 76.8628 13.0506 80.484 10.2346 79.1988C10.5102 79.7699 10.8203 80.3583 11.0959 80.9294C11.9659 77.9924 13.9409 75.8702 16.4684 74.1987C18.1305 73.0439 16.3717 70.3434 14.6752 71.4808Z" fill="black"/>
<path d="M67.123 87.6685C65.9967 88.9627 64.9741 90.3089 64.0723 91.7592C63.4133 92.8123 62.9099 93.9003 62.4928 95.075C61.9884 96.6816 61.9504 98.5659 63.2102 99.8478C64.2112 100.87 65.9056 100.943 67.1516 100.357C67.8958 99.9959 68.5536 99.5479 69.1254 98.9267C69.6452 98.3228 70.0787 97.6322 70.3741 96.8722C70.5651 96.4058 70.739 95.8876 70.8264 95.3692C70.9312 94.8162 70.9495 94.263 70.9678 93.7099C70.9872 92.5517 70.7818 91.4103 70.4726 90.3033C70.404 90.0092 70.2834 89.7324 70.1974 89.4729C70.0425 89.0922 69.7838 88.7459 69.4038 88.555C69.0583 88.3814 68.5742 88.3112 68.1936 88.466C67.8129 88.6208 67.432 88.862 67.2757 89.2593C67.0848 89.6392 67.0321 90.0886 67.187 90.4692C67.4107 91.0574 67.5652 91.6974 67.7196 92.3373C67.7026 92.199 67.6855 92.0607 67.6512 91.9569C67.8226 92.7352 67.8903 93.5478 67.837 94.3429C67.8545 94.2219 67.8548 94.0491 67.8723 93.9281C67.8193 94.5503 67.7317 95.1552 67.5232 95.7425C67.5926 95.6043 67.6101 95.4834 67.6795 95.3452C67.523 95.8289 67.2974 96.2779 67.0027 96.6922C67.0721 96.5541 67.1587 96.4678 67.2282 96.3296C67.0027 96.6922 66.7255 96.9855 66.3964 97.296C66.483 97.2097 66.6215 97.1063 66.7082 97.02C66.4657 97.2443 66.1715 97.3992 65.8772 97.5542C65.9984 97.4853 66.1195 97.4164 66.2234 97.382C65.9984 97.4853 65.7389 97.5712 65.4967 97.6225C65.6351 97.6055 65.7734 97.5885 65.8772 97.5542C65.687 97.5884 65.4622 97.6052 65.2892 97.6048C65.4103 97.6224 65.5832 97.6227 65.7042 97.6403C65.5313 97.6399 65.3757 97.605 65.2375 97.5355C65.3757 97.605 65.4967 97.6225 65.6349 97.692C65.4967 97.6225 65.3757 97.605 65.2549 97.501C65.3931 97.5705 65.4794 97.6571 65.6176 97.7265C65.4794 97.6571 65.3931 97.5705 65.3241 97.4493C65.4104 97.5359 65.5139 97.6744 65.6002 97.7611C65.5139 97.6744 65.4104 97.5359 65.3588 97.3802C65.4278 97.5014 65.4967 97.6225 65.5311 97.7263C65.445 97.5533 65.3934 97.3976 65.3591 97.2074C65.3762 97.3457 65.3932 97.484 65.4276 97.5878C65.3935 97.3111 65.3595 97.0345 65.3773 96.7406C65.3598 96.8616 65.3595 97.0345 65.3419 97.1555C65.3948 96.6197 65.5168 96.1186 65.6906 95.6003C65.6212 95.7385 65.6037 95.8595 65.5343 95.9976C65.9689 94.702 66.68 93.5452 67.4255 92.4059C67.3561 92.544 67.2695 92.6303 67.2001 92.7684C67.8936 91.7326 68.6735 90.7835 69.5052 89.8172C69.7997 89.4893 69.9215 89.0747 69.9223 88.6425C69.9058 88.2449 69.6991 87.795 69.3883 87.5523C69.043 87.2923 68.6629 87.1013 68.2133 87.1349C67.7982 87.1859 67.383 87.3233 67.123 87.6685Z" fill="black"/>
<path d="M6.33093 58.1175C4.61811 58.6843 3.44341 58.0941 2.85338 59.2684C2.57302 61.2904 3.6985 60.4284 4.87319 61.0186" fill="#E1006B"/>
<path d="M5.84961 56.5779C4.9327 56.8525 3.98187 56.7641 3.0995 57.0561C1.88836 57.4858 1.22938 58.5389 1.24436 59.8009C1.24261 60.7517 1.6733 61.6169 2.5544 62.0164C2.86534 62.1726 3.1938 62.2079 3.52226 62.2432C3.67781 62.2781 3.81617 62.2611 3.97173 62.296C4.05818 62.2962 4.12728 62.3309 4.21373 62.3311C4.02363 62.2788 3.98908 62.2615 4.17918 62.3137C4.95663 62.6611 5.9081 62.4038 6.30724 61.6094C6.68903 60.8496 6.37967 59.829 5.60222 59.4816C5.15307 59.2559 4.65186 59.1339 4.11595 59.0809C4.0814 59.0635 3.64913 59.0626 3.63193 59.0107C3.63209 58.9243 4.25367 59.4096 4.25367 59.4096C4.30541 59.4789 4.37388 59.8593 4.3742 59.6865C4.37451 59.5136 4.25288 59.8418 4.20082 59.9454C4.33949 59.7555 4.27007 59.8937 4.14891 59.9626C3.97584 60.0487 4.42563 59.9286 4.09701 59.9798C4.23537 59.9628 4.37372 59.9458 4.51208 59.9288C5.29032 59.844 6.06856 59.7592 6.82976 59.5361C8.81915 59.0216 7.78725 55.9942 5.84961 56.5779Z" fill="black"/>
<path d="M2.74386 100.135C3.6393 102.142 5.58384 107.229 2.12459 107.827C2.69426 108.329 3.26394 108.832 3.79906 109.317C3.8554 106.879 4.46517 104.374 6.00763 102.424C7.29009 100.819 4.9079 98.6703 3.62544 100.275C1.51109 102.933 0.675244 106.147 0.617163 109.535C0.59838 110.347 1.53059 111.162 2.29164 111.025C8.36264 109.966 7.70009 103.534 5.75429 99.1388C4.92779 97.2528 1.91736 98.2491 2.74386 100.135Z" fill="black"/>
<path d="M59.0316 11.8816C58.0788 12.8304 57.2297 13.8313 56.277 14.7801C54.8046 16.2464 57.2041 18.3605 58.6592 16.9287C59.6119 15.9799 60.461 14.979 61.4137 14.0303C62.8516 12.5466 60.504 10.4153 59.0316 11.8816Z" fill="black"/>
<path d="M70.3343 24.2658C71.4378 25.945 72.7146 27.4517 73.9047 29.0446C75.1294 30.6549 77.8127 28.9318 76.588 27.3216C75.3978 25.7286 74.0865 24.2046 73.0175 22.5427C71.8623 20.7943 69.2136 22.5347 70.3343 24.2658Z" fill="black"/>
<path d="M61.5397 30.2286C60.1371 31.2975 58.9418 32.5569 57.7981 33.8856C56.4466 35.4559 58.8461 37.57 60.1803 36.0343C61.1334 34.9126 62.121 33.8083 63.2812 32.8773C64.8915 31.6533 63.1673 28.9701 61.5397 30.2286Z" fill="black"/>
<path d="M87.3231 38.0796C88.2574 37.7704 89.0875 37.6684 90.1769 37.6534C91.0414 37.6552 91.7346 36.7923 91.6669 35.9797C91.5994 35.0806 90.8225 34.4739 89.9925 34.4894C88.7821 34.4869 87.5022 34.7089 86.3603 35.0868C85.5298 35.3617 85.0613 36.2942 85.3538 37.09C85.5944 37.903 86.4926 38.3544 87.3231 38.0796Z" fill="black"/>
<path d="M68.4942 37.6595C68.6135 38.6279 68.318 39.4743 68.1605 40.4766C68.0379 41.3234 68.5551 42.1889 69.4193 42.3636C70.249 42.5209 71.1664 41.987 71.3063 41.1056C71.4988 39.8613 71.8121 38.721 71.6761 37.4415C71.5912 36.577 70.849 35.9012 70.0016 35.9513C69.1543 36.0013 68.4093 36.795 68.4942 37.6595Z" fill="black"/>
<path d="M42.2278 38.6068C43.5924 39.3357 44.9048 40.2547 45.8536 41.4668C47.1128 43.0945 49.7961 41.3714 48.5368 39.7438C47.2258 38.0468 45.5511 36.7295 43.6508 35.7747C41.8544 34.7855 40.414 37.6522 42.2278 38.6068Z" fill="black"/>
<path d="M57.4305 26.9527C58.5181 27.8885 59.7617 28.5999 60.8493 29.5357C62.4376 30.8529 64.5687 28.5063 62.9977 27.1546C61.9101 26.2188 60.6665 25.5074 59.5789 24.5716C57.9905 23.2544 55.8595 25.601 57.4305 26.9527Z" fill="black"/>
<path d="M85.952 22.0341C85.8305 22.2759 85.7264 22.4831 85.6049 22.7249C85.414 23.1048 85.3958 23.5715 85.5162 23.9348C85.6366 24.2981 85.9471 24.7136 86.3099 24.8527C87.0874 25.2001 88.0388 24.9428 88.438 24.1484C88.5594 23.9067 88.6636 23.6994 88.785 23.4577C88.9759 23.0777 88.9941 22.611 88.8737 22.2477C88.7534 21.8845 88.4429 21.4689 88.08 21.3298C87.3026 20.9825 86.3511 21.2398 85.952 22.0341Z" fill="black"/>
<path d="M51.5264 21.8232C49.9867 22.304 48.43 22.56 46.8046 22.6085C44.7643 22.6215 44.9487 25.7854 47.0235 25.7898C48.891 25.7764 50.7936 25.4347 52.541 24.8852C54.4614 24.2496 53.4814 21.205 51.5264 21.8232Z" fill="black"/>
<path d="M64.1078 15.8165C64.1403 16.9575 64.7264 17.9441 65.3819 18.7926C65.8648 19.4678 66.867 19.7984 67.577 19.2467C68.2522 18.7641 68.5826 17.7621 68.0306 17.0522C67.789 16.7578 67.5649 16.4289 67.3752 16.1173C67.2545 15.9269 67.4098 16.1347 67.3924 16.1692C67.4098 16.1347 67.3236 15.9616 67.3064 15.9097C67.2205 15.6502 67.2202 15.8231 67.2891 15.9442C67.2373 15.875 67.255 15.6676 67.2552 15.5811C67.2394 14.7513 66.4109 13.9889 65.5807 14.0909C64.6987 14.2101 64.0922 14.9003 64.1078 15.8165Z" fill="black"/>
<path d="M76.896 38.507C78.399 39.219 79.9719 39.5335 81.6493 39.3814C83.6728 39.1437 83.4884 35.9797 81.4304 36.2001C80.289 36.3187 79.321 36.1784 78.319 35.6749C76.4879 34.7548 75.0303 37.5696 76.896 38.507Z" fill="black"/>
<path d="M75.4819 45.8857C75.48 46.9229 75.6165 47.9431 75.6665 48.9632C75.6649 49.8276 76.5281 50.5209 77.3409 50.4534C78.2402 50.3862 78.8468 49.6095 78.831 48.7797C78.8329 47.7425 78.6791 46.7568 78.6464 45.7022C78.648 44.8378 77.7848 44.1445 76.972 44.212C76.0901 44.2447 75.4835 45.0213 75.4819 45.8857Z" fill="black"/>
<path d="M57.3811 44.4472C57.397 45.1906 57.5513 45.917 57.5672 46.6604C57.583 47.4902 58.4289 48.2181 59.2417 48.1506C60.1583 48.0488 60.7302 47.3413 60.7318 46.4769C60.7159 45.7335 60.5616 45.0071 60.5456 44.2638C60.5299 43.4339 59.684 42.7061 58.8712 42.7735C57.9891 42.8927 57.3827 43.5829 57.3811 44.4472Z" fill="black"/>
<path d="M81.9174 15.7676C80.9658 16.1114 80.4111 16.8709 79.9599 17.7688C79.5781 18.5287 79.8875 19.5493 80.6649 19.8967C81.4424 20.244 82.3938 19.9867 82.793 19.1924C82.845 19.0887 82.8797 19.0197 82.9318 18.9161C83.0012 18.7779 83.2265 18.5018 82.8973 18.8987C82.9839 18.8124 83.0359 18.7088 83.1052 18.6571C83.2958 18.4501 82.8455 18.8294 83.0186 18.7434C83.1397 18.6745 83.2954 18.6229 82.8974 18.8123C83.6933 18.5201 84.231 17.6223 83.9039 16.8091C83.6288 15.9787 82.7652 15.4583 81.9174 15.7676Z" fill="black"/>
<path d="M81.3254 27.4526C81.3432 27.1587 81.2557 27.7636 81.221 27.8327C81.1687 28.0227 81.1514 28.0572 81.2208 27.9191C81.1861 27.9882 81.1514 28.0572 81.1339 28.1782C80.9949 28.541 80.8213 28.8863 80.6478 29.2317C80.266 29.9915 80.5754 31.0121 81.3528 31.3595C82.1303 31.7069 83.0817 31.4496 83.4809 30.6552C84.0188 29.5846 84.4704 28.5137 84.4899 27.2691C84.5261 26.4221 83.5764 25.7286 82.8155 25.7788C81.899 25.7942 81.3789 26.571 81.3254 27.4526Z" fill="black"/>
<path d="M88.9893 44.0644C89.8351 44.8787 90.8714 45.486 91.7172 46.3003C93.2015 47.7382 95.35 45.3571 93.8656 43.9191C93.0198 43.1049 91.9835 42.4976 91.1378 41.6833C89.636 40.2799 87.5222 42.6784 88.9893 44.0644Z" fill="black"/>
<path d="M43.122 12.9717C43.6748 13.2495 44.2622 13.5446 44.815 13.8224C45.5751 14.2043 46.5958 13.8953 46.943 13.1181C47.2903 12.3409 47.0327 11.3895 46.238 10.9903C45.6852 10.7125 45.0979 10.4174 44.5451 10.1396C43.785 9.7577 42.7643 10.0667 42.417 10.8439C42.0698 11.6211 42.3274 12.5724 43.122 12.9717Z" fill="black"/>
<path d="M34.778 27.7693C35.1748 28.2714 35.5891 28.6526 36.1938 28.9132C36.4702 29.0521 36.7813 29.1219 37.075 29.2262C37.2651 29.2785 37.2997 29.2959 37.1441 29.261C37.2478 29.313 37.3688 29.3306 37.4379 29.3653C38.2153 29.7127 39.2014 29.4727 39.5659 28.661C39.9132 27.8838 39.6729 26.8979 38.8609 26.5332C38.4809 26.3422 38.1007 26.2377 37.6859 26.1158C37.3922 26.0115 37.7896 26.1679 37.4786 26.0117C37.3059 25.9249 37.3578 25.9077 37.4613 26.0462C36.9265 25.3882 36.028 25.0232 35.2662 25.5921C34.6257 26.0056 34.2087 27.0939 34.778 27.7693Z" fill="black"/>
<path d="M50.7506 29.9984C50.473 30.551 50.1779 31.1382 49.9003 31.6908C49.5185 32.4506 49.8279 33.4712 50.6053 33.8186C51.3828 34.166 52.3342 33.9087 52.7334 33.1143C53.011 32.5617 53.306 31.9746 53.5837 31.422C53.9655 30.6621 53.6561 29.6415 52.8787 29.2941C52.1186 28.9122 51.1671 29.1695 50.7506 29.9984Z" fill="black"/>
<path d="M52.8073 39.9429C51.9415 40.6326 51.3866 41.4785 50.8662 42.4282C50.4844 43.188 50.7937 44.2086 51.5712 44.556C52.3486 44.9034 53.3001 44.6461 53.6992 43.8517C53.8381 43.5754 53.9943 43.2646 54.1676 43.0056C54.0116 43.23 54.289 42.8503 54.3063 42.8158C54.3237 42.7812 54.6354 42.5053 54.4969 42.6087C55.1549 42.0742 55.4851 41.1587 54.9505 40.4142C54.5886 39.7565 53.5172 39.3912 52.8073 39.9429Z" fill="black"/>
<path d="M65.6897 30.0645C65.7932 30.203 65.8967 30.3416 65.9829 30.5146C66.0001 30.5665 66.0173 30.6184 66.0518 30.6358C66.0001 30.5665 66.0002 30.4801 65.9485 30.4108C66.0002 30.4801 66.0346 30.5839 66.0344 30.6703C66.0516 30.7222 66.086 30.826 66.1032 30.8779C66.1548 31.0336 66.0521 30.4629 66.0688 30.7741C66.1031 30.9643 66.1028 31.1372 66.0851 31.3446C66.1008 32.1744 66.9468 32.9023 67.7596 32.8348C68.6762 32.733 69.248 32.0255 69.2496 31.1611C69.2515 30.1239 68.9075 29.1724 68.3211 28.3586C67.8382 27.6834 66.8359 27.3528 66.126 27.9045C65.4855 28.3181 65.1896 29.3374 65.6897 30.0645Z" fill="black"/>
<path d="M82.3423 48.0783C83.3271 48.5299 84.2609 48.48 85.2816 48.171C86.0601 47.9133 86.5806 46.9636 86.2881 46.1678C85.9956 45.372 85.1147 44.8861 84.2842 45.1609C84.1804 45.1953 84.0766 45.2296 83.9728 45.264C83.9209 45.2811 83.869 45.2983 83.8171 45.3155C83.6614 45.367 84.2148 45.2991 83.9555 45.2985C83.9209 45.2811 83.8171 45.3155 83.7826 45.2981C83.7826 45.2981 84.1801 45.3681 83.9555 45.2985C83.8864 45.2638 83.6617 45.1942 83.9036 45.3157C84.1973 45.42 83.869 45.2983 83.8344 45.281C83.057 44.9336 82.0536 45.2081 81.7064 45.9852C81.2729 46.6758 81.5477 47.6791 82.3423 48.0783Z" fill="black"/>
<path d="M70.0853 46.8942C69.1179 46.4082 68.1676 46.0604 67.0437 46.058C66.1965 46.0217 65.4686 46.9537 65.5536 47.7318C65.6557 48.6482 66.329 49.2028 67.2281 49.222C67.0552 49.2216 67.5046 49.2744 67.5046 49.2744C67.5046 49.2744 67.9885 49.431 67.7293 49.3441C68.023 49.4484 68.334 49.6046 68.6104 49.7435C69.3705 50.1254 70.3912 49.8164 70.7384 49.0392C71.1721 48.2622 70.9145 47.3109 70.0853 46.8942Z" fill="black"/>
<path d="M52.0154 9.74049C52.6547 10.0184 53.3463 10.0199 53.9695 9.64089C54.281 9.45138 54.5063 9.17526 54.6625 8.86442C55.0443 8.10459 54.7349 7.08399 53.9575 6.73661C53.1455 6.37186 52.2286 6.64652 51.8294 7.44089L51.8121 7.47543C51.8815 7.33728 51.9681 7.25103 52.0375 7.11288C52.0202 7.14741 51.9683 7.16459 51.9336 7.23367C52.0202 7.14742 52.1587 7.04398 52.2453 6.95773C52.2279 6.99227 52.1934 6.97491 52.176 7.00945C52.2972 6.94055 52.4184 6.87166 52.5222 6.8373L52.4703 6.85448C52.6086 6.83749 52.747 6.82049 52.8508 6.78613C52.8162 6.76877 52.7989 6.80331 52.7643 6.78595C52.8853 6.8035 53.0583 6.80386 53.1793 6.8214C53.1447 6.80404 53.0928 6.82122 53.0583 6.80386C53.1964 6.8733 53.3175 6.89084 53.4557 6.96028L53.4211 6.94292C53.0237 6.7865 52.6261 6.71651 52.2109 6.85393C51.8476 6.97418 51.432 7.28447 51.293 7.64721C51.1022 8.02713 51.0495 8.47648 51.2044 8.85713C51.3766 9.20324 51.618 9.58406 52.0154 9.74049Z" fill="black"/>
<path d="M58.5377 17.1705C57.5503 18.1883 57.1155 19.5704 57.5107 20.9369C57.7512 21.7499 58.7532 22.2534 59.5145 21.9438C60.3278 21.617 60.7962 20.771 60.5211 19.9406C60.4181 19.5428 60.5206 20.1999 60.5039 19.8887C60.5042 19.7158 60.4868 19.7504 60.4864 20.0097C60.4865 19.9232 60.5212 19.8542 60.5214 19.7677C60.5736 19.5777 60.5563 19.6122 60.504 19.8023C60.5387 19.7332 60.5908 19.6296 60.6255 19.5605C60.5042 19.7158 60.5215 19.6813 60.6429 19.526C60.7295 19.4397 60.7815 19.3361 60.8682 19.2498C61.4399 18.6287 61.39 17.5222 60.7513 16.985C60.0951 16.4823 59.1613 16.5321 58.5377 17.1705Z" fill="black"/>
<path d="M72.1047 30.0435C71.9832 30.2852 71.8791 30.4925 71.7576 30.7342C71.5667 31.1141 71.5485 31.5809 71.6689 31.9441C71.7893 32.3074 72.0997 32.723 72.4626 32.862C73.24 33.2094 74.1915 32.9521 74.5907 32.1578C74.7121 31.916 74.8163 31.7088 74.9377 31.467C75.1286 31.0871 75.1468 30.6204 75.0264 30.2571C74.906 29.8938 74.5956 29.4783 74.2327 29.3392C73.4381 28.9399 72.5212 29.2146 72.1047 30.0435Z" fill="black"/>
<path d="M41.2082 19.4504C40.9143 19.4325 41.4502 19.4855 41.5193 19.5202C41.6057 19.5204 41.7094 19.5725 41.7785 19.6072C41.6229 19.5723 41.6229 19.5723 41.7439 19.5898C42.1413 19.7462 42.5559 19.9546 42.936 20.1455C43.6961 20.5274 44.7168 20.2184 45.064 19.4412C45.4113 18.664 45.1537 17.7127 44.359 17.3134C43.2534 16.7579 42.2168 16.3235 40.9719 16.3036C40.1247 16.2673 39.4487 17.1821 39.4818 17.9773C39.5493 18.8764 40.3436 19.4486 41.2082 19.4504Z" fill="black"/>
<path d="M46.6769 16.8343C47.989 17.9261 49.4572 18.7072 50.9774 19.471C52.8086 20.3911 54.2316 17.559 52.4178 16.6044C51.174 15.9794 49.9302 15.3544 48.8253 14.4532C47.2715 13.1533 45.1231 15.5344 46.6769 16.8343Z" fill="black"/>
<path d="M73.5346 14.0212C72.842 14.5384 72.3569 15.0733 71.9405 15.8158C71.5588 16.5756 71.8681 17.5962 72.6456 17.9436C73.423 18.291 74.3745 18.0337 74.7736 17.2393C74.8083 17.1702 74.843 17.1011 74.8778 17.0321L74.9472 16.8939C74.9817 16.9113 74.6525 17.3082 74.8258 17.0492C74.9125 16.963 74.9645 16.8594 75.0511 16.7731C75.0685 16.7386 75.1377 16.6869 75.1896 16.6697C74.947 16.9803 75.103 16.7559 75.1896 16.6697C75.8303 16.1697 76.1952 15.1851 75.6432 14.4752C75.264 13.852 74.2272 13.5041 73.5346 14.0212Z" fill="black"/>
<path d="M63.8829 25.3067C64.7994 25.2914 65.6817 24.9993 66.6155 24.9495C67.4455 24.9339 68.2078 24.1057 68.1056 23.2757C67.9862 22.3938 67.313 21.7528 66.4311 21.7855C65.5147 21.8009 64.6323 22.0929 63.6985 22.1428C62.8686 22.1583 62.1062 22.9865 62.2085 23.8165C62.3279 24.6984 63.001 25.3394 63.8829 25.3067Z" fill="black"/>
<path d="M86.8511 31.4403C87.0747 32.1149 87.5058 32.7209 88.1623 33.0507C88.9224 33.4327 89.9431 33.1237 90.2903 32.3465C90.6549 31.5347 90.38 30.6179 89.5853 30.2186C89.5508 30.2013 89.5508 30.2013 89.5162 30.1839C89.6544 30.2534 89.7407 30.34 89.8789 30.4094C89.8098 30.3747 89.7581 30.3054 89.7063 30.2362C89.7926 30.3228 89.8961 30.4613 89.9824 30.5479C89.8961 30.4613 89.8617 30.3575 89.7754 30.2709C89.8444 30.3921 89.9133 30.5132 89.9477 30.617C89.9305 30.5651 89.8788 30.4959 89.8789 30.4094C89.724 30.0288 89.4653 29.6825 89.0852 29.4915C88.7397 29.3179 88.2557 29.2478 87.875 29.4025C87.4943 29.5573 87.1135 29.7985 86.9572 30.1958C86.8008 30.5931 86.7136 31.0251 86.8511 31.4403Z" fill="black"/>
<path d="M64.2274 35.4723C64.1753 35.5759 64.1059 35.7141 64.0539 35.8177C63.863 36.1976 63.8448 36.6643 63.9652 37.0276C64.0856 37.3909 64.396 37.8065 64.7589 37.9455C65.5363 38.2929 66.4878 38.0356 66.8869 37.2412C66.939 37.1376 67.0084 36.9995 67.0605 36.8959C67.2514 36.5159 67.2695 36.0492 67.1492 35.6859C67.0288 35.3227 66.7183 34.9071 66.3555 34.768C65.578 34.4207 64.6265 34.678 64.2274 35.4723Z" fill="black"/>
<path d="M41.9865 28.7526C41.9863 28.839 41.8996 29.0117 41.8994 29.0981C41.9863 28.839 42.0037 28.8044 41.9169 28.9771C41.8996 29.0117 41.8649 29.0808 41.8475 29.1153C41.7434 29.3225 41.6392 29.5297 41.5351 29.737C41.1533 30.4968 41.4627 31.5174 42.2401 31.8648C43.0176 32.2122 43.9691 31.9549 44.3682 31.1605C44.6632 30.5734 44.9582 29.9862 45.0632 29.3468C45.2203 28.5174 44.686 27.6 43.8044 27.4598C43.0438 27.3372 42.1438 27.8367 41.9865 28.7526Z" fill="black"/>
<path d="M54.0387 28.4495C55.8699 29.3696 57.3102 26.503 55.4791 25.5829C53.648 24.6628 52.2076 27.5294 54.0387 28.4495Z" fill="black"/>
<path d="M50.1186 35.2178C49.9966 35.7189 49.7882 36.2198 49.7182 36.7037C49.561 37.5331 50.0954 38.4505 50.9769 38.5907C51.824 38.7134 52.724 38.214 52.864 37.3327C52.9514 36.8142 53.1424 36.3479 53.2644 35.8468C53.456 35.0347 52.8526 34.0826 52.0056 33.9598C51.124 33.8197 50.345 34.3367 50.1186 35.2178Z" fill="black"/>
<path d="M56.4049 39.3282C56.6813 39.467 56.9577 39.6059 57.2341 39.7448C57.6141 39.9358 58.081 39.954 58.4443 39.8338C58.8076 39.7136 59.2232 39.4033 59.3621 39.0405C59.7094 38.2633 59.4518 37.312 58.6571 36.9127C58.3807 36.7738 58.1043 36.6349 57.8279 36.4961C57.4479 36.3051 56.9811 36.2868 56.6177 36.4071C56.2544 36.5273 55.8389 36.8376 55.6999 37.2004C55.3526 37.9775 55.6103 38.9289 56.4049 39.3282Z" fill="black"/>
<path d="M78.5004 21.6208C78.4483 21.7244 78.4136 21.7935 78.3616 21.8971C78.1707 22.277 78.1525 22.7437 78.2729 23.107C78.3933 23.4703 78.7037 23.8859 79.0666 24.0249C79.844 24.3723 80.7955 24.115 81.1946 23.3206C81.2467 23.217 81.2814 23.1479 81.3335 23.0443C81.5244 22.6644 81.5425 22.1977 81.4222 21.8344C81.3018 21.4711 80.9913 21.0556 80.6285 20.9165C79.8684 20.5346 78.9169 20.7919 78.5004 21.6208Z" fill="black"/>
<path d="M69.952 34.7583C71.7831 35.6784 73.2235 32.8118 71.3924 31.8917C69.5267 30.9543 68.0863 33.8209 69.952 34.7583Z" fill="black"/>
<path d="M84.3974 40.0268C84.2412 40.3377 84.085 40.6485 83.9115 40.9939C83.5297 41.7537 83.839 42.7743 84.6165 43.1217C85.3939 43.4691 86.3454 43.2118 86.7446 42.4174C86.9007 42.1066 87.0569 41.7957 87.2305 41.4504C87.6123 40.6905 87.3029 39.6699 86.5254 39.3225C85.748 38.9752 84.7965 39.2325 84.3974 40.0268Z" fill="black"/>
<path d="M73.346 41.4384C73.3286 41.4729 73.1895 41.9221 73.3111 41.5939C73.2417 41.732 73.2242 41.853 73.1548 41.9912C73.0333 42.2329 72.8945 42.5092 72.773 42.751C72.3912 43.5108 72.7006 44.5314 73.478 44.8788C74.2555 45.2262 75.2069 44.9689 75.6061 44.1745C75.9532 43.4838 76.2483 42.8102 76.4399 42.0845C76.6315 41.2724 76.0108 40.3549 75.1811 40.1976C74.3514 40.0402 73.5724 40.5572 73.346 41.4384Z" fill="black"/>
<path d="M62.163 10.9028C62.1623 11.2486 62.1617 11.5943 62.1611 11.9401C62.1431 12.3204 62.4017 12.7531 62.6951 13.0303C62.9885 13.3075 63.4724 13.4641 63.8701 13.4477C64.2852 13.3967 64.7004 13.2593 64.9604 12.9141C65.2549 12.5862 65.3594 12.2061 65.3775 11.7394C65.3782 11.3937 65.3788 11.0479 65.3794 10.7022C65.3974 10.3219 65.1388 9.88918 64.8454 9.61196C64.552 9.33475 64.0681 9.17814 63.6704 9.19459C63.2553 9.24558 62.8401 9.383 62.5801 9.7282C62.3201 10.0734 62.1811 10.4361 62.163 10.9028Z" fill="black"/>
<path d="M50.573 13.7308C50.9872 14.112 51.4536 14.3896 51.9373 14.6326C52.6974 15.0145 53.7181 14.7055 54.0653 13.9283C54.4126 13.1511 54.155 12.1998 53.3603 11.8005C53.153 11.6963 52.9457 11.5922 52.7558 11.4535C52.894 11.5229 52.9803 11.6095 53.1185 11.679C52.9631 11.5576 52.8422 11.4537 52.6868 11.3323C52.0654 10.7605 50.9587 10.8101 50.4215 11.4486C49.9361 12.1563 49.9344 13.1071 50.573 13.7308Z" fill="black"/>
<path d="M67.5358 22.8596C67.5181 23.0671 67.4659 23.2571 67.3965 23.3953C67.4659 23.2571 67.4834 23.1361 67.5528 22.998C67.4834 23.1361 67.4312 23.3262 67.3618 23.4643C66.98 24.2242 67.2893 25.2448 68.0668 25.5921C68.8442 25.9395 69.7957 25.6822 70.1948 24.8879C70.4204 24.4389 70.6115 23.9725 70.6815 23.4886C70.7514 23.0912 70.6658 22.6588 70.459 22.2953C70.2348 21.9664 69.8203 21.6716 69.4228 21.6017C68.6103 21.4962 67.6757 21.9783 67.5358 22.8596Z" fill="black"/>
<path d="M78.2039 32.4593C78.1504 33.3408 78.2353 34.2053 78.2509 35.1216C78.2666 35.9514 79.1125 36.6793 79.9253 36.6118C80.8419 36.51 81.4138 35.8025 81.4154 34.9381C81.4161 34.5924 81.3993 34.2812 81.3654 33.9181C81.3657 33.7452 81.3315 33.555 81.3318 33.3821C81.3146 33.3302 81.3503 32.7425 81.3151 33.0709C81.3504 32.6561 81.3339 32.2584 81.0925 31.8776C80.8683 31.5487 80.4539 31.2539 80.0563 31.1839C79.313 31.1132 78.2574 31.5777 78.2039 32.4593Z" fill="black"/>
<path d="M43.3811 69.7262C48.226 77.2218 51.9979 85.3028 54.6451 93.8137C55.264 95.7685 58.2744 94.7722 57.6555 92.8174C54.9224 84.0471 51.03 75.6891 46.0298 67.9858C44.9609 66.2375 42.2604 67.9951 43.3811 69.7262Z" fill="black"/>
<path d="M51.1595 71.0391C40.6095 72.4863 30.4535 75.905 21.1416 81.0888C19.3415 82.0877 21.1176 84.7537 22.8658 83.772C31.6585 78.8464 41.3473 75.5823 51.3439 74.2031C53.3674 73.9653 53.2003 70.7668 51.1595 71.0391Z" fill="black"/>
</g>
</svg>
