<svg width="1003" height="170" viewBox="0 0 1003 170" fill="none" xmlns="http://www.w3.org/2000/svg">
<path d="M8.10745 287.546C16.3422 259.938 32.042 237.557 51.4743 217.789C70.9066 198.021 94.6293 184.038 122.085 172.669C168.029 154.777 222.555 148.455 285.662 153.704C315.349 155.022 349.326 162.124 379.571 166.614C402.909 169.048 426.805 174.654 450.143 177.089C543.495 186.827 673.825 183.52 764.811 105.386C779.01 93.0789 795.825 77.0412 809.466 61.562C834.132 34.3337 861.972 6.54692 895.219 -9.11119C861.972 6.54692 837.307 33.7752 809.466 61.562C795.825 77.0412 782.184 92.5205 764.811 105.386C724.83 138.579 676.269 160.201 615.952 170.811C612.777 171.369 612.777 171.369 609.603 171.928C561.984 180.304 506.342 180.283 449.585 173.917C426.247 171.483 402.351 165.876 379.013 163.442C348.768 158.953 315.349 155.022 285.104 150.532C218.823 145.842 164.297 152.164 121.527 169.497C67.1741 195.408 25.6928 238.674 8.10745 287.546Z" fill="#3B3881"/>
<path d="M623.975 179.209L620.8 179.768C570.007 188.703 514.365 188.681 453.875 179.702C430.538 177.268 406.642 171.662 383.304 169.227C353.059 164.738 322.256 157.077 289.394 156.317C222.555 148.455 171.204 154.219 125.259 172.111C69.7907 191.678 24.5769 232.33 6.99156 281.203C15.7843 256.767 31.484 234.385 54.0909 214.059C73.5232 194.291 97.246 180.308 125.259 172.111C171.204 154.219 226.288 151.069 289.394 156.317C319.639 160.807 353.059 164.738 383.304 169.227C406.642 171.662 430.538 177.268 453.875 179.702C547.785 192.612 674.941 189.864 767.042 118.074C784.416 105.208 798.057 89.7283 812.256 77.4208C836.922 50.1925 865.32 25.5775 898.566 9.91943C931.813 -5.73868 967.849 -5.53795 1000.15 -7.95053C964.674 -4.97951 931.813 -5.73868 898.566 9.91943C865.32 25.5775 836.922 50.1925 812.256 77.4208C798.615 92.9001 784.416 105.208 767.042 118.074C730.236 150.707 681.117 169.158 623.975 179.209Z" fill="#3B3881"/>
<path d="M635.172 187.049C631.998 187.608 625.649 188.725 622.474 189.283C571.123 195.046 515.481 195.025 458.166 185.487C434.828 183.053 410.932 177.447 387.036 171.84C356.791 167.351 325.988 159.69 292.569 155.759C226.288 151.069 171.204 154.219 127.876 168.38C69.2328 188.506 24.019 229.159 6.43362 278.031C15.2263 253.595 30.9261 231.214 53.533 210.887C73.5232 194.291 100.421 179.75 124.701 168.939C171.204 154.219 223.113 151.627 289.952 159.489C320.197 163.979 353.617 167.909 384.42 175.571C408.316 181.177 431.653 183.611 455.549 189.218C546.284 202.686 677.731 205.722 769.832 133.932C787.206 121.066 801.405 108.759 815.046 93.2797C840.269 69.2231 868.109 41.4364 901.914 28.95C935.16 13.2919 970.639 10.3209 1006.67 10.5216C974.371 12.9342 938.335 12.7335 904.53 25.2199C870.726 37.7062 842.886 65.4929 817.662 89.5495C803.463 101.857 786.648 117.895 772.449 130.202C735.085 159.664 689.14 177.556 635.172 187.049Z" fill="#3B3881"/>
<path d="M643.195 195.448C636.846 196.565 627.322 198.24 620.973 199.357C569.622 205.12 516.597 201.368 456.107 192.389C432.211 186.783 408.873 184.349 384.978 178.742C354.175 171.081 323.372 163.42 293.127 158.931C229.462 150.51 173.821 150.488 127.318 165.209C71.8494 184.776 26.0777 222.257 5.31773 271.687C14.1104 247.251 32.9848 224.312 56.1496 207.157C76.1398 190.561 103.037 176.02 131.05 167.822C177.553 153.102 229.462 150.51 296.859 161.544C327.104 166.033 357.907 173.695 388.71 181.356C412.606 186.962 436.502 192.568 459.84 195.003C551.133 211.643 679.405 215.238 775.238 146.061C792.612 133.195 806.811 120.888 820.452 105.408C848.85 80.7934 874.074 56.7368 911.053 43.692C944.857 31.2057 980.893 31.4064 1013.2 28.9938C980.335 28.2346 944.299 28.0339 911.053 43.692C877.248 56.1784 848.85 80.7934 823.627 104.85C809.428 117.157 792.612 133.195 778.413 145.503C736.759 169.18 693.988 186.513 643.195 195.448Z" fill="#3B3881"/>
<path d="M654.393 203.288C644.869 204.963 635.345 206.639 622.647 208.872C571.296 214.636 518.271 210.883 457.223 198.733C433.327 193.127 409.431 187.52 385.536 181.914C354.733 174.253 323.93 166.592 293.685 162.102C229.462 150.51 176.995 149.93 130.492 164.65C71.2914 181.604 25.5197 219.085 4.20185 265.344C16.1691 240.349 32.4268 221.14 55.0337 200.813C75.024 184.217 101.921 169.676 129.935 161.478C176.437 146.758 228.904 147.339 296.301 158.372C326.546 162.862 357.349 170.523 388.152 178.184C412.048 183.79 435.944 189.396 459.84 195.003C551.691 214.814 680.521 221.581 776.912 155.576C794.286 142.71 808.485 130.403 825.859 117.537C854.257 92.922 882.655 68.307 916.459 55.8207C943.914 44.4512 979.951 44.6519 1012.81 45.4111C979.951 44.6519 943.914 44.4512 910.11 56.9375C876.305 69.4239 847.907 94.0388 819.509 118.654C805.31 130.961 788.495 146.999 770.563 156.693C738.99 181.867 698.837 195.47 654.393 203.288Z" fill="#3B3881"/>
<path d="M662.416 211.686C649.718 213.92 637.019 216.154 623.763 215.216C571.854 217.807 518.829 214.055 457.781 201.905C433.885 196.298 409.989 190.692 389.268 184.527C358.465 176.866 327.662 169.205 296.859 161.544C232.637 149.952 180.17 149.372 133.109 160.92C73.9081 177.874 24.9618 215.913 3.6439 262.172C15.6112 237.177 31.8689 217.968 54.4758 197.642C74.466 181.046 101.921 169.676 129.935 161.478C176.995 149.93 229.462 150.51 293.685 162.102C324.488 169.764 355.291 177.425 386.094 185.086C409.989 190.692 433.885 196.298 454.606 202.463C546.457 222.275 672.671 232.772 772.795 169.38C790.726 159.686 804.368 144.207 821.741 131.341C850.139 106.726 879.095 85.2827 912.9 72.7964C950.437 62.9234 986.473 63.1241 1019.33 63.8833C986.473 63.1241 950.437 62.9234 916.074 72.238C882.27 84.7243 853.314 106.167 824.916 130.782C810.717 143.09 793.343 155.956 775.969 168.822C743.839 190.823 703.685 204.427 662.416 211.686Z" fill="#3B3881"/>
<path d="M670.997 223.257C655.124 226.049 639.251 228.841 622.82 228.461C574.086 230.494 517.328 224.129 458.897 208.248C435.001 202.642 411.105 197.036 389.826 187.699C359.023 180.038 328.22 172.377 297.417 164.716C232.637 149.952 180.17 149.372 133.109 160.92C73.3501 174.702 27.0205 209.011 2.52802 255.829C14.4953 230.834 30.753 211.624 57.0924 193.911C80.2572 176.757 104.538 165.946 133.109 160.92C180.17 149.372 232.637 149.952 297.417 164.716C328.22 172.377 359.023 180.038 389.826 187.699C413.722 193.305 435.001 202.642 458.897 208.248C548.131 231.79 678.077 244.901 778.201 181.509C796.133 171.815 813.506 158.949 827.705 146.641C856.661 125.198 885.059 100.583 919.422 91.2686C953.784 81.954 989.82 82.1547 1023.24 86.0857C990.378 85.3265 953.784 81.954 919.422 91.2686C885.059 100.583 853.487 125.757 827.705 146.641C810.332 159.507 796.133 171.815 778.201 181.509C745.513 200.339 712.266 215.997 670.997 223.257Z" fill="#3B3881"/>
<path d="M679.02 231.655C659.972 235.006 644.099 237.798 624.494 237.977C575.76 240.01 518.444 230.472 460.013 214.592C436.117 208.985 411.663 200.207 390.942 194.043C360.139 186.382 331.953 174.99 301.15 167.329C235.811 149.394 180.17 149.372 135.726 157.19C75.9668 170.972 26.4625 205.839 1.97007 252.657C13.9373 227.662 33.3696 207.894 56.5345 190.74C79.6993 173.585 103.98 162.774 132.551 157.748C135.726 157.19 138.9 156.631 142.075 156.073C186.519 148.255 239.544 152.007 297.417 164.716C328.22 172.377 359.581 183.21 387.209 191.429C411.105 197.036 432.384 206.372 456.28 211.978C545.515 235.52 672.844 252.361 776.7 191.583C794.632 181.888 812.006 169.023 826.205 156.715C855.161 135.272 883.559 110.657 921.096 100.784C955.458 91.4693 992.052 94.8418 1024.91 95.601C991.494 91.67 955.458 91.4693 921.096 100.784C886.733 110.098 854.603 132.1 826.205 156.715C808.831 169.581 794.632 181.888 776.7 191.583C750.919 212.467 717.115 224.954 679.02 231.655Z" fill="#3B3881"/>
<path d="M687.043 240.053C667.995 243.404 645.215 244.141 622.435 244.879C573.143 243.74 516.385 237.374 457.396 218.322C433.5 212.716 412.221 203.379 387.767 194.601C359.581 183.21 328.22 172.377 297.417 164.716C239.544 152.007 186.519 148.255 138.9 156.631L135.726 157.19C75.4088 167.8 25.9046 202.668 0.854185 246.313C12.8215 221.319 32.2538 201.551 55.9765 187.568C82.3159 169.855 107.155 162.216 135.168 154.018L138.342 153.46C185.961 145.083 238.986 148.835 301.15 167.329C331.953 174.99 363.314 185.823 391.5 197.215C412.779 206.551 436.675 212.157 461.129 220.935C550.921 247.649 678.808 267.661 783.223 210.055C801.154 200.361 818.528 187.495 832.727 175.187C815.353 188.053 797.98 200.919 783.223 210.055C752.593 221.983 721.963 233.911 687.043 240.053Z" fill="#3B3881"/>
</svg>
