<svg width="110" height="119" viewBox="0 0 110 119" fill="none" xmlns="http://www.w3.org/2000/svg">
<g opacity="0.15">
<path d="M83.19 56.6768C78.216 62.7095 72.8523 68.4663 67.018 73.6901C61.2658 78.8414 55.0539 83.5961 48.041 86.9057C47.1827 87.2987 47.2921 88.3329 47.9172 88.8754C55.3164 95.1465 62.3824 101.785 69.0969 108.77C74.0644 113.941 79.7017 119.251 87.4718 118.082C91.4263 117.472 95.1024 115.43 98.1511 112.885C101.444 110.16 104.71 106.62 106.825 102.892C108.548 99.8387 109.199 96.2731 108.504 92.8379C107.722 88.932 105.471 85.8857 103.106 82.7935C96.7156 74.3552 90.2224 66.0075 83.8318 57.5692C82.9547 56.4103 81.2716 57.8962 82.1281 59.0733C87.3882 66.0657 92.7691 72.9879 98.0702 79.944C102.458 85.7002 108.614 92.0111 105.755 99.8606C104.42 103.52 101.325 106.799 98.599 109.462C95.811 112.178 92.504 114.514 88.6979 115.54C85.1308 116.464 81.5787 115.916 78.4049 113.976C75.5666 112.25 73.256 109.84 70.9635 107.45C64.0293 100.258 56.7618 93.4326 49.1406 86.9928C49.0993 87.6493 49.058 88.3059 49.0167 88.9625C56.1914 85.5465 62.6037 80.6878 68.4996 75.4097C74.4776 70.059 79.9669 64.1549 85.0689 57.9362C86.012 56.8117 84.1126 55.5704 83.19 56.6768Z" fill="black"/>
<path d="M81.2852 60.1458C71.285 43.4404 59.7105 27.7236 46.6991 13.2754C45.8304 12.2914 44.3671 13.3645 44.8374 14.5178C46.4172 18.3758 47.4828 22.3959 47.9593 26.535C48.4382 30.6353 48.106 34.6858 47.9053 38.8025C47.7494 42.5149 47.8615 46.2825 49.2133 49.7582C50.8353 53.8708 54.0483 57.3447 56.8003 60.7514C60.2352 65.0144 63.7522 69.2049 67.3307 73.341C68.2694 74.4456 69.9731 72.9415 69.0344 71.8369C65.9264 68.2338 62.8776 64.6149 59.8722 60.9212C57.0659 57.4529 53.7189 53.9514 51.7831 49.897C50.0342 46.2612 50.0188 42.1893 50.2073 38.2657C50.391 34.4194 50.6495 30.6164 50.2513 26.773C49.8016 22.2091 48.6288 17.7365 46.8777 13.519C46.2511 13.9263 45.6426 14.3541 45.016 14.7614C57.9007 29.0661 69.3896 44.6031 79.2836 61.1469C80.0013 62.3736 82.0211 61.393 81.2852 60.1458Z" fill="black"/>
<path d="M52.0635 85.2148C39.2236 70.5057 25.5011 56.5759 10.984 43.5664C10.5022 44.1377 10.0023 44.6885 9.52048 45.2598C16.4554 50.5912 25.3202 49.5861 33.5195 49.6062C37.5124 49.6194 41.5401 50.003 45.2887 51.4357C49.6611 53.12 52.8985 56.2077 55.9775 59.654C59.7263 63.8587 63.5317 68.0864 66.4051 72.9545C67.1409 74.2017 69.1812 73.203 68.4453 71.9558C65.8156 67.5291 62.5134 63.6232 59.111 59.7693C56.161 56.4279 53.1254 52.9068 49.1502 50.7623C45.5696 48.8166 41.6375 47.8379 37.5868 47.511C33.3044 47.1698 29.012 47.6034 24.7355 47.4759C19.7819 47.326 14.7767 46.4557 10.7439 43.3772C9.74475 42.6178 8.34521 44.2181 9.28035 45.0705C23.7974 58.08 37.5404 71.9917 50.3598 86.7189C51.319 87.8054 53.0021 86.3194 52.0635 85.2148Z" fill="black"/>
<path d="M11.2109 43.6579C6.62063 40.1961 4.38599 34.7276 3.35599 29.217C2.41758 24.0996 1.99123 18.2384 3.56825 13.1984C5.28785 7.7407 9.97598 4.40427 15.4708 3.3468C21.0042 2.29171 26.6599 3.60914 31.9485 5.21415C37.7114 6.98405 44.8633 9.78934 45.6514 16.6809C45.8319 18.1265 48.0313 17.6803 47.8689 16.2552C47.1289 9.83189 41.2967 6.08042 35.6847 4.0678C29.8072 1.9613 23.3623 0.246341 17.0626 0.847166C11.1358 1.37403 5.2263 4.40264 2.47952 9.85527C-0.154925 15.0628 0.0262173 21.4323 0.737511 27.0785C1.59556 34.0906 4.15551 41.1687 9.9875 45.5405C11.1544 46.4071 12.3778 44.5245 11.2109 43.6579Z" fill="black"/>
<path d="M41.2293 8.69329C39.9987 7.29933 37.7887 6.98881 36.3856 8.33694C35.0647 9.61259 35.1653 11.7124 36.3236 13.0244C36.8303 13.5983 37.3927 13.9044 37.594 14.7115C37.7482 15.3414 37.6659 16.0342 37.6065 16.6702C37.5131 17.847 37.322 19.0371 37.0741 20.2043C36.8976 21.1627 36.6799 22.1574 36.9487 23.1238C37.2489 24.2085 38.0225 24.5469 38.8153 25.1966C38.6367 24.953 38.4968 24.7118 38.3182 24.4682C38.4822 24.9435 38.2551 25.4723 38.2622 25.9768C38.2741 26.404 38.3632 26.8359 38.4935 27.2316C38.7876 28.1027 39.2822 28.8698 39.7974 29.6188C40.3825 30.4884 41.0086 31.3217 41.2726 32.3654C41.5341 33.4477 41.4045 34.5834 41.316 35.6829C41.1595 37.8638 41.265 39.8864 42.2432 41.9045C43.2394 43.9431 44.7802 45.647 46.3439 47.2941C47.3236 48.3624 49.0273 46.8583 48.0476 45.79C46.794 44.4527 45.5041 43.0745 44.597 41.4679C43.6562 39.7816 43.4311 38.12 43.55 36.2275C43.6472 34.6827 43.8445 33.0859 43.3985 31.5464C42.9681 30.066 41.9546 28.918 41.1645 27.6093C40.7785 26.9652 40.4673 26.3645 40.5339 25.6126C40.603 24.822 40.7783 24.1931 40.2583 23.5214C40.0254 23.2163 39.4896 23.1057 39.2929 22.8416C38.9901 22.4159 39.0603 21.9162 39.128 21.4551C39.243 20.5511 39.492 19.6747 39.6275 18.7526C39.8659 17.1195 40.201 15.1822 39.6029 13.5946C39.2519 12.7006 38.6196 12.274 38.0248 11.5589C37.0524 10.3747 38.4941 9.02892 39.5437 10.2179C40.5054 11.2657 42.1885 9.77976 41.2293 8.69329Z" fill="black"/>
<path d="M7.74273 38.0747C7.43529 37.1059 7.40794 35.9992 8.02505 35.1261C8.19654 34.8653 8.5733 34.4232 8.95954 34.447C9.46166 34.4779 9.30098 34.8751 9.33099 35.3228C9.4186 36.7046 10.1617 37.8359 11.6524 37.8695C12.0978 37.8775 13.095 37.4349 13.4739 37.5746C13.8348 37.6937 14.0782 38.7555 14.5379 39.1521C16.3636 40.6409 18.0554 38.7096 19.9021 38.9396C19.5533 38.6273 19.2227 38.3356 18.874 38.0233C19.0645 38.6941 19.2549 39.365 19.4635 40.0563C19.6564 40.6885 20.121 41.0079 20.7849 40.9324C21.8375 40.8421 22.8201 40.6312 23.8099 40.3045C23.3756 39.8125 22.9593 39.341 22.525 38.849C21.8145 40.8989 23.849 42.4586 25.7356 42.3616C27.0586 42.2879 28.2248 41.6231 29.5645 41.8994C30.8475 42.1528 31.9782 42.9785 33.121 43.611C35.4971 44.9786 38.0726 45.9513 40.7544 46.4653C41.3289 46.5782 41.9675 46.5982 42.5371 46.7883C43.2974 47.029 43.8126 47.7779 44.4195 48.2999C45.5043 49.2391 46.7606 49.9173 48.1268 50.3891C49.5135 50.8428 50.2107 48.6952 48.824 48.2415C47.5145 47.7926 46.4309 47.1443 45.4233 46.21C44.5811 45.4215 43.979 44.8222 42.8119 44.5759C40.4777 44.0833 38.2364 43.6545 36.0701 42.6488C34.1102 41.7528 32.3775 40.3279 30.2593 39.7904C29.2853 39.556 28.3354 39.5557 27.3528 39.7666C27.0389 39.8248 24.3132 40.6262 24.6491 39.6001C24.8883 38.8782 24.1766 37.8651 23.3641 38.1447C22.3742 38.4714 21.3916 38.6823 20.3391 38.7726C20.7856 39.0715 21.2321 39.3704 21.6605 39.6487C21.47 38.9779 21.2795 38.3071 21.071 37.6158C20.9094 37.1018 20.5812 36.7714 20.0429 36.6995C18.7732 36.5438 17.9292 37.3254 16.7607 37.4086C15.8446 37.4879 15.8702 36.7722 15.4045 36.162C15.1716 35.8569 14.8591 35.5856 14.4801 35.446C13.7428 35.1486 12.9714 35.3919 12.2254 35.5398C12.1071 35.5713 11.8089 35.6886 11.716 35.6247C11.3937 35.508 11.6749 35.661 11.5399 35.3425C11.3915 34.9263 11.5233 34.3722 11.3955 33.9379C10.8579 32.005 8.65874 31.8309 7.20271 32.788C5.38206 33.9942 4.87418 36.5217 5.48664 38.498C5.94239 39.883 8.15986 39.4573 7.74273 38.0747Z" fill="black"/>
<path d="M32.2288 30.975C28.4675 28.204 26.3291 23.6719 26.5637 19.0145C25.8563 19.1648 25.1309 19.2946 24.4235 19.4449C26.4474 23.6404 26.7581 28.8742 31.0264 31.5989C32.2572 32.3725 33.4807 30.4899 32.2703 29.6982C28.4871 27.2747 28.2464 22.1616 26.4456 18.4257C25.9656 17.4269 24.3577 17.7156 24.3054 18.8561C24.0379 24.345 26.5574 29.5985 30.9873 32.8371C32.1723 33.7243 33.4162 31.8236 32.2288 30.975Z" fill="black"/>
<path d="M23.1424 27.1783C21.656 25.536 19.5199 24.3577 17.2544 24.3151C15.4342 24.2806 13.4539 26.1748 15.1335 27.829C15.6089 28.2848 16.5516 28.4009 16.9248 27.7067C18.849 23.9287 15.6061 19.3867 11.3146 20.7315C9.94933 21.1709 10.3722 23.3874 11.7375 22.9481C13.9334 22.2497 16.1958 24.1918 15.0254 26.4654C15.6096 26.4238 16.2324 26.3846 16.8167 26.343C16.7224 26.6086 16.7948 26.6906 17.0338 26.589C17.268 26.5647 17.4792 26.5971 17.711 26.6113C18.172 26.6785 18.6669 26.8253 19.1026 26.9878C20.0101 27.3538 20.7486 27.9421 21.4207 28.6619C22.4185 29.7508 24.1197 28.2853 23.1424 27.1783Z" fill="black"/>
<path d="M30.3205 34.1918C30.4194 34.4693 30.7281 35.1086 30.6315 35.4129C30.4103 36.1553 29.4979 35.8665 29.0466 35.6448C28.67 35.4666 28.2054 35.1472 27.9545 34.8216C27.7916 34.6371 27.5601 34.0025 27.4647 33.9773C27.6086 33.2301 27.7501 32.5215 27.894 31.7744C25.468 31.5087 23.0395 31.2817 20.6135 31.016C19.1687 30.8689 19.0279 33.1089 20.4727 33.256C22.8987 33.5217 25.3272 33.7487 27.7532 34.0144C29.0048 34.1496 29.445 32.0831 28.1825 31.8115C26.8814 31.5376 25.6947 32.2205 25.3574 33.5761C24.9826 35.2202 26.3883 36.6055 27.6373 37.3997C28.9635 38.1986 30.7257 38.5397 31.9983 37.4161C33.2915 36.2745 32.9299 34.6239 32.3788 33.2136C31.8072 31.8214 29.7851 32.8407 30.3205 34.1918Z" fill="black"/>
<path d="M20.2027 12.2645C20.7145 12.141 21.2264 12.0174 21.7587 11.8757C22.2911 11.734 22.8958 11.6743 23.3606 11.3734C24.2697 10.7896 24.4622 9.27005 23.2251 8.90311C21.836 8.48804 21.1182 10.6538 22.5279 11.0507C22.5665 11.0531 22.5846 11.0736 22.6232 11.076C22.4036 10.8686 22.1816 10.6999 21.962 10.4925C21.9801 10.513 21.9982 10.5335 21.9958 10.5721C21.9693 10.3766 21.9223 10.1993 21.8958 10.0038C21.8934 10.0424 21.8728 10.0605 21.8704 10.0991C21.9212 9.90841 21.99 9.73818 22.0408 9.54746C21.9333 9.71531 21.9925 9.69956 22.2026 9.44111C22.1434 9.45685 22.0457 9.47021 21.9865 9.48596C21.7342 9.48981 21.4542 9.62765 21.2176 9.69063C20.7444 9.81658 20.2712 9.94253 19.7799 10.048C18.3627 10.3872 18.7855 12.6038 20.2027 12.2645Z" fill="black"/>
<path d="M20.6654 7.9895C20.229 9.68793 19.8313 11.3887 19.3949 13.0872C19.0552 14.4814 21.1818 15.1938 21.542 13.7815C21.9783 12.0831 22.3761 10.3823 22.8124 8.68385C23.1521 7.28964 21.0256 6.57717 20.6654 7.9895Z" fill="black"/>
<path d="M27.4378 15.2882C28.4524 16.727 29.7519 17.9507 31.2434 18.8955C32.4538 19.6873 33.6977 17.7866 32.4874 16.9948C31.1455 16.1368 30.068 15.0818 29.1414 13.7841C28.2849 12.607 26.5993 14.1316 27.4378 15.2882Z" fill="black"/>
<path d="M29.6399 23.74C30.1182 26.309 31.3087 28.6503 33.1487 30.5277C34.1695 31.5598 35.8526 30.0738 34.8524 29.0236C33.2862 27.4151 32.2803 25.531 31.8779 23.2963C31.5791 21.8821 29.3797 22.3283 29.6399 23.74Z" fill="black"/>
<path d="M33.0721 35.4468C34.0485 35.6426 35.0273 35.7998 36.0038 35.9956C35.6599 35.6061 35.2979 35.1961 34.9541 34.8066C34.9347 35.1156 34.9538 35.4269 34.9344 35.7359C34.9013 37.1878 37.1596 37.3462 37.1746 35.8738C37.1941 35.5649 37.1749 35.2535 37.1943 34.9445C37.1969 34.2856 36.7577 33.8709 36.1446 33.7556C35.1682 33.5598 34.1893 33.4026 33.2129 33.2068C32.5998 33.0915 32.0564 33.7171 32.0224 34.2578C31.9811 34.9144 32.4795 35.3134 33.0721 35.4468Z" fill="black"/>
<path d="M36.4767 39.8824C39.3018 38.1178 40.4716 34.3127 38.679 31.3721C37.9432 30.1249 35.9029 31.1237 36.6388 32.3709C37.7088 34.162 37.3168 36.6968 35.4599 37.8619C34.2502 38.6016 35.2465 40.6402 36.4767 39.8824Z" fill="black"/>
<path d="M18.7471 15.3735C18.0614 15.7965 17.4771 15.8381 16.7422 15.5021C16.1955 15.2552 15.4892 15.6963 15.3212 16.2094C15.1074 16.836 15.4801 17.3823 16.0268 17.6292C17.1975 18.1277 18.6568 18.0431 19.7253 17.3916C20.2492 17.075 20.5198 16.4713 20.2473 15.873C20.006 15.3929 19.2711 15.0568 18.7471 15.3735Z" fill="black"/>
<path d="M58.1235 40.3233C60.7247 43.3524 63.3284 46.343 65.9297 49.3721C66.8683 50.4767 68.572 48.9726 67.6333 47.868C65.0321 44.8389 62.4284 41.8483 59.8271 38.8192C58.8679 37.7327 57.1643 39.2368 58.1235 40.3233Z" fill="black"/>
<path d="M38.5544 65.1142C40.8999 67.895 43.5738 70.3858 46.4807 72.5615C47.6476 73.4281 48.871 71.5455 47.7247 70.6608C44.9649 68.6105 42.4769 66.2474 40.2581 63.6101C39.2808 62.5032 37.5977 63.9891 38.5544 65.1142Z" fill="black"/>
<path d="M56.6067 95.2841C60.1605 94.2622 63.6228 92.847 66.8234 90.9698C68.4544 90.004 69.9842 88.7994 71.7395 88.0157C73.3946 87.284 75.2499 87.0687 76.9858 86.594C83.9885 84.6795 90.188 80.7382 96.2668 76.8671C97.479 76.0887 96.5008 74.0706 95.2706 74.8284C89.2509 78.6838 83.067 82.6842 76.0897 84.5034C74.454 84.9261 72.7713 85.1714 71.2007 85.792C69.4913 86.4622 68.0232 87.6124 66.4899 88.5649C63.2845 90.5193 59.7968 92.0299 56.1838 93.0675C54.7823 93.4658 55.2052 95.6824 56.6067 95.2841Z" fill="black"/>
<path d="M64.5296 101.859C77.6804 98.0547 90.3598 92.8064 102.349 86.1975C103.634 85.5012 102.638 83.4625 101.353 84.1589C89.5253 90.6614 77.0234 95.8625 64.0887 99.6217C62.7053 100.041 63.1281 102.257 64.5296 101.859Z" fill="black"/>
<path d="M69.4578 108.889C73.8793 108.56 78.314 108.329 82.6885 107.823C86.2035 107.419 89.4616 106.476 92.6898 105.085C95.6788 103.796 98.598 102.386 101.468 100.837C104.016 99.4627 106.59 97.9928 108.802 96.1129C109.908 95.173 108.406 93.4715 107.3 94.4115C105.209 96.2213 102.719 97.5801 100.31 98.905C97.5196 100.42 94.621 101.812 91.7116 103.067C84.5383 106.153 76.6889 106.116 69.0144 106.69C67.5732 106.796 68.0347 109.014 69.4578 108.889Z" fill="black"/>
</g>
</svg>
