<svg width="99" height="166" viewBox="0 0 99 166" fill="none" xmlns="http://www.w3.org/2000/svg">
<g opacity="0.15">
<path d="M82.5821 40.4291C72.6181 46.1063 60.9972 48.9093 49.9825 51.72C38.7255 54.6251 27.3434 56.9969 15.8635 58.7916C13.2436 59.2191 10.3157 59.9439 7.69362 59.3967C5.31147 58.9057 3.04677 56.6618 4.70048 54.2107C6.18941 52.0233 9.48968 51.4361 11.8471 50.6951C14.6342 49.8533 17.4297 49.0471 20.2335 48.2763C31.4488 45.1935 42.825 42.6355 54.1487 40.0148C60.3794 38.5522 66.6124 36.9389 72.9324 36.018C75.6048 35.6532 79.1582 34.8565 81.8279 35.7676C84.3734 36.6329 84.4107 39.8498 81.9243 40.846C80.1291 41.5675 81.5845 44.2265 83.3797 43.505C87.6256 41.7957 87.9483 35.6061 83.9614 33.4289C81.7071 32.1953 78.9572 32.3907 76.4829 32.634C73.1875 32.92 69.9063 33.4276 66.6669 34.1131C53.1112 36.8827 39.5733 40.2107 26.1762 43.6557C19.6567 45.3361 12.8639 46.8182 6.58043 49.3434C4.19312 50.2789 1.93689 51.9338 1.18187 54.5115C0.539135 56.7628 1.45633 59.0605 3.17102 60.5709C7.55022 64.4189 14.9639 62.0409 20.0521 61.184C26.9558 60.0135 33.8536 58.6568 40.7013 57.0869C48.2294 55.3572 55.7432 53.4058 63.1628 51.214C70.2959 49.0894 77.4315 46.8142 83.93 43.1133C85.7302 42.0906 84.2831 39.4672 82.5821 40.4291Z" fill="black"/>
<path d="M2.36262 57.61C8.46754 70.5799 13.719 83.9376 18.9704 97.2953C24.693 111.855 30.5862 126.337 36.7851 140.673C40.2501 148.674 42.3961 157.172 45.9686 165.148C46.262 165.754 47.0341 165.985 47.6512 165.878C64.4092 163.069 80.7165 158.341 97.1382 154.261C97.9976 154.059 98.3761 153.258 98.2642 152.459C96.9695 142.598 96.0496 132.725 94.9781 122.849C93.996 113.515 92.6475 104.23 92.0318 94.8473C91.037 79.6652 89.5517 64.4857 88.0747 49.3418C87.7902 46.5205 87.5415 43.6908 87.257 40.8695C87.1725 40.0266 87.0797 39.1482 87.031 38.297C86.9833 37.9331 87.1328 36.9603 86.8808 37.6571C86.0214 37.8589 85.1978 38.0522 84.3384 38.2539C83.8909 37.7964 83.9257 37.3006 83.965 37.629C84.3356 39.5298 87.2719 38.8406 86.9371 36.9313C86.8703 36.6469 86.7319 36.3793 86.5303 36.1641C85.7678 35.3304 84.2997 35.675 83.9879 36.7609C83.7334 37.6083 84.0446 38.773 84.1375 39.6514C84.3493 42.0021 84.5969 44.3445 84.8087 46.6953C85.5109 54.032 86.213 61.3687 86.8794 68.7138C87.616 76.68 88.281 84.6631 88.8744 92.6629C89.5199 101.851 90.6119 111.009 91.668 120.175C92.9266 131.17 93.8903 142.196 95.3362 153.184C95.7207 152.568 96.1052 151.953 96.4622 151.382C80.0047 155.47 63.6974 160.198 46.9753 162.998C47.5242 163.245 48.109 163.482 48.658 163.729C45.5424 156.733 43.4951 149.3 40.6935 142.194C37.7726 134.74 34.3312 127.484 31.2671 120.064C25.5957 106.205 20.3014 92.1819 14.6658 78.3142C11.6291 70.8504 8.45756 63.4557 5.05203 56.191C4.18005 54.4078 1.53479 55.854 2.36262 57.61Z" fill="black"/>
<path d="M54.4708 44.9277C53.8303 39.3019 53.2971 33.6509 52.8356 27.983C52.6119 25.26 52.4325 22.564 52.2446 19.8326C52.1935 19.1319 52.1424 18.4313 52.1187 17.6867C52.0794 17.3583 51.8506 16.0618 52.0345 15.7185C52.5122 14.8563 54.9697 14.5419 55.8757 14.2167C66.6984 10.5884 77.5653 6.98721 88.388 3.35888C87.7699 2.97888 87.1518 2.59888 86.5778 2.24603C87.1084 4.18439 87.6389 6.12276 88.1695 8.06112C88.554 7.44576 88.9385 6.83039 89.2955 6.25898C83.787 7.73964 78.3118 9.36249 72.8867 11.1986C70.2953 12.0695 67.7206 13.0115 65.1543 13.989C63.9069 14.4694 62.6953 14.9413 61.448 15.4217C60.4071 15.816 59.0905 16.1626 58.1964 16.8601C56.5705 18.142 57.0986 20.2309 57.3201 21.9793C57.6011 24.4638 57.9179 26.94 58.2347 29.4162C58.8767 34.404 59.5186 39.3919 60.0889 44.3965C60.3164 46.331 63.2443 45.6062 63.061 43.6988C62.5693 39.3509 61.9976 34.9841 61.47 30.6446C61.1758 28.4257 60.9258 26.2339 60.6316 24.015C60.5054 22.9944 60.3875 22.0094 60.2613 20.9888C60.1065 19.5248 59.8965 19.2741 61.2704 18.689C70.6156 14.8824 80.2268 11.726 90.0073 9.13003C90.7867 8.90955 91.361 8.1371 91.1333 7.32788C90.6027 5.38952 90.0721 3.45115 89.5415 1.51279C89.3305 0.774672 88.5381 0.135501 87.7312 0.399934C81.7415 2.40612 75.7519 4.4123 69.718 6.39134C63.6567 8.41434 57.4212 10.1782 51.4625 12.4771C48.8245 13.4715 48.9279 15.3601 49.1014 17.8699C49.2927 20.9381 49.4841 24.0063 49.7553 27.0933C50.2537 33.2401 50.8321 39.4056 51.5179 45.5459C51.7537 47.5159 54.6899 46.8267 54.4708 44.9277Z" fill="black"/>
<path d="M17.0133 83.1642C17.0651 81.6143 17.5695 79.0954 19.7044 79.982C21.1305 80.5849 22.2233 82.5038 22.9976 83.7099C23.8327 85.0141 24.8455 86.9143 22.957 87.8827C21.4733 88.6436 20.1309 87.2709 20.1993 85.792C20.2751 83.8613 17.2626 83.7433 17.1511 85.6824C17.0226 88.6757 19.5449 91.5343 22.7186 91.0518C25.9723 90.5881 27.8638 87.2185 26.7439 84.2182C25.7182 81.4584 22.9647 77.4538 19.8545 76.7586C16.0331 75.9303 14.1593 79.8584 14.0284 83.0023C13.8894 84.9853 16.9376 85.0949 17.0133 83.1642Z" fill="black"/>
<path d="M41.0705 55.7624C38.6088 57.9907 36.11 60.8652 37.2834 64.4155C38.371 67.761 42.1222 67.9681 45.1086 67.4921C48.2739 66.9741 50.9755 64.8021 50.9323 61.399C50.8449 57.9688 48.0921 55.5769 44.9569 54.7751C43.0653 54.2815 42.1538 57.1585 44.0454 57.6521C45.733 58.0811 47.4741 59.0602 47.8364 60.9255C48.2464 63.1548 46.3471 64.2382 44.4159 64.5416C42.887 64.788 40.3685 65.0041 40.0528 63.0153C39.712 60.9198 41.7642 59.2003 43.1669 57.9334C44.5971 56.6224 42.5365 54.4431 41.0705 55.7624Z" fill="black"/>
<path d="M78.6999 73.7845C78.3716 69.8108 73.6886 68.2095 70.3164 69.9388C67.0791 71.599 67.7593 76.4278 69.0798 79.156C70.918 82.9628 75.5991 82.464 78.6039 80.2959C81.4379 78.2053 82.1779 73.7932 78.8389 71.8015C77.1695 70.8056 75.5766 73.355 77.2461 74.3509C80.3726 76.2424 73.5083 81.6046 71.7525 77.6659C71.2706 76.5787 70.7759 74.632 71.1426 73.4582C71.6765 71.87 75.5042 71.7591 75.6875 73.6665C75.835 75.5823 78.8916 75.7274 78.6999 73.7845Z" fill="black"/>
<path d="M57.7261 90.823C56.2627 87.0032 51.374 87.1006 48.6401 89.6178C45.7164 92.292 45.9801 96.9561 49.017 99.4313C50.6541 100.772 52.7272 101.073 54.7634 100.895C56.5406 100.741 59.059 100.525 60.1993 98.9442C61.2763 97.4162 60.5489 94.9614 59.986 93.3682C59.3038 91.4279 58.0355 89.8877 56.0031 89.2771C54.139 88.7395 53.2275 91.6165 55.0916 92.1541C56.1836 92.4604 56.7587 93.3006 57.1439 94.2979C57.3407 94.8143 57.9978 96.6479 57.7316 97.123C57.4378 97.6421 55.6081 97.734 55.0185 97.7974C53.9109 97.9074 52.5992 97.9528 51.5729 97.4435C50.0334 96.6797 49.1746 94.6308 49.816 93.0175C50.1695 92.1093 50.9837 91.3931 51.873 90.9968C52.6274 90.6697 54.407 90.3644 54.809 91.4328C55.4386 93.3104 58.4191 92.6483 57.7261 90.823Z" fill="black"/>
<path d="M87.1879 101.573C84.7831 100.825 80.4315 100.796 79.3243 103.644C78.2912 106.325 80.1759 110.008 82.7549 111.015C85.4138 112.042 88.7547 111.145 90.3977 108.809C92.0406 106.473 91.7359 103.243 89.7528 101.233C88.4021 99.8252 86.1744 101.923 87.5609 103.323C89.754 105.584 87.5177 108.772 84.6342 108.399C83.1125 108.193 82.1258 106.887 82.1501 105.381C82.1959 103.645 85.1927 104.179 86.2931 104.521C88.1572 105.059 89.0603 102.146 87.1879 101.573Z" fill="black"/>
<path d="M41.5213 122.383C42.8284 121.513 44.4137 120.541 46.0487 120.907C47.5238 121.236 48.0176 122.696 48.497 123.933C49.5418 126.614 50.4598 130.524 47.8131 132.608C45.4637 134.51 42.7276 132.189 42.0885 129.789C41.366 127.033 42.5997 124.08 43.6746 121.577C44.4258 119.788 41.5413 118.927 40.7817 120.681C39.0679 124.646 37.6893 129.396 40.437 133.214C42.7921 136.487 47.2807 137.422 50.2809 134.429C53.7347 130.955 52.6488 125.847 50.9205 121.864C48.8486 117.062 44.0948 117.09 40.1017 119.715C38.4615 120.776 39.8811 123.443 41.5213 122.383Z" fill="black"/>
<path d="M80.4069 133.846C78.6848 128.924 71.1196 131.3 71.5491 136.188C71.7358 138.432 73.5531 140.219 75.8351 140.283C78.6518 140.372 80.5847 138.305 82.187 136.279C83.3797 134.761 80.8189 133.187 79.6261 134.705C78.8154 135.758 76.0551 138.806 74.7524 136.636C73.6489 134.832 76.9661 133.191 77.4432 134.579C78.0836 136.342 81.064 135.68 80.4069 133.846Z" fill="black"/>
<path d="M51.7513 160.49C50.137 158.28 53.4185 156.647 55.2062 157.503C57.0297 158.35 57.1114 160.469 58.5553 161.63C60.0516 162.854 62.2519 160.8 60.7472 159.54C59.9549 158.901 59.7045 157.835 59.1378 157.03C58.6844 156.386 58.1403 155.839 57.4972 155.352C55.9542 154.252 53.9719 153.854 52.1349 154.398C48.5051 155.513 47.3068 159.582 49.4711 162.525C50.7203 164.145 52.9122 162.055 51.7513 160.49Z" fill="black"/>
<path d="M93.7254 147.448C91.1746 148.009 88.4699 148.719 86.1052 149.912C84.6214 150.673 83.2795 152.038 83.8042 153.79C84.3539 155.649 87.326 154.952 86.7763 153.093C86.5402 152.248 93.5419 150.529 94.4096 150.363C96.3242 149.989 95.6315 147.038 93.7254 147.448Z" fill="black"/>
</g>
</svg>
