<svg width="104" height="55" viewBox="0 0 104 55" fill="none" xmlns="http://www.w3.org/2000/svg">
<path d="M96.3442 30.3874C99.8903 29.8285 101.892 25.8119 99.469 22.9129C97.3624 20.3631 90.7264 20.0488 88.4794 22.4937C87.742 23.2971 86.3376 22.7033 86.7589 21.5856C87.8825 18.4771 87.8825 15.1589 85.7407 12.5044C83.915 10.2341 80.9657 9.11646 78.1217 8.83704C75.1724 8.52269 72.1178 9.2911 69.8005 11.1772C66.9565 13.4824 66.2192 17.2197 66.5001 20.7124C65.833 20.7474 65.201 20.7474 64.5339 20.7823C64.1477 8.87197 52.21 -0.698191 40.5884 3.77254C36.1644 5.48399 31.9863 8.55762 29.353 12.5394C26.3686 17.0101 27.8081 21.4808 32.0565 24.4497C31.5298 24.764 31.0383 25.0784 30.5116 25.4277C30.1956 21.3761 24.929 20.6076 21.7339 20.433C16.8536 20.1885 11.6572 21.3411 7.44389 23.8559C3.33594 26.3008 1.47507 30.4572 3.47638 34.928C6.95234 42.7867 16.2567 46.4191 24.1917 47.7115C31.5649 48.9339 39.3244 48.5497 46.4519 46.2445C49.5416 45.2316 62.041 41.18 58.214 36.1155C58.8108 35.9409 59.3726 35.7662 59.9695 35.5916C57.1606 47.5717 70.3623 51.6233 79.8772 51.6233C85.0034 51.6233 91.0424 50.5057 94.2375 46.1397C95.993 43.7297 96.1335 40.6561 96.0282 37.792C95.9228 34.7184 95.4664 30.9462 92.5522 29.2697C91.4638 28.641 92.5873 27.0343 93.7109 27.663C96.6601 29.3745 97.573 32.7974 97.889 35.9758C98.2401 39.1891 98.1699 42.5422 96.8357 45.5459C94.3077 51.309 87.4612 53.1602 81.703 53.5094C70.7485 54.1731 54.7731 49.2483 58.0033 35.382C58.1788 34.6136 59.1619 34.0897 59.7588 34.8581C63.5157 39.8527 57.2309 43.7996 53.2633 45.6857C47.9616 48.2354 42.2035 49.7023 36.3751 50.1564C28.0188 50.7851 18.9602 49.6674 11.5518 45.5809C6.25013 42.647 0.597307 37.338 0.667529 30.8414C0.73775 23.1923 10.2176 19.6995 16.4322 18.7565C21.4531 17.9881 31.916 18.0579 32.5831 25.0085C32.6534 25.8468 31.7756 26.4755 31.0383 25.9865C26.2983 22.7382 24.4024 17.8134 27.0708 12.6092C29.6338 7.68443 34.76 4.01703 39.8511 1.95631C52.9473 -3.38762 66.149 7.71936 66.5703 20.922C66.6054 22.0397 64.7094 22.0746 64.6041 20.9918C64.253 16.8355 65.1659 12.714 68.3609 9.81501C71.0294 7.40501 74.8564 6.56675 78.3675 6.84617C81.8434 7.12559 85.2843 8.69733 87.4612 11.4217C89.954 14.5302 89.9189 18.6517 88.6198 22.2492C88.058 21.9349 87.4612 21.6205 86.8994 21.3411C90.1647 17.6737 97.7135 18.2675 101.014 21.6205C104.771 25.4626 101.4 31.5749 96.6953 32.3084C95.4313 32.5529 95.1153 30.5969 96.3442 30.3874Z" fill="#F15A26"/>
<path d="M81.703 54.1381C73.9084 54.5922 61.3739 52.1822 57.8628 43.6599C56.6691 44.568 55.1944 45.4412 53.474 46.2794C49.5065 48.1655 45.2581 49.5277 40.8342 50.2612C39.3595 50.5057 37.8498 50.6803 36.3751 50.7851C29.6338 51.309 19.8029 50.8899 11.2007 46.1397C8.56743 44.6728 -0.0697957 39.224 0.000425696 30.8764C0.0706471 23.5066 8.21633 19.5598 15.8002 18.2675C15.9758 18.2326 16.1162 18.2326 16.2918 18.1976C17.4855 18.023 21.4179 17.534 25.3152 18.2326C25.1397 16.2766 25.561 14.3207 26.5441 12.3647C28.8614 7.82414 33.6365 3.8424 39.6053 1.39746C40.9395 0.838623 42.3088 0.454419 43.6781 0.244854C52.5611 -1.22211 61.4441 4.01704 65.3063 12.8886C65.9734 11.5614 66.8512 10.3739 67.9396 9.39588C69.5898 7.894 71.8018 6.8811 74.3298 6.46197C75.664 6.2524 76.9982 6.18254 78.4026 6.28733C82.1945 6.60168 85.7407 8.38298 87.9176 11.1073C89.6029 13.203 90.3051 15.8226 90.0242 18.7914C90.4807 18.6517 90.9371 18.5469 91.4287 18.4771C95.0802 17.8484 99.2232 19.001 101.435 21.2713C103.05 22.9478 103.612 25.1832 102.945 27.4534C102.208 29.8984 100.206 31.9242 97.8539 32.6926C98.1348 33.6356 98.3104 34.7184 98.4508 35.9758C98.8721 40.0623 98.521 43.2058 97.3624 45.8603C95.0451 51.1344 89.3922 53.0903 85.0736 53.8238C83.9852 53.9286 82.8617 54.0683 81.703 54.1381ZM95.8526 32.7974C96.3442 34.3691 96.5197 36.0806 96.5899 37.7571C96.6953 40.6212 96.5548 43.9044 94.694 46.4541C92.6575 49.2483 89.3571 51.0645 84.863 51.798C83.3181 52.0425 81.6328 52.1822 79.8772 52.1822C71.2049 52.1822 61.7952 49.0387 59.513 42.123C59.3024 42.3326 59.0917 42.5771 58.8459 42.7867C61.9006 51.0296 74.084 53.3348 81.6679 52.8807C82.7914 52.8109 83.8799 52.7061 84.8981 52.5315C88.9358 51.8678 94.1673 50.0516 96.2739 45.2665C97.3624 42.8216 97.6784 39.8527 97.257 35.9758C97.1166 34.7882 96.941 33.7404 96.6953 32.8672C96.3793 32.972 96.0984 32.9371 95.8526 32.7974ZM93.9566 27.174C95.01 27.8027 95.9228 28.641 96.5899 29.7587C98.0295 29.4094 99.1881 28.4314 99.6797 27.1042C100.171 25.8119 99.9255 24.4147 99.0126 23.2971C97.8188 21.865 94.694 21.0617 91.8851 21.5507C90.5509 21.7603 89.5327 22.2492 88.9358 22.9129C88.69 23.1923 88.3389 23.4018 87.9527 23.4368C87.3909 23.5416 86.7941 23.332 86.4429 22.9129C86.0918 22.4937 86.0216 21.9349 86.1972 21.411C87.0398 19.0708 87.5665 15.7178 85.2843 12.8886C83.2128 10.304 79.8772 9.60545 78.0866 9.43081C77.0684 9.32603 76.0151 9.36096 74.9969 9.53559C73.2062 9.84994 71.556 10.5485 70.2218 11.6312C67.3076 13.9714 67.0267 17.8134 67.097 19.9091C67.1321 20.1536 67.1321 20.3981 67.1321 20.6426V20.9569C67.1672 21.6904 66.6405 22.2842 65.8681 22.3889C65.3765 22.4588 64.885 22.354 64.5339 22.0746C64.2179 21.8301 64.0423 21.4808 64.0072 21.0617C63.9721 20.6076 63.937 20.1536 63.937 19.7345C63.4806 14.635 60.8473 9.9198 56.7393 6.77631C52.9825 3.87732 48.4883 2.68979 44.0643 3.42326C42.9759 3.5979 41.9226 3.91225 40.8693 4.29645C36.34 6.04283 32.3374 9.15139 29.9147 12.8188C28.4752 14.9843 28.089 17.1847 28.7561 19.2804C31.3894 20.5029 32.864 22.4239 33.1098 24.9736C33.18 25.8468 32.6183 26.6152 31.7756 26.7549C31.3894 26.8248 30.9681 26.72 30.6169 26.4755C28.6859 25.1482 27.2463 23.5416 26.3334 21.7952C25.0695 21.376 23.5246 21.1316 21.6988 21.0268C19.8731 20.922 17.9771 21.0268 16.1162 21.3411C13.0616 21.865 10.1825 22.8779 7.72478 24.3449C3.61683 26.8248 2.24751 30.7017 4.00304 34.6835C7.795 43.2058 18.3282 46.1397 24.2619 47.1177C29.5285 47.9909 35.0409 47.9909 40.1319 47.1526C42.2386 46.8033 44.275 46.3144 46.2412 45.6857C51.578 43.9742 55.1944 42.1929 57.0202 40.4465C56.8446 38.8398 56.95 37.0935 57.3713 35.2772C57.5117 34.6136 58.1086 34.0548 58.7757 33.95C59.3024 33.8452 59.829 34.0548 60.1801 34.5438C61.7952 36.6743 61.8655 38.9446 60.3908 41.0752C62.0059 47.9559 71.2751 51.0645 79.8421 51.0645C81.5274 51.0645 83.1425 50.9248 84.6172 50.6803C88.7954 49.9818 91.85 48.3402 93.6758 45.7904C95.326 43.5201 95.4313 40.6212 95.326 37.8269C95.2206 34.6835 94.7291 31.2955 92.1309 29.7936C91.5691 29.4792 91.2882 28.9204 91.3936 28.3266C91.4989 27.663 92.0958 27.1042 92.7629 26.9645C93.2544 26.8946 93.6406 26.9645 93.9566 27.174ZM57.3011 41.8087C55.1944 43.5201 51.6131 45.1967 46.6274 46.8033C44.6261 47.467 42.4844 47.956 40.3426 48.3052C35.0409 49.1784 29.5636 49.1784 24.0864 48.2703C17.9069 47.2574 6.95234 44.1838 2.91461 35.1375C0.913304 30.5969 2.5284 26.0563 7.1279 23.2971C9.69098 21.7603 12.7456 20.6775 15.9407 20.1187C17.8718 19.8043 19.838 19.6646 21.7691 19.7694C23.2788 19.8392 24.613 20.0139 25.7366 20.2933C25.6312 19.9789 25.561 19.6995 25.4908 19.3852C21.6637 18.5818 17.626 19.0708 16.4673 19.2455C16.3269 19.2804 16.1513 19.2804 16.0109 19.3153C9.19943 20.5727 1.2293 24.2401 1.19419 30.8764C1.12397 38.5954 9.26965 43.7297 11.7976 45.0919C18.2931 48.6894 27.0005 50.2961 36.3049 49.5975C37.7795 49.4928 39.2191 49.3181 40.6586 49.0736C44.9772 48.3402 49.1203 47.0478 52.9825 45.1967C54.8082 44.3235 56.318 43.4154 57.4766 42.4723C57.4064 42.2627 57.3362 42.0532 57.3011 41.8087ZM59.0215 39.8527C58.8459 40.1671 58.6002 40.5164 58.2842 40.8656C58.3193 41.1101 58.3895 41.3546 58.4246 41.5991C58.6704 41.3546 58.9162 41.0752 59.1268 40.8307C59.0917 40.4814 59.0566 40.1671 59.0215 39.8527ZM60.1801 38.8748C60.3206 38.3858 60.3206 37.8619 60.2504 37.3729C60.1801 37.8968 60.145 38.4207 60.1801 38.8748ZM58.1437 38.9446C58.3544 38.4207 58.3895 37.9317 58.214 37.4427C58.1788 37.9667 58.1437 38.4556 58.1437 38.9446ZM89.8487 20.0837C89.7785 20.3981 89.7082 20.6775 89.638 20.9918C90.2349 20.7124 90.9371 20.5029 91.7096 20.3631C94.4482 19.9091 98.2753 20.5029 99.9255 22.5287C101.119 23.9607 101.435 25.7769 100.803 27.4884C100.206 29.095 98.837 30.3175 97.1868 30.8065C97.2922 31.051 97.3975 31.2955 97.5028 31.54C99.5041 30.8764 101.189 29.1649 101.821 27.0692C102.383 25.1832 101.962 23.4018 100.593 22.0397C98.6264 20.0488 94.9397 19.0359 91.6393 19.5947C91.0073 19.6995 90.4105 19.8742 89.8487 20.0837ZM96.2388 31.6098C96.2037 31.54 96.2037 31.5051 96.1686 31.4352C96.1686 31.5051 96.2037 31.5749 96.2388 31.6098ZM93.3598 28.1869C93.0438 28.0123 92.6926 28.2917 92.6575 28.5362C92.6575 28.6061 92.6575 28.6759 92.798 28.7807C93.746 29.3395 94.4833 30.073 95.01 30.9462C95.0802 30.6668 95.2206 30.3874 95.4664 30.1778C94.9046 29.3395 94.2024 28.6759 93.3598 28.1869ZM58.9864 35.1026C58.8459 35.1375 58.7055 35.2423 58.6002 35.382L59.2322 35.2074C59.1268 35.1026 59.0566 35.1026 58.9864 35.1026ZM87.8825 21.2363L88.2687 21.4459C88.3389 21.2363 88.4091 21.0268 88.4443 20.8172C88.2687 20.922 88.0931 21.0617 87.8825 21.2363ZM87.0047 11.8059C85.0385 9.36096 81.7732 7.71936 78.3324 7.43994C77.0684 7.33516 75.8044 7.37008 74.5755 7.57965C72.2582 7.96385 70.2569 8.87197 68.7823 10.2341C67.5183 11.3868 66.5703 12.7839 65.9734 14.4255C66.1139 14.8446 66.2543 15.2637 66.3596 15.6829C66.9214 13.6221 67.9747 11.8757 69.4845 10.6533C70.9591 9.46574 72.82 8.62748 74.8213 8.31313C75.9448 8.13849 77.1035 8.10356 78.227 8.20835C80.1932 8.41791 83.8799 9.18632 86.2323 12.0853C87.9176 14.181 88.4794 16.8005 87.9176 19.6995C88.1985 19.5249 88.4794 19.3502 88.7954 19.2105C89.0762 17.1498 88.9709 14.2857 87.0047 11.8059ZM65.3414 16.6259C65.1659 17.6039 65.0956 18.6168 65.1308 19.6646C65.1308 19.8043 65.1659 19.9789 65.1659 20.1187L65.9383 20.0837C65.9383 20.0488 65.9383 19.9789 65.9383 19.944C65.833 18.8263 65.6223 17.7087 65.3414 16.6259ZM31.3894 25.5674C31.6 25.6721 31.8809 25.5324 31.9512 25.2181L31.3894 25.5674ZM30.9329 24.2401C30.9329 24.275 30.9681 24.3449 30.9681 24.3798L31.0383 24.3449C31.0383 24.31 30.9681 24.275 30.9329 24.2401ZM29.5987 24.1353C29.3179 23.6114 28.8965 23.1224 28.3348 22.7382C28.721 23.2272 29.1423 23.6813 29.5987 24.1353ZM31.3192 23.0176C30.9329 22.3191 30.4063 21.7253 29.7041 21.2014C30.1254 21.8301 30.6521 22.4239 31.3192 23.0176ZM43.8888 1.39746C42.5897 1.60703 41.3257 1.99123 40.0617 2.48022C34.3387 4.82037 29.8094 8.59255 27.5974 12.8537C26.6143 14.7398 26.2632 16.6259 26.509 18.4771C26.7899 18.5469 27.1059 18.6517 27.3868 18.7216C26.9654 16.556 27.4921 14.3207 28.9316 12.1552C31.4947 8.2782 35.708 5.02993 40.4479 3.17877C41.5715 2.75964 42.7301 2.44529 43.8537 2.23573C48.5936 1.43239 53.4389 2.72471 57.4415 5.79834C60.7068 8.31313 63.1294 11.771 64.3232 15.6479C64.4285 15.2288 64.5339 14.8446 64.6743 14.4604C61.3037 5.44907 52.5962 -0.0345668 43.8888 1.39746ZM26.825 19.8043C26.9303 20.1536 27.0708 20.5029 27.2112 20.8172C27.6325 20.9918 28.0539 21.1665 28.405 21.376C28.1592 20.9918 27.9485 20.5727 27.8081 20.1536C27.4921 20.0488 27.1761 19.9091 26.825 19.8043Z" fill="#F15A26"/>
</svg>
