<svg width="359" height="306" viewBox="0 0 359 306" fill="none" xmlns="http://www.w3.org/2000/svg">
<path d="M189.082 -43.554C219 -72.6115 249.838 -81.9828 275.93 -83.573C313.368 -85.8492 347.037 -73.013 355.748 -31.8214C357.393 -24.0207 358.036 -14.7246 354.367 -3.77228C348.64 13.3155 334.512 28.7808 321.684 40.2353C289.728 68.7807 257.241 86.8138 225.718 102.462C196.358 117.04 167.316 129.938 138.591 141.156C116.175 149.932 93.5534 157.685 74.7199 155.969C72.0273 155.718 69.2051 155.02 68.9315 151.516C68.8495 149.186 69.601 146.297 71.0303 143.448C76.7493 131.506 87.7013 124.869 96.2438 121.667C139.236 105.697 172.113 120.766 195.489 146.48C202.99 154.746 209.935 165.228 207.761 182.799C204.861 206.398 185.599 235.748 166.172 252.898C146.745 270.047 127.328 277.511 109.012 283.314C62.8166 297.893 18.9077 304.7 -21.7683 303.59" stroke="#423F8B" stroke-width="3" stroke-miterlimit="10"/>
</svg>
