<svg width="243" height="201" viewBox="0 0 243 201" fill="none" xmlns="http://www.w3.org/2000/svg">
<path fill-rule="evenodd" clip-rule="evenodd" d="M33.4888 2.33707C51.0788 -4.90426 74.7375 10.3489 95.1583 10.1056C112.054 9.90434 124.917 -1.94798 142.286 1.04084C161.229 4.30063 182.771 11.4673 196.311 27.5124C209.823 43.5248 204.073 64.748 211.768 83.3773C219.978 103.254 244.371 120.756 242.796 140.051C241.244 159.064 219.234 165.093 204.324 174.576C191.463 182.756 177.07 187.574 161.728 191.612C144.966 196.024 128.585 200.247 110.135 199.366C85.6793 198.199 52.9607 207.808 36.8703 185.654C19.1764 161.292 51.8095 136.454 44.5608 109.081C38.4883 86.1499 3.04428 71.7678 0.682568 48.9989C-1.5703 27.2792 15.2076 9.86296 33.4888 2.33707Z" fill="#322F72"/>
</svg>
