<svg width="374" height="410" viewBox="0 0 374 410" fill="none" xmlns="http://www.w3.org/2000/svg">
<path d="M204.035 214.68C209.474 205.238 206.23 193.126 196.782 187.69C187.334 182.254 175.214 185.497 169.774 194.938C167.102 199.516 166.434 204.857 167.77 209.912C169.106 214.966 172.447 219.258 176.932 221.928C179.986 223.645 183.326 224.599 186.761 224.599C188.479 224.599 190.197 224.408 191.915 223.931C197.164 222.501 201.363 219.258 204.035 214.68ZM179.127 218.304C175.5 216.206 172.924 212.868 171.874 208.863C170.824 204.857 171.301 200.661 173.401 197.036C176.264 192.077 181.513 189.216 186.952 189.216C189.624 189.216 192.297 189.884 194.778 191.314C198.404 193.412 200.981 196.75 202.031 200.756C203.08 204.762 202.603 208.958 200.504 212.582C198.404 216.206 195.064 218.781 191.056 219.83C186.952 220.975 182.753 220.402 179.127 218.304Z" fill="#EBEBEB"/>
<path d="M197.927 201.9C197.164 198.944 195.255 196.464 192.583 194.938C189.911 193.412 186.857 193.031 183.898 193.794C180.94 194.557 178.459 196.464 176.932 199.135C175.405 201.805 175.023 204.857 175.787 207.813C176.55 210.77 178.459 213.25 181.131 214.776C182.849 215.825 184.853 216.301 186.857 216.301C187.811 216.301 188.861 216.206 189.815 215.92C192.774 215.157 195.255 213.25 196.782 210.579C198.309 207.909 198.786 204.762 197.927 201.9ZM193.251 208.481C192.297 210.198 190.674 211.342 188.861 211.914C186.952 212.391 185.044 212.201 183.326 211.151C181.608 210.198 180.463 208.576 179.89 206.764C179.413 204.857 179.604 202.95 180.654 201.233C181.608 199.516 183.23 198.372 185.044 197.799C185.712 197.609 186.284 197.513 186.952 197.513C188.193 197.513 189.434 197.799 190.579 198.467C192.296 199.421 193.442 201.042 194.014 202.854C194.491 204.762 194.205 206.764 193.251 208.481Z" fill="#EBEBEB"/>
<path d="M196.973 230.512C197.641 230.226 198.309 230.035 199.072 229.653C199.072 229.653 199.168 229.653 199.168 229.558L199.263 229.463C199.74 229.177 200.217 228.986 200.695 228.604C201.172 228.318 201.649 228.032 202.126 227.746L202.317 227.555C202.89 227.078 203.462 226.697 204.035 226.22C206.325 228.223 210.238 230.321 215.105 230.321C217.968 230.321 221.213 229.558 224.553 227.746C225.221 227.365 225.602 226.697 225.602 225.934C225.412 215.443 218.636 210.484 214.055 208.958C214.151 208.195 214.246 207.527 214.341 206.764C214.341 206.669 214.341 206.669 214.341 206.574V206.478C214.341 205.906 214.341 205.334 214.341 204.762C214.341 204.189 214.341 203.617 214.341 203.045V202.95C214.341 202.854 214.341 202.854 214.341 202.759C214.246 201.996 214.151 201.328 214.055 200.565C218.636 199.039 225.316 194.08 225.602 183.589C225.602 182.826 225.221 182.159 224.553 181.777C215.391 176.722 207.661 180.06 204.035 183.208C203.462 182.731 202.89 182.254 202.317 181.873L202.126 181.682C201.649 181.396 201.172 181.11 200.695 180.823C200.217 180.537 199.645 180.251 199.168 179.965H199.072C199.072 179.965 198.977 179.965 198.977 179.87C198.309 179.584 197.641 179.298 196.877 179.011C197.832 174.243 196.877 165.946 187.907 160.509C187.239 160.128 186.475 160.128 185.807 160.509C176.836 165.946 175.882 174.243 176.836 179.011C176.168 179.298 175.5 179.488 174.737 179.87C174.737 179.87 174.641 179.87 174.641 179.965L174.546 180.06C174.069 180.347 173.592 180.537 173.115 180.919C172.542 181.205 172.065 181.491 171.588 181.777L171.397 181.968C170.824 182.445 170.252 182.826 169.679 183.303C166.053 180.156 158.323 176.818 149.161 181.873C148.493 182.254 148.111 182.922 148.111 183.685C148.302 194.175 155.078 199.135 159.659 200.661C159.563 201.424 159.468 202.091 159.372 202.854C159.372 202.95 159.372 202.95 159.372 203.045V203.14C159.372 203.712 159.372 204.285 159.372 204.857C159.372 205.429 159.372 206.001 159.372 206.574V206.669C159.372 206.764 159.372 206.764 159.372 206.86C159.468 207.623 159.563 208.29 159.659 209.053C155.078 210.579 148.398 215.538 148.111 226.029C148.111 226.792 148.493 227.46 149.161 227.841C152.597 229.749 155.746 230.416 158.609 230.416C163.476 230.416 167.389 228.318 169.679 226.315C170.252 226.792 170.824 227.269 171.397 227.651L171.492 227.746H171.588C172.065 228.032 172.542 228.318 173.115 228.604C173.592 228.89 174.164 229.177 174.641 229.463H174.737C174.737 229.463 174.832 229.463 174.832 229.558C175.5 229.844 176.168 230.13 176.932 230.416C175.978 235.185 176.932 243.482 185.903 248.918C186.189 249.109 186.571 249.204 186.952 249.204C187.334 249.204 187.716 249.109 188.002 248.918C196.973 243.578 197.927 235.28 196.973 230.512ZM187.334 239.953L182.085 231.847C183.708 232.133 185.33 232.228 186.952 232.228C188.956 232.228 190.865 232.038 192.774 231.656L187.334 239.953ZM210.81 191.028C209.952 189.502 208.997 188.167 207.852 186.832L217.586 187.404L213.101 196.274C212.528 194.462 211.765 192.745 210.81 191.028ZM210.81 218.59C211.669 217.064 212.433 215.443 213.005 213.822L217.395 222.501L207.661 223.073C208.806 221.547 209.856 220.116 210.81 218.59ZM221.594 224.789C214.628 228.032 209.57 225.266 207.375 223.645L217.872 223.073H217.968C217.968 223.073 217.968 223.073 218.063 223.073C218.063 223.073 218.063 223.073 218.063 222.977C218.063 222.977 218.063 222.977 218.063 222.882V222.787C218.063 222.787 218.063 222.787 218.063 222.691V222.596L213.292 213.059C215.964 214.108 220.926 217.064 221.594 224.789ZM221.594 184.829C221.022 192.173 216.441 195.224 213.769 196.369L218.445 187.213C218.445 187.213 218.445 187.213 218.445 187.118C218.445 187.118 218.445 187.118 218.445 187.023V186.927C218.445 186.927 218.445 186.927 218.445 186.832C218.445 186.832 218.445 186.832 218.445 186.736C218.445 186.736 218.35 186.736 218.35 186.641C218.35 186.641 218.35 186.641 218.254 186.641C218.254 186.641 218.254 186.641 218.159 186.641L207.184 186.069C209.283 184.448 214.437 181.491 221.594 184.829ZM187.334 169.665L192.678 177.867C190.77 177.485 188.861 177.295 186.857 177.295C185.234 177.295 183.612 177.39 182.085 177.676L187.334 169.665ZM186.952 164.801C192.869 168.902 193.346 174.243 193.06 177.199L187.62 168.902C187.62 168.902 187.62 168.902 187.525 168.807C187.525 168.807 187.525 168.807 187.429 168.807C187.429 168.807 187.429 168.807 187.334 168.807C187.334 168.807 187.334 168.807 187.239 168.807C187.239 168.807 187.239 168.807 187.143 168.807C187.143 168.807 187.143 168.807 187.048 168.807C187.048 168.807 187.048 168.807 186.952 168.807C186.952 168.807 186.857 168.807 186.857 168.902L180.94 177.867C180.845 177.867 180.749 177.867 180.558 177.962C180.463 175.292 180.367 169.379 186.952 164.801ZM163.094 218.59C164.048 220.212 165.098 221.738 166.339 223.073L156.7 222.501L160.995 214.013C161.567 215.634 162.235 217.16 163.094 218.59ZM163.094 191.028C162.235 192.554 161.472 194.175 160.899 195.892L156.509 187.213L166.148 186.641C165.003 188.072 163.953 189.502 163.094 191.028ZM152.31 184.829C159.277 181.491 164.43 184.352 166.53 186.069L155.937 186.641C155.937 186.641 155.937 186.641 155.841 186.641C155.841 186.641 155.841 186.641 155.746 186.641C155.746 186.641 155.65 186.641 155.65 186.736C155.65 186.736 155.65 186.736 155.65 186.832C155.65 186.832 155.65 186.832 155.65 186.927V187.023C155.65 187.023 155.65 187.023 155.65 187.118V187.213L160.422 196.655C157.845 195.415 152.883 192.459 152.31 184.829ZM152.31 224.789C152.978 216.969 158.132 214.013 160.613 212.963C160.613 213.059 160.613 213.059 160.708 213.154L155.841 222.691C155.841 222.691 155.841 222.691 155.841 222.787V222.977C155.841 222.977 155.841 222.977 155.841 223.073C155.841 223.073 155.841 223.073 155.841 223.168C155.841 223.168 155.841 223.168 155.937 223.264H156.032L166.243 223.836C164.144 225.457 159.181 228.032 152.31 224.789ZM176.55 225.934C176.073 225.648 175.596 225.457 175.214 225.171L175.119 225.076C174.641 224.885 174.26 224.599 173.783 224.313C170.824 222.214 168.438 219.544 166.721 216.492C164.907 213.44 163.858 210.007 163.476 206.383C163.476 205.811 163.476 205.334 163.476 204.857C163.476 204.762 163.476 204.762 163.476 204.666C163.476 204.189 163.476 203.712 163.476 203.14V203.045C163.858 199.421 164.907 196.083 166.721 192.936C168.534 189.884 170.92 187.213 173.783 185.115C174.26 184.829 174.641 184.543 175.119 184.352C175.119 184.352 175.214 184.352 175.214 184.257C175.596 183.971 176.073 183.78 176.55 183.494H176.646C179.89 182.063 183.421 181.3 186.952 181.3C190.483 181.3 194.014 182.063 197.259 183.494C197.736 183.78 198.213 183.971 198.595 184.257L198.69 184.352C199.168 184.543 199.549 184.829 200.027 185.115C202.985 187.213 205.371 189.884 207.089 192.936C208.902 195.987 209.952 199.421 210.333 203.045C210.333 203.617 210.333 204.094 210.333 204.571C210.333 204.666 210.333 204.666 210.333 204.762C210.333 205.238 210.333 205.715 210.333 206.288C209.952 209.912 208.902 213.25 207.089 216.397C205.275 219.449 202.89 222.119 200.027 224.217C199.549 224.503 199.168 224.789 198.69 224.98C198.69 224.98 198.595 224.98 198.595 225.076C198.213 225.362 197.736 225.552 197.259 225.839H197.164C193.919 227.269 190.388 228.032 186.857 228.032C183.326 228.223 179.89 227.46 176.55 225.934ZM186.952 244.817C180.463 240.335 180.463 234.327 180.94 231.752C181.035 231.752 181.131 231.752 181.226 231.847L187.143 240.907L187.239 241.003C187.334 241.003 187.334 241.098 187.429 241.098C187.525 241.098 187.525 241.098 187.62 241.003L187.716 240.907L193.155 232.61C193.346 235.376 192.869 240.716 186.952 244.817Z" fill="#EBEBEB"/>
<path d="M267.02 251.017C261.103 237.378 248.125 240.144 248.125 240.144C248.125 240.144 252.228 252.733 267.02 251.017Z" fill="#EBEBEB"/>
<path d="M125.685 169.474C125.685 169.474 121.581 156.885 106.789 158.602C112.801 172.24 125.685 169.474 125.685 169.474Z" fill="#EBEBEB"/>
<path d="M248.029 169.093C248.029 169.093 261.008 171.763 266.925 158.221C252.228 156.504 248.029 169.093 248.029 169.093Z" fill="#EBEBEB"/>
<path d="M125.589 239.763C125.589 239.763 112.61 237.092 106.694 250.635C121.486 252.352 125.589 239.763 125.589 239.763Z" fill="#EBEBEB"/>
<path d="M186.475 111.87C177.695 123.792 186.475 133.615 186.475 133.615C186.475 133.615 195.255 123.792 186.475 111.87Z" fill="#EBEBEB"/>
<path d="M186.475 274.955C186.475 274.955 177.695 284.778 186.475 296.699C195.255 284.778 186.475 274.955 186.475 274.955Z" fill="#EBEBEB"/>
<path d="M228.37 267.802C228.847 266.181 228.561 264.559 227.702 263.129C225.984 260.172 222.167 259.123 219.208 260.84C216.25 262.556 215.2 266.371 216.918 269.328C217.777 270.758 219.113 271.807 220.735 272.189C221.308 272.38 221.785 272.38 222.358 272.38C223.408 272.38 224.457 272.094 225.412 271.521C226.939 270.758 227.893 269.423 228.37 267.802ZM224.553 266.753C224.362 267.325 223.98 267.802 223.503 268.183C222.93 268.469 222.358 268.565 221.785 268.374C221.213 268.183 220.735 267.802 220.354 267.325C219.686 266.276 220.067 264.845 221.213 264.178C221.785 263.892 222.358 263.796 222.93 263.987C223.503 264.178 223.98 264.559 224.362 265.036C224.648 265.608 224.744 266.181 224.553 266.753Z" fill="#EBEBEB"/>
<path d="M145.344 141.721C144.867 143.343 145.153 144.964 146.012 146.395C146.871 147.825 148.207 148.874 149.829 149.256C150.402 149.446 150.879 149.446 151.451 149.446C152.501 149.446 153.551 149.16 154.505 148.588C155.937 147.73 156.986 146.395 157.368 144.773C157.845 143.152 157.559 141.531 156.7 140.1C154.982 137.144 151.165 136.094 148.207 137.811C146.775 138.765 145.821 140.1 145.344 141.721ZM149.161 142.675C149.352 142.103 149.734 141.626 150.211 141.244C150.592 141.054 150.974 140.958 151.356 140.958C151.547 140.958 151.738 140.958 151.929 141.054C152.501 141.244 152.978 141.626 153.36 142.103C153.646 142.675 153.742 143.247 153.551 143.819C153.36 144.392 152.978 144.869 152.501 145.25C151.451 145.918 150.02 145.536 149.352 144.392C149.066 143.915 148.97 143.343 149.161 142.675Z" fill="#EBEBEB"/>
<path d="M257.954 198.276C254.518 198.276 251.751 201.042 251.751 204.475C251.751 207.909 254.518 210.675 257.954 210.675C261.39 210.675 264.157 207.909 264.157 204.475C264.157 201.042 261.39 198.276 257.954 198.276ZM257.954 206.764C256.713 206.764 255.664 205.715 255.664 204.475C255.664 203.236 256.713 202.187 257.954 202.187C259.195 202.187 260.244 203.236 260.244 204.475C260.244 205.715 259.195 206.764 257.954 206.764Z" fill="#EBEBEB"/>
<path d="M115.951 210.675C119.386 210.675 122.154 207.909 122.154 204.475C122.154 201.042 119.386 198.276 115.951 198.276C112.515 198.276 109.747 201.042 109.747 204.475C109.747 207.909 112.515 210.675 115.951 210.675ZM115.951 202.187C117.191 202.187 118.241 203.236 118.241 204.475C118.241 205.715 117.191 206.764 115.951 206.764C114.71 206.764 113.66 205.715 113.66 204.475C113.66 203.14 114.71 202.187 115.951 202.187Z" fill="#EBEBEB"/>
<path d="M225.412 137.334C223.98 136.476 222.262 136.285 220.735 136.667C219.113 137.048 217.777 138.097 216.918 139.528C215.2 142.484 216.25 146.299 219.208 148.016C220.163 148.588 221.213 148.874 222.262 148.874C224.457 148.874 226.461 147.73 227.702 145.727C228.561 144.296 228.752 142.58 228.37 141.054C227.797 139.528 226.843 138.193 225.412 137.334ZM224.266 143.915C223.98 144.487 223.503 144.869 222.835 144.964C222.262 145.155 221.594 145.059 221.117 144.773C220.545 144.487 220.163 144.01 220.067 143.343C219.877 142.77 219.972 142.103 220.258 141.626C220.545 141.054 221.022 140.672 221.69 140.577C221.881 140.481 222.071 140.482 222.262 140.482C222.644 140.482 223.026 140.577 223.408 140.768C223.98 141.054 224.362 141.531 224.457 142.198C224.648 142.77 224.553 143.343 224.266 143.915Z" fill="#EBEBEB"/>
<path d="M148.111 271.044C149.066 271.617 150.115 271.903 151.165 271.903C153.36 271.903 155.364 270.758 156.605 268.756C157.464 267.325 157.655 265.608 157.273 264.082C156.796 262.461 155.841 261.126 154.41 260.268C151.451 258.551 147.634 259.6 145.916 262.556C145.057 263.987 144.867 265.704 145.248 267.23C145.725 268.851 146.68 270.186 148.111 271.044ZM149.256 264.464C149.638 263.701 150.497 263.319 151.261 263.319C151.642 263.319 152.024 263.415 152.406 263.605C152.978 263.892 153.36 264.368 153.455 265.036C153.551 265.704 153.551 266.276 153.265 266.753C152.978 267.325 152.501 267.706 151.833 267.802C151.261 267.993 150.592 267.897 150.115 267.611C149.543 267.325 149.161 266.848 149.066 266.181C148.875 265.608 148.97 265.036 149.256 264.464Z" fill="#EBEBEB"/>
<path d="M363.98 304.424C359.494 300.896 355.772 296.413 352.719 291.645C366.652 265.131 374 235.185 374 204.952C374 175.006 366.747 145.155 352.909 118.737C352.814 118.546 352.623 118.355 352.432 118.165C355.486 113.301 359.303 108.628 363.884 105.099C364.648 104.431 364.934 103.382 364.361 102.428C363.884 101.57 362.739 101.189 361.785 101.57C356.44 103.764 350.619 104.717 344.893 104.908C312.064 53.217 256.141 20.8863 195.159 18.2159C194.969 18.2159 194.873 18.2159 194.682 18.2159C192.01 13.1612 189.911 7.62968 189.147 1.81205C189.052 0.762968 188.097 0 187.143 0C186.093 0 185.234 0.762968 185.139 1.81205C184.376 7.53431 182.276 13.0658 179.604 18.1205C118.336 20.6001 62.1266 52.9309 29.1069 104.813C23.381 104.622 17.4641 103.668 12.0245 101.475C11.0702 101.093 10.0204 101.475 9.44782 102.333C8.97066 103.191 9.16152 104.336 9.92498 105.003C14.5057 108.628 18.323 113.205 21.3769 118.069C7.44374 144.582 0 174.72 0 205.048C0 235.28 7.3483 265.227 21.3769 291.835C18.323 296.604 14.6012 301.182 10.0204 304.71C9.25695 305.378 8.97066 306.427 9.54325 307.381C10.0204 308.239 11.1656 308.621 12.1199 308.239C17.4641 306.046 23.2855 305.092 28.916 304.901C61.9357 357.069 118.145 389.495 179.699 391.88C182.372 396.934 184.471 402.466 185.234 408.188C185.33 409.237 186.284 410 187.239 410C188.288 410 189.147 409.237 189.243 408.188C190.006 402.466 192.106 396.934 194.778 391.88C256.236 389.4 312.351 356.878 345.275 304.71C350.905 304.996 356.631 305.95 361.975 308.048C362.93 308.43 363.98 308.048 364.552 307.19C365.029 306.236 364.743 305.092 363.98 304.424ZM370.183 205.048C370.183 233.85 363.312 262.366 350.428 287.83C345.657 279.246 342.889 270.281 341.171 264.75C340.217 261.603 339.74 260.172 339.167 259.314C338.69 257.788 338.117 256.262 337.545 254.736C352.337 241.956 360.83 223.55 360.83 203.999C360.83 184.734 352.528 166.422 338.022 153.643C338.404 152.498 338.881 151.354 339.167 150.209C339.74 149.351 340.217 147.92 341.171 144.773C342.889 139.337 345.657 130.468 350.333 121.98C363.312 147.539 370.183 176.15 370.183 205.048ZM316.168 186.45C316.263 189.121 317.695 191.791 319.985 193.126C315.595 193.222 310.728 194.08 305.575 195.987C309.106 193.126 312.732 189.884 316.168 186.45ZM298.513 205.811C304.143 208.195 322.18 214.776 332.582 205.048C322.18 195.32 304.048 201.9 298.417 204.285C308.915 197.513 320.081 195.606 331.533 198.658C337.927 200.374 342.889 203.331 345.466 205.048C339.453 209.149 320.176 219.639 298.513 205.811ZM318.554 216.778C317.122 218.304 316.168 220.402 316.168 222.501C316.168 222.691 316.168 222.882 316.168 223.073C313.019 219.926 309.774 216.969 306.529 214.203C310.728 215.825 314.736 216.588 318.554 216.778ZM317.79 224.789C317.599 222.405 318.267 220.116 320.367 218.304C321.321 217.541 322.466 216.969 323.612 216.778C324.28 216.778 325.043 216.683 325.711 216.588C327.143 216.683 328.67 217.16 329.815 218.018C332.01 219.639 333.25 222.405 333.823 225.076C334.396 227.651 334.682 230.607 336.972 231.942C338.404 232.801 340.217 232.705 341.839 232.133C345.466 230.989 348.52 227.841 348.806 224.122C349.092 220.402 345.943 216.492 342.221 216.683C340.98 216.683 339.644 217.351 339.358 218.495C338.976 219.926 340.503 221.165 341.935 221.356C342.794 221.451 343.748 221.165 344.034 220.402C344.225 219.83 344.034 219.258 343.652 218.781C344.702 219.353 345.657 220.307 346.038 221.547C346.897 223.836 346.229 226.506 344.702 228.414C343.271 230.13 340.694 231.084 338.69 230.13C335.922 228.89 335.636 225.171 334.586 222.31C333.632 219.639 331.628 217.446 329.242 216.015C330.483 215.825 331.723 215.538 332.773 215.157C343.175 212.296 349.76 206.764 350.046 206.478C350.524 206.097 350.81 205.429 350.714 204.857C350.714 204.285 350.524 203.617 350.046 203.236C349.76 203.045 343.175 197.418 332.773 194.557C331.151 194.08 329.338 193.699 327.333 193.412C330.578 192.268 333.346 189.598 334.586 186.26C335.636 183.398 335.922 179.774 338.69 178.439C340.694 177.485 343.271 178.535 344.702 180.156C346.325 181.968 346.993 184.734 346.038 187.023C345.561 188.167 344.702 189.121 343.652 189.788C344.034 189.311 344.225 188.739 344.034 188.167C343.748 187.404 342.698 187.118 341.935 187.213C340.503 187.309 338.976 188.644 339.358 190.074C339.644 191.219 340.98 191.886 342.221 191.886C345.943 192.077 349.092 188.167 348.806 184.448C348.52 180.728 345.466 177.581 341.839 176.436C340.217 175.96 338.404 175.769 336.972 176.627C334.777 177.962 334.396 181.014 333.823 183.494C333.25 186.164 332.01 188.93 329.815 190.551C327.047 192.554 322.944 192.459 320.367 190.265C318.458 188.644 317.695 186.641 317.695 184.543C325.043 176.818 331.723 167.758 336.304 157.458C349.283 169.379 356.631 186.164 356.631 203.808C356.631 221.738 349.092 238.618 335.827 250.635C331.342 240.907 324.852 232.324 317.79 224.789ZM340.789 218.209C340.599 218.209 340.408 218.304 340.217 218.304C340.408 218.209 340.599 218.209 340.789 218.209ZM340.789 190.647C340.599 190.647 340.408 190.647 340.217 190.551C340.408 190.551 340.599 190.647 340.789 190.647ZM337.258 143.629C336.686 145.441 336.113 147.253 335.827 147.825C335.636 148.016 335.445 148.302 335.35 148.588C327.715 173.003 307.102 190.933 290.497 201.996C287.156 200.947 284.103 199.135 281.335 197.323C284.293 193.222 285.725 188.167 285.534 183.208C287.824 174.529 293.837 166.804 301.758 162.703C304.239 161.463 307.197 160.509 309.678 161.749C312.351 163.084 313.209 166.518 312.923 169.474C312.541 173.194 310.06 177.295 306.338 177.485C307.388 177.39 308.247 176.532 308.533 175.578C308.82 174.434 308.152 173.003 307.006 172.622C305.766 172.526 304.525 173.289 304.048 174.338C303.475 175.483 303.666 176.818 304.525 177.772C305.957 179.393 308.629 179.107 310.442 177.962C313.878 175.864 315.309 171.572 315.5 167.471C315.595 164.706 315.118 161.654 313.114 159.651C311.205 157.744 308.438 157.458 305.67 157.839C306.243 157.648 306.911 157.458 307.484 157.267C328.956 149.446 340.312 120.358 341.362 117.306C341.648 116.734 341.648 115.971 341.267 115.399C340.885 114.731 340.217 114.35 339.549 114.35C335.827 113.778 305.479 109.2 288.111 123.792C280.667 129.991 276.754 138.86 276.468 150.019C272.651 151.068 268.643 151.163 264.921 150.877C265.493 144.201 263.203 137.525 258.527 132.756C267.116 134.664 277.613 132.47 283.721 127.797C286.966 125.413 289.829 121.598 288.779 117.688C288.111 115.017 285.725 113.015 283.148 111.775C279.617 109.963 275.132 109.009 271.601 110.916C269.692 111.87 268.165 114.064 268.833 116.067C269.215 117.211 270.36 118.069 271.601 118.165C272.842 118.26 274.082 117.592 274.655 116.448C274.846 115.208 274.082 113.968 272.842 113.587C271.887 113.301 270.742 113.682 270.074 114.541C272.078 111.489 276.85 111.298 280.285 112.919C282.957 114.159 285.534 116.639 285.343 119.595C285.248 122.361 282.957 124.459 280.572 125.985C273.128 130.754 263.489 132.089 254.9 129.8C250.701 126.939 245.643 125.508 240.49 125.89C240.299 122.933 240.394 119.691 240.967 116.639C258.813 107.769 284.771 98.8997 309.774 104.527C310.06 104.622 310.442 104.622 310.728 104.527C311.396 104.527 313.305 105.003 315.118 105.385C323.612 107.292 339.74 110.916 354.913 107.769C344.798 119.5 339.835 135.331 337.258 143.629ZM281.24 229.844C279.808 235.185 275.991 239.667 271.028 242.052C270.169 239.763 269.501 237.76 269.024 236.234C268.547 234.708 268.261 233.754 267.879 233.182C267.02 230.512 265.875 228.032 264.539 225.648C266.925 224.217 269.12 222.596 271.219 220.784C271.792 220.498 272.46 219.83 273.7 218.686C274.941 217.541 276.659 216.015 278.663 214.394C281.717 218.972 282.671 224.599 281.24 229.844ZM285.057 230.893C287.634 239.381 294.886 247.392 301.948 250.444C302.521 250.73 303.094 250.921 303.762 251.112C295.841 249.3 287.538 250.73 279.14 255.308C276.373 252.638 274.273 249.109 272.651 245.771C278.663 242.815 283.244 237.474 285.057 230.893ZM148.684 289.356C151.261 288.307 153.742 287.544 155.46 286.971C156.986 286.495 157.941 286.208 158.513 285.827C161.186 284.969 163.667 283.824 166.053 282.489C167.389 284.778 169.011 286.971 170.824 289.07C171.11 289.642 171.779 290.309 172.924 291.549C174.069 292.789 175.596 294.41 177.218 296.413C172.542 299.846 166.625 300.991 160.995 299.465C155.555 298.034 151.07 294.315 148.684 289.356ZM53.5376 279.151C54.0148 279.342 54.5874 279.342 55.16 279.246C56.4006 279.056 57.8321 278.579 58.3093 277.434C58.691 276.576 58.3093 275.431 57.5458 274.859C56.7823 274.287 55.6372 274.382 54.8737 275.05C54.492 275.432 54.2057 276.004 54.3965 276.576C54.5874 277.053 55.4463 277.244 55.7326 276.671C55.6372 277.434 54.3965 277.53 53.9194 276.862C53.5376 276.194 53.7285 275.336 54.1102 274.573C55.0646 272.857 56.496 271.426 58.023 270.186C66.8028 263.033 77.6821 258.455 89.0385 257.12C90.0883 257.597 91.0426 258.074 92.0924 258.551C92.0924 258.837 92.1878 259.123 92.3787 259.314C92.4741 259.505 92.665 259.695 92.8558 259.886C92.7604 261.412 92.665 262.938 92.4741 264.368C85.6984 273.143 76.4414 280.105 66.1347 284.015C64.3215 284.682 62.3174 285.35 60.4088 285.255C59.6453 285.255 58.691 284.969 58.3093 284.301C57.9275 283.633 58.691 282.489 59.359 282.87C58.7864 282.87 58.5001 283.633 58.7864 284.11C59.0727 284.587 59.7407 284.682 60.3133 284.492C61.1722 284.206 61.8403 283.252 61.7448 282.298C61.6494 281.344 60.8859 280.486 59.9316 280.391C58.691 280.2 57.5458 281.154 56.7823 282.203C56.4006 282.68 56.1143 283.157 56.0189 283.633C55.828 284.682 56.6869 285.732 57.6412 286.113C58.5956 286.495 59.7407 286.399 60.7905 286.304C69.4749 285.064 77.2049 280.295 83.9806 274.669C86.4619 272.666 88.8477 270.472 90.7563 267.897C91.2335 267.23 91.7106 266.562 92.1878 265.894C90.8517 272.856 87.7025 278.483 82.6446 282.775C68.8068 294.41 44.567 292.598 36.7415 291.645C39.7954 284.396 50.2929 262.461 67.3754 256.357C73.9602 253.973 81.0222 254.164 88.1796 257.025C86.939 257.025 85.7938 257.025 84.5532 257.216C81.4039 257.693 78.3501 258.646 75.2962 259.791C67.0891 262.843 59.0727 267.134 53.6331 274.001C52.965 274.859 52.297 275.813 52.2016 276.862C52.1062 277.53 52.5833 278.769 53.5376 279.151ZM97.0549 259.505C100.49 258.455 104.212 258.36 107.648 258.551C107.075 265.131 109.366 271.617 113.851 276.385C105.453 274.859 95.5279 277.053 89.6111 281.535C89.3248 281.726 89.0385 282.012 88.6568 282.298C94.001 276.385 96.7686 268.756 97.0549 259.505ZM88.3705 177.485C85.5075 169.474 78.6364 162.131 71.8607 159.27C71.2881 159.079 70.7155 158.793 70.1429 158.697C72.3378 159.174 74.5328 159.46 76.8232 159.46C82.6446 159.46 88.5614 157.839 94.5736 154.596C97.1503 157.076 99.1544 160.223 100.777 163.371C94.8599 166.041 90.2792 171.191 88.3705 177.485ZM161.472 110.154C166.911 108.723 172.637 109.772 177.218 112.919C175.596 114.922 174.069 116.639 172.924 117.879C171.779 119.118 171.206 119.786 170.824 120.358C168.916 122.456 167.293 124.745 165.862 127.034C163.476 125.699 160.995 124.555 158.323 123.696C157.75 123.315 156.891 123.029 155.269 122.552C153.646 122.075 151.451 121.407 149.066 120.454C151.451 115.399 156.032 111.584 161.472 110.154ZM212.719 106.529C212.624 106.529 212.624 106.529 212.528 106.434C206.134 104.717 199.263 105.862 193.823 109.486C191.915 106.625 190.197 103.382 189.243 99.9488C196.209 95.6571 201.172 90.3163 204.035 84.1172C203.939 91.5562 207.184 100.616 212.719 106.529ZM255.568 135.427C259.576 139.432 261.581 144.964 261.103 150.495C258.813 150.114 256.713 149.637 255.282 149.351C253.66 148.97 252.801 148.779 252.133 148.779C249.365 148.207 246.693 147.92 243.925 147.825C243.925 145.155 243.639 142.389 243.067 139.719C243.067 139.051 242.876 138.097 242.494 136.571C242.112 134.855 241.635 132.566 241.158 129.895C246.407 129.609 251.751 131.612 255.568 135.427ZM320.653 130.754C320.176 130.563 319.603 130.563 319.031 130.658C317.79 130.849 316.359 131.326 315.882 132.47C315.5 133.329 315.882 134.473 316.645 135.045C317.409 135.618 318.554 135.522 319.317 134.855C319.699 134.473 319.985 133.901 319.794 133.329C319.603 132.852 318.745 132.661 318.458 133.233C318.554 132.47 319.794 132.375 320.272 133.043C320.653 133.71 320.462 134.568 320.081 135.331C319.126 137.048 317.695 138.479 316.168 139.719C307.388 146.871 296.604 151.449 285.343 152.784C284.103 152.308 282.862 151.735 281.717 151.068C281.717 150.782 281.621 150.495 281.43 150.209C281.24 149.923 281.049 149.732 280.762 149.542C280.762 148.588 280.858 147.634 280.953 146.681C287.824 137.334 297.368 129.991 308.152 125.89C309.965 125.222 311.969 124.555 313.878 124.65C314.641 124.65 315.595 124.936 315.977 125.604C316.359 126.271 315.595 127.416 314.927 127.034C315.5 127.034 315.786 126.271 315.5 125.794C315.214 125.318 314.546 125.222 313.973 125.413C313.114 125.699 312.446 126.653 312.541 127.606C312.637 128.56 313.4 129.418 314.355 129.514C315.595 129.705 316.741 128.751 317.504 127.702C317.886 127.225 318.172 126.748 318.267 126.271C318.458 125.222 317.599 124.173 316.645 123.792C315.691 123.41 314.546 123.505 313.496 123.601C304.811 124.841 297.081 129.609 290.306 135.236C287.824 137.239 285.439 139.432 283.53 142.007C282.576 143.152 281.908 144.487 281.144 145.727C282.194 137.811 285.534 131.421 290.974 126.843C304.811 115.208 329.051 117.02 336.877 117.974C333.823 125.222 323.325 147.062 306.243 153.261C299.944 155.55 293.264 155.455 286.393 152.88C287.443 152.88 288.588 152.88 289.638 152.689C292.787 152.212 295.841 151.258 298.895 150.114C307.102 147.062 315.118 142.77 320.558 135.904C321.226 135.045 321.894 134.092 321.989 133.043C322.085 132.375 321.608 131.135 320.653 130.754ZM279.045 154.406C285.057 157.648 290.974 159.27 296.795 159.27C298.895 159.27 300.899 159.079 302.903 158.602C302.521 158.793 302.044 158.888 301.662 159.079C294.6 162.035 287.443 169.951 284.866 178.344C284.866 178.248 284.866 178.153 284.771 178.153C283.053 171.763 278.567 166.422 272.746 163.561C274.368 160.319 276.373 157.076 279.045 154.406ZM273.796 191.028C272.555 189.884 271.887 189.311 271.315 188.93C269.406 187.213 267.306 185.687 265.111 184.352C265.016 184.161 264.825 183.971 264.73 183.78C265.97 181.491 267.116 179.011 267.974 176.436C268.356 175.864 268.643 175.006 269.12 173.385C269.597 171.763 270.36 169.57 271.315 167.09C276.086 169.474 279.713 173.861 281.144 179.107C282.576 184.543 281.526 190.265 278.377 194.843C276.468 193.508 274.941 192.077 273.796 191.028ZM266.734 204.475C266.638 210.484 264.921 216.206 261.771 221.261C256.904 214.394 250.51 208.958 244.784 204.952C250.797 200.756 257.572 194.938 262.535 187.595C265.398 192.649 266.829 198.467 266.734 204.475ZM264.157 234.899C264.253 235.09 264.348 235.376 264.539 235.566C264.634 235.948 264.921 236.806 265.207 237.569C266.448 241.575 268.643 248.728 273.128 254.736C265.684 253.878 258.336 255.499 254.328 256.453C253.564 256.643 252.705 256.834 252.324 256.93C252.037 256.93 251.846 256.93 251.56 256.93C248.983 257.502 246.311 257.788 243.639 257.788C243.257 252.161 241.921 246.725 240.204 241.766C242.303 241.766 244.403 240.716 245.548 238.714C246.598 236.806 246.598 234.613 245.643 232.801C250.701 231.847 256.045 230.226 261.103 227.841C262.344 229.94 263.394 232.324 264.157 234.899ZM264.443 327.313C266.161 333.703 266.066 339.425 265.875 342.573C259.386 339.425 241.063 328.362 241.635 303.566C242.78 310.91 246.598 327.123 259.099 331.033C262.058 318.158 249.651 306.618 243.925 302.04C254.614 307.667 261.485 316.25 264.443 327.313ZM192.201 263.129C192.01 262.747 191.724 262.461 191.438 262.175C190.77 261.317 190.197 260.458 189.624 259.695C191.915 257.979 194.014 256.167 195.827 254.164C195.732 254.354 195.732 254.545 195.637 254.736C195.541 255.308 195.446 255.88 195.541 256.357C195.637 256.93 195.827 257.406 196.114 257.883C195.255 255.88 196.305 253.592 198.022 252.924C198.881 252.542 199.836 252.447 200.79 252.542C201.267 252.638 201.649 252.733 201.935 253.019C202.221 253.21 202.412 253.496 202.412 253.782C202.508 254.545 202.221 255.404 201.84 256.262C201.363 257.12 200.79 257.883 200.122 258.742C198.786 260.363 197.545 262.461 197.259 264.845C197.164 265.99 197.259 267.23 197.641 268.374C198.022 269.518 198.786 270.568 199.836 271.331C201.935 272.761 204.798 272.856 206.802 271.331C207.757 270.663 208.425 269.805 208.806 268.851C208.043 271.521 206.993 274.192 205.752 276.767C200.408 272.856 195.827 267.897 192.201 263.129ZM188.956 266.276C188.956 267.325 188.097 268.279 186.952 268.279C185.807 268.279 184.948 267.42 184.948 266.276C184.948 265.227 185.807 264.273 186.952 264.273C187.429 264.273 187.907 264.464 188.288 264.845C188.384 265.036 188.575 265.227 188.67 265.418C188.861 265.608 188.956 265.99 188.956 266.276ZM119.386 332.749C114.71 337.423 109.652 340.284 106.884 341.619C106.694 338.567 106.598 332.749 108.316 326.36C111.179 315.678 117.668 307.381 127.593 301.659C121.486 306.809 111.083 317.585 113.851 329.507C125.685 325.883 129.788 311.291 131.124 303.471C131.22 315.01 127.212 324.834 119.386 332.749ZM100.681 155.169C108.125 156.027 115.473 154.406 119.481 153.452C120.245 153.261 121.104 153.07 121.486 152.975C121.772 152.975 121.963 152.975 122.249 152.975C124.826 152.403 127.402 152.117 129.884 152.117C130.265 157.744 131.601 163.084 133.319 168.044C132.937 168.044 132.46 168.139 132.079 168.234C130.456 168.616 129.216 169.665 128.357 171.096C127.498 172.526 127.307 174.147 127.784 175.769C127.88 176.246 128.166 176.722 128.357 177.199C123.203 178.153 117.764 179.774 112.706 182.254C111.465 179.965 110.32 177.581 109.557 175.006C109.461 174.815 109.366 174.529 109.175 174.338C108.984 173.957 108.793 173.098 108.507 172.335C107.362 168.33 105.071 161.082 100.681 155.169ZM109.557 82.4006C107.839 76.0107 107.934 70.2884 108.125 67.1412C114.614 70.2884 132.937 81.3515 132.365 106.148C131.22 98.8044 127.402 82.5913 114.901 78.6811C111.942 91.5562 124.349 103.096 130.075 107.674C119.386 102.047 112.515 93.559 109.557 82.4006ZM254.137 76.2014C258.813 71.5283 263.871 68.6671 266.638 67.3319C267.211 74.5801 266.734 96.5155 243.83 108.437C248.697 104.717 263.394 92.4145 260.149 78.4903C246.502 82.6867 243.162 101.57 242.399 107.674C241.826 95.0849 245.739 84.4987 254.137 76.2014ZM209.474 265.131C208.902 262.843 207.089 261.126 204.989 260.649C206.898 261.507 208.329 263.319 208.425 265.227C208.615 267.134 207.661 269.042 206.134 269.995C204.607 270.854 202.508 270.758 201.172 269.709C199.836 268.66 199.168 266.753 199.454 264.941C199.549 263.987 199.836 263.129 200.217 262.27C200.599 261.412 201.172 260.649 201.84 259.791C202.412 258.932 203.08 258.074 203.653 257.025C203.939 256.453 204.13 255.976 204.226 255.308C204.321 254.736 204.416 254.068 204.226 253.401C204.035 252.733 203.558 252.066 202.985 251.684C202.412 251.303 201.744 251.207 201.172 251.207C200.122 251.112 198.977 251.398 198.022 251.875C198.786 250.921 199.549 249.967 200.313 248.918C205.848 246.153 210.333 250.349 211.86 252.161C211.574 256.643 210.906 261.889 209.57 267.134C209.57 266.467 209.57 265.799 209.474 265.131ZM186.952 256.548C179.509 251.017 174.164 243.768 171.11 234.899C170.824 234.04 170.061 233.468 169.202 233.468C169.106 233.468 168.916 233.468 168.82 233.468C159.659 235.28 150.688 234.231 142.194 230.607C143.244 221.356 146.871 213.154 152.978 206.097C153.646 205.334 153.646 204.189 152.978 203.426C146.871 196.369 143.244 188.167 142.194 178.916C150.688 175.197 159.659 174.243 168.82 175.96C169.87 176.15 170.824 175.578 171.11 174.624C174.164 165.85 179.509 158.602 186.952 153.07C194.396 158.602 199.74 165.85 202.794 174.72C203.176 175.673 204.13 176.246 205.18 176.055C214.341 174.243 223.312 175.292 231.806 178.916C230.756 188.167 227.129 196.369 221.022 203.426C220.354 204.189 220.354 205.334 221.022 206.097C227.129 213.154 230.756 221.356 231.806 230.607C223.312 234.327 214.341 235.28 205.18 233.564C204.13 233.373 203.176 233.945 202.794 234.899C199.74 243.768 194.396 251.017 186.952 256.548ZM140.858 234.613C143.435 235.662 146.012 236.52 148.588 237.188C148.398 237.188 148.207 237.283 148.111 237.283C147.539 237.474 147.061 237.665 146.68 238.046C146.298 238.428 145.916 238.809 145.725 239.286C147.061 237.569 149.543 237.378 151.07 238.428C151.833 239 152.406 239.763 152.692 240.621C152.883 241.098 152.978 241.479 152.883 241.861C152.883 242.242 152.692 242.433 152.406 242.719C151.833 243.196 150.879 243.387 150.02 243.387C149.066 243.387 148.111 243.291 147.062 243.101C144.962 242.815 142.481 242.719 140.286 243.673C139.236 244.15 138.186 244.913 137.423 245.866C136.659 246.82 136.087 247.965 135.991 249.204C135.8 251.779 137.137 254.259 139.427 255.213C141.622 256.262 144.294 255.785 146.012 254.164C147.73 252.542 148.302 250.063 147.634 248.06C147.825 250.158 146.966 252.256 145.344 253.401C143.817 254.545 141.622 254.641 140.095 253.782C138.568 252.924 137.614 251.017 137.9 249.395C138.091 247.679 139.427 246.248 141.145 245.485C142.004 245.104 142.958 244.913 143.912 244.817C144.867 244.722 145.821 244.817 146.871 244.913C147.92 245.008 148.97 245.104 150.211 245.008C150.783 245.008 151.356 244.913 151.929 244.722C152.501 244.531 153.074 244.245 153.646 243.768C154.124 243.291 154.505 242.528 154.505 241.766C154.505 241.098 154.314 240.526 154.028 239.953C153.551 239 152.787 238.141 151.929 237.569C153.074 237.76 154.219 237.951 155.46 238.046C160.899 241.479 159.277 247.679 158.418 249.967C151.929 253.21 143.435 256.453 134.369 257.216C134.846 249.014 137.805 240.907 140.858 234.613ZM139.141 204.762C141.336 203.617 143.435 201.805 144.676 199.23C145.821 201.137 147.157 203.045 148.588 204.857C147.157 206.669 145.821 208.481 144.676 210.388C143.435 207.718 141.336 205.906 139.141 204.762ZM162.999 163.371C164.907 164.61 167.198 165.469 169.774 165.469C170.061 165.469 170.347 165.469 170.633 165.469C169.584 167.471 168.534 169.474 167.77 171.668C165.48 171.286 163.19 171.096 160.899 171.096C162.522 168.616 163.094 165.946 162.999 163.371ZM158.227 159.46C159.086 161.845 160.422 167.948 154.982 171.286C153.837 171.382 152.787 171.572 151.642 171.763C152.501 171.191 153.265 170.428 153.646 169.474C153.933 168.902 154.124 168.33 154.124 167.662C154.124 166.995 153.837 166.136 153.265 165.659C152.787 165.183 152.215 164.896 151.547 164.706C150.974 164.515 150.402 164.42 149.829 164.42C148.684 164.324 147.539 164.42 146.489 164.515C145.439 164.61 144.485 164.706 143.53 164.61C142.576 164.515 141.622 164.324 140.763 163.943C139.045 163.275 137.709 161.749 137.518 160.033C137.232 158.316 138.186 156.504 139.713 155.645C141.24 154.787 143.435 154.883 144.962 156.027C146.489 157.171 147.443 159.27 147.252 161.368C147.92 159.365 147.348 156.885 145.63 155.264C143.912 153.738 141.24 153.261 139.045 154.215C136.755 155.264 135.419 157.744 135.61 160.223C135.705 161.463 136.278 162.703 137.041 163.561C137.805 164.515 138.854 165.278 139.904 165.755C142.099 166.709 144.58 166.709 146.68 166.327C147.73 166.136 148.684 166.041 149.638 166.041C150.592 166.041 151.547 166.232 152.024 166.709C152.31 166.995 152.406 167.185 152.501 167.567C152.501 167.948 152.406 168.425 152.31 168.807C152.024 169.665 151.451 170.428 150.688 171C149.161 172.145 146.68 171.859 145.344 170.142C145.535 170.619 145.916 171.096 146.298 171.382C146.775 171.763 147.252 171.954 147.73 172.145C147.92 172.145 148.016 172.24 148.207 172.24C145.63 172.908 143.053 173.766 140.477 174.815C140.095 173.957 139.713 173.098 139.236 172.24C139.045 171.668 138.854 171.191 138.568 170.714C136.278 165.183 134.274 158.697 133.701 152.021C143.149 152.88 151.738 156.218 158.227 159.46ZM134.655 172.335C134.846 172.431 135.037 172.622 135.228 172.812C135.323 173.098 135.514 173.384 135.61 173.671C135.705 174.147 135.61 174.624 135.419 175.006C134.846 175.96 133.701 176.246 132.747 175.769C132.269 175.483 131.983 175.101 131.792 174.529C131.697 174.052 131.697 173.48 131.983 173.003C132.269 172.526 132.651 172.24 133.224 172.049C133.701 172.049 134.178 172.049 134.655 172.335ZM138.091 179.965C138.377 182.635 138.95 185.306 139.713 187.786C139.618 187.595 139.427 187.499 139.331 187.309C138.95 186.927 138.473 186.641 137.9 186.45C137.423 186.26 136.85 186.164 136.278 186.26C138.377 186.546 139.904 188.548 139.618 190.456C139.522 191.41 139.141 192.268 138.568 193.031C138.282 193.412 137.9 193.699 137.614 193.889C137.327 194.08 137.041 194.08 136.659 193.889C135.991 193.603 135.323 192.936 134.846 192.173C134.369 191.41 133.987 190.456 133.606 189.407C132.842 187.404 131.601 185.306 129.693 183.875C128.738 183.208 127.593 182.635 126.353 182.445C125.112 182.254 123.871 182.349 122.726 182.826C120.436 183.875 119.004 186.355 119.195 188.835C119.386 191.314 121.199 193.317 123.394 194.08C125.589 194.748 128.07 194.08 129.502 192.459C127.784 193.699 125.494 193.985 123.776 193.126C122.058 192.363 120.818 190.551 120.818 188.739C120.818 187.023 121.963 185.21 123.49 184.638C125.017 183.971 127.021 184.448 128.452 185.497C129.216 186.069 129.884 186.736 130.361 187.499C130.933 188.262 131.315 189.121 131.792 190.17C132.269 191.124 132.651 192.173 133.319 193.126C133.606 193.603 133.987 194.08 134.464 194.461C134.942 194.843 135.514 195.224 136.182 195.415C136.85 195.606 137.709 195.511 138.282 195.129C138.854 194.748 139.331 194.271 139.618 193.794C140.19 192.936 140.572 191.791 140.572 190.742C140.954 191.791 141.431 192.84 141.813 193.889C141.622 200.565 135.132 202.282 132.937 202.663C126.925 198.658 119.959 192.936 114.805 185.592C122.631 181.968 131.124 180.537 138.091 179.965ZM160.995 238.523C163.285 238.428 165.48 238.237 167.77 237.951C168.629 240.049 169.488 242.147 170.633 244.054C167.77 243.864 165.194 244.722 162.999 246.057C163.094 243.578 162.522 240.907 160.995 238.523ZM204.226 154.215C204.13 153.643 203.844 153.07 203.653 152.498C203.176 151.449 202.508 150.591 201.84 149.732C201.267 148.874 200.695 148.111 200.217 147.253C199.836 146.395 199.549 145.441 199.454 144.582C199.168 142.77 199.836 140.863 201.172 139.814C202.508 138.765 204.607 138.669 206.134 139.528C207.661 140.482 208.711 142.389 208.425 144.296C208.234 146.204 206.898 148.016 204.989 148.874C207.089 148.493 208.902 146.681 209.474 144.392C209.665 143.724 209.665 142.961 209.57 142.294C211.001 147.539 211.669 152.784 211.86 157.362C210.238 159.27 205.752 163.466 200.122 160.509C199.359 159.46 198.595 158.507 197.832 157.553C198.786 158.125 200.027 158.411 201.172 158.316C201.744 158.221 202.412 158.125 202.985 157.839C203.558 157.553 204.13 156.79 204.226 156.122C204.321 155.455 204.321 154.787 204.226 154.215ZM212.814 171.096C210.62 171.191 208.329 171.382 206.039 171.668C205.18 169.474 204.226 167.376 203.176 165.469C203.462 165.469 203.653 165.469 203.939 165.469C206.516 165.469 208.806 164.61 210.715 163.371C210.62 165.946 211.192 168.711 212.814 171.096ZM234.573 204.762C232.378 205.906 230.279 207.718 229.038 210.293C227.893 208.386 226.652 206.574 225.221 204.857C226.652 203.045 227.893 201.233 229.133 199.325C230.374 201.805 232.474 203.617 234.573 204.762ZM210.715 246.057C208.615 244.722 206.039 243.864 203.271 244.054C204.321 242.147 205.275 240.049 206.039 237.951C208.234 238.332 210.524 238.523 212.719 238.523C211.192 240.907 210.62 243.578 210.715 246.057ZM215.582 250.349C214.819 248.251 213.005 241.956 218.445 238.332C219.686 238.237 220.926 238.046 222.167 237.855C221.213 238.428 220.545 239.19 220.067 240.24C219.781 240.812 219.59 241.384 219.59 242.052C219.59 242.719 219.876 243.578 220.449 244.054C220.926 244.531 221.499 244.817 222.167 245.008C222.739 245.199 223.312 245.294 223.885 245.294C225.03 245.39 226.175 245.294 227.225 245.199C228.275 245.104 229.229 245.008 230.183 245.104C231.138 245.199 232.092 245.39 232.951 245.771C234.669 246.439 236.005 247.965 236.195 249.681C236.482 251.398 235.527 253.21 234.001 254.068C232.474 254.927 230.279 254.831 228.752 253.687C227.225 252.542 226.27 250.444 226.461 248.346C225.793 250.349 226.366 252.829 228.084 254.45C229.801 255.976 232.474 256.453 234.669 255.499C236.959 254.45 238.295 251.97 238.104 249.491C238.009 248.251 237.436 247.011 236.673 246.153C235.909 245.199 234.859 244.436 233.81 243.959C231.615 243.005 229.133 243.005 227.034 243.387C225.984 243.578 225.03 243.673 224.076 243.673C223.121 243.673 222.167 243.482 221.69 243.005C221.403 242.719 221.308 242.528 221.213 242.147C221.213 241.766 221.308 241.289 221.403 240.907C221.69 240.049 222.262 239.286 223.026 238.714C224.553 237.569 227.034 237.855 228.37 239.572C228.179 239.095 227.797 238.618 227.416 238.332C226.939 237.951 226.461 237.76 225.984 237.569C225.793 237.474 225.602 237.474 225.412 237.474C227.988 236.806 230.47 236.043 232.951 234.994C236.005 241.289 238.963 249.395 239.536 257.883C230.565 256.834 222.071 253.592 215.582 250.349ZM238.486 234.517C239.058 233.564 240.204 233.277 241.158 233.754C242.112 234.327 242.399 235.471 241.921 236.425C241.349 237.378 240.204 237.665 239.249 237.188C238.295 236.711 237.913 235.471 238.486 234.517ZM235.814 229.844C235.527 227.078 234.955 224.503 234.191 221.928C234.287 222.024 234.382 222.214 234.478 222.31C234.859 222.691 235.337 222.977 235.909 223.168C236.386 223.359 236.959 223.454 237.532 223.359C235.432 223.073 233.905 221.07 234.191 219.163C234.287 218.209 234.669 217.351 235.241 216.588C235.527 216.206 235.909 215.92 236.195 215.729C236.482 215.538 236.768 215.538 237.15 215.729C237.818 216.015 238.486 216.683 238.963 217.446C239.44 218.209 239.822 219.163 240.204 220.212C240.967 222.214 242.208 224.313 244.116 225.743C245.071 226.411 246.216 226.983 247.456 227.174C248.697 227.364 249.938 227.269 251.083 226.792C253.373 225.743 254.805 223.264 254.614 220.784C254.423 218.304 252.61 216.301 250.415 215.538C248.22 214.871 245.739 215.538 244.307 217.16C246.025 215.92 248.315 215.634 250.033 216.492C251.751 217.255 252.992 219.067 252.992 220.879C252.992 222.596 251.846 224.408 250.319 224.98C248.793 225.648 246.788 225.171 245.357 224.122C244.594 223.55 243.925 222.882 243.448 222.119C242.876 221.356 242.494 220.498 242.017 219.449C241.54 218.495 241.158 217.446 240.49 216.492C240.204 216.015 239.822 215.538 239.345 215.157C238.868 214.776 238.295 214.394 237.627 214.203C236.959 214.013 236.1 214.108 235.527 214.489C234.955 214.871 234.478 215.348 234.191 215.825C233.619 216.683 233.237 217.732 233.237 218.781C232.855 217.637 232.378 216.492 231.806 215.348C232.092 209.053 237.913 207.337 240.394 206.86C246.502 210.865 253.755 216.683 258.908 224.217C251.274 227.841 242.78 229.272 235.814 229.844ZM240.585 202.663C238.295 202.282 232.092 200.565 231.806 194.271C232.378 193.126 232.855 191.886 233.237 190.647C233.237 191.791 233.619 192.84 234.191 193.794C234.573 194.271 234.955 194.748 235.527 195.129C236.1 195.511 236.959 195.606 237.627 195.415C238.295 195.224 238.868 194.843 239.345 194.461C239.822 194.08 240.204 193.603 240.49 193.126C241.158 192.173 241.635 191.124 242.017 190.17C242.494 189.216 242.876 188.358 243.448 187.499C244.021 186.736 244.594 185.973 245.357 185.497C246.788 184.352 248.793 183.971 250.319 184.638C251.942 185.306 253.087 187.023 252.992 188.739C252.992 190.551 251.751 192.363 250.033 193.126C248.315 193.889 246.025 193.699 244.307 192.459C245.739 194.08 248.125 194.748 250.415 194.08C252.61 193.412 254.423 191.314 254.614 188.835C254.805 186.355 253.373 183.875 251.083 182.826C249.938 182.254 248.602 182.159 247.456 182.445C246.216 182.635 245.071 183.112 244.116 183.875C242.208 185.306 240.967 187.404 240.204 189.407C239.822 190.361 239.44 191.314 238.963 192.173C238.486 192.936 237.818 193.699 237.15 193.889C236.768 193.985 236.482 193.985 236.195 193.889C235.909 193.699 235.527 193.412 235.241 193.031C234.669 192.363 234.287 191.41 234.191 190.456C234.001 188.548 235.432 186.546 237.532 186.26C236.959 186.26 236.482 186.26 235.909 186.45C235.432 186.641 234.955 186.927 234.478 187.309C234.287 187.499 234.191 187.69 234.001 187.881C234.764 185.306 235.337 182.635 235.623 179.965C242.589 180.442 250.988 181.968 258.622 185.592C253.66 192.936 246.598 198.658 240.585 202.663ZM242.112 174.624C242.017 175.101 241.635 175.578 241.158 175.864C240.204 176.436 238.963 176.055 238.486 175.101C237.913 174.147 238.295 172.908 239.249 172.431C239.536 172.24 239.917 172.145 240.204 172.145C240.394 172.145 240.585 172.145 240.681 172.24C241.158 172.335 241.635 172.717 241.921 173.194C242.208 173.575 242.208 174.052 242.112 174.624ZM232.951 175.006C230.47 173.957 227.988 173.098 225.412 172.526C225.602 172.526 225.793 172.431 225.984 172.431C226.557 172.24 227.034 172.049 227.416 171.668C227.797 171.286 228.179 170.905 228.37 170.428C227.034 172.145 224.553 172.335 223.026 171.286C222.262 170.714 221.69 169.951 221.403 169.093C221.213 168.616 221.117 168.234 221.213 167.853C221.213 167.471 221.403 167.281 221.69 166.995C222.262 166.518 223.217 166.327 224.076 166.327C225.03 166.327 225.984 166.422 227.034 166.613C229.133 166.899 231.615 166.995 233.81 166.041C234.859 165.564 235.909 164.801 236.673 163.847C237.436 162.894 238.009 161.749 238.104 160.509C238.295 157.934 236.959 155.455 234.669 154.501C232.474 153.452 229.801 153.929 228.084 155.55C226.366 157.171 225.793 159.651 226.461 161.654C226.27 159.556 227.129 157.458 228.752 156.313C230.279 155.169 232.474 155.073 234.001 155.932C235.527 156.79 236.482 158.697 236.195 160.319C236.005 162.035 234.669 163.466 232.951 164.229C232.092 164.61 231.138 164.801 230.183 164.896C229.229 164.992 228.275 164.896 227.225 164.801C226.175 164.706 225.125 164.61 223.885 164.706C223.312 164.706 222.739 164.801 222.167 164.992C221.594 165.183 221.022 165.469 220.449 165.946C219.972 166.422 219.59 167.185 219.59 167.948C219.59 168.616 219.781 169.188 220.067 169.76C220.545 170.714 221.308 171.572 222.167 172.145C221.022 171.954 219.781 171.763 218.636 171.668C213.005 168.234 214.532 162.035 215.391 159.746C221.881 156.504 230.469 153.166 239.44 152.498C238.868 160.605 236.005 168.616 232.951 175.006ZM215.773 154.692C215.105 147.348 213.483 138.669 209.665 130.754C209.761 130.658 209.856 130.658 209.952 130.563C215.868 130.658 221.69 132.28 226.843 135.331C231.996 138.479 236.1 142.77 238.963 148.016C230.279 148.779 222.262 151.64 215.773 154.692ZM209.093 140.768C208.615 139.719 207.947 138.86 206.993 138.193C204.989 136.762 202.126 136.762 200.027 138.193C198.977 138.956 198.213 140.005 197.832 141.149C197.45 142.294 197.259 143.533 197.45 144.678C197.736 147.062 198.977 149.16 200.313 150.782C200.981 151.64 201.553 152.403 202.031 153.261C202.508 154.12 202.794 154.978 202.603 155.741C202.508 156.122 202.412 156.313 202.126 156.504C201.84 156.695 201.363 156.885 200.981 156.981C200.122 157.171 199.072 157.076 198.213 156.599C196.496 155.836 195.446 153.547 196.305 151.64C196.018 152.117 195.828 152.594 195.732 153.166C195.637 153.738 195.637 154.31 195.827 154.787C195.923 155.073 196.018 155.359 196.114 155.55C194.205 153.547 192.106 151.64 189.815 149.923C193.728 144.106 199.263 137.62 206.23 132.852C207.279 135.427 208.329 138.097 209.093 140.768ZM186.952 145.345C185.903 145.345 184.948 144.487 184.948 143.343C184.948 142.294 185.807 141.34 186.952 141.34C188.097 141.34 188.956 142.198 188.956 143.343C188.956 144.392 188.002 145.345 186.952 145.345ZM183.994 150.114C181.894 151.735 179.986 153.452 178.172 155.264C178.268 155.073 178.268 154.978 178.268 154.787C178.363 154.215 178.459 153.643 178.363 153.166C178.268 152.594 178.077 152.117 177.791 151.64C178.65 153.643 177.6 155.932 175.882 156.599C175.023 156.981 174.069 157.076 173.115 156.981C172.637 156.885 172.256 156.79 171.969 156.504C171.683 156.313 171.492 156.027 171.492 155.741C171.397 154.978 171.683 154.12 172.065 153.261C172.542 152.403 173.115 151.64 173.783 150.782C175.119 149.16 176.359 147.062 176.646 144.678C176.741 143.533 176.646 142.294 176.264 141.149C176.073 140.577 175.691 140.005 175.31 139.432C178.745 142.961 181.608 146.681 183.994 150.114ZM164.621 144.392C165.194 146.681 167.007 148.397 169.106 148.874C167.198 148.016 165.766 146.204 165.671 144.296C165.48 142.389 166.434 140.482 167.961 139.528C169.488 138.669 171.588 138.765 172.924 139.814C174.26 140.863 174.928 142.77 174.641 144.582C174.546 145.536 174.26 146.395 173.878 147.253C173.496 148.111 172.924 148.874 172.256 149.732C171.683 150.591 171.015 151.449 170.442 152.498C170.156 153.07 169.965 153.547 169.87 154.215C169.774 154.787 169.679 155.455 169.87 156.122C170.061 156.79 170.538 157.458 171.11 157.839C171.683 158.221 172.351 158.316 172.924 158.316C173.973 158.411 175.023 158.221 175.978 157.744C175.214 158.602 174.546 159.556 173.878 160.414C167.961 163.657 163.285 158.983 161.758 157.171C162.235 149.923 163.667 140.958 167.484 132.852C169.774 134.473 171.969 136.285 173.973 138.193C171.874 136.762 169.106 136.762 167.007 138.193C165.003 139.528 164.048 142.103 164.621 144.392ZM163.38 131.803C159.945 139.432 158.323 147.73 157.75 154.692C151.165 151.64 142.958 148.779 134.369 148.111C137.423 143.057 141.717 138.86 146.966 135.904C152.024 133.138 157.654 131.707 163.38 131.803ZM107.552 204.762C107.648 199.039 109.175 193.603 112.038 188.739C116.905 195.511 123.203 200.851 128.834 204.857C123.013 208.958 116.523 214.489 111.656 221.547C108.888 216.397 107.457 210.675 107.552 204.762ZM133.224 206.86C135.61 207.337 141.813 209.053 141.908 215.634C141.431 216.588 141.049 217.637 140.668 218.686C140.572 217.732 140.286 216.683 139.713 215.825C139.331 215.348 138.95 214.871 138.377 214.489C137.805 214.108 136.946 214.013 136.278 214.203C135.61 214.394 135.037 214.776 134.56 215.157C134.083 215.538 133.701 216.015 133.415 216.492C132.747 217.446 132.269 218.495 131.888 219.449C131.411 220.402 131.029 221.261 130.456 222.119C129.884 222.882 129.311 223.645 128.548 224.122C127.116 225.266 125.112 225.648 123.585 224.98C121.963 224.313 120.818 222.596 120.913 220.879C120.913 219.067 122.154 217.255 123.871 216.492C125.589 215.729 127.88 215.92 129.597 217.16C128.166 215.538 125.78 214.871 123.49 215.538C121.295 216.206 119.481 218.304 119.291 220.784C119.1 223.264 120.531 225.743 122.822 226.792C123.967 227.365 125.303 227.46 126.448 227.174C127.689 226.983 128.834 226.506 129.788 225.743C131.697 224.313 132.937 222.214 133.701 220.212C134.083 219.258 134.464 218.304 134.942 217.446C135.419 216.683 136.087 215.92 136.755 215.729C137.137 215.634 137.423 215.634 137.709 215.729C137.995 215.92 138.377 216.206 138.663 216.588C139.236 217.255 139.618 218.209 139.713 219.163C139.904 221.07 138.473 223.073 136.373 223.359C136.946 223.359 137.423 223.359 137.995 223.168C138.473 222.977 138.95 222.691 139.427 222.31C139.522 222.214 139.618 222.119 139.713 222.024C138.95 224.599 138.473 227.174 138.091 229.844C131.124 229.272 122.535 227.841 114.901 224.122C119.959 216.683 127.212 210.865 133.224 206.86ZM132.651 233.85C132.937 233.659 133.319 233.564 133.606 233.564C134.274 233.564 134.942 233.945 135.323 234.517C135.896 235.471 135.514 236.711 134.56 237.188C134.083 237.474 133.605 237.569 133.033 237.378C132.556 237.283 132.079 236.902 131.792 236.425C131.411 235.566 131.697 234.422 132.651 233.85ZM157.845 255.022C158.418 262.08 160.04 270.377 163.667 278.102C158.036 277.911 152.501 276.29 147.539 273.333C142.672 270.377 138.759 266.371 135.896 261.507C144.008 260.554 151.642 257.883 157.845 255.022ZM167.579 276.767C163.667 268.66 162.235 259.6 161.758 252.352C163.19 250.54 167.866 245.866 173.783 249.014C174.451 249.967 175.119 250.826 175.787 251.684C174.928 251.303 173.973 251.112 172.924 251.207C172.351 251.303 171.683 251.398 171.11 251.684C170.538 251.97 169.965 252.733 169.87 253.401C169.679 254.068 169.679 254.736 169.87 255.308C169.965 255.88 170.252 256.453 170.442 257.025C170.92 258.074 171.588 258.932 172.256 259.791C172.828 260.649 173.401 261.412 173.878 262.27C174.26 263.129 174.546 264.082 174.641 264.941C174.928 266.753 174.26 268.66 172.924 269.709C171.588 270.758 169.488 270.854 167.961 269.995C166.434 269.042 165.385 267.134 165.671 265.227C165.862 263.319 167.198 261.507 169.106 260.649C167.007 261.03 165.194 262.843 164.621 265.131C164.144 267.42 165.003 269.995 167.007 271.331C169.011 272.761 171.874 272.761 173.973 271.331C175.023 270.568 175.787 269.518 176.168 268.374C176.55 267.23 176.741 265.99 176.55 264.845C176.264 262.461 175.023 260.363 173.687 258.742C173.019 257.883 172.447 257.12 171.969 256.262C171.492 255.404 171.206 254.545 171.397 253.782C171.492 253.401 171.588 253.21 171.874 253.019C172.16 252.829 172.637 252.638 173.019 252.542C173.878 252.352 174.928 252.447 175.787 252.924C177.504 253.687 178.554 255.976 177.695 257.883C177.982 257.406 178.173 256.93 178.268 256.357C178.363 255.785 178.363 255.213 178.172 254.736C178.172 254.641 178.077 254.545 178.077 254.45C179.89 256.262 181.799 257.979 183.898 259.6C180.081 265.322 174.546 271.998 167.579 276.767ZM210.142 277.625C213.578 270.091 215.105 261.889 215.773 255.022C222.358 258.074 230.565 260.935 239.249 261.698C236.195 266.657 231.996 270.758 226.843 273.524C221.69 276.385 215.964 277.72 210.142 277.625ZM265.207 172.145C264.921 172.908 264.73 173.766 264.539 174.147C264.348 174.338 264.253 174.529 264.157 174.815C263.394 177.39 262.249 179.774 261.008 182.063C255.95 179.584 250.606 178.058 245.452 177.104C245.739 176.627 245.93 176.15 246.025 175.673C246.407 174.052 246.216 172.431 245.452 171C244.594 169.57 243.353 168.616 241.731 168.139C241.253 168.044 240.776 167.948 240.204 167.948C241.921 162.989 243.257 157.553 243.639 151.926C246.216 151.926 248.793 152.212 251.465 152.784C251.751 152.88 251.942 152.88 252.228 152.784C252.61 152.88 253.469 153.07 254.232 153.261C258.336 154.215 265.684 155.836 273.032 154.978C268.643 160.986 266.448 168.234 265.207 172.145ZM263.298 96.5155C263.871 98.5183 265.302 100.33 267.116 101.475C267.497 101.761 267.974 101.952 268.452 102.142C263.394 103.382 258.527 105.003 253.946 106.72C257.954 103.573 261.008 100.044 263.298 96.5155ZM270.837 101.57C268.261 100.616 266.161 98.8044 265.684 95.6571C265.493 94.5127 265.589 93.2729 265.97 92.1284C266.257 91.4608 266.638 90.8886 266.925 90.221C267.688 88.9812 268.833 87.9321 270.169 87.3598C272.746 86.2154 275.705 86.5969 278.281 87.4552C280.762 88.2182 283.53 89.458 285.82 88.2182C287.252 87.4552 288.111 85.7385 288.492 84.1172C289.351 80.4931 288.111 76.2014 285.057 74.1033C282.003 72.0051 277.041 72.7681 275.323 76.1061C274.75 77.1551 274.655 78.5857 275.514 79.4441C276.563 80.3978 278.377 79.8255 279.236 78.6811C279.713 78.0135 279.999 76.9644 279.426 76.2968C279.045 75.82 278.472 75.7246 277.899 75.82C278.949 75.1524 280.285 74.8662 281.43 75.057C283.816 75.4385 285.916 77.3459 286.679 79.6348C287.443 81.733 287.061 84.4033 285.152 85.7385C282.671 87.4552 279.331 85.9293 276.373 85.3571C273.605 84.8802 270.647 85.4524 268.261 86.883C268.643 85.6432 269.024 84.4987 269.311 83.3543C272.078 72.9588 270.551 64.4708 270.456 64.0893C270.36 63.4217 269.883 62.9449 269.406 62.6588C268.929 62.3726 268.261 62.1819 267.593 62.468C267.211 62.5634 259.099 65.5199 251.465 73.1496C250.224 74.3894 248.983 75.7246 247.838 77.2505C248.506 73.8172 247.456 70.0977 245.262 67.4273C243.353 65.1384 240.299 63.0402 240.585 59.9884C240.776 57.7948 242.876 56.0782 245.166 55.6967C247.552 55.2198 250.224 55.9828 251.751 57.8902C252.514 58.8439 252.896 60.0837 252.896 61.3236C252.705 60.7513 252.324 60.2745 251.751 60.1791C250.892 60.0837 250.224 60.7513 249.842 61.5143C249.27 62.8495 249.651 64.7569 250.988 65.1384C252.133 65.5199 253.373 64.6615 253.946 63.6125C255.95 60.4652 254.137 55.792 250.797 54.1707C247.456 52.5494 243.162 53.5985 240.394 56.1735C239.154 57.318 238.104 58.8439 238.2 60.4652C238.295 63.0402 240.681 64.8523 242.589 66.569C244.689 68.4764 246.407 70.8607 246.693 73.5311C247.075 76.869 244.88 80.3978 241.731 81.5422C239.249 82.4006 237.054 82.0191 235.146 80.7792C232.092 70.5745 227.511 60.4652 220.831 51.5003C237.722 46.0642 256.141 48.067 271.505 56.9365C287.252 65.9967 298.131 81.2561 301.758 98.9951C291.069 98.1368 280.572 99.2812 270.837 101.57ZM275.704 78.0135C275.609 78.2042 275.609 78.395 275.514 78.5857C275.514 78.2996 275.609 78.1089 275.704 78.0135ZM251.846 64.1847C251.751 64.3754 251.656 64.4708 251.465 64.6615C251.56 64.4708 251.656 64.3754 251.846 64.1847ZM235.718 83.3543C238.104 84.6895 241.158 84.7848 243.544 83.4496C241.349 87.4552 239.631 92.2238 238.772 97.8507C238.009 93.0821 236.959 88.1228 235.527 83.1635C235.623 83.2589 235.623 83.3543 235.718 83.3543ZM236.673 118.642C235.814 126.08 237.436 133.424 238.39 137.43C238.581 138.193 238.772 139.051 238.868 139.432C238.868 139.719 238.868 139.909 238.868 140.195C238.963 140.482 238.963 140.768 239.058 141.054C236.291 137.43 232.855 134.378 228.847 131.993C225.221 129.8 221.308 128.274 217.3 127.416C217.395 127.32 217.491 127.32 217.586 127.225C217.968 127.13 218.827 126.843 219.59 126.557C223.503 125.318 230.66 123.124 236.673 118.642ZM218.254 122.647C216.727 123.124 215.773 123.41 215.2 123.792C212.814 124.555 210.524 125.508 208.425 126.653C208.043 126.653 207.757 126.653 207.375 126.653C206.039 124.459 204.512 122.266 202.699 120.263C202.412 119.691 201.744 119.023 200.599 117.783C199.454 116.543 197.832 114.731 196.114 112.633C200.599 109.677 206.23 108.723 211.478 110.154C217.014 111.584 221.499 115.494 223.885 120.644C221.785 121.598 219.781 122.17 218.254 122.647ZM202.317 76.0107C201.172 82.4959 197.927 88.0274 192.583 92.6053C192.965 91.9377 193.346 91.1747 193.633 90.4117C194.778 87.4552 195.541 84.308 196.018 81.1607C197.545 72.5773 197.736 63.4217 194.491 55.3152C194.11 54.3615 193.633 53.3124 192.774 52.6448C191.915 51.9772 190.674 51.7865 189.815 52.4541C189.338 52.8355 189.147 53.3124 188.956 53.7893C188.479 54.9337 188.193 56.4596 189.052 57.4134C189.624 58.1763 190.77 58.4624 191.628 58.0809C192.487 57.6995 193.06 56.6504 192.869 55.6967C192.774 55.1244 192.392 54.6476 191.819 54.5522C191.247 54.4568 190.674 55.2198 191.056 55.6013C190.388 55.1244 190.96 53.98 191.819 53.98C192.583 53.98 193.251 54.6476 193.728 55.3152C194.778 56.9365 195.255 58.9393 195.541 60.9421C197.354 71.9097 195.923 83.2589 191.724 93.559C190.579 94.4173 189.338 95.2756 188.097 96.134C187.811 95.9432 187.429 95.7525 186.952 95.7525C186.666 95.7525 186.38 95.8479 186.093 95.9432C185.234 95.371 184.471 94.8941 183.708 94.3219C179.222 83.9265 177.791 72.1959 179.604 60.9421C179.89 59.0347 180.367 57.0319 181.417 55.3152C181.894 54.6476 182.467 53.98 183.326 53.98C184.089 53.98 184.757 55.2198 184.089 55.6013C184.376 55.1244 183.898 54.4568 183.326 54.5522C182.753 54.6476 182.372 55.1244 182.276 55.6967C182.085 56.6504 182.562 57.6995 183.517 58.0809C184.376 58.4624 185.521 58.1763 186.093 57.4134C186.857 56.4596 186.571 54.9337 186.189 53.7893C185.998 53.3124 185.712 52.7402 185.33 52.4541C184.471 51.7865 183.23 51.9772 182.372 52.6448C181.513 53.3124 181.035 54.3615 180.654 55.3152C177.409 63.4217 177.695 72.5773 179.127 81.1607C179.699 84.308 180.367 87.4552 181.513 90.4117C181.99 91.5562 182.562 92.6053 183.135 93.6543C177.027 88.8858 173.305 82.8774 172.065 75.9153C168.916 58.0809 182.658 38.053 187.334 31.7585C191.819 38.1484 205.466 58.1763 202.317 76.0107ZM186.761 105.194C189.72 112.061 194.778 117.592 197.641 120.644C198.213 121.217 198.786 121.884 199.072 122.17C199.168 122.361 199.263 122.647 199.454 122.838C201.267 124.841 202.794 126.939 204.226 129.228C199.549 132.375 195.541 136.19 192.201 140.1C191.151 138.383 189.243 137.239 187.048 137.239C184.757 137.239 182.849 138.479 181.799 140.291C178.363 136.285 174.26 132.375 169.584 129.228C170.92 126.939 172.447 124.841 174.26 122.838C174.451 122.647 174.546 122.456 174.641 122.17C174.832 121.884 175.5 121.217 176.073 120.644C178.745 117.592 183.803 112.061 186.761 105.194ZM154.124 126.557C154.887 126.843 155.746 127.034 156.128 127.225C156.318 127.416 156.509 127.511 156.796 127.606C157.368 127.797 157.941 127.988 158.513 128.179C153.837 128.751 149.256 130.181 145.057 132.566C141.049 134.759 137.518 137.62 134.655 141.054C134.751 140.768 134.751 140.577 134.846 140.291C134.942 140.005 134.942 139.814 134.846 139.528C134.942 139.146 135.132 138.288 135.323 137.525C136.278 133.424 137.9 126.08 137.041 118.737C142.958 123.124 150.115 125.318 154.124 126.557ZM135.8 96.8969C135.037 92.4145 133.701 88.5997 132.079 85.1663C134.083 85.7385 136.468 85.4524 138.282 84.4034C138.377 84.308 138.473 84.2126 138.663 84.2126C137.423 88.4089 136.468 92.7006 135.8 96.8969ZM139.236 81.8283C137.327 83.0681 135.037 83.6404 132.46 82.6867C131.315 82.3052 130.361 81.5422 129.597 80.6839C129.12 80.0163 128.738 79.3487 128.261 78.6811C127.689 77.4413 127.402 76.0107 127.498 74.5801C127.784 71.8144 129.597 69.4301 131.601 67.618C133.51 65.9014 135.991 64.0893 135.991 61.5143C135.991 59.7976 135.037 58.2717 133.796 57.2226C131.029 54.6476 126.734 53.5985 123.394 55.2198C120.054 56.8411 118.241 61.5143 120.245 64.6615C120.913 65.7106 122.058 66.569 123.203 66.1875C124.635 65.806 125.017 63.8986 124.349 62.5634C123.967 61.8004 123.299 61.0374 122.44 61.2282C121.867 61.3236 121.486 61.8004 121.295 62.3726C121.295 61.1328 121.676 59.893 122.44 58.9393C123.967 57.0319 126.639 56.2689 129.025 56.7458C131.22 57.2226 133.415 58.8439 133.606 61.0374C133.892 64.0893 130.838 66.1875 128.929 68.4764C127.116 70.5745 126.162 73.3403 126.162 76.1061C125.207 75.057 124.349 74.0079 123.394 73.1496C115.76 65.5199 107.648 62.6588 107.266 62.468C106.694 62.2773 106.026 62.3726 105.453 62.6588C104.88 62.9449 104.499 63.4217 104.403 64.0893C104.308 64.4708 102.781 72.9588 105.548 83.3543C106.026 85.1663 106.598 86.9784 107.457 88.9812C104.785 86.7876 101.158 85.8339 97.8183 86.4061C94.8599 86.883 91.5198 88.5043 89.0385 86.7876C87.2253 85.4524 86.8436 82.782 87.5116 80.6839C88.2751 78.395 90.3746 76.3922 92.7604 76.1061C94.001 75.9153 95.2416 76.2014 96.2914 76.869C95.7188 76.7737 95.0508 76.869 94.7645 77.3459C94.2873 78.0135 94.4782 78.9672 94.9553 79.7302C95.8142 80.8746 97.6275 81.5422 98.6772 80.4931C99.5361 79.6348 99.4407 78.2042 98.8681 77.1551C97.1503 73.8172 92.1878 73.0542 89.134 75.1524C86.0801 77.2505 84.8395 81.5422 85.6984 85.1663C86.0801 86.7876 86.8436 88.5043 88.3705 89.2673C90.6609 90.5071 93.4284 89.2673 95.9097 88.5043C98.5818 87.646 101.54 87.3598 104.021 88.4089C107.171 89.7441 109.079 93.3682 108.507 96.7062C108.125 99.0905 106.789 100.712 104.976 101.761C94.4782 99.1859 83.1217 97.8507 71.7652 99.0905C75.5825 81.8283 86.4618 66.9505 101.826 58.0809C117.477 49.0207 136.087 47.2087 153.169 52.8355C146.584 61.8004 142.194 71.8144 139.236 81.8283ZM122.154 65.1384C122.249 65.3291 122.344 65.4245 122.535 65.6152C122.44 65.4245 122.344 65.3291 122.154 65.1384ZM110.893 95.7525C113.374 99.6627 116.619 103.478 121.104 107.006C116.619 105.29 111.942 103.668 106.98 102.428C109.27 100.903 110.893 98.3275 110.893 95.7525ZM131.22 136.571C130.838 138.193 130.647 139.051 130.647 139.719C130.075 142.484 129.788 145.25 129.693 148.016C127.021 148.111 124.349 148.302 121.676 148.874C121.008 148.874 120.054 149.065 118.527 149.446C116.809 149.828 114.519 150.305 111.942 150.686C111.37 145.059 113.374 139.337 117.382 135.331C121.39 131.326 126.925 129.323 132.46 129.8C132.174 132.566 131.601 134.855 131.22 136.571ZM108.03 151.163C104.499 151.449 100.681 151.258 97.1503 150.305C96.864 140.672 93.9056 132.852 88.4659 126.843C88.9431 127.32 89.4203 127.702 89.8974 128.083C95.8142 132.566 105.739 134.759 114.137 133.233C109.652 138.002 107.362 144.582 108.03 151.163ZM92.5695 145.059C91.9969 144.106 91.4243 143.057 90.6609 142.198C88.6568 139.719 86.271 137.525 83.8852 135.427C77.2049 129.8 69.3794 125.031 60.6951 123.792C59.6453 123.601 58.5001 123.505 57.5458 123.982C56.5915 124.364 55.7326 125.413 55.9234 126.462C56.0189 127.034 56.3052 127.511 56.6869 127.893C57.4504 128.846 58.5956 129.8 59.8362 129.705C60.7905 129.609 61.554 128.751 61.6494 127.797C61.7448 126.843 61.0768 125.89 60.2179 125.604C59.6453 125.413 58.9773 125.508 58.691 125.985C58.4047 126.462 58.691 127.225 59.2636 127.225C58.5001 127.606 57.8321 126.462 58.2138 125.794C58.5956 125.127 59.4545 124.841 60.3133 124.841C62.3174 124.745 64.2261 125.413 66.0393 126.08C76.6323 130.086 85.9847 137.239 92.8558 146.299C93.0467 147.539 93.1421 148.779 93.1421 150.019C92.8558 150.209 92.665 150.4 92.5695 150.686C92.4741 150.972 92.3787 151.163 92.2832 151.449C91.138 152.021 90.0883 152.498 88.9431 152.975C77.6821 151.64 66.8028 147.062 58.023 139.909C56.496 138.669 54.9691 137.334 54.1102 135.522C53.7285 134.855 53.5376 133.901 53.9194 133.233C54.3011 132.566 55.6372 132.661 55.7326 133.424C55.4463 132.947 54.5874 133.043 54.3965 133.519C54.2057 133.996 54.3965 134.664 54.8737 135.045C55.5417 135.713 56.7823 135.713 57.5458 135.236C58.3093 134.664 58.691 133.615 58.3093 132.661C57.8321 131.517 56.4006 130.944 55.16 130.849C54.5874 130.754 54.0148 130.754 53.5376 130.944C52.5833 131.326 52.1062 132.566 52.2016 133.615C52.3924 134.664 52.965 135.618 53.6331 136.476C59.0727 143.343 67.0891 147.73 75.2962 150.686C78.2547 151.831 81.4039 152.784 84.5532 153.261C85.6984 153.452 86.8436 153.452 87.9888 153.452C80.9268 156.122 74.1511 156.313 67.6617 154.024C50.6747 147.825 40.1771 125.985 37.0278 118.737C44.8533 117.783 69.0931 115.971 82.9308 127.606C88.1796 131.612 91.4243 137.62 92.5695 145.059ZM91.9015 179.298C93.333 173.861 97.2457 169.284 102.399 166.899C103.449 169.474 104.117 171.763 104.689 173.48C105.167 175.006 105.453 175.96 105.835 176.532C106.694 179.202 107.839 181.682 109.175 184.066C106.884 185.497 104.594 187.023 102.59 188.93C102.017 189.216 101.349 189.884 100.109 191.028C98.8681 192.173 97.1503 193.794 95.0508 195.415C91.5198 190.742 90.47 184.829 91.9015 179.298ZM102.781 194.08C103.353 193.508 104.021 192.936 104.308 192.649C104.499 192.554 104.785 192.459 104.976 192.268C105.453 191.791 106.026 191.314 106.598 190.933C104.785 195.224 103.735 199.898 103.64 204.762C103.544 209.53 104.308 214.203 105.93 218.495C105.644 218.209 105.262 217.923 104.976 217.637C104.785 217.446 104.594 217.351 104.308 217.255C104.021 217.064 103.353 216.397 102.781 215.825C99.727 212.963 94.1919 207.909 87.3207 204.952C94.1919 201.996 99.727 196.846 102.781 194.08ZM100.013 218.781C101.254 219.926 101.922 220.498 102.495 220.879C104.499 222.691 106.789 224.313 109.079 225.648C107.743 228.032 106.694 230.512 105.835 233.087C105.453 233.659 105.167 234.517 104.689 236.139C104.212 237.76 103.449 239.953 102.495 242.433C97.2457 240.144 93.2376 235.471 91.8061 229.939C90.3746 224.503 91.4243 218.686 94.669 214.108C96.864 215.92 98.6772 217.541 100.013 218.781ZM108.602 237.378C108.888 236.615 109.079 235.757 109.27 235.376C109.461 235.185 109.557 234.994 109.652 234.708C110.415 232.228 111.465 229.844 112.706 227.651C117.764 230.13 123.203 231.752 128.357 232.705C127.402 234.517 127.402 236.711 128.452 238.618C129.502 240.526 131.506 241.575 133.51 241.67C131.792 246.629 130.456 251.97 130.075 257.597C127.498 257.597 124.921 257.311 122.344 256.739C122.058 256.643 121.867 256.643 121.581 256.739C121.199 256.643 120.34 256.453 119.577 256.262C115.473 255.308 108.125 253.687 100.777 254.545C105.071 248.537 107.362 241.384 108.602 237.378ZM117 274.001C112.992 269.995 110.988 264.464 111.465 258.932C114.233 259.314 116.714 259.886 118.527 260.268C120.15 260.649 121.008 260.84 121.676 260.84C124.444 261.412 127.116 261.698 129.884 261.698C129.884 264.464 130.17 267.134 130.838 269.9C130.838 270.568 131.029 271.521 131.411 273.047C131.792 274.669 132.269 276.862 132.651 279.437C126.925 280.105 121.104 278.102 117 274.001ZM110.702 311.482C110.225 309.765 109.175 308.239 107.839 307.095C111.083 306.236 114.233 305.187 117.191 304.138C114.519 306.522 112.419 309.002 110.702 311.482ZM105.548 307.667C106.98 308.716 107.934 310.242 108.316 312.245C108.507 313.389 108.411 314.534 108.03 315.678C107.552 316.441 107.171 317.299 106.789 318.062C106.026 319.111 104.976 320.065 103.735 320.542C101.158 321.686 98.2001 321.305 95.6234 320.447C93.1421 319.684 90.3746 318.444 88.0842 319.684C86.6527 320.447 85.7938 322.163 85.4121 323.785C84.5532 327.409 85.7938 331.7 88.8477 333.799C91.9015 335.897 96.864 335.134 98.5818 331.796C99.1544 330.747 99.2498 329.316 98.3909 328.458C97.3412 327.504 95.5279 328.076 94.669 329.221C94.1919 329.888 93.9056 330.937 94.4782 331.605C94.8599 332.082 95.4325 332.177 96.0051 332.082C94.9553 332.749 93.6193 333.036 92.4741 332.845C90.0883 332.463 87.9888 330.556 87.2253 328.267C86.4619 326.169 86.8436 323.499 88.7522 322.163C91.2335 320.447 94.5736 321.973 97.532 322.545C100.204 323.022 103.067 322.449 105.453 321.21C104.88 322.736 104.403 324.166 104.117 325.501C101.349 335.897 102.876 344.385 102.972 344.766C103.067 345.434 103.544 345.911 104.021 346.197C104.308 346.388 104.689 346.483 105.167 346.483C105.357 346.483 105.644 346.483 105.835 346.388C106.216 346.292 114.328 343.336 121.963 335.706C123.299 334.371 124.73 332.749 126.066 330.937C125.589 334.275 126.544 337.804 128.643 340.379C130.552 342.668 133.606 344.766 133.319 347.818C133.128 350.012 131.029 351.728 128.738 352.11C126.353 352.587 123.681 351.824 122.154 349.916C121.39 348.963 121.008 347.723 121.008 346.483C121.199 347.055 121.581 347.532 122.154 347.627C123.013 347.723 123.681 347.055 124.062 346.292C124.635 344.957 124.253 343.05 122.917 342.668C121.772 342.287 120.531 343.145 119.959 344.194C117.955 347.341 119.768 352.014 123.108 353.636C126.448 355.257 130.743 354.208 133.51 351.633C134.751 350.488 135.8 348.963 135.705 347.341C135.61 344.766 133.224 342.954 131.315 341.238C129.216 339.33 127.498 336.946 127.212 334.275C126.83 330.937 129.025 327.409 132.174 326.264C134.56 325.406 136.659 325.787 138.568 326.836C141.526 337.327 146.012 347.913 152.692 357.26C135.8 362.696 117.287 360.789 101.922 351.824C86.4619 342.859 75.678 327.981 71.8607 310.623C83.5989 311.768 94.9553 310.337 105.548 307.667ZM122.154 343.717C122.249 343.526 122.344 343.431 122.535 343.24C122.44 343.431 122.249 343.526 122.154 343.717ZM130.361 324.452C132.651 319.97 134.369 314.534 134.942 308.144C135.705 313.485 136.755 319.016 138.186 324.643C135.8 323.212 132.747 323.117 130.361 324.452ZM137.041 290.977C137.9 283.538 136.278 276.194 135.323 272.189C135.132 271.426 134.942 270.568 134.846 270.186C134.846 269.9 134.846 269.709 134.846 269.423C134.655 268.374 134.464 267.42 134.274 266.371C137.232 270.472 140.954 273.906 145.344 276.576C149.447 279.056 153.837 280.677 158.513 281.44C157.941 281.631 157.368 281.821 156.796 282.012C156.605 282.107 156.318 282.203 156.128 282.394C155.746 282.584 154.887 282.775 154.124 283.061C150.306 284.301 143.053 286.495 137.041 290.977ZM175.882 288.783C175.31 288.211 174.737 287.544 174.451 287.258C174.355 287.067 174.26 286.781 174.069 286.59C172.256 284.682 170.824 282.584 169.488 280.391C174.164 277.244 178.268 273.333 181.703 269.328C182.753 271.14 184.757 272.284 186.952 272.284C189.147 272.284 190.96 271.14 192.106 269.423C195.446 273.333 199.454 277.148 204.13 280.295C202.794 282.489 201.267 284.587 199.549 286.495C199.359 286.685 199.263 286.876 199.168 287.162C198.977 287.448 198.309 288.116 197.736 288.688C194.873 291.74 189.815 297.271 186.857 304.138C183.803 297.367 178.745 291.835 175.882 288.783ZM185.712 352.777C185.139 352.014 183.994 351.728 183.135 352.11C182.276 352.491 181.704 353.54 181.894 354.494C181.99 355.066 182.372 355.543 182.944 355.639C183.517 355.734 184.089 354.971 183.708 354.589C184.376 355.066 183.803 356.211 182.944 356.211C182.181 356.211 181.513 355.543 181.035 354.876C179.986 353.254 179.509 351.251 179.222 349.249C177.409 337.804 178.936 325.883 183.612 315.297C184.376 314.724 185.234 314.152 186.093 313.58C186.284 313.58 186.38 313.675 186.571 313.675C186.857 313.675 187.143 313.58 187.334 313.485C188.67 314.343 189.911 315.201 191.056 316.06C195.446 326.455 196.877 338.09 195.064 349.249C194.778 351.156 194.301 353.159 193.251 354.876C192.774 355.543 192.201 356.211 191.342 356.211C190.579 356.211 189.911 354.971 190.579 354.589C190.292 355.066 190.77 355.734 191.342 355.639C191.915 355.543 192.297 355.066 192.392 354.494C192.583 353.54 192.106 352.491 191.151 352.11C190.292 351.728 189.147 352.014 188.575 352.777C187.811 353.731 188.097 355.257 188.479 356.401C188.67 356.878 188.956 357.451 189.338 357.737C190.197 358.404 191.438 358.214 192.297 357.546C193.155 356.878 193.633 355.829 194.014 354.876C197.259 346.769 196.973 337.613 195.541 329.03C194.969 325.883 194.301 322.736 193.155 319.779C192.774 318.73 192.296 317.776 191.724 316.823C197.354 321.496 200.695 327.218 201.935 333.799C205.084 351.633 191.342 371.661 186.666 377.955C181.894 371.661 168.248 351.633 171.397 333.799C172.637 326.646 176.55 320.637 182.944 315.773C182.181 317.013 181.417 318.348 180.845 319.779C179.699 322.736 178.936 325.883 178.459 329.03C176.932 337.613 176.741 346.769 179.986 354.876C180.367 355.829 180.845 356.878 181.703 357.546C182.562 358.214 183.803 358.404 184.662 357.737C185.139 357.355 185.33 356.878 185.521 356.401C186.284 355.162 186.571 353.731 185.712 352.777ZM189.243 309.765C190.197 306.046 192.01 302.612 194.014 299.656C197.927 302.422 202.603 303.947 207.375 303.947C208.806 303.947 210.238 303.852 211.669 303.566C206.421 309.765 203.558 318.73 204.035 325.883C201.267 319.398 196.305 314.057 189.243 309.765ZM212.337 299.37C206.898 300.8 201.076 299.751 196.4 296.509C198.022 294.506 199.549 292.789 200.695 291.549C201.84 290.309 202.412 289.642 202.794 289.07C204.607 286.971 206.23 284.778 207.661 282.489C210.047 283.824 212.528 284.969 215.2 285.827C215.773 286.208 216.632 286.495 218.254 286.971C219.876 287.448 222.167 288.211 224.648 289.165C222.167 294.124 217.682 297.939 212.337 299.37ZM219.399 283.061C218.636 282.775 217.777 282.584 217.395 282.394C217.204 282.203 217.014 282.107 216.727 282.012C216.059 281.821 215.391 281.535 214.723 281.344C219.59 280.868 224.266 279.342 228.656 276.957C232.569 274.859 235.909 272.094 238.772 268.851C238.772 269.042 238.677 269.232 238.677 269.423C238.581 269.709 238.581 269.9 238.677 270.186C238.581 270.568 238.39 271.426 238.2 272.189C237.245 276.29 235.623 283.633 236.482 290.977C230.565 286.495 223.312 284.301 219.399 283.061ZM238.486 314.152C239.249 318.062 240.49 321.591 242.017 324.738C240.013 324.166 237.818 324.452 236.005 325.406C236.959 321.591 237.818 317.776 238.486 314.152ZM235.337 327.599C237.15 326.55 239.249 326.264 241.54 327.123C242.685 327.504 243.639 328.267 244.403 329.125C244.88 329.793 245.262 330.461 245.739 331.128C246.311 332.368 246.598 333.799 246.502 335.229C246.216 337.995 244.403 340.379 242.399 342.191C240.49 343.908 238.009 345.72 238.009 348.295C238.009 350.012 238.963 351.538 240.204 352.587C242.971 355.162 247.266 356.211 250.606 354.589C253.946 352.968 255.759 348.295 253.755 345.148C253.087 344.099 251.942 343.24 250.797 343.622C249.365 344.003 248.983 345.911 249.651 347.246C250.033 348.009 250.701 348.772 251.56 348.581C252.133 348.486 252.514 348.009 252.705 347.437C252.705 348.676 252.324 349.916 251.56 350.87C250.033 352.777 247.361 353.54 244.975 353.064C242.78 352.587 240.585 350.965 240.394 348.772C240.108 345.72 243.162 343.622 245.071 341.333C246.884 339.235 247.838 336.469 247.838 333.703C248.793 334.752 249.651 335.801 250.606 336.66C258.24 344.289 266.352 347.151 266.734 347.341C266.925 347.437 267.211 347.437 267.402 347.437C267.784 347.437 268.165 347.341 268.547 347.15C269.12 346.864 269.501 346.388 269.597 345.72C269.692 345.338 271.219 336.85 268.452 326.455C267.974 324.643 267.402 322.831 266.543 320.828C269.215 323.022 272.842 323.975 276.182 323.403C279.14 322.926 282.48 321.305 284.961 323.022C286.775 324.357 287.156 327.027 286.488 329.125C285.725 331.414 283.625 333.417 281.24 333.703C279.999 333.894 278.758 333.608 277.709 332.94C278.281 333.036 278.949 332.94 279.236 332.463C279.713 331.796 279.522 330.842 279.045 330.079C278.186 328.935 276.373 328.267 275.323 329.316C274.464 330.174 274.559 331.605 275.132 332.654C276.85 335.992 281.812 336.755 284.866 334.657C287.92 332.559 289.16 328.267 288.302 324.643C287.92 323.022 287.156 321.305 285.629 320.542C283.339 319.302 280.572 320.542 278.09 321.305C275.418 322.163 272.46 322.449 269.979 321.4C266.829 320.065 264.921 316.441 265.493 313.103C265.97 310.433 267.593 308.716 269.597 307.667C279.999 310.147 291.165 311.386 302.33 310.242C298.608 327.695 287.729 342.763 272.174 351.728C256.618 360.693 238.295 362.601 221.308 357.069C227.988 348.009 232.378 337.804 235.337 327.599ZM251.846 344.671C251.751 344.48 251.656 344.385 251.465 344.194C251.56 344.385 251.751 344.48 251.846 344.671ZM275.704 330.842C275.609 330.651 275.514 330.461 275.514 330.27C275.609 330.556 275.609 330.651 275.704 330.842ZM267.116 307.381C264.73 308.811 263.107 311.386 263.107 314.057C260.435 309.86 256.713 305.664 251.656 301.945C256.618 303.947 261.962 305.759 267.593 307.19C267.402 307.285 267.211 307.285 267.116 307.381ZM242.303 273.047C242.685 271.426 242.876 270.568 242.876 269.9C243.448 267.23 243.735 264.464 243.735 261.793C246.502 261.793 249.27 261.507 252.037 260.84C252.705 260.84 253.66 260.649 255.187 260.268C256.809 259.886 259.099 259.409 261.581 259.028C261.962 264.464 259.958 269.9 256.045 273.715C252.037 277.72 246.502 279.723 240.967 279.246C241.444 276.862 241.921 274.669 242.303 273.047ZM258.908 276.576C263.68 271.807 266.066 265.227 265.589 258.646C269.215 258.36 273.128 258.455 276.754 259.505C277.041 269.042 279.999 276.862 285.439 282.775C284.961 282.298 284.484 281.917 284.007 281.535C277.899 276.957 267.497 274.669 258.813 276.576C258.813 276.671 258.813 276.671 258.908 276.576ZM281.24 264.655C281.812 265.608 282.385 266.657 283.148 267.516C285.152 269.995 287.538 272.189 289.924 274.287C296.604 279.914 304.43 284.682 313.114 285.922C314.164 286.113 315.309 286.208 316.263 285.732C317.218 285.35 318.077 284.301 317.886 283.252C317.79 282.68 317.504 282.203 317.122 281.821C316.359 280.868 315.214 279.914 313.973 280.009C313.019 280.105 312.255 280.963 312.16 281.917C312.064 282.87 312.732 283.824 313.591 284.11C314.164 284.301 314.832 284.206 315.118 283.729C315.404 283.252 315.118 282.489 314.546 282.489C315.309 282.107 315.977 283.252 315.595 283.92C315.214 284.587 314.355 284.873 313.496 284.873C311.492 284.969 309.583 284.301 307.77 283.633C297.177 279.628 287.824 272.475 280.953 263.415C280.762 262.27 280.667 261.03 280.667 259.791C280.858 259.6 281.049 259.409 281.24 259.218C281.43 258.932 281.43 258.646 281.526 258.36C282.671 257.788 283.816 257.216 284.866 256.739C296.127 258.074 307.006 262.652 315.786 269.805C317.313 271.044 318.84 272.38 319.699 274.192C320.081 274.859 320.272 275.813 319.89 276.481C319.508 277.148 318.172 277.053 318.077 276.29C318.363 276.767 319.222 276.671 319.413 276.194C319.603 275.718 319.413 275.05 318.935 274.669C318.267 274.001 317.027 274.001 316.263 274.478C315.5 275.05 315.118 276.099 315.5 277.053C315.977 278.197 317.409 278.77 318.649 278.865C319.222 278.96 319.794 278.96 320.272 278.77C321.226 278.388 321.703 277.148 321.608 276.099C321.417 275.05 320.844 274.096 320.176 273.238C314.736 266.371 306.72 261.984 298.513 259.028C295.554 257.883 292.405 256.93 289.256 256.453C288.111 256.262 286.966 256.262 285.82 256.262C292.882 253.592 299.658 253.401 306.147 255.69C323.134 261.889 333.632 283.729 336.781 290.977C328.956 291.931 304.716 293.743 290.878 282.107C285.725 278.102 282.385 272.094 281.24 264.655ZM271.028 215.825C270.456 216.397 269.788 216.969 269.501 217.255C269.311 217.351 269.024 217.446 268.833 217.637C268.356 218.018 267.879 218.495 267.402 218.876C269.406 214.394 270.456 209.53 270.551 204.571C270.647 200.374 269.979 196.178 268.738 192.268C268.738 192.268 268.833 192.268 268.833 192.363C269.024 192.554 269.215 192.649 269.501 192.745C269.788 192.936 270.456 193.603 271.028 194.175C274.082 197.036 279.617 202.091 286.488 205.048C279.617 207.813 274.082 212.963 271.028 215.825ZM340.503 105.003C330.769 104.813 321.703 102.715 316.168 101.475C313.019 100.712 311.492 100.426 310.442 100.521C308.915 100.14 307.388 99.9488 305.861 99.6627C302.33 80.207 290.592 63.4217 273.414 53.5985C256.523 43.8707 236.386 41.9632 217.968 48.2577C217.3 47.4948 216.632 46.7318 215.964 45.9688C215.582 45.0151 214.437 43.8707 212.242 41.4864C208.329 37.2901 202.126 30.5187 197.068 22.1261C255.187 25.3687 308.533 56.1735 340.503 105.003ZM187.239 11.063C192.106 25.7502 203.367 37.9577 209.283 44.3475C210.524 45.6827 211.86 47.1133 212.242 47.6855C212.337 47.9716 212.528 48.2577 212.719 48.4485C229.897 67.0458 235.241 93.6543 236.577 113.396C233.905 115.876 230.756 117.688 227.702 119.214C225.602 114.541 221.881 110.63 217.395 108.341C210.906 102.047 207.089 92.8914 207.47 83.7357C207.566 80.97 208.329 77.9181 210.62 76.4875C213.101 74.8662 216.536 75.82 219.018 77.5366C222.071 79.7302 224.266 83.9265 222.739 87.2645C223.121 86.3108 222.93 85.1663 222.167 84.4034C221.308 83.545 219.781 83.545 218.827 84.308C218.159 85.357 218.159 86.7876 218.827 87.7413C219.495 88.7904 220.831 89.2673 222.071 89.0765C224.171 88.5997 225.221 86.2154 225.125 84.1172C224.934 80.1116 221.976 76.6783 218.54 74.5801C216.155 73.0542 213.292 71.9097 210.62 72.6727C208.997 73.1496 207.661 74.1986 206.707 75.6292C209.856 53.4078 190.96 29.9465 188.861 27.4669C188.479 26.8946 187.811 26.6085 187.143 26.6085C186.38 26.6085 185.807 26.99 185.425 27.5622C183.04 30.4234 163.953 54.5522 167.866 76.7737C169.488 86.2154 175.119 93.9404 184.471 99.8534C183.517 103.478 181.703 106.911 179.699 109.867C174.164 105.957 167.198 104.717 160.613 106.529C160.327 106.625 160.04 106.72 159.754 106.816C165.957 100.33 169.297 89.9349 168.343 82.2098C167.866 78.2042 165.957 73.8172 162.14 72.7681C159.468 72.0051 156.605 73.1496 154.219 74.6755C150.783 76.869 147.825 80.207 147.634 84.2126C147.539 86.3108 148.588 88.7904 150.688 89.1719C151.929 89.458 153.169 88.8858 153.933 87.8367C154.601 86.7876 154.601 85.3571 153.933 84.4034C152.978 83.6404 151.451 83.6404 150.592 84.4987C149.829 85.1663 149.638 86.4061 150.02 87.3598C148.398 84.1172 150.592 79.8255 153.742 77.632C156.223 75.9153 159.563 74.9616 162.14 76.5829C164.43 78.1089 165.194 81.1607 165.289 83.8311C165.671 93.1775 161.663 102.715 154.696 109.009C153.265 109.867 152.024 110.821 150.783 111.966C150.592 112.156 150.306 112.252 150.115 112.442C150.211 112.442 150.306 112.347 150.402 112.347C148.493 114.254 146.871 116.543 145.725 119.023C143.053 117.783 140.381 116.162 138.091 114.159C139.331 94.2266 144.58 67.3319 161.949 48.5438C162.14 48.3531 162.331 48.067 162.426 47.7809C162.808 47.2087 164.144 45.7781 165.385 44.4429C171.11 37.9577 182.276 25.7502 187.239 11.063ZM177.409 22.2214C172.351 30.5187 166.053 37.3854 162.14 41.5818C159.945 43.966 158.895 45.1105 158.418 46.0642C157.368 47.2087 156.414 48.2577 155.555 49.4022C136.946 42.8216 116.619 44.6336 99.5361 54.5522C82.74 64.2801 71.0018 80.6839 67.2799 99.6627C66.0393 99.8535 64.7987 100.14 63.558 100.33C62.5083 100.235 60.9814 100.616 57.8321 101.284C52.297 102.524 43.3264 104.527 33.6877 104.813C65.753 55.8874 119.1 25.1779 177.409 22.2214ZM58.7864 105.29C60.5996 104.908 62.5083 104.431 63.1763 104.431C63.4626 104.527 63.8443 104.527 64.1306 104.431C88.8477 98.8997 114.519 107.483 132.46 116.353C133.224 119.595 133.319 122.933 133.033 126.08C127.402 125.604 121.867 127.13 117.287 130.468C109.079 132.28 100.013 130.849 92.9513 126.271C90.6609 124.745 88.3705 122.647 88.1796 119.881C88.0842 116.925 90.5654 114.445 93.2376 113.205C96.6731 111.679 101.445 111.87 103.449 114.827C102.781 114.064 101.731 113.587 100.681 113.873C99.5361 114.254 98.6772 115.494 98.8681 116.734C99.4407 117.879 100.681 118.546 101.922 118.451C103.163 118.355 104.308 117.497 104.689 116.353C105.357 114.35 103.831 112.156 101.922 111.203C98.3909 109.295 93.9056 110.249 90.3746 112.061C87.8933 113.396 85.5075 115.304 84.7441 117.974C84.076 120.74 85.3167 123.505 87.3207 125.794C86.7481 125.222 86.0801 124.65 85.4121 124.078C67.8525 109.391 37.0278 114.159 33.8785 114.731C33.2105 114.827 32.6379 115.208 32.2562 115.78C31.8745 116.448 31.8745 117.116 32.2562 117.783C33.5922 121.312 44.8533 149.828 66.1347 157.648C66.8982 157.934 67.6616 158.125 68.4251 158.411C65.5621 157.839 62.5083 158.125 60.5042 160.128C58.5001 162.035 58.023 165.087 58.1184 167.948C58.3093 171.954 59.7407 176.246 63.1763 178.439C64.9895 179.584 67.6617 179.87 69.0931 178.248C69.952 177.295 70.1429 175.96 69.5703 174.815C68.9977 173.671 67.7571 173.003 66.6119 173.098C65.4667 173.575 64.7987 174.91 65.085 176.055C65.3713 177.104 66.2302 177.867 67.2799 177.962C63.6535 177.676 61.0768 173.671 60.6951 169.951C60.4088 166.995 61.2677 163.561 63.9398 162.226C66.421 160.986 69.3794 161.845 71.8607 163.18C79.3044 166.995 85.0304 174.052 87.607 181.968C86.939 187.69 88.4659 193.412 91.9015 198.086C89.4203 199.802 86.6527 201.328 83.6943 202.282C66.9936 191.219 46.3802 173.194 38.7456 148.779C38.6502 148.493 38.4593 148.207 38.2684 148.016C37.9821 147.444 37.4095 145.632 36.8369 143.819C34.2603 135.522 29.2978 119.786 18.9911 108.151C34.1648 110.821 50.2929 107.197 58.7864 105.29ZM37.7913 251.779C24.4307 239.858 16.7961 222.787 16.7961 204.857C16.7961 186.832 24.4307 169.856 37.8867 157.839C42.5629 168.234 49.2432 177.295 56.7823 185.02C56.6869 187.023 55.9235 188.93 54.1102 190.456C53.2513 191.219 52.1062 191.696 50.961 191.982C50.0066 191.982 49.1477 192.077 48.2888 192.173C46.9528 192.077 45.7122 191.6 44.567 190.837C42.372 189.216 41.1314 186.45 40.5588 183.78C39.9862 181.205 39.6999 178.248 37.4095 176.913C35.9781 176.055 34.1648 176.15 32.5425 176.722C28.916 177.867 25.8622 181.014 25.5759 184.734C25.2896 188.453 28.4389 192.363 32.1608 192.173C33.4014 192.173 34.7374 191.505 35.0237 190.361C35.4055 188.93 33.8785 187.69 32.4471 187.499C31.5882 187.404 30.6338 187.69 30.3475 188.453C30.1567 189.025 30.3475 189.598 30.7293 190.074C29.6795 189.502 28.7252 188.548 28.3435 187.309C27.4846 185.02 28.1526 182.349 29.6795 180.442C31.111 178.725 33.6877 177.772 35.6918 178.725C38.4593 179.965 38.7456 183.685 39.7954 186.546C40.7497 189.121 42.5629 191.314 44.9487 192.649C43.4218 192.936 41.8949 193.222 40.5588 193.603C30.1567 196.464 23.5718 201.996 23.2855 202.282C22.8084 202.663 22.5221 203.331 22.6175 203.903C22.6175 204.475 22.8084 205.143 23.2855 205.525C23.5718 205.715 30.1567 211.342 40.5588 214.203C42.4675 214.68 44.4715 215.157 46.7619 215.443C43.6127 216.683 41.036 219.258 39.8908 222.501C38.841 225.362 38.5547 228.986 35.7872 230.321C33.7831 231.275 31.2064 230.226 29.7749 228.604C28.1526 226.792 27.4846 224.027 28.4389 221.738C28.916 220.593 29.7749 219.639 30.8247 218.972C30.443 219.449 30.2521 220.021 30.443 220.593C30.7293 221.356 31.779 221.642 32.5425 221.547C33.974 221.451 35.5009 220.116 35.1192 218.686C34.8329 217.541 33.4968 216.874 32.2562 216.874C28.5343 216.683 25.385 220.593 25.6713 224.313C25.9576 228.032 29.0115 231.179 32.6379 232.324C34.2603 232.801 36.0735 232.991 37.505 232.133C39.6999 230.798 40.0817 227.746 40.6542 225.266C41.2268 222.596 42.4675 219.83 44.6624 218.209C47.43 216.206 51.5336 216.301 54.1102 218.495C56.1143 220.212 56.8778 222.405 56.7823 224.599C49.2432 232.324 42.4675 241.384 37.7913 251.779ZM41.8949 210.293C35.5009 208.576 30.5384 205.62 27.9617 203.903C33.7831 199.898 52.0107 189.884 72.815 201.805C65.2758 199.135 50.7701 195.511 41.8949 203.808C50.961 212.201 65.6576 208.481 73.1013 205.715C63.1763 211.628 52.6787 213.154 41.8949 210.293ZM55.9234 192.173C57.3549 190.742 58.2138 188.739 58.3093 186.736C61.0768 189.502 63.9398 192.077 66.8028 194.557C63.0809 193.126 59.359 192.459 55.9234 192.173ZM33.7831 218.209C33.974 218.209 34.1648 218.209 34.3557 218.304C34.1648 218.304 33.974 218.209 33.7831 218.209ZM54.5874 215.634C59.8362 215.348 65.6576 214.108 71.6698 211.151C67.1845 214.585 62.6992 218.495 58.4047 222.787C58.4047 222.691 58.4047 222.596 58.4047 222.501C58.4047 219.83 56.8778 217.064 54.5874 215.634ZM3.8173 205.048C3.8173 176.15 10.6884 147.444 23.7627 121.884C28.4389 130.372 31.111 139.146 32.8288 144.582C33.7831 147.73 34.2603 149.16 34.8329 150.019C35.2146 151.354 35.6918 152.594 36.1689 153.929C21.186 166.709 12.5971 185.21 12.5971 204.952C12.5971 224.503 21.0906 243.005 35.9781 255.785L36.0735 255.88C35.5963 257.12 35.1192 258.36 34.7374 259.6C34.1648 260.458 33.6877 261.889 32.7333 265.036C31.0156 270.472 28.248 279.342 23.5718 287.925C10.6884 262.366 3.8173 233.85 3.8173 205.048ZM36.7415 266.181C37.3141 264.368 37.8867 262.556 38.173 261.984C38.3639 261.793 38.5547 261.507 38.6502 261.221C46.2848 236.902 66.7073 218.972 83.408 207.813C86.271 208.767 89.0385 210.198 91.5198 211.819C88.2751 216.492 86.8436 222.119 87.5116 227.746C84.9349 235.853 79.209 242.91 71.6698 246.725C69.1886 247.965 66.2302 248.918 63.7489 247.679C61.0768 246.343 60.2179 242.91 60.5042 239.953C60.8859 236.234 63.3672 232.133 67.0891 231.942C66.0393 232.038 65.1804 232.896 64.8941 233.85C64.6078 234.994 65.2758 236.425 66.421 236.806C67.6616 236.902 68.9023 236.139 69.3794 235.09C69.952 233.945 69.7612 232.61 68.9023 231.656C67.4708 230.035 64.7987 230.321 62.9855 231.465C59.5499 233.564 58.1184 237.855 57.9275 241.956C57.8321 244.722 58.3093 247.774 60.3133 249.777C63.1763 252.542 67.9479 251.97 71.6698 250.444C78.4455 247.583 85.4121 240.049 88.2751 231.942C90.2792 238.332 94.8599 243.482 100.968 246.153C99.4407 249.395 97.3412 252.638 94.669 255.213C84.8395 249.872 75.2008 248.823 66.0393 252.161C44.567 259.981 33.2105 289.07 32.1608 292.121C31.8745 292.694 31.8745 293.457 32.2562 294.029C32.6379 294.696 33.3059 295.078 33.974 295.078C35.5009 295.364 41.4177 296.222 49.0523 296.222C60.2179 296.222 75.1054 294.315 85.4121 285.636C85.8893 285.255 86.271 284.873 86.6527 284.492C84.9349 286.59 83.9806 289.165 84.6486 291.645C85.3167 294.315 87.7025 296.318 90.2792 297.558C93.8102 299.37 98.2955 300.323 101.826 298.416C103.735 297.462 105.262 295.269 104.594 293.266C104.212 292.121 103.067 291.263 101.826 291.168C100.586 291.072 99.3452 291.835 98.7726 292.884C98.5818 294.124 99.3452 295.364 100.586 295.746C101.54 296.032 102.685 295.65 103.353 294.792C101.349 297.844 96.5777 298.034 93.1421 296.413C90.47 295.173 87.8933 292.694 88.0842 289.737C88.1796 286.971 90.47 284.873 92.8558 283.347C100.013 278.769 108.984 277.339 117.287 279.151C121.199 281.917 125.875 283.443 130.647 283.443C131.506 283.443 132.365 283.347 133.224 283.252C133.51 286.399 133.415 289.833 132.651 293.171C116.332 301.182 93.5239 309.097 70.9064 306.332C70.4292 305.95 69.8566 305.759 69.284 305.855C69.0931 305.855 68.9977 305.95 68.8068 306.046C67.2799 305.759 65.753 305.473 64.2261 305.187C63.9398 305.092 63.5581 305.092 63.2718 305.187C62.6037 305.187 60.6951 304.71 58.8819 304.329C50.3884 302.421 34.2603 298.797 19.0865 301.945C29.2978 290.214 34.1648 274.478 36.7415 266.181ZM33.4014 304.71C43.2309 304.901 52.297 306.999 57.8321 308.239C60.9814 309.002 62.5083 309.288 63.558 309.193C64.9895 309.479 66.3256 309.765 67.7571 309.956C71.479 329.03 83.2171 345.434 100.013 355.162C110.32 361.075 121.867 364.127 133.51 364.127C140.858 364.127 148.302 362.887 155.46 360.407C156.414 361.552 157.368 362.696 158.418 363.84C158.8 364.794 159.945 365.939 162.14 368.323C166.053 372.519 172.256 379.291 177.409 387.683C118.909 384.822 65.4667 354.017 33.4014 304.71ZM187.239 398.937C182.372 384.25 171.11 372.042 165.194 365.652C163.953 364.317 162.617 362.887 162.235 362.315C162.14 362.028 161.949 361.742 161.758 361.552C144.294 342.668 139.141 315.678 137.805 295.65C139.999 293.743 142.576 292.121 145.057 290.882C147.443 295.936 151.547 299.846 156.605 302.04C162.235 308.239 165.385 316.727 165.003 325.024C164.907 327.79 164.144 330.842 161.854 332.273C159.372 333.894 155.937 332.94 153.455 331.224C150.402 329.03 148.207 324.834 149.734 321.496C149.352 322.449 149.543 323.594 150.306 324.357C151.165 325.215 152.692 325.215 153.646 324.452C154.314 323.403 154.314 321.973 153.646 321.019C152.978 319.97 151.642 319.493 150.402 319.684C148.302 320.16 147.252 322.545 147.348 324.643C147.539 328.649 150.497 332.082 153.933 334.18C156.318 335.706 159.181 336.85 161.854 336.087C165.671 335.038 167.579 330.556 168.057 326.646C168.916 319.398 166.053 309.765 160.517 303.28C162.235 303.661 163.953 303.852 165.671 303.852C170.538 303.852 175.31 302.326 179.318 299.37C181.417 302.422 183.326 306.046 184.28 309.765C174.928 315.583 169.297 323.403 167.579 332.845C163.571 355.352 183.135 379.672 185.234 382.152C185.616 382.724 186.284 383.01 186.952 383.01C187.716 383.01 188.288 382.629 188.67 382.056C191.056 379.195 210.142 355.066 206.23 332.845C206.23 332.845 206.23 332.845 206.23 332.749C207.184 334.275 208.615 335.515 210.333 335.992C213.005 336.755 215.868 335.611 218.254 334.085C221.69 331.891 224.648 328.553 224.839 324.548C224.934 322.449 223.885 319.97 221.785 319.588C220.545 319.302 219.304 319.874 218.54 320.923C217.872 321.973 217.872 323.403 218.54 324.357C219.495 325.12 221.022 325.12 221.881 324.261C222.644 323.594 222.835 322.354 222.453 321.4C224.076 324.643 221.881 328.935 218.731 331.128C216.25 332.845 212.91 333.799 210.333 332.177C208.043 330.651 207.279 327.599 207.184 324.929C206.802 316.727 209.856 308.43 215.296 302.231C220.831 300.133 225.412 295.936 227.893 290.595C230.851 292.026 233.81 293.838 236.291 296.222C235.05 314.438 230.565 338.09 216.727 356.306C216.346 356.497 216.059 356.878 215.964 357.26C215.964 357.26 215.964 357.26 215.964 357.355C214.819 358.786 213.673 360.121 212.433 361.456C212.242 361.647 212.051 361.933 211.956 362.219C211.574 362.791 210.238 364.222 208.997 365.557C203.367 372.042 192.106 384.25 187.239 398.937ZM196.973 387.779C202.031 379.481 208.329 372.615 212.146 368.418C214.341 366.034 215.391 364.889 215.868 363.936C216.918 362.791 217.872 361.647 218.827 360.502C225.984 362.982 233.428 364.222 240.872 364.222C252.514 364.222 264.062 361.17 274.368 355.257C291.26 345.529 303.094 328.839 306.72 309.67C307.961 309.479 309.201 309.288 310.347 309.002C311.396 309.097 312.923 308.716 316.072 308.048C321.703 306.809 330.865 304.71 340.694 304.52C308.82 353.731 255.473 384.631 196.973 387.779ZM315.309 304.043C313.496 304.424 311.587 304.901 310.919 304.901C310.633 304.806 310.346 304.806 309.965 304.901C284.866 310.528 258.908 301.563 240.967 292.694C240.299 289.546 240.299 286.208 240.49 283.157C241.158 283.252 241.826 283.252 242.589 283.252C246.979 283.252 251.274 282.012 254.996 279.628C263.68 277.244 273.319 278.579 280.953 283.443C283.244 284.969 285.534 287.067 285.725 289.833C285.82 292.789 283.339 295.269 280.667 296.509C277.231 298.034 272.46 297.844 270.456 294.887C271.124 295.65 272.173 296.127 273.223 295.841C274.368 295.459 275.227 294.22 275.036 292.98C274.464 291.835 273.223 291.168 271.983 291.263C270.742 291.358 269.597 292.217 269.215 293.361C268.547 295.364 270.074 297.558 271.983 298.511C275.514 300.419 279.999 299.465 283.53 297.653C286.011 296.318 288.397 294.41 289.16 291.74C289.829 288.974 288.588 286.208 286.584 283.92C287.156 284.492 287.824 285.064 288.492 285.636C298.799 294.315 313.687 296.222 324.852 296.222C332.678 296.222 338.69 295.269 340.026 295.078C340.694 294.983 341.267 294.601 341.648 294.029C342.03 293.361 342.03 292.694 341.648 292.026C340.312 288.497 329.051 259.981 307.77 252.161C307.006 251.875 306.147 251.589 305.384 251.398C308.342 251.97 311.396 251.779 313.4 249.681C315.404 247.774 315.882 244.722 315.786 241.861C315.595 237.855 314.164 233.564 310.728 231.37C308.915 230.226 306.243 229.94 304.811 231.561C303.953 232.515 303.762 233.85 304.334 234.994C304.907 236.139 306.147 236.806 307.293 236.711C308.438 236.234 309.106 234.899 308.82 233.754C308.533 232.705 307.674 231.942 306.625 231.847C310.251 232.133 312.828 236.139 313.21 239.858C313.496 242.815 312.637 246.248 309.965 247.583C307.484 248.823 304.525 247.965 302.044 246.629C294.028 242.528 288.015 234.708 285.725 226.029C286.011 221.07 284.675 216.111 281.908 211.914C284.58 210.102 287.538 208.481 290.783 207.432C305.766 217.541 324.089 233.182 332.964 254.259C333.059 254.545 333.155 254.831 333.346 255.117C334.109 256.93 334.777 258.837 335.35 260.744C335.445 261.03 335.636 261.317 335.827 261.507C336.113 262.08 336.686 263.892 337.258 265.704C339.835 274.001 344.798 289.737 355.104 301.372C339.835 298.511 323.707 302.135 315.309 304.043Z" fill="#EBEBEB"/>
</svg>
