<svg width="68" height="50" viewBox="0 0 68 50" fill="none" xmlns="http://www.w3.org/2000/svg">
<path d="M22.8095 43.515C22.4665 43.5334 22.1267 43.4359 21.8413 43.2372C21.556 43.0386 21.3408 42.7495 21.2282 42.4138L19.2683 36.5718C18.4242 34.0296 16.9638 31.7513 15.0268 29.9546C13.0898 28.1579 10.7408 26.9029 8.20442 26.3095L2.37348 24.9253C2.03863 24.8455 1.73764 24.6554 1.516 24.3836C1.29436 24.1119 1.16413 23.7733 1.145 23.419C1.12587 23.0648 1.21888 22.7141 1.40996 22.4201C1.60105 22.126 1.87982 21.9046 2.20413 21.7893L7.85209 19.7852C10.3098 18.922 12.51 17.4214 14.2422 15.4265C15.9745 13.4317 17.1811 11.0094 17.7465 8.39108L19.0658 2.37194C19.1418 2.02628 19.3248 1.71599 19.5871 1.48797C19.8493 1.25995 20.1766 1.1266 20.5195 1.10809C20.8623 1.08958 21.202 1.1869 21.4873 1.38535C21.7726 1.5838 21.9879 1.87258 22.1007 2.20804L24.0606 8.05011C24.9047 10.5923 26.3651 12.8706 28.3021 14.6672C30.2391 16.4639 32.5881 17.719 35.1245 18.3124L40.9554 19.6966C41.2903 19.7764 41.5913 19.9665 41.8129 20.2382C42.0345 20.51 42.1648 20.8486 42.1839 21.2028C42.203 21.5571 42.11 21.9078 41.9189 22.2018C41.7279 22.4958 41.4491 22.7173 41.1248 22.8326L35.4768 24.8367C33.0191 25.6998 30.8189 27.2005 29.0867 29.1954C27.3544 31.1902 26.1478 33.6125 25.5824 36.2308L24.2631 42.2499C24.1873 42.5958 24.0044 42.9064 23.7422 43.1346C23.4799 43.3628 23.1525 43.4964 22.8095 43.515ZM8.46814 23.0236L8.89588 23.127C11.9569 23.8433 14.7917 25.3581 17.1294 27.5264C19.4671 29.6947 21.2297 32.4443 22.2486 35.5122L22.3942 35.9406L22.4927 35.499C23.1753 32.3392 24.6315 29.4159 26.7221 27.0084C28.8128 24.6009 31.468 22.7897 34.434 21.7479L34.8481 21.599L34.4204 21.4956C31.3594 20.7792 28.5246 19.2645 26.1869 17.0962C23.8491 14.9278 22.0866 12.1783 21.0677 9.11035L20.9282 8.67729L20.8296 9.11884C20.147 12.2787 18.6908 15.202 16.6002 17.6095C14.5096 20.017 11.8544 21.8282 8.88834 22.87L8.46814 23.0236Z" fill="#75E88E"/>
<path d="M55.4219 49.3707C55.2271 49.3812 55.0341 49.3258 54.8721 49.213C54.7101 49.1002 54.5878 48.936 54.5239 48.7454L53.4109 45.4278C52.9316 43.9842 52.1022 42.6904 51.0022 41.67C49.9022 40.6497 48.5683 39.937 47.1279 39.6L43.8166 38.814C43.6265 38.7687 43.4555 38.6607 43.3297 38.5064C43.2038 38.352 43.1298 38.1598 43.119 37.9586C43.1081 37.7574 43.1609 37.5583 43.2694 37.3913C43.378 37.2243 43.5363 37.0986 43.7204 37.0331L46.9278 35.895C48.3235 35.4048 49.5729 34.5526 50.5567 33.4198C51.5404 32.2869 52.2256 30.9113 52.5467 29.4245L53.2959 26.0063C53.3391 25.81 53.443 25.6338 53.5919 25.5043C53.7408 25.3748 53.9267 25.2991 54.1214 25.2886C54.3161 25.2781 54.509 25.3333 54.671 25.446C54.8331 25.5587 54.9553 25.7227 55.0194 25.9132L56.1323 29.2308C56.6117 30.6745 57.441 31.9683 58.541 32.9886C59.6411 34.0089 60.975 34.7216 62.4154 35.0586L65.7266 35.8447C65.9168 35.89 66.0877 35.9979 66.2136 36.1523C66.3395 36.3066 66.4134 36.4989 66.4243 36.7C66.4351 36.9012 66.3823 37.1004 66.2738 37.2673C66.1653 37.4343 66.007 37.5601 65.8228 37.6256L62.6154 38.7637C61.2197 39.2538 59.9703 40.106 58.9866 41.2389C58.0028 42.3717 57.3177 43.7473 56.9966 45.2342L56.2474 48.6523C56.2043 48.8488 56.1005 49.0251 55.9515 49.1547C55.8026 49.2843 55.6167 49.3602 55.4219 49.3707ZM47.2777 37.734L47.5206 37.7927C49.2589 38.1995 50.8687 39.0597 52.1963 40.2911C53.5238 41.5225 54.5247 43.0839 55.1034 44.8261L55.186 45.0694L55.242 44.8186C55.6296 43.0242 56.4566 41.3641 57.6438 39.9969C58.831 38.6297 60.3389 37.6012 62.0232 37.0096L62.2584 36.925L62.0155 36.8663C60.2772 36.4595 58.6674 35.5993 57.3398 34.3679C56.0123 33.1366 55.0114 31.5752 54.4327 29.8329L54.3535 29.587L54.2975 29.8377C53.9099 31.6322 53.083 33.2923 51.8957 34.6594C50.7085 36.0266 49.2007 37.0552 47.5163 37.6468L47.2777 37.734Z" fill="#75E88E"/>
</svg>
