<svg width="87" height="81" viewBox="0 0 87 81" fill="none" xmlns="http://www.w3.org/2000/svg">
<path d="M84.3183 4.55879C85.4698 4.55879 86.4034 3.62528 86.4034 2.47374C86.4034 1.3222 85.4698 0.388699 84.3183 0.388699C83.1668 0.388699 82.2333 1.3222 82.2333 2.47374C82.2333 3.62528 83.1668 4.55879 84.3183 4.55879Z" fill="#5751E1"/>
<path d="M84.3183 17.2152C85.4698 17.2152 86.4034 16.2817 86.4034 15.1302C86.4034 13.9786 85.4698 13.0451 84.3183 13.0451C83.1668 13.0451 82.2333 13.9786 82.2333 15.1302C82.2333 16.2817 83.1668 17.2152 84.3183 17.2152Z" fill="#5751E1"/>
<path d="M84.3183 29.8353C85.4698 29.8353 86.4034 28.9018 86.4034 27.7503C86.4034 26.5987 85.4698 25.6652 84.3183 25.6652C83.1668 25.6652 82.2333 26.5987 82.2333 27.7503C82.2333 28.9018 83.1668 29.8353 84.3183 29.8353Z" fill="#5751E1"/>
<path d="M84.3183 42.492C85.4698 42.492 86.4034 41.5585 86.4034 40.407C86.4034 39.2554 85.4698 38.3219 84.3183 38.3219C83.1668 38.3219 82.2333 39.2554 82.2333 40.407C82.2333 41.5585 83.1668 42.492 84.3183 42.492Z" fill="#5751E1"/>
<path d="M84.3183 55.1119C85.4698 55.1119 86.4034 54.1784 86.4034 53.0269C86.4034 51.8753 85.4698 50.9418 84.3183 50.9418C83.1668 50.9418 82.2333 51.8753 82.2333 53.0269C82.2333 54.1784 83.1668 55.1119 84.3183 55.1119Z" fill="#5751E1"/>
<path d="M84.3183 67.7686C85.4698 67.7686 86.4034 66.835 86.4034 65.6835C86.4034 64.532 85.4698 63.5985 84.3183 63.5985C83.1668 63.5985 82.2333 64.532 82.2333 65.6835C82.2333 66.835 83.1668 67.7686 84.3183 67.7686Z" fill="#5751E1"/>
<path d="M84.3183 80.3884C85.4698 80.3884 86.4034 79.4549 86.4034 78.3033C86.4034 77.1518 85.4698 76.2183 84.3183 76.2183C83.1668 76.2183 82.2333 77.1518 82.2333 78.3033C82.2333 79.4549 83.1668 80.3884 84.3183 80.3884Z" fill="#5751E1"/>
<path d="M71.2315 4.55876C72.383 4.55876 73.3165 3.62525 73.3165 2.47372C73.3165 1.32218 72.383 0.388672 71.2315 0.388672C70.0799 0.388672 69.1464 1.32218 69.1464 2.47372C69.1464 3.62525 70.0799 4.55876 71.2315 4.55876Z" fill="#5751E1"/>
<path d="M71.2315 17.2152C72.383 17.2152 73.3165 16.2817 73.3165 15.1301C73.3165 13.9786 72.383 13.0451 71.2315 13.0451C70.0799 13.0451 69.1464 13.9786 69.1464 15.1301C69.1464 16.2817 70.0799 17.2152 71.2315 17.2152Z" fill="#5751E1"/>
<path d="M71.2315 29.8353C72.383 29.8353 73.3165 28.9018 73.3165 27.7502C73.3165 26.5987 72.383 25.6652 71.2315 25.6652C70.0799 25.6652 69.1464 26.5987 69.1464 27.7502C69.1464 28.9018 70.0799 29.8353 71.2315 29.8353Z" fill="#5751E1"/>
<path d="M71.2315 42.492C72.383 42.492 73.3165 41.5585 73.3165 40.407C73.3165 39.2554 72.383 38.3219 71.2315 38.3219C70.0799 38.3219 69.1464 39.2554 69.1464 40.407C69.1464 41.5585 70.0799 42.492 71.2315 42.492Z" fill="#5751E1"/>
<path d="M71.2315 55.1119C72.383 55.1119 73.3165 54.1784 73.3165 53.0269C73.3165 51.8754 72.383 50.9419 71.2315 50.9419C70.0799 50.9419 69.1464 51.8754 69.1464 53.0269C69.1464 54.1784 70.0799 55.1119 71.2315 55.1119Z" fill="#5751E1"/>
<path d="M71.2315 67.7685C72.383 67.7685 73.3165 66.835 73.3165 65.6835C73.3165 64.5319 72.383 63.5984 71.2315 63.5984C70.0799 63.5984 69.1464 64.5319 69.1464 65.6835C69.1464 66.835 70.0799 67.7685 71.2315 67.7685Z" fill="#5751E1"/>
<path d="M71.2315 80.3884C72.383 80.3884 73.3165 79.4549 73.3165 78.3034C73.3165 77.1519 72.383 76.2184 71.2315 76.2184C70.0799 76.2184 69.1464 77.1519 69.1464 78.3034C69.1464 79.4549 70.0799 80.3884 71.2315 80.3884Z" fill="#5751E1"/>
<path d="M58.1455 4.55876C59.2971 4.55876 60.2306 3.62525 60.2306 2.47372C60.2306 1.32218 59.2971 0.388672 58.1455 0.388672C56.994 0.388672 56.0605 1.32218 56.0605 2.47372C56.0605 3.62525 56.994 4.55876 58.1455 4.55876Z" fill="#5751E1"/>
<path d="M58.1455 17.2153C59.2971 17.2153 60.2306 16.2818 60.2306 15.1303C60.2306 13.9787 59.2971 13.0452 58.1455 13.0452C56.994 13.0452 56.0605 13.9787 56.0605 15.1303C56.0605 16.2818 56.994 17.2153 58.1455 17.2153Z" fill="#5751E1"/>
<path d="M58.1455 29.8353C59.2971 29.8353 60.2306 28.9018 60.2306 27.7502C60.2306 26.5987 59.2971 25.6652 58.1455 25.6652C56.994 25.6652 56.0605 26.5987 56.0605 27.7502C56.0605 28.9018 56.994 29.8353 58.1455 29.8353Z" fill="#5751E1"/>
<path d="M58.1455 42.492C59.2971 42.492 60.2306 41.5585 60.2306 40.407C60.2306 39.2554 59.2971 38.3219 58.1455 38.3219C56.994 38.3219 56.0605 39.2554 56.0605 40.407C56.0605 41.5585 56.994 42.492 58.1455 42.492Z" fill="#5751E1"/>
<path d="M58.1455 55.1121C59.2971 55.1121 60.2306 54.1786 60.2306 53.0271C60.2306 51.8755 59.2971 50.942 58.1455 50.942C56.994 50.942 56.0605 51.8755 56.0605 53.0271C56.0605 54.1786 56.994 55.1121 58.1455 55.1121Z" fill="#5751E1"/>
<path d="M58.1455 67.7687C59.2971 67.7687 60.2306 66.8352 60.2306 65.6836C60.2306 64.5321 59.2971 63.5986 58.1455 63.5986C56.994 63.5986 56.0605 64.5321 56.0605 65.6836C56.0605 66.8352 56.994 67.7687 58.1455 67.7687Z" fill="#5751E1"/>
<path d="M58.1455 80.3886C59.2971 80.3886 60.2306 79.4551 60.2306 78.3036C60.2306 77.152 59.2971 76.2185 58.1455 76.2185C56.994 76.2185 56.0605 77.152 56.0605 78.3036C56.0605 79.4551 56.994 80.3886 58.1455 80.3886Z" fill="#5751E1"/>
<path d="M45.0583 4.55876C46.2099 4.55876 47.1434 3.62525 47.1434 2.47372C47.1434 1.32218 46.2099 0.388672 45.0583 0.388672C43.9068 0.388672 42.9733 1.32218 42.9733 2.47372C42.9733 3.62525 43.9068 4.55876 45.0583 4.55876Z" fill="#5751E1"/>
<path d="M45.0583 17.2153C46.2099 17.2153 47.1434 16.2818 47.1434 15.1303C47.1434 13.9787 46.2099 13.0452 45.0583 13.0452C43.9068 13.0452 42.9733 13.9787 42.9733 15.1303C42.9733 16.2818 43.9068 17.2153 45.0583 17.2153Z" fill="#5751E1"/>
<path d="M45.0583 29.8353C46.2099 29.8353 47.1434 28.9018 47.1434 27.7502C47.1434 26.5987 46.2099 25.6652 45.0583 25.6652C43.9068 25.6652 42.9733 26.5987 42.9733 27.7502C42.9733 28.9018 43.9068 29.8353 45.0583 29.8353Z" fill="#5751E1"/>
<path d="M45.0583 42.492C46.2099 42.492 47.1434 41.5585 47.1434 40.407C47.1434 39.2554 46.2099 38.3219 45.0583 38.3219C43.9068 38.3219 42.9733 39.2554 42.9733 40.407C42.9733 41.5585 43.9068 42.492 45.0583 42.492Z" fill="#5751E1"/>
<path d="M45.0583 55.1121C46.2099 55.1121 47.1434 54.1786 47.1434 53.0271C47.1434 51.8755 46.2099 50.942 45.0583 50.942C43.9068 50.942 42.9733 51.8755 42.9733 53.0271C42.9733 54.1786 43.9068 55.1121 45.0583 55.1121Z" fill="#5751E1"/>
<path d="M45.0583 67.7687C46.2099 67.7687 47.1434 66.8352 47.1434 65.6836C47.1434 64.5321 46.2099 63.5986 45.0583 63.5986C43.9068 63.5986 42.9733 64.5321 42.9733 65.6836C42.9733 66.8352 43.9068 67.7687 45.0583 67.7687Z" fill="#5751E1"/>
<path d="M45.0583 80.3886C46.2099 80.3886 47.1434 79.4551 47.1434 78.3036C47.1434 77.152 46.2099 76.2185 45.0583 76.2185C43.9068 76.2185 42.9733 77.152 42.9733 78.3036C42.9733 79.4551 43.9068 80.3886 45.0583 80.3886Z" fill="#5751E1"/>
<path d="M31.9717 4.55876C33.1233 4.55876 34.0568 3.62525 34.0568 2.47372C34.0568 1.32218 33.1233 0.388672 31.9717 0.388672C30.8202 0.388672 29.8867 1.32218 29.8867 2.47372C29.8867 3.62525 30.8202 4.55876 31.9717 4.55876Z" fill="#5751E1"/>
<path d="M31.9717 17.2153C33.1233 17.2153 34.0568 16.2818 34.0568 15.1303C34.0568 13.9787 33.1233 13.0452 31.9717 13.0452C30.8202 13.0452 29.8867 13.9787 29.8867 15.1303C29.8867 16.2818 30.8202 17.2153 31.9717 17.2153Z" fill="#5751E1"/>
<path d="M31.9717 29.8353C33.1233 29.8353 34.0568 28.9018 34.0568 27.7502C34.0568 26.5987 33.1233 25.6652 31.9717 25.6652C30.8202 25.6652 29.8867 26.5987 29.8867 27.7502C29.8867 28.9018 30.8202 29.8353 31.9717 29.8353Z" fill="#5751E1"/>
<path d="M31.9717 42.492C33.1233 42.492 34.0568 41.5585 34.0568 40.407C34.0568 39.2554 33.1233 38.3219 31.9717 38.3219C30.8202 38.3219 29.8867 39.2554 29.8867 40.407C29.8867 41.5585 30.8202 42.492 31.9717 42.492Z" fill="#5751E1"/>
<path d="M31.9717 55.1121C33.1233 55.1121 34.0568 54.1786 34.0568 53.0271C34.0568 51.8755 33.1233 50.942 31.9717 50.942C30.8202 50.942 29.8867 51.8755 29.8867 53.0271C29.8867 54.1786 30.8202 55.1121 31.9717 55.1121Z" fill="#5751E1"/>
<path d="M31.9717 67.7687C33.1233 67.7687 34.0568 66.8352 34.0568 65.6836C34.0568 64.5321 33.1233 63.5986 31.9717 63.5986C30.8202 63.5986 29.8867 64.5321 29.8867 65.6836C29.8867 66.8352 30.8202 67.7687 31.9717 67.7687Z" fill="#5751E1"/>
<path d="M31.9717 80.3886C33.1233 80.3886 34.0568 79.4551 34.0568 78.3036C34.0568 77.152 33.1233 76.2185 31.9717 76.2185C30.8202 76.2185 29.8867 77.152 29.8867 78.3036C29.8867 79.4551 30.8202 80.3886 31.9717 80.3886Z" fill="#5751E1"/>
<path d="M17.2843 4.55876C18.4358 4.55876 19.3693 3.62525 19.3693 2.47372C19.3693 1.32218 18.4358 0.388672 17.2843 0.388672C16.1327 0.388672 15.1992 1.32218 15.1992 2.47372C15.1992 3.62525 16.1327 4.55876 17.2843 4.55876Z" fill="#5751E1"/>
<path d="M17.2843 17.2152C18.4358 17.2152 19.3693 16.2817 19.3693 15.1301C19.3693 13.9786 18.4358 13.0451 17.2843 13.0451C16.1327 13.0451 15.1992 13.9786 15.1992 15.1301C15.1992 16.2817 16.1327 17.2152 17.2843 17.2152Z" fill="#5751E1"/>
<path d="M17.2843 29.8353C18.4358 29.8353 19.3693 28.9018 19.3693 27.7502C19.3693 26.5987 18.4358 25.6652 17.2843 25.6652C16.1327 25.6652 15.1992 26.5987 15.1992 27.7502C15.1992 28.9018 16.1327 29.8353 17.2843 29.8353Z" fill="#5751E1"/>
<path d="M17.2843 42.492C18.4358 42.492 19.3693 41.5585 19.3693 40.407C19.3693 39.2554 18.4358 38.3219 17.2843 38.3219C16.1327 38.3219 15.1992 39.2554 15.1992 40.407C15.1992 41.5585 16.1327 42.492 17.2843 42.492Z" fill="#5751E1"/>
<path d="M17.2843 55.1119C18.4358 55.1119 19.3693 54.1784 19.3693 53.0269C19.3693 51.8754 18.4358 50.9419 17.2843 50.9419C16.1327 50.9419 15.1992 51.8754 15.1992 53.0269C15.1992 54.1784 16.1327 55.1119 17.2843 55.1119Z" fill="#5751E1"/>
<path d="M17.2843 67.7685C18.4358 67.7685 19.3693 66.835 19.3693 65.6835C19.3693 64.5319 18.4358 63.5984 17.2843 63.5984C16.1327 63.5984 15.1992 64.5319 15.1992 65.6835C15.1992 66.835 16.1327 67.7685 17.2843 67.7685Z" fill="#5751E1"/>
<path d="M17.2843 80.3883C18.4358 80.3883 19.3693 79.4548 19.3693 78.3032C19.3693 77.1517 18.4358 76.2182 17.2843 76.2182C16.1327 76.2182 15.1992 77.1517 15.1992 78.3032C15.1992 79.4548 16.1327 80.3883 17.2843 80.3883Z" fill="#5751E1"/>
<path d="M2.59676 4.55876C3.7483 4.55876 4.68181 3.62525 4.68181 2.47372C4.68181 1.32218 3.7483 0.388672 2.59676 0.388672C1.44523 0.388672 0.51172 1.32218 0.51172 2.47372C0.51172 3.62525 1.44523 4.55876 2.59676 4.55876Z" fill="#5751E1"/>
<path d="M2.59676 17.2153C3.7483 17.2153 4.68181 16.2818 4.68181 15.1303C4.68181 13.9787 3.7483 13.0452 2.59676 13.0452C1.44522 13.0452 0.511719 13.9787 0.511719 15.1303C0.511719 16.2818 1.44522 17.2153 2.59676 17.2153Z" fill="#5751E1"/>
<path d="M2.59676 29.8353C3.7483 29.8353 4.68181 28.9018 4.68181 27.7503C4.68181 26.5987 3.7483 25.6652 2.59676 25.6652C1.44522 25.6652 0.511719 26.5987 0.511719 27.7503C0.511719 28.9018 1.44522 29.8353 2.59676 29.8353Z" fill="#5751E1"/>
<path d="M2.59676 42.4919C3.7483 42.4919 4.68181 41.5583 4.68181 40.4068C4.68181 39.2553 3.7483 38.3218 2.59676 38.3218C1.44522 38.3218 0.511719 39.2553 0.511719 40.4068C0.511719 41.5583 1.44522 42.4919 2.59676 42.4919Z" fill="#5751E1"/>
<path d="M2.59676 55.1119C3.7483 55.1119 4.68181 54.1784 4.68181 53.0268C4.68181 51.8753 3.7483 50.9418 2.59676 50.9418C1.44522 50.9418 0.511719 51.8753 0.511719 53.0268C0.511719 54.1784 1.44522 55.1119 2.59676 55.1119Z" fill="#5751E1"/>
<path d="M2.59676 67.7686C3.7483 67.7686 4.68181 66.8351 4.68181 65.6836C4.68181 64.532 3.7483 63.5985 2.59676 63.5985C1.44522 63.5985 0.511719 64.532 0.511719 65.6836C0.511719 66.8351 1.44522 67.7686 2.59676 67.7686Z" fill="#5751E1"/>
<path d="M2.59676 80.3886C3.7483 80.3886 4.68181 79.4551 4.68181 78.3036C4.68181 77.152 3.7483 76.2185 2.59676 76.2185C1.44522 76.2185 0.511719 77.152 0.511719 78.3036C0.511719 79.4551 1.44522 80.3886 2.59676 80.3886Z" fill="#5751E1"/>
</svg>
