<svg width="85" height="34" viewBox="0 0 85 34" fill="none" xmlns="http://www.w3.org/2000/svg">
<path d="M85 33C80.7407 33 80.7407 27.014 76.5 27.014C72.2407 27.014 72.2407 33 68 33C63.7407 33 63.7407 27.014 59.5 27.014C55.2407 27.014 55.2407 33 51 33C46.7407 33 46.7407 27.014 42.5 27.014C38.2407 27.014 38.2407 33 34 33C29.7407 33 29.7407 27.014 25.5 27.014C21.2407 27.014 21.2407 33 17 33C12.7407 33 12.7407 27.014 8.5 27.014C4.25926 27.014 4.24074 33 0 33M85 19.9805C80.7407 19.9805 80.7407 13.9945 76.5 13.9945C72.2407 13.9945 72.2407 19.9805 68 19.9805C63.7407 19.9805 63.7407 13.9945 59.5 13.9945C55.2407 13.9945 55.2407 19.9805 51 19.9805C46.7407 19.9805 46.7407 13.9945 42.5 13.9945C38.2407 13.9945 38.2407 19.9805 34 19.9805C29.7407 19.9805 29.7407 13.9945 25.5 13.9945C21.2407 13.9945 21.2407 19.9805 17 19.9805C12.7407 19.9805 12.7407 13.9945 8.5 13.9945C4.25926 13.9945 4.24074 19.9805 0 19.9805M85 6.98597C80.7407 6.98597 80.7407 1 76.5 1C72.2407 1 72.2407 6.98597 68 6.98597C63.7407 6.98597 63.7407 1 59.5 1C55.2407 1 55.2407 6.98597 51 6.98597C46.7407 6.98597 46.7407 1 42.5 1C38.2407 1 38.2407 6.98597 34 6.98597C29.7407 6.98597 29.7407 1 25.5 1C21.2407 1 21.2407 6.98597 17 6.98597C12.7407 6.98597 12.7407 1 8.5 1C4.25926 1 4.24074 6.98597 0 6.98597" stroke="#FE4DA2" stroke-width="2" stroke-miterlimit="10"/>
</svg>
