<svg width="94" height="81" viewBox="0 0 94 81" fill="none" xmlns="http://www.w3.org/2000/svg">
<path d="M10.7995 46C9.59951 46 8.49951 46.1 7.49951 46.4C5.69951 46.9 4.09951 47.8 2.69951 49.1C1.49951 50.3 -0.000488281 52.2 -0.000488281 54.5C-0.000488281 55 0.0995117 55.5 0.299512 56C0.499512 56.5 0.699512 57 1.09951 57.5C1.29951 57.8 1.59951 58.1 2.09951 58.5C2.39951 58.8 2.79951 59 3.19951 59.2C4.29951 59.8 5.69951 60 7.29951 60C7.69951 60 8.09951 60 8.49951 60C8.59951 60 8.59951 60 8.69951 60C8.29951 60.3 7.89951 60.6 7.49951 61C6.39951 62 5.09951 63.5 4.49951 65.6C4.29951 66.5 4.19951 67.4 4.39951 68.3C4.49951 68.7 4.59951 69.1 4.79951 69.6C4.89951 70 5.09951 70.4 5.39951 70.7C5.79951 71.4 6.29951 71.9 6.89951 72.3C7.39951 72.7 7.99951 73 8.69951 73.1C9.19951 73.2 9.69951 73.3 10.1995 73.3C10.6995 73.3 11.2995 73.2 11.8995 73.1C12.9995 72.9 13.9995 72.5 15.1995 71.9C15.9995 71.5 16.6995 71 17.4995 70.5C17.1995 71.2 16.8995 71.9 16.6995 72.6C16.2995 73.9 15.8995 76.4 17.1995 78.5C17.6995 79.2 18.1995 79.8 18.8995 80.2C19.5995 80.6 20.2995 80.8 21.1995 80.9C21.3995 80.9 21.4995 80.9 21.6995 80.9C22.2995 80.9 22.8995 80.8 23.5995 80.6C24.3995 80.4 25.1995 80.1 25.8995 79.6C27.2995 78.7 28.3995 77.6 29.3995 76.3C30.1995 75.1 30.8995 73.7 31.2995 72.1C32.0995 69.3 32.1995 66 31.5995 62.3C31.3995 60.7 30.9995 59.1 30.4995 57.4C29.9995 55.9 29.4995 54.4 28.8995 53.1C28.7995 52.9 28.5995 52.8 28.3995 52.8C27.7995 52.2 26.9995 51.6 25.9995 51.1C25.2995 50.7 24.4995 50.3 23.6995 50L23.0995 49.7C21.2995 48.8 19.6995 48.1 18.0995 47.6C16.1995 46.9 14.3995 46.5 12.6995 46.3C12.0995 46 11.3995 46 10.7995 46Z" fill="#FDC500"/>
<path d="M26.6997 58.2C26.6997 59.2 26.5997 60.3 26.4997 61.3C26.3997 62.4 26.1997 63.4 25.9997 64.5V64.4C25.7997 65.2 25.6997 66 25.4997 66.8C25.2997 67.6 24.9997 68.5 24.7997 69.3C24.4997 70.1 24.1997 70.9 23.8997 71.7C23.5997 72.5 23.1997 73.2 22.8997 74C22.5997 74.7 22.1997 75.3 21.7997 75.9C21.6997 76 21.7997 76.1 21.8997 76.2C21.9997 76.3 22.0997 76.2 22.1997 76.1C22.5997 75.5 22.9997 74.8 23.2997 74.2C23.6997 73.5 23.9997 72.8 24.3997 72.1C24.7997 71.4 25.0997 70.6 25.3997 69.9C25.6997 69.1 25.9997 68.4 26.2997 67.6C26.4997 66.9 26.7997 66.1 26.9997 65.4C27.1997 64.6 27.3997 63.8 27.5997 63C27.7997 62.2 27.8997 61.4 27.9997 60.6C28.0997 59.8 28.1997 59.1 28.1997 58.3C28.1997 57.9 27.8997 57.6 27.4997 57.5C26.9997 57.6 26.6997 57.9 26.6997 58.2Z" fill="#F5DA93"/>
<path d="M23.9993 55.9C23.8993 55.9 23.6993 56 23.5993 56.1C22.9993 56.5 22.3993 57 21.7993 57.5C21.1993 58 20.5993 58.4 19.9993 58.9C19.6993 59.1 19.4993 59.3 19.1993 59.6C18.8993 59.9 18.5993 60.1 18.2993 60.4C17.6993 60.9 17.0993 61.4 16.4993 62C15.8993 62.5 15.3993 63 14.7993 63.5C14.1993 64 13.5993 64.5 12.9993 65C12.3993 65.5 11.8993 66 11.2993 66.4C10.6993 66.9 10.0993 67.4 9.49932 67.9C9.39932 68 9.39932 68.1 9.49932 68.2C9.59932 68.3 9.69932 68.3 9.79932 68.2C10.3993 67.8 10.8993 67.3 11.4993 66.9C11.9993 66.5 12.5993 66 13.0993 65.6C14.1993 64.7 15.3993 63.8 16.4993 63C17.0993 62.6 17.5993 62.2 18.1993 61.8C18.7993 61.4 19.2993 61 19.8993 60.6C20.1993 60.4 20.4993 60.2 20.6993 60C20.9993 59.8 21.2993 59.6 21.5993 59.4C22.1993 59 22.7993 58.6 23.3993 58.2C23.7993 58 24.0993 57.7 24.4993 57.5C24.5993 57.5 24.5993 57.4 24.6993 57.4C24.7993 57.3 24.8993 57.2 24.8993 57.1C24.9993 56.9 24.9993 56.7 24.8993 56.5C24.7993 56.3 24.5993 56.2 24.4993 56.1C24.3993 56.1 24.2993 56.1 24.2993 56.1C24.0993 55.9 23.9993 55.9 23.9993 55.9Z" fill="#F5DA93"/>
<path d="M17.8995 52C17.1995 52 16.4995 52 15.6995 52.1C14.9995 52.1 14.1995 52.2 13.4995 52.2C12.7995 52.3 12.0995 52.3 11.3995 52.4C10.5995 52.5 9.89951 52.6 9.09951 52.7C8.39951 52.9 7.69951 53 6.99951 53.1C6.19951 53.2 5.49951 53.4 4.69951 53.6C4.59951 53.6 4.49951 53.7 4.49951 53.8C4.49951 53.9 4.59951 54 4.69951 54C5.89951 53.7 7.19951 53.5 8.49951 53.4C9.19951 53.3 9.79951 53.2 10.4995 53.2C11.1995 53.1 11.7995 53.1 12.4995 53.1H12.3995C13.1995 53.1 13.8995 53 14.6995 53C15.4995 53 16.1995 53 16.9995 53.1C17.7995 53.1 18.4995 53.2 19.2995 53.3C20.0995 53.4 20.7995 53.5 21.5995 53.6C21.6995 53.6 21.8995 53.7 21.9995 53.7C22.1995 53.7 22.3995 53.8 22.5995 53.7C22.7995 53.6 22.8995 53.5 22.9995 53.3C23.0995 52.9 22.7995 52.3 22.3995 52.3C21.6995 52.3 20.9995 52.2 20.2995 52.2C19.6995 52.2 18.9995 52.1 18.3995 52.1C18.0995 52 17.9995 52 17.8995 52ZM21.5995 53.5H21.6995C21.6995 53.6 21.6995 53.5 21.5995 53.5Z" fill="#F5DA93"/>
<path d="M83.0993 34.9C84.2993 34.9 85.3993 34.8 86.3993 34.5C88.1993 34 89.7993 33.1 91.1993 31.8C92.4993 30.6 93.8993 28.7 93.8993 26.4C93.8993 25.9 93.7993 25.4 93.5993 24.9C93.3993 24.4 93.1993 23.9 92.7993 23.4C92.5993 23.1 92.2993 22.8 91.7993 22.4C91.4993 22.1 91.0993 21.9 90.6993 21.7C89.5993 21.1 88.1993 20.8 86.5993 20.8C86.1993 20.8 85.7993 20.8 85.3993 20.8C85.2993 20.8 85.2993 20.8 85.1993 20.8C85.5993 20.5 85.9993 20.2 86.3993 19.8C87.4993 18.8 88.7993 17.3 89.3993 15.2C89.5993 14.3 89.6993 13.4 89.4993 12.5C89.3993 12.1 89.2993 11.7 89.0993 11.2C88.9993 10.8 88.7993 10.4 88.4993 10.1C88.0993 9.4 87.5993 8.9 86.9993 8.5C86.4993 8.1 85.8993 7.8 85.1993 7.7C84.6993 7.6 84.1993 7.5 83.6993 7.5C83.1993 7.5 82.5993 7.6 81.9993 7.7C80.8993 7.9 79.8993 8.3 78.6993 8.9C77.8993 9.3 77.1993 9.8 76.3993 10.3C76.6993 9.6 76.9993 8.9 77.1993 8.2C77.5993 6.9 77.9993 4.4 76.6993 2.3C76.1993 1.6 75.6993 1 74.9993 0.600002C74.2993 0.200002 73.5993 1.52737e-06 72.6993 -0.0999985C72.4993 -0.0999985 72.3993 -0.0999985 72.1993 -0.0999985C71.5993 -0.0999985 70.9993 1.53482e-06 70.2993 0.200002C69.4993 0.400002 68.6993 0.700002 67.9993 1.2C66.5993 2.1 65.4993 3.2 64.4993 4.5C63.6993 5.7 62.9993 7.1 62.5993 8.7C61.7993 11.5 61.6993 14.8 62.2993 18.5C62.4993 20.1 62.8993 21.7 63.3993 23.4C63.8993 24.9 64.3993 26.4 64.9993 27.7C65.0993 27.9 65.2993 28 65.4993 28C66.0993 28.6 66.8993 29.2 67.8993 29.7C68.5993 30.1 69.3993 30.5 70.1993 30.8L70.7993 31.1C72.5993 32 74.1993 32.7 75.7993 33.2C77.6993 33.9 79.4993 34.3 81.1993 34.5C81.7993 34.8 82.3993 34.9 83.0993 34.9Z" fill="#FDC500"/>
<path d="M67.1997 22.6C67.1997 21.6 67.2997 20.5 67.3997 19.5C67.4997 18.4 67.6997 17.4 67.8997 16.3V16.4C68.0997 15.6 68.1997 14.8 68.3997 14C68.5997 13.2 68.8997 12.3 69.0997 11.5C69.3997 10.7 69.6997 9.9 69.9997 9.1C70.2997 8.3 70.6997 7.6 70.9997 6.8C71.2997 6.1 71.6997 5.5 72.0997 4.9C72.1997 4.8 72.0997 4.7 71.9997 4.6C71.8997 4.5 71.7997 4.6 71.6997 4.7C71.2997 5.3 70.8997 6 70.5997 6.6C70.1997 7.3 69.8997 8 69.4997 8.7C69.0997 9.4 68.7997 10.2 68.4997 10.9C68.1997 11.7 67.8997 12.4 67.5997 13.2C67.3997 13.9 67.0997 14.7 66.8997 15.4C66.6997 16.2 66.4997 17 66.2997 17.8C66.0997 18.6 65.9997 19.4 65.8997 20.2C65.7997 21 65.6997 21.7 65.6997 22.5C65.6997 22.9 65.9997 23.2 66.3997 23.3C66.7997 23.3 67.1997 23 67.1997 22.6Z" fill="#F5DA93"/>
<path d="M69.8993 25C69.9993 25 70.1993 24.9 70.2993 24.8C70.8993 24.4 71.4993 23.9 72.0993 23.4C72.6993 22.9 73.2993 22.5 73.8993 22C74.1993 21.8 74.3993 21.6 74.6993 21.3C74.9993 21 75.2993 20.8 75.5993 20.5C76.1993 20 76.7993 19.5 77.3993 18.9C77.9993 18.4 78.4993 17.9 79.0993 17.4C79.6993 16.9 80.2993 16.4 80.8993 15.9C81.4993 15.4 81.9993 14.9 82.5993 14.5C83.1993 14 83.7993 13.5 84.3993 13C84.4993 12.9 84.4993 12.8 84.3993 12.7C84.2993 12.6 84.1993 12.6 84.0993 12.7C83.4993 13.1 82.9993 13.6 82.3993 14C81.8993 14.4 81.2993 14.9 80.7993 15.3C79.6993 16.2 78.4993 17.1 77.3993 17.9C76.7993 18.3 76.2993 18.7 75.6993 19.1C75.0993 19.5 74.5993 19.9 73.9993 20.3C73.6993 20.5 73.3993 20.7 73.1993 20.9C72.8993 21.1 72.5993 21.3 72.2993 21.5C71.6993 21.9 71.0993 22.3 70.4993 22.7C70.0993 22.9 69.7993 23.2 69.3993 23.4C69.2993 23.4 69.2993 23.5 69.1993 23.5C69.0993 23.6 68.9993 23.7 68.9993 23.8C68.8993 24 68.8993 24.2 68.9993 24.4C69.0993 24.6 69.2993 24.7 69.3993 24.8C69.4993 24.8 69.5993 24.8 69.5993 24.8C69.7993 25 69.8993 25 69.8993 25Z" fill="#F5DA93"/>
<path d="M75.9998 28.8C76.6998 28.8 77.3997 28.8 78.1997 28.7C78.8997 28.7 79.6998 28.6 80.3998 28.6C81.0998 28.5 81.7998 28.5 82.4998 28.4C83.2998 28.3 83.9998 28.2 84.7998 28.1C85.4998 28 86.1998 27.9 86.8998 27.7C87.6998 27.6 88.3997 27.4 89.1997 27.2C89.2997 27.2 89.3998 27.1 89.3998 27C89.3998 26.9 89.2997 26.8 89.1997 26.8C87.9997 27.1 86.6998 27.3 85.3998 27.4C84.6998 27.5 84.0998 27.6 83.3998 27.6C82.6998 27.7 82.0998 27.7 81.3998 27.7H81.4998C80.6998 27.7 79.9997 27.8 79.1997 27.8C78.3997 27.8 77.6998 27.8 76.8998 27.7C76.0998 27.7 75.3997 27.6 74.5997 27.5C73.7997 27.4 73.0998 27.3 72.2998 27.2C72.1998 27.2 71.9998 27.1 71.8998 27.1C71.6998 27.1 71.4998 27 71.2998 27.1C71.0998 27.2 70.9998 27.3 70.8998 27.5C70.7998 27.9 71.0998 28.5 71.4998 28.5C72.1998 28.5 72.8997 28.6 73.5997 28.6C74.1997 28.6 74.8998 28.7 75.4998 28.7C75.7998 28.8 75.8998 28.8 75.9998 28.8ZM72.2998 27.3H72.1997C72.1997 27.3 72.1998 27.3 72.2998 27.3Z" fill="#F5DA93"/>
<path d="M32.0992 20.9C18.3992 30.6 13.6992 47.5 21.4992 58.6C29.3992 69.7 46.8992 70.8 60.5992 61.1C74.1992 51.3 78.9992 34.5 71.0992 23.4C63.2992 12.3 45.7992 11.2 32.0992 20.9Z" fill="#76CAAD"/>
<path d="M40.9995 16.2C40.9995 16.4 40.9995 16.6 40.9995 16.9C40.9995 17.1 40.9995 17.4 41.0995 17.6C41.0995 17.8 41.1995 18 41.2995 18.3C41.3995 18.5 41.4995 18.8 41.5995 19C41.6995 19.2 41.7995 19.4 41.9995 19.6C42.1995 19.8 42.2995 20.1 42.4995 20.3C42.6995 20.5 42.8995 20.7 43.0995 21C43.3995 21.3 43.6995 21.5 44.0995 21.7C44.3995 21.9 44.6995 22.1 44.9995 22.2C45.6995 22.5 46.2995 22.8 46.9995 23C47.5995 23.2 48.1995 23.5 48.7995 23.8C49.0995 24 49.4995 24.2 49.7995 24.4C50.0995 24.6 50.2995 24.8 50.4995 25C50.7995 25.3 50.9995 25.6 51.2995 26C51.4995 26.3 51.6995 26.6 51.8995 27C52.1995 27.7 52.3995 28.4 52.5995 29.2C52.6995 29.9 52.6995 30.6 52.6995 31.3C52.6995 32.8 52.4995 34.3 52.5995 35.7C52.5995 36.1 52.6995 36.6 52.6995 37C52.7995 37.4 52.8995 37.8 52.9995 38.2C53.0995 38.5 53.1995 38.8 53.2995 39.1C53.3995 39.4 53.5995 39.6 53.6995 39.9C53.8995 40.1 53.9995 40.3 54.1995 40.5C54.2995 40.7 54.4995 40.8 54.5995 41C54.7995 41.2 54.9995 41.3 55.1995 41.5C55.3995 41.6 55.6995 41.8 55.8995 41.9C57.4995 42.7 59.1995 43 60.8995 43.6C61.5995 43.9 62.2995 44.2 62.8995 44.6C63.4995 45 64.0995 45.5 64.5995 46.1C65.5995 47.4 66.2995 48.9 66.7995 50.5C66.9995 51.4 67.1995 52.2 67.3995 53.1C67.4995 53.8 67.4995 54.4 67.5995 55.1C70.6995 51.5 72.9995 47.3 74.1995 42.9C74.4995 41.9 74.6995 40.9 74.8995 39.9C74.5995 39.8 74.2995 39.7 73.9995 39.6C73.5995 39.5 73.1995 39.4 72.7995 39.3C71.9995 39.1 71.1995 39 70.3995 38.7C69.6995 38.5 69.0995 38.2 68.4995 37.9C67.9995 37.6 67.4995 37.2 67.0995 36.8C66.6995 36.3 66.2995 35.8 66.0995 35.2C65.9995 34.9 65.8995 34.6 65.7995 34.2C65.6995 33.8 65.6995 33.4 65.6995 33C65.6995 32.6 65.6995 32.2 65.6995 31.8C65.6995 31.4 65.7995 31 65.8995 30.6C65.9995 30.2 65.9995 29.9 66.0995 29.5C66.0995 29.2 66.1995 28.9 66.0995 28.5C66.0995 28.4 66.0995 28.2 65.9995 28.1C65.9995 28 65.8995 27.9 65.8995 27.7C65.7995 27.5 65.7995 27.4 65.6995 27.2C65.5995 27.1 65.5995 26.9 65.4995 26.8C65.2995 26.5 64.9995 26.2 64.6995 25.9C64.4995 25.7 64.2995 25.6 64.0995 25.5C63.8995 25.4 63.7995 25.3 63.5995 25.2C63.0995 24.9 62.4995 24.7 61.8995 24.6C61.2995 24.4 60.6995 24.3 60.1995 24C59.5995 23.8 59.0995 23.5 58.5995 23.2C58.3995 23 58.0995 22.8 57.8995 22.6C57.6995 22.4 57.4995 22.1 57.3995 21.9C56.9995 21.3 56.6995 20.6 56.4995 19.9C56.2995 19.2 56.2995 18.6 56.2995 17.9C56.2995 17.2 56.3995 16.5 56.5995 15.8C56.6995 15.5 56.7995 15.2 56.8995 14.9C55.3995 14.6 53.7995 14.5 52.1995 14.5C48.2995 14.3 44.5995 15 40.9995 16.2Z" fill="#FDC500"/>
<path d="M18.6995 39.3C18.3995 40.3 18.1995 41.3 17.9995 42.3C18.0995 42.7 18.2995 43 18.3995 43.3C18.5995 43.7 18.7995 44 18.9995 44.3C19.1995 44.5 19.2995 44.8 19.4995 45C19.6995 45.2 19.7995 45.4 19.9995 45.5C20.1995 45.7 20.3995 45.8 20.5995 45.9C20.7995 46 20.9995 46.1 21.0995 46.2C22.0995 46.7 23.1995 46.9 24.1995 47.4C24.4995 47.6 24.7995 47.7 24.9995 47.9C25.1995 48.1 25.4995 48.3 25.5995 48.5C25.8995 48.8 26.1995 49.2 26.3995 49.6C26.5995 50 26.6995 50.4 26.6995 50.9C26.6995 51.3 26.6995 51.7 26.6995 52.1C26.5995 53 26.2995 53.8 26.0995 54.7C25.9995 55.3 25.8995 55.9 25.8995 56.5C25.8995 56.8 25.9995 57.1 26.0995 57.4C26.1995 57.6 26.1995 57.7 26.2995 57.9C26.3995 58 26.3995 58.2 26.4995 58.3C26.6995 58.6 26.8995 58.8 27.1995 59.1C27.2995 59.2 27.3995 59.3 27.5995 59.4C27.6995 59.4 27.7995 59.5 27.8995 59.5C28.0995 59.6 28.2995 59.7 28.3995 59.7C28.4995 59.7 28.6995 59.8 28.7995 59.8C29.1995 59.9 29.4995 59.9 29.8995 59.9C30.1995 59.9 30.5995 60 30.8995 60C31.1995 60.1 31.5995 60.1 31.8995 60.2C32.1995 60.3 32.4995 60.5 32.7995 60.6C33.2995 60.9 33.7995 61.3 34.2995 61.8C34.6995 62.2 34.9995 62.7 35.1995 63.2C35.6995 64.3 35.8995 65.5 35.9995 66.7C35.9995 66.9 35.9995 67 35.9995 67.2C37.4995 67.4 38.9995 67.6 40.5995 67.6C44.9995 67.6 49.4995 66.6 53.6995 64.8C53.6995 64.6 53.5995 64.4 53.5995 64.2C53.4995 63.8 53.3995 63.5 53.2995 63.1C53.1995 62.7 52.9995 62.4 52.8995 62C52.6995 61.6 52.4995 61.3 52.2995 61C52.0995 60.8 51.9995 60.5 51.7995 60.3C51.5995 60.1 51.4995 59.9 51.2995 59.8C51.0995 59.6 50.8995 59.4 50.5995 59.3C50.3995 59.2 50.0995 59 49.8995 58.9C49.2995 58.6 48.6995 58.4 48.0995 58.2C47.4995 58 46.8995 57.9 46.3995 57.7C45.7995 57.5 45.1995 57.3 44.5995 57C44.2995 56.9 44.0995 56.7 43.7995 56.6C43.4995 56.4 43.2995 56.3 43.0995 56.1C42.7995 55.8 42.4995 55.5 42.1995 55.2C41.9995 54.9 41.7995 54.6 41.6995 54.3C41.5995 54 41.4995 53.7 41.3995 53.4C41.2995 53.1 41.2995 52.8 41.2995 52.5C41.1995 51.1 41.5995 49.8 41.8995 48.5C41.9995 48 42.0995 47.5 42.1995 47C42.2995 46.5 42.2995 46 42.2995 45.5C42.2995 44.9 42.0995 44.2 41.8995 43.6C41.7995 43.4 41.6995 43.2 41.5995 42.9C41.4995 42.7 41.3995 42.5 41.2995 42.4C41.1995 42.2 40.9995 42 40.8995 41.9C40.7995 41.7 40.5995 41.6 40.4995 41.5C40.0995 41.2 39.6995 40.9 39.2995 40.7C38.1995 40.2 37.0995 39.9 35.8995 39.6C35.2995 39.5 34.5995 39.3 33.9995 39.2C33.3995 39 32.7995 38.9 32.1995 38.6C31.3995 38.3 30.6995 37.9 29.9995 37.4C29.3995 36.9 28.7995 36.4 28.2995 35.8C27.7995 35.2 27.3995 34.6 27.0995 33.9C26.7995 33.2 26.4995 32.5 26.2995 31.7C25.8995 30.1 25.7995 28.5 25.8995 26.9C25.8995 26.6 25.9995 26.3 25.9995 26C22.5995 30 19.9995 34.5 18.6995 39.3Z" fill="#FDC500"/>
<path opacity="0.3" d="M65.6999 23.2C65.9999 25 66.0999 26.7 66.0999 28.5C66.0999 30.3 65.8999 32 65.4999 33.8C64.6999 37.3 63.2999 40.7 61.2999 43.8C60.2999 45.4 59.0999 46.8 57.7999 48.2C57.0999 48.9 56.3999 49.6 55.6999 50.2C54.8999 50.9 54.0999 51.6 53.1999 52.2C51.3999 53.5 49.4999 54.7 47.4999 55.7C45.5999 56.6 43.5999 57.4 41.5999 57.9C39.5999 58.4 37.5999 58.8 35.4999 59C33.3999 59.2 31.2999 59.1 29.1999 58.9C27.0999 58.7 24.9999 58.3 22.9999 57.7C22.0999 57.5 21.2999 57.2 20.3999 56.9C20.6999 57.5 21.0999 58 21.4999 58.6C25.5999 64.4 32.5999 67.7 40.6999 67.7C47.4999 67.7 54.5999 65.3 60.5999 61.1C67.1999 56.4 71.9999 49.9 73.9999 42.8C75.9999 35.7 74.9999 28.8 71.1999 23.4C69.2999 20.8 66.8999 18.7 63.9999 17.2C64.7999 19.1 65.3999 21.1 65.6999 23.2Z" fill="#70B0A0"/>
<path d="M25.299 32.7C22.299 36.9 21.999 41.8 24.499 43.6C26.999 45.4 31.499 43.5 34.499 39.3C37.499 35.1 37.799 30.2 35.299 28.4C32.799 26.6 28.299 28.5 25.299 32.7Z" fill="#FEFEFE"/>
<path d="M37.2999 22.7C35.9999 24 35.7999 25.8 36.7999 26.9C37.7999 27.9 39.6999 27.7 40.9999 26.4C42.2999 25.1 42.4999 23.3 41.4999 22.2C40.3999 21.2 38.4999 21.4 37.2999 22.7Z" fill="#FEFEFE"/>
</svg>
