<svg width="234" height="315" viewBox="0 0 234 315" fill="none" xmlns="http://www.w3.org/2000/svg">
<path d="M122.518 99.277C121.757 98.668 121.199 97.8053 120.64 96.9426C119.118 97.8054 117.595 98.6683 116.276 99.2773C109.272 102.83 102.37 105.216 95.8237 106.637C90.6472 107.906 85.5721 108.008 80.4462 107.653L80.1924 107.45C76.2339 107.197 72.2245 106.486 68.6211 105.268L67.9106 105.116L66.6926 104.558C71.057 102.223 74.8632 99.0257 78.4155 95.6252C82.7799 91.2097 86.1799 86.4389 88.8695 81.516C91.7112 75.8825 93.1827 70.4013 93.4869 64.8187C93.5883 61.5706 93.7404 58.7793 93.2327 56.2925C93.182 55.8358 92.8774 55.176 92.8267 54.7193C92.319 52.2325 91.8622 50.2025 90.9485 48.2233C89.7304 45.5843 88.563 43.4021 86.9896 41.7274C85.3655 39.5959 83.5891 38.175 81.8128 36.7541C77.8033 33.963 72.5759 32.6945 67.2978 33.05C64.7603 33.1009 62.2735 33.6085 59.8376 34.5729C57.6046 35.2835 55.6253 36.1972 53.6461 37.1108C49.7384 39.3948 46.795 42.034 44.3591 45.0792C41.9232 48.1243 40.4516 51.5247 39.2845 55.5848C37.6101 61.3198 37.4074 67.8159 38.6258 74.6165C39.0319 76.1897 39.4379 77.763 39.844 79.3362C42.382 87.6085 46.6455 94.7641 52.5836 100.346C54.6645 102.427 57.1514 104 59.8412 105.32C58.7247 105.675 57.6082 106.03 56.2887 106.639C54.0557 107.35 51.8227 108.061 49.5897 108.771C45.7835 109.888 41.5205 111.055 35.6334 112.172L36.0902 112.121C33.6034 112.629 31.1167 113.137 28.6299 113.644L28.1731 113.695C23.4026 114.457 18.4291 115.472 13.7093 116.69C5.38626 118.771 -1.05897 121.106 -6.74291 124.05C-11.7671 126.689 -16.233 130.191 -19.7346 134.049C-21.8153 136.13 -23.8452 138.667 -25.4183 141.154C-27.3975 144.149 -29.1736 146.889 -30.29 149.325C-33.8929 156.431 -35.5165 164.703 -35.2623 173.229C-35.1607 176.224 -34.856 178.964 -34.2976 181.908C-34.7036 182.415 -35.3125 183.176 -35.7185 183.684C-39.5246 188.962 -43.0261 194.9 -46.0708 200.788C-52.6677 214.237 -55.6106 227.28 -55.407 239.511C-55.2545 242.962 -55.1021 246.413 -54.2899 249.56L-53.8838 251.133C-53.3254 254.076 -52.5132 257.223 -51.9041 260.623C-51.3964 263.11 -50.635 265.8 -50.1274 268.286C-48.8583 273.463 -47.5893 278.639 -46.574 283.613L-46.6248 283.156C-46.3202 283.816 -46.4725 284.526 -46.1679 285.186C-44.645 292.647 -43.9342 299.041 -43.5279 304.776C-43.2233 305.436 -42.7158 305.842 -42.0053 305.994C-41.0918 305.892 -40.4828 305.131 -40.5843 304.217C-40.7877 298.229 -41.7015 292.088 -43.2244 284.628C-44.3412 278.741 -45.661 273.107 -46.9809 267.474L-47.0316 267.017C-48.2499 262.298 -49.5189 257.121 -50.5342 252.148L-50.4835 252.604L-50.9403 250.574C-51.3972 248.544 -51.9556 245.601 -52.0572 242.607C-52.3619 239.866 -52.2606 236.618 -52.1085 233.827L-51.9055 233.573C-51.449 227.28 -50.1299 220.428 -48.1002 213.729C-45.3093 205.558 -41.4019 197.032 -36.0735 188.81L-36.2765 189.064C-35.5153 187.592 -34.2974 186.069 -33.2824 184.8C-32.1657 188.607 -30.7953 192.616 -28.8158 195.864C-25.0091 203.07 -19.7307 208.957 -13.7419 212.915C-10.4937 215.097 -6.89035 216.315 -3.59152 216.873C0.41784 217.584 4.12265 217.634 7.97968 216.974C10.2635 216.72 12.4965 216.01 14.2727 215.35C16.5057 214.639 18.6879 213.472 20.8702 212.304C26.5541 209.361 30.5632 205.909 33.4051 202.357C36.6529 198.296 38.4798 193.932 39.3931 189.669C39.7989 187.08 39.6973 184.086 39.1896 181.599C38.7835 180.026 38.3774 178.453 37.7176 176.676C35.8396 172.261 32.8958 168.658 29.3431 165.816C25.2829 162.568 19.9539 160.386 14.4728 158.915C10.9202 158.154 7.41834 157.849 4.42404 157.951C0.97299 158.104 -1.97052 158.662 -5.11703 159.474C-10.9533 161.048 -16.6372 163.992 -21.7121 168.255C-25.1123 170.945 -28.4617 174.092 -31.3035 177.644C-31.9127 174.244 -31.8622 170.539 -31.7608 167.291C-31.5073 163.333 -30.797 159.323 -29.6299 155.263L-29.4269 155.009C-28.9195 153.335 -28.1583 151.863 -27.3971 150.391C-26.4837 148.209 -25.3166 146.229 -23.7434 143.742L-23.5404 143.489C-20.7493 139.479 -17.7045 135.673 -14.1521 132.272C-10.8027 129.125 -7.14879 126.638 -2.98733 124.557C5.53859 120.142 14.5721 118.213 22.2354 116.436L21.7787 116.487C24.2654 115.979 26.7522 115.472 29.4927 115.167C35.3798 114.05 41.9266 112.629 48.2196 111.004C51.3661 110.192 54.0559 109.431 56.9486 108.416C59.8413 107.4 62.2773 106.436 64.2566 105.522L64.7641 105.928L65.0179 106.131C67.9107 107.197 70.8036 108.263 73.6457 108.871C76.4877 109.48 79.5328 109.835 82.3241 109.988C93.2356 110.393 104.959 107.703 117.443 101.46C118.154 101.612 120.336 100.444 122.518 99.277ZM59.1813 101.463C56.6944 99.8894 54.1567 97.8595 52.2788 95.5251C49.8934 92.7847 47.4572 89.5875 45.6807 86.0858C43.9043 82.5841 42.5338 78.5748 41.6708 74.9716L41.4171 74.7686L41.1633 74.5656C40.3004 70.9623 40.3509 67.2575 40.4015 63.5527C40.5536 60.7614 41.1624 57.9193 42.0251 55.2802C42.6847 52.8949 43.8519 50.9155 45.019 48.9362C46.1862 46.9568 47.8609 45.3835 49.5356 43.8101C51.2103 42.2368 52.9358 41.1201 55.118 39.9528C57.757 38.7346 60.396 37.5164 63.3395 36.958C65.8262 36.4504 68.11 36.1965 70.4446 36.3994C71.8656 36.7038 73.7434 36.9575 75.4182 37.4649C76.8392 37.7693 78.3111 38.5305 79.5799 39.5455C80.8487 40.5604 82.1175 41.5754 83.6401 42.7933C84.9597 44.265 86.0763 45.9905 87.1929 47.716C88.3603 49.8982 89.1217 52.588 89.8831 55.2777C90.4415 58.2212 90.594 61.6723 90.4926 64.9203C90.3913 68.1684 89.6302 71.721 88.3616 74.8676C87.1438 78.471 85.4184 81.6684 83.4901 85.1196C80.902 88.8753 78.0601 92.428 74.7107 95.5747C71.3613 98.7214 67.5044 101.462 63.5459 103.289C61.8711 102.782 60.3993 102.021 59.1813 101.463ZM7.5228 214.944C5.03604 215.452 2.29552 215.756 -0.495792 215.604L-0.0390242 215.554C-2.37357 215.351 -4.96188 214.945 -7.14422 214.031C-9.52955 213.372 -11.5089 212.205 -13.742 210.834C-16.2289 209.261 -18.7665 207.231 -20.8982 204.694C-23.2836 201.954 -25.4661 198.959 -27.4963 195.255C-29.3236 191.296 -30.9478 187.084 -31.8615 183.024C-29.4256 179.979 -26.736 177.137 -23.7926 174.497C-20.2402 171.097 -16.5862 168.61 -12.6278 166.783C-9.32905 165.26 -6.23332 163.991 -2.83304 163.382C0.110479 162.823 3.30777 162.468 6.55583 162.569C10.0577 162.874 13.3565 163.432 16.7061 164.447C19.3452 165.309 21.7813 166.426 24.2681 167.999C26.5012 169.369 28.0746 171.044 29.648 172.718C30.9676 174.19 32.338 176.119 32.9978 177.895C33.8607 179.417 34.3175 181.447 34.9774 183.223C35.1805 185.05 35.3836 186.878 35.3837 188.958C35.333 190.582 35.0794 192.46 34.3689 194.389C33.6585 196.317 32.9481 198.246 31.5272 200.022C30.36 202.002 28.4823 203.829 26.8076 205.402C24.0672 207.787 21.073 209.97 17.1146 211.797C14.2218 212.812 10.6693 214.132 7.5228 214.944Z" fill="#CAC8CC"/>
<path d="M195.442 47.6657C196.027 51.308 195.903 55.0756 195.24 58.8254C194.883 60.6344 194.486 62.535 193.814 64.315C193.273 66.0436 192.51 67.7834 191.615 69.5747C189.945 72.8824 187.685 76.0405 184.836 79.0492C181.734 82.3839 178.021 85.1224 173.746 87.3965C172.045 88.2878 170.12 89.1903 168.052 89.9209C166.826 90.4749 165.548 90.8972 164.231 91.411C162.69 91.9361 161.098 92.3294 159.597 92.7628L159.465 92.8142L159.322 92.6423C158.349 92.8702 157.639 92.9954 157.02 93.1607C156.046 93.3886 155.245 93.4736 154.403 93.6502C153.692 93.7753 152.891 93.8603 151.825 94.0481C150.09 94.2694 148.304 94.359 146.425 94.4084C144.994 94.4354 143.471 94.4222 141.856 94.3688C139.703 94.2977 137.591 94.1349 135.386 93.932C133.944 93.7357 132.369 93.5907 130.875 93.2627C130.468 93.1935 130.062 93.1243 129.747 93.0953C129.026 92.9972 128.253 92.7672 127.663 92.6177L127.389 92.4971L127.297 92.4569L127.451 92.8522C127.514 93.2073 127.668 93.6026 127.731 93.9577C128.113 95.3266 128.352 96.5236 128.54 97.5889C128.676 98.5223 128.783 99.7707 128.536 101.082C128.426 101.58 128.317 102.078 128.024 102.495C127.864 102.862 127.48 103.239 127.095 103.617C126.711 103.994 125.972 104.434 125.2 104.204C124.742 104.003 124.456 103.659 124.159 103.092C124.107 102.961 124.056 102.829 124.004 102.697C123.748 102.038 123.571 101.196 123.515 100.08C123.379 99.1462 123.466 98.2015 123.421 97.3082L123.381 97.3998L123.169 97.6343C122.452 98.521 121.775 99.3161 121.139 100.02C120.239 100.826 119.5 101.266 118.698 101.351C118.211 101.465 117.805 101.396 117.438 101.235C117.347 101.195 117.347 101.195 117.255 101.155C116.981 101.034 116.746 100.822 116.512 100.61C116.42 100.57 116.369 100.438 116.226 100.266C116.083 100.094 115.94 99.9222 115.837 99.6587L115.786 99.5269C115.643 99.355 115.631 99.1316 115.58 98.9999C115.426 98.6046 115.403 98.158 115.553 97.5683C115.662 97.0703 115.823 96.704 115.984 96.3378C116.145 95.9715 116.397 95.6454 116.821 95.1763C117.366 94.4326 118.094 93.7692 118.954 93.0544C119.166 92.8199 119.47 92.6256 119.733 92.5228C119.378 92.5854 119.063 92.5564 118.525 92.5386C117.448 92.503 116.464 92.5076 115.599 92.2375C115.101 92.1281 114.735 91.9674 114.369 91.8067C114.002 91.6459 113.676 91.3936 113.573 91.1301C113.482 91.0899 113.522 90.9983 113.43 90.9581C113.328 90.6946 113.225 90.4311 113.346 90.1564C113.151 89.8527 113.403 89.5266 113.736 89.0174C113.908 88.8744 114.029 88.5997 114.201 88.4568C114.373 88.3138 114.545 88.1709 114.716 88.0279C115.02 87.8336 115.415 87.6794 115.902 87.5654C116.389 87.4515 116.927 87.4693 117.374 87.4469C117.821 87.4245 118.359 87.4423 118.989 87.5002C119.933 87.5872 120.929 87.8059 122.24 88.0536C122.647 88.1228 123.013 88.2836 123.511 88.3929C122.926 84.7505 122.42 80.925 122.138 77.0883C121.749 72.0031 121.789 67.4338 122.063 63.0767C122.446 58.2215 123.247 53.6588 124.506 49.297C125.696 45.3417 127.131 41.8219 128.996 38.8178C130.608 36.1399 132.586 33.6227 134.931 31.2663C137.103 29.0528 139.602 27.0916 142.376 25.251C144.977 23.5534 147.773 22.1594 150.723 21.1607C153.713 20.0705 156.766 19.3353 159.75 19.0066C162.865 18.6265 165.871 18.7444 168.808 19.2688C170.342 19.5053 171.836 19.8334 173.25 20.3446C174.612 20.7241 176.078 21.3671 177.543 22.01C180.301 23.439 182.899 25.2341 185.255 27.5788C186.387 28.731 187.571 30.0149 188.583 31.4419C189.738 33.0407 190.853 34.7312 191.795 36.5645C191.898 36.8281 192.092 37.1318 192.195 37.3953C193.795 40.7182 194.907 44.155 195.442 47.6657Z" fill="#17CCE4"/>
<path d="M158.856 37.8149C153.137 40.6668 147.317 40.8131 146.002 38.0419C144.587 35.2817 148.207 30.7523 153.926 27.9005C159.645 25.0487 165.465 24.9024 166.78 27.6736C168.195 30.4337 164.575 34.9631 158.856 37.8149Z" fill="#FEFEFE"/>
<path d="M143.786 45.232C142.041 46.7347 139.623 46.7027 138.363 45.3339C137.093 43.8658 137.533 41.5024 139.178 40.0108C140.922 38.5081 143.33 38.4407 144.6 39.9088C145.871 41.377 145.43 43.7404 143.786 45.232Z" fill="#FEFEFE"/>
</svg>
