<svg width="52" height="44" viewBox="0 0 52 44" fill="none" xmlns="http://www.w3.org/2000/svg">
<path d="M51.3213 8.21959C45.6757 9.30991 40.2989 10.4002 34.6532 11.218C33.8467 11.218 33.309 11.4905 32.5025 11.4905C31.696 11.4905 30.8895 12.0357 30.3518 11.4905C29.8141 10.9454 29.5453 10.4002 29.2764 9.85507C29.0076 9.30991 28.4699 8.49217 28.2011 7.94701C26.8569 5.49379 25.2438 3.04058 23.8996 0.314778C23.6308 0.0421988 22.8242 -0.230381 22.5554 0.314778C20.4047 4.40347 19.0605 8.76475 18.254 13.126C12.3395 15.5792 6.42498 18.0325 0.510485 20.4857C-0.027196 20.4857 -0.296037 21.576 0.510485 21.8486C5.8873 22.9389 11.2641 23.4841 16.6409 23.4841C13.9525 29.7534 11.5329 36.2953 9.38222 43.1098C9.11338 43.655 9.65106 44.2001 10.1887 43.9275C14.4902 42.5646 17.4474 38.7485 20.1358 35.205C20.9424 34.3872 21.7489 33.2969 22.2866 32.4792C22.8242 31.934 23.3619 31.3889 24.1684 31.1163C24.975 31.1163 25.5127 31.3889 26.3192 31.6614C28.7387 32.4792 30.6206 34.1147 32.7713 35.205C35.1909 36.5679 37.6105 37.3856 40.2989 37.113C40.8366 37.113 41.1054 36.5679 41.1054 36.0227C39.4924 31.3889 37.3416 26.755 34.9221 22.3937C41.3742 19.3954 47.0199 14.7615 51.5902 9.03733C52.3967 9.03733 51.859 8.21959 51.3213 8.21959Z" fill="#FF3194"/>
</svg>
