<svg width="99" height="81" viewBox="0 0 99 81" fill="none" xmlns="http://www.w3.org/2000/svg">
<path d="M13.627 42.3186C16.1695 39.6133 20.0648 38.1793 23.5462 39.3753C21.5656 35.3381 23.2328 29.8699 27.193 27.6674C31.1532 25.4649 36.6667 26.7848 39.0654 30.5941C36.9219 25.3702 38.3294 18.9146 42.2429 14.905C46.1308 10.8214 52.351 9.16104 57.8162 10.5806C63.6287 12.0454 68.0655 16.4737 70.286 21.9195C74.0136 20.9581 77.5766 20.7167 81.2347 22.1829C87.7053 24.8284 93.1852 31.5471 91.2236 39.2724C89.4975 46.0042 82.954 49.6 76.7611 49.4275C76.2096 55.006 72.2568 59.8581 67.4119 62.6161C62.9368 65.2458 56.1277 67.359 51.0098 65.9848C47.1841 64.9911 43.8327 62.2583 42.0574 58.8129C37.91 61.9091 33.3126 64.6641 28.2247 65.7659C22.6672 66.9477 15.2243 65.7998 12.113 60.4143C9.45468 55.6177 9.44155 48.4117 12.4553 43.7196C12.7965 43.2697 13.1861 42.7202 13.627 42.3186Z" fill="#45EDCF"/>
<path d="M73.9788 32.3249C72.848 30.9766 71.3248 29.9303 69.5886 29.7037C67.8524 29.4771 66.0029 30.1187 64.9052 31.494C63.8815 32.8436 63.8089 35.0237 65.0136 36.3463" stroke="#1B0512" stroke-width="1.56607" stroke-miterlimit="10" stroke-linecap="round"/>
<path d="M54.0454 42.7198C52.4676 45.3391 48.9166 46.5708 46.104 45.3915" stroke="#1B0512" stroke-width="1.56607" stroke-miterlimit="10" stroke-linecap="round"/>
<path d="M33.2575 49.9305C33.2168 48.6185 32.311 47.4409 31.2633 46.8097C30.1416 46.2042 28.8266 45.9973 27.5403 46.112C26.4276 46.2493 25.1443 46.6116 24.5615 47.5596C23.5891 49.0572 24.4556 51.0773 25.3161 52.6022" stroke="#1B0512" stroke-width="1.56607" stroke-miterlimit="10" stroke-linecap="round"/>
<path d="M72.5462 48.9834C72.3346 51.9575 70.8337 54.7988 68.4044 56.636C68.0859 56.9123 68.0179 57.4331 68.2941 57.7517C68.5704 58.0703 69.0656 58.0643 69.4098 57.862C72.1094 55.8481 73.8775 52.5827 74.1087 49.1873C74.145 48.0972 72.6081 47.9673 72.5462 48.9834Z" fill="white"/>
<path d="M61.9739 59.3637C61.2854 59.7683 60.5713 60.0989 59.9568 60.4778C59.7349 60.5548 59.6382 60.7541 59.5416 60.9533C59.445 61.1526 59.448 61.4002 59.5733 61.5225C59.7756 61.8667 60.2738 62.1083 60.618 61.9061C61.3065 61.5015 62.0206 61.1709 62.6351 60.792C62.857 60.715 62.9537 60.5157 63.0503 60.3164C63.1469 60.1172 63.1439 59.8696 63.0186 59.7473C62.8163 59.403 62.3181 59.1614 61.9739 59.3637Z" fill="white"/>
<path d="M42.0584 20.1075C41.6372 20.0879 41.2446 20.3898 41.225 20.811C40.9304 23.0681 41.0345 25.5184 41.7046 27.6895C41.8329 28.0594 42.2089 28.4263 42.5787 28.2979C42.9743 28.2436 43.3155 27.7937 43.1872 27.4238C42.6167 25.3011 42.4417 23.124 42.7619 20.941C42.8555 20.4941 42.4796 20.1272 42.0584 20.1075Z" fill="white"/>
<path d="M46.5252 18.8895C46.3999 18.7672 46.175 18.5966 46.0013 18.5739C45.8277 18.5512 45.6058 18.6282 45.4095 18.7792C45.2872 18.9045 45.1166 19.1294 45.0939 19.3031C45.0773 19.9719 45.0606 20.6407 45.044 21.3095C45.047 21.5571 45.0983 21.7051 45.2493 21.9013C45.3746 22.0236 45.5995 22.1943 45.7731 22.2169C45.9468 22.2396 46.1687 22.1626 46.365 22.0116C46.4873 21.8863 46.6579 21.6614 46.6805 21.4878C46.6972 20.8189 46.7138 20.1501 46.7305 19.4813C46.6535 19.2594 46.6505 19.0118 46.5252 18.8895Z" fill="white"/>
<path d="M32.5989 30.3506C31.05 29.2302 28.9183 29.058 27.2711 30.0437C26.9268 30.246 26.6596 30.6702 26.8875 31.0885C27.0898 31.4327 27.588 31.6743 27.9322 31.472C28.0802 31.4207 28.2765 31.2697 28.4244 31.2184C28.4984 31.1927 28.4984 31.1927 28.5724 31.1671C28.6464 31.1414 28.7204 31.1157 28.8683 31.0644C29.0163 31.0131 29.2639 31.0101 29.4118 30.9588L29.4858 30.9331L29.5598 30.9075C29.6338 30.8818 29.7334 30.9301 29.8814 30.8788C30.055 30.9014 30.2286 30.9241 30.4022 30.9468C30.4022 30.9468 30.4022 30.9468 30.4762 30.9211C30.4762 30.9211 30.5502 30.8954 30.5758 30.9694C30.6755 31.0177 30.7495 30.9921 30.8491 31.0404C30.9487 31.0887 31.0484 31.137 31.148 31.1854L31.2477 31.2337C31.2477 31.2337 31.2477 31.2337 31.3473 31.282C31.3473 31.282 31.3473 31.282 31.4469 31.3303L31.5466 31.3786C31.6462 31.4269 31.7459 31.4753 31.7715 31.5492C32.0961 31.7682 32.6653 31.7365 32.8586 31.3379C33.0292 31.113 33.0232 30.6178 32.5989 30.3506Z" fill="white"/>
<path d="M16.178 44.4174C13.0633 46.9067 11.9533 51.3529 13.336 55.1001C13.4643 55.47 14.0108 55.612 14.3807 55.4837C14.7989 55.2557 14.8926 54.8089 14.7643 54.439C13.6125 51.3575 14.7571 47.7281 17.2574 45.6177C18.0425 45.0138 16.9631 43.8135 16.178 44.4174Z" fill="white"/>
<path d="M86.327 33.76C85.8575 33.8399 85.6642 34.2385 85.7185 34.6341C85.7819 35.7724 85.9192 36.8851 85.9568 37.9495C86.0112 38.345 86.461 38.6863 86.8309 38.558C87.3005 38.478 87.4938 38.0794 87.4394 37.6839C87.3761 36.5455 87.2388 35.4328 87.2011 34.3684C87.2208 33.9472 86.6969 33.6317 86.327 33.76Z" fill="white"/>
<path d="M75.1505 37.1396C74.4757 36.6278 73.4113 36.6654 72.6459 36.8481C71.4366 37.1847 70.2302 37.7689 69.1975 38.3757C68.9273 38.5523 68.7567 38.7773 68.7853 39.0989C68.6147 39.3238 68.4698 39.6227 68.4984 39.9443C68.4758 40.1179 68.4788 40.3655 68.5301 40.5135C68.4108 40.8864 68.5904 41.4042 68.9633 41.5235L69.063 41.5718C69.0886 41.6458 69.1883 41.6941 69.1883 41.6941C69.3875 41.7908 69.5868 41.8874 69.8088 41.8104C69.8827 41.7848 69.9567 41.7591 70.0307 41.7334C71.8152 41.8604 73.4881 40.9486 74.862 39.8919C75.2546 39.5899 75.7211 39.2624 75.8887 38.7898C76.005 38.1693 75.6261 37.5548 75.1505 37.1396Z" fill="#06967C"/>
<path d="M37.0223 54.0946C36.0425 52.9426 34.5569 52.9606 33.174 53.2745C32.1866 53.5342 31.1992 53.7938 30.3884 54.3236C29.8479 54.6769 29.3814 55.0045 28.8922 55.5057C28.5253 55.8816 28.9042 56.4961 29.2288 56.715C31.7711 58.0709 34.7016 56.7229 36.8123 55.162C37.2562 55.008 37.2985 54.4132 37.0223 54.0946Z" fill="#06967C"/>
</svg>
