<svg viewBox="0 0 1920 22" preserveAspectRatio="none" fill="none" xmlns="http://www.w3.org/2000/svg">
<path d="M1925 22V0C1884.9 0 1884.9 22 1844.78 22C1804.68 22 1804.68 0 1764.56 0C1724.46 0 1724.46 22 1684.35 22C1644.25 22 1644.25 0 1604.15 0C1564.04 0 1564.04 22 1523.94 22C1483.83 22 1483.83 0 1443.73 0C1403.63 0 1403.63 22 1363.52 22C1323.42 22 1323.42 0 1283.31 0C1243.21 0 1243.21 22 1203.1 22C1163 22 1163 0 1122.9 0C1082.79 0 1082.79 22 1042.69 22C1002.58 22 1002.58 0 962.49 0C922.386 0 922.386 22 882.282 22C842.177 22 842.177 0 802.073 0C761.969 0 761.969 22 721.865 22C681.761 22 681.761 0 641.657 0C601.552 0 601.552 22 561.448 22C521.344 22 521.344 0 481.24 0C441.136 0 441.136 22 401.032 22C360.927 22 360.927 0 320.823 0C280.719 0 280.719 22 240.615 22C200.521 22 200.521 0 160.417 0C120.312 0 120.312 22 80.2083 22C40.1042 22 40.1042 0 1.33187e-08 0L0 22H1925Z" fill="currentColor"/>
</svg>
