<svg width="123" height="87" viewBox="0 0 123 87" fill="none" xmlns="http://www.w3.org/2000/svg">
<path d="M83.6776 27.0699C75.3395 25.0454 66.6096 24.7017 58.1989 26.2553C50.935 27.5598 41.0238 29.9371 37.464 37.2397C36.0374 40.1799 35.9511 43.7171 38.2255 46.2779C40.3629 48.7026 43.7384 49.2528 46.8256 49.2166C55.1993 49.179 64.0999 46.9138 71.7273 43.5735C75.9298 41.7042 80.3225 39.452 83.7706 36.4241C85.0381 35.3143 86.1679 33.7953 86.1223 32.0338C86.0484 29.9173 84.3106 28.8161 83.2954 27.153C82.129 25.1762 79.1563 27.1785 80.3227 29.1553C80.9263 30.1368 82.7329 31.4426 82.3535 32.6181C81.9607 33.8893 79.9689 34.8782 78.9736 35.5775C76.1237 37.5386 73.0271 39.1725 69.8479 40.5609C63.5029 43.242 56.7999 44.859 49.9578 45.5205C47.3493 45.7601 44.1537 46.1517 41.8141 44.7518C38.8998 42.9985 40.0239 39.2944 41.8078 37.1453C45.9744 32.0533 54.4804 30.3765 60.6526 29.4848C68.1357 28.4255 75.6499 28.8136 82.9902 30.5815C85.1773 31.1215 85.9194 27.6371 83.6776 27.0699Z" fill="black" fill-opacity="0.1"/>
<path d="M91.2311 0.883036C76.9469 2.59004 62.7742 5.17072 48.795 8.59753C41.8054 10.3109 34.8436 12.2428 27.9232 14.2974C21.5079 16.2276 14.8883 18.3633 9.70924 22.8847C1.72273 29.8996 -0.924395 41.4056 0.905605 51.5879C1.80666 56.5698 3.48854 62.3825 9.74186 61.1902C12.3906 60.6636 14.5607 59.9336 16.4386 62.4C17.9191 64.3623 18.4992 66.7641 19.2702 69.0561C20.6333 73.1081 23.5152 78.1526 28.4866 77.756C34.7689 77.1917 36.2358 68.8163 42.5445 67.9242C45.6306 67.4784 48.2177 69.4784 50.4765 71.3155C52.6121 73.0574 54.734 74.7583 57.3729 75.693C62.0626 77.3047 65.9637 75.0812 68.5215 71.1682C70.2901 68.4319 71.819 62.8148 75.3957 61.9306C78.044 61.2675 80.9735 63.6079 83.3392 64.5434C86.0604 65.5872 88.9993 66.3298 91.9354 65.98C97.1521 65.3642 101.363 61.624 101.718 56.3107C101.901 53.1966 101.484 50.33 103.731 47.7971C105.761 45.5654 108.612 44.2871 111.3 42.9275C113.633 41.7327 116.907 40.2211 118.226 37.7729C119.884 34.7092 116.738 33.0794 115.884 30.5418C114.989 27.8815 116.634 24.6402 117.324 22.0846C118.122 19.3101 118.265 16.4828 117.643 13.6851C116.565 8.99045 114.001 5.43354 109.544 3.83489C105.291 2.30394 100.74 1.51127 96.2315 1.11451C94.5781 0.94172 92.8838 0.782704 91.2311 0.883036C88.9502 1.01248 89.1371 4.54889 91.4318 4.46038C95.0241 4.29986 98.7276 4.87646 102.24 5.56285C105.548 6.18156 110.043 6.81051 112.087 9.76804C113.828 12.2348 114.656 15.3734 114.391 18.3785C114.152 21.0558 112.943 23.5583 112.403 26.1545C111.931 28.4092 111.869 30.7992 113.036 32.9125C113.475 33.676 114.898 34.7917 114.996 35.6245C115.15 37.0306 112.271 38.3635 111.235 38.9401C106.761 41.4929 101.315 43.3248 99.0746 48.4523C98.1241 50.64 98.2393 52.8793 98.1907 55.1737C98.1309 58.3831 96.7576 60.8041 93.6323 61.9466C91.2032 62.8548 88.5385 62.5211 86.146 61.7768C83.398 60.9244 80.9617 59.1014 78.1459 58.454C74.2504 57.5775 71.1962 59.744 69.1145 62.9045C67.2505 65.764 66.0598 70.0828 63.0048 71.9761C58.3269 74.8709 53.3931 68.7398 49.8762 66.4147C45.3194 63.437 40.1021 63.7797 35.8901 67.2468C33.7911 69.0008 32.4728 71.5856 30.2915 73.2306C28.042 74.9441 25.8948 73.9807 24.4274 71.7862C21.9041 68.079 21.8506 63.3131 18.8907 59.7983C17.7395 58.4087 16.2068 57.3752 14.4165 57.0663C13.3505 56.8781 12.258 57.0178 11.1931 57.2394C9.86875 57.5026 7.97223 58.3684 6.74065 57.5526C5.13948 56.451 4.66452 52.4648 4.35946 50.745C3.90151 48.0287 3.78489 45.2432 4.00996 42.525C4.43435 37.6895 6.01969 32.7823 8.94639 28.8819C13.0439 23.4487 19.2523 20.7679 25.5444 18.7424C32.6691 16.4824 39.8903 14.5089 47.1118 12.6719C61.6914 8.99756 76.4783 6.21027 91.3771 4.43322C93.6577 4.16721 93.5117 0.617031 91.2311 0.883036Z" fill="black" fill-opacity="0.1"/>
<path d="M113.2 12.4005C115.456 18.1569 116.742 24.1483 117.687 30.2089C118.479 35.4097 119.724 41.1417 118.809 46.4156C117.893 51.6895 114.119 55.3738 109.933 58.3765C105.134 61.859 99.8957 64.5779 94.4787 66.9013C83.6993 71.5753 72.3989 75.5134 61.1104 78.8096C50.4499 81.9401 38.6693 85.1284 27.6245 82.3743C21.9517 80.9566 16.9029 77.8711 13.4752 73.1013C9.93776 68.1406 8.09174 62.2464 6.28702 56.475C5.59825 54.292 2.24076 55.4215 2.88859 57.6182C6.2915 68.5471 10.6644 79.5141 21.9194 84.2479C32.7504 88.8053 44.698 86.7909 55.7009 84.0008C68.3829 80.7825 80.8432 76.3632 92.9332 71.385C98.8282 68.9919 104.599 66.2305 109.89 62.7193C114.363 59.7568 118.998 56.0563 121.115 50.9701C123.559 45.091 122.394 38.512 121.531 32.4239C120.515 25.2027 119.143 18.0098 116.489 11.203C115.746 9.12936 112.375 10.2179 113.2 12.4005Z" fill="black" fill-opacity="0.1"/>
<path d="M16.1786 36.2902C16.7384 36.193 17.3392 36.082 17.899 35.9848C18.3769 35.9152 18.7864 35.7774 19.1542 35.3803C19.4538 35.0517 19.6437 34.5322 19.5879 34.0954C19.5184 33.6176 19.3669 33.1674 18.9836 32.8408C18.6687 32.5822 18.1625 32.2969 17.6983 32.4075C17.1385 32.5047 16.5378 32.6156 15.9779 32.7128C15.5 32.7825 15.0906 32.9202 14.7228 33.3173C14.4231 33.6459 14.2332 34.1654 14.289 34.6022C14.3586 35.08 14.51 35.5302 14.8934 35.8569C15.263 36.1426 15.7554 36.387 16.1786 36.2902Z" fill="black" fill-opacity="0.1"/>
<path d="M14.8311 32.9619C14.7666 34.396 15.2485 35.8285 16.0438 36.9734C16.5786 37.7502 17.7131 38.0064 18.5313 37.4579C19.3085 36.923 19.5651 35.7888 19.0165 34.971C18.4955 34.2351 18.3846 33.6345 18.4096 32.7605C18.448 31.7908 17.4215 31.0426 16.52 31.0725C15.441 31.1166 14.8695 31.9922 14.8311 32.9619Z" fill="black" fill-opacity="0.1"/>
<path d="M27.3934 56.8925C27.7761 56.946 28.1177 57.0133 28.4866 57.0259C28.9649 57.0928 29.4428 57.0232 29.8519 56.7489C30.2201 56.4884 30.5331 56.0641 30.6139 55.6269C30.681 55.1487 30.6524 54.6572 30.3371 54.2621C30.0766 53.8941 29.6933 53.5675 29.215 53.5005C28.8324 53.447 28.4907 53.3797 28.1218 53.3671C27.6435 53.3002 27.1656 53.3699 26.7565 53.6442C26.3883 53.9047 26.0753 54.3289 25.9945 54.7661C25.9274 55.2443 25.956 55.7358 26.2713 56.131C26.5318 56.4989 26.9289 56.8665 27.3934 56.8925Z" fill="black" fill-opacity="0.1"/>
<path d="M44.5514 57.0891C44.1579 58.0871 44.0379 59.221 44.4778 60.2576C44.8488 61.0895 45.7931 61.7287 46.721 61.3709C47.5671 61.0408 48.2338 60.0419 47.8353 59.1281C47.8077 59.0463 47.7661 58.7869 47.6976 58.7188C47.7251 58.8007 47.7527 58.8826 47.7392 58.9782C47.7117 58.8963 47.7389 58.8416 47.7114 58.7598C47.711 58.6232 47.711 58.6232 47.7114 58.7598C47.6708 58.9101 47.6708 58.9101 47.7114 58.7598C47.7519 58.6094 47.8875 58.1994 47.7248 58.6641C47.8875 58.1994 47.9683 57.7621 47.8168 57.3119C47.6791 56.9026 47.3501 56.4666 46.9262 56.2902C46.1193 55.9238 44.9177 56.1458 44.5514 57.0891Z" fill="black" fill-opacity="0.1"/>
<path d="M73.3493 52.5956C73.9388 53.3996 74.6508 54.0258 75.5128 54.5559C76.3201 55.0589 77.5209 54.5638 77.8876 53.757C78.2949 52.7999 77.9373 51.8723 77.0891 51.3831C76.9249 51.3017 76.9659 51.2879 77.1576 51.4512C77.1029 51.4241 77.0344 51.356 76.9797 51.3288C76.8565 51.2336 76.788 51.1655 76.6648 51.0703C76.6101 51.0431 76.5963 51.0022 76.5278 50.9341C76.3909 50.7979 76.4046 50.8389 76.5963 51.0022C76.5006 50.9888 76.3496 50.6751 76.2948 50.648C75.76 49.8711 74.6118 49.574 73.8074 50.1635C73.0711 50.6845 72.8008 51.7778 73.3493 52.5956Z" fill="black" fill-opacity="0.1"/>
<path d="M96.2714 37.0028C98.5516 36.6003 100.173 35.189 100.905 33.0292C101.231 32.0997 100.395 31.1052 99.5202 30.9438C98.4952 30.7419 97.7183 31.4133 97.4339 32.3291C97.3523 32.4932 97.0802 32.9037 96.8621 33.0681C96.7939 33.1366 96.4939 33.3287 96.3301 33.3838C96.603 33.2464 95.7841 33.5219 96.0435 33.4802C95.1014 33.6604 94.3246 34.3318 94.3546 35.3696C94.4524 36.2023 95.3293 37.1831 96.2714 37.0028Z" fill="black" fill-opacity="0.1"/>
<path d="M94.1567 17.303C93.4582 16.5813 92.4733 16.0925 91.4758 15.9724C90.9975 15.9055 90.5605 15.9614 90.1105 16.2494C89.7424 16.51 89.4293 16.9342 89.3485 17.3714C89.1869 18.2459 89.7499 19.3777 90.7337 19.4569C90.884 19.4974 91.0616 19.4832 91.2257 19.5647C91.5674 19.632 91.0754 19.5242 91.0754 19.5242C91.0754 19.5242 91.2942 19.6328 91.3351 19.619C91.3899 19.6462 91.4583 19.7142 91.554 19.7276C91.7319 19.85 91.1982 19.4828 91.4308 19.6324C91.554 19.7276 91.691 19.8638 91.8279 20C92.1156 20.3132 92.7033 20.4345 93.1132 20.4333C93.5639 20.4183 94.0687 20.1574 94.3683 19.8288C94.9535 18.9941 94.8553 18.0248 94.1567 17.303Z" fill="black" fill-opacity="0.1"/>
<path d="M79.4127 15.611C79.141 16.158 78.8964 16.6503 78.6246 17.1973C78.217 18.0179 78.5615 19.1777 79.4232 19.5712C80.2848 19.9648 81.3631 19.6476 81.798 18.7724C82.0697 18.2253 82.3143 17.733 82.5861 17.186C82.9937 16.3654 82.6492 15.2057 81.7875 14.8121C80.9259 14.4185 79.8338 14.6948 79.4127 15.611Z" fill="black" fill-opacity="0.1"/>
<path d="M55.4956 16.4579C54.514 17.1982 53.436 17.6519 52.1794 17.7102C49.8847 17.7987 50.0854 21.376 52.3801 21.2875C54.2241 21.2139 56.0119 20.567 57.4569 19.443C58.2204 18.8673 58.5045 17.8149 57.9421 16.9562C57.462 16.2065 56.2591 15.8822 55.4956 16.4579Z" fill="black" fill-opacity="0.1"/>
<path d="M28.6259 26.9546C28.86 27.6504 29.0941 28.3462 29.3419 29.0829C29.6448 29.9834 30.6981 30.5403 31.5851 30.1963C32.4721 29.8524 33.016 28.8949 32.6994 27.9535C32.4653 27.2577 32.2313 26.5619 31.9834 25.8252C31.6805 24.9248 30.6272 24.3679 29.7402 24.7118C28.8532 25.0558 28.3093 26.0133 28.6259 26.9546Z" fill="black" fill-opacity="0.1"/>
</svg>
