<svg width="170" height="168" viewBox="0 0 170 168" fill="none" xmlns="http://www.w3.org/2000/svg">
<g opacity="0.1">
<path d="M169.833 80.014C167.781 64.9072 163.879 50.1019 154.931 37.5073C150.558 31.3775 145.378 25.6162 139.726 20.5918C136.867 18.0461 133.503 16.0028 130.206 14.0935C126.674 12.0167 123.041 9.93999 119.274 8.33217C110.595 4.5806 100.941 2.93929 91.5554 2.57083C82.372 2.20237 73.0876 3.24075 64.207 5.58548C46.8157 10.1745 31.0054 19.9553 19.5682 33.8227C8.46741 47.2212 1.43688 63.9023 0.192246 81.2868C-1.05239 98.6713 3.7916 116.424 13.4123 130.962C23.6049 146.336 38.9106 157.189 56.47 162.816C74.2314 168.477 93.7419 169.013 111.806 164.324C128.289 160.036 144.57 151.394 154.527 137.292C163.845 124.061 168.42 107.648 169.698 91.6706C170.001 87.9191 170.068 84.134 169.934 80.3824C169.867 78.6071 167.108 78.6071 167.142 80.3824C167.714 95.8576 164.72 111.869 157.992 125.87C154.729 132.603 150.524 138.967 145.041 144.126C138.885 149.92 131.115 154.308 123.344 157.591C90.6135 171.291 47.7576 165.664 23.1676 138.967C11.764 126.574 4.66621 110.294 3.11883 93.5799C1.57144 76.6308 6.01177 59.5478 14.9261 45.0775C23.9749 30.3056 37.4977 18.716 53.4762 12.0837C69.9929 5.21703 88.6624 3.40823 106.155 7.12631C110.931 8.13119 115.641 9.53803 120.014 11.6818C123.378 13.3231 126.641 15.1989 129.836 17.1082C133.032 19.0174 136.16 21.0272 138.852 23.6064C141.576 26.2191 144.267 28.9323 146.757 31.7795C151.231 36.8374 155.166 42.3643 158.228 48.4271C161.39 54.7579 163.509 61.5241 164.989 68.4243C165.864 72.5108 166.536 76.6308 167.108 80.7509C167.411 82.4927 170.068 81.7558 169.833 80.014Z" fill="black"/>
<path d="M161.524 80.4494C159.674 66.8165 156.142 53.4515 148.035 42.0963C144.066 36.5359 139.323 31.21 134.176 26.7216C131.518 24.4103 128.424 22.568 125.396 20.7927C122.2 18.9505 118.937 17.0747 115.54 15.6343C100.167 9.10258 81.6319 9.10258 65.6871 13.4571C49.9441 17.7111 35.7149 26.7216 25.455 39.3831C15.6325 51.5757 9.40929 66.6155 8.43377 82.2582C7.45824 97.9009 11.9322 113.845 20.6783 126.842C39.617 155.045 77.2589 164.86 109.249 156.519C124.118 152.634 138.751 144.829 147.699 132.1C156.075 120.176 160.212 105.337 161.356 90.9672C161.625 87.5841 161.692 84.201 161.558 80.8179C161.491 79.0426 158.732 79.0426 158.766 80.8179C159.27 94.7188 156.613 109.122 150.558 121.683C147.631 127.746 143.864 133.44 138.953 138.063C133.469 143.221 126.573 147.14 119.644 150.088C90.3107 162.515 51.7943 157.558 29.5926 133.708C19.2655 122.621 12.7732 107.95 11.3603 92.91C9.94751 77.8032 13.7823 62.5625 21.6202 49.5994C29.6599 36.3015 41.7362 25.8172 56.0664 19.7209C70.8675 13.3901 87.6869 11.6818 103.464 14.9309C107.769 15.8353 112.075 17.0412 116.078 18.9505C119.173 20.4243 122.167 22.1326 125.093 23.8744C128.087 25.6497 130.98 27.5255 133.503 29.9037C135.891 32.2149 138.246 34.5597 140.433 37.0719C144.503 41.6608 148.102 46.6853 150.861 52.1786C153.754 57.94 155.637 64.1033 156.983 70.4006C157.757 73.9846 158.329 77.6022 158.833 81.2198C159.069 82.9616 161.76 82.1912 161.524 80.4494Z" fill="black"/>
<path d="M87.0141 1.33147C87.7206 44.4075 87.8551 87.4836 87.4514 130.526C87.3505 142.585 87.1823 154.61 86.9805 166.669C86.9469 168.444 89.7389 168.444 89.7725 166.669C90.4789 123.592 90.6808 80.5164 90.2771 37.4738C90.1425 25.4152 90.008 13.3901 89.8062 1.33147C89.7725 -0.443824 87.0141 -0.443824 87.0141 1.33147Z" fill="black"/>
<path d="M152.543 33.9567C134.041 47.9246 116.078 62.5624 98.1822 77.2673C81.6656 90.8667 64.8798 104.299 46.6139 115.52C36.3204 121.817 25.5896 127.411 14.3542 131.799C12.7059 132.435 13.4123 135.115 15.0943 134.479C35.0421 126.674 53.308 115.352 70.4638 102.657C87.9224 89.7613 104.338 75.5925 121.191 61.9595C131.956 53.2505 142.888 44.709 153.955 36.335C155.335 35.2966 153.955 32.8849 152.543 33.9567Z" fill="black"/>
<path d="M12.9414 42.7997C31.2409 55.6957 50.4823 67.2854 70.4638 77.4347C80.6227 82.5931 90.9835 87.2491 101.445 91.7376C106.693 93.9818 111.941 96.3266 116.919 99.1403C121.427 101.686 125.732 104.567 129.971 107.514C139.356 114.013 148.741 120.745 159.674 124.463C161.356 125.033 162.096 122.387 160.414 121.784C150.726 118.501 142.249 112.673 133.94 106.878C129.702 103.93 125.43 100.949 120.989 98.3029C116.213 95.4222 111.167 93.0105 106.087 90.7327C95.8275 86.2107 85.534 81.7892 75.476 76.8318C65.4516 71.8409 55.5954 66.515 45.9411 60.8207C35.143 54.4564 24.6141 47.6232 14.3878 40.4215C12.8741 39.3831 11.4949 41.7613 12.9414 42.7997Z" fill="black"/>
<path d="M100.503 49.432C101.243 48.2261 102.051 47.0537 102.723 45.8144C103.194 44.977 103.531 44.2066 103.094 43.2687C102.791 42.5987 102.118 42.1298 101.445 41.8953C100.537 41.6273 99.225 42.1633 98.7541 41.2254C98.2159 40.1535 99.4269 38.8137 100.234 38.3112C101.311 37.6413 102.69 37.4068 103.934 37.3733C106.087 37.3063 108.207 37.9093 110.057 39.0146C111.772 40.053 113.723 41.7948 114.329 43.8046C114.901 45.7809 113.387 45.4794 112.277 44.9435C111.47 44.5415 110.696 44.0726 109.788 43.9386C107.904 43.6036 106.457 44.7425 105.448 46.1828C104.843 47.0537 104.439 47.9916 103.867 48.8625C103.464 49.4654 102.993 50.1354 102.253 50.3698C101.546 50.6043 100.402 50.4033 101.075 49.5659C102.152 48.1256 99.7296 46.7523 98.6868 48.1591C97.5095 49.6999 98.1822 51.9777 99.8642 52.8486C102.051 54.0209 104.405 52.7146 105.751 50.9728C106.457 50.0349 106.928 48.9965 107.567 47.9916C108.005 47.2882 108.543 46.5513 109.451 46.6518C109.989 46.7188 110.595 47.1542 111.066 47.4222C112.815 48.3266 114.867 48.762 116.28 47.0872C119.577 43.2352 114.026 37.9763 110.797 36.3015C106.895 34.2582 100.672 33.5548 97.3749 37.1724C95.8612 38.8137 95.2556 41.5604 96.8367 43.3691C97.5095 44.1396 98.9223 44.91 99.9987 44.575C99.9987 44.575 100.672 44.24 100.537 44.2066C100.47 44.1731 99.7296 45.5129 99.6623 45.6134C99.1578 46.4508 98.6195 47.2882 98.115 48.1256C97.1731 49.5659 99.5614 50.9393 100.503 49.432Z" fill="black"/>
<path d="M102.858 121.851C103.194 123.09 103.665 124.497 103.329 125.77C102.892 127.311 101.782 127.21 100.503 127.545C98.6532 128.014 97.644 129.588 97.8122 131.464C98.2831 136.221 104.675 136.12 108.139 135.417C111.503 134.713 118.063 132.067 117.76 127.779C117.592 125.334 115.54 124.999 113.555 124.53C112.411 124.262 111.503 123.76 111.2 122.554C110.898 121.449 110.83 120.377 110.259 119.338C109.216 117.463 107.097 116.022 104.876 116.424C102.118 116.927 101.883 119.64 102.757 121.817C103.43 123.458 106.121 122.722 105.448 121.08C105.246 120.611 104.675 119.506 105.381 119.104C105.818 118.869 106.727 119.439 107.029 119.673C107.803 120.31 108.139 121.281 108.341 122.219C108.678 123.927 109.115 125.267 110.629 126.272C111.268 126.674 112.041 126.976 112.781 127.177C113.992 127.445 115.641 127.578 114.363 129.153C113.118 130.694 110.797 131.732 108.947 132.335C107.029 132.938 104.742 133.306 102.757 132.904C101.883 132.737 100.672 132.335 100.571 131.297C100.402 130.057 101.58 130.258 102.421 130.057C106.693 129.153 106.424 124.396 105.516 121.114C105.045 119.405 102.387 120.142 102.858 121.851Z" fill="black"/>
<path d="M43.3509 89.3594C41.7026 87.7181 38.0696 84.8039 35.6476 86.5122C34.6384 87.2491 34.4702 88.4215 34.3693 89.5939C34.302 90.2303 34.4366 90.9002 33.7302 90.3978C33.0238 89.8953 33.0574 88.455 33.192 87.7516C33.5284 85.9428 35.143 84.9379 36.6904 84.2345C37.5314 83.8325 38.4396 83.4976 39.3815 83.3636C39.8188 83.2966 40.7943 83.598 41.1307 83.4641C41.7026 83.2296 41.669 82.7606 40.9962 82.8611C39.8188 83.0286 39.247 84.4354 39.6506 85.4738C39.9197 86.1772 40.4916 86.5792 41.0971 86.9142C41.3998 87.0816 41.7699 87.2156 42.0726 87.4166C42.409 87.5506 42.6781 87.7851 42.88 88.0865C43.1154 88.321 43.2836 88.6225 43.3173 88.9909C41.9717 87.8521 39.987 89.7948 41.3662 90.9337C42.9472 92.2735 45.3356 91.6371 45.8738 89.5269C46.1429 88.4885 45.8402 87.4166 45.2347 86.5457C44.8983 86.0433 44.4273 85.6748 43.9564 85.3063C43.6536 85.1054 43.3509 84.9044 43.0145 84.7369C42.5436 84.3015 42.2745 84.4354 42.1735 85.1724C41.8372 85.3063 41.5344 85.4403 41.198 85.5743C42.7454 85.4738 44.2928 84.9714 44.0237 83.0286C43.7882 81.3203 41.9381 80.5499 40.357 80.4829C36.8586 80.3489 32.1155 82.6936 30.8036 86.0433C29.7608 88.723 30.9382 94.5178 34.9748 93.3454C36.5558 92.8765 36.9932 91.3691 37.1277 89.9288C37.2286 88.8904 37.195 88.589 38.3051 89.0579C39.5161 89.5604 40.4916 90.3308 41.4335 91.2687C42.6445 92.6085 44.6292 90.6322 43.3509 89.3594Z" fill="black"/>
<path d="M127.684 84.6364C130.61 84.7369 135.925 85.9093 137.371 82.3587C137.674 81.5883 137.742 80.7844 137.708 79.9805C137.708 79.478 137.472 78.3391 137.809 77.9037C138.852 76.4634 140.264 78.9086 140.433 79.679C140.702 80.8514 140.399 82.1242 140.13 83.2631C139.625 85.2729 139.255 87.919 137.876 89.5269C137.641 89.7948 137.271 90.2303 136.901 90.3308C136.093 90.5318 136.228 90.1968 136.228 89.5269C136.194 88.7229 136.261 88.0865 135.79 87.3496C134.983 86.0433 133.402 85.4068 131.922 85.3733C130.879 85.3398 129.904 85.6078 128.895 85.7083C128.39 85.7418 127.784 85.7753 127.28 85.6078C127.112 85.5408 126.943 85.4403 126.742 85.3733C126.069 84.9379 126.069 84.6364 126.708 84.4019C128.188 85.4068 129.567 83.0286 128.121 82.0237C126.573 80.9518 124.387 81.6553 123.714 83.3636C122.94 85.2729 124.185 87.2826 125.968 88.053C126.876 88.455 127.919 88.5555 128.928 88.4885C130.105 88.388 131.619 87.8186 132.729 88.2875C134.109 88.8569 133.066 90.3308 133.436 91.4696C133.705 92.307 134.411 92.91 135.252 93.1779C137.102 93.7474 138.986 92.6755 140.164 91.2687C141.812 89.2924 142.316 86.4787 142.922 84.067C143.494 81.8227 143.797 79.411 142.552 77.3008C141.509 75.5255 139.323 74.2861 137.271 75.023C135.084 75.8269 135.05 78.0712 135.05 80.014C135.05 81.7223 134.277 82.0907 132.662 82.0907C131.047 82.0907 129.399 81.9567 127.784 81.9232C125.901 81.7893 125.901 84.5694 127.684 84.6364Z" fill="black"/>
<path d="M72.213 33.8227C69.892 32.4159 66.5281 33.0188 65.6535 35.8325C64.7788 38.6797 67.0999 40.6895 69.7574 40.9574C70.8338 41.0579 72.2467 41.0244 72.6167 39.7516C72.9531 38.5122 71.6412 37.6078 70.5984 37.3398C67.5372 36.5359 65.1489 39.2826 65.788 42.1968C66.158 43.9386 68.8492 43.2017 68.4791 41.4599C68.3446 40.8904 68.5128 40.388 69.0173 40.12C69.2192 39.986 69.421 39.9191 69.6565 39.9525C70.1274 40.2205 70.2283 40.1535 69.9592 39.7516C70.0938 39.3161 70.1947 38.8472 70.3293 38.4117C70.5984 38.0768 70.5647 38.3447 70.1947 38.2107C69.9592 38.1437 69.6565 38.1438 69.421 38.0768C68.8828 37.9093 68.3446 37.6413 68.3109 37.0384C68.1764 35.5645 70.0602 35.665 70.9011 36.1675C72.3476 37.1389 73.7268 34.7271 72.213 33.8227Z" fill="black"/>
<path d="M32.1828 69.6971C32.8892 69.5297 32.5865 71.3384 32.1828 71.5729C31.9137 71.7404 31.3755 71.4724 31.14 71.3719C31.0054 71.305 30.9045 71.2715 30.77 71.2045C30.5681 70.9365 30.4336 71.0035 30.3663 71.4389C29.7272 71.2715 29.088 71.104 28.4825 70.9365C28.7853 71.3384 29.1553 71.8074 29.1553 72.3433C29.1553 72.4438 28.8862 73.3482 28.6507 73.0133C27.6416 71.5729 25.2196 72.9463 26.2624 74.4201C27.3724 75.9944 29.559 76.3294 30.9718 74.8555C32.4183 73.3482 32.0482 71.104 30.9045 69.5631C30.5009 69.0272 29.6599 68.5583 29.0207 69.0607C25.6232 71.6734 30.7363 75.7599 33.5956 74.0516C36.724 72.2094 35.614 66.113 31.51 67.0509C29.6935 67.4194 30.4336 70.0991 32.1828 69.6971Z" fill="black"/>
<path d="M53.7453 81.8562C54.149 84.8374 55.2254 90.1968 51.8615 91.8046C50.4151 92.508 51.4579 94.6853 52.938 94.3168C55.6291 93.6804 58.7575 92.307 59.363 89.3594C59.9685 86.4787 58.6566 83.1626 56.941 80.8848C55.8982 79.478 53.4762 80.8514 54.5526 82.2917C55.7636 83.8995 56.7055 85.8758 56.7055 87.919C56.7055 90.3308 54.1826 91.1682 52.1979 91.6371C52.5679 92.4745 52.9043 93.3119 53.2744 94.1493C57.8156 91.9721 57.0756 85.9093 56.5373 81.8227C56.2682 80.1144 53.5098 80.0809 53.7453 81.8562Z" fill="black"/>
<path d="M76.317 114.415C72.684 112.974 68.4791 115.218 67.8736 119.104C67.6045 120.812 68.1764 122.722 69.892 123.458C71.3048 124.061 73.1886 123.525 73.6595 121.951C74.2314 120.142 72.3476 119.037 70.9011 118.635C69.1519 118.133 67.4363 118.669 66.3262 120.109C65.418 121.315 64.6779 123.224 65.3843 124.698C66.1917 126.44 68.21 126.674 69.892 126.54C71.6412 126.373 71.6748 123.626 69.892 123.76C69.5556 123.793 68.58 123.994 68.2773 123.76C67.7054 123.324 68.0082 122.688 68.2773 122.219C68.4791 121.817 68.8155 121.348 69.2865 121.214C69.8583 121.181 70.3965 121.281 70.9011 121.583C70.8675 121.181 70.8002 120.779 70.6993 120.377C70.4638 117.563 73.1549 116.123 75.6442 117.094C77.2589 117.731 77.9653 115.051 76.317 114.415Z" fill="black"/>
<path d="M66.9317 140.24C68.5464 140.642 70.1947 140.776 71.843 140.609C72.5831 140.508 73.2222 140.039 73.2222 139.235C73.2222 138.565 72.5831 137.761 71.843 137.862C70.4302 138.029 69.051 137.962 67.6718 137.594C65.9226 137.125 65.1825 139.805 66.9317 140.24Z" fill="black"/>
<path d="M68.9164 138.264C68.7819 139.57 68.6137 140.876 68.4791 142.183C68.3782 142.92 69.1855 143.556 69.8583 143.556C70.6656 143.556 71.1702 142.92 71.2375 142.183C71.3721 140.876 71.5403 139.57 71.6748 138.264C71.7757 137.527 70.9684 136.89 70.2956 136.89C69.4883 136.857 69.0173 137.493 68.9164 138.264Z" fill="black"/>
<path d="M75.6106 51.0733C72.8522 51.1738 70.1947 52.2791 68.3446 54.3559C66.7635 56.1312 65.5189 59.1123 67.1672 61.2561C67.8063 62.127 68.9164 62.6629 69.9929 62.2275C71.3048 61.7251 71.2375 60.5192 71.5739 59.3803C72.2803 56.9351 75.0051 55.2938 76.4179 53.217C77.3934 51.7432 75.0051 50.3364 74.0295 51.8102C72.4485 54.1884 69.7238 55.7627 68.9164 58.6434C68.8828 58.7439 68.6473 59.6148 68.7146 59.6483C68.9501 59.7823 69.2192 58.4089 69.2865 58.3084C69.5892 57.3706 70.0265 56.6336 70.6993 55.9302C72.0112 54.5904 73.7941 53.8869 75.6778 53.82C77.3598 53.7865 77.3934 51.0063 75.6106 51.0733Z" fill="black"/>
<path d="M102.925 21.7306C101.815 22.4675 100.739 23.238 99.6287 23.9749C99.0232 24.4103 98.7205 25.1807 99.1241 25.8507C99.4941 26.4536 100.402 26.7551 101.008 26.3531C102.118 25.6162 103.194 24.8458 104.305 24.1089C104.91 23.6734 105.213 22.903 104.809 22.2331C104.439 21.5966 103.531 21.2952 102.925 21.7306Z" fill="black"/>
<path d="M99.0232 23.4389C99.6623 24.5108 100.503 25.3817 101.546 26.0516C102.152 26.4536 103.094 26.1856 103.43 25.5492C103.8 24.8458 103.564 24.0754 102.925 23.6734C102.824 23.6064 102.723 23.5394 102.623 23.4724C102.421 23.3384 102.757 23.5729 102.555 23.4389C102.387 23.2715 102.219 23.1375 102.051 22.97C101.983 22.903 101.916 22.836 101.849 22.769C101.815 22.7355 101.647 22.5345 101.748 22.6685C101.613 22.4675 101.479 22.2666 101.378 22.0656C101.008 21.4292 100.1 21.1612 99.4941 21.5632C98.8886 21.9316 98.6532 22.769 99.0232 23.4389Z" fill="black"/>
<path d="M126.977 35.0621C124.286 36.6699 124.051 41.9623 126.876 43.6371C128.356 44.508 130.341 44.0056 130.946 42.3308C131.283 41.3594 131.148 40.254 131.148 39.2491C131.148 38.0098 131.148 36.8039 131.148 35.5645C131.148 34.9951 130.711 34.3252 130.139 34.2247C128.693 33.9567 127.583 34.4257 126.708 35.598C125.665 37.0384 128.054 38.4117 129.096 37.0049C129.197 36.9714 129.298 36.9379 129.365 36.9044C129.029 36.4689 128.693 36 128.356 35.5645C128.356 36.134 128.356 41.2589 128.255 41.2589C127.751 41.2254 127.65 39.4836 127.684 39.1151C127.684 38.4787 127.784 37.8088 128.356 37.4403C129.904 36.5359 128.491 34.1242 126.977 35.0621Z" fill="black"/>
<path d="M102.858 61.2561C101.815 61.4236 100.84 61.8255 99.9651 62.395C99.326 62.7969 99.0905 63.6008 99.4605 64.2708C99.8305 64.8737 100.739 65.1752 101.344 64.7732C102.051 64.3043 102.723 64.0698 103.564 63.9358C104.305 63.8353 104.708 62.8974 104.54 62.2275C104.338 61.4571 103.598 61.1556 102.858 61.2561Z" fill="black"/>
<path d="M99.696 61.792C100.1 62.8304 100.503 63.8688 100.941 64.9072C101.21 65.6106 101.883 66.0796 102.656 65.8786C103.329 65.7111 103.901 64.8737 103.632 64.1703C103.228 63.1319 102.824 62.0935 102.387 61.0551C102.118 60.3517 101.445 59.8828 100.672 60.0837C99.9987 60.2847 99.4269 61.0886 99.696 61.792Z" fill="black"/>
<path d="M113.925 25.2142C112.109 26.0516 110.225 27.3915 110.292 29.6357C110.359 31.5785 112.479 33.2868 114.262 31.9805C116.044 30.6741 114.867 28.4299 113.051 27.9609C110.898 27.425 108.577 28.4634 106.928 29.7697C105.549 30.8751 107.5 32.8179 108.879 31.7125C109.418 31.277 110.023 30.9756 110.662 30.7746C110.931 30.7076 111.234 30.6406 111.503 30.6071C111.671 30.6071 112.378 30.6741 112.445 30.6406C113.051 30.2722 113.017 29.0663 113.555 28.5304C114.026 28.0949 114.699 27.8269 115.271 27.559C116.953 26.8555 115.54 24.4773 113.925 25.2142Z" fill="black"/>
<path d="M140.332 58.8444C140.534 59.7153 140.702 60.6197 140.634 61.5241C140.601 61.725 140.601 62.194 140.466 62.3615C140.197 62.462 139.894 62.5959 139.625 62.6964C139.188 62.2945 138.852 62.3615 138.616 62.8974C137.977 63.4669 137.977 64.5052 137.54 65.2756C137.203 65.8451 136.127 67.3524 135.521 67.5869C137.17 66.9505 136.463 64.3043 134.781 64.9072C131.182 66.247 133.907 70.9365 137.203 69.3957C139.659 68.2568 142.787 62.8639 139.794 60.7537C138.549 59.8828 136.699 60.2847 136.228 61.8255C135.757 63.4669 137.136 64.7732 138.549 65.2421C143.292 66.8165 143.696 61.1556 142.922 58.074C142.586 56.3992 139.928 57.1026 140.332 58.8444Z" fill="black"/>
<path d="M151.163 92.843C149.28 92.7425 147.463 93.7139 146.589 95.3887C145.916 96.695 145.949 98.6378 147.362 99.4417C148.674 100.212 150.558 99.4417 150.625 97.8339C150.692 95.9916 148.708 95.1207 147.16 95.6902C144.066 96.8625 141.408 101.585 144.368 104.232C145.478 105.237 147.53 105.404 148.439 103.997C149.313 102.624 148.17 100.748 146.589 100.849C144.806 100.949 144.806 103.696 146.589 103.629C146.521 103.629 145.882 101.652 145.882 101.351C145.882 100.849 145.949 100.547 146.219 100.112C146.353 99.8772 148.035 98.2359 148.069 98.3699C148.035 98.0014 147.968 97.6664 147.934 97.298C147.8 98.0349 149.751 95.9581 149.717 95.9916C150.154 95.6902 150.659 95.6232 151.197 95.6567C152.946 95.6902 152.946 92.9435 151.163 92.843Z" fill="black"/>
<path d="M112.109 82.8276C113.051 83.6315 113.757 84.5694 114.262 85.7083C114.564 86.3782 115.574 86.5457 116.145 86.2107C116.852 85.8088 116.953 85.0049 116.65 84.335C116.078 83.0286 115.203 81.8227 114.093 80.9184C113.522 80.4494 112.681 80.3489 112.142 80.9184C111.604 81.3873 111.503 82.3587 112.109 82.8276Z" fill="black"/>
<path d="M115.103 81.3873C113.723 82.0237 112.479 82.8946 111.335 83.866C110.763 84.3685 110.83 85.3064 111.335 85.8088C111.907 86.3782 112.748 86.3112 113.286 85.8088C114.262 84.9714 115.304 84.3015 116.482 83.7655C117.155 83.4306 117.323 82.4927 116.986 81.8897C116.616 81.2198 115.809 81.0858 115.103 81.3873Z" fill="black"/>
<path d="M125.161 73.0468C124.69 74.3196 124.051 75.5255 123.277 76.6643C122.772 77.4013 123.277 78.4731 124.118 78.7076C125.732 79.1431 127.65 79.0426 128.659 77.5017C129.096 76.8318 129.265 76.0279 129.029 75.291C128.928 74.889 128.693 74.5541 128.424 74.2191C128.289 74.0181 128.054 73.8507 127.986 73.6497C127.583 71.9079 124.891 72.6448 125.295 74.3866C125.396 74.8221 125.598 75.1905 125.901 75.559C126.002 75.6595 126.271 75.8939 126.304 76.0279C126.372 76.1619 126.338 75.9609 126.304 75.9944C126.035 76.4634 125.194 76.1619 124.791 76.0614C125.06 76.7313 125.329 77.4013 125.632 78.1047C126.54 76.7648 127.246 75.3245 127.784 73.8172C128.054 73.1137 127.482 72.3098 126.809 72.1089C126.069 71.8744 125.396 72.3433 125.161 73.0468Z" fill="black"/>
<path d="M133.2 123.492C131.148 123.525 128.962 124.128 127.381 125.502C126.17 126.54 125.228 128.449 126.203 129.957C127.078 131.33 129.029 131.163 129.904 129.89C131.014 128.349 129.836 126.339 128.592 125.301C126.372 123.458 120.586 123.057 120.115 126.909C119.913 128.617 121.629 130.091 123.243 129.32C125.329 128.315 124.252 126.172 124.151 124.53C124.051 122.755 121.258 122.755 121.359 124.53C121.393 125.133 121.427 125.904 121.729 126.44C121.763 126.607 121.797 126.775 121.797 126.942C122.369 127.344 122.84 127.311 123.243 126.909C124.32 126.607 125.262 126.473 126.304 127.076C126.54 127.177 126.742 127.344 126.91 127.512C127.179 127.746 127.381 128.047 127.515 128.382C128.39 128.784 128.861 127.779 129.399 127.378C130.442 126.574 131.855 126.272 133.133 126.239C134.983 126.205 134.983 123.458 133.2 123.492Z" fill="black"/>
<path d="M111.974 110.562C113.084 111.366 114.194 112.137 115.304 112.941C115.91 113.376 116.852 113.041 117.188 112.438C117.592 111.735 117.289 110.998 116.684 110.562C115.574 109.759 114.463 108.988 113.353 108.184C112.748 107.749 111.806 108.084 111.47 108.687C111.066 109.357 111.369 110.127 111.974 110.562Z" fill="black"/>
<path d="M115.069 107.682C113.454 108.754 112.075 110.06 110.931 111.634C110.494 112.237 110.83 113.175 111.436 113.51C112.142 113.912 112.882 113.611 113.32 113.008C114.194 111.835 115.271 110.83 116.482 110.027C117.962 109.089 116.583 106.677 115.069 107.682Z" fill="black"/>
<path d="M98.3841 98.9393C98.7205 100.715 98.5523 102.557 97.8122 104.198C97.274 105.404 96.1639 106.275 96.4666 107.648C96.5676 108.117 97.0049 108.486 97.4422 108.62C98.485 108.921 99.696 108.285 100.638 107.883C101.849 107.347 102.993 106.543 103.665 105.371C105.179 102.724 103.43 100.179 101.58 98.2359C100.335 96.963 98.3841 98.9058 99.6287 100.179C100.604 101.217 102.084 102.657 101.176 104.165C100.806 104.768 100.1 105.136 99.4941 105.404C99.1241 105.572 98.7541 105.706 98.3504 105.806C97.7449 105.94 97.6777 106.007 98.1822 105.94C98.5186 106.275 98.8214 106.576 99.1578 106.911C99.1241 106.811 99.1241 106.744 99.0905 106.643C99.0568 107.012 98.9896 107.347 98.9559 107.715C99.7633 106.208 100.672 104.935 101.075 103.227C101.445 101.552 101.412 99.8772 101.109 98.2024C100.739 96.4606 98.0813 97.1975 98.3841 98.9393Z" fill="black"/>
<path d="M105.886 147.911C105.549 145.633 104.574 143.623 103.161 141.781C102.959 142.551 102.757 143.322 102.555 144.092C104.574 143.69 106.592 143.69 108.61 143.958C108.173 143.389 107.702 142.786 107.265 142.216C106.424 144.327 105.549 146.403 104.708 148.514C104.035 150.155 106.726 150.892 107.399 149.251C108.24 147.14 109.115 145.063 109.956 142.953C110.326 142.015 109.384 141.312 108.61 141.211C106.323 140.91 104.069 141.01 101.815 141.446C100.672 141.68 100.638 143.02 101.21 143.757C102.32 145.197 102.959 146.872 103.228 148.648C103.464 150.389 106.155 149.652 105.886 147.911Z" fill="black"/>
<path d="M56.9746 127.311C55.7636 129.521 54.2499 131.431 52.3661 133.105C51.6261 133.742 51.9624 135.249 52.9716 135.417C54.3844 135.618 55.7973 135.785 57.2437 135.752C58.3875 135.718 59.9012 135.819 60.6413 134.747C61.314 133.809 60.8767 132.402 60.6076 131.397C60.2376 130.057 59.6657 128.784 58.993 127.578C58.1184 126.038 55.6964 127.411 56.6046 128.985C57.0083 129.655 57.3447 130.359 57.6138 131.096C57.782 131.531 57.8829 131.933 58.0174 132.368C58.0511 132.502 58.0847 132.67 58.1184 132.804C58.0847 133.273 58.1856 133.373 58.4547 133.072C59.2621 132.938 57.7147 132.971 57.7483 132.971C57.3447 133.005 56.941 133.005 56.5373 132.971C55.5954 132.971 54.6872 132.871 53.7453 132.737C53.9471 133.507 54.149 134.278 54.3508 135.048C56.4028 133.239 58.0847 131.096 59.3966 128.717C60.2376 127.143 57.8492 125.736 56.9746 127.311Z" fill="black"/>
<path d="M75.6106 130.359C76.5861 130.694 77.5953 131.029 78.5708 131.33C79.2772 131.565 80.0845 131.062 80.2864 130.359C80.4882 129.622 80.0173 128.885 79.3108 128.65C78.3353 128.315 77.3261 127.98 76.3506 127.679C75.6442 127.445 74.8369 127.947 74.635 128.65C74.4332 129.387 74.9041 130.091 75.6106 130.359Z" fill="black"/>
<path d="M77.1916 127.277C76.8552 128.583 76.4852 129.89 76.1488 131.196C75.6778 132.904 78.3689 133.641 78.8399 131.933C79.1763 130.627 79.5463 129.32 79.8827 128.014C80.32 126.272 77.6625 125.535 77.1916 127.277Z" fill="black"/>
<path d="M37.2286 111.299C36.6568 109.189 35.8494 107.179 34.8403 105.27C34.5712 105.94 34.302 106.61 33.9993 107.313C35.513 107.112 37.0268 107.045 38.5405 107.045C38.1032 106.476 37.6323 105.873 37.195 105.304C36.7913 106.911 36.354 108.519 35.8494 110.094C35.4794 111.299 34.7393 112.539 35.3448 113.745C35.614 114.281 36.354 114.548 36.9259 114.381C37.5314 114.214 37.9014 113.845 38.036 113.242C38.1705 112.706 37.9687 111.936 37.3968 111.668C37.3632 111.668 37.3295 111.634 37.3295 111.634C35.7149 110.931 34.302 113.309 35.9167 114.013C35.9503 114.013 35.984 114.046 35.984 114.046C35.7822 113.51 35.5467 113.008 35.3448 112.472C35.3448 112.505 35.3112 112.572 35.3112 112.606C35.6476 112.271 35.9503 111.969 36.2867 111.634C36.2531 111.634 36.2195 111.668 36.1522 111.668C36.6904 111.869 37.195 112.103 37.7332 112.304C37.6996 112.237 37.6659 112.17 37.6323 112.103C37.6659 112.472 37.7332 112.807 37.7668 113.175C38.2378 110.763 39.2806 108.385 39.8861 106.007C40.0879 105.136 39.4824 104.265 38.5405 104.265C36.7577 104.265 35.0085 104.399 33.2592 104.634C32.3174 104.768 32.0482 105.973 32.4183 106.677C33.3265 108.385 34.0329 110.16 34.5375 112.036C35.0085 113.745 37.6996 113.041 37.2286 111.299Z" fill="black"/>
<path d="M56.6719 98.4703C53.8126 97.3985 49.675 96.8625 46.9166 98.5708C44.8983 99.8102 44.8646 103.863 47.8585 103.696C50.9196 103.528 50.4151 99.6092 48.3631 98.4368C45.6047 96.829 41.8371 96.6615 39.0788 98.2694C37.5314 99.1738 38.9442 101.552 40.4916 100.648C41.6353 99.9777 42.8127 99.8102 44.091 99.9442C45.5374 100.112 47.0512 101.15 48.464 100.815C51.1215 100.246 53.2744 100.145 55.8982 101.117C57.6138 101.786 58.3202 99.1068 56.6719 98.4703Z" fill="black"/>
<path d="M18.3572 86.5792C19.4673 86.5792 20.5774 86.5792 21.7211 86.5792C23.504 86.5792 23.504 83.799 21.7211 83.799C20.611 83.799 19.5009 83.799 18.3572 83.799C16.5744 83.799 16.5744 86.5792 18.3572 86.5792Z" fill="black"/>
<path d="M18.1554 83.0286C17.9536 85.0719 17.9536 87.0816 18.2227 89.1249C18.4245 90.8667 21.2165 90.9002 21.0147 89.1249C20.7456 87.0816 20.7456 85.0719 20.9474 83.0286C21.1156 81.2533 18.3236 81.2868 18.1554 83.0286Z" fill="black"/>
<path d="M24.6477 103.495C23.1339 104.366 22.8312 101.887 23.6049 101.016C24.2777 100.279 25.0177 100.447 25.085 99.1403C25.1186 98.2359 24.7823 97.5324 26.0269 97.298C27.7761 96.963 27.0361 94.3168 25.2868 94.6183C22.2593 95.1877 21.082 99.2073 23.2685 101.385C25.5896 103.696 29.0207 100.078 26.1951 98.2024C23.4031 96.3601 20.3756 99.5422 20.3419 102.289C20.3083 105.27 23.3358 107.414 26.0605 105.873C27.6079 105.002 26.1951 102.59 24.6477 103.495Z" fill="black"/>
<path d="M64.1733 60.2177C64.2406 56.3657 61.2131 53.0495 57.2437 53.1835C55.5618 53.2505 53.5098 53.9539 52.5679 55.3943C51.6933 56.7341 52.1643 58.6769 53.8126 59.0788C55.6291 59.5478 56.8064 57.873 56.9074 56.2652C57.0083 54.4899 56.2682 52.7146 55.0909 51.3747C53.0052 48.9965 48.2285 47.5562 46.6811 51.2073C46.0084 52.8486 48.6658 53.552 49.3723 51.9442C49.8096 50.9393 52.2652 52.4801 52.6352 52.8151C53.1734 53.284 53.5771 53.8869 53.8462 54.5569C54.149 55.2938 53.8799 56.6336 55.0572 56.7341C55.3936 56.4662 55.7636 56.2987 56.1673 56.1647C56.5373 56.0307 56.8737 55.9637 57.2774 55.9637C58.0174 55.9302 58.7911 56.0642 59.4639 56.4662C60.8431 57.2366 61.4822 58.7439 61.4486 60.2512C61.3813 61.993 64.1733 61.993 64.1733 60.2177Z" fill="black"/>
<path d="M53.6444 43.0677C52.1643 41.9623 50.6842 40.8234 49.2041 39.7181C49.1031 40.5555 48.9686 41.3929 48.8677 42.2303C50.3814 41.7278 51.8952 41.2924 53.4425 40.9574C52.8707 40.522 52.2652 40.053 51.6933 39.6176C51.626 41.0579 51.6933 42.4983 51.8279 43.9051C51.9961 45.6469 54.7545 45.6804 54.6199 43.9051C54.4854 42.4648 54.4517 41.0579 54.4854 39.6176C54.519 38.6797 53.5771 38.1103 52.7361 38.2777C51.1887 38.6127 49.675 39.0481 48.1613 39.5506C46.9503 39.9525 46.883 41.3594 47.8249 42.0628C49.305 43.1682 50.7851 44.307 52.2652 45.4124C52.8707 45.8814 53.8126 45.5129 54.149 44.91C54.5526 44.2736 54.2499 43.5366 53.6444 43.0677Z" fill="black"/>
<path d="M78.9408 65.7446C78.3353 66.448 77.7298 67.1514 77.1579 67.8549C77.9316 68.2903 78.7053 68.7592 79.479 69.1947C79.8154 66.9505 79.7818 64.8067 79.2772 62.5959C78.5035 63.0314 77.7298 63.5003 76.9561 63.9358C77.4943 64.4717 77.9316 65.0412 78.2008 65.7111C78.8735 67.3524 81.5646 66.6155 80.8919 64.9742C80.4209 63.8353 79.8154 62.8304 78.9072 61.9595C77.898 60.9546 76.2833 61.993 76.5861 63.2994C76.9561 64.9742 77.057 66.716 76.7879 68.4243C76.6197 69.6301 78.0998 70.9365 79.109 69.7641C79.7145 69.0607 80.32 68.3573 80.8919 67.6539C82.0692 66.3475 80.0845 64.3712 78.9408 65.7446Z" fill="black"/>
<path d="M150.793 82.8611C149.717 83.1961 148.775 83.7655 148.001 84.5359C148.775 84.8709 149.582 85.1724 150.356 85.5073C150.423 84.3685 150.524 83.2296 150.592 82.0907C149.717 82.3252 148.876 82.5597 148.001 82.7941C148.27 83.1626 148.506 83.5645 148.775 83.933C149.751 85.4068 152.173 84.0335 151.163 82.5262C150.894 82.1577 150.659 81.7558 150.39 81.3873C149.616 80.2149 147.9 80.7174 147.8 82.0907C147.732 83.2296 147.631 84.3685 147.564 85.5073C147.463 86.7132 149.111 87.2826 149.919 86.4787C150.356 86.0098 150.861 85.7083 151.5 85.5073C153.215 84.9714 152.475 82.3252 150.793 82.8611Z" fill="black"/>
<path d="M110.326 54.9923C112.647 55.3273 115.304 55.1598 116.684 52.9825C117.659 51.4417 117.323 48.3601 114.833 48.829C112.681 49.231 112.95 51.9107 114.8 52.4801C116.852 53.15 119.173 52.3461 120.518 50.7383C121.662 49.3985 119.711 47.4222 118.567 48.7955C118.13 49.298 116.381 50.6378 115.641 49.8339C115.775 50.1689 115.91 50.4703 116.044 50.8053C116.044 50.7048 116.044 50.6043 116.044 50.5038C115.91 50.8388 115.775 51.1403 115.641 51.4752C116.28 50.8053 113.353 52.2456 113.353 52.2456C112.647 52.5471 111.772 52.4466 111.032 52.3461C109.317 52.0447 108.543 54.7243 110.326 54.9923Z" fill="black"/>
<path d="M74.4332 22.836C75.476 23.2045 76.4515 23.6399 77.4271 24.1089C79.0081 24.9128 80.4209 22.5345 78.8399 21.7306C77.6625 21.1277 76.4179 20.5918 75.1733 20.1563C74.4668 19.9218 73.6595 20.4243 73.4577 21.1277C73.2558 21.8981 73.7268 22.568 74.4332 22.836Z" fill="black"/>
<path d="M76.5525 19.5534C75.106 20.9937 73.7941 22.5345 72.6167 24.1759C72.1794 24.7788 72.5158 25.7167 73.1213 26.0516C73.8277 26.4536 74.5678 26.1521 75.0051 25.5492C76.0479 24.0754 77.2252 22.7355 78.5035 21.4627C79.7818 20.2568 77.8307 18.314 76.5525 19.5534Z" fill="black"/>
<path d="M60.3722 25.3817C61.2804 26.6546 58.5893 27.358 57.8156 27.5255C57.3447 27.626 56.3355 27.9609 55.8982 27.626C55.6627 27.559 55.5954 27.3915 55.73 27.09C55.8646 26.5206 55.8646 26.4536 55.73 26.822C55.1581 26.889 54.6199 26.956 54.0481 27.023C54.149 27.0565 54.2162 27.09 54.3172 27.1235C54.1153 26.8555 53.8799 26.5876 53.678 26.2861C54.3844 27.9944 49.675 29.4682 48.5649 29.0328C48.834 29.2338 49.1031 29.4682 49.4059 29.6692C49.3722 29.6022 49.3386 29.5687 49.2713 29.5017C49.2041 30.0712 49.1368 30.6071 49.0695 31.1765C49.1031 31.1431 49.1368 31.1096 49.1704 31.0761C50.4487 29.8032 48.464 27.8604 47.2194 29.1333C47.1857 29.1668 47.1521 29.2003 47.1185 29.2338C46.7148 29.6357 46.5466 30.4061 46.9166 30.9086C48.3967 32.9518 52.5343 31.411 54.2162 30.3056C55.6964 29.3343 58.1184 25.8172 55.4609 24.6448C54.8217 24.3768 54.3172 24.4438 53.7789 24.8458C52.8371 25.6497 52.7698 27.559 53.1734 28.6308C53.8462 30.4396 55.7973 30.5066 57.4792 30.3056C60.3049 29.9372 65.3507 27.492 62.7942 23.9079C61.7514 22.568 59.3294 23.9414 60.3722 25.3817Z" fill="black"/>
<path d="M78.1671 43.5031C78.4362 43.5701 78.7053 43.6371 78.9408 43.7041C79.3108 43.8046 79.6809 43.7376 80.0173 43.5701C80.32 43.4027 80.5891 43.0677 80.6564 42.7327C80.7237 42.3643 80.7237 41.9958 80.5218 41.6608C80.32 41.3594 80.0509 41.1249 79.6809 41.0244C79.4118 40.9574 79.1426 40.8904 78.9072 40.8234C78.5371 40.723 78.1671 40.7899 77.8307 40.9574C77.528 41.1249 77.2589 41.4599 77.1916 41.7948C77.1243 42.1633 77.1243 42.5317 77.3261 42.8667C77.528 43.1682 77.8307 43.4026 78.1671 43.5031Z" fill="black"/>
<path d="M77.9989 40.6225C77.9316 41.2254 77.8307 41.7948 77.7634 42.3978C77.6962 42.7997 77.6962 43.1012 77.898 43.4696C78.0662 43.7711 78.4026 44.0391 78.739 44.1061C79.3781 44.2401 80.3536 43.9051 80.4546 43.1347C80.5218 42.5317 80.6227 41.9623 80.69 41.3594C80.7573 40.9574 80.7573 40.656 80.5555 40.2875C80.3873 39.986 80.0509 39.7181 79.7145 39.6511C79.0754 39.5171 78.1335 39.8521 77.9989 40.6225Z" fill="black"/>
<path d="M38.1032 44.7425C39.2133 44.8765 40.3234 45.0105 41.4671 45.1779C42.2072 45.2784 42.8463 44.4745 42.8463 43.8046C42.8463 42.9672 42.2072 42.5317 41.4671 42.4313C40.357 42.2973 39.247 42.1633 38.1032 41.9958C37.3632 41.8953 36.724 42.6992 36.724 43.3692C36.724 44.1731 37.3632 44.642 38.1032 44.7425Z" fill="black"/>
<path d="M39.0788 41.9623C39.0788 42.9337 39.0788 43.9386 39.0788 44.91C39.0788 46.6853 41.8708 46.6853 41.8708 44.91C41.8708 43.9386 41.8708 42.9337 41.8708 41.9623C41.8708 40.187 39.0788 40.187 39.0788 41.9623Z" fill="black"/>
<path d="M69.9592 87.0146C70.0265 86.7802 70.1274 86.5457 70.1947 86.3112C70.5647 86.4117 70.6656 86.3782 70.4975 86.1772C70.4975 86.1772 70.1611 85.3398 70.1947 85.4068C69.9929 84.7369 69.9592 84.067 69.9592 83.3636C69.1855 83.6985 68.3782 84 67.6045 84.335C67.5709 84.2345 67.5372 84.134 67.47 84.0335C68.0082 83.8325 68.5128 83.598 69.051 83.3971C67.9745 83.0621 67.1672 82.3922 66.5617 81.4208C65.6198 79.9135 63.2315 81.2868 64.1733 82.8276C65.1489 84.4019 66.5281 85.4738 68.3109 86.0433C68.9164 86.2442 69.5219 85.9093 69.892 85.4068C70.5647 84.4019 70.3629 83.1961 69.5892 82.3587C68.7482 81.4543 67.2345 82.1912 67.2345 83.3301C67.2008 85.1724 67.5372 87.7181 69.3201 88.6895C71.103 89.6943 72.9531 88.0865 72.684 86.2442C72.3812 84.5359 69.7238 85.2728 69.9592 87.0146Z" fill="black"/>
<path d="M45.6383 68.3908C43.0145 68.7927 41.9381 72.6448 44.3601 74.0516C45.4365 74.6881 47.0175 74.3196 47.3203 73.0133C47.4885 72.3433 47.1521 71.9414 46.883 71.3719C46.6811 70.9365 46.7484 70.4676 46.9166 70.0321C47.1857 69.3287 46.6139 68.5248 45.9411 68.3238C45.1674 68.1228 44.4946 68.5918 44.2255 69.2952C43.99 69.9651 43.9228 70.6685 44.0237 71.3384C44.0573 71.6734 44.1582 71.9414 44.2591 72.2428C44.3264 72.4103 44.3937 72.5778 44.4946 72.7453C44.5283 72.8123 44.5955 72.9128 44.6292 72.9798C44.6964 73.0468 44.6964 73.0802 44.6292 72.9798C44.6292 72.7453 44.6292 72.4773 44.6292 72.2428C44.6292 72.1424 45.4701 71.5729 45.6047 71.5729C46.412 71.7404 45.7729 71.8409 45.8065 71.6399C45.8065 71.6064 45.7393 71.4054 45.7393 71.3719C45.7729 71.104 46.0084 71.037 46.3448 71.0035C47.0848 70.903 47.4885 69.9651 47.3203 69.2952C47.1184 68.5583 46.3784 68.2903 45.6383 68.3908Z" fill="black"/>
<path d="M24.7822 62.261C23.8404 61.9595 22.7639 61.7585 21.8557 62.2945C21.0147 62.7969 20.5101 63.8353 20.7456 64.7732C20.9811 65.7781 21.9566 66.4145 22.9658 66.314C24.0422 66.2135 24.715 65.5101 25.2868 64.6727C25.6905 64.0698 25.4214 63.0984 24.7822 62.7969C24.0758 62.4285 23.3358 62.6629 22.8985 63.2994C22.8648 63.3664 22.7976 63.4334 22.7303 63.5003C22.7976 63.3999 22.7976 63.3999 22.6966 63.5338C22.5621 63.6343 22.5621 63.6678 22.6966 63.5673C22.663 63.6008 22.6294 63.6008 22.5957 63.6343C22.663 63.6008 22.7639 63.5673 22.8312 63.5673C22.5957 63.5673 22.663 63.6008 23.1003 63.6678C23.3358 63.8018 23.4703 64.0698 23.4703 64.3378C23.4703 64.4047 23.4367 64.5052 23.4031 64.5722C23.2685 64.7062 23.2685 64.7062 23.3694 64.6057C23.3021 64.6727 23.2012 64.7062 23.1339 64.7397C23.3021 64.7062 23.3358 64.6727 23.2349 64.7062C23.1339 64.7062 23.2012 64.7397 23.3358 64.7062C23.2349 64.6727 23.2349 64.7062 23.4367 64.7397C23.6385 64.8067 23.8404 64.8402 24.0422 64.9072C24.715 65.1417 25.5896 64.6392 25.7578 63.9358C25.926 63.1989 25.5223 62.529 24.7822 62.261Z" fill="black"/>
<path d="M80.1518 101.485C80.1182 102.021 80.1182 102.791 79.6472 103.16C79.3781 103.394 79.5463 103.093 79.6472 103.227C79.8491 103.662 79.8154 103.897 79.1763 103.997C79.9163 103.897 80.5555 103.428 80.5555 102.624C80.5555 101.954 79.9163 101.15 79.1763 101.251C77.9989 101.418 77.0907 102.188 76.9898 103.428C76.9225 104.567 77.7298 105.572 78.8399 105.873C79.95 106.174 81.1273 105.739 81.8674 104.868C82.6747 103.897 82.8429 102.724 82.9438 101.485C83.0111 100.748 82.271 100.112 81.5646 100.112C80.7237 100.112 80.1854 100.748 80.1518 101.485Z" fill="black"/>
<path d="M67.0327 109.524C65.7544 108.955 64.3415 108.553 62.996 109.189C61.8523 109.692 61.0113 110.864 61.1122 112.137C61.1795 112.84 61.7177 113.577 62.4914 113.51C63.7697 113.376 65.1152 112.84 65.8217 111.701C66.7299 110.16 65.2161 108.687 63.7024 109.39C63.0296 109.692 62.8614 110.696 63.1978 111.266C63.6015 111.969 64.4088 112.07 65.0816 111.768C65.1152 111.735 65.1489 111.735 65.1825 111.701C64.8125 111.735 64.4761 111.802 64.1061 111.835C64.1397 111.869 64.207 111.869 64.2406 111.902C63.9715 111.701 63.7024 111.467 63.3997 111.266C63.4333 111.299 63.4669 111.333 63.4669 111.4C63.4333 111.031 63.366 110.696 63.3324 110.328C63.4333 110.227 63.3997 110.294 63.1978 110.462C63.1305 110.495 63.0633 110.529 62.996 110.596C62.8278 110.696 62.6596 110.763 62.4578 110.763C62.9287 111.232 63.3997 111.701 63.837 112.137C63.7697 111.266 65.1825 111.735 65.5862 111.936C66.259 112.237 67.0663 112.137 67.47 111.433C67.8736 110.83 67.7054 109.826 67.0327 109.524Z" fill="black"/>
<path d="M41.4671 132.536C41.3662 132.502 41.2653 132.435 41.198 132.335C41.2316 132.335 41.2316 132.368 41.2653 132.402C41.2989 132.402 41.0971 132.703 41.0635 132.737C40.7271 133.105 40.0543 133.44 39.5497 133.541C39.7852 133.541 40.0543 133.541 40.2898 133.541C40.4243 133.574 40.3234 133.574 40.1888 133.407C40.0879 133.239 39.987 133.105 39.9197 132.904C39.8188 132.737 39.6506 132.435 39.7515 132.268C39.8525 132.1 40.3907 131.966 40.5589 131.933C40.6934 131.9 40.828 131.866 40.9625 131.866C41.198 131.866 40.8953 131.799 40.8953 131.766C40.7943 132.502 41.6017 133.139 42.2745 133.139C43.0818 133.139 43.5864 132.502 43.6536 131.766C43.7882 130.627 42.9472 129.588 41.9044 129.22C40.828 128.885 39.6843 129.186 38.7087 129.655C36.3204 130.794 36.724 133.407 38.0696 135.216C39.5161 137.158 42.3081 135.785 43.4518 134.144C44.5955 132.502 43.6873 129.722 41.4335 129.823C39.6843 129.823 39.6843 132.603 41.4671 132.536Z" fill="black"/>
<path d="M81.161 148.279C80.3873 145.599 75.476 145.264 74.7696 148.145C74.4332 149.518 75.4087 150.992 76.7879 151.327C78.4362 151.729 79.8491 150.49 80.3873 149.05C80.6564 148.346 80.0845 147.542 79.4118 147.341C78.6381 147.14 77.9653 147.609 77.6962 148.313C77.6289 148.48 77.3598 148.581 77.3261 148.614C77.6625 148.279 77.4607 149.15 77.4271 148.614C77.4271 148.648 77.3598 149.083 77.2925 149.05C77.2589 148.983 78.1335 148.916 78.2008 148.916C78.0662 148.882 78.6381 149.05 78.4699 149.016C78.4699 149.016 78.5371 149.184 78.4699 149.05C78.9744 150.724 81.6319 149.987 81.161 148.279Z" fill="black"/>
<path d="M53.5771 140.809C53.678 143.054 55.2254 144.997 57.5465 145.164C59.5312 145.331 62.1887 143.858 61.6168 141.546C61.0786 139.302 58.0847 139.403 57.311 141.446C56.4028 143.824 59.1612 145.8 61.0449 146.571C62.6596 147.274 64.0724 144.896 62.4578 144.193C61.2468 143.657 59.8676 142.116 58.5893 142.283C57.4456 142.417 56.4364 142.183 56.3691 140.809C56.2682 139.034 53.4762 139.034 53.5771 140.809Z" fill="black"/>
<path d="M131.316 140.341C131.888 138.967 130.98 137.326 129.635 136.823C128.255 136.321 126.573 136.89 125.766 138.13C124.925 139.436 125.329 141.245 126.91 141.714C128.356 142.149 129.937 141.546 131.047 140.609C131.619 140.14 131.552 139.168 131.047 138.666C130.476 138.096 129.668 138.163 129.096 138.666C128.827 138.9 128.457 139.034 128.087 139.068C128.054 139.068 127.751 139.101 127.818 139.068C127.751 139.068 127.717 139.034 127.65 139.034C127.751 139.135 127.885 139.202 127.986 139.302C128.054 139.369 128.02 139.604 128.054 139.671C127.986 139.604 128.188 139.47 128.087 139.604C128.222 139.47 128.491 139.336 128.693 139.436C128.558 139.369 128.693 139.369 128.693 139.503C128.693 139.336 128.659 139.537 128.625 139.604C128.323 140.307 128.928 141.111 129.601 141.312C130.408 141.513 131.014 141.044 131.316 140.341Z" fill="black"/>
<path d="M129.567 114.247C128.457 113.544 127.044 113.008 125.8 113.745C124.589 114.448 124.185 116.19 125.194 117.262C126.271 118.401 127.885 117.831 128.726 116.759C129.13 116.257 129.365 115.754 129.332 115.118C129.265 114.314 128.592 113.477 127.717 113.577C126.977 113.678 126.338 114.147 126.338 114.95C126.338 115.62 126.977 116.424 127.717 116.324C127.751 116.324 127.784 116.324 127.818 116.324C127.583 116.257 127.347 116.19 127.112 116.123C127.044 116.089 127.011 116.056 126.943 115.989C126.809 115.788 126.708 115.587 126.573 115.386C126.573 115.285 126.573 115.185 126.573 115.084C126.641 114.95 126.641 114.917 126.573 115.017C126.54 115.017 126.439 115.218 126.439 115.185C126.405 114.984 127.213 115.352 127.28 115.486C127.347 115.587 127.381 115.687 127.347 115.821C127.313 115.955 127.28 116.056 127.179 116.123C127.145 116.156 127.145 116.156 127.112 116.156C126.977 116.156 127.011 116.156 127.179 116.156C127.145 116.156 127.145 116.156 127.112 116.123C127.482 116.156 127.818 116.424 128.121 116.625C129.668 117.563 131.081 115.185 129.567 114.247Z" fill="black"/>
<path d="M94.6838 113.812C95.592 115.352 95.7602 116.994 95.1884 118.669C94.9865 119.238 95.3229 119.941 95.8275 120.243C97.5431 121.147 98.5859 119.573 99.5278 118.367C100.739 116.759 101.849 115.084 102.858 113.343C103.766 111.802 101.344 110.395 100.47 111.936C99.8642 113.008 99.1914 114.046 98.485 115.084C98.1486 115.587 97.7786 116.089 97.4085 116.592C97.2403 116.826 96.7021 117.764 96.3657 117.831C96.7358 117.865 97.0722 117.932 97.4422 117.965C97.3749 117.932 97.3076 117.898 97.2403 117.865C97.4422 118.401 97.6777 118.903 97.8795 119.439C98.6532 117.094 98.3504 114.582 97.0722 112.438C96.1639 110.897 93.7755 112.271 94.6838 113.812Z" fill="black"/>
<path d="M124.891 64.8067C125.127 65.0077 124.858 64.6727 124.925 64.8067C124.992 64.9407 124.791 64.6057 124.925 64.8402C124.925 64.8067 124.925 64.7397 124.891 64.7062C124.891 64.8402 124.891 64.8402 124.891 64.7397C124.891 64.6057 124.757 64.8737 124.925 64.6392C124.992 64.5387 125.06 64.5052 124.925 64.6057C125.161 64.3712 124.824 64.6057 124.992 64.5387C125.093 64.5052 125.06 64.5052 124.959 64.5387C124.992 64.5387 125.06 64.5387 125.093 64.5052C124.824 64.4382 125.329 64.5722 125.026 64.4717C125.362 65.0412 125.665 65.6106 126.002 66.18C126.035 66.0796 126.035 65.9456 126.102 65.8451C125.968 66.2135 126.271 65.6441 126.136 65.8116C126.002 66.0126 126.405 65.5771 126.203 65.7446C126.035 65.8786 126.607 65.5771 126.237 65.7111C126.91 65.4431 127.448 64.7732 127.213 64.0028C127.011 63.3664 126.237 62.7634 125.497 63.0314C124.421 63.4669 123.546 64.2708 123.31 65.4431C123.176 66.18 123.512 66.917 124.286 67.1514C125.396 67.4864 126.708 67.0174 127.28 65.9791C127.852 64.9742 127.65 63.5673 126.775 62.7969C126.237 62.328 125.329 62.2275 124.824 62.7969C124.387 63.3999 124.286 64.3043 124.891 64.8067Z" fill="black"/>
<path d="M136.362 102.691C136.026 101.786 135.42 100.983 134.411 100.715C133.436 100.447 132.326 100.849 131.821 101.719C131.316 102.624 131.586 103.763 132.393 104.366C133.469 105.203 134.815 104.366 135.387 103.361C135.757 102.724 135.555 101.82 134.882 101.485C134.209 101.15 133.368 101.318 132.998 101.987C132.864 102.222 133.167 101.92 132.931 102.088C133.167 101.92 132.729 102.155 133.032 102.054C133.268 102.054 133.537 102.054 133.772 102.054C134.041 102.121 134.277 102.322 134.344 102.59C134.344 102.657 134.344 102.724 134.378 102.791C134.378 102.624 134.378 102.657 134.31 102.925C134.243 103.126 134.209 103.26 134.008 103.361C133.839 103.428 133.806 103.428 133.907 103.394C134.008 103.361 133.974 103.361 133.772 103.394C134.041 103.361 133.57 103.361 133.739 103.394C133.873 103.428 133.57 103.361 133.537 103.294C133.57 103.327 133.638 103.361 133.671 103.428C133.738 103.495 133.738 103.495 133.638 103.361C133.671 103.428 133.806 103.729 133.705 103.461C133.974 104.131 134.647 104.667 135.42 104.433C136.06 104.198 136.631 103.428 136.362 102.691Z" fill="black"/>
<path d="M151.836 66.3475C150.894 67.0509 149.952 67.7544 149.044 68.4578C148.439 68.8932 148.136 69.6636 148.54 70.3336C148.876 70.9365 149.852 71.2715 150.423 70.836C151.365 70.1326 152.307 69.4292 153.215 68.7257C153.821 68.2903 154.124 67.5199 153.72 66.85C153.417 66.247 152.442 65.8786 151.836 66.3475Z" fill="black"/>
<path d="M148.641 67.6874C149.481 68.7257 150.356 69.7976 151.197 70.836C151.668 71.4054 152.677 71.3384 153.148 70.836C153.72 70.2666 153.619 69.4627 153.148 68.8932C152.307 67.8548 151.433 66.783 150.592 65.7446C150.121 65.1752 149.111 65.2421 148.641 65.7446C148.035 66.314 148.17 67.0844 148.641 67.6874Z" fill="black"/>
<path d="M92.3964 17.7111C91.3535 19.1849 90.849 20.9267 90.849 22.702C90.849 24.4773 93.641 24.4773 93.641 22.702C93.641 21.3622 94.011 20.1898 94.7847 19.0844C95.7939 17.6441 93.4055 16.2708 92.3964 17.7111Z" fill="black"/>
<path d="M93.271 65.1082C93.3046 65.3426 93.3046 65.7111 93.3046 65.8786C93.3046 65.8116 93.2373 66.113 93.2373 66.1465C93.3046 65.9791 93.3382 66.0796 93.2037 66.113C93.2373 66.113 93.4728 66.0126 93.3046 66.0461C93.1028 66.113 93.6074 66.0461 93.7419 66.113C94.1119 66.3475 94.0783 66.85 93.8092 67.1514C94.3138 66.6155 94.3474 65.7446 93.8092 65.2086C93.3046 64.7062 92.3627 64.6727 91.8581 65.2086C90.5798 66.582 91.6227 68.8597 93.5064 68.7927C94.381 68.7592 95.222 68.2233 95.6593 67.4529C96.0966 66.7495 96.1303 65.8786 96.063 65.0747C95.9957 64.3712 95.4575 63.6678 94.6838 63.7013C93.9437 63.7683 93.2037 64.3377 93.271 65.1082Z" fill="black"/>
<path d="M113.589 62.261C113.421 61.6581 113.017 61.0216 112.445 60.7537C111.638 60.3852 110.629 60.5192 110.057 61.2561C109.519 61.9595 109.552 62.9309 110.191 63.5673C110.83 64.1703 111.974 64.2708 112.613 63.5673C112.849 63.2994 113.017 62.9644 113.017 62.5959C113.017 62.261 112.882 61.859 112.613 61.6246C112.109 61.1556 111.167 61.0216 110.662 61.6246C110.797 61.5241 110.965 61.4236 111.133 61.3566C111.268 61.3566 111.369 61.3231 111.503 61.3231C111.47 61.3231 111.436 61.3231 111.402 61.3231C111.537 61.3231 111.638 61.3566 111.772 61.3566C111.671 61.3231 111.705 61.3566 111.84 61.3901C111.974 61.4236 112.075 61.4906 112.142 61.5911C112.21 61.6581 112.243 61.725 112.311 61.792C112.411 62.06 112.445 62.127 112.411 61.993C112.411 62.127 112.445 62.2275 112.445 62.3615C112.445 62.328 112.445 62.328 112.445 62.2945C112.445 62.4285 112.411 62.529 112.411 62.6629C112.445 62.5625 112.411 62.596 112.378 62.7299C112.344 62.8639 112.277 62.9644 112.176 63.0314C112.109 63.0984 112.041 63.1319 111.974 63.1989C111.739 63.2994 111.671 63.2994 111.806 63.2659C111.671 63.2659 111.57 63.2994 111.436 63.2994C111.503 63.2994 111.537 63.2994 111.604 63.2994C111.47 63.2994 111.369 63.2659 111.234 63.2659C111.335 63.2994 111.301 63.2659 111.2 63.2324C111.066 63.1654 111.066 63.1654 111.167 63.2324C111.1 63.1989 111.032 63.1319 110.999 63.0984C111.066 63.1654 111.066 63.1654 110.965 63.0649C110.763 62.8304 110.999 63.0984 110.965 63.0984C110.898 63.0984 110.83 62.7299 110.898 63.0314C111.066 63.7348 111.907 64.2373 112.613 64.0028C113.353 63.7013 113.791 62.9979 113.589 62.261Z" fill="black"/>
<path d="M81.8674 31.277C81.1273 31.0091 80.2191 31.1431 79.5799 31.5785C78.7726 32.0809 78.4026 32.8179 78.268 33.7223C78.1671 34.4257 78.9744 35.1291 79.6472 35.0956C80.4882 35.0621 80.9255 34.4927 81.0264 33.7223C80.9928 33.9232 80.9928 33.9567 81.0264 33.8562C81.0601 33.7892 81.0264 33.7892 80.9928 33.8897C80.9591 33.9902 80.9591 33.9902 80.9928 33.8897C80.9928 33.8562 81.0264 33.8227 81.0264 33.8227C80.9928 33.8227 80.8246 34.0572 81.0264 33.8562C81.0937 33.8227 81.0601 33.8227 80.9928 33.8897C80.8919 33.9567 80.8919 33.9567 80.9928 33.8897C81.1946 33.8562 80.8919 33.8562 80.9255 33.9232C80.9255 33.8897 81.2619 33.8562 80.9928 33.8897C80.7237 33.8897 81.0937 33.8897 81.0937 33.8897C81.0937 33.9232 80.7573 33.7892 81.0937 33.9232C81.7665 34.1577 82.6411 33.6553 82.8093 32.9518C83.0111 32.1814 82.5738 31.545 81.8674 31.277Z" fill="black"/>
<path d="M63.837 46.8193C63.1642 46.2163 62.3232 46.1493 61.5495 46.5178C60.9104 46.8193 60.4731 47.5227 60.4731 48.2261C60.4731 49.9009 62.7269 50.7718 63.8706 49.5659C64.3752 49.03 64.4425 48.1256 63.8706 47.6232C63.3324 47.1207 62.4578 47.0537 61.9195 47.6232C61.8859 47.6567 61.8859 47.6567 61.8523 47.6902C61.9532 47.6232 62.0541 47.5562 62.1214 47.4892C62.0877 47.5227 62.0541 47.5227 62.0205 47.5562C62.1214 47.5227 62.2559 47.4557 62.3568 47.4222C62.3232 47.4222 62.2896 47.4557 62.2223 47.4557C62.3568 47.4557 62.4578 47.4222 62.5923 47.4222C62.525 47.4222 62.4914 47.4222 62.4241 47.4222C62.5587 47.4222 62.6596 47.4557 62.7942 47.4557C62.7269 47.4557 62.6932 47.4222 62.626 47.4222C62.7269 47.4557 62.8614 47.5227 62.9623 47.5562C62.8951 47.5227 62.8278 47.4892 62.7605 47.4557C62.8614 47.5227 62.9623 47.5897 63.0296 47.6567C62.996 47.6232 62.9624 47.5897 62.9287 47.5562C62.996 47.6567 63.0633 47.7572 63.1305 47.8241C63.0969 47.7906 63.0969 47.7572 63.0633 47.7237C63.0969 47.8241 63.1642 47.9581 63.1978 48.0586C63.1978 48.0251 63.1642 47.9916 63.1642 47.9246C63.1642 48.0586 63.1978 48.1591 63.1978 48.2931C63.1978 48.2596 63.1978 48.1926 63.1978 48.1591C63.1978 48.2931 63.1642 48.3936 63.1642 48.5276C63.1642 48.4941 63.1978 48.4606 63.1978 48.3936C63.1642 48.4941 63.0969 48.6281 63.0633 48.7285C63.0969 48.695 63.0969 48.6615 63.1305 48.6281C63.0633 48.7285 62.996 48.829 62.9287 48.896C62.9624 48.8625 62.996 48.829 63.0296 48.7955C62.9287 48.8625 62.8278 48.9295 62.7605 48.9965C62.8278 48.963 62.8951 48.9295 62.9623 48.896C62.8614 48.9295 62.7269 48.9965 62.626 49.03C62.6932 48.9965 62.7269 48.9965 62.7942 48.9965C62.6596 48.9965 62.5587 49.03 62.4241 49.03C62.4914 49.03 62.525 49.03 62.5923 49.03C62.4578 49.03 62.3568 48.9965 62.2223 48.9965C62.2559 48.9965 62.2896 49.03 62.3568 49.03C62.2559 48.9965 62.1214 48.9295 62.0205 48.896C62.0541 48.9295 62.0877 48.9295 62.1214 48.963C62.0205 48.896 61.9195 48.829 61.8523 48.762L61.8859 48.7955C62.4241 49.298 63.3324 49.365 63.837 48.7955C64.3079 48.2261 64.4088 47.3217 63.837 46.8193Z" fill="black"/>
</g>
</svg>
